<svg width="398" height="513" viewBox="0 0 398 513" fill="none" xmlns="http://www.w3.org/2000/svg">
<g filter="url(#filter0_d_257_707)">
<path d="M75 79C75 70.1635 82.1634 63 91 63H307C315.837 63 323 70.1634 323 79V410C323 418.837 315.837 426 307 426H91C82.1634 426 75 418.837 75 410V79Z" fill="white"/>
</g>
<path d="M295.378 193.899C295.378 219.002 285.308 241.776 268.95 258.478C245.31 235.739 219.127 210.726 201.672 193.899C226.936 172.525 255.415 148.422 273.12 133.869C287.003 150.049 295.378 171.006 295.378 193.899Z" fill="#6AEEB6"/>
<path d="M208.649 193.681C208.649 132.872 208.649 111.439 208.649 92C239.842 92 267.753 106.045 286.406 128.157C271.951 140.348 240.051 166.766 208.649 193.681Z" fill="#8FFFE4"/>
<path d="M281.653 264.459C263.172 283.517 237.294 295.362 208.65 295.362C208.65 261.967 208.65 212.123 208.65 193.681C230.581 215.612 247.261 230.067 281.653 264.459Z" fill="#7DF7FF"/>
<path d="M237.485 308.002C230.507 313.09 217.621 313.804 208.649 312.309C208.649 272.434 208.649 249.838 208.649 193.681C215.1 218.848 225.135 256.285 237.485 308.002Z" fill="#04B4FF"/>
<path d="M208.65 305.331C138.979 305.331 97 249.838 97 193.681C128.9 193.681 152.493 193.681 208.65 193.681C208.65 204.148 208.65 249.008 208.65 305.331Z" fill="#146BFF"/>
<path d="M208.65 193.681C152.493 193.681 142.358 193.681 106.969 193.681C106.969 160.103 123.245 130.325 148.339 111.809C155.816 121.906 173.759 146.33 208.65 193.681Z" fill="#F4FF78"/>
<path d="M208.65 193.681C182.233 157.794 169.772 140.847 157.81 124.897C175.255 111.439 189.211 108.448 208.65 108.448C208.65 125.395 208.65 129.383 208.65 193.681Z" fill="#DBFF8F"/>
<rect x="93" y="335" width="12" height="12" rx="3" fill="#156BFF"/>
<path d="M123.192 337.004V346H122.009V339.292L119.019 346H118.187L115.184 339.279V346H114.001V337.004H115.275L118.603 344.44L121.931 337.004H123.192ZM131.698 342.165C131.698 342.39 131.685 342.629 131.659 342.88H125.965C126.009 343.582 126.247 344.132 126.68 344.531C127.122 344.921 127.655 345.116 128.279 345.116C128.791 345.116 129.215 344.999 129.553 344.765C129.9 344.522 130.143 344.202 130.281 343.803H131.555C131.365 344.488 130.983 345.047 130.411 345.48C129.839 345.905 129.129 346.117 128.279 346.117C127.603 346.117 126.997 345.965 126.459 345.662C125.931 345.359 125.515 344.93 125.211 344.375C124.908 343.812 124.756 343.162 124.756 342.425C124.756 341.688 124.904 341.043 125.198 340.488C125.493 339.933 125.905 339.509 126.433 339.214C126.971 338.911 127.586 338.759 128.279 338.759C128.955 338.759 129.553 338.906 130.073 339.201C130.593 339.496 130.992 339.903 131.269 340.423C131.555 340.934 131.698 341.515 131.698 342.165ZM130.476 341.918C130.476 341.467 130.377 341.082 130.177 340.761C129.978 340.432 129.705 340.185 129.358 340.02C129.02 339.847 128.643 339.76 128.227 339.76C127.629 339.76 127.118 339.951 126.693 340.332C126.277 340.713 126.039 341.242 125.978 341.918H130.476ZM132.818 342.412C132.818 341.684 132.965 341.047 133.26 340.501C133.554 339.946 133.957 339.517 134.469 339.214C134.989 338.911 135.569 338.759 136.211 338.759C136.765 338.759 137.281 338.889 137.758 339.149C138.234 339.4 138.598 339.734 138.85 340.15V336.38H140.046V346H138.85V344.661C138.616 345.086 138.269 345.437 137.81 345.714C137.35 345.983 136.813 346.117 136.198 346.117C135.565 346.117 134.989 345.961 134.469 345.649C133.957 345.337 133.554 344.899 133.26 344.336C132.965 343.773 132.818 343.131 132.818 342.412ZM138.85 342.425C138.85 341.888 138.741 341.42 138.525 341.021C138.308 340.622 138.013 340.319 137.641 340.111C137.277 339.894 136.874 339.786 136.432 339.786C135.99 339.786 135.587 339.89 135.223 340.098C134.859 340.306 134.568 340.609 134.352 341.008C134.135 341.407 134.027 341.875 134.027 342.412C134.027 342.958 134.135 343.435 134.352 343.842C134.568 344.241 134.859 344.548 135.223 344.765C135.587 344.973 135.99 345.077 136.432 345.077C136.874 345.077 137.277 344.973 137.641 344.765C138.013 344.548 138.308 344.241 138.525 343.842C138.741 343.435 138.85 342.962 138.85 342.425ZM142.656 337.719C142.431 337.719 142.24 337.641 142.084 337.485C141.928 337.329 141.85 337.138 141.85 336.913C141.85 336.688 141.928 336.497 142.084 336.341C142.24 336.185 142.431 336.107 142.656 336.107C142.873 336.107 143.055 336.185 143.202 336.341C143.358 336.497 143.436 336.688 143.436 336.913C143.436 337.138 143.358 337.329 143.202 337.485C143.055 337.641 142.873 337.719 142.656 337.719ZM143.228 338.876V346H142.045V338.876H143.228ZM144.802 342.425C144.802 341.688 144.949 341.047 145.244 340.501C145.539 339.946 145.946 339.517 146.466 339.214C146.995 338.911 147.597 338.759 148.273 338.759C149.148 338.759 149.868 338.971 150.431 339.396C151.003 339.821 151.38 340.41 151.562 341.164H150.288C150.167 340.731 149.928 340.388 149.573 340.137C149.226 339.886 148.793 339.76 148.273 339.76C147.597 339.76 147.051 339.994 146.635 340.462C146.219 340.921 146.011 341.576 146.011 342.425C146.011 343.283 146.219 343.946 146.635 344.414C147.051 344.882 147.597 345.116 148.273 345.116C148.793 345.116 149.226 344.995 149.573 344.752C149.92 344.509 150.158 344.163 150.288 343.712H151.562C151.371 344.44 150.99 345.025 150.418 345.467C149.846 345.9 149.131 346.117 148.273 346.117C147.597 346.117 146.995 345.965 146.466 345.662C145.946 345.359 145.539 344.93 145.244 344.375C144.949 343.82 144.802 343.17 144.802 342.425ZM152.699 342.412C152.699 341.684 152.846 341.047 153.141 340.501C153.435 339.946 153.838 339.517 154.35 339.214C154.87 338.911 155.446 338.759 156.079 338.759C156.703 338.759 157.244 338.893 157.704 339.162C158.163 339.431 158.505 339.769 158.731 340.176V338.876H159.927V346H158.731V344.674C158.497 345.09 158.146 345.437 157.678 345.714C157.218 345.983 156.681 346.117 156.066 346.117C155.433 346.117 154.861 345.961 154.35 345.649C153.838 345.337 153.435 344.899 153.141 344.336C152.846 343.773 152.699 343.131 152.699 342.412ZM158.731 342.425C158.731 341.888 158.622 341.42 158.406 341.021C158.189 340.622 157.894 340.319 157.522 340.111C157.158 339.894 156.755 339.786 156.313 339.786C155.871 339.786 155.468 339.89 155.104 340.098C154.74 340.306 154.449 340.609 154.233 341.008C154.016 341.407 153.908 341.875 153.908 342.412C153.908 342.958 154.016 343.435 154.233 343.842C154.449 344.241 154.74 344.548 155.104 344.765C155.468 344.973 155.871 345.077 156.313 345.077C156.755 345.077 157.158 344.973 157.522 344.765C157.894 344.548 158.189 344.241 158.406 343.842C158.622 343.435 158.731 342.962 158.731 342.425ZM163.109 336.38V346H161.926V336.38H163.109ZM174.649 339.591C174.649 340.345 174.389 340.973 173.869 341.476C173.358 341.97 172.573 342.217 171.516 342.217H169.774V346H168.591V336.939H171.516C172.539 336.939 173.314 337.186 173.843 337.68C174.38 338.174 174.649 338.811 174.649 339.591ZM171.516 341.242C172.175 341.242 172.66 341.099 172.972 340.813C173.284 340.527 173.44 340.12 173.44 339.591C173.44 338.473 172.799 337.914 171.516 337.914H169.774V341.242H171.516ZM177.302 340.033C177.51 339.626 177.805 339.309 178.186 339.084C178.576 338.859 179.048 338.746 179.603 338.746V339.968H179.291C177.965 339.968 177.302 340.687 177.302 342.126V346H176.119V338.876H177.302V340.033ZM180.527 342.412C180.527 341.684 180.674 341.047 180.969 340.501C181.263 339.946 181.666 339.517 182.178 339.214C182.698 338.911 183.274 338.759 183.907 338.759C184.531 338.759 185.072 338.893 185.532 339.162C185.991 339.431 186.333 339.769 186.559 340.176V338.876H187.755V346H186.559V344.674C186.325 345.09 185.974 345.437 185.506 345.714C185.046 345.983 184.509 346.117 183.894 346.117C183.261 346.117 182.689 345.961 182.178 345.649C181.666 345.337 181.263 344.899 180.969 344.336C180.674 343.773 180.527 343.131 180.527 342.412ZM186.559 342.425C186.559 341.888 186.45 341.42 186.234 341.021C186.017 340.622 185.722 340.319 185.35 340.111C184.986 339.894 184.583 339.786 184.141 339.786C183.699 339.786 183.296 339.89 182.932 340.098C182.568 340.306 182.277 340.609 182.061 341.008C181.844 341.407 181.736 341.875 181.736 342.412C181.736 342.958 181.844 343.435 182.061 343.842C182.277 344.241 182.568 344.548 182.932 344.765C183.296 344.973 183.699 345.077 184.141 345.077C184.583 345.077 184.986 344.973 185.35 344.765C185.722 344.548 186.017 344.241 186.234 343.842C186.45 343.435 186.559 342.962 186.559 342.425ZM189.312 342.425C189.312 341.688 189.459 341.047 189.754 340.501C190.049 339.946 190.456 339.517 190.976 339.214C191.505 338.911 192.107 338.759 192.783 338.759C193.658 338.759 194.378 338.971 194.941 339.396C195.513 339.821 195.89 340.41 196.072 341.164H194.798C194.677 340.731 194.438 340.388 194.083 340.137C193.736 339.886 193.303 339.76 192.783 339.76C192.107 339.76 191.561 339.994 191.145 340.462C190.729 340.921 190.521 341.576 190.521 342.425C190.521 343.283 190.729 343.946 191.145 344.414C191.561 344.882 192.107 345.116 192.783 345.116C193.303 345.116 193.736 344.995 194.083 344.752C194.43 344.509 194.668 344.163 194.798 343.712H196.072C195.881 344.44 195.5 345.025 194.928 345.467C194.356 345.9 193.641 346.117 192.783 346.117C192.107 346.117 191.505 345.965 190.976 345.662C190.456 345.359 190.049 344.93 189.754 344.375C189.459 343.82 189.312 343.17 189.312 342.425ZM199.093 339.851V344.05C199.093 344.397 199.167 344.644 199.314 344.791C199.462 344.93 199.717 344.999 200.081 344.999H200.952V346H199.886C199.228 346 198.734 345.848 198.404 345.545C198.075 345.242 197.91 344.743 197.91 344.05V339.851H196.987V338.876H197.91V337.082H199.093V338.876H200.952V339.851H199.093ZM202.997 337.719C202.771 337.719 202.581 337.641 202.425 337.485C202.269 337.329 202.191 337.138 202.191 336.913C202.191 336.688 202.269 336.497 202.425 336.341C202.581 336.185 202.771 336.107 202.997 336.107C203.213 336.107 203.395 336.185 203.543 336.341C203.699 336.497 203.777 336.688 203.777 336.913C203.777 337.138 203.699 337.329 203.543 337.485C203.395 337.641 203.213 337.719 202.997 337.719ZM203.569 338.876V346H202.386V338.876H203.569ZM205.143 342.425C205.143 341.688 205.29 341.047 205.585 340.501C205.88 339.946 206.287 339.517 206.807 339.214C207.336 338.911 207.938 338.759 208.614 338.759C209.489 338.759 210.209 338.971 210.772 339.396C211.344 339.821 211.721 340.41 211.903 341.164H210.629C210.508 340.731 210.269 340.388 209.914 340.137C209.567 339.886 209.134 339.76 208.614 339.76C207.938 339.76 207.392 339.994 206.976 340.462C206.56 340.921 206.352 341.576 206.352 342.425C206.352 343.283 206.56 343.946 206.976 344.414C207.392 344.882 207.938 345.116 208.614 345.116C209.134 345.116 209.567 344.995 209.914 344.752C210.261 344.509 210.499 344.163 210.629 343.712H211.903C211.712 344.44 211.331 345.025 210.759 345.467C210.187 345.9 209.472 346.117 208.614 346.117C207.938 346.117 207.336 345.965 206.807 345.662C206.287 345.359 205.88 344.93 205.585 344.375C205.29 343.82 205.143 343.17 205.143 342.425ZM219.981 342.165C219.981 342.39 219.968 342.629 219.942 342.88H214.248C214.292 343.582 214.53 344.132 214.963 344.531C215.405 344.921 215.938 345.116 216.562 345.116C217.074 345.116 217.498 344.999 217.836 344.765C218.183 344.522 218.426 344.202 218.564 343.803H219.838C219.648 344.488 219.266 345.047 218.694 345.48C218.122 345.905 217.412 346.117 216.562 346.117C215.886 346.117 215.28 345.965 214.742 345.662C214.214 345.359 213.798 344.93 213.494 344.375C213.191 343.812 213.039 343.162 213.039 342.425C213.039 341.688 213.187 341.043 213.481 340.488C213.776 339.933 214.188 339.509 214.716 339.214C215.254 338.911 215.869 338.759 216.562 338.759C217.238 338.759 217.836 338.906 218.356 339.201C218.876 339.496 219.275 339.903 219.552 340.423C219.838 340.934 219.981 341.515 219.981 342.165ZM218.759 341.918C218.759 341.467 218.66 341.082 218.46 340.761C218.261 340.432 217.988 340.185 217.641 340.02C217.303 339.847 216.926 339.76 216.51 339.76C215.912 339.76 215.401 339.951 214.976 340.332C214.56 340.713 214.322 341.242 214.261 341.918H218.759ZM224.065 346.117C223.519 346.117 223.029 346.026 222.596 345.844C222.163 345.653 221.82 345.393 221.569 345.064C221.318 344.726 221.179 344.34 221.153 343.907H222.375C222.41 344.262 222.574 344.553 222.869 344.778C223.172 345.003 223.567 345.116 224.052 345.116C224.503 345.116 224.858 345.016 225.118 344.817C225.378 344.618 225.508 344.366 225.508 344.063C225.508 343.751 225.369 343.521 225.092 343.374C224.815 343.218 224.386 343.066 223.805 342.919C223.276 342.78 222.843 342.642 222.505 342.503C222.176 342.356 221.89 342.143 221.647 341.866C221.413 341.58 221.296 341.207 221.296 340.748C221.296 340.384 221.404 340.05 221.621 339.747C221.838 339.444 222.145 339.205 222.544 339.032C222.943 338.85 223.398 338.759 223.909 338.759C224.698 338.759 225.335 338.958 225.82 339.357C226.305 339.756 226.565 340.302 226.6 340.995H225.417C225.391 340.622 225.239 340.323 224.962 340.098C224.693 339.873 224.329 339.76 223.87 339.76C223.445 339.76 223.107 339.851 222.856 340.033C222.605 340.215 222.479 340.453 222.479 340.748C222.479 340.982 222.553 341.177 222.7 341.333C222.856 341.48 223.047 341.602 223.272 341.697C223.506 341.784 223.827 341.883 224.234 341.996C224.745 342.135 225.161 342.273 225.482 342.412C225.803 342.542 226.076 342.741 226.301 343.01C226.535 343.279 226.656 343.63 226.665 344.063C226.665 344.453 226.557 344.804 226.34 345.116C226.123 345.428 225.816 345.675 225.417 345.857C225.027 346.03 224.576 346.117 224.065 346.117ZM228.712 346.078C228.487 346.078 228.296 346 228.14 345.844C227.984 345.688 227.906 345.497 227.906 345.272C227.906 345.047 227.984 344.856 228.14 344.7C228.296 344.544 228.487 344.466 228.712 344.466C228.929 344.466 229.111 344.544 229.258 344.7C229.414 344.856 229.492 345.047 229.492 345.272C229.492 345.497 229.414 345.688 229.258 345.844C229.111 346 228.929 346.078 228.712 346.078ZM228.712 340.514C228.487 340.514 228.296 340.436 228.14 340.28C227.984 340.124 227.906 339.933 227.906 339.708C227.906 339.483 227.984 339.292 228.14 339.136C228.296 338.98 228.487 338.902 228.712 338.902C228.929 338.902 229.111 338.98 229.258 339.136C229.414 339.292 229.492 339.483 229.492 339.708C229.492 339.933 229.414 340.124 229.258 340.28C229.111 340.436 228.929 340.514 228.712 340.514ZM234.23 345.051C235.331 344.167 236.193 343.443 236.817 342.88C237.441 342.308 237.966 341.714 238.39 341.099C238.824 340.475 239.04 339.864 239.04 339.266C239.04 338.703 238.902 338.261 238.624 337.94C238.356 337.611 237.918 337.446 237.311 337.446C236.722 337.446 236.263 337.632 235.933 338.005C235.613 338.369 235.439 338.859 235.413 339.474H234.269C234.304 338.503 234.599 337.754 235.153 337.225C235.708 336.696 236.423 336.432 237.298 336.432C238.191 336.432 238.897 336.679 239.417 337.173C239.946 337.667 240.21 338.347 240.21 339.214C240.21 339.933 239.994 340.635 239.56 341.32C239.136 341.996 238.65 342.594 238.104 343.114C237.558 343.625 236.861 344.223 236.011 344.908H240.483V345.896H234.23V345.051ZM247.844 337.628H243.281V340.592C243.48 340.315 243.775 340.089 244.165 339.916C244.555 339.734 244.975 339.643 245.426 339.643C246.145 339.643 246.73 339.795 247.181 340.098C247.632 340.393 247.952 340.778 248.143 341.255C248.342 341.723 248.442 342.221 248.442 342.75C248.442 343.374 248.325 343.933 248.091 344.427C247.857 344.921 247.497 345.311 247.012 345.597C246.535 345.883 245.942 346.026 245.231 346.026C244.321 346.026 243.584 345.792 243.021 345.324C242.458 344.856 242.115 344.232 241.994 343.452H243.151C243.264 343.946 243.502 344.332 243.866 344.609C244.23 344.886 244.689 345.025 245.244 345.025C245.929 345.025 246.444 344.821 246.791 344.414C247.138 343.998 247.311 343.452 247.311 342.776C247.311 342.1 247.138 341.58 246.791 341.216C246.444 340.843 245.933 340.657 245.257 340.657C244.798 340.657 244.395 340.77 244.048 340.995C243.71 341.212 243.463 341.511 243.307 341.892H242.189V336.588H247.844V337.628ZM249.754 338.72C249.754 338.131 249.932 337.663 250.287 337.316C250.642 336.961 251.097 336.783 251.652 336.783C252.207 336.783 252.662 336.961 253.017 337.316C253.372 337.663 253.55 338.131 253.55 338.72C253.55 339.318 253.372 339.795 253.017 340.15C252.662 340.497 252.207 340.67 251.652 340.67C251.097 340.67 250.642 340.497 250.287 340.15C249.932 339.795 249.754 339.318 249.754 338.72ZM257.346 336.926L252.081 346H250.911L256.176 336.926H257.346ZM251.652 337.511C251.357 337.511 251.123 337.615 250.95 337.823C250.785 338.022 250.703 338.321 250.703 338.72C250.703 339.119 250.785 339.422 250.95 339.63C251.123 339.838 251.357 339.942 251.652 339.942C251.947 339.942 252.181 339.838 252.354 339.63C252.527 339.413 252.614 339.11 252.614 338.72C252.614 338.321 252.527 338.022 252.354 337.823C252.181 337.615 251.947 337.511 251.652 337.511ZM254.733 344.206C254.733 343.608 254.911 343.136 255.266 342.789C255.621 342.434 256.076 342.256 256.631 342.256C257.186 342.256 257.636 342.434 257.983 342.789C258.338 343.136 258.516 343.608 258.516 344.206C258.516 344.795 258.338 345.268 257.983 345.623C257.636 345.978 257.186 346.156 256.631 346.156C256.076 346.156 255.621 345.983 255.266 345.636C254.911 345.281 254.733 344.804 254.733 344.206ZM256.618 342.997C256.323 342.997 256.089 343.101 255.916 343.309C255.743 343.508 255.656 343.807 255.656 344.206C255.656 344.596 255.743 344.895 255.916 345.103C256.089 345.302 256.323 345.402 256.618 345.402C256.913 345.402 257.147 345.302 257.32 345.103C257.493 344.895 257.58 344.596 257.58 344.206C257.58 343.807 257.493 343.508 257.32 343.309C257.147 343.101 256.913 342.997 256.618 342.997Z" fill="#5A5A5A"/>
<rect x="93" y="389" width="12" height="12" rx="3" fill="#F4FF78"/>
<path d="M113.559 395.463C113.559 394.579 113.758 393.786 114.157 393.084C114.556 392.373 115.097 391.819 115.782 391.42C116.475 391.021 117.242 390.822 118.083 390.822C119.071 390.822 119.933 391.06 120.67 391.537C121.407 392.014 121.944 392.69 122.282 393.565H120.865C120.614 393.019 120.25 392.599 119.773 392.304C119.305 392.009 118.742 391.862 118.083 391.862C117.45 391.862 116.883 392.009 116.38 392.304C115.877 392.599 115.483 393.019 115.197 393.565C114.911 394.102 114.768 394.735 114.768 395.463C114.768 396.182 114.911 396.815 115.197 397.361C115.483 397.898 115.877 398.314 116.38 398.609C116.883 398.904 117.45 399.051 118.083 399.051C118.742 399.051 119.305 398.908 119.773 398.622C120.25 398.327 120.614 397.907 120.865 397.361H122.282C121.944 398.228 121.407 398.899 120.67 399.376C119.933 399.844 119.071 400.078 118.083 400.078C117.242 400.078 116.475 399.883 115.782 399.493C115.097 399.094 114.556 398.544 114.157 397.842C113.758 397.14 113.559 396.347 113.559 395.463ZM127.15 400.117C126.483 400.117 125.876 399.965 125.33 399.662C124.793 399.359 124.368 398.93 124.056 398.375C123.753 397.812 123.601 397.162 123.601 396.425C123.601 395.697 123.757 395.056 124.069 394.501C124.39 393.938 124.823 393.509 125.369 393.214C125.915 392.911 126.526 392.759 127.202 392.759C127.878 392.759 128.489 392.911 129.035 393.214C129.581 393.509 130.01 393.933 130.322 394.488C130.643 395.043 130.803 395.688 130.803 396.425C130.803 397.162 130.638 397.812 130.309 398.375C129.988 398.93 129.551 399.359 128.996 399.662C128.441 399.965 127.826 400.117 127.15 400.117ZM127.15 399.077C127.575 399.077 127.973 398.977 128.346 398.778C128.719 398.579 129.018 398.28 129.243 397.881C129.477 397.482 129.594 396.997 129.594 396.425C129.594 395.853 129.481 395.368 129.256 394.969C129.031 394.57 128.736 394.276 128.372 394.085C128.008 393.886 127.614 393.786 127.189 393.786C126.756 393.786 126.357 393.886 125.993 394.085C125.638 394.276 125.352 394.57 125.135 394.969C124.918 395.368 124.81 395.853 124.81 396.425C124.81 397.006 124.914 397.495 125.122 397.894C125.339 398.293 125.625 398.592 125.98 398.791C126.335 398.982 126.725 399.077 127.15 399.077ZM135.829 392.746C136.696 392.746 137.398 393.01 137.935 393.539C138.473 394.059 138.741 394.813 138.741 395.801V400H137.571V395.97C137.571 395.259 137.394 394.718 137.038 394.345C136.683 393.964 136.198 393.773 135.582 393.773C134.958 393.773 134.46 393.968 134.087 394.358C133.723 394.748 133.541 395.316 133.541 396.061V400H132.358V392.876H133.541V393.89C133.775 393.526 134.092 393.244 134.49 393.045C134.898 392.846 135.344 392.746 135.829 392.746ZM143.196 400.117C142.65 400.117 142.16 400.026 141.727 399.844C141.294 399.653 140.951 399.393 140.7 399.064C140.449 398.726 140.31 398.34 140.284 397.907H141.506C141.541 398.262 141.705 398.553 142 398.778C142.303 399.003 142.698 399.116 143.183 399.116C143.634 399.116 143.989 399.016 144.249 398.817C144.509 398.618 144.639 398.366 144.639 398.063C144.639 397.751 144.5 397.521 144.223 397.374C143.946 397.218 143.517 397.066 142.936 396.919C142.407 396.78 141.974 396.642 141.636 396.503C141.307 396.356 141.021 396.143 140.778 395.866C140.544 395.58 140.427 395.207 140.427 394.748C140.427 394.384 140.535 394.05 140.752 393.747C140.969 393.444 141.276 393.205 141.675 393.032C142.074 392.85 142.529 392.759 143.04 392.759C143.829 392.759 144.466 392.958 144.951 393.357C145.436 393.756 145.696 394.302 145.731 394.995H144.548C144.522 394.622 144.37 394.323 144.093 394.098C143.824 393.873 143.46 393.76 143.001 393.76C142.576 393.76 142.238 393.851 141.987 394.033C141.736 394.215 141.61 394.453 141.61 394.748C141.61 394.982 141.684 395.177 141.831 395.333C141.987 395.48 142.178 395.602 142.403 395.697C142.637 395.784 142.958 395.883 143.365 395.996C143.876 396.135 144.292 396.273 144.613 396.412C144.934 396.542 145.207 396.741 145.432 397.01C145.666 397.279 145.787 397.63 145.796 398.063C145.796 398.453 145.688 398.804 145.471 399.116C145.254 399.428 144.947 399.675 144.548 399.857C144.158 400.03 143.707 400.117 143.196 400.117ZM148.909 393.851V398.05C148.909 398.397 148.983 398.644 149.13 398.791C149.277 398.93 149.533 398.999 149.897 398.999H150.768V400H149.702C149.043 400 148.549 399.848 148.22 399.545C147.891 399.242 147.726 398.743 147.726 398.05V393.851H146.803V392.876H147.726V391.082H148.909V392.876H150.768V393.851H148.909ZM153.384 394.033C153.592 393.626 153.887 393.309 154.268 393.084C154.658 392.859 155.131 392.746 155.685 392.746V393.968H155.373C154.047 393.968 153.384 394.687 153.384 396.126V400H152.201V392.876H153.384V394.033ZM163.369 392.876V400H162.186V398.947C161.96 399.311 161.644 399.597 161.237 399.805C160.838 400.004 160.396 400.104 159.911 400.104C159.356 400.104 158.858 399.991 158.416 399.766C157.974 399.532 157.623 399.185 157.363 398.726C157.111 398.267 156.986 397.708 156.986 397.049V392.876H158.156V396.893C158.156 397.595 158.333 398.137 158.689 398.518C159.044 398.891 159.529 399.077 160.145 399.077C160.777 399.077 161.276 398.882 161.64 398.492C162.004 398.102 162.186 397.534 162.186 396.789V392.876H163.369ZM164.924 396.425C164.924 395.688 165.072 395.047 165.366 394.501C165.661 393.946 166.068 393.517 166.588 393.214C167.117 392.911 167.719 392.759 168.395 392.759C169.271 392.759 169.99 392.971 170.553 393.396C171.125 393.821 171.502 394.41 171.684 395.164H170.41C170.289 394.731 170.051 394.388 169.695 394.137C169.349 393.886 168.915 393.76 168.395 393.76C167.719 393.76 167.173 393.994 166.757 394.462C166.341 394.921 166.133 395.576 166.133 396.425C166.133 397.283 166.341 397.946 166.757 398.414C167.173 398.882 167.719 399.116 168.395 399.116C168.915 399.116 169.349 398.995 169.695 398.752C170.042 398.509 170.28 398.163 170.41 397.712H171.684C171.494 398.44 171.112 399.025 170.54 399.467C169.968 399.9 169.253 400.117 168.395 400.117C167.719 400.117 167.117 399.965 166.588 399.662C166.068 399.359 165.661 398.93 165.366 398.375C165.072 397.82 164.924 397.17 164.924 396.425ZM174.706 393.851V398.05C174.706 398.397 174.779 398.644 174.927 398.791C175.074 398.93 175.33 398.999 175.694 398.999H176.565V400H175.499C174.84 400 174.346 399.848 174.017 399.545C173.687 399.242 173.523 398.743 173.523 398.05V393.851H172.6V392.876H173.523V391.082H174.706V392.876H176.565V393.851H174.706ZM178.609 391.719C178.384 391.719 178.193 391.641 178.037 391.485C177.881 391.329 177.803 391.138 177.803 390.913C177.803 390.688 177.881 390.497 178.037 390.341C178.193 390.185 178.384 390.107 178.609 390.107C178.826 390.107 179.008 390.185 179.155 390.341C179.311 390.497 179.389 390.688 179.389 390.913C179.389 391.138 179.311 391.329 179.155 391.485C179.008 391.641 178.826 391.719 178.609 391.719ZM179.181 392.876V400H177.998V392.876H179.181ZM184.304 400.117C183.637 400.117 183.03 399.965 182.484 399.662C181.947 399.359 181.522 398.93 181.21 398.375C180.907 397.812 180.755 397.162 180.755 396.425C180.755 395.697 180.911 395.056 181.223 394.501C181.544 393.938 181.977 393.509 182.523 393.214C183.069 392.911 183.68 392.759 184.356 392.759C185.032 392.759 185.643 392.911 186.189 393.214C186.735 393.509 187.164 393.933 187.476 394.488C187.797 395.043 187.957 395.688 187.957 396.425C187.957 397.162 187.793 397.812 187.463 398.375C187.143 398.93 186.705 399.359 186.15 399.662C185.596 399.965 184.98 400.117 184.304 400.117ZM184.304 399.077C184.729 399.077 185.128 398.977 185.5 398.778C185.873 398.579 186.172 398.28 186.397 397.881C186.631 397.482 186.748 396.997 186.748 396.425C186.748 395.853 186.636 395.368 186.41 394.969C186.185 394.57 185.89 394.276 185.526 394.085C185.162 393.886 184.768 393.786 184.343 393.786C183.91 393.786 183.511 393.886 183.147 394.085C182.792 394.276 182.506 394.57 182.289 394.969C182.073 395.368 181.964 395.853 181.964 396.425C181.964 397.006 182.068 397.495 182.276 397.894C182.493 398.293 182.779 398.592 183.134 398.791C183.49 398.982 183.88 399.077 184.304 399.077ZM192.984 392.746C193.85 392.746 194.552 393.01 195.09 393.539C195.627 394.059 195.896 394.813 195.896 395.801V400H194.726V395.97C194.726 395.259 194.548 394.718 194.193 394.345C193.837 393.964 193.352 393.773 192.737 393.773C192.113 393.773 191.614 393.968 191.242 394.358C190.878 394.748 190.696 395.316 190.696 396.061V400H189.513V392.876H190.696V393.89C190.93 393.526 191.246 393.244 191.645 393.045C192.052 392.846 192.498 392.746 192.984 392.746ZM198.205 400.078C197.98 400.078 197.789 400 197.633 399.844C197.477 399.688 197.399 399.497 197.399 399.272C197.399 399.047 197.477 398.856 197.633 398.7C197.789 398.544 197.98 398.466 198.205 398.466C198.422 398.466 198.604 398.544 198.751 398.7C198.907 398.856 198.985 399.047 198.985 399.272C198.985 399.497 198.907 399.688 198.751 399.844C198.604 400 198.422 400.078 198.205 400.078ZM198.205 394.514C197.98 394.514 197.789 394.436 197.633 394.28C197.477 394.124 197.399 393.933 197.399 393.708C197.399 393.483 197.477 393.292 197.633 393.136C197.789 392.98 197.98 392.902 198.205 392.902C198.422 392.902 198.604 392.98 198.751 393.136C198.907 393.292 198.985 393.483 198.985 393.708C198.985 393.933 198.907 394.124 198.751 394.28C198.604 394.436 198.422 394.514 198.205 394.514ZM203.555 391.68V390.601H205.999V400H204.803V391.68H203.555ZM207.888 399.051C208.988 398.167 209.851 397.443 210.475 396.88C211.099 396.308 211.623 395.714 212.048 395.099C212.481 394.475 212.698 393.864 212.698 393.266C212.698 392.703 212.559 392.261 212.282 391.94C212.013 391.611 211.575 391.446 210.969 391.446C210.379 391.446 209.92 391.632 209.591 392.005C209.27 392.369 209.097 392.859 209.071 393.474H207.927C207.961 392.503 208.256 391.754 208.811 391.225C209.365 390.696 210.08 390.432 210.956 390.432C211.848 390.432 212.555 390.679 213.075 391.173C213.603 391.667 213.868 392.347 213.868 393.214C213.868 393.933 213.651 394.635 213.218 395.32C212.793 395.996 212.308 396.594 211.762 397.114C211.216 397.625 210.518 398.223 209.669 398.908H214.141V399.896H207.888V399.051ZM215.248 392.72C215.248 392.131 215.426 391.663 215.781 391.316C216.136 390.961 216.591 390.783 217.146 390.783C217.701 390.783 218.156 390.961 218.511 391.316C218.866 391.663 219.044 392.131 219.044 392.72C219.044 393.318 218.866 393.795 218.511 394.15C218.156 394.497 217.701 394.67 217.146 394.67C216.591 394.67 216.136 394.497 215.781 394.15C215.426 393.795 215.248 393.318 215.248 392.72ZM222.84 390.926L217.575 400H216.405L221.67 390.926H222.84ZM217.146 391.511C216.851 391.511 216.617 391.615 216.444 391.823C216.279 392.022 216.197 392.321 216.197 392.72C216.197 393.119 216.279 393.422 216.444 393.63C216.617 393.838 216.851 393.942 217.146 393.942C217.441 393.942 217.675 393.838 217.848 393.63C218.021 393.413 218.108 393.11 218.108 392.72C218.108 392.321 218.021 392.022 217.848 391.823C217.675 391.615 217.441 391.511 217.146 391.511ZM220.227 398.206C220.227 397.608 220.405 397.136 220.76 396.789C221.115 396.434 221.57 396.256 222.125 396.256C222.68 396.256 223.13 396.434 223.477 396.789C223.832 397.136 224.01 397.608 224.01 398.206C224.01 398.795 223.832 399.268 223.477 399.623C223.13 399.978 222.68 400.156 222.125 400.156C221.57 400.156 221.115 399.983 220.76 399.636C220.405 399.281 220.227 398.804 220.227 398.206ZM222.112 396.997C221.817 396.997 221.583 397.101 221.41 397.309C221.237 397.508 221.15 397.807 221.15 398.206C221.15 398.596 221.237 398.895 221.41 399.103C221.583 399.302 221.817 399.402 222.112 399.402C222.407 399.402 222.641 399.302 222.814 399.103C222.987 398.895 223.074 398.596 223.074 398.206C223.074 397.807 222.987 397.508 222.814 397.309C222.641 397.101 222.407 396.997 222.112 396.997Z" fill="#5A5A5A"/>
<rect x="93" y="362" width="12" height="12" rx="3" fill="#6AEEB6"/>
<path d="M113.559 368.463C113.559 367.579 113.758 366.786 114.157 366.084C114.556 365.373 115.097 364.819 115.782 364.42C116.475 364.021 117.242 363.822 118.083 363.822C119.071 363.822 119.933 364.06 120.67 364.537C121.407 365.014 121.944 365.69 122.282 366.565H120.865C120.614 366.019 120.25 365.599 119.773 365.304C119.305 365.009 118.742 364.862 118.083 364.862C117.45 364.862 116.883 365.009 116.38 365.304C115.877 365.599 115.483 366.019 115.197 366.565C114.911 367.102 114.768 367.735 114.768 368.463C114.768 369.182 114.911 369.815 115.197 370.361C115.483 370.898 115.877 371.314 116.38 371.609C116.883 371.904 117.45 372.051 118.083 372.051C118.742 372.051 119.305 371.908 119.773 371.622C120.25 371.327 120.614 370.907 120.865 370.361H122.282C121.944 371.228 121.407 371.899 120.67 372.376C119.933 372.844 119.071 373.078 118.083 373.078C117.242 373.078 116.475 372.883 115.782 372.493C115.097 372.094 114.556 371.544 114.157 370.842C113.758 370.14 113.559 369.347 113.559 368.463ZM127.15 373.117C126.483 373.117 125.876 372.965 125.33 372.662C124.793 372.359 124.368 371.93 124.056 371.375C123.753 370.812 123.601 370.162 123.601 369.425C123.601 368.697 123.757 368.056 124.069 367.501C124.39 366.938 124.823 366.509 125.369 366.214C125.915 365.911 126.526 365.759 127.202 365.759C127.878 365.759 128.489 365.911 129.035 366.214C129.581 366.509 130.01 366.933 130.322 367.488C130.643 368.043 130.803 368.688 130.803 369.425C130.803 370.162 130.638 370.812 130.309 371.375C129.988 371.93 129.551 372.359 128.996 372.662C128.441 372.965 127.826 373.117 127.15 373.117ZM127.15 372.077C127.575 372.077 127.973 371.977 128.346 371.778C128.719 371.579 129.018 371.28 129.243 370.881C129.477 370.482 129.594 369.997 129.594 369.425C129.594 368.853 129.481 368.368 129.256 367.969C129.031 367.57 128.736 367.276 128.372 367.085C128.008 366.886 127.614 366.786 127.189 366.786C126.756 366.786 126.357 366.886 125.993 367.085C125.638 367.276 125.352 367.57 125.135 367.969C124.918 368.368 124.81 368.853 124.81 369.425C124.81 370.006 124.914 370.495 125.122 370.894C125.339 371.293 125.625 371.592 125.98 371.791C126.335 371.982 126.725 372.077 127.15 372.077ZM140.925 365.746C141.48 365.746 141.974 365.863 142.407 366.097C142.841 366.322 143.183 366.665 143.434 367.124C143.686 367.583 143.811 368.142 143.811 368.801V373H142.641V368.97C142.641 368.259 142.464 367.718 142.108 367.345C141.762 366.964 141.289 366.773 140.691 366.773C140.076 366.773 139.586 366.972 139.222 367.371C138.858 367.761 138.676 368.329 138.676 369.074V373H137.506V368.97C137.506 368.259 137.329 367.718 136.973 367.345C136.627 366.964 136.154 366.773 135.556 366.773C134.941 366.773 134.451 366.972 134.087 367.371C133.723 367.761 133.541 368.329 133.541 369.074V373H132.358V365.876H133.541V366.903C133.775 366.53 134.087 366.244 134.477 366.045C134.876 365.846 135.314 365.746 135.79 365.746C136.388 365.746 136.917 365.88 137.376 366.149C137.836 366.418 138.178 366.812 138.403 367.332C138.603 366.829 138.932 366.439 139.391 366.162C139.851 365.885 140.362 365.746 140.925 365.746ZM154.319 365.746C154.874 365.746 155.368 365.863 155.801 366.097C156.234 366.322 156.577 366.665 156.828 367.124C157.079 367.583 157.205 368.142 157.205 368.801V373H156.035V368.97C156.035 368.259 155.857 367.718 155.502 367.345C155.155 366.964 154.683 366.773 154.085 366.773C153.47 366.773 152.98 366.972 152.616 367.371C152.252 367.761 152.07 368.329 152.07 369.074V373H150.9V368.97C150.9 368.259 150.722 367.718 150.367 367.345C150.02 366.964 149.548 366.773 148.95 366.773C148.335 366.773 147.845 366.972 147.481 367.371C147.117 367.761 146.935 368.329 146.935 369.074V373H145.752V365.876H146.935V366.903C147.169 366.53 147.481 366.244 147.871 366.045C148.27 365.846 148.707 365.746 149.184 365.746C149.782 365.746 150.311 365.88 150.77 366.149C151.229 366.418 151.572 366.812 151.797 367.332C151.996 366.829 152.326 366.439 152.785 366.162C153.244 365.885 153.756 365.746 154.319 365.746ZM165.646 369.165C165.646 369.39 165.633 369.629 165.607 369.88H159.913C159.956 370.582 160.194 371.132 160.628 371.531C161.07 371.921 161.603 372.116 162.227 372.116C162.738 372.116 163.163 371.999 163.501 371.765C163.847 371.522 164.09 371.202 164.229 370.803H165.503C165.312 371.488 164.931 372.047 164.359 372.48C163.787 372.905 163.076 373.117 162.227 373.117C161.551 373.117 160.944 372.965 160.407 372.662C159.878 372.359 159.462 371.93 159.159 371.375C158.855 370.812 158.704 370.162 158.704 369.425C158.704 368.688 158.851 368.043 159.146 367.488C159.44 366.933 159.852 366.509 160.381 366.214C160.918 365.911 161.533 365.759 162.227 365.759C162.903 365.759 163.501 365.906 164.021 366.201C164.541 366.496 164.939 366.903 165.217 367.423C165.503 367.934 165.646 368.515 165.646 369.165ZM164.424 368.918C164.424 368.467 164.324 368.082 164.125 367.761C163.925 367.432 163.652 367.185 163.306 367.02C162.968 366.847 162.591 366.76 162.175 366.76C161.577 366.76 161.065 366.951 160.641 367.332C160.225 367.713 159.986 368.242 159.926 368.918H164.424ZM168.39 367.033C168.598 366.626 168.893 366.309 169.274 366.084C169.664 365.859 170.136 365.746 170.691 365.746V366.968H170.379C169.053 366.968 168.39 367.687 168.39 369.126V373H167.207V365.876H168.39V367.033ZM171.615 369.425C171.615 368.688 171.762 368.047 172.057 367.501C172.351 366.946 172.759 366.517 173.279 366.214C173.807 365.911 174.41 365.759 175.086 365.759C175.961 365.759 176.68 365.971 177.244 366.396C177.816 366.821 178.193 367.41 178.375 368.164H177.101C176.979 367.731 176.741 367.388 176.386 367.137C176.039 366.886 175.606 366.76 175.086 366.76C174.41 366.76 173.864 366.994 173.448 367.462C173.032 367.921 172.824 368.576 172.824 369.425C172.824 370.283 173.032 370.946 173.448 371.414C173.864 371.882 174.41 372.116 175.086 372.116C175.606 372.116 176.039 371.995 176.386 371.752C176.732 371.509 176.971 371.163 177.101 370.712H178.375C178.184 371.44 177.803 372.025 177.231 372.467C176.659 372.9 175.944 373.117 175.086 373.117C174.41 373.117 173.807 372.965 173.279 372.662C172.759 372.359 172.351 371.93 172.057 371.375C171.762 370.82 171.615 370.17 171.615 369.425ZM180.564 364.719C180.339 364.719 180.148 364.641 179.992 364.485C179.836 364.329 179.758 364.138 179.758 363.913C179.758 363.688 179.836 363.497 179.992 363.341C180.148 363.185 180.339 363.107 180.564 363.107C180.781 363.107 180.963 363.185 181.11 363.341C181.266 363.497 181.344 363.688 181.344 363.913C181.344 364.138 181.266 364.329 181.11 364.485C180.963 364.641 180.781 364.719 180.564 364.719ZM181.136 365.876V373H179.953V365.876H181.136ZM182.71 369.412C182.71 368.684 182.858 368.047 183.152 367.501C183.447 366.946 183.85 366.517 184.361 366.214C184.881 365.911 185.458 365.759 186.09 365.759C186.714 365.759 187.256 365.893 187.715 366.162C188.175 366.431 188.517 366.769 188.742 367.176V365.876H189.938V373H188.742V371.674C188.508 372.09 188.157 372.437 187.689 372.714C187.23 372.983 186.693 373.117 186.077 373.117C185.445 373.117 184.873 372.961 184.361 372.649C183.85 372.337 183.447 371.899 183.152 371.336C182.858 370.773 182.71 370.131 182.71 369.412ZM188.742 369.425C188.742 368.888 188.634 368.42 188.417 368.021C188.201 367.622 187.906 367.319 187.533 367.111C187.169 366.894 186.766 366.786 186.324 366.786C185.882 366.786 185.479 366.89 185.115 367.098C184.751 367.306 184.461 367.609 184.244 368.008C184.028 368.407 183.919 368.875 183.919 369.412C183.919 369.958 184.028 370.435 184.244 370.842C184.461 371.241 184.751 371.548 185.115 371.765C185.479 371.973 185.882 372.077 186.324 372.077C186.766 372.077 187.169 371.973 187.533 371.765C187.906 371.548 188.201 371.241 188.417 370.842C188.634 370.435 188.742 369.962 188.742 369.425ZM193.121 363.38V373H191.938V363.38H193.121ZM206.091 363.939L202.672 373H201.307L197.888 363.939H199.149L201.996 371.752L204.843 363.939H206.091ZM213.888 369.165C213.888 369.39 213.875 369.629 213.849 369.88H208.155C208.198 370.582 208.436 371.132 208.87 371.531C209.312 371.921 209.845 372.116 210.469 372.116C210.98 372.116 211.405 371.999 211.743 371.765C212.089 371.522 212.332 371.202 212.471 370.803H213.745C213.554 371.488 213.173 372.047 212.601 372.48C212.029 372.905 211.318 373.117 210.469 373.117C209.793 373.117 209.186 372.965 208.649 372.662C208.12 372.359 207.704 371.93 207.401 371.375C207.097 370.812 206.946 370.162 206.946 369.425C206.946 368.688 207.093 368.043 207.388 367.488C207.682 366.933 208.094 366.509 208.623 366.214C209.16 365.911 209.775 365.759 210.469 365.759C211.145 365.759 211.743 365.906 212.263 366.201C212.783 366.496 213.181 366.903 213.459 367.423C213.745 367.934 213.888 368.515 213.888 369.165ZM212.666 368.918C212.666 368.467 212.566 368.082 212.367 367.761C212.167 367.432 211.894 367.185 211.548 367.02C211.21 366.847 210.833 366.76 210.417 366.76C209.819 366.76 209.307 366.951 208.883 367.332C208.467 367.713 208.228 368.242 208.168 368.918H212.666ZM218.985 365.746C219.523 365.746 220.008 365.863 220.441 366.097C220.875 366.322 221.213 366.665 221.455 367.124C221.707 367.583 221.832 368.142 221.832 368.801V373H220.662V368.97C220.662 368.259 220.485 367.718 220.129 367.345C219.774 366.964 219.289 366.773 218.673 366.773C218.049 366.773 217.551 366.968 217.178 367.358C216.814 367.748 216.632 368.316 216.632 369.061V373H215.449V363.38H216.632V366.89C216.866 366.526 217.187 366.244 217.594 366.045C218.01 365.846 218.474 365.746 218.985 365.746ZM224.376 364.719C224.15 364.719 223.96 364.641 223.804 364.485C223.648 364.329 223.57 364.138 223.57 363.913C223.57 363.688 223.648 363.497 223.804 363.341C223.96 363.185 224.15 363.107 224.376 363.107C224.592 363.107 224.774 363.185 224.922 363.341C225.078 363.497 225.156 363.688 225.156 363.913C225.156 364.138 225.078 364.329 224.922 364.485C224.774 364.641 224.592 364.719 224.376 364.719ZM224.948 365.876V373H223.765V365.876H224.948ZM226.522 369.425C226.522 368.688 226.669 368.047 226.964 367.501C227.259 366.946 227.666 366.517 228.186 366.214C228.715 365.911 229.317 365.759 229.993 365.759C230.868 365.759 231.588 365.971 232.151 366.396C232.723 366.821 233.1 367.41 233.282 368.164H232.008C231.887 367.731 231.648 367.388 231.293 367.137C230.946 366.886 230.513 366.76 229.993 366.76C229.317 366.76 228.771 366.994 228.355 367.462C227.939 367.921 227.731 368.576 227.731 369.425C227.731 370.283 227.939 370.946 228.355 371.414C228.771 371.882 229.317 372.116 229.993 372.116C230.513 372.116 230.946 371.995 231.293 371.752C231.64 371.509 231.878 371.163 232.008 370.712H233.282C233.091 371.44 232.71 372.025 232.138 372.467C231.566 372.9 230.851 373.117 229.993 373.117C229.317 373.117 228.715 372.965 228.186 372.662C227.666 372.359 227.259 371.93 226.964 371.375C226.669 370.82 226.522 370.17 226.522 369.425ZM236.043 363.38V373H234.86V363.38H236.043ZM244.56 369.165C244.56 369.39 244.547 369.629 244.521 369.88H238.827C238.87 370.582 239.108 371.132 239.542 371.531C239.984 371.921 240.517 372.116 241.141 372.116C241.652 372.116 242.077 371.999 242.415 371.765C242.761 371.522 243.004 371.202 243.143 370.803H244.417C244.226 371.488 243.845 372.047 243.273 372.48C242.701 372.905 241.99 373.117 241.141 373.117C240.465 373.117 239.858 372.965 239.321 372.662C238.792 372.359 238.376 371.93 238.073 371.375C237.769 370.812 237.618 370.162 237.618 369.425C237.618 368.688 237.765 368.043 238.06 367.488C238.354 366.933 238.766 366.509 239.295 366.214C239.832 365.911 240.447 365.759 241.141 365.759C241.817 365.759 242.415 365.906 242.935 366.201C243.455 366.496 243.853 366.903 244.131 367.423C244.417 367.934 244.56 368.515 244.56 369.165ZM243.338 368.918C243.338 368.467 243.238 368.082 243.039 367.761C242.839 367.432 242.566 367.185 242.22 367.02C241.882 366.847 241.505 366.76 241.089 366.76C240.491 366.76 239.979 366.951 239.555 367.332C239.139 367.713 238.9 368.242 238.84 368.918H243.338ZM248.643 373.117C248.097 373.117 247.607 373.026 247.174 372.844C246.741 372.653 246.398 372.393 246.147 372.064C245.896 371.726 245.757 371.34 245.731 370.907H246.953C246.988 371.262 247.152 371.553 247.447 371.778C247.75 372.003 248.145 372.116 248.63 372.116C249.081 372.116 249.436 372.016 249.696 371.817C249.956 371.618 250.086 371.366 250.086 371.063C250.086 370.751 249.947 370.521 249.67 370.374C249.393 370.218 248.964 370.066 248.383 369.919C247.854 369.78 247.421 369.642 247.083 369.503C246.754 369.356 246.468 369.143 246.225 368.866C245.991 368.58 245.874 368.207 245.874 367.748C245.874 367.384 245.982 367.05 246.199 366.747C246.416 366.444 246.723 366.205 247.122 366.032C247.521 365.85 247.976 365.759 248.487 365.759C249.276 365.759 249.913 365.958 250.398 366.357C250.883 366.756 251.143 367.302 251.178 367.995H249.995C249.969 367.622 249.817 367.323 249.54 367.098C249.271 366.873 248.907 366.76 248.448 366.76C248.023 366.76 247.685 366.851 247.434 367.033C247.183 367.215 247.057 367.453 247.057 367.748C247.057 367.982 247.131 368.177 247.278 368.333C247.434 368.48 247.625 368.602 247.85 368.697C248.084 368.784 248.405 368.883 248.812 368.996C249.323 369.135 249.739 369.273 250.06 369.412C250.381 369.542 250.654 369.741 250.879 370.01C251.113 370.279 251.234 370.63 251.243 371.063C251.243 371.453 251.135 371.804 250.918 372.116C250.701 372.428 250.394 372.675 249.995 372.857C249.605 373.03 249.154 373.117 248.643 373.117ZM253.29 373.078C253.065 373.078 252.874 373 252.718 372.844C252.562 372.688 252.484 372.497 252.484 372.272C252.484 372.047 252.562 371.856 252.718 371.7C252.874 371.544 253.065 371.466 253.29 371.466C253.507 371.466 253.689 371.544 253.836 371.7C253.992 371.856 254.07 372.047 254.07 372.272C254.07 372.497 253.992 372.688 253.836 372.844C253.689 373 253.507 373.078 253.29 373.078ZM253.29 367.514C253.065 367.514 252.874 367.436 252.718 367.28C252.562 367.124 252.484 366.933 252.484 366.708C252.484 366.483 252.562 366.292 252.718 366.136C252.874 365.98 253.065 365.902 253.29 365.902C253.507 365.902 253.689 365.98 253.836 366.136C253.992 366.292 254.07 366.483 254.07 366.708C254.07 366.933 253.992 367.124 253.836 367.28C253.689 367.436 253.507 367.514 253.29 367.514ZM258.952 368.203C258.952 366.712 259.194 365.551 259.68 364.719C260.165 363.878 261.014 363.458 262.228 363.458C263.432 363.458 264.277 363.878 264.763 364.719C265.248 365.551 265.491 366.712 265.491 368.203C265.491 369.72 265.248 370.898 264.763 371.739C264.277 372.58 263.432 373 262.228 373C261.014 373 260.165 372.58 259.68 371.739C259.194 370.898 258.952 369.72 258.952 368.203ZM264.321 368.203C264.321 367.449 264.269 366.812 264.165 366.292C264.069 365.763 263.866 365.339 263.554 365.018C263.25 364.697 262.808 364.537 262.228 364.537C261.638 364.537 261.188 364.697 260.876 365.018C260.572 365.339 260.369 365.763 260.265 366.292C260.169 366.812 260.122 367.449 260.122 368.203C260.122 368.983 260.169 369.637 260.265 370.166C260.369 370.695 260.572 371.119 260.876 371.44C261.188 371.761 261.638 371.921 262.228 371.921C262.808 371.921 263.25 371.761 263.554 371.44C263.866 371.119 264.069 370.695 264.165 370.166C264.269 369.637 264.321 368.983 264.321 368.203ZM266.829 370.907V370.01L271.392 363.692H272.809V369.88H274.109V370.907H272.809V373H271.639V370.907H266.829ZM271.691 364.927L268.194 369.88H271.691V364.927ZM275.03 365.72C275.03 365.131 275.208 364.663 275.563 364.316C275.919 363.961 276.374 363.783 276.928 363.783C277.483 363.783 277.938 363.961 278.293 364.316C278.649 364.663 278.826 365.131 278.826 365.72C278.826 366.318 278.649 366.795 278.293 367.15C277.938 367.497 277.483 367.67 276.928 367.67C276.374 367.67 275.919 367.497 275.563 367.15C275.208 366.795 275.03 366.318 275.03 365.72ZM282.622 363.926L277.357 373H276.187L281.452 363.926H282.622ZM276.928 364.511C276.634 364.511 276.4 364.615 276.226 364.823C276.062 365.022 275.979 365.321 275.979 365.72C275.979 366.119 276.062 366.422 276.226 366.63C276.4 366.838 276.634 366.942 276.928 366.942C277.223 366.942 277.457 366.838 277.63 366.63C277.804 366.413 277.89 366.11 277.89 365.72C277.89 365.321 277.804 365.022 277.63 364.823C277.457 364.615 277.223 364.511 276.928 364.511ZM280.009 371.206C280.009 370.608 280.187 370.136 280.542 369.789C280.898 369.434 281.353 369.256 281.907 369.256C282.462 369.256 282.913 369.434 283.259 369.789C283.615 370.136 283.792 370.608 283.792 371.206C283.792 371.795 283.615 372.268 283.259 372.623C282.913 372.978 282.462 373.156 281.907 373.156C281.353 373.156 280.898 372.983 280.542 372.636C280.187 372.281 280.009 371.804 280.009 371.206ZM281.894 369.997C281.6 369.997 281.366 370.101 281.192 370.309C281.019 370.508 280.932 370.807 280.932 371.206C280.932 371.596 281.019 371.895 281.192 372.103C281.366 372.302 281.6 372.402 281.894 372.402C282.189 372.402 282.423 372.302 282.596 372.103C282.77 371.895 282.856 371.596 282.856 371.206C282.856 370.807 282.77 370.508 282.596 370.309C282.423 370.101 282.189 369.997 281.894 369.997Z" fill="#5A5A5A"/>
<defs>
<filter id="filter0_d_257_707" x="0" y="0" width="398" height="513" filterUnits="userSpaceOnUse" color-interpolation-filters="sRGB">
<feFlood flood-opacity="0" result="BackgroundImageFix"/>
<feColorMatrix in="SourceAlpha" type="matrix" values="0 0 0 0 0 0 0 0 0 0 0 0 0 0 0 0 0 0 127 0" result="hardAlpha"/>
<feOffset dy="12"/>
<feGaussianBlur stdDeviation="37.5"/>
<feComposite in2="hardAlpha" operator="out"/>
<feColorMatrix type="matrix" values="0 0 0 0 0.00784314 0 0 0 0 0.654902 0 0 0 0 0.913725 0 0 0 0.24 0"/>
<feBlend mode="normal" in2="BackgroundImageFix" result="effect1_dropShadow_257_707"/>
<feBlend mode="normal" in="SourceGraphic" in2="effect1_dropShadow_257_707" result="shape"/>
</filter>
</defs>
</svg>
