<svg width="429" height="379" viewBox="0 0 429 379" fill="none" xmlns="http://www.w3.org/2000/svg">
<g filter="url(#filter0_d_257_671)">
<path d="M75 79C75 70.1634 82.1634 63 91 63H337.732C346.569 63 353.732 70.1634 353.732 79V276C353.732 284.837 346.569 292 337.732 292H91C82.1634 292 75 284.837 75 276V79Z" fill="white"/>
</g>
<rect x="87.7231" y="78.0354" width="247.505" height="91.3687" rx="10" fill="#146BFF"/>
<path d="M205.4 78.0354H325.228C330.751 78.0354 335.228 82.5126 335.228 88.0354V159.404C335.228 164.927 330.751 169.404 325.228 169.404H157.117L205.4 78.0354Z" fill="url(#paint0_linear_257_671)"/>
<path d="M232.073 78.0354H325.228C330.751 78.0354 335.228 82.5126 335.228 88.0354V159.404C335.228 164.927 330.751 169.404 325.228 169.404H183.718L232.073 78.0354Z" fill="url(#paint1_linear_257_671)"/>
<path d="M111.928 139.17C111.928 139.837 111.762 140.463 111.428 141.05C111.108 141.637 110.628 142.13 109.988 142.53C109.362 142.93 108.615 143.17 107.748 143.25V144.87H106.448V143.25C105.195 143.13 104.182 142.737 103.408 142.07C102.635 141.403 102.248 140.523 102.248 139.43H104.688C104.728 139.95 104.895 140.383 105.188 140.73C105.482 141.063 105.902 141.277 106.448 141.37V136.97C105.555 136.743 104.828 136.517 104.268 136.29C103.708 136.05 103.228 135.677 102.828 135.17C102.442 134.663 102.248 133.97 102.248 133.09C102.248 131.983 102.635 131.07 103.408 130.35C104.182 129.617 105.195 129.19 106.448 129.07V127.45H107.748V129.07C108.922 129.177 109.862 129.55 110.568 130.19C111.288 130.817 111.695 131.683 111.788 132.79H109.348C109.308 132.377 109.148 132.01 108.868 131.69C108.588 131.357 108.215 131.13 107.748 131.01V135.33C108.642 135.543 109.368 135.77 109.928 136.01C110.488 136.237 110.962 136.603 111.348 137.11C111.735 137.603 111.928 138.29 111.928 139.17ZM104.568 132.97C104.568 133.517 104.728 133.943 105.048 134.25C105.382 134.557 105.848 134.803 106.448 134.99V130.95C105.875 131.017 105.415 131.223 105.068 131.57C104.735 131.917 104.568 132.383 104.568 132.97ZM107.748 141.37C108.335 141.277 108.795 141.043 109.128 140.67C109.462 140.283 109.628 139.823 109.628 139.29C109.628 138.757 109.462 138.343 109.128 138.05C108.808 137.743 108.348 137.497 107.748 137.31V141.37ZM116.516 140.03C117.796 138.923 118.803 138.017 119.536 137.31C120.283 136.59 120.903 135.843 121.396 135.07C121.889 134.297 122.136 133.523 122.136 132.75C122.136 131.95 121.943 131.323 121.556 130.87C121.183 130.417 120.589 130.19 119.776 130.19C118.989 130.19 118.376 130.443 117.936 130.95C117.509 131.443 117.283 132.11 117.256 132.95H115.056C115.096 131.43 115.549 130.27 116.416 129.47C117.296 128.657 118.409 128.25 119.756 128.25C121.209 128.25 122.343 128.65 123.156 129.45C123.983 130.25 124.396 131.317 124.396 132.65C124.396 133.61 124.149 134.537 123.656 135.43C123.176 136.31 122.596 137.103 121.916 137.81C121.249 138.503 120.396 139.31 119.356 140.23L118.456 141.03H124.796V142.93H115.076V141.27L116.516 140.03ZM126.519 140.09V138.37L133.239 128.73H135.999V138.11H137.859V140.09H135.999V143.13H133.759V140.09H126.519ZM133.859 131.05L129.139 138.11H133.859V131.05ZM149.148 130.51H142.448V134.49C142.728 134.117 143.142 133.803 143.688 133.55C144.248 133.297 144.842 133.17 145.468 133.17C146.588 133.17 147.495 133.41 148.188 133.89C148.895 134.37 149.395 134.977 149.688 135.71C149.995 136.443 150.148 137.217 150.148 138.03C150.148 139.017 149.955 139.897 149.568 140.67C149.195 141.43 148.628 142.03 147.868 142.47C147.122 142.91 146.202 143.13 145.108 143.13C143.655 143.13 142.488 142.77 141.608 142.05C140.728 141.33 140.202 140.377 140.028 139.19H142.248C142.395 139.817 142.722 140.317 143.228 140.69C143.735 141.05 144.368 141.23 145.128 141.23C146.075 141.23 146.782 140.943 147.248 140.37C147.728 139.797 147.968 139.037 147.968 138.09C147.968 137.13 147.728 136.397 147.248 135.89C146.768 135.37 146.062 135.11 145.128 135.11C144.475 135.11 143.922 135.277 143.468 135.61C143.028 135.93 142.708 136.37 142.508 136.93H140.348V128.51H149.148V130.51ZM155.322 140.39L152.902 145.91H151.422L152.842 140.39H155.322ZM159.854 139.17C159.987 139.837 160.274 140.343 160.714 140.69C161.154 141.037 161.747 141.21 162.494 141.21C163.441 141.21 164.134 140.837 164.574 140.09C165.014 139.343 165.234 138.07 165.234 136.27C164.914 136.723 164.461 137.077 163.874 137.33C163.301 137.57 162.674 137.69 161.994 137.69C161.127 137.69 160.341 137.517 159.634 137.17C158.927 136.81 158.367 136.283 157.954 135.59C157.554 134.883 157.354 134.03 157.354 133.03C157.354 131.563 157.781 130.397 158.634 129.53C159.501 128.65 160.687 128.21 162.194 128.21C164.007 128.21 165.294 128.817 166.054 130.03C166.827 131.23 167.214 133.077 167.214 135.57C167.214 137.29 167.067 138.697 166.774 139.79C166.494 140.883 166.001 141.71 165.294 142.27C164.587 142.83 163.607 143.11 162.354 143.11C160.927 143.11 159.827 142.737 159.054 141.99C158.281 141.243 157.847 140.303 157.754 139.17H159.854ZM162.394 135.77C163.194 135.77 163.821 135.523 164.274 135.03C164.741 134.523 164.974 133.857 164.974 133.03C164.974 132.11 164.727 131.397 164.234 130.89C163.754 130.37 163.094 130.11 162.254 130.11C161.414 130.11 160.747 130.377 160.254 130.91C159.774 131.43 159.534 132.117 159.534 132.97C159.534 133.783 159.767 134.457 160.234 134.99C160.714 135.51 161.434 135.77 162.394 135.77ZM172.169 135.51C170.783 134.817 170.089 133.723 170.089 132.23C170.089 131.51 170.269 130.85 170.629 130.25C170.989 129.65 171.529 129.177 172.249 128.83C172.969 128.47 173.849 128.29 174.889 128.29C175.916 128.29 176.789 128.47 177.509 128.83C178.243 129.177 178.789 129.65 179.149 130.25C179.509 130.85 179.689 131.51 179.689 132.23C179.689 132.977 179.496 133.637 179.109 134.21C178.736 134.77 178.236 135.203 177.609 135.51C178.369 135.79 178.969 136.25 179.409 136.89C179.849 137.517 180.069 138.257 180.069 139.11C180.069 139.977 179.849 140.743 179.409 141.41C178.969 142.077 178.356 142.59 177.569 142.95C176.783 143.31 175.889 143.49 174.889 143.49C173.889 143.49 172.996 143.31 172.209 142.95C171.436 142.59 170.829 142.077 170.389 141.41C169.949 140.743 169.729 139.977 169.729 139.11C169.729 138.243 169.949 137.497 170.389 136.87C170.829 136.243 171.423 135.79 172.169 135.51ZM177.509 132.51C177.509 131.763 177.276 131.19 176.809 130.79C176.343 130.39 175.703 130.19 174.889 130.19C174.089 130.19 173.456 130.39 172.989 130.79C172.523 131.19 172.289 131.77 172.289 132.53C172.289 133.197 172.529 133.743 173.009 134.17C173.503 134.583 174.129 134.79 174.889 134.79C175.649 134.79 176.276 134.577 176.769 134.15C177.263 133.723 177.509 133.177 177.509 132.51ZM174.889 136.51C174.009 136.51 173.289 136.73 172.729 137.17C172.183 137.597 171.909 138.217 171.909 139.03C171.909 139.79 172.176 140.41 172.709 140.89C173.243 141.357 173.969 141.59 174.889 141.59C175.796 141.59 176.509 141.35 177.029 140.87C177.563 140.39 177.829 139.777 177.829 139.03C177.829 138.23 177.556 137.61 177.009 137.17C176.476 136.73 175.769 136.51 174.889 136.51ZM191.703 130.31L186.143 143.13H183.843L189.463 130.55H182.063V128.61H191.703V130.31ZM196.455 140.39L194.035 145.91H192.555L193.975 140.39H196.455ZM200.607 135.51C199.22 134.817 198.527 133.723 198.527 132.23C198.527 131.51 198.707 130.85 199.067 130.25C199.427 129.65 199.967 129.177 200.687 128.83C201.407 128.47 202.287 128.29 203.327 128.29C204.353 128.29 205.227 128.47 205.947 128.83C206.68 129.177 207.227 129.65 207.587 130.25C207.947 130.85 208.127 131.51 208.127 132.23C208.127 132.977 207.933 133.637 207.547 134.21C207.173 134.77 206.673 135.203 206.047 135.51C206.807 135.79 207.407 136.25 207.847 136.89C208.287 137.517 208.507 138.257 208.507 139.11C208.507 139.977 208.287 140.743 207.847 141.41C207.407 142.077 206.793 142.59 206.007 142.95C205.22 143.31 204.327 143.49 203.327 143.49C202.327 143.49 201.433 143.31 200.647 142.95C199.873 142.59 199.267 142.077 198.827 141.41C198.387 140.743 198.167 139.977 198.167 139.11C198.167 138.243 198.387 137.497 198.827 136.87C199.267 136.243 199.86 135.79 200.607 135.51ZM205.947 132.51C205.947 131.763 205.713 131.19 205.247 130.79C204.78 130.39 204.14 130.19 203.327 130.19C202.527 130.19 201.893 130.39 201.427 130.79C200.96 131.19 200.727 131.77 200.727 132.53C200.727 133.197 200.967 133.743 201.447 134.17C201.94 134.583 202.567 134.79 203.327 134.79C204.087 134.79 204.713 134.577 205.207 134.15C205.7 133.723 205.947 133.177 205.947 132.51ZM203.327 136.51C202.447 136.51 201.727 136.73 201.167 137.17C200.62 137.597 200.347 138.217 200.347 139.03C200.347 139.79 200.613 140.41 201.147 140.89C201.68 141.357 202.407 141.59 203.327 141.59C204.233 141.59 204.947 141.35 205.467 140.87C206 140.39 206.267 139.777 206.267 139.03C206.267 138.23 205.993 137.61 205.447 137.17C204.913 136.73 204.207 136.51 203.327 136.51ZM210.861 132.15C210.941 130.91 211.414 129.943 212.281 129.25C213.161 128.557 214.281 128.21 215.641 128.21C216.574 128.21 217.381 128.377 218.061 128.71C218.741 129.043 219.254 129.497 219.601 130.07C219.947 130.643 220.121 131.29 220.121 132.01C220.121 132.837 219.901 133.543 219.461 134.13C219.021 134.717 218.494 135.11 217.881 135.31V135.39C218.667 135.63 219.281 136.07 219.721 136.71C220.161 137.337 220.381 138.143 220.381 139.13C220.381 139.917 220.201 140.617 219.841 141.23C219.481 141.843 218.947 142.33 218.241 142.69C217.534 143.037 216.687 143.21 215.701 143.21C214.261 143.21 213.074 142.843 212.141 142.11C211.221 141.363 210.727 140.297 210.661 138.91H212.861C212.914 139.617 213.187 140.197 213.681 140.65C214.174 141.09 214.841 141.31 215.681 141.31C216.494 141.31 217.121 141.09 217.561 140.65C218.001 140.197 218.221 139.617 218.221 138.91C218.221 137.977 217.921 137.317 217.321 136.93C216.734 136.53 215.827 136.33 214.601 136.33H214.081V134.45H214.621C215.701 134.437 216.521 134.257 217.081 133.91C217.654 133.563 217.941 133.017 217.941 132.27C217.941 131.63 217.734 131.123 217.321 130.75C216.907 130.363 216.321 130.17 215.561 130.17C214.814 130.17 214.234 130.363 213.821 130.75C213.407 131.123 213.161 131.59 213.081 132.15H210.861ZM225.616 139.17C225.749 139.837 226.036 140.343 226.476 140.69C226.916 141.037 227.509 141.21 228.256 141.21C229.202 141.21 229.896 140.837 230.336 140.09C230.776 139.343 230.996 138.07 230.996 136.27C230.676 136.723 230.222 137.077 229.636 137.33C229.062 137.57 228.436 137.69 227.756 137.69C226.889 137.69 226.102 137.517 225.396 137.17C224.689 136.81 224.129 136.283 223.716 135.59C223.316 134.883 223.116 134.03 223.116 133.03C223.116 131.563 223.542 130.397 224.396 129.53C225.262 128.65 226.449 128.21 227.956 128.21C229.769 128.21 231.056 128.817 231.816 130.03C232.589 131.23 232.976 133.077 232.976 135.57C232.976 137.29 232.829 138.697 232.536 139.79C232.256 140.883 231.762 141.71 231.056 142.27C230.349 142.83 229.369 143.11 228.116 143.11C226.689 143.11 225.589 142.737 224.816 141.99C224.042 141.243 223.609 140.303 223.516 139.17H225.616ZM228.156 135.77C228.956 135.77 229.582 135.523 230.036 135.03C230.502 134.523 230.736 133.857 230.736 133.03C230.736 132.11 230.489 131.397 229.996 130.89C229.516 130.37 228.856 130.11 228.016 130.11C227.176 130.11 226.509 130.377 226.016 130.91C225.536 131.43 225.296 132.117 225.296 132.97C225.296 133.783 225.529 134.457 225.996 134.99C226.476 135.51 227.196 135.77 228.156 135.77Z" fill="white"/>
<path d="M108.249 105.832H104.601L103.929 107.692H102.777L105.801 99.3764H107.061L110.073 107.692H108.921L108.249 105.832ZM107.937 104.944L106.425 100.72L104.913 104.944H107.937ZM112.483 102.328C112.699 101.952 113.019 101.64 113.443 101.392C113.875 101.136 114.375 101.008 114.943 101.008C115.527 101.008 116.055 101.148 116.527 101.428C117.007 101.708 117.383 102.104 117.655 102.616C117.927 103.12 118.063 103.708 118.063 104.38C118.063 105.044 117.927 105.636 117.655 106.156C117.383 106.676 117.007 107.08 116.527 107.368C116.055 107.656 115.527 107.8 114.943 107.8C114.383 107.8 113.887 107.676 113.455 107.428C113.031 107.172 112.707 106.856 112.483 106.48V110.812H111.391V101.116H112.483V102.328ZM116.947 104.38C116.947 103.884 116.847 103.452 116.647 103.084C116.447 102.716 116.175 102.436 115.831 102.244C115.495 102.052 115.123 101.956 114.715 101.956C114.315 101.956 113.943 102.056 113.599 102.256C113.263 102.448 112.991 102.732 112.783 103.108C112.583 103.476 112.483 103.904 112.483 104.392C112.483 104.888 112.583 105.324 112.783 105.7C112.991 106.068 113.263 106.352 113.599 106.552C113.943 106.744 114.315 106.84 114.715 106.84C115.123 106.84 115.495 106.744 115.831 106.552C116.175 106.352 116.447 106.068 116.647 105.7C116.847 105.324 116.947 104.884 116.947 104.38ZM120.592 102.328C120.808 101.952 121.128 101.64 121.552 101.392C121.984 101.136 122.484 101.008 123.052 101.008C123.636 101.008 124.164 101.148 124.636 101.428C125.116 101.708 125.492 102.104 125.764 102.616C126.036 103.12 126.172 103.708 126.172 104.38C126.172 105.044 126.036 105.636 125.764 106.156C125.492 106.676 125.116 107.08 124.636 107.368C124.164 107.656 123.636 107.8 123.052 107.8C122.492 107.8 121.996 107.676 121.564 107.428C121.14 107.172 120.816 106.856 120.592 106.48V110.812H119.5V101.116H120.592V102.328ZM125.056 104.38C125.056 103.884 124.956 103.452 124.756 103.084C124.556 102.716 124.284 102.436 123.94 102.244C123.604 102.052 123.232 101.956 122.824 101.956C122.424 101.956 122.052 102.056 121.708 102.256C121.372 102.448 121.1 102.732 120.892 103.108C120.692 103.476 120.592 103.904 120.592 104.392C120.592 104.888 120.692 105.324 120.892 105.7C121.1 106.068 121.372 106.352 121.708 106.552C122.052 106.744 122.424 106.84 122.824 106.84C123.232 106.84 123.604 106.744 123.94 106.552C124.284 106.352 124.556 106.068 124.756 105.7C124.956 105.324 125.056 104.884 125.056 104.38ZM128.702 102.184C128.894 101.808 129.166 101.516 129.518 101.308C129.878 101.1 130.314 100.996 130.826 100.996V102.124H130.538C129.314 102.124 128.702 102.788 128.702 104.116V107.692H127.61V101.116H128.702V102.184ZM134.954 107.8C134.338 107.8 133.778 107.66 133.274 107.38C132.778 107.1 132.386 106.704 132.098 106.192C131.818 105.672 131.678 105.072 131.678 104.392C131.678 103.72 131.822 103.128 132.11 102.616C132.406 102.096 132.806 101.7 133.31 101.428C133.814 101.148 134.378 101.008 135.002 101.008C135.626 101.008 136.19 101.148 136.694 101.428C137.198 101.7 137.594 102.092 137.882 102.604C138.178 103.116 138.326 103.712 138.326 104.392C138.326 105.072 138.174 105.672 137.87 106.192C137.574 106.704 137.17 107.1 136.658 107.38C136.146 107.66 135.578 107.8 134.954 107.8ZM134.954 106.84C135.346 106.84 135.714 106.748 136.058 106.564C136.402 106.38 136.678 106.104 136.886 105.736C137.102 105.368 137.21 104.92 137.21 104.392C137.21 103.864 137.106 103.416 136.898 103.048C136.69 102.68 136.418 102.408 136.082 102.232C135.746 102.048 135.382 101.956 134.99 101.956C134.59 101.956 134.222 102.048 133.886 102.232C133.558 102.408 133.294 102.68 133.094 103.048C132.894 103.416 132.794 103.864 132.794 104.392C132.794 104.928 132.89 105.38 133.082 105.748C133.282 106.116 133.546 106.392 133.874 106.576C134.202 106.752 134.562 106.84 134.954 106.84ZM142.21 106.684L144.25 101.116H145.414L142.834 107.692H141.562L138.982 101.116H140.158L142.21 106.684ZM152.488 104.152C152.488 104.36 152.476 104.58 152.452 104.812H147.196C147.236 105.46 147.456 105.968 147.856 106.336C148.264 106.696 148.756 106.876 149.332 106.876C149.804 106.876 150.196 106.768 150.508 106.552C150.828 106.328 151.052 106.032 151.18 105.664H152.356C152.18 106.296 151.828 106.812 151.3 107.212C150.772 107.604 150.116 107.8 149.332 107.8C148.708 107.8 148.148 107.66 147.652 107.38C147.164 107.1 146.78 106.704 146.5 106.192C146.22 105.672 146.08 105.072 146.08 104.392C146.08 103.712 146.216 103.116 146.488 102.604C146.76 102.092 147.14 101.7 147.628 101.428C148.124 101.148 148.692 101.008 149.332 101.008C149.956 101.008 150.508 101.144 150.988 101.416C151.468 101.688 151.836 102.064 152.092 102.544C152.356 103.016 152.488 103.552 152.488 104.152ZM151.36 103.924C151.36 103.508 151.268 103.152 151.084 102.856C150.9 102.552 150.648 102.324 150.328 102.172C150.016 102.012 149.668 101.932 149.284 101.932C148.732 101.932 148.26 102.108 147.868 102.46C147.484 102.812 147.264 103.3 147.208 103.924H151.36ZM153.522 104.38C153.522 103.708 153.658 103.12 153.93 102.616C154.202 102.104 154.574 101.708 155.046 101.428C155.526 101.148 156.062 101.008 156.654 101.008C157.166 101.008 157.642 101.128 158.082 101.368C158.522 101.6 158.858 101.908 159.09 102.292V98.8124H160.194V107.692H159.09V106.456C158.874 106.848 158.554 107.172 158.13 107.428C157.706 107.676 157.21 107.8 156.642 107.8C156.058 107.8 155.526 107.656 155.046 107.368C154.574 107.08 154.202 106.676 153.93 106.156C153.658 105.636 153.522 105.044 153.522 104.38ZM159.09 104.392C159.09 103.896 158.99 103.464 158.79 103.096C158.59 102.728 158.318 102.448 157.974 102.256C157.638 102.056 157.266 101.956 156.858 101.956C156.45 101.956 156.078 102.052 155.742 102.244C155.406 102.436 155.138 102.716 154.938 103.084C154.738 103.452 154.638 103.884 154.638 104.38C154.638 104.884 154.738 105.324 154.938 105.7C155.138 106.068 155.406 106.352 155.742 106.552C156.078 106.744 156.45 106.84 156.858 106.84C157.266 106.84 157.638 106.744 157.974 106.552C158.318 106.352 158.59 106.068 158.79 105.7C158.99 105.324 159.09 104.888 159.09 104.392ZM166.33 106.804H169.258V107.692H165.238V99.3284H166.33V106.804ZM173.286 107.8C172.67 107.8 172.11 107.66 171.606 107.38C171.11 107.1 170.718 106.704 170.43 106.192C170.15 105.672 170.01 105.072 170.01 104.392C170.01 103.72 170.154 103.128 170.442 102.616C170.738 102.096 171.138 101.7 171.642 101.428C172.146 101.148 172.71 101.008 173.334 101.008C173.958 101.008 174.522 101.148 175.026 101.428C175.53 101.7 175.926 102.092 176.214 102.604C176.51 103.116 176.658 103.712 176.658 104.392C176.658 105.072 176.506 105.672 176.202 106.192C175.906 106.704 175.502 107.1 174.99 107.38C174.478 107.66 173.91 107.8 173.286 107.8ZM173.286 106.84C173.678 106.84 174.046 106.748 174.39 106.564C174.734 106.38 175.01 106.104 175.218 105.736C175.434 105.368 175.542 104.92 175.542 104.392C175.542 103.864 175.438 103.416 175.23 103.048C175.022 102.68 174.75 102.408 174.414 102.232C174.078 102.048 173.714 101.956 173.322 101.956C172.922 101.956 172.554 102.048 172.218 102.232C171.89 102.408 171.626 102.68 171.426 103.048C171.226 103.416 171.126 103.864 171.126 104.392C171.126 104.928 171.222 105.38 171.414 105.748C171.614 106.116 171.878 106.392 172.206 106.576C172.534 106.752 172.894 106.84 173.286 106.84ZM177.686 104.38C177.686 103.708 177.822 103.12 178.094 102.616C178.366 102.104 178.738 101.708 179.21 101.428C179.69 101.148 180.222 101.008 180.806 101.008C181.382 101.008 181.882 101.132 182.306 101.38C182.73 101.628 183.046 101.94 183.254 102.316V101.116H184.358V107.692H183.254V106.468C183.038 106.852 182.714 107.172 182.282 107.428C181.858 107.676 181.362 107.8 180.794 107.8C180.21 107.8 179.682 107.656 179.21 107.368C178.738 107.08 178.366 106.676 178.094 106.156C177.822 105.636 177.686 105.044 177.686 104.38ZM183.254 104.392C183.254 103.896 183.154 103.464 182.954 103.096C182.754 102.728 182.482 102.448 182.138 102.256C181.802 102.056 181.43 101.956 181.022 101.956C180.614 101.956 180.242 102.052 179.906 102.244C179.57 102.436 179.302 102.716 179.102 103.084C178.902 103.452 178.802 103.884 178.802 104.38C178.802 104.884 178.902 105.324 179.102 105.7C179.302 106.068 179.57 106.352 179.906 106.552C180.242 106.744 180.614 106.84 181.022 106.84C181.43 106.84 181.802 106.744 182.138 106.552C182.482 106.352 182.754 106.068 182.954 105.7C183.154 105.324 183.254 104.888 183.254 104.392ZM189.407 100.996C190.207 100.996 190.855 101.24 191.351 101.728C191.847 102.208 192.095 102.904 192.095 103.816V107.692H191.015V103.972C191.015 103.316 190.851 102.816 190.523 102.472C190.195 102.12 189.747 101.944 189.179 101.944C188.603 101.944 188.143 102.124 187.799 102.484C187.463 102.844 187.295 103.368 187.295 104.056V107.692H186.203V101.116H187.295V102.052C187.511 101.716 187.803 101.456 188.171 101.272C188.547 101.088 188.959 100.996 189.407 100.996Z" fill="white"/>
<rect x="273.275" y="93.5708" width="48.7323" height="20.9748" rx="10.4874" fill="#EAF7EE" stroke="#40BE62"/>
<path d="M289.233 101.217V100.636H290.549V105.697H289.905V101.217H289.233ZM291.566 105.186C292.159 104.71 292.623 104.32 292.959 104.017C293.295 103.709 293.578 103.389 293.806 103.058C294.04 102.722 294.156 102.393 294.156 102.071C294.156 101.768 294.082 101.53 293.932 101.357C293.788 101.18 293.552 101.091 293.225 101.091C292.908 101.091 292.661 101.191 292.483 101.392C292.311 101.588 292.217 101.852 292.203 102.183H291.587C291.606 101.66 291.765 101.257 292.063 100.972C292.362 100.687 292.747 100.545 293.218 100.545C293.699 100.545 294.079 100.678 294.359 100.944C294.644 101.21 294.786 101.576 294.786 102.043C294.786 102.43 294.67 102.808 294.436 103.177C294.208 103.541 293.946 103.863 293.652 104.143C293.358 104.418 292.983 104.74 292.525 105.109H294.933V105.641H291.566V105.186ZM295.978 105.739C295.856 105.739 295.754 105.697 295.67 105.613C295.586 105.529 295.544 105.426 295.544 105.305C295.544 105.184 295.586 105.081 295.67 104.997C295.754 104.913 295.856 104.871 295.978 104.871C296.094 104.871 296.192 104.913 296.272 104.997C296.356 105.081 296.398 105.184 296.398 105.305C296.398 105.426 296.356 105.529 296.272 105.613C296.192 105.697 296.094 105.739 295.978 105.739ZM297.062 105.186C297.655 104.71 298.119 104.32 298.455 104.017C298.791 103.709 299.074 103.389 299.302 103.058C299.536 102.722 299.652 102.393 299.652 102.071C299.652 101.768 299.578 101.53 299.428 101.357C299.284 101.18 299.048 101.091 298.721 101.091C298.404 101.091 298.157 101.191 297.979 101.392C297.807 101.588 297.713 101.852 297.699 102.183H297.083C297.102 101.66 297.261 101.257 297.559 100.972C297.858 100.687 298.243 100.545 298.714 100.545C299.195 100.545 299.575 100.678 299.855 100.944C300.14 101.21 300.282 101.576 300.282 102.043C300.282 102.43 300.166 102.808 299.932 103.177C299.704 103.541 299.442 103.863 299.148 104.143C298.854 104.418 298.479 104.74 298.021 105.109H300.429V105.641H297.062V105.186ZM301.152 101.91C301.184 101.481 301.35 101.145 301.649 100.902C301.947 100.659 302.335 100.538 302.811 100.538C303.128 100.538 303.401 100.596 303.63 100.713C303.863 100.825 304.038 100.979 304.155 101.175C304.276 101.371 304.337 101.593 304.337 101.84C304.337 102.129 304.253 102.379 304.085 102.589C303.921 102.799 303.707 102.934 303.441 102.995V103.03C303.744 103.105 303.984 103.252 304.162 103.471C304.339 103.69 304.428 103.977 304.428 104.332C304.428 104.598 304.367 104.838 304.246 105.053C304.124 105.263 303.942 105.429 303.7 105.55C303.457 105.671 303.165 105.732 302.825 105.732C302.33 105.732 301.924 105.604 301.607 105.347C301.289 105.086 301.112 104.717 301.075 104.241H301.691C301.723 104.521 301.838 104.75 302.034 104.927C302.23 105.104 302.491 105.193 302.818 105.193C303.144 105.193 303.392 105.109 303.56 104.941C303.732 104.768 303.819 104.547 303.819 104.276C303.819 103.926 303.702 103.674 303.469 103.52C303.235 103.366 302.883 103.289 302.412 103.289H302.251V102.757H302.419C302.848 102.752 303.172 102.682 303.392 102.547C303.611 102.407 303.721 102.192 303.721 101.903C303.721 101.656 303.639 101.457 303.476 101.308C303.317 101.159 303.088 101.084 302.79 101.084C302.5 101.084 302.267 101.159 302.09 101.308C301.912 101.457 301.807 101.658 301.775 101.91H301.152ZM305.148 101.777C305.148 101.46 305.243 101.208 305.435 101.021C305.626 100.83 305.871 100.734 306.17 100.734C306.468 100.734 306.713 100.83 306.905 101.021C307.096 101.208 307.192 101.46 307.192 101.777C307.192 102.099 307.096 102.356 306.905 102.547C306.713 102.734 306.468 102.827 306.17 102.827C305.871 102.827 305.626 102.734 305.435 102.547C305.243 102.356 305.148 102.099 305.148 101.777ZM309.236 100.811L306.401 105.697H305.771L308.606 100.811H309.236ZM306.17 101.126C306.011 101.126 305.885 101.182 305.792 101.294C305.703 101.401 305.659 101.562 305.659 101.777C305.659 101.992 305.703 102.155 305.792 102.267C305.885 102.379 306.011 102.435 306.17 102.435C306.328 102.435 306.454 102.379 306.548 102.267C306.641 102.15 306.688 101.987 306.688 101.777C306.688 101.562 306.641 101.401 306.548 101.294C306.454 101.182 306.328 101.126 306.17 101.126ZM307.829 104.731C307.829 104.409 307.924 104.155 308.116 103.968C308.307 103.777 308.552 103.681 308.851 103.681C309.149 103.681 309.392 103.777 309.579 103.968C309.77 104.155 309.866 104.409 309.866 104.731C309.866 105.048 309.77 105.303 309.579 105.494C309.392 105.685 309.149 105.781 308.851 105.781C308.552 105.781 308.307 105.688 308.116 105.501C307.924 105.31 307.829 105.053 307.829 104.731ZM308.844 104.08C308.685 104.08 308.559 104.136 308.466 104.248C308.372 104.355 308.326 104.516 308.326 104.731C308.326 104.941 308.372 105.102 308.466 105.214C308.559 105.321 308.685 105.375 308.844 105.375C309.002 105.375 309.128 105.321 309.222 105.214C309.315 105.102 309.362 104.941 309.362 104.731C309.362 104.516 309.315 104.355 309.222 104.248C309.128 104.136 309.002 104.08 308.844 104.08Z" fill="#40BE62"/>
<path d="M286.902 101.139C286.887 101.002 286.763 100.903 286.626 100.918L284.39 101.167C284.253 101.182 284.154 101.305 284.169 101.443C284.184 101.58 284.308 101.679 284.445 101.663L286.433 101.443L286.654 103.43C286.669 103.568 286.793 103.666 286.93 103.651C287.067 103.636 287.166 103.512 287.151 103.375L286.902 101.139ZM286.459 101.01L281.832 106.793L282.223 107.106L286.849 101.323L286.459 101.01Z" fill="#40BE62"/>
<rect x="88.2231" y="183.783" width="246.505" height="90.3687" rx="9.5" fill="white" stroke="#D9E7FF"/>
<rect x="273.275" y="199.975" width="48.7323" height="20.9748" rx="10.4874" fill="#FCEDE9" stroke="#EC4D2C"/>
<path d="M289.233 207.621V207.04H290.549V212.101H289.905V207.621H289.233ZM294.87 207.593H292.413V209.189C292.521 209.04 292.679 208.919 292.889 208.825C293.099 208.727 293.326 208.678 293.568 208.678C293.956 208.678 294.271 208.76 294.513 208.923C294.756 209.082 294.929 209.29 295.031 209.546C295.139 209.798 295.192 210.067 295.192 210.351C295.192 210.687 295.129 210.988 295.003 211.254C294.877 211.52 294.684 211.73 294.422 211.884C294.166 212.038 293.846 212.115 293.463 212.115C292.973 212.115 292.577 211.989 292.273 211.737C291.97 211.485 291.786 211.149 291.72 210.729H292.343C292.404 210.995 292.532 211.203 292.728 211.352C292.924 211.502 293.172 211.576 293.47 211.576C293.839 211.576 294.117 211.467 294.303 211.247C294.49 211.023 294.583 210.729 294.583 210.365C294.583 210.001 294.49 209.721 294.303 209.525C294.117 209.325 293.841 209.224 293.477 209.224C293.23 209.224 293.013 209.285 292.826 209.406C292.644 209.523 292.511 209.684 292.427 209.889H291.825V207.033H294.87V207.593ZM296.347 212.143C296.225 212.143 296.123 212.101 296.039 212.017C295.955 211.933 295.913 211.831 295.913 211.709C295.913 211.588 295.955 211.485 296.039 211.401C296.123 211.317 296.225 211.275 296.347 211.275C296.463 211.275 296.561 211.317 296.641 211.401C296.725 211.485 296.767 211.588 296.767 211.709C296.767 211.831 296.725 211.933 296.641 212.017C296.561 212.101 296.463 212.143 296.347 212.143ZM297.494 208.314C297.527 207.885 297.693 207.549 297.991 207.306C298.29 207.064 298.677 206.942 299.153 206.942C299.471 206.942 299.744 207.001 299.972 207.117C300.206 207.229 300.381 207.383 300.497 207.579C300.619 207.775 300.679 207.997 300.679 208.244C300.679 208.534 300.595 208.783 300.427 208.993C300.264 209.203 300.049 209.339 299.783 209.399V209.434C300.087 209.509 300.327 209.656 300.504 209.875C300.682 210.095 300.77 210.382 300.77 210.736C300.77 211.002 300.71 211.243 300.588 211.457C300.467 211.667 300.285 211.833 300.042 211.954C299.8 212.076 299.508 212.136 299.167 212.136C298.673 212.136 298.267 212.008 297.949 211.751C297.632 211.49 297.455 211.121 297.417 210.645H298.033C298.066 210.925 298.18 211.154 298.376 211.331C298.572 211.509 298.834 211.597 299.16 211.597C299.487 211.597 299.734 211.513 299.902 211.345C300.075 211.173 300.161 210.951 300.161 210.68C300.161 210.33 300.045 210.078 299.811 209.924C299.578 209.77 299.226 209.693 298.754 209.693H298.593V209.161H298.761C299.191 209.157 299.515 209.087 299.734 208.951C299.954 208.811 300.063 208.597 300.063 208.307C300.063 208.06 299.982 207.862 299.818 207.712C299.66 207.563 299.431 207.488 299.132 207.488C298.843 207.488 298.61 207.563 298.432 207.712C298.255 207.862 298.15 208.062 298.117 208.314H297.494ZM301.477 210.974V210.491L303.934 207.089H304.697V210.421H305.397V210.974H304.697V212.101H304.067V210.974H301.477ZM304.095 207.754L302.212 210.421H304.095V207.754ZM305.893 208.181C305.893 207.864 305.989 207.612 306.18 207.425C306.371 207.234 306.616 207.138 306.915 207.138C307.214 207.138 307.459 207.234 307.65 207.425C307.841 207.612 307.937 207.864 307.937 208.181C307.937 208.503 307.841 208.76 307.65 208.951C307.459 209.138 307.214 209.231 306.915 209.231C306.616 209.231 306.371 209.138 306.18 208.951C305.989 208.76 305.893 208.503 305.893 208.181ZM309.981 207.215L307.146 212.101H306.516L309.351 207.215H309.981ZM306.915 207.53C306.756 207.53 306.63 207.586 306.537 207.698C306.448 207.806 306.404 207.967 306.404 208.181C306.404 208.396 306.448 208.559 306.537 208.671C306.63 208.783 306.756 208.839 306.915 208.839C307.074 208.839 307.2 208.783 307.293 208.671C307.386 208.555 307.433 208.391 307.433 208.181C307.433 207.967 307.386 207.806 307.293 207.698C307.2 207.586 307.074 207.53 306.915 207.53ZM308.574 211.135C308.574 210.813 308.67 210.559 308.861 210.372C309.052 210.181 309.297 210.085 309.596 210.085C309.895 210.085 310.137 210.181 310.324 210.372C310.515 210.559 310.611 210.813 310.611 211.135C310.611 211.453 310.515 211.707 310.324 211.898C310.137 212.09 309.895 212.185 309.596 212.185C309.297 212.185 309.052 212.092 308.861 211.905C308.67 211.714 308.574 211.457 308.574 211.135ZM309.589 210.484C309.43 210.484 309.304 210.54 309.211 210.652C309.118 210.76 309.071 210.921 309.071 211.135C309.071 211.345 309.118 211.506 309.211 211.618C309.304 211.726 309.43 211.779 309.589 211.779C309.748 211.779 309.874 211.726 309.967 211.618C310.06 211.506 310.107 211.345 310.107 211.135C310.107 210.921 310.06 210.76 309.967 210.652C309.874 210.54 309.748 210.484 309.589 210.484Z" fill="#EC4D2C"/>
<path d="M281.779 213.381C281.794 213.518 281.918 213.617 282.055 213.602L284.291 213.354C284.429 213.338 284.528 213.215 284.512 213.078C284.497 212.94 284.373 212.841 284.236 212.857L282.248 213.078L282.028 211.09C282.012 210.953 281.889 210.854 281.751 210.869C281.614 210.884 281.515 211.008 281.531 211.145L281.779 213.381ZM286.459 207.415L281.832 213.197L282.223 213.51L286.849 207.727L286.459 207.415Z" fill="#EC4D2C"/>
<path d="M112.181 244.323C112.181 244.99 112.014 245.617 111.681 246.203C111.361 246.79 110.881 247.283 110.241 247.683C109.614 248.083 108.867 248.323 108.001 248.403V250.023H106.701V248.403C105.447 248.283 104.434 247.89 103.661 247.223C102.887 246.557 102.501 245.677 102.501 244.583H104.941C104.981 245.103 105.147 245.537 105.441 245.883C105.734 246.217 106.154 246.43 106.701 246.523V242.123C105.807 241.897 105.081 241.67 104.521 241.443C103.961 241.203 103.481 240.83 103.081 240.323C102.694 239.817 102.501 239.123 102.501 238.243C102.501 237.137 102.887 236.223 103.661 235.503C104.434 234.77 105.447 234.343 106.701 234.223V232.603H108.001V234.223C109.174 234.33 110.114 234.703 110.821 235.343C111.541 235.97 111.947 236.837 112.041 237.943H109.601C109.561 237.53 109.401 237.163 109.121 236.843C108.841 236.51 108.467 236.283 108.001 236.163V240.483C108.894 240.697 109.621 240.923 110.181 241.163C110.741 241.39 111.214 241.757 111.601 242.263C111.987 242.757 112.181 243.443 112.181 244.323ZM104.821 238.123C104.821 238.67 104.981 239.097 105.301 239.403C105.634 239.71 106.101 239.957 106.701 240.143V236.103C106.127 236.17 105.667 236.377 105.321 236.723C104.987 237.07 104.821 237.537 104.821 238.123ZM108.001 246.523C108.587 246.43 109.047 246.197 109.381 245.823C109.714 245.437 109.881 244.977 109.881 244.443C109.881 243.91 109.714 243.497 109.381 243.203C109.061 242.897 108.601 242.65 108.001 242.463V246.523ZM116.769 245.183C118.049 244.077 119.055 243.17 119.789 242.463C120.535 241.743 121.155 240.997 121.649 240.223C122.142 239.45 122.389 238.677 122.389 237.903C122.389 237.103 122.195 236.477 121.809 236.023C121.435 235.57 120.842 235.343 120.029 235.343C119.242 235.343 118.629 235.597 118.189 236.103C117.762 236.597 117.535 237.263 117.509 238.103H115.309C115.349 236.583 115.802 235.423 116.669 234.623C117.549 233.81 118.662 233.403 120.009 233.403C121.462 233.403 122.595 233.803 123.409 234.603C124.235 235.403 124.649 236.47 124.649 237.803C124.649 238.763 124.402 239.69 123.909 240.583C123.429 241.463 122.849 242.257 122.169 242.963C121.502 243.657 120.649 244.463 119.609 245.383L118.709 246.183H125.049V248.083H115.329V246.423L116.769 245.183ZM136.452 235.663H129.752V239.643C130.032 239.27 130.445 238.957 130.992 238.703C131.552 238.45 132.145 238.323 132.772 238.323C133.892 238.323 134.798 238.563 135.492 239.043C136.198 239.523 136.698 240.13 136.992 240.863C137.298 241.597 137.452 242.37 137.452 243.183C137.452 244.17 137.258 245.05 136.872 245.823C136.498 246.583 135.932 247.183 135.172 247.623C134.425 248.063 133.505 248.283 132.412 248.283C130.958 248.283 129.792 247.923 128.912 247.203C128.032 246.483 127.505 245.53 127.332 244.343H129.552C129.698 244.97 130.025 245.47 130.532 245.843C131.038 246.203 131.672 246.383 132.432 246.383C133.378 246.383 134.085 246.097 134.552 245.523C135.032 244.95 135.272 244.19 135.272 243.243C135.272 242.283 135.032 241.55 134.552 241.043C134.072 240.523 133.365 240.263 132.432 240.263C131.778 240.263 131.225 240.43 130.772 240.763C130.332 241.083 130.012 241.523 129.812 242.083H127.652V233.663H136.452V235.663ZM142.625 245.543L140.205 251.063H138.725L140.145 245.543H142.625ZM144.277 237.303C144.357 236.063 144.831 235.097 145.697 234.403C146.577 233.71 147.697 233.363 149.057 233.363C149.991 233.363 150.797 233.53 151.477 233.863C152.157 234.197 152.671 234.65 153.017 235.223C153.364 235.797 153.537 236.443 153.537 237.163C153.537 237.99 153.317 238.697 152.877 239.283C152.437 239.87 151.911 240.263 151.297 240.463V240.543C152.084 240.783 152.697 241.223 153.137 241.863C153.577 242.49 153.797 243.297 153.797 244.283C153.797 245.07 153.617 245.77 153.257 246.383C152.897 246.997 152.364 247.483 151.657 247.843C150.951 248.19 150.104 248.363 149.117 248.363C147.677 248.363 146.491 247.997 145.557 247.263C144.637 246.517 144.144 245.45 144.077 244.063H146.277C146.331 244.77 146.604 245.35 147.097 245.803C147.591 246.243 148.257 246.463 149.097 246.463C149.911 246.463 150.537 246.243 150.977 245.803C151.417 245.35 151.637 244.77 151.637 244.063C151.637 243.13 151.337 242.47 150.737 242.083C150.151 241.683 149.244 241.483 148.017 241.483H147.497V239.603H148.037C149.117 239.59 149.937 239.41 150.497 239.063C151.071 238.717 151.357 238.17 151.357 237.423C151.357 236.783 151.151 236.277 150.737 235.903C150.324 235.517 149.737 235.323 148.977 235.323C148.231 235.323 147.651 235.517 147.237 235.903C146.824 236.277 146.577 236.743 146.497 237.303H144.277ZM159.032 244.323C159.166 244.99 159.452 245.497 159.892 245.843C160.332 246.19 160.926 246.363 161.672 246.363C162.619 246.363 163.312 245.99 163.752 245.243C164.192 244.497 164.412 243.223 164.412 241.423C164.092 241.877 163.639 242.23 163.052 242.483C162.479 242.723 161.852 242.843 161.172 242.843C160.306 242.843 159.519 242.67 158.812 242.323C158.106 241.963 157.546 241.437 157.132 240.743C156.732 240.037 156.532 239.183 156.532 238.183C156.532 236.717 156.959 235.55 157.812 234.683C158.679 233.803 159.866 233.363 161.372 233.363C163.186 233.363 164.472 233.97 165.232 235.183C166.006 236.383 166.392 238.23 166.392 240.723C166.392 242.443 166.246 243.85 165.952 244.943C165.672 246.037 165.179 246.863 164.472 247.423C163.766 247.983 162.786 248.263 161.532 248.263C160.106 248.263 159.006 247.89 158.232 247.143C157.459 246.397 157.026 245.457 156.932 244.323H159.032ZM161.572 240.923C162.372 240.923 162.999 240.677 163.452 240.183C163.919 239.677 164.152 239.01 164.152 238.183C164.152 237.263 163.906 236.55 163.412 236.043C162.932 235.523 162.272 235.263 161.432 235.263C160.592 235.263 159.926 235.53 159.432 236.063C158.952 236.583 158.712 237.27 158.712 238.123C158.712 238.937 158.946 239.61 159.412 240.143C159.892 240.663 160.612 240.923 161.572 240.923ZM170.148 245.183C171.428 244.077 172.434 243.17 173.168 242.463C173.914 241.743 174.534 240.997 175.028 240.223C175.521 239.45 175.768 238.677 175.768 237.903C175.768 237.103 175.574 236.477 175.188 236.023C174.814 235.57 174.221 235.343 173.408 235.343C172.621 235.343 172.008 235.597 171.568 236.103C171.141 236.597 170.914 237.263 170.888 238.103H168.688C168.728 236.583 169.181 235.423 170.048 234.623C170.928 233.81 172.041 233.403 173.388 233.403C174.841 233.403 175.974 233.803 176.788 234.603C177.614 235.403 178.028 236.47 178.028 237.803C178.028 238.763 177.781 239.69 177.288 240.583C176.808 241.463 176.228 242.257 175.548 242.963C174.881 243.657 174.028 244.463 172.988 245.383L172.088 246.183H178.428V248.083H168.708V246.423L170.148 245.183ZM183.23 245.543L180.81 251.063H179.33L180.75 245.543H183.23ZM184.643 245.243V243.523L191.363 233.883H194.123V243.263H195.983V245.243H194.123V248.283H191.883V245.243H184.643ZM191.983 236.203L187.263 243.263H191.983V236.203ZM207.272 235.663H200.572V239.643C200.852 239.27 201.265 238.957 201.812 238.703C202.372 238.45 202.965 238.323 203.592 238.323C204.712 238.323 205.619 238.563 206.312 239.043C207.019 239.523 207.519 240.13 207.812 240.863C208.119 241.597 208.272 242.37 208.272 243.183C208.272 244.17 208.079 245.05 207.692 245.823C207.319 246.583 206.752 247.183 205.992 247.623C205.245 248.063 204.325 248.283 203.232 248.283C201.779 248.283 200.612 247.923 199.732 247.203C198.852 246.483 198.325 245.53 198.152 244.343H200.372C200.519 244.97 200.845 245.47 201.352 245.843C201.859 246.203 202.492 246.383 203.252 246.383C204.199 246.383 204.905 246.097 205.372 245.523C205.852 244.95 206.092 244.19 206.092 243.243C206.092 242.283 205.852 241.55 205.372 241.043C204.892 240.523 204.185 240.263 203.252 240.263C202.599 240.263 202.045 240.43 201.592 240.763C201.152 241.083 200.832 241.523 200.632 242.083H198.472V233.663H207.272V235.663ZM210.645 240.803C210.645 238.497 211.032 236.697 211.805 235.403C212.592 234.097 213.939 233.443 215.845 233.443C217.752 233.443 219.092 234.097 219.865 235.403C220.652 236.697 221.045 238.497 221.045 240.803C221.045 243.137 220.652 244.963 219.865 246.283C219.092 247.59 217.752 248.243 215.845 248.243C213.939 248.243 212.592 247.59 211.805 246.283C211.032 244.963 210.645 243.137 210.645 240.803ZM218.805 240.803C218.805 239.723 218.732 238.81 218.585 238.063C218.452 237.317 218.172 236.71 217.745 236.243C217.319 235.763 216.685 235.523 215.845 235.523C215.005 235.523 214.372 235.763 213.945 236.243C213.519 236.71 213.232 237.317 213.085 238.063C212.952 238.81 212.885 239.723 212.885 240.803C212.885 241.923 212.952 242.863 213.085 243.623C213.219 244.383 213.499 244.997 213.925 245.463C214.365 245.93 215.005 246.163 215.845 246.163C216.685 246.163 217.319 245.93 217.745 245.463C218.185 244.997 218.472 244.383 218.605 243.623C218.739 242.863 218.805 241.923 218.805 240.803Z" fill="#0E58D7"/>
<path d="M107.169 212.958H103.521L102.849 214.818H101.697L104.721 206.502H105.981L108.993 214.818H107.841L107.169 212.958ZM106.857 212.07L105.345 207.846L103.833 212.07H106.857ZM111.403 209.454C111.619 209.078 111.939 208.766 112.363 208.518C112.795 208.262 113.295 208.134 113.863 208.134C114.447 208.134 114.975 208.274 115.447 208.554C115.927 208.834 116.303 209.23 116.575 209.742C116.847 210.246 116.983 210.834 116.983 211.506C116.983 212.17 116.847 212.762 116.575 213.282C116.303 213.802 115.927 214.206 115.447 214.494C114.975 214.782 114.447 214.926 113.863 214.926C113.303 214.926 112.807 214.802 112.375 214.554C111.951 214.298 111.627 213.982 111.403 213.606V217.938H110.311V208.242H111.403V209.454ZM115.867 211.506C115.867 211.01 115.767 210.578 115.567 210.21C115.367 209.842 115.095 209.562 114.751 209.37C114.415 209.178 114.043 209.082 113.635 209.082C113.235 209.082 112.863 209.182 112.519 209.382C112.183 209.574 111.911 209.858 111.703 210.234C111.503 210.602 111.403 211.03 111.403 211.518C111.403 212.014 111.503 212.45 111.703 212.826C111.911 213.194 112.183 213.478 112.519 213.678C112.863 213.87 113.235 213.966 113.635 213.966C114.043 213.966 114.415 213.87 114.751 213.678C115.095 213.478 115.367 213.194 115.567 212.826C115.767 212.45 115.867 212.01 115.867 211.506ZM119.512 209.454C119.728 209.078 120.048 208.766 120.472 208.518C120.904 208.262 121.404 208.134 121.972 208.134C122.556 208.134 123.084 208.274 123.556 208.554C124.036 208.834 124.412 209.23 124.684 209.742C124.956 210.246 125.092 210.834 125.092 211.506C125.092 212.17 124.956 212.762 124.684 213.282C124.412 213.802 124.036 214.206 123.556 214.494C123.084 214.782 122.556 214.926 121.972 214.926C121.412 214.926 120.916 214.802 120.484 214.554C120.06 214.298 119.736 213.982 119.512 213.606V217.938H118.42V208.242H119.512V209.454ZM123.976 211.506C123.976 211.01 123.876 210.578 123.676 210.21C123.476 209.842 123.204 209.562 122.86 209.37C122.524 209.178 122.152 209.082 121.744 209.082C121.344 209.082 120.972 209.182 120.628 209.382C120.292 209.574 120.02 209.858 119.812 210.234C119.612 210.602 119.512 211.03 119.512 211.518C119.512 212.014 119.612 212.45 119.812 212.826C120.02 213.194 120.292 213.478 120.628 213.678C120.972 213.87 121.344 213.966 121.744 213.966C122.152 213.966 122.524 213.87 122.86 213.678C123.204 213.478 123.476 213.194 123.676 212.826C123.876 212.45 123.976 212.01 123.976 211.506ZM127.621 205.938V214.818H126.529V205.938H127.621ZM130.047 207.174C129.839 207.174 129.663 207.102 129.519 206.958C129.375 206.814 129.303 206.638 129.303 206.43C129.303 206.222 129.375 206.046 129.519 205.902C129.663 205.758 129.839 205.686 130.047 205.686C130.247 205.686 130.415 205.758 130.551 205.902C130.695 206.046 130.767 206.222 130.767 206.43C130.767 206.638 130.695 206.814 130.551 206.958C130.415 207.102 130.247 207.174 130.047 207.174ZM130.575 208.242V214.818H129.483V208.242H130.575ZM138.436 211.278C138.436 211.486 138.424 211.706 138.4 211.938H133.144C133.184 212.586 133.404 213.094 133.804 213.462C134.212 213.822 134.704 214.002 135.28 214.002C135.752 214.002 136.144 213.894 136.456 213.678C136.776 213.454 137 213.158 137.128 212.79H138.304C138.128 213.422 137.776 213.938 137.248 214.338C136.72 214.73 136.064 214.926 135.28 214.926C134.656 214.926 134.096 214.786 133.6 214.506C133.112 214.226 132.728 213.83 132.448 213.318C132.168 212.798 132.028 212.198 132.028 211.518C132.028 210.838 132.164 210.242 132.436 209.73C132.708 209.218 133.088 208.826 133.576 208.554C134.072 208.274 134.64 208.134 135.28 208.134C135.904 208.134 136.456 208.27 136.936 208.542C137.416 208.814 137.784 209.19 138.04 209.67C138.304 210.142 138.436 210.678 138.436 211.278ZM137.308 211.05C137.308 210.634 137.216 210.278 137.032 209.982C136.848 209.678 136.596 209.45 136.276 209.298C135.964 209.138 135.616 209.058 135.232 209.058C134.68 209.058 134.208 209.234 133.816 209.586C133.432 209.938 133.212 210.426 133.156 211.05H137.308ZM139.469 211.506C139.469 210.834 139.605 210.246 139.877 209.742C140.149 209.23 140.521 208.834 140.993 208.554C141.473 208.274 142.009 208.134 142.601 208.134C143.113 208.134 143.589 208.254 144.029 208.494C144.469 208.726 144.805 209.034 145.037 209.418V205.938H146.141V214.818H145.037V213.582C144.821 213.974 144.501 214.298 144.077 214.554C143.653 214.802 143.157 214.926 142.589 214.926C142.005 214.926 141.473 214.782 140.993 214.494C140.521 214.206 140.149 213.802 139.877 213.282C139.605 212.762 139.469 212.17 139.469 211.506ZM145.037 211.518C145.037 211.022 144.937 210.59 144.737 210.222C144.537 209.854 144.265 209.574 143.921 209.382C143.585 209.182 143.213 209.082 142.805 209.082C142.397 209.082 142.025 209.178 141.689 209.37C141.353 209.562 141.085 209.842 140.885 210.21C140.685 210.578 140.585 211.01 140.585 211.506C140.585 212.01 140.685 212.45 140.885 212.826C141.085 213.194 141.353 213.478 141.689 213.678C142.025 213.87 142.397 213.966 142.805 213.966C143.213 213.966 143.585 213.87 143.921 213.678C144.265 213.478 144.537 213.194 144.737 212.826C144.937 212.45 145.037 212.014 145.037 211.518ZM152.278 213.93H155.206V214.818H151.186V206.454H152.278V213.93ZM159.233 214.926C158.617 214.926 158.057 214.786 157.553 214.506C157.057 214.226 156.665 213.83 156.377 213.318C156.097 212.798 155.957 212.198 155.957 211.518C155.957 210.846 156.101 210.254 156.389 209.742C156.685 209.222 157.085 208.826 157.589 208.554C158.093 208.274 158.657 208.134 159.281 208.134C159.905 208.134 160.469 208.274 160.973 208.554C161.477 208.826 161.873 209.218 162.161 209.73C162.457 210.242 162.605 210.838 162.605 211.518C162.605 212.198 162.453 212.798 162.149 213.318C161.853 213.83 161.449 214.226 160.937 214.506C160.425 214.786 159.857 214.926 159.233 214.926ZM159.233 213.966C159.625 213.966 159.993 213.874 160.337 213.69C160.681 213.506 160.957 213.23 161.165 212.862C161.381 212.494 161.489 212.046 161.489 211.518C161.489 210.99 161.385 210.542 161.177 210.174C160.969 209.806 160.697 209.534 160.361 209.358C160.025 209.174 159.661 209.082 159.269 209.082C158.869 209.082 158.501 209.174 158.165 209.358C157.837 209.534 157.573 209.806 157.373 210.174C157.173 210.542 157.073 210.99 157.073 211.518C157.073 212.054 157.169 212.506 157.361 212.874C157.561 213.242 157.825 213.518 158.153 213.702C158.481 213.878 158.841 213.966 159.233 213.966ZM163.633 211.506C163.633 210.834 163.769 210.246 164.041 209.742C164.313 209.23 164.685 208.834 165.157 208.554C165.637 208.274 166.169 208.134 166.753 208.134C167.329 208.134 167.829 208.258 168.253 208.506C168.677 208.754 168.993 209.066 169.201 209.442V208.242H170.305V214.818H169.201V213.594C168.985 213.978 168.661 214.298 168.229 214.554C167.805 214.802 167.309 214.926 166.741 214.926C166.157 214.926 165.629 214.782 165.157 214.494C164.685 214.206 164.313 213.802 164.041 213.282C163.769 212.762 163.633 212.17 163.633 211.506ZM169.201 211.518C169.201 211.022 169.101 210.59 168.901 210.222C168.701 209.854 168.429 209.574 168.085 209.382C167.749 209.182 167.377 209.082 166.969 209.082C166.561 209.082 166.189 209.178 165.853 209.37C165.517 209.562 165.249 209.842 165.049 210.21C164.849 210.578 164.749 211.01 164.749 211.506C164.749 212.01 164.849 212.45 165.049 212.826C165.249 213.194 165.517 213.478 165.853 213.678C166.189 213.87 166.561 213.966 166.969 213.966C167.377 213.966 167.749 213.87 168.085 213.678C168.429 213.478 168.701 213.194 168.901 212.826C169.101 212.45 169.201 212.014 169.201 211.518ZM175.355 208.122C176.155 208.122 176.803 208.366 177.299 208.854C177.795 209.334 178.043 210.03 178.043 210.942V214.818H176.963V211.098C176.963 210.442 176.799 209.942 176.471 209.598C176.143 209.246 175.695 209.07 175.127 209.07C174.551 209.07 174.091 209.25 173.747 209.61C173.411 209.97 173.243 210.494 173.243 211.182V214.818H172.151V208.242H173.243V209.178C173.459 208.842 173.751 208.582 174.119 208.398C174.495 208.214 174.907 208.122 175.355 208.122ZM182.154 214.926C181.65 214.926 181.198 214.842 180.798 214.674C180.398 214.498 180.082 214.258 179.85 213.954C179.618 213.642 179.49 213.286 179.466 212.886H180.594C180.626 213.214 180.778 213.482 181.05 213.69C181.33 213.898 181.694 214.002 182.142 214.002C182.558 214.002 182.886 213.91 183.126 213.726C183.366 213.542 183.486 213.31 183.486 213.03C183.486 212.742 183.358 212.53 183.102 212.394C182.846 212.25 182.45 212.11 181.914 211.974C181.426 211.846 181.026 211.718 180.714 211.59C180.41 211.454 180.146 211.258 179.922 211.002C179.706 210.738 179.598 210.394 179.598 209.97C179.598 209.634 179.698 209.326 179.898 209.046C180.098 208.766 180.382 208.546 180.75 208.386C181.118 208.218 181.538 208.134 182.01 208.134C182.738 208.134 183.326 208.318 183.774 208.686C184.222 209.054 184.462 209.558 184.494 210.198H183.402C183.378 209.854 183.238 209.578 182.982 209.37C182.734 209.162 182.398 209.058 181.974 209.058C181.582 209.058 181.27 209.142 181.038 209.31C180.806 209.478 180.69 209.698 180.69 209.97C180.69 210.186 180.758 210.366 180.894 210.51C181.038 210.646 181.214 210.758 181.422 210.846C181.638 210.926 181.934 211.018 182.31 211.122C182.782 211.25 183.166 211.378 183.462 211.506C183.758 211.626 184.01 211.81 184.218 212.058C184.434 212.306 184.546 212.63 184.554 213.03C184.554 213.39 184.454 213.714 184.254 214.002C184.054 214.29 183.77 214.518 183.402 214.686C183.042 214.846 182.626 214.926 182.154 214.926Z" fill="black"/>
<defs>
<filter id="filter0_d_257_671" x="0" y="0" width="428.732" height="379" filterUnits="userSpaceOnUse" color-interpolation-filters="sRGB">
<feFlood flood-opacity="0" result="BackgroundImageFix"/>
<feColorMatrix in="SourceAlpha" type="matrix" values="0 0 0 0 0 0 0 0 0 0 0 0 0 0 0 0 0 0 127 0" result="hardAlpha"/>
<feOffset dy="12"/>
<feGaussianBlur stdDeviation="37.5"/>
<feComposite in2="hardAlpha" operator="out"/>
<feColorMatrix type="matrix" values="0 0 0 0 0.00784314 0 0 0 0 0.654902 0 0 0 0 0.913725 0 0 0 0.24 0"/>
<feBlend mode="normal" in2="BackgroundImageFix" result="effect1_dropShadow_257_671"/>
<feBlend mode="normal" in="SourceGraphic" in2="effect1_dropShadow_257_671" result="shape"/>
</filter>
<linearGradient id="paint0_linear_257_671" x1="251.538" y1="78.0354" x2="251.538" y2="169.404" gradientUnits="userSpaceOnUse">
<stop stop-color="#337FFF"/>
<stop offset="1" stop-color="#146BFF" stop-opacity="0"/>
</linearGradient>
<linearGradient id="paint1_linear_257_671" x1="251.414" y1="78.0354" x2="251.414" y2="169.404" gradientUnits="userSpaceOnUse">
<stop stop-color="#619BFF"/>
<stop offset="1" stop-color="#146BFF" stop-opacity="0"/>
</linearGradient>
</defs>
</svg>
