<svg width="919" height="638" viewBox="0 0 919 638" fill="none" xmlns="http://www.w3.org/2000/svg">
<g opacity="0.24">
<mask id="mask0_529_4775" style="mask-type:alpha" maskUnits="userSpaceOnUse" x="-155" y="-220" width="1074" height="867">
<rect width="1073.18" height="866" transform="matrix(-1 0 0 1 918.616 -219)" fill="#F1F1F1"/>
</mask>
<g mask="url(#mask0_529_4775)">
<path d="M29.4776 131.86C59.0772 155.519 88.6768 179.078 118.277 202.738C122.606 206.161 126.935 209.685 131.264 213.108C107.403 219.451 83.5423 225.693 59.6813 232.036C73.1723 190.959 86.6633 149.881 100.154 108.804C102.067 102.864 104.081 97.0249 105.994 91.0848C112.941 69.8415 135.895 53.8335 158.649 61.1831C179.892 68.0293 196.102 91.0848 188.551 113.838C175.06 154.915 161.569 195.993 148.078 237.07C146.165 243.01 144.151 248.849 142.238 254.789C137.506 269.186 127.237 280.563 112.336 284.691C96.3285 289.121 82.9381 283.483 70.6553 273.717C41.0556 250.057 11.4559 226.498 -18.1437 202.839C-22.4729 199.416 -26.8021 195.892 -31.1313 192.469C-39.1856 186.025 -43.7162 171.93 -43.7162 162.164C-43.7162 151.694 -39.085 139.109 -31.1313 131.86C-22.9763 124.41 -12.2037 118.772 -0.826913 119.275C11.2546 119.879 20.1144 124.41 29.4776 131.86Z" fill="#02A7E9"/>
<path d="M584.221 180.89C552.406 211.094 520.491 241.297 488.676 271.501C482.334 247.64 476.092 223.779 469.749 199.918C519.786 214.215 569.824 228.511 619.861 242.808C627.01 244.821 634.158 246.935 641.306 248.949C662.851 255.09 678.356 279.455 671.208 301.604C664.16 323.552 641.608 338.151 618.553 331.506C568.515 317.21 518.477 302.913 468.44 288.617C461.292 286.603 454.144 284.489 446.995 282.475C416.691 273.817 404.307 233.444 428.068 210.892C459.882 180.689 491.798 150.485 523.612 120.281C539.922 104.877 568.213 102.964 584.221 120.281C599.524 136.994 601.538 164.379 584.221 180.89Z" fill="#02A7E9"/>
<path d="M318.728 48.799C319.332 92.5945 320.037 136.39 320.641 180.185C299.196 167.902 277.651 155.519 256.206 143.236C302.619 119.677 348.931 96.1182 395.345 72.5593C401.989 69.1362 408.634 65.8138 415.279 62.3907C435.213 52.2221 462.699 56.4506 473.874 77.7946C484.144 97.3264 479.814 125.517 458.47 136.39C412.158 159.848 365.846 183.407 319.432 207.067C312.788 210.49 306.143 213.812 299.498 217.235C270.704 231.834 235.567 214.014 235.063 180.286C234.459 136.491 233.755 92.6951 233.15 48.8997C232.848 26.4482 253.085 5.00359 275.939 6.11106C299.397 7.01717 318.426 24.7367 318.728 48.799Z" fill="#146BFF"/>
<path d="M-109.864 370.872C-70.9007 371.073 -32.0385 371.375 6.92428 371.577C12.5623 371.577 18.2003 371.677 23.8384 371.677C11.5555 393.122 -0.828036 414.667 -13.1109 436.112C-36.8712 395.438 -60.7321 354.763 -84.4924 314.19C-87.9155 308.35 -91.3386 302.511 -94.7617 296.772C-106.138 277.442 -99.7956 248.95 -79.3578 238.177C-58.8192 227.304 -32.844 232.841 -20.7625 253.581C2.9978 294.255 26.8588 334.93 50.619 375.503C54.0421 381.343 57.4652 387.182 60.8883 392.921C77.1983 420.809 56.4584 457.557 23.9391 457.355C-15.0237 457.154 -53.8859 456.852 -92.8487 456.651C-98.4868 456.651 -104.125 456.55 -109.763 456.55C-132.214 456.449 -153.659 436.918 -152.552 413.761C-151.645 390.605 -133.926 370.771 -109.864 370.872Z" fill="#146BFF"/>
<path d="M675.433 452.321C636.47 452.825 597.608 453.227 558.645 453.731C553.007 453.831 547.369 453.832 541.731 453.932C554.014 432.488 566.397 410.942 578.68 389.498C603.246 429.669 627.711 469.94 652.277 510.111C655.8 515.85 659.324 521.589 662.848 527.428C674.527 546.557 667.68 575.351 647.444 586.023C626.603 596.997 601.333 591.057 588.849 570.619C564.283 530.448 539.818 490.177 515.252 450.006C511.728 444.267 508.205 438.528 504.681 432.689C487.465 404.499 509.816 368.556 541.63 368.254C580.593 367.751 619.455 367.348 658.418 366.845C664.056 366.744 669.694 366.744 675.332 366.643C697.784 366.341 719.228 386.578 718.121 409.432C717.315 432.89 699.495 452.019 675.433 452.321Z" fill="#146BFF"/>
<path d="M531.463 688.816C504.079 661.029 476.694 633.342 449.309 605.554C445.383 601.628 441.456 597.601 437.63 593.674C461.491 587.331 485.352 581.089 509.213 574.747C497.333 620.354 485.352 665.962 473.472 711.469C471.761 718.013 470.049 724.456 468.338 731.001C462.699 752.647 437.429 767.95 415.682 760.902C393.332 753.653 379.639 731.403 385.781 708.247C397.661 662.639 409.642 617.032 421.522 571.525C423.233 564.981 424.945 558.537 426.656 551.993C434.811 520.883 475.788 510.312 498.239 533.065C525.624 560.853 553.009 588.54 580.393 616.327C584.32 620.254 588.246 624.281 592.072 628.207C607.879 644.215 609.188 673.11 592.072 688.816C574.957 704.421 548.277 705.831 531.463 688.816Z" fill="#02A7E9"/>
<path d="M247.042 769.561C246.841 730.699 246.74 691.736 246.539 652.874C246.539 647.236 246.539 641.598 246.438 635.859C267.883 648.142 289.428 660.526 310.873 672.808C265.668 695.864 220.463 718.819 175.359 741.874C168.915 745.096 162.572 748.419 156.129 751.64C136.194 761.809 108.709 757.48 97.5336 736.236C87.1636 716.705 91.5935 688.514 112.937 677.641C158.142 654.586 203.347 631.631 248.452 608.575C254.895 605.353 261.238 602.031 267.681 598.809C281.575 591.762 297.08 590.755 310.873 598.809C323.961 606.461 332.015 620.657 332.116 635.759C332.317 674.621 332.418 713.584 332.619 752.446C332.619 758.084 332.619 763.722 332.72 769.46C332.821 791.912 312.987 813.357 289.931 812.249C266.574 811.343 247.143 793.623 247.042 769.561Z" fill="#146BFF"/>
<path d="M-27.6055 639.786C7.12882 608.475 41.8631 577.164 76.5974 545.852C82.9402 569.713 89.1823 593.574 95.5251 617.435C44.5814 603.038 -6.26154 588.641 -57.2052 574.244C-64.4541 572.23 -71.8037 570.116 -79.0526 568.102C-100.598 561.961 -116.102 537.496 -108.954 515.447C-101.806 493.499 -79.3546 479.001 -56.2991 485.546C-5.3554 499.943 45.4876 514.34 96.4312 528.737C103.68 530.75 111.03 532.865 118.279 534.878C147.979 543.335 161.571 584.413 137.206 606.461C102.472 637.772 67.7377 669.084 33.0034 700.395C16.3913 715.396 -11.3961 718.014 -27.6055 700.395C-42.6067 683.984 -45.325 655.794 -27.6055 639.786Z" fill="#02A7E9"/>
</g>
</g>
</svg>
