<svg width="60" height="60" viewBox="0 0 60 60" fill="none" xmlns="http://www.w3.org/2000/svg">
<g clip-path="url(#clip0_529_4453)">
<path d="M56.4309 37.7354C56.8416 39.1901 57.0612 40.7249 57.0612 42.3112C57.0612 51.5951 49.535 59.1211 40.2512 59.1211C35.2294 59.1211 30.7218 56.9191 27.6416 53.4277" stroke="#02A7E9" stroke-width="2" stroke-miterlimit="10" stroke-linecap="round" stroke-linejoin="round"/>
<path d="M33.3514 13.9409C32.6556 13.5992 31.7914 13.716 31.2127 14.2948L29.2236 16.2838C28.684 16.8235 27.8668 16.9864 27.169 16.6772C26.9522 16.5811 26.7327 16.4903 26.5104 16.4049C25.7979 16.1309 25.3355 15.4369 25.3355 14.6737V11.8606C25.3355 10.8313 24.5011 9.99683 23.4718 9.99683H19.2263C18.197 9.99683 17.3626 10.8312 17.3626 11.8606V14.6737C17.3626 15.437 16.9001 16.1309 16.1877 16.4049C15.9655 16.4903 15.7459 16.5811 15.5291 16.6772C14.8313 16.9865 14.0141 16.8236 13.4745 16.2838L11.4855 14.2947C10.7577 13.5669 9.57773 13.5669 8.84988 14.2947L5.84789 17.2968C5.12004 18.0245 5.12004 19.2046 5.84789 19.9325L7.83691 21.9215C8.37656 22.4611 8.53945 23.2783 8.23031 23.9761C8.13422 24.1929 8.0434 24.4124 7.95797 24.6347C7.68398 25.3472 6.99 25.8096 6.22676 25.8096H3.41344C2.38418 25.8096 1.5498 26.644 1.5498 27.6733V31.9189C1.5498 32.9481 2.38418 33.7825 3.41344 33.7825H6.22652C6.98988 33.7825 7.68375 34.245 7.95773 34.9574C8.04316 35.1797 8.13398 35.3993 8.23008 35.616C8.53934 36.3139 8.37645 37.1309 7.83668 37.6707L5.84766 39.6597C5.1198 40.3875 5.1198 41.5675 5.84766 42.2953L8.84965 45.2974C9.5775 46.0252 10.7575 46.0252 11.4853 45.2974L13.4743 43.3084C14.014 42.7688 14.8311 42.6059 15.529 42.915C15.7458 43.0111 15.9653 43.1019 16.1876 43.1874C16.9001 43.4614 17.3625 44.1553 17.3625 44.9186V47.7317C17.3625 48.7609 18.1969 49.5954 19.2261 49.5954H23.4717C24.501 49.5954 25.3354 48.761 25.3354 47.7317V44.9186C25.3354 44.1552 25.7979 43.4614 26.5103 43.1874C26.7325 43.1019 26.9521 43.0111 27.1689 42.915C27.8045 42.6333 28.5384 42.7445 29.0722 43.1742" stroke="#02A7E9" stroke-width="2" stroke-miterlimit="10" stroke-linecap="round" stroke-linejoin="round"/>
<path d="M13.2529 31.8469C14.1671 35.467 17.4447 38.1466 21.3488 38.1466C25.9606 38.1466 29.6994 34.408 29.6994 29.7961C29.6994 25.1842 25.9607 21.4456 21.3489 21.4456C17.4448 21.4456 14.1672 24.1252 13.253 27.7453" stroke="#02A7E9" stroke-width="2" stroke-miterlimit="10" stroke-linecap="round" stroke-linejoin="round"/>
<path d="M21.349 33.8707C23.5994 33.8707 25.4236 32.0464 25.4236 29.796C25.4236 27.5457 23.5994 25.7214 21.349 25.7214C19.0987 25.7214 17.2744 27.5457 17.2744 29.796C17.2744 32.0464 19.0987 33.8707 21.349 33.8707Z" stroke="#02A7E9" stroke-width="2" stroke-miterlimit="10" stroke-linecap="round" stroke-linejoin="round"/>
<path d="M48.4663 11.361H40.4613C40.0289 11.361 39.6785 11.0105 39.6785 10.5782V6.00276C39.6785 3.1517 37.3512 0.848966 34.5002 0.879201C33.8639 0.885997 33.3516 1.40373 33.3516 2.04018V5.03912" stroke="#02A7E9" stroke-width="2" stroke-miterlimit="10" stroke-linecap="round" stroke-linejoin="round"/>
<path d="M47.5234 33.7791H49.5513" stroke="#02A7E9" stroke-width="2" stroke-miterlimit="10" stroke-linecap="round" stroke-linejoin="round"/>
<path d="M33.3516 9.14062V27.4691C33.3516 29.3392 34.1658 31.0184 35.4581 32.1738" stroke="#02A7E9" stroke-width="2" stroke-miterlimit="10" stroke-linecap="round" stroke-linejoin="round"/>
<path d="M34.2218 51.7643C35.9629 52.8772 38.0317 53.5223 40.2512 53.5223C46.443 53.5223 51.4625 48.5029 51.4625 42.3111C51.4625 36.1192 46.4431 31.0999 40.2512 31.0999C34.0594 31.0999 29.04 36.1192 29.04 42.3111C29.04 44.8006 29.852 47.1003 31.2249 48.9608" stroke="#02A7E9" stroke-width="2" stroke-miterlimit="10" stroke-linecap="round" stroke-linejoin="round"/>
<path d="M34.709 41.7698L38.9493 46.6178L45.7928 38.8723" stroke="#02A7E9" stroke-width="2" stroke-miterlimit="10" stroke-linecap="round" stroke-linejoin="round"/>
<path d="M56.3714 30.9769C56.3714 29.4292 55.1168 28.1746 53.5691 28.1746H49.5504C48.0027 28.1746 46.748 29.4292 46.748 30.9769C46.748 32.5246 48.0027 33.7792 49.5504 33.7792H53.5691C55.1168 33.7791 56.3714 32.5244 56.3714 30.9769Z" stroke="#02A7E9" stroke-width="2" stroke-miterlimit="10" stroke-linecap="round" stroke-linejoin="round"/>
<path d="M55.6475 22.5701H48.4664C46.9187 22.5701 45.6641 23.8247 45.6641 25.3724C45.6641 26.9201 46.9187 28.1747 48.4664 28.1747H55.6475C57.1952 28.1747 58.4498 26.9201 58.4498 25.3724C58.4498 23.8247 57.1952 22.5701 55.6475 22.5701Z" stroke="#02A7E9" stroke-width="2" stroke-miterlimit="10" stroke-linecap="round" stroke-linejoin="round"/>
<path d="M55.6475 11.3611H48.4664C46.9187 11.3611 45.6641 12.6157 45.6641 14.1634C45.6641 15.7111 46.9187 16.9657 48.4664 16.9657H55.6475C57.1952 16.9657 58.4498 15.7111 58.4498 14.1634C58.4498 12.6157 57.1952 11.3611 55.6475 11.3611Z" stroke="#02A7E9" stroke-width="2" stroke-miterlimit="10" stroke-linecap="round" stroke-linejoin="round"/>
<path d="M55.6475 16.9656H48.4664C46.9187 16.9656 45.6641 18.2202 45.6641 19.7679C45.6641 21.3156 46.9187 22.5702 48.4664 22.5702H55.6475C57.1952 22.5702 58.4498 21.3156 58.4498 19.7679C58.4498 18.2202 57.1952 16.9656 55.6475 16.9656Z" stroke="#02A7E9" stroke-width="2" stroke-miterlimit="10" stroke-linecap="round" stroke-linejoin="round"/>
</g>
<defs>
<clipPath id="clip0_529_4453">
<rect width="60" height="60" fill="white"/>
</clipPath>
</defs>
</svg>
