<svg width="60" height="60" viewBox="0 0 60 60" fill="none" xmlns="http://www.w3.org/2000/svg">
<g clip-path="url(#clip0_529_4478)">
<path d="M9.55254 2.96613C9.54926 3.01605 9.54492 3.06574 9.54492 3.11637C9.54492 4.35199 10.5466 5.35383 11.7823 5.35383C13.0179 5.35383 14.0196 4.35211 14.0196 3.11637C14.0196 1.88062 13.0179 0.878906 11.7823 0.878906C11.7785 0.878906 11.775 0.879492 11.7712 0.879492" stroke="#02A7E9" stroke-width="2" stroke-miterlimit="10" stroke-linecap="round" stroke-linejoin="round"/>
<path d="M20.9239 11.671C22.1595 11.671 23.1612 10.6693 23.1612 9.43363C23.1612 8.19798 22.1595 7.19629 20.9239 7.19629C19.6882 7.19629 18.6865 8.19798 18.6865 9.43363C18.6865 10.6693 19.6882 11.671 20.9239 11.671Z" stroke="#02A7E9" stroke-width="2" stroke-miterlimit="10" stroke-linecap="round" stroke-linejoin="round"/>
<path d="M3.11625 23.0352C4.3519 23.0352 5.35359 22.0335 5.35359 20.7979C5.35359 19.5622 4.3519 18.5605 3.11625 18.5605C1.8806 18.5605 0.878906 19.5622 0.878906 20.7979C0.878906 22.0335 1.8806 23.0352 3.11625 23.0352Z" stroke="#02A7E9" stroke-width="2" stroke-miterlimit="10" stroke-linecap="round" stroke-linejoin="round"/>
<path d="M11.7832 5.35376V23.6163C11.7832 23.927 11.9067 24.2252 12.1264 24.4449L16.5056 28.8241C16.7254 29.0438 16.8489 29.3419 16.8489 29.6527V31.9532" stroke="#02A7E9" stroke-width="2" stroke-miterlimit="10" stroke-linecap="round" stroke-linejoin="round"/>
<path d="M20.9238 11.6711V19.007C20.9238 19.3177 21.0473 19.6159 21.2671 19.8356L26.6891 25.2576C26.9088 25.4774 27.0323 25.7755 27.0323 26.0863V35.2446" stroke="#02A7E9" stroke-width="2" stroke-miterlimit="10" stroke-linecap="round" stroke-linejoin="round"/>
<path d="M48.2168 5.35359C49.4525 5.35359 50.4542 4.3519 50.4542 3.11625C50.4542 1.8806 49.4525 0.878906 48.2168 0.878906C46.9812 0.878906 45.9795 1.8806 45.9795 3.11625C45.9795 4.3519 46.9812 5.35359 48.2168 5.35359Z" stroke="#02A7E9" stroke-width="2" stroke-miterlimit="10" stroke-linecap="round" stroke-linejoin="round"/>
<path d="M39.0762 11.671C40.3119 11.671 41.3136 10.6693 41.3136 9.43363C41.3136 8.19798 40.3119 7.19629 39.0762 7.19629C37.8406 7.19629 36.8389 8.19798 36.8389 9.43363C36.8389 10.6693 37.8406 11.671 39.0762 11.671Z" stroke="#02A7E9" stroke-width="2" stroke-miterlimit="10" stroke-linecap="round" stroke-linejoin="round"/>
<path d="M56.8838 23.035C58.1195 23.035 59.1212 22.0333 59.1212 20.7976C59.1212 19.562 58.1195 18.5603 56.8838 18.5603C55.6482 18.5603 54.6465 19.562 54.6465 20.7976C54.6465 22.0333 55.6482 23.035 56.8838 23.035Z" stroke="#02A7E9" stroke-width="2" stroke-miterlimit="10" stroke-linecap="round" stroke-linejoin="round"/>
<path d="M48.217 5.35376V23.6163C48.217 23.927 48.0935 24.2252 47.8738 24.4449L43.4946 28.8241C43.2749 29.0438 43.1514 29.3419 43.1514 29.6527V35.297" stroke="#02A7E9" stroke-width="2" stroke-miterlimit="10" stroke-linecap="round" stroke-linejoin="round"/>
<path d="M39.0763 11.6709V19.0067C39.0763 19.3175 38.9528 19.6156 38.733 19.8354L33.311 25.2574C33.0913 25.4771 32.9678 25.7752 32.9678 26.086V35.2443" stroke="#02A7E9" stroke-width="2" stroke-miterlimit="10" stroke-linecap="round" stroke-linejoin="round"/>
<path d="M42.4166 59.1212H44.7547C46.0491 59.1212 47.0984 58.0719 47.0984 56.7775V41.133C47.0984 39.8385 46.0491 38.7892 44.7547 38.7892H23.7107C23.0858 38.7892 22.4867 38.5396 22.0467 38.0959L19.9063 35.9379C19.4662 35.4942 18.8671 35.2446 18.2422 35.2446H15.2451C13.9507 35.2446 12.9014 36.2939 12.9014 37.5884V56.7775C12.9014 58.0719 13.9507 59.1212 15.2451 59.1212H38.9069" stroke="#02A7E9" stroke-width="2" stroke-miterlimit="10" stroke-linecap="round" stroke-linejoin="round"/>
<path d="M3.11621 23.0352V40.5831C3.11621 40.8938 3.23973 41.192 3.45945 41.4117L8.68566 46.6379" stroke="#02A7E9" stroke-width="2" stroke-miterlimit="10" stroke-linecap="round" stroke-linejoin="round"/>
<path d="M56.8448 23.0352V40.5831C56.8448 40.8938 56.7213 41.192 56.5016 41.4117L51.2754 46.6379" stroke="#02A7E9" stroke-width="2" stroke-miterlimit="10" stroke-linecap="round" stroke-linejoin="round"/>
<path d="M20.3057 55.2322H33.5862" stroke="#02A7E9" stroke-width="2" stroke-miterlimit="10" stroke-linecap="round" stroke-linejoin="round"/>
<path d="M37.457 55.2322H39.6945" stroke="#02A7E9" stroke-width="2" stroke-miterlimit="10" stroke-linecap="round" stroke-linejoin="round"/>
</g>
<defs>
<clipPath id="clip0_529_4478">
<rect width="60" height="60" fill="white"/>
</clipPath>
</defs>
</svg>
