<svg width="60" height="60" viewBox="0 0 60 60" fill="none" xmlns="http://www.w3.org/2000/svg">
<g clip-path="url(#clip0_529_4522)">
<path d="M57.1875 28.125C55.9669 28.125 54.9366 28.9106 54.5475 30H52.5V27.1875C52.5 26.67 52.08 26.25 51.5625 26.25H47.8125C47.295 26.25 46.875 26.67 46.875 27.1875V30H45V22.5H48.9234C49.3116 23.5894 50.3428 24.375 51.5625 24.375C53.1131 24.375 54.375 23.1131 54.375 21.5625C54.375 20.0119 53.1131 18.75 51.5625 18.75C50.3419 18.75 49.3116 19.5356 48.9225 20.625H45V19.6875C45 17.1028 42.8972 15 40.3125 15H39.375V11.0775C40.4644 10.6884 41.25 9.65812 41.25 8.4375C41.25 6.88688 39.9881 5.625 38.4375 5.625C36.8869 5.625 35.625 6.88688 35.625 8.4375C35.625 9.65812 36.4106 10.6884 37.5 11.0766V15H31.875V12.1875C31.875 11.67 31.455 11.25 30.9375 11.25H28.125V9.375H30.9375C31.455 9.375 31.875 8.955 31.875 8.4375V5.4525C32.9644 5.06344 33.75 4.03312 33.75 2.8125C33.75 1.26187 32.4881 0 30.9375 0C29.3869 0 28.125 1.26187 28.125 2.8125C28.125 4.03312 28.9106 5.06344 30 5.45156V7.5H27.1875C26.67 7.5 26.25 7.92 26.25 8.4375V12.1875C26.25 12.705 26.67 13.125 27.1875 13.125H30V15H22.5V11.0775C23.5894 10.6884 24.375 9.65812 24.375 8.4375C24.375 6.88688 23.1131 5.625 21.5625 5.625C20.0119 5.625 18.75 6.88688 18.75 8.4375C18.75 9.65812 19.5356 10.6884 20.625 11.0766V15H19.6875C17.1028 15 15 17.1028 15 19.6875V20.625H11.0775C10.6884 19.5356 9.65812 18.75 8.4375 18.75C6.88688 18.75 5.625 20.0119 5.625 21.5625C5.625 23.1131 6.88688 24.375 8.4375 24.375C9.65812 24.375 10.6884 23.5894 11.0775 22.5H15V28.125H12.1875C11.67 28.125 11.25 28.545 11.25 29.0625V31.875H9.375V29.0625C9.375 28.545 8.955 28.125 8.4375 28.125H5.4525C5.06344 27.0356 4.03312 26.25 2.8125 26.25C1.26187 26.25 0 27.5119 0 29.0625C0 30.6131 1.26187 31.875 2.8125 31.875C4.03312 31.875 5.06344 31.0894 5.4525 30H7.5V32.8125C7.5 33.33 7.92 33.75 8.4375 33.75H12.1875C12.705 33.75 13.125 33.33 13.125 32.8125V30H15V37.5H11.0775C10.6884 36.4106 9.65812 35.625 8.4375 35.625C6.88688 35.625 5.625 36.8869 5.625 38.4375C5.625 39.9881 6.88688 41.25 8.4375 41.25C9.65812 41.25 10.6884 40.4644 11.0775 39.375H15V40.3125C15 42.8972 17.1028 45 19.6875 45H20.625V48.9225C19.5356 49.3106 18.75 50.3419 18.75 51.5625C18.75 53.1131 20.0119 54.375 21.5625 54.375C23.1131 54.375 24.375 53.1131 24.375 51.5625C24.375 50.3419 23.5894 49.3116 22.5 48.9225V45H28.125V47.8125C28.125 48.33 28.545 48.75 29.0625 48.75H31.875V50.625H29.0625C28.545 50.625 28.125 51.045 28.125 51.5625V54.5475C27.0356 54.9356 26.25 55.9669 26.25 57.1875C26.25 58.7381 27.5119 60 29.0625 60C30.6131 60 31.875 58.7381 31.875 57.1875C31.875 55.9669 31.0894 54.9366 30 54.5475V52.5H32.8125C33.33 52.5 33.75 52.08 33.75 51.5625V47.8125C33.75 47.295 33.33 46.875 32.8125 46.875H30V45H37.5V48.9225C36.4106 49.3106 35.625 50.3419 35.625 51.5625C35.625 53.1131 36.8869 54.375 38.4375 54.375C39.9881 54.375 41.25 53.1131 41.25 51.5625C41.25 50.3419 40.4644 49.3116 39.375 48.9225V45H40.3125C42.8972 45 45 42.8972 45 40.3125V39.375H48.9234C49.3116 40.4644 50.3428 41.25 51.5625 41.25C53.1131 41.25 54.375 39.9881 54.375 38.4375C54.375 36.8869 53.1131 35.625 51.5625 35.625C50.3419 35.625 49.3116 36.4106 48.9225 37.5H45V31.875H47.8125C48.33 31.875 48.75 31.455 48.75 30.9375V28.125H50.625V30.9375C50.625 31.455 51.045 31.875 51.5625 31.875H54.5484C54.9366 32.9644 55.9678 33.75 57.1875 33.75C58.7381 33.75 60 32.4881 60 30.9375C60 29.3869 58.7381 28.125 57.1875 28.125ZM51.5625 20.625C52.0791 20.625 52.5 21.0459 52.5 21.5625C52.5 22.0791 52.0791 22.5 51.5625 22.5C51.0459 22.5 50.625 22.0791 50.625 21.5625C50.625 21.0459 51.0459 20.625 51.5625 20.625ZM38.4375 7.5C38.9541 7.5 39.375 7.92094 39.375 8.4375C39.375 8.95406 38.9541 9.375 38.4375 9.375C37.9209 9.375 37.5 8.95406 37.5 8.4375C37.5 7.92094 37.9209 7.5 38.4375 7.5ZM30.9375 1.875C31.4541 1.875 31.875 2.29594 31.875 2.8125C31.875 3.32906 31.4541 3.75 30.9375 3.75C30.4209 3.75 30 3.32906 30 2.8125C30 2.29594 30.4209 1.875 30.9375 1.875ZM21.5625 7.5C22.0791 7.5 22.5 7.92094 22.5 8.4375C22.5 8.95406 22.0791 9.375 21.5625 9.375C21.0459 9.375 20.625 8.95406 20.625 8.4375C20.625 7.92094 21.0459 7.5 21.5625 7.5ZM8.4375 22.5C7.92094 22.5 7.5 22.0791 7.5 21.5625C7.5 21.0459 7.92094 20.625 8.4375 20.625C8.95406 20.625 9.375 21.0459 9.375 21.5625C9.375 22.0791 8.95406 22.5 8.4375 22.5ZM2.8125 30C2.29594 30 1.875 29.5791 1.875 29.0625C1.875 28.5459 2.29594 28.125 2.8125 28.125C3.32906 28.125 3.75 28.5459 3.75 29.0625C3.75 29.5791 3.32906 30 2.8125 30ZM8.4375 39.375C7.92094 39.375 7.5 38.9541 7.5 38.4375C7.5 37.9209 7.92094 37.5 8.4375 37.5C8.95406 37.5 9.375 37.9209 9.375 38.4375C9.375 38.9541 8.95406 39.375 8.4375 39.375ZM21.5625 52.5C21.0459 52.5 20.625 52.0791 20.625 51.5625C20.625 51.0459 21.0459 50.625 21.5625 50.625C22.0791 50.625 22.5 51.0459 22.5 51.5625C22.5 52.0791 22.0791 52.5 21.5625 52.5ZM29.0625 58.125C28.5459 58.125 28.125 57.7041 28.125 57.1875C28.125 56.6709 28.5459 56.25 29.0625 56.25C29.5791 56.25 30 56.6709 30 57.1875C30 57.7041 29.5791 58.125 29.0625 58.125ZM38.4375 52.5C37.9209 52.5 37.5 52.0791 37.5 51.5625C37.5 51.0459 37.9209 50.625 38.4375 50.625C38.9541 50.625 39.375 51.0459 39.375 51.5625C39.375 52.0791 38.9541 52.5 38.4375 52.5ZM51.5625 37.5C52.0791 37.5 52.5 37.9209 52.5 38.4375C52.5 38.9541 52.0791 39.375 51.5625 39.375C51.0459 39.375 50.625 38.9541 50.625 38.4375C50.625 37.9209 51.0459 37.5 51.5625 37.5ZM43.125 40.3125C43.125 41.8631 41.8631 43.125 40.3125 43.125H19.6875C18.1369 43.125 16.875 41.8631 16.875 40.3125V19.6875C16.875 18.1369 18.1369 16.875 19.6875 16.875H40.3125C41.8631 16.875 43.125 18.1369 43.125 19.6875V40.3125ZM57.1875 31.875C56.6709 31.875 56.25 31.4541 56.25 30.9375C56.25 30.4209 56.6709 30 57.1875 30C57.7041 30 58.125 30.4209 58.125 30.9375C58.125 31.4541 57.7041 31.875 57.1875 31.875Z" fill="#02A7E9"/>
<path d="M40.3125 18.75H19.6875C19.17 18.75 18.75 19.17 18.75 19.6875V40.3125C18.75 40.83 19.17 41.25 19.6875 41.25H40.3125C40.83 41.25 41.25 40.83 41.25 40.3125V19.6875C41.25 19.17 40.83 18.75 40.3125 18.75ZM39.375 39.375H20.625V20.625H39.375V39.375Z" fill="#02A7E9"/>
<path d="M29.0625 30.9375H30.9375C31.4541 30.9375 31.875 31.3584 31.875 31.875C31.875 32.3916 31.4541 32.8125 30.9375 32.8125H28.125C27.6075 32.8125 27.1875 33.2325 27.1875 33.75C27.1875 34.2675 27.6075 34.6875 28.125 34.6875H29.0625C29.0625 35.205 29.4825 35.625 30 35.625C30.5175 35.625 30.9375 35.205 30.9375 34.6875C32.4881 34.6875 33.75 33.4256 33.75 31.875C33.75 30.3244 32.4881 29.0625 30.9375 29.0625H29.0625C28.5459 29.0625 28.125 28.6416 28.125 28.125C28.125 27.6084 28.5459 27.1875 29.0625 27.1875H31.875C32.3925 27.1875 32.8125 26.7675 32.8125 26.25C32.8125 25.7325 32.3925 25.3125 31.875 25.3125H30.9375C30.9375 24.795 30.5175 24.375 30 24.375C29.4825 24.375 29.0625 24.795 29.0625 25.3125C27.5119 25.3125 26.25 26.5744 26.25 28.125C26.25 29.6756 27.5119 30.9375 29.0625 30.9375Z" fill="#02A7E9"/>
</g>
<defs>
<clipPath id="clip0_529_4522">
<rect width="60" height="60" fill="white"/>
</clipPath>
</defs>
</svg>
