<svg width="60" height="60" viewBox="0 0 60 60" fill="none" xmlns="http://www.w3.org/2000/svg">
<g clip-path="url(#clip0_529_4502)">
<mask id="mask0_529_4502" style="mask-type:luminance" maskUnits="userSpaceOnUse" x="0" y="0" width="60" height="60">
<path d="M0 3.8147e-06H60V60H0V3.8147e-06Z" fill="white"/>
</mask>
<g mask="url(#mask0_529_4502)">
<path d="M27.6109 19.3339V56.7326C27.6109 58.0518 28.6806 59.1211 30.0003 59.1211C31.3198 59.1211 32.3894 58.0518 32.3894 56.7326V8.8411L33.2347 9.64594C33.6973 10.0864 34.2903 10.305 34.8823 10.305C35.5133 10.305 36.1432 10.0567 36.6127 9.56391C37.5229 8.60871 37.4861 7.09676 36.5305 6.18692L31.648 1.53798C30.7253 0.659186 29.2751 0.659186 28.3522 1.53798L23.4699 6.18692C22.5144 7.09676 22.4776 8.60871 23.3877 9.56391C24.2979 10.5191 25.8102 10.5558 26.7656 9.64594L27.6109 8.8411V14.6521" stroke="#02A7E9" stroke-width="2" stroke-miterlimit="10" stroke-linecap="round" stroke-linejoin="round"/>
<path d="M37.2242 44.5411C37.5946 41.1725 39.0839 38.0543 41.5123 35.6268C44.1027 33.0371 47.4794 31.5156 51.1077 31.2809L50.3514 32.0746C49.9108 32.5369 49.6922 33.1297 49.6922 33.7215C49.6922 34.3523 49.9407 34.9821 50.4336 35.4514C51.3891 36.3613 52.9014 36.3245 53.8115 35.3693L58.462 30.4884C59.341 29.5659 59.341 28.1162 58.462 27.1937L53.8115 22.3127C52.9013 21.3577 51.389 21.3209 50.4336 22.2307C49.4779 23.1407 49.4413 24.6524 50.3514 25.6076L51.194 26.4919C46.2558 26.7122 41.6471 28.7364 38.1333 32.2488C34.4061 35.9749 32.3535 40.9324 32.3535 46.2083V56.7326C32.3535 58.0518 33.4231 59.1211 34.7427 59.1211C36.0623 59.1211 37.132 58.0518 37.132 56.7326V49.2161" stroke="#02A7E9" stroke-width="2" stroke-miterlimit="10" stroke-linecap="round" stroke-linejoin="round"/>
<path d="M21.8466 32.2488C18.3376 28.7408 13.7363 26.7175 8.80555 26.4926L9.64884 25.6076C10.0893 25.1452 10.308 24.5524 10.308 23.9605C10.308 23.3298 10.0596 22.7002 9.56669 22.2307C8.61114 21.3209 7.09872 21.3577 6.18876 22.3129L1.53817 27.1937C0.65915 28.1162 0.65915 29.5659 1.53817 30.4884L6.18876 35.3693C7.09884 36.3245 8.61126 36.3613 9.56669 35.4514C10.5222 34.5415 10.5589 33.0298 9.64884 32.0746L8.8938 31.2822C12.5138 31.5213 15.8823 33.0422 18.4678 35.6266C21.2923 38.4505 22.8479 42.2082 22.8479 46.2081V56.7326C22.8479 58.0518 23.9177 59.1211 25.2372 59.1211C26.5568 59.1211 27.6266 58.0518 27.6266 56.7326V46.2081C27.6266 40.9324 25.5739 35.9749 21.8466 32.2488Z" stroke="#02A7E9" stroke-width="2" stroke-miterlimit="10" stroke-linecap="round" stroke-linejoin="round"/>
<path d="M37.8789 24.7822C37.8789 24.7822 40.5862 12.6563 54.0378 8.30824" stroke="#02A7E9" stroke-width="2" stroke-miterlimit="10" stroke-linecap="round" stroke-linejoin="round"/>
<path d="M22.1218 24.7822C22.1218 24.7822 19.4145 12.6563 5.96289 8.30824" stroke="#02A7E9" stroke-width="2" stroke-miterlimit="10" stroke-linecap="round" stroke-linejoin="round"/>
</g>
</g>
<defs>
<clipPath id="clip0_529_4502">
<rect width="60" height="60" fill="white"/>
</clipPath>
</defs>
</svg>
