<svg width="60" height="60" viewBox="0 0 60 60" fill="none" xmlns="http://www.w3.org/2000/svg">
<path d="M40.3125 20.7953C40.3125 20.5466 40.2137 20.3082 40.0379 20.1324C39.8621 19.9566 39.6236 19.8578 39.375 19.8578H38.1876C38.0455 19.4181 37.8679 18.9907 37.6566 18.5797L38.4975 17.7388C38.5846 17.6517 38.6536 17.5484 38.7008 17.4347C38.7479 17.3209 38.7722 17.199 38.7722 17.0759C38.7722 16.9528 38.7479 16.8309 38.7008 16.7172C38.6536 16.6034 38.5846 16.5001 38.4975 16.4131L36.0869 14.0025C35.9999 13.9154 35.8965 13.8464 35.7828 13.7992C35.6691 13.7521 35.5472 13.7278 35.424 13.7278C35.3009 13.7278 35.179 13.7521 35.0653 13.7992C34.9516 13.8464 34.8482 13.9154 34.7612 14.0025L33.9203 14.8434C33.5093 14.6322 33.0819 14.4546 32.6422 14.3124V13.125C32.6422 12.8764 32.5434 12.6379 32.3676 12.4621C32.1918 12.2863 31.9533 12.1875 31.7047 12.1875H28.2953C28.0466 12.1875 27.8082 12.2863 27.6324 12.4621C27.4566 12.6379 27.3578 12.8764 27.3578 13.125V14.3124C26.9181 14.4545 26.4907 14.6321 26.0797 14.8434L25.2388 14.0025C25.1517 13.9154 25.0484 13.8464 24.9347 13.7992C24.8209 13.7521 24.699 13.7278 24.5759 13.7278C24.4528 13.7278 24.3309 13.7521 24.2172 13.7992C24.1034 13.8464 24.0001 13.9154 23.9131 14.0025L21.5025 16.4131C21.4154 16.5001 21.3464 16.6035 21.2992 16.7172C21.2521 16.8309 21.2278 16.9528 21.2278 17.076C21.2278 17.1991 21.2521 17.321 21.2992 17.4347C21.3464 17.5484 21.4154 17.6518 21.5025 17.7388L22.3434 18.5797C22.1322 18.9907 21.9546 19.4181 21.8124 19.8578H20.625C20.3764 19.8578 20.1379 19.9566 19.9621 20.1324C19.7863 20.3082 19.6875 20.5467 19.6875 20.7953V24.2047C19.6875 24.4534 19.7863 24.6918 19.9621 24.8677C20.1379 25.0435 20.3764 25.1422 20.625 25.1422H21.8124C21.9545 25.5819 22.1321 26.0094 22.3434 26.4203L21.5025 27.2613C21.4154 27.3483 21.3464 27.4516 21.2992 27.5653C21.2521 27.6791 21.2278 27.801 21.2278 27.9241C21.2278 28.0472 21.2521 28.1691 21.2992 28.2828C21.3464 28.3966 21.4154 28.4999 21.5025 28.5869L23.9131 30.9975C24.0001 31.0846 24.1035 31.1536 24.2172 31.2008C24.3309 31.2479 24.4528 31.2722 24.576 31.2722C24.6991 31.2722 24.821 31.2479 24.9347 31.2008C25.0484 31.1536 25.1518 31.0846 25.2388 30.9975L26.0797 30.1566C26.4907 30.3678 26.9181 30.5454 27.3578 30.6876V31.875C27.3578 32.1236 27.4566 32.3621 27.6324 32.5379C27.8082 32.7137 28.0467 32.8125 28.2953 32.8125H31.7047C31.9534 32.8125 32.1918 32.7137 32.3677 32.5379C32.5435 32.3621 32.6422 32.1236 32.6422 31.875V30.6876C33.0819 30.5455 33.5094 30.3679 33.9203 30.1566L34.7613 30.9975C34.8483 31.0846 34.9516 31.1536 35.0653 31.2008C35.1791 31.2479 35.301 31.2722 35.4241 31.2722C35.5472 31.2722 35.6691 31.2479 35.7828 31.2008C35.8966 31.1536 35.9999 31.0846 36.0869 30.9975L38.4975 28.5869C38.5846 28.4999 38.6536 28.3965 38.7008 28.2828C38.7479 28.1691 38.7722 28.0472 38.7722 27.924C38.7722 27.8009 38.7479 27.679 38.7008 27.5653C38.6536 27.4516 38.5846 27.3482 38.4975 27.2612L37.6566 26.4203C37.8678 26.0093 38.0454 25.5819 38.1876 25.1422H39.375C39.6236 25.1422 39.8621 25.0434 40.0379 24.8676C40.2137 24.6918 40.3125 24.4533 40.3125 24.2047V20.7953ZM38.4375 23.2672H38.1116C37.7301 23.2701 37.3596 23.3947 37.054 23.623C36.7484 23.8513 36.5238 24.1712 36.4128 24.5361C36.2971 24.8995 36.1505 25.2524 35.9747 25.5908C35.7943 25.9275 35.7263 26.3132 35.7807 26.6913C35.8352 27.0695 36.0092 27.4203 36.2773 27.6924L36.5089 27.924L35.424 29.0089L35.1924 28.7773C34.9204 28.5091 34.5697 28.335 34.1916 28.2805C33.8135 28.2261 33.4279 28.2941 33.0913 28.4747C32.7526 28.6504 32.3997 28.797 32.0361 28.9128C31.6712 29.0238 31.3513 29.2484 31.123 29.554C30.8947 29.8596 30.7701 30.2301 30.7672 30.6116V30.9375H29.2328V30.6116C29.2299 30.2301 29.1053 29.8596 28.877 29.554C28.6487 29.2484 28.3288 29.0238 27.9639 28.9128C27.6005 28.7971 27.2476 28.6505 26.9092 28.4747C26.5724 28.2943 26.1868 28.2263 25.8087 28.2808C25.4305 28.3352 25.0797 28.5092 24.8076 28.7773L24.576 29.009L23.4911 27.924L23.7227 27.6924C23.9908 27.4204 24.1648 27.0696 24.2193 26.6916C24.2737 26.3135 24.2057 25.9279 24.0253 25.5913C23.8496 25.2526 23.703 24.8997 23.5872 24.5361C23.4762 24.1712 23.2516 23.8513 22.946 23.623C22.6404 23.3947 22.2699 23.2701 21.8884 23.2672H21.5625V21.7328H21.8884C22.2699 21.7299 22.6404 21.6053 22.946 21.377C23.2516 21.1487 23.4762 20.8288 23.5872 20.4639C23.7029 20.1005 23.8495 19.7476 24.0253 19.4092C24.2057 19.0725 24.2737 18.6868 24.2193 18.3087C24.1648 17.9305 23.9908 17.5797 23.7227 17.3076L23.491 17.076L24.576 15.9911L24.8076 16.2227C25.0795 16.491 25.4303 16.6651 25.8084 16.7195C26.1865 16.774 26.5721 16.7059 26.9087 16.5253C27.2474 16.3496 27.6003 16.203 27.9639 16.0872C28.3288 15.9762 28.6487 15.7516 28.877 15.446C29.1053 15.1404 29.2299 14.7699 29.2328 14.3884V14.0625H30.7672V14.3884C30.7701 14.7699 30.8947 15.1404 31.123 15.446C31.3513 15.7516 31.6712 15.9762 32.0361 16.0872C32.3995 16.2029 32.7524 16.3495 33.0908 16.5253C33.4275 16.7058 33.8132 16.7738 34.1913 16.7194C34.5695 16.6649 34.9203 16.4909 35.1924 16.2227L35.424 15.991L36.5089 17.076L36.2773 17.3076C36.0092 17.5796 35.8352 17.9304 35.7807 18.3084C35.7263 18.6865 35.7943 19.0721 35.9747 19.4087C36.1504 19.7474 36.297 20.1003 36.4128 20.4639C36.5238 20.8288 36.7484 21.1487 37.054 21.377C37.3596 21.6053 37.7301 21.7299 38.1116 21.7328H38.4375V23.2672Z" fill="#02A7E9"/>
<path d="M30 16.875C28.8875 16.875 27.7999 17.2049 26.8749 17.823C25.9499 18.4411 25.2289 19.3196 24.8032 20.3474C24.3774 21.3752 24.266 22.5062 24.4831 23.5974C24.7001 24.6885 25.2359 25.6908 26.0225 26.4775C26.8092 27.2641 27.8115 27.7999 28.9026 28.0169C29.9938 28.234 31.1248 28.1226 32.1526 27.6968C33.1804 27.2711 34.0589 26.5501 34.677 25.6251C35.2951 24.7001 35.625 23.6125 35.625 22.5C35.6234 21.0087 35.0302 19.5789 33.9757 18.5243C32.9211 17.4698 31.4913 16.8766 30 16.875ZM30 26.25C29.2583 26.25 28.5333 26.0301 27.9166 25.618C27.2999 25.206 26.8193 24.6203 26.5355 23.9351C26.2516 23.2498 26.1774 22.4958 26.3221 21.7684C26.4668 21.041 26.8239 20.3728 27.3484 19.8484C27.8728 19.3239 28.541 18.9667 29.2684 18.8221C29.9958 18.6774 30.7498 18.7516 31.4351 19.0355C32.1203 19.3193 32.706 19.7999 33.118 20.4166C33.5301 21.0333 33.75 21.7583 33.75 22.5C33.7489 23.4942 33.3534 24.4474 32.6504 25.1504C31.9474 25.8534 30.9942 26.2489 30 26.25Z" fill="#02A7E9"/>
<path d="M2.81246 59.0625H57.1875C57.3426 59.0625 57.4953 59.024 57.6319 58.9505C57.7685 58.8769 57.8848 58.7706 57.9702 58.6411C58.0555 58.5115 58.1075 58.3628 58.1212 58.2083C58.135 58.0538 58.1102 57.8982 58.049 57.7556L52.424 44.6306C52.3518 44.462 52.2317 44.3182 52.0785 44.2172C51.9254 44.1163 51.7459 44.0624 51.5625 44.0625H40.3125V45.9375H50.9445L55.7656 57.1875H4.23427L9.05544 45.9375H19.6875V44.0625H8.43746C8.254 44.0624 8.07456 44.1163 7.92141 44.2172C7.76825 44.3182 7.64811 44.462 7.5759 44.6306L1.9509 57.7556C1.88974 57.8982 1.86493 58.0538 1.8787 58.2083C1.89246 58.3628 1.94437 58.5115 2.02977 58.6411C2.11516 58.7706 2.23137 58.8769 2.36798 58.9505C2.50458 59.024 2.65731 59.0625 2.81246 59.0625Z" fill="#02A7E9"/>
<path d="M27.1875 35.625H29.0625V41.25H27.1875V35.625Z" fill="#02A7E9"/>
<path d="M27.1875 43.125H29.0625V45H27.1875V43.125Z" fill="#02A7E9"/>
<path d="M27.1875 46.875H29.0625V51.5625H27.1875V46.875Z" fill="#02A7E9"/>
<path d="M30.9375 35.625H32.8125V42.1875H30.9375V35.625Z" fill="#02A7E9"/>
<path d="M30.9375 44.0625H32.8125V51.5625H30.9375V44.0625Z" fill="#02A7E9"/>
<path d="M34.6875 37.5H36.5625V45.9375H34.6875V37.5Z" fill="#02A7E9"/>
<path d="M23.4375 47.8125H25.3125V49.6875H23.4375V47.8125Z" fill="#02A7E9"/>
<path d="M23.4375 36.5625H25.3125V45.9375H23.4375V36.5625Z" fill="#02A7E9"/>
<path d="M34.6875 47.8125H36.5625V49.6875H34.6875V47.8125Z" fill="#02A7E9"/>
<path d="M45 3.75C44.7514 3.75 44.5129 3.84877 44.3371 4.02459C44.1613 4.2004 44.0625 4.43886 44.0625 4.6875V10.3125C44.0625 10.5611 44.1613 10.7996 44.3371 10.9754C44.5129 11.1512 44.7514 11.25 45 11.25H47.8125V13.125H45.9375C45.6889 13.125 45.4504 13.2238 45.2746 13.3996C45.0988 13.5754 45 13.8139 45 14.0625V18.75C45 18.9986 45.0988 19.2371 45.2746 19.4129C45.4504 19.5887 45.6889 19.6875 45.9375 19.6875H50.625C50.8736 19.6875 51.1121 19.5887 51.2879 19.4129C51.4637 19.2371 51.5625 18.9986 51.5625 18.75V16.875H56.25C56.4986 16.875 56.7371 16.7762 56.9129 16.6004C57.0887 16.4246 57.1875 16.1861 57.1875 15.9375V8.4375C57.1875 8.18886 57.0887 7.9504 56.9129 7.77459C56.7371 7.59877 56.4986 7.5 56.25 7.5H51.5625V4.6875C51.5625 4.43886 51.4637 4.2004 51.2879 4.02459C51.1121 3.84877 50.8736 3.75 50.625 3.75H45ZM45.9375 9.375V5.625H49.6875V7.5H48.75C48.5014 7.5 48.2629 7.59877 48.0871 7.77459C47.9113 7.9504 47.8125 8.18886 47.8125 8.4375V9.375H45.9375ZM49.6875 17.8125H46.875V15H47.8125V15.9375C47.8125 16.1861 47.9113 16.4246 48.0871 16.6004C48.2629 16.7762 48.5014 16.875 48.75 16.875H49.6875V17.8125ZM55.3125 9.375V15H49.6875V9.375H55.3125Z" fill="#02A7E9"/>
<path d="M32.8125 8.4375C33.0611 8.4375 33.2996 8.33873 33.4754 8.16291C33.6512 7.9871 33.75 7.74864 33.75 7.5V1.875C33.75 1.62636 33.6512 1.3879 33.4754 1.21209C33.2996 1.03627 33.0611 0.9375 32.8125 0.9375H27.1875C26.9389 0.9375 26.7004 1.03627 26.5246 1.21209C26.3488 1.3879 26.25 1.62636 26.25 1.875V7.5C26.25 7.74864 26.3488 7.9871 26.5246 8.16291C26.7004 8.33873 26.9389 8.4375 27.1875 8.4375H32.8125ZM28.125 2.8125H31.875V6.5625H28.125V2.8125Z" fill="#02A7E9"/>
<path d="M3.75 29.0625H9.375C9.62364 29.0625 9.8621 28.9637 10.0379 28.7879C10.2137 28.6121 10.3125 28.3736 10.3125 28.125V25.3125H15C15.2486 25.3125 15.4871 25.2137 15.6629 25.0379C15.8387 24.8621 15.9375 24.6236 15.9375 24.375V16.875C15.9375 16.6264 15.8387 16.3879 15.6629 16.2121C15.4871 16.0363 15.2486 15.9375 15 15.9375H7.5C7.25136 15.9375 7.0129 16.0363 6.83709 16.2121C6.66127 16.3879 6.5625 16.6264 6.5625 16.875V21.5625H3.75C3.50136 21.5625 3.2629 21.6613 3.08709 21.8371C2.91127 22.0129 2.8125 22.2514 2.8125 22.5V28.125C2.8125 28.3736 2.91127 28.6121 3.08709 28.7879C3.2629 28.9637 3.50136 29.0625 3.75 29.0625ZM8.4375 17.8125H14.0625V23.4375H8.4375V17.8125ZM4.6875 23.4375H6.5625V24.375C6.5625 24.6236 6.66127 24.8621 6.83709 25.0379C7.0129 25.2137 7.25136 25.3125 7.5 25.3125H8.4375V27.1875H4.6875V23.4375Z" fill="#02A7E9"/>
<path d="M9.375 13.125H14.0625C14.3111 13.125 14.5496 13.0262 14.7254 12.8504C14.9012 12.6746 15 12.4361 15 12.1875V7.5C15 7.25136 14.9012 7.0129 14.7254 6.83709C14.5496 6.66127 14.3111 6.5625 14.0625 6.5625H9.375C9.12636 6.5625 8.8879 6.66127 8.71209 6.83709C8.53627 7.0129 8.4375 7.25136 8.4375 7.5V12.1875C8.4375 12.4361 8.53627 12.6746 8.71209 12.8504C8.8879 13.0262 9.12636 13.125 9.375 13.125ZM10.3125 8.4375H13.125V11.25H10.3125V8.4375Z" fill="#02A7E9"/>
<path d="M44.0625 29.0625C43.8139 29.0625 43.5754 29.1613 43.3996 29.3371C43.2238 29.5129 43.125 29.7514 43.125 30V33.75C43.125 33.9986 43.2238 34.2371 43.3996 34.4129C43.5754 34.5887 43.8139 34.6875 44.0625 34.6875H47.8125C48.0611 34.6875 48.2996 34.5887 48.4754 34.4129C48.6512 34.2371 48.75 33.9986 48.75 33.75V30C48.75 29.7514 48.6512 29.5129 48.4754 29.3371C48.2996 29.1613 48.0611 29.0625 47.8125 29.0625H44.0625ZM46.875 32.8125H45V30.9375H46.875V32.8125Z" fill="#02A7E9"/>
<path d="M10.9622 48.75H17.8126V46.875H10.3126C10.1217 46.875 9.93542 46.9333 9.77854 47.042C9.62166 47.1507 9.50167 47.3047 9.4346 47.4834L6.6221 54.9834C6.56896 55.1252 6.55097 55.2778 6.56968 55.4282C6.58839 55.5785 6.64324 55.722 6.72953 55.8465C6.81583 55.971 6.931 56.0727 7.0652 56.143C7.19939 56.2133 7.34861 56.25 7.50009 56.25H52.5001C52.6516 56.25 52.8008 56.2133 52.935 56.143C53.0692 56.0727 53.1843 55.971 53.2706 55.8465C53.3569 55.722 53.4118 55.5785 53.4305 55.4282C53.4492 55.2778 53.4312 55.1252 53.3781 54.9834L50.5656 47.4834C50.4985 47.3047 50.3785 47.1507 50.2216 47.042C50.0648 46.9333 49.8785 46.875 49.6876 46.875H42.1876V48.75H49.038L51.1474 54.375H8.85278L10.9622 48.75Z" fill="#02A7E9"/>
</svg>
