<svg width="183" height="214" viewBox="0 0 183 214" fill="none" xmlns="http://www.w3.org/2000/svg">
<path fill-rule="evenodd" clip-rule="evenodd" d="M0.320801 76.8774H115.241V1.17926H0.320801V76.8774Z" fill="white"/>
<path fill-rule="evenodd" clip-rule="evenodd" d="M0.66453 76.5358H114.897V1.52281H0.66453V76.5358ZM0 77.1981H115.562V0.858521H0V77.1981Z" fill="#146BFF"/>
<path fill-rule="evenodd" clip-rule="evenodd" d="M35.2293 59.717L19.8599 45.2822L12.6516 58.7933L12.0376 58.4677L19.6737 44.1526L34.9212 58.4705L45.1427 28.7476L64.394 49.8703L76.6065 44.8955L99.2799 15.2925L99.8324 15.7151L77.0443 45.4686L64.2067 50.6967L64.0433 50.5158L45.4191 30.0834L35.2293 59.717Z" fill="#146BFF"/>
<path fill-rule="evenodd" clip-rule="evenodd" d="M33.3843 14.0094H82.177V13.3679H33.3843V14.0094Z" fill="#146BFF"/>
<path fill-rule="evenodd" clip-rule="evenodd" d="M134.16 155.316L147.814 141.827L123.463 100.16C120.928 97.2627 117.718 95.032 114.118 93.665L105.541 90.408L84.2226 86.5L69.0866 92.4558C65.2596 93.9617 62.9308 97.8562 63.4156 101.937L67.3748 135.239L69.7076 178.603L124.709 169.071L119.175 153.031L119.361 128.025L134.16 155.316Z" fill="#07B8FF" stroke="#272727"/>
<path fill-rule="evenodd" clip-rule="evenodd" d="M119.68 151.967C119.808 151.967 119.842 143.304 119.754 132.62C119.667 121.935 119.492 113.275 119.363 113.277C119.235 113.277 119.202 121.939 119.289 132.624C119.377 143.308 119.551 151.969 119.68 151.967Z" fill="#132529"/>
<path fill-rule="evenodd" clip-rule="evenodd" d="M117.665 158.324L84.4314 144.955C81.7508 143.877 79.9149 141.373 79.6946 138.494L77.2628 106.656C77.2628 106.656 77.5502 93.1156 69.0867 92.4558L64.2705 94.3512C58.0476 97.6536 56.5052 106.707 57.3527 113.697C58.5567 123.63 59.0584 137.687 60.4048 146.306C61.5072 153.358 65.745 158.936 72.4568 161.377L113.391 170.232L117.665 158.324Z" fill="#07B8FF" stroke="#272727"/>
<path fill-rule="evenodd" clip-rule="evenodd" d="M77.7395 111.513C77.7551 111.511 77.7904 111.763 77.8439 112.242C77.8968 112.761 77.9687 113.46 78.0575 114.34C78.2277 116.206 78.467 118.833 78.7605 122.061C79.0419 125.335 79.3761 129.214 79.7463 133.517C79.8364 134.594 79.9293 135.699 80.0242 136.827C80.1232 137.956 80.1917 139.112 80.4486 140.234C80.692 141.36 81.2337 142.414 82.1001 143.218C82.9625 144.023 84.0411 144.613 85.1672 145.124C94.331 149.086 102.777 152.358 108.908 154.653C111.951 155.773 114.428 156.685 116.187 157.332C117.017 157.638 117.676 157.88 118.166 158.061C118.617 158.232 118.851 158.328 118.847 158.343C118.841 158.357 118.597 158.289 118.137 158.146C117.64 157.985 116.971 157.768 116.129 157.495C114.39 156.919 111.883 156.056 108.799 154.947C102.633 152.725 94.1738 149.502 84.9821 145.528C83.8397 145.008 82.7164 144.401 81.7964 143.538C80.8669 142.682 80.271 141.508 80.0249 140.333C79.7585 139.155 79.6961 137.99 79.6012 136.865C79.5117 135.736 79.4236 134.63 79.3375 133.551C79.0032 129.245 78.7022 125.363 78.4473 122.086C78.2121 118.853 78.0216 116.222 77.8846 114.353C77.8304 113.471 77.787 112.769 77.7544 112.248C77.73 111.767 77.7239 111.514 77.7395 111.513Z" fill="#02A7E9"/>
<path fill-rule="evenodd" clip-rule="evenodd" d="M58.6984 128.821C58.714 128.82 58.7343 128.968 58.7642 129.248C58.794 129.58 58.8306 129.986 58.874 130.477C58.973 131.612 59.1059 133.139 59.2686 134.995C59.4503 136.901 59.6821 139.168 60.013 141.675C60.3546 144.177 60.758 146.937 61.5133 149.74C61.8712 151.155 62.3743 152.462 63.1356 153.584C63.8976 154.716 64.7437 155.732 65.6183 156.633C67.3755 158.428 69.2514 159.745 70.9361 160.619C74.3367 162.386 76.8085 162.411 76.7733 162.529C76.7726 162.544 76.6235 162.54 76.3408 162.519C76.058 162.499 75.6404 162.467 75.1116 162.361C74.052 162.173 72.528 161.759 70.7938 160.899C69.0616 160.047 67.1321 158.733 65.3261 156.92C64.4271 156.011 63.558 154.981 62.7743 153.829C61.9797 152.672 61.44 151.274 61.0848 149.858C60.318 147.013 59.9275 144.242 59.6069 141.728C59.2964 139.209 59.0977 136.933 58.9554 135.021C58.815 133.109 58.7404 131.559 58.7018 130.487C58.691 129.993 58.6821 129.586 58.6753 129.253C58.6747 128.97 58.6835 128.821 58.6984 128.821Z" fill="#272727"/>
<path fill-rule="evenodd" clip-rule="evenodd" d="M72.9103 151.1C72.8649 151.087 73.0059 150.377 73.5144 149.33C74.0181 148.286 74.9489 146.935 76.3048 145.773C77.6655 144.617 79.1468 143.909 80.2573 143.575C81.3719 143.237 82.0959 143.209 82.1013 143.256C82.1156 143.33 81.4173 143.468 80.361 143.873C79.3048 144.272 77.9062 144.997 76.5937 146.111C75.2866 147.231 74.353 148.499 73.7917 149.478C73.2269 150.457 72.9808 151.125 72.9103 151.1Z" fill="#02A7E9"/>
<path fill-rule="evenodd" clip-rule="evenodd" d="M107.133 153.985C105.437 153.344 103.597 152.64 101.639 151.877L91.0708 147.626C89.1488 146.827 87.1753 145.992 85.1672 145.124C84.0411 144.613 82.9625 144.023 82.1002 143.218C81.2337 142.414 80.6921 141.36 80.4487 140.234C80.1917 139.112 80.1233 137.956 80.0243 136.827C79.9436 135.866 79.8643 134.922 79.7863 133.997C79.7748 133.756 79.7599 133.516 79.7422 133.275C79.4351 129.176 79.1287 125.077 78.8223 120.979C83.5171 127.074 82.9951 135.989 87.5807 142.166C90.0132 145.441 93.6525 147.607 97.3683 149.295C100.741 150.826 103.917 152.237 107.133 153.985Z" fill="#02A7E9"/>
<path fill-rule="evenodd" clip-rule="evenodd" d="M108.114 154.529C102.812 152.781 97.1281 150.238 91.7777 148.39C89.5758 147.487 87.3026 146.532 84.982 145.528C84.7962 145.444 84.6111 145.357 84.4274 145.267C83.46 144.686 82.5881 144.045 81.9176 143.35C82.041 143.309 82.1061 143.279 82.1013 143.256C82.1 143.245 82.0613 143.238 81.9881 143.238C81.9441 143.238 81.8871 143.241 81.8193 143.246C79.6072 140.86 79.9597 137.477 79.7861 133.997C79.8641 134.922 79.9434 135.866 80.0241 136.827C80.1231 137.956 80.1915 139.112 80.4485 140.234C80.6919 141.36 81.2336 142.414 82.1 143.218C82.9623 144.023 84.041 144.613 85.167 145.124C87.1751 145.992 89.1486 146.827 91.0706 147.626C94.8319 149.189 98.3966 150.614 101.639 151.877C103.596 152.64 105.437 153.344 107.133 153.985C107.459 154.162 107.786 154.344 108.114 154.529Z" fill="#272727"/>
<path fill-rule="evenodd" clip-rule="evenodd" d="M81.9176 143.35C81.9007 143.333 81.8844 143.316 81.8681 143.299C81.8519 143.281 81.8356 143.264 81.8193 143.246C81.8871 143.241 81.9441 143.238 81.9881 143.238C82.0614 143.238 82.1 143.245 82.1014 143.256C82.1061 143.279 82.041 143.309 81.9176 143.35Z" fill="#051317"/>
<path fill-rule="evenodd" clip-rule="evenodd" d="M122.243 133.341L119.717 128.683V128.683L122.243 133.34V133.341Z" fill="#051317"/>
<path fill-rule="evenodd" clip-rule="evenodd" d="M122.243 133.34L119.717 128.683C119.663 123.646 119.592 119.326 119.52 116.553L122.243 133.34Z" fill="#02A7E9"/>
<path fill-rule="evenodd" clip-rule="evenodd" d="M119.717 128.683L119.521 128.322L119.368 115.621L119.519 116.553C119.592 119.326 119.663 123.646 119.717 128.683V128.683Z" fill="#02A7E9"/>
<path fill-rule="evenodd" clip-rule="evenodd" d="M76.7376 104.69C76.7369 104.714 76.463 104.733 75.9667 104.749C75.3973 104.763 74.6963 104.781 73.8719 104.802C72.1017 104.846 69.6597 104.935 66.9683 105.127C64.2755 105.321 61.845 105.58 60.0877 105.789C59.2681 105.886 58.5725 105.968 58.0058 106.035C57.5136 106.091 57.239 106.11 57.2349 106.086C57.2315 106.062 57.498 105.997 57.9847 105.899C58.4708 105.8 59.1779 105.677 60.0545 105.541C61.807 105.269 64.2409 104.97 66.9432 104.775C69.6435 104.583 72.0956 104.532 73.8692 104.552C74.7559 104.561 75.4739 104.583 75.9688 104.611C76.4644 104.639 76.7376 104.666 76.7376 104.69Z" fill="#02A7E9"/>
<path fill-rule="evenodd" clip-rule="evenodd" d="M77.6826 121.646C77.69 121.744 73.3342 122.183 67.954 122.627C62.5717 123.072 58.203 123.354 58.1948 123.256C58.1867 123.159 62.5426 122.72 67.9248 122.276C73.305 121.831 77.6744 121.549 77.6826 121.646Z" fill="#02A7E9"/>
<path fill-rule="evenodd" clip-rule="evenodd" d="M79.2845 139.472C79.2954 139.495 79.0493 139.634 78.595 139.866C78.1422 140.102 77.4717 140.413 76.631 140.768C74.9497 141.48 72.5572 142.315 69.8339 142.927C67.1092 143.534 64.5879 143.797 62.7642 143.87C61.8517 143.907 61.1127 143.912 60.6022 143.891C60.0924 143.874 59.811 143.853 59.811 143.828C59.811 143.804 60.0931 143.779 60.6008 143.754C61.1086 143.733 61.8435 143.69 62.7486 143.62C64.5594 143.485 67.0536 143.185 69.7573 142.582C72.4589 141.975 74.8426 141.185 76.5381 140.537C77.3863 140.213 78.0696 139.939 78.5374 139.741C79.0086 139.548 79.2737 139.45 79.2845 139.472Z" fill="#02A7E9"/>
<path fill-rule="evenodd" clip-rule="evenodd" d="M91.1012 148.615C91.1581 148.714 89.369 149.506 87.807 151.258C86.2206 152.99 85.6159 154.848 85.5108 154.802C85.4715 154.79 85.5671 154.312 85.8776 153.589C86.1854 152.869 86.7386 151.917 87.5447 151.022C88.3541 150.129 89.2443 149.483 89.9311 149.103C90.6185 148.72 91.0842 148.577 91.1012 148.615Z" fill="#02A7E9"/>
<path fill-rule="evenodd" clip-rule="evenodd" d="M103.121 160.352C103.034 160.332 103.421 158.678 104.426 156.856C105.422 155.028 106.609 153.812 106.671 153.874C106.753 153.942 105.708 155.236 104.735 157.026C103.752 158.807 103.222 160.385 103.121 160.352Z" fill="#02A7E9"/>
<path fill-rule="evenodd" clip-rule="evenodd" d="M84.1793 94.717C84.1962 94.8132 82.0919 95.2732 79.479 95.7454C76.8662 96.2175 74.7334 96.5223 74.7164 96.4268C74.6988 96.3306 76.8032 95.87 79.416 95.3985C82.0288 94.9264 84.161 94.6209 84.1793 94.717Z" fill="#02A7E9"/>
<path fill-rule="evenodd" clip-rule="evenodd" d="M115.993 96.164C115.982 96.2602 113.064 95.9946 109.477 95.5692C105.888 95.1431 102.99 94.7197 103.001 94.6229C103.013 94.5267 105.93 94.7929 109.519 95.2183C113.106 95.6437 116.005 96.0671 115.993 96.164Z" fill="#02A7E9"/>
<path fill-rule="evenodd" clip-rule="evenodd" d="M118.711 110.949C118.71 110.961 118.567 110.97 118.294 110.976C117.984 110.978 117.589 110.982 117.101 110.986C116.02 110.984 114.534 110.982 112.716 110.98C109.014 110.976 103.901 111.007 98.2547 111.152C92.6074 111.298 87.4983 111.529 83.8015 111.723C81.9873 111.818 80.5032 111.896 79.4232 111.952C78.9365 111.974 78.5419 111.991 78.2314 112.005C77.9595 112.013 77.8158 112.011 77.8145 111.999C77.8138 111.987 77.9555 111.965 78.2267 111.934C78.5351 111.903 78.929 111.864 79.4131 111.816C80.4449 111.719 81.9391 111.602 83.7872 111.473C87.4821 111.217 92.5938 110.945 98.2466 110.799C103.897 110.655 109.015 110.663 112.719 110.73C114.571 110.764 116.069 110.804 117.104 110.848C117.591 110.871 117.986 110.89 118.296 110.905C118.568 110.922 118.711 110.936 118.711 110.949Z" fill="#02A7E9"/>
<path fill-rule="evenodd" clip-rule="evenodd" d="M119.1 129.674C119.107 129.77 110.388 130.423 99.6286 131.131C88.8654 131.839 80.1381 132.334 80.1314 132.237C80.1246 132.139 88.8424 131.486 99.6055 130.778C110.365 130.071 119.094 129.576 119.1 129.674Z" fill="#02A7E9"/>
<path fill-rule="evenodd" clip-rule="evenodd" d="M118.174 146.168C118.182 146.191 117.92 146.301 117.44 146.481C116.961 146.662 116.26 146.905 115.389 147.189C113.648 147.758 111.217 148.471 108.499 149.125C105.779 149.777 103.289 150.247 101.479 150.53C100.574 150.673 99.8398 150.775 99.3306 150.831C98.8215 150.889 98.5381 150.909 98.5347 150.885C98.532 150.862 98.8079 150.795 99.3096 150.696C99.8852 150.585 100.595 150.447 101.436 150.285C103.231 149.938 105.705 149.432 108.417 148.782C111.127 148.13 113.56 147.458 115.316 146.951C116.138 146.714 116.835 146.513 117.397 146.351C117.89 146.211 118.165 146.145 118.174 146.168Z" fill="#02A7E9"/>
<path fill-rule="evenodd" clip-rule="evenodd" d="M132.119 116.268C132.143 116.362 129.308 117.175 125.788 118.085C122.266 118.996 119.393 119.657 119.368 119.562C119.344 119.467 122.178 118.653 125.7 117.744C129.22 116.834 132.094 116.173 132.119 116.268Z" fill="#02A7E9"/>
<path fill-rule="evenodd" clip-rule="evenodd" d="M125.469 103.611C125.487 103.707 124.231 104.013 122.664 104.295C121.097 104.577 119.813 104.726 119.796 104.631C119.778 104.535 121.035 104.229 122.601 103.947C124.168 103.666 125.452 103.515 125.469 103.611Z" fill="#02A7E9"/>
<path fill-rule="evenodd" clip-rule="evenodd" d="M77.8386 107.54C77.7708 107.551 77.6664 106.415 77.0461 104.712C76.44 103.019 75.2075 100.764 73.1519 98.9184C71.0957 97.0724 68.7208 96.0881 66.9717 95.6661C65.2104 95.2312 64.0687 95.2495 64.0728 95.1804C64.0728 95.1587 64.3562 95.1357 64.8694 95.1499C65.3833 95.1621 66.127 95.2332 67.028 95.4229C68.8218 95.7894 71.276 96.7601 73.3885 98.6562C75.499 100.552 76.7261 102.887 77.282 104.63C77.5667 105.505 77.7166 106.236 77.7837 106.745C77.8528 107.253 77.8596 107.538 77.8386 107.54Z" fill="#02A7E9"/>
<path fill-rule="evenodd" clip-rule="evenodd" d="M117.436 98.5071C117.532 98.4916 118.057 101.265 118.607 104.701C119.157 108.138 119.525 110.935 119.429 110.951C119.332 110.966 118.809 108.193 118.258 104.756C117.708 101.32 117.34 98.5221 117.436 98.5071Z" fill="#02A7E9"/>
<path fill-rule="evenodd" clip-rule="evenodd" d="M181.046 205.775C182.585 206.316 182.327 211.949 179.932 211.862C178.799 211.82 160.311 212.55 157.975 212.404C155.639 212.258 148.591 209.483 148.591 209.483L154.477 198.35C154.477 198.35 180.022 205.414 181.046 205.775Z" fill="#146BFF" stroke="#272727"/>
<path fill-rule="evenodd" clip-rule="evenodd" d="M165.119 208.089C165.247 208.107 165.42 206.757 166.244 205.349C167.049 203.929 168.131 203.102 168.051 203C168.006 202.901 166.737 203.621 165.874 205.136C164.996 206.643 165.011 208.1 165.119 208.089Z" fill="#272727"/>
<path fill-rule="evenodd" clip-rule="evenodd" d="M162.456 206.882C162.58 206.904 162.839 205.698 163.519 204.364C164.186 203.024 165.002 202.098 164.911 202.01C164.84 201.927 163.843 202.761 163.138 204.172C162.423 205.578 162.346 206.876 162.456 206.882Z" fill="#272727"/>
<path fill-rule="evenodd" clip-rule="evenodd" d="M159.957 206.214C160.085 206.206 159.988 204.931 160.554 203.517C161.097 202.094 162.034 201.224 161.946 201.131C161.894 201.033 160.749 201.822 160.156 203.362C159.548 204.894 159.853 206.251 159.957 206.214Z" fill="#272727"/>
<path fill-rule="evenodd" clip-rule="evenodd" d="M160.41 202.918C160.456 202.928 160.682 202.216 160.684 201.018C160.683 200.421 160.614 199.707 160.425 198.937C160.332 198.551 160.206 198.153 160.046 197.752C159.963 197.55 159.869 197.316 159.636 197.126C159.398 196.912 158.964 196.957 158.759 197.17C158.526 197.374 158.451 197.661 158.419 197.892C158.393 198.126 158.381 198.344 158.386 198.566C158.391 199.005 158.448 199.426 158.543 199.816C158.732 200.595 159.037 201.248 159.33 201.766C159.925 202.802 160.441 203.331 160.478 203.303C160.536 203.262 160.108 202.668 159.598 201.626C159.347 201.106 159.084 200.467 158.928 199.73C158.848 199.361 158.805 198.969 158.805 198.563C158.816 198.171 158.81 197.681 159.04 197.492C159.162 197.391 159.271 197.384 159.378 197.464C159.491 197.55 159.585 197.725 159.658 197.909C159.816 198.291 159.945 198.669 160.045 199.035C160.246 199.769 160.343 200.452 160.383 201.029C160.457 202.185 160.341 202.907 160.41 202.918Z" fill="#272727"/>
<path fill-rule="evenodd" clip-rule="evenodd" d="M160.378 202.657C160.391 202.611 159.774 202.399 158.731 202.392C158.212 202.391 157.589 202.445 156.919 202.613C156.587 202.703 156.233 202.788 155.875 202.998C155.525 203.176 155.159 203.661 155.298 204.164C155.407 204.64 155.814 204.971 156.218 205.075C156.625 205.189 157.018 205.149 157.364 205.072C158.065 204.912 158.61 204.566 159.023 204.257C159.841 203.615 160.241 203.124 160.211 203.089C160.166 203.035 159.682 203.455 158.85 204.01C158.431 204.277 157.908 204.566 157.284 204.687C156.973 204.747 156.639 204.765 156.336 204.674C156.035 204.591 155.785 204.362 155.714 204.067C155.641 203.782 155.814 203.52 156.094 203.355C156.367 203.185 156.706 203.088 157.02 202.994C157.652 202.813 158.243 202.731 158.742 202.694C159.741 202.624 160.368 202.726 160.378 202.657Z" fill="#272727"/>
<path fill-rule="evenodd" clip-rule="evenodd" d="M169.043 208.363C169.17 208.348 169.044 207.257 169.548 206.06C170.025 204.854 170.878 204.161 170.798 204.062C170.756 203.959 169.688 204.563 169.152 205.9C168.6 207.229 168.941 208.407 169.043 208.363Z" fill="#272727"/>
<path fill-rule="evenodd" clip-rule="evenodd" d="M151.219 209.541C151.208 209.568 151.56 209.732 152.208 210.005C152.864 210.253 153.825 210.599 155.05 210.885C157.493 211.501 160.976 211.85 164.803 211.809C168.631 211.767 172.08 211.593 174.582 211.493C175.766 211.43 176.758 211.378 177.543 211.336C178.241 211.29 178.627 211.25 178.625 211.221C178.625 211.192 178.238 211.175 177.537 211.17C176.752 211.175 175.759 211.183 174.573 211.191C171.986 211.242 168.574 211.308 164.801 211.382C160.991 211.422 157.55 211.124 155.117 210.591C152.675 210.09 151.249 209.462 151.219 209.541Z" fill="#272727"/>
<path fill-rule="evenodd" clip-rule="evenodd" d="M152.378 209.256C153.545 208.756 155.293 208.157 157.212 208.453C159.137 208.748 160.502 210.04 161.39 210.937C162.286 211.866 162.81 212.483 162.862 212.439C162.901 212.407 162.465 211.729 161.612 210.732C161.181 210.238 160.634 209.667 159.918 209.15C159.21 208.63 158.3 208.188 157.28 208.031C155.221 207.717 153.406 208.404 152.251 208.982C151.078 209.582 150.438 210.081 150.464 210.123C150.499 210.181 151.198 209.774 152.378 209.256Z" fill="#272727"/>
<path fill-rule="evenodd" clip-rule="evenodd" d="M99.2056 208.894C97.9039 209.876 99.3967 214.556 101.652 213.746C102.719 213.363 123.002 207.724 125.183 206.876C127.365 206.028 133.236 201.246 133.236 201.246L124.244 192.424C124.244 192.424 100.073 208.239 99.2056 208.894Z" fill="#146BFF" stroke="#272727"/>
<path fill-rule="evenodd" clip-rule="evenodd" d="M117.065 204.933C117.172 204.911 116.743 203.517 115.449 202.349C114.166 201.166 112.739 200.866 112.726 200.974C112.681 201.095 113.962 201.555 115.16 202.664C116.374 203.755 116.949 204.989 117.065 204.933Z" fill="#272727"/>
<path fill-rule="evenodd" clip-rule="evenodd" d="M119.237 202.976C119.339 202.936 118.871 201.722 117.763 200.6C116.663 199.47 115.458 198.977 115.417 199.079C115.356 199.19 116.415 199.825 117.458 200.899C118.511 201.962 119.124 203.034 119.237 202.976Z" fill="#272727"/>
<path fill-rule="evenodd" clip-rule="evenodd" d="M121.414 201.58C121.523 201.584 121.403 200.198 120.357 198.924C119.324 197.636 117.993 197.232 117.974 197.34C117.917 197.456 119.075 198.001 120.025 199.192C120.994 200.367 121.289 201.612 121.414 201.58Z" fill="#132529"/>
<path fill-rule="evenodd" clip-rule="evenodd" d="M119.98 198.577C120.043 198.546 119.712 197.893 119.432 196.769C119.295 196.208 119.18 195.527 119.148 194.768C119.132 194.388 119.14 193.989 119.175 193.577C119.188 193.379 119.225 193.184 119.306 193.067C119.383 192.959 119.49 192.932 119.637 192.991C119.912 193.101 120.056 193.571 120.186 193.941C120.31 194.327 120.386 194.714 120.424 195.089C120.498 195.839 120.443 196.528 120.362 197.101C120.192 198.247 119.965 198.943 120.033 198.965C120.077 198.98 120.407 198.32 120.66 197.152C120.782 196.57 120.873 195.855 120.816 195.054C120.788 194.655 120.714 194.237 120.586 193.816C120.524 193.604 120.445 193.4 120.349 193.184C120.249 192.974 120.091 192.722 119.805 192.599C119.546 192.459 119.119 192.548 118.957 192.824C118.793 193.075 118.774 193.326 118.757 193.545C118.727 193.976 118.727 194.394 118.755 194.789C118.81 195.58 118.961 196.282 119.141 196.851C119.507 197.991 119.94 198.602 119.98 198.577Z" fill="#132529"/>
<path fill-rule="evenodd" clip-rule="evenodd" d="M119.931 198.32C119.962 198.382 120.528 198.094 121.502 197.857C121.988 197.741 122.576 197.641 123.233 197.621C123.561 197.615 123.914 197.605 124.226 197.684C124.543 197.757 124.787 197.953 124.803 198.247C124.826 198.55 124.657 198.844 124.396 199.014C124.136 199.193 123.812 199.276 123.497 199.314C122.866 199.388 122.279 199.272 121.799 199.144C120.837 198.867 120.248 198.614 120.222 198.68C120.204 198.722 120.734 199.069 121.709 199.432C122.197 199.602 122.821 199.765 123.538 199.705C123.89 199.673 124.277 199.592 124.631 199.361C124.984 199.14 125.27 198.699 125.23 198.214C125.21 197.691 124.713 197.34 124.326 197.277C123.921 197.187 123.557 197.213 123.214 197.228C122.524 197.271 121.915 197.408 121.42 197.567C120.429 197.89 119.906 198.279 119.931 198.32Z" fill="#132529"/>
<path fill-rule="evenodd" clip-rule="evenodd" d="M104.731 212.863C104.759 212.901 105.139 212.619 105.323 211.927C105.525 211.252 105.398 210.215 104.87 209.306C104.618 208.848 104.328 208.451 104.061 208.1C103.796 207.749 103.522 207.432 103.24 207.22C102.96 207.003 102.668 206.905 102.467 206.898C102.265 206.889 102.162 206.939 102.165 206.963C102.166 207.03 102.597 206.998 103.044 207.451C103.272 207.667 103.497 207.97 103.741 208.332C103.989 208.691 104.259 209.082 104.495 209.511C104.985 210.363 105.131 211.244 105.027 211.867C104.939 212.491 104.675 212.822 104.731 212.863Z" fill="#272727"/>
<path fill-rule="evenodd" clip-rule="evenodd" d="M113.409 206.385C113.521 206.396 113.487 205.17 112.558 204.071C111.641 202.96 110.44 202.708 110.431 202.82C110.385 202.939 111.408 203.34 112.23 204.344C113.072 205.332 113.284 206.41 113.409 206.385Z" fill="#272727"/>
<path fill-rule="evenodd" clip-rule="evenodd" d="M130.75 202.099C130.729 202.074 130.358 202.346 129.687 202.827C129.007 203.297 128.008 203.956 126.707 204.652C125.407 205.349 123.802 206.073 121.973 206.758C120.142 207.439 118.089 208.083 115.919 208.711C111.57 209.963 107.633 211.106 104.792 211.96C103.43 212.378 102.299 212.724 101.434 212.991C100.643 213.243 100.21 213.396 100.218 213.424C100.226 213.453 100.675 213.354 101.479 213.151C102.355 212.918 103.498 212.615 104.876 212.25C107.739 211.471 111.686 210.374 116.039 209.121C118.214 208.491 120.276 207.834 122.113 207.126C123.949 206.416 125.558 205.655 126.853 204.917C128.149 204.179 129.133 203.475 129.786 202.96C130.432 202.435 130.767 202.118 130.75 202.099Z" fill="#272727"/>
<path fill-rule="evenodd" clip-rule="evenodd" d="M131.646 202.424C131.658 202.376 130.897 202.094 129.598 201.879C128.321 201.679 126.385 201.574 124.518 202.499C123.593 202.957 122.859 203.655 122.343 204.365C121.819 205.076 121.471 205.786 121.21 206.387C120.701 207.596 120.492 208.374 120.539 208.393C120.6 208.419 120.913 207.672 121.484 206.515C122.059 205.39 122.966 203.745 124.71 202.881C126.448 202.016 128.296 202.057 129.559 202.178C130.841 202.313 131.631 202.49 131.646 202.424Z" fill="#272727"/>
<path fill-rule="evenodd" clip-rule="evenodd" d="M174.494 152.876C174.494 152.876 181.746 155.463 181.777 163.588C181.835 179.151 150.307 196.305 150.307 196.305L108.35 168.528L105.721 167.465C105.721 167.465 162.358 146.207 174.494 152.876Z" fill="#07377E" stroke="#272727"/>
<path fill-rule="evenodd" clip-rule="evenodd" d="M129.603 182.558C129.621 182.581 130.009 182.317 130.696 181.817C131.384 181.32 132.365 180.581 133.565 179.652C135.968 177.797 139.236 175.167 142.752 172.153C146.268 169.135 149.364 166.304 151.562 164.211C152.662 163.166 153.542 162.309 154.138 161.705C154.736 161.102 155.057 160.759 155.036 160.738C155.016 160.717 154.656 161.019 154.024 161.584C153.338 162.203 152.44 163.012 151.357 163.99C149.108 166.024 145.985 168.815 142.473 171.828C138.962 174.839 135.73 177.502 133.377 179.415C132.247 180.338 131.309 181.103 130.594 181.686C129.939 182.225 129.585 182.535 129.603 182.558Z" fill="#272727"/>
<path fill-rule="evenodd" clip-rule="evenodd" d="M162.65 158.693C162.666 158.588 160.794 158.406 158.607 159.06C156.413 159.698 154.942 160.866 155.012 160.946C155.082 161.057 156.611 160.083 158.728 159.47C160.838 158.836 162.652 158.824 162.65 158.693Z" fill="white"/>
<path fill-rule="evenodd" clip-rule="evenodd" d="M159.036 156.24C158.998 156.139 157.654 156.73 156.549 158.109C155.431 159.48 155.137 160.918 155.243 160.933C155.366 160.976 155.824 159.67 156.882 158.378C157.922 157.074 159.103 156.351 159.036 156.24Z" fill="white"/>
<path fill-rule="evenodd" clip-rule="evenodd" d="M176.802 205.518C176.823 205.469 176.301 205.368 175.72 205.845C175.148 206.302 174.663 207.214 174.507 208.279C174.35 209.351 174.588 210.336 174.889 210.962C175.187 211.599 175.513 211.898 175.55 211.868C175.607 211.828 175.377 211.475 175.17 210.849C174.956 210.232 174.786 209.322 174.931 208.339C175.074 207.361 175.476 206.515 175.923 206.07C176.368 205.603 176.81 205.585 176.802 205.518Z" fill="#272727"/>
<path fill-rule="evenodd" clip-rule="evenodd" d="M159.559 162.899C158.877 164.735 157.113 165.944 155.153 165.918L89.4502 165.054V160.065L113.831 160.955L124.182 128.884C124.532 127.801 125.543 127.067 126.683 127.07L169.065 127.193C170.91 127.198 172.172 129.056 171.495 130.771L159.559 162.899Z" fill="#146BFF" stroke="#0E0E0E"/>
<path fill-rule="evenodd" clip-rule="evenodd" d="M171.495 130.771C171.495 130.771 171.502 130.736 171.523 130.669C171.538 130.602 171.582 130.506 171.605 130.371C171.666 130.106 171.71 129.686 171.578 129.165C171.441 128.655 171.101 128.027 170.424 127.612C170.092 127.406 169.683 127.262 169.231 127.236C168.779 127.215 168.288 127.229 167.772 127.225C163.629 127.221 157.616 127.213 150.09 127.204C146.324 127.197 142.178 127.19 137.702 127.181C135.462 127.176 133.14 127.171 130.741 127.166C129.542 127.164 128.322 127.162 127.085 127.158C126.464 127.127 125.857 127.206 125.336 127.542C124.821 127.866 124.423 128.376 124.248 128.971C121.122 138.669 117.645 149.457 113.929 160.986L113.905 161.06L113.827 161.057C106.052 160.775 97.8618 160.476 89.4464 160.171L89.5562 160.065C89.5562 160.346 89.5562 160.65 89.5562 160.955C89.5562 162.359 89.5562 163.757 89.5562 165.054L89.4518 164.948C104.15 165.144 118.104 165.331 130.769 165.501C137.101 165.587 143.11 165.669 148.73 165.747C150.134 165.766 151.514 165.785 152.869 165.805C153.546 165.814 154.217 165.823 154.882 165.833C155.543 165.86 156.189 165.781 156.792 165.553C157.995 165.112 158.969 164.161 159.425 163.021C159.862 161.853 160.29 160.711 160.707 159.596C164.038 150.673 166.726 143.468 168.588 138.482C169.518 136.001 170.24 134.076 170.734 132.759C171.226 131.452 171.495 130.771 171.495 130.771C171.495 130.771 171.253 131.463 170.773 132.774C170.287 134.094 169.577 136.024 168.663 138.51C166.816 143.502 164.149 150.715 160.846 159.648C160.429 160.765 160.003 161.91 159.568 163.079C159.097 164.259 158.092 165.245 156.848 165.705C156.229 165.942 155.545 166.024 154.88 165.997C154.215 165.988 153.544 165.98 152.867 165.971C151.512 165.955 150.132 165.938 148.727 165.919C143.108 165.849 137.098 165.774 130.766 165.693C118.101 165.53 104.147 165.35 89.4491 165.159L89.3447 165.158V165.054C89.3447 163.757 89.3447 162.359 89.3447 160.955C89.3447 160.65 89.3447 160.346 89.3447 160.065V159.955L89.4546 159.959C97.87 160.268 106.06 160.567 113.835 160.852L113.733 160.923C117.459 149.396 120.944 138.611 124.078 128.916C124.264 128.288 124.692 127.736 125.242 127.393C125.789 127.034 126.477 126.95 127.086 126.985C128.323 126.99 129.542 126.994 130.742 126.998C133.141 127.007 135.463 127.015 137.702 127.024C142.179 127.041 146.324 127.057 150.091 127.072C157.616 127.107 163.629 127.135 167.772 127.154C168.29 127.162 168.775 127.149 169.235 127.173C169.697 127.203 170.115 127.353 170.453 127.565C171.141 127.994 171.479 128.636 171.613 129.155C171.742 129.685 171.69 130.109 171.622 130.375C171.554 130.642 171.495 130.771 171.495 130.771Z" fill="#0E0E0E"/>
<path fill-rule="evenodd" clip-rule="evenodd" d="M142.359 142.92C143.212 142.343 144.787 142.574 145.553 143.26C146.32 143.947 146.568 145.136 146.179 146.088C145.789 147.04 144.807 147.708 143.78 147.763C142.687 147.822 141.549 147.138 141.244 146.089C140.937 145.039 141.276 143.473 142.359 142.92Z" fill="white" stroke="#0E0E0E"/>
<path fill-rule="evenodd" clip-rule="evenodd" d="M157.381 198.055C157.381 198.055 98.168 160.158 95.5538 158.67C93.3308 157.406 87.3811 153.746 81.5155 155.362C75.6499 156.979 70.3903 162.235 67.7605 169.915C66.2582 174.302 65.5484 181.79 65.2155 187.403C64.8175 194.117 66.8975 200.809 71.2927 205.903C73.2919 208.221 75.7577 210.236 78.6837 211.146C79.3006 211.338 79.9413 211.504 80.5989 211.646C91.8075 214.075 103.325 209.047 109.622 199.47L111.005 197.367C111.005 197.367 149.783 211.602 150.391 211.4L157.381 198.055Z" fill="#07377E" stroke="#272727"/>
<path fill-rule="evenodd" clip-rule="evenodd" d="M98.6111 160.77C98.6075 160.774 98.5573 160.745 98.4624 160.683C98.3519 160.607 98.2156 160.514 98.0482 160.4C97.6855 160.15 97.1512 159.779 96.4475 159.328C95.0428 158.433 92.9629 157.156 90.1595 156.135C88.7596 155.637 87.163 155.234 85.4234 155.137C83.6858 155.064 81.8058 155.323 79.9753 156.026C78.1408 156.713 76.3605 157.806 74.7415 159.199C73.9307 159.893 73.1477 160.657 72.4168 161.48C71.6948 162.306 71.0575 163.231 70.4942 164.213C69.3688 166.18 68.5356 168.254 67.9403 170.308C67.3817 172.372 66.9349 174.412 66.5098 176.337C65.6651 180.198 65.2089 183.734 65.1465 186.718C65.099 189.703 65.3994 192.111 65.6848 193.754C65.8149 194.579 65.9621 195.212 66.0509 195.643C66.0902 195.842 66.1221 196.004 66.1478 196.135C66.1675 196.246 66.1749 196.304 66.1688 196.305C66.1627 196.307 66.1438 196.252 66.1126 196.144C66.0773 196.015 66.0346 195.856 65.9817 195.66C65.8705 195.233 65.7011 194.604 65.5499 193.779C65.2217 192.137 64.8814 189.719 64.897 186.715C64.9275 183.711 65.3614 180.145 66.1912 176.27C66.6115 174.33 67.0461 172.307 67.6075 170.213C68.2068 168.132 69.0447 166.035 70.1884 164.036C70.7606 163.039 71.4108 162.096 72.1524 161.249C72.9002 160.409 73.6907 159.64 74.5171 158.936C76.1646 157.525 77.9835 156.415 79.8614 155.721C81.736 155.011 83.6614 154.757 85.4383 154.846C87.2172 154.957 88.8341 155.381 90.2443 155.9C93.0679 156.963 95.137 158.28 96.5241 159.214C97.2184 159.684 97.7411 160.073 98.0902 160.342C98.2495 160.469 98.379 160.57 98.4841 160.654C98.5715 160.725 98.6149 160.764 98.6111 160.77Z" fill="#272727"/>
<path fill-rule="evenodd" clip-rule="evenodd" d="M84.043 187.361C84.043 187.361 84.1508 187.416 84.3684 187.504C84.603 187.597 84.9243 187.725 85.3385 187.889C86.2138 188.226 87.4754 188.712 89.0971 189.335C92.394 190.576 97.1498 192.366 103.063 194.593C108.996 196.804 116.103 199.434 124.075 202.332C132.049 205.229 140.886 208.408 150.322 211.601L150.494 211.659L150.579 211.498C152.06 208.671 153.623 205.688 155.21 202.661C156.018 201.116 156.82 199.585 157.57 198.154L157.66 197.981L157.496 197.876C139.696 186.585 123.772 176.484 112.279 169.194C106.54 165.578 101.91 162.659 98.6962 160.634C97.1051 159.642 95.8658 158.869 95.0068 158.333C94.596 158.082 94.276 157.886 94.0441 157.745C93.8258 157.615 93.7085 157.557 93.7085 157.557C93.7085 157.557 93.8116 157.639 94.0217 157.781C94.2482 157.931 94.5607 158.137 94.9634 158.403C95.8122 158.953 97.0373 159.749 98.6108 160.77C101.807 162.821 106.414 165.778 112.122 169.442C123.595 176.759 139.494 186.899 157.265 198.235L157.192 197.956C156.442 199.387 155.639 200.918 154.831 202.463C153.246 205.49 151.683 208.474 150.202 211.302L150.457 211.199C141.026 208.015 132.185 204.851 124.204 201.978C116.236 199.081 109.117 196.492 103.162 194.326C97.2298 192.152 92.4584 190.403 89.1513 189.19C87.5175 188.597 86.247 188.135 85.367 187.815C84.946 187.666 84.6199 187.55 84.3819 187.466C84.1603 187.391 84.043 187.361 84.043 187.361Z" fill="#272727"/>
<path fill-rule="evenodd" clip-rule="evenodd" d="M119.016 143.26C119.016 143.425 113.034 143.559 105.656 143.559C98.276 143.559 92.2944 143.425 92.2944 143.26C92.2944 143.097 98.276 142.964 105.656 142.964C113.034 142.964 119.016 143.097 119.016 143.26Z" fill="#02A7E9"/>
<path fill-rule="evenodd" clip-rule="evenodd" d="M83.872 87.4081C83.0653 93.2703 87.3286 98.6133 93.223 99.1298C98.7242 99.6118 103.635 95.6849 104.383 90.2138C104.737 87.6189 105.038 85.4551 105.092 85.1914C105.092 85.1914 113.98 85.5731 115.809 76.9757C116.693 72.821 117.816 64.1151 118.741 56.2274C119.734 47.7561 114.046 39.945 105.681 38.2734L104.849 38.1073C95.7767 36.8397 89.6322 43.836 88.6153 52.9391L83.872 87.4081Z" fill="#F4F8FF" stroke="#272727"/>
<path fill-rule="evenodd" clip-rule="evenodd" d="M107.21 33.9248C107.424 34.0162 107.636 34.1105 107.849 34.2062L108.104 34.3217C108.274 34.3989 108.444 34.4767 108.614 34.5541L108.869 34.6699C110.103 35.2277 111.35 35.7477 112.685 35.9232C114.064 36.1035 115.461 35.9042 116.851 35.934C118.242 35.9639 119.718 36.2709 120.696 37.2593C121.674 38.2469 121.881 40.0704 120.821 40.9699C123.253 40.5578 125.543 42.9852 125.513 45.4513C125.48 47.9174 123.622 50.0886 121.379 51.1143C119.135 52.1399 116.575 52.207 114.116 52.0158C107.633 51.5108 101.121 49.1812 96.4285 44.722C96.3591 44.7823 96.29 44.8436 96.2213 44.9055L96.1124 45.0042C96.0219 45.0869 95.932 45.1703 95.8427 45.2539L95.7359 45.3543L95.6295 45.4546L95.5237 45.5547C95.2597 45.8045 95.0003 46.0496 94.7436 46.2743C95.534 50.9875 93.438 55.6526 91.3954 59.9733C91.1697 60.4506 90.9121 60.9624 90.4376 61.1955C89.6336 61.5928 88.6736 60.9651 88.1937 60.2079C88.1108 60.0774 88.0357 59.9433 87.9679 59.8063L87.1151 61.6497C86.0813 59.6188 85.0394 57.5662 84.4835 55.3557C83.9283 53.1458 83.8924 50.7319 84.8354 48.6577C85.3858 47.4443 86.2522 46.3807 86.6854 45.1199C86.891 44.5208 86.9965 43.8845 87.0908 43.2469L87.1204 43.0455C87.2867 41.9047 87.4472 40.7718 88.111 39.8528C89.202 38.3428 91.1013 38.0432 93.0098 37.6842L93.186 37.6509C93.2153 37.6453 93.2447 37.6397 93.274 37.634L93.45 37.5997C94.3293 37.4264 95.1975 37.2196 95.976 36.8546C96.8914 36.4255 97.6819 35.7716 98.4701 35.1211L98.6672 34.9587C99.5546 34.2294 100.452 33.5286 101.535 33.1812C103.392 32.586 105.417 33.1568 107.21 33.9248Z" fill="#303030" stroke="#272727"/>
<path fill-rule="evenodd" clip-rule="evenodd" d="M123.126 43.1263C123.022 43.4815 122.747 43.9716 122.237 44.4027C121.736 44.842 120.978 45.1795 120.104 45.2758C119.23 45.3836 118.264 45.2771 117.275 45.1287C115.29 44.8359 113.514 44.4434 112.243 44.1126C111.607 43.9472 111.096 43.8007 110.745 43.693C110.602 43.6475 110.469 43.6055 110.342 43.5648C110.25 43.5337 110.203 43.5154 110.205 43.5106C110.205 43.5059 110.256 43.5154 110.35 43.5371C110.479 43.5696 110.614 43.6042 110.76 43.6401C111.196 43.7492 111.697 43.874 112.267 44.0156C113.542 44.3213 115.317 44.6976 117.296 44.9891C118.283 45.1375 119.234 45.2453 120.089 45.1463C120.944 45.0589 121.676 44.743 122.174 44.3261C122.677 43.9167 122.957 43.4503 123.074 43.1093C123.196 42.7663 123.201 42.5596 123.218 42.5616C123.218 42.5616 123.234 42.7704 123.126 43.1263Z" fill="#FFFFFE"/>
<path fill-rule="evenodd" clip-rule="evenodd" d="M124.024 45.5286C123.589 46.4817 122.692 47.7188 121.296 48.5553C119.896 49.3904 118.382 49.5938 117.337 49.5267C116.278 49.467 115.668 49.2067 115.668 49.2067C115.671 49.1952 115.829 49.2345 116.115 49.2915C116.401 49.3491 116.82 49.4108 117.341 49.427C118.373 49.467 119.854 49.2515 121.223 48.4346C122.591 47.6151 123.481 46.4139 123.934 45.4852C124.166 45.0188 124.311 44.6209 124.395 44.341C124.481 44.0617 124.521 43.9044 124.532 43.9071C124.532 43.9071 124.472 44.5681 124.024 45.5286Z" fill="#FFFFFE"/>
<path fill-rule="evenodd" clip-rule="evenodd" d="M105.13 85.0695C105.13 85.0695 99.5945 84.4248 94.5312 79.6316C94.5312 79.6316 95.9481 86.3649 104.705 87.3071L105.13 85.0695Z" fill="#272727"/>
<path fill-rule="evenodd" clip-rule="evenodd" d="M114.876 63.5545C114.769 64.2093 114.127 64.6588 113.441 64.5591C112.756 64.4602 112.287 63.8507 112.393 63.1959C112.501 62.5418 113.143 62.0917 113.827 62.1906C114.513 62.2896 114.982 62.9004 114.876 63.5545Z" fill="#272727"/>
<path fill-rule="evenodd" clip-rule="evenodd" d="M116.045 60.0872C115.86 60.2167 115.065 59.3402 113.739 59.0799C112.419 58.7999 111.311 59.2866 111.2 59.0962C111.143 59.0101 111.358 58.7511 111.842 58.5281C112.32 58.3044 113.09 58.1478 113.915 58.3159C114.739 58.4854 115.373 58.928 115.709 59.3185C116.053 59.7123 116.134 60.0303 116.045 60.0872Z" fill="#272727"/>
<path fill-rule="evenodd" clip-rule="evenodd" d="M105.819 68.5158C105.828 68.4392 106.68 68.4616 108.048 68.5579C108.394 68.5904 108.726 68.587 108.829 68.3674C108.958 68.1389 108.89 67.7465 108.804 67.3201C108.65 66.4382 108.489 65.5136 108.318 64.5449C107.662 60.6004 107.259 57.3845 107.418 57.3595C107.577 57.3344 108.238 60.5109 108.895 64.4554C109.048 65.4261 109.196 66.3521 109.335 67.2374C109.386 67.6475 109.52 68.1274 109.245 68.5999C109.104 68.8344 108.819 68.9687 108.591 68.9836C108.361 69.0066 108.17 68.9721 108 68.9483C106.643 68.7524 105.809 68.5918 105.819 68.5158Z" fill="#272727"/>
<path fill-rule="evenodd" clip-rule="evenodd" d="M101.738 68.6535C101.956 68.684 101.671 70.1217 102.698 71.388C103.721 72.657 105.287 72.802 105.258 73.0054C105.26 73.0996 104.861 73.2169 104.21 73.105C103.571 73 102.686 72.6109 102.057 71.8367C101.431 71.0599 101.276 70.161 101.344 69.5618C101.41 68.949 101.642 68.625 101.738 68.6535Z" fill="#272727"/>
<path fill-rule="evenodd" clip-rule="evenodd" d="M104.354 52.6103C104.151 52.9445 102.863 52.5093 101.271 52.3866C99.6825 52.2314 98.3389 52.4354 98.1972 52.0714C98.1355 51.8986 98.4223 51.6037 98.9978 51.3563C99.57 51.1082 100.437 50.9373 101.391 51.02C102.345 51.1048 103.169 51.4234 103.689 51.767C104.214 52.11 104.444 52.451 104.354 52.6103Z" fill="#272727"/>
<path fill-rule="evenodd" clip-rule="evenodd" d="M116.323 56.1569C116.03 56.4111 115.18 55.9163 114.085 55.6824C113 55.4099 112.018 55.4797 111.868 55.1218C111.805 54.951 112.012 54.6785 112.474 54.4751C112.931 54.2711 113.647 54.1728 114.396 54.3463C115.145 54.5212 115.744 54.9239 116.064 55.3082C116.39 55.6946 116.455 56.0301 116.323 56.1569Z" fill="#272727"/>
<path d="M81.7288 62.4982L81.7288 62.4982C81.9695 61.0549 82.4747 60.1803 83.0698 59.6629C83.6645 59.1459 84.3783 58.9598 85.0867 58.9508C85.7977 58.9417 86.4908 59.1116 87.0196 59.2932C87.2829 59.3837 87.5025 59.476 87.6594 59.548C87.7014 59.5673 87.7379 59.5847 87.7689 59.5998L87.7401 59.7828L87.5906 60.7319C87.4667 61.5181 87.3011 62.5681 87.1343 63.6233C86.9675 64.6785 86.7995 65.7389 86.6708 66.546C86.6064 66.9495 86.5519 67.2895 86.5123 67.5338C86.4958 67.6359 86.4819 67.721 86.471 67.787C86.4495 67.7891 86.4253 67.7911 86.3984 67.7928C86.2418 67.8027 86.0143 67.8027 85.7412 67.7799C85.1941 67.7342 84.4822 67.5985 83.8058 67.283C83.1312 66.9683 82.4998 66.479 82.0926 65.7276C81.6859 64.9771 81.4884 63.9385 81.7288 62.4982Z" fill="#F4F8FF" stroke="black" stroke-width="0.5"/>
<path fill-rule="evenodd" clip-rule="evenodd" d="M85.2525 65.4397C85.2301 65.4166 85.1372 65.4953 84.9494 65.5461C84.7657 65.5949 84.4647 65.6003 84.1746 65.4329C83.5862 65.0987 83.2249 64.0155 83.374 62.9424C83.4492 62.4001 83.6479 61.9053 83.9095 61.5114C84.1631 61.1074 84.4946 60.8512 84.8193 60.8485C85.1454 60.8281 85.3372 61.0539 85.3813 61.2328C85.4335 61.4118 85.3758 61.5243 85.4057 61.5399C85.4199 61.5568 85.5494 61.4613 85.5433 61.2084C85.5385 61.0871 85.4918 60.9352 85.3718 60.7983C85.2484 60.6587 85.0491 60.5651 84.8254 60.5522C84.3624 60.5075 83.8811 60.8593 83.593 61.2911C83.2798 61.7209 83.0432 62.2754 82.9591 62.8841C82.7978 64.0853 83.2228 65.3055 84.039 65.6966C84.4383 65.8749 84.8071 65.8071 85.0098 65.6973C85.2179 65.5814 85.2714 65.4539 85.2525 65.4397Z" fill="#272727"/>
<path fill-rule="evenodd" clip-rule="evenodd" d="M108.384 62.5567C108.435 62.5587 108.417 62.0449 108.654 61.1779C108.888 60.3272 109.47 59.084 110.753 58.1302C111.992 57.173 114.031 56.6396 116.001 57.375C116.972 57.7269 117.897 58.3891 118.554 59.3036C119.229 60.2058 119.609 61.3623 119.621 62.5553C119.61 63.7491 119.23 64.9055 118.554 65.8084C117.897 66.7235 116.972 67.3858 116.001 67.7376C114.031 68.4738 111.992 67.939 110.753 66.9818C109.47 66.028 108.888 64.7848 108.654 63.9341C108.417 63.0671 108.435 62.554 108.384 62.5567C108.367 62.5567 108.357 62.6821 108.354 62.9254C108.346 63.1668 108.374 63.5281 108.473 63.9802C108.659 64.8716 109.215 66.2029 110.547 67.2516C111.834 68.3023 114.012 68.9239 116.152 68.1532C117.206 67.7837 118.214 67.0747 118.933 66.0863C119.67 65.1116 120.09 63.8514 120.1 62.5553C120.089 61.2599 119.67 60.0004 118.933 59.0257C118.214 58.038 117.206 57.3283 116.152 56.9595C114.013 56.1888 111.834 56.8104 110.548 57.8604C109.215 58.9097 108.659 60.2411 108.473 61.1325C108.374 61.5846 108.346 61.9452 108.354 62.1879C108.357 62.4306 108.367 62.5567 108.384 62.5567Z" fill="#272727"/>
<path fill-rule="evenodd" clip-rule="evenodd" d="M94.3175 60.1001C94.3677 60.1028 94.35 59.589 94.5866 58.722C94.8212 57.8713 95.4035 56.6281 96.6861 55.6743C97.9253 54.7172 99.9638 54.1837 101.934 54.9185C102.905 55.271 103.831 55.9333 104.487 56.8477C105.163 57.75 105.542 58.9064 105.554 60.0994C105.543 61.2925 105.163 62.4496 104.487 63.3519C103.831 64.267 102.905 64.9299 101.934 65.2818C99.9638 66.0172 97.9253 65.4831 96.6861 64.5259C95.4028 63.5722 94.8212 62.329 94.5866 61.4782C94.35 60.6112 94.3677 60.0974 94.3175 60.1001C94.3005 60.1001 94.2911 60.2262 94.2877 60.4689C94.2789 60.7109 94.3066 61.0715 94.4063 61.5236C94.592 62.415 95.1479 63.7464 96.48 64.7957C97.7673 65.8457 99.9461 66.468 102.086 65.6966C103.139 65.3279 104.147 64.6188 104.866 63.6305C105.604 62.6557 106.023 61.3955 106.033 60.0994C106.023 58.8034 105.603 57.5446 104.866 56.5698C104.147 55.5814 103.139 54.8724 102.086 54.5036C99.9461 53.7322 97.768 54.3545 96.4807 55.4045C95.1479 56.4532 94.592 57.7845 94.4063 58.6766C94.3066 59.1287 94.2789 59.4894 94.2877 59.7314C94.2911 59.974 94.3005 60.1001 94.3175 60.1001Z" fill="#272727"/>
<path fill-rule="evenodd" clip-rule="evenodd" d="M105.906 60.2994C105.965 60.4194 106.72 60.0669 107.596 60.3354C108.476 60.595 108.91 61.3054 109.026 61.2383C109.082 61.2118 109.054 60.9868 108.856 60.6878C108.663 60.3923 108.274 60.0384 107.735 59.8758C107.196 59.7144 106.675 59.7951 106.352 59.9347C106.022 60.0744 105.874 60.2472 105.906 60.2994Z" fill="#272727"/>
<path fill-rule="evenodd" clip-rule="evenodd" d="M102.521 61.4219C102.414 62.0768 101.772 62.5262 101.086 62.4266C100.402 62.3283 99.9325 61.7182 100.04 61.0634C100.147 60.4092 100.789 59.9591 101.474 60.0581C102.159 60.157 102.629 60.7678 102.521 61.4219Z" fill="#272727"/>
<path fill-rule="evenodd" clip-rule="evenodd" d="M102.974 57.733C102.79 57.8625 101.993 56.986 100.669 56.7257C99.3495 56.4457 98.2411 56.9324 98.13 56.7413C98.0737 56.6559 98.2852 56.3969 98.7719 56.1739C99.2498 55.9495 100.02 55.7936 100.845 55.9617C101.669 56.1312 102.302 56.5732 102.639 56.9643C102.982 57.3582 103.064 57.6761 102.974 57.733Z" fill="#272727"/>
<path fill-rule="evenodd" clip-rule="evenodd" d="M86.3477 58.581C86.3497 58.7132 88.241 58.7938 90.5717 58.7613C92.903 58.7288 94.7903 58.5945 94.7882 58.4624C94.7869 58.3302 92.8955 58.2495 90.5649 58.2821C88.2336 58.3146 86.3456 58.4488 86.3477 58.581Z" fill="#272727"/>
</svg>
