<svg width="133" height="82" viewBox="0 0 133 82" fill="none" xmlns="http://www.w3.org/2000/svg">
<path fill-rule="evenodd" clip-rule="evenodd" d="M1.10352 80.7453H132.395V0.55658H1.10352V80.7453Z" fill="white"/>
<path fill-rule="evenodd" clip-rule="evenodd" d="M1.47806 80.3712H132.019V0.93071H1.47806V80.3712ZM0.782227 81.066H132.715V0.23584H0.782227V81.066Z" fill="#146BFF"/>
<path fill-rule="evenodd" clip-rule="evenodd" d="M17.6353 69.0378H25.1789V55.2453H17.6353V69.0378Z" fill="#CADEFF"/>
<path fill-rule="evenodd" clip-rule="evenodd" d="M32.7222 69.1981H40.2658V48.9905H32.7222V69.1981Z" fill="#CADEFF"/>
<path fill-rule="evenodd" clip-rule="evenodd" d="M47.8096 69.1981H55.3532V54.1226H47.8096V69.1981Z" fill="#CADEFF"/>
<path fill-rule="evenodd" clip-rule="evenodd" d="M62.8965 69.1981H70.4401V43.5377H62.8965V69.1981Z" fill="#CADEFF"/>
<path fill-rule="evenodd" clip-rule="evenodd" d="M77.9839 69.1981H85.5275V36.8019H77.9839V69.1981Z" fill="#CADEFF"/>
<path fill-rule="evenodd" clip-rule="evenodd" d="M93.0713 69.1981H100.615V27.1793H93.0713V69.1981Z" fill="#CADEFF"/>
<path fill-rule="evenodd" clip-rule="evenodd" d="M108.319 69.1981H115.862V12.2642H108.319V69.1981Z" fill="#CADEFF"/>
<path fill-rule="evenodd" clip-rule="evenodd" d="M17.6353 25.7358H23.5738V19H17.6353V25.7358Z" fill="#CADEFF"/>
<path fill-rule="evenodd" clip-rule="evenodd" d="M32.8828 23.8113H73.4899V22.0472H32.8828V23.8113Z" fill="#CADEFF"/>
</svg>
