<svg width="438" height="373" viewBox="0 0 438 373" fill="none" xmlns="http://www.w3.org/2000/svg">
<path fill-rule="evenodd" clip-rule="evenodd" d="M415.049 269.915C410.2 269.915 405.701 268.414 401.995 265.848C402.768 265.095 403.533 264.316 404.271 263.53L403.764 263.054C403.005 263.863 402.217 264.664 401.422 265.437C395.763 261.261 392.096 254.55 392.096 246.983C392.096 234.317 402.373 224.047 415.049 224.047C427.725 224.047 437.999 234.317 437.999 246.983C437.999 259.649 427.725 269.915 415.049 269.915ZM408.26 257.794C407.556 258.701 406.822 259.601 406.074 260.477L406.602 260.927C407.356 260.043 408.099 259.134 408.808 258.22L408.26 257.794ZM412.244 252.137C411.63 253.104 410.981 254.072 410.319 255.011L410.887 255.412C411.554 254.464 412.208 253.485 412.832 252.509L412.244 252.137ZM415.678 246.126C415.155 247.152 414.601 248.175 414.033 249.171L414.634 249.518C415.21 248.512 415.77 247.478 416.298 246.441L415.678 246.126ZM418.532 239.816C418.109 240.881 417.656 241.954 417.18 243.004L417.814 243.291C418.293 242.229 418.752 241.147 419.181 240.072L418.532 239.816ZM420.772 233.266C420.452 234.37 420.101 235.479 419.731 236.563L420.391 236.788C420.764 235.693 421.12 234.573 421.442 233.461L420.772 233.266ZM422.38 226.544C422.166 227.673 421.924 228.81 421.657 229.924L422.333 230.086C422.603 228.96 422.847 227.812 423.064 226.672L422.38 226.544Z" fill="#F5F5FF"/>
<path fill-rule="evenodd" clip-rule="evenodd" d="M37.0952 121.887C17.7544 121.887 2.07617 106.197 2.07617 86.8443C2.07617 67.4909 17.7544 51.8018 37.0952 51.8018C51.7152 51.8018 64.2427 60.7675 69.4872 73.5033H51.5324C46.9448 73.5033 43.2126 77.2379 43.2126 81.8286V121.354C41.2259 121.704 39.1824 121.887 37.0952 121.887Z" fill="#F5F5FF"/>
<path fill-rule="evenodd" clip-rule="evenodd" d="M158.248 53.2452C150.892 53.2452 143.957 48.7804 141.165 41.5075C137.547 32.0822 142.261 21.511 151.694 17.8961C153.848 17.0706 156.063 16.6792 158.241 16.6792C165.597 16.6792 172.532 21.1443 175.324 28.4166C178.941 37.8423 174.228 48.4132 164.795 52.028C162.641 52.8538 160.426 53.2452 158.248 53.2452Z" fill="#F5F5FF"/>
<path fill-rule="evenodd" clip-rule="evenodd" d="M136.954 1.21169C135.844 0.949457 134.706 0.775562 133.57 0.695024L133.619 0C134.792 0.0833248 135.968 0.262794 137.114 0.533948L136.954 1.21169ZM126.775 1.31648L126.601 0.641796C127.743 0.346955 128.915 0.143241 130.084 0.0362282L130.148 0.729859C129.015 0.833527 127.881 1.03083 126.775 1.31648ZM143.26 3.8204C142.29 3.22292 141.264 2.699 140.211 2.26315L140.477 1.6194C141.565 2.06919 142.624 2.6101 143.625 3.2271L143.26 3.8204ZM120.523 4.05115L120.145 3.46537C121.131 2.82998 122.179 2.26816 123.26 1.79608L123.539 2.43453C122.492 2.89185 121.477 3.43583 120.523 4.05115ZM148.419 8.28344C147.689 7.41006 146.882 6.58935 146.02 5.84333L146.475 5.31663C147.366 6.08661 148.2 6.93463 148.953 7.83644L148.419 8.28344ZM115.46 8.62314L114.916 8.18813C115.651 7.26821 116.467 6.40236 117.339 5.61481L117.805 6.13176C116.961 6.8945 116.172 7.73277 115.46 8.62314ZM151.894 14.1555C151.476 13.0909 150.971 12.0559 150.393 11.0789L150.993 10.7241C151.589 11.7332 152.11 12.8019 152.542 13.9008L151.894 14.1555ZM112.103 14.5651L111.45 14.3235C111.858 13.2202 112.358 12.1412 112.937 11.1168L113.543 11.4593C112.983 12.4516 112.499 13.4964 112.103 14.5651ZM152.925 17.6027C152.693 16.4919 152.367 15.3869 151.957 14.3182L152.607 14.0685C153.03 15.1721 153.367 16.313 153.607 17.4598L152.925 17.6027ZM110.79 21.2626L110.094 21.24C110.132 20.0651 110.266 18.883 110.493 17.7267L111.177 17.8611C110.957 18.9805 110.827 20.1248 110.79 21.2626ZM153.921 24.502L153.229 24.4203C153.326 23.5996 153.375 22.765 153.375 21.9401C153.375 21.6274 153.368 21.3105 153.354 20.999L154.05 20.9678C154.064 21.2899 154.071 21.6168 154.071 21.9401C154.071 22.7923 154.021 23.6542 153.921 24.502ZM111.005 28.2307C110.666 27.1004 110.418 25.9372 110.266 24.7731L110.956 24.6828C111.103 25.8101 111.344 26.9365 111.672 28.0309L111.005 28.2307ZM151.986 31.2791L151.356 30.9837C151.84 29.951 152.243 28.8722 152.556 27.7773L153.226 27.9684C152.903 29.099 152.486 30.2129 151.986 31.2791ZM114.07 34.5759C113.397 33.6139 112.796 32.5878 112.283 31.526L112.911 31.2231C113.407 32.2514 113.989 33.2447 114.641 34.1763L114.07 34.5759ZM148.017 37.1013L147.512 36.6217C148.295 35.7965 149.018 34.9003 149.661 33.9578L150.236 34.3502C149.573 35.3233 148.826 36.2491 148.017 37.1013ZM118.989 39.6211C118.043 38.9211 117.146 38.1396 116.326 37.2983L116.824 36.8117C117.619 37.6263 118.487 38.3829 119.404 39.061L118.989 39.6211ZM142.405 41.3628L142.079 40.7475C143.087 40.2125 144.057 39.5924 144.963 38.9052L145.384 39.46C144.449 40.1701 143.447 40.8102 142.405 41.3628ZM125.251 42.8518C124.133 42.4859 123.036 42.0269 121.99 41.4877L122.31 40.8685C123.322 41.3907 124.385 41.8355 125.468 42.1897L125.251 42.8518ZM135.735 43.6352L135.619 42.9482C136.738 42.7585 137.854 42.475 138.936 42.1058L139.161 42.7651C138.043 43.1464 136.891 43.439 135.735 43.6352ZM132.08 43.9434C130.95 43.9434 129.808 43.8542 128.688 43.6784L128.796 42.9903C129.88 43.1606 130.986 43.2467 132.081 43.2467L132.209 43.2464L132.213 43.9431L132.08 43.9434Z" fill="#146BFF"/>
<path fill-rule="evenodd" clip-rule="evenodd" d="M353.174 139.323C352.164 139.282 351.137 139.261 350.126 139.261C349.987 139.261 349.851 139.261 349.712 139.262L349.709 138.567C349.848 138.566 349.99 138.567 350.126 138.566C351.148 138.566 352.183 138.587 353.202 138.628L353.174 139.323ZM342.801 139.621L342.732 138.929C343.884 138.816 345.056 138.727 346.216 138.667L346.252 139.362C345.103 139.421 343.942 139.508 342.801 139.621ZM360.068 139.927C358.929 139.773 357.772 139.645 356.628 139.545L356.689 138.852C357.844 138.953 359.013 139.083 360.159 139.238L360.068 139.927ZM335.955 140.625L335.821 139.942C336.959 139.72 338.117 139.522 339.264 139.354L339.367 140.042C338.229 140.209 337.082 140.405 335.955 140.625ZM366.872 141.175C365.756 140.915 364.615 140.678 363.485 140.471L363.61 139.787C364.752 139.996 365.904 140.235 367.031 140.498L366.872 141.175ZM329.234 142.27L329.036 141.603C330.146 141.274 331.279 140.968 332.409 140.692L332.573 141.367C331.457 141.641 330.333 141.944 329.234 142.27ZM373.532 143.062C372.441 142.696 371.328 142.352 370.226 142.04L370.415 141.371C371.528 141.686 372.653 142.034 373.752 142.403L373.532 143.062ZM322.696 144.543L322.437 143.898C323.514 143.465 324.616 143.052 325.71 142.672L325.938 143.329C324.856 143.705 323.765 144.114 322.696 144.543ZM379.995 145.576C378.943 145.108 377.866 144.659 376.794 144.242L377.045 143.594C378.127 144.015 379.215 144.468 380.276 144.94L379.995 145.576ZM316.42 147.418L316.1 146.801C317.127 146.27 318.182 145.757 319.234 145.274L319.523 145.906C318.482 146.384 317.436 146.893 316.42 147.418ZM386.187 148.688C385.185 148.124 384.155 147.575 383.128 147.059L383.44 146.438C384.478 146.959 385.516 147.513 386.529 148.083L386.187 148.688ZM310.436 150.874L310.058 150.288C311.035 149.663 312.037 149.052 313.039 148.473L313.387 149.075C312.393 149.649 311.402 150.254 310.436 150.874ZM392.054 152.368C391.11 151.712 390.136 151.069 389.165 150.46L389.535 149.871C390.515 150.486 391.497 151.134 392.452 151.798L392.054 152.368ZM304.798 154.877L304.369 154.33C305.282 153.616 306.223 152.913 307.166 152.242L307.57 152.809C306.635 153.474 305.702 154.17 304.798 154.877ZM397.548 156.581C396.674 155.842 395.767 155.112 394.851 154.41L395.274 153.859C396.198 154.567 397.113 155.304 397.999 156.05L397.548 156.581ZM299.56 159.392L299.081 158.887C299.922 158.09 300.796 157.302 301.672 156.546L302.126 157.073C301.258 157.822 300.395 158.602 299.56 159.392ZM402.621 161.287C401.817 160.466 400.982 159.655 400.142 158.875L400.615 158.365C401.463 159.152 402.304 159.971 403.119 160.8L402.621 161.287ZM294.762 164.378L294.239 163.921C295.004 163.048 295.797 162.181 296.602 161.347L297.103 161.829C296.307 162.656 295.519 163.513 294.762 164.378ZM407.23 166.444C406.506 165.553 405.752 164.668 404.987 163.812L405.507 163.348C406.278 164.213 407.041 165.106 407.77 166.005L407.23 166.444ZM290.451 169.794L289.889 169.387C290.565 168.448 291.278 167.511 291.998 166.602L292.544 167.035C291.829 167.936 291.125 168.864 290.451 169.794ZM411.335 172.006C410.698 171.053 410.03 170.101 409.348 169.177L409.907 168.764C410.598 169.697 411.271 170.658 411.914 171.62L411.335 172.006ZM286.666 175.592L286.068 175.24C286.655 174.24 287.275 173.24 287.91 172.268L288.492 172.648C287.863 173.611 287.248 174.602 286.666 175.592ZM414.898 177.924C414.355 176.918 413.779 175.908 413.186 174.924L413.784 174.565C414.383 175.56 414.964 176.579 415.51 177.595L414.898 177.924ZM283.443 181.723L282.814 181.429C283.304 180.381 283.827 179.326 284.367 178.296L284.982 178.619C284.448 179.64 283.93 180.684 283.443 181.723ZM417.887 184.147C417.441 183.095 416.963 182.037 416.464 181.001L417.093 180.701C417.594 181.746 418.076 182.814 418.527 183.877L417.887 184.147ZM280.813 188.135L280.159 187.903C280.549 186.808 280.969 185.708 281.409 184.634L282.052 184.898C281.617 185.961 281.2 187.051 280.813 188.135ZM420.275 190.629C419.927 189.534 419.551 188.432 419.156 187.356L419.807 187.116C420.208 188.202 420.589 189.314 420.937 190.42L420.275 190.629ZM278.806 194.763L278.133 194.593C278.414 193.469 278.729 192.336 279.065 191.228L279.73 191.43C279.399 192.527 279.088 193.649 278.806 194.763ZM422.039 197.316C421.8 196.195 421.53 195.063 421.235 193.951L421.908 193.774C422.203 194.896 422.476 196.039 422.718 197.17L422.039 197.316ZM277.437 201.541L276.75 201.436C276.925 200.29 277.131 199.133 277.359 197.998L278.044 198.136C277.816 199.26 277.613 200.406 277.437 201.541ZM423.163 204.14C423.03 203.001 422.868 201.848 422.682 200.714L423.369 200.601C423.556 201.746 423.72 202.909 423.854 204.059L423.163 204.14ZM276.714 208.417L276.021 208.378C276.087 207.218 276.182 206.047 276.304 204.899L276.995 204.971C276.875 206.109 276.78 207.268 276.714 208.417ZM423.642 211.037C423.617 209.888 423.564 208.726 423.483 207.583L424.176 207.533C424.257 208.687 424.313 209.86 424.338 211.02L423.642 211.037ZM275.94 215.359C275.909 214.497 275.893 213.618 275.893 212.747C275.893 212.452 275.895 212.16 275.898 211.866L276.594 211.874C276.591 212.166 276.588 212.455 276.588 212.747C276.588 213.609 276.605 214.48 276.633 215.334L275.94 215.359ZM424.277 216.235L423.584 216.204C423.636 215.061 423.662 213.899 423.662 212.747H424.357C424.357 213.91 424.332 215.083 424.277 216.235ZM276.505 222.317C276.357 221.171 276.235 220.003 276.14 218.844L276.833 218.788C276.928 219.934 277.048 221.093 277.195 222.228L276.505 222.317ZM423.628 223.188L422.941 223.09C423.099 221.956 423.236 220.801 423.341 219.653L424.034 219.72C423.926 220.877 423.79 222.042 423.628 223.188ZM277.724 229.189C277.468 228.063 277.237 226.912 277.034 225.766L277.718 225.646C277.919 226.781 278.15 227.921 278.403 229.036L277.724 229.189ZM422.328 230.046L421.652 229.885C421.919 228.769 422.161 227.632 422.376 226.503L423.06 226.631C422.843 227.771 422.598 228.92 422.328 230.046ZM279.586 235.917C279.224 234.816 278.884 233.689 278.575 232.577L279.246 232.391C279.552 233.495 279.889 234.607 280.248 235.7L279.586 235.917ZM420.386 236.751L419.726 236.526C420.096 235.441 420.447 234.332 420.767 233.228L421.438 233.422C421.115 234.535 420.759 235.656 420.386 236.751ZM282.077 242.433C281.612 241.371 281.169 240.286 280.755 239.207L281.406 238.96C281.815 240.028 282.255 241.104 282.714 242.152L282.077 242.433ZM417.809 243.256L417.174 242.97C417.65 241.919 418.104 240.845 418.527 239.78L419.175 240.036C418.747 241.112 418.287 242.194 417.809 243.256ZM285.169 248.677C284.606 247.665 284.061 246.627 283.549 245.59L284.172 245.284C284.679 246.31 285.219 247.339 285.775 248.34L285.169 248.677ZM414.628 249.486L414.026 249.139C414.594 248.143 415.148 247.12 415.671 246.093L416.292 246.408C415.763 247.445 415.204 248.479 414.628 249.486ZM288.837 254.609C288.183 253.655 287.543 252.673 286.933 251.686L287.523 251.322C288.127 252.298 288.762 253.271 289.41 254.217L288.837 254.609ZM410.879 255.382L410.311 254.982C410.973 254.042 411.622 253.074 412.237 252.106L412.824 252.479C412.201 253.455 411.547 254.434 410.879 255.382ZM293.045 260.174C292.305 259.284 291.573 258.364 290.874 257.443L291.431 257.023C292.121 257.935 292.844 258.848 293.582 259.729L293.045 260.174ZM406.593 260.9L406.064 260.45C406.813 259.574 407.547 258.672 408.251 257.766L408.8 258.191C408.09 259.106 407.347 260.016 406.593 260.9ZM297.759 265.325C296.938 264.504 296.123 263.656 295.344 262.805L295.856 262.335C296.629 263.181 297.437 264.021 298.252 264.833L297.759 265.325ZM401.811 265.992L401.327 265.492C402.151 264.694 402.966 263.865 403.754 263.028L404.261 263.503C403.467 264.349 402.644 265.186 401.811 265.992ZM302.939 270.014C302.043 269.274 301.152 268.507 300.295 267.728L300.762 267.213C301.611 267.984 302.493 268.746 303.381 269.477L302.939 270.014ZM396.576 270.612L396.142 270.07C397.036 269.352 397.926 268.601 398.786 267.842L399.248 268.362C398.377 269.13 397.478 269.886 396.576 270.612ZM308.536 274.2C307.578 273.552 306.618 272.867 305.689 272.172L306.106 271.616C307.027 272.306 307.976 272.981 308.925 273.624L308.536 274.2ZM390.935 274.722L390.551 274.141C391.514 273.507 392.469 272.845 393.393 272.172L393.804 272.734C392.869 273.413 391.906 274.083 390.935 274.722ZM314.503 277.843C313.487 277.287 312.468 276.697 311.477 276.091L311.839 275.498C312.822 276.099 313.832 276.683 314.839 277.234L314.503 277.843ZM384.935 278.282L384.609 277.668C385.622 277.128 386.635 276.561 387.62 275.974L387.977 276.572C386.98 277.164 385.959 277.737 384.935 278.282ZM320.792 280.91C319.724 280.452 318.655 279.959 317.611 279.45L317.917 278.827C318.95 279.331 320.01 279.817 321.068 280.271L320.792 280.91ZM378.634 281.258L378.367 280.616C379.421 280.179 380.482 279.706 381.523 279.217L381.82 279.845C380.771 280.34 379.697 280.816 378.634 281.258ZM327.349 283.369C326.245 283.013 325.131 282.626 324.04 282.218L324.285 281.567C325.365 281.97 326.47 282.354 327.561 282.707L327.349 283.369ZM372.071 283.63L371.865 282.966C372.965 282.626 374.069 282.257 375.146 281.867L375.386 282.521C374.295 282.916 373.182 283.288 372.071 283.63ZM334.093 285.191C332.96 284.943 331.816 284.662 330.697 284.359L330.881 283.689C331.989 283.989 333.119 284.265 334.24 284.512L334.093 285.191ZM365.308 285.374L365.166 284.693C366.293 284.459 367.426 284.195 368.537 283.909L368.709 284.582C367.59 284.871 366.446 285.138 365.308 285.374ZM340.978 286.367C339.829 286.228 338.666 286.056 337.522 285.861L337.639 285.177C338.774 285.369 339.923 285.538 341.062 285.677L340.978 286.367ZM358.409 286.47L358.331 285.78C359.475 285.652 360.627 285.497 361.763 285.316L361.871 286.003C360.727 286.184 359.561 286.342 358.409 286.47ZM347.942 286.896C346.784 286.862 345.609 286.801 344.454 286.712L344.507 286.019C345.651 286.106 346.814 286.167 347.964 286.2L347.942 286.896ZM351.437 286.915L351.426 286.22C352.578 286.2 353.742 286.153 354.883 286.081L354.927 286.773C353.775 286.848 352.601 286.896 351.437 286.915Z" fill="#146BFF"/>
<path fill-rule="evenodd" clip-rule="evenodd" d="M53.3191 108.811C52.1793 108.71 51.0195 108.649 49.8716 108.629L49.8836 107.934C51.0479 107.954 52.2244 108.016 53.3803 108.118L53.3191 108.811ZM42.9802 108.997L42.894 108.307C44.0452 108.163 45.2186 108.059 46.3818 107.997L46.4188 108.691C45.2721 108.752 44.1153 108.855 42.9802 108.997ZM60.1309 109.909C59.0159 109.645 57.8766 109.42 56.7449 109.237L56.8554 108.551C58.0035 108.736 59.1595 108.965 60.2909 109.232L60.1309 109.909ZM36.213 110.341L36.0285 109.671C37.1485 109.363 38.295 109.092 39.4367 108.865L39.5725 109.547C38.4472 109.771 37.3169 110.038 36.213 110.341ZM66.7186 111.974C65.6517 111.553 64.5554 111.165 63.4601 110.822L63.6683 110.158C64.7797 110.507 65.8919 110.9 66.9744 111.328L66.7186 111.974ZM29.7135 112.643L29.4344 112.006C30.4982 111.541 31.5923 111.108 32.6873 110.72L32.9197 111.376C31.8406 111.758 30.7617 112.184 29.7135 112.643ZM72.9425 114.967C71.9472 114.397 70.9182 113.856 69.885 113.359L70.1867 112.732C71.2349 113.236 72.2787 113.785 73.2885 114.364L72.9425 114.967ZM23.6123 115.853L23.2447 115.263C24.2317 114.649 25.2534 114.064 26.2813 113.523L26.6056 114.139C25.5925 114.672 24.5851 115.249 23.6123 115.853ZM78.6716 118.817C77.7678 118.111 76.8273 117.429 75.8762 116.79L76.2645 116.213C77.2292 116.861 78.1833 117.553 79.1002 118.27L78.6716 118.817ZM18.0292 119.902L17.5813 119.37C18.4706 118.623 19.3986 117.898 20.3399 117.215L20.7488 117.778C19.8208 118.451 18.9059 119.166 18.0292 119.902ZM83.7924 123.442C82.9989 122.616 82.165 121.807 81.3147 121.039L81.7814 120.523C82.644 121.302 83.4896 122.122 84.2945 122.961L83.7924 123.442ZM13.0767 124.706L12.5579 124.243C13.3325 123.376 14.1483 122.526 14.9828 121.717L15.4676 122.216C14.6448 123.014 13.8405 123.851 13.0767 124.706ZM88.2027 128.746C87.5347 127.815 86.8246 126.896 86.0923 126.016L86.6276 125.571C87.3705 126.465 88.0908 127.397 88.768 128.341L88.2027 128.746ZM8.85681 130.165L8.27703 129.781C8.92027 128.813 9.60721 127.855 10.3186 126.935L10.8695 127.36C10.1678 128.267 9.49058 129.211 8.85681 130.165ZM91.81 134.619C91.2819 133.603 90.7108 132.594 90.1115 131.618L90.7047 131.255C91.3123 132.244 91.8921 133.268 92.4276 134.299L91.81 134.619ZM5.45857 136.173L4.82981 135.875C5.32776 134.825 5.87079 133.779 6.44389 132.765L7.04983 133.108C6.48481 134.107 5.94928 135.138 5.45857 136.173ZM94.5371 140.945C94.1611 139.865 93.7405 138.784 93.2877 137.734L93.9267 137.459C94.3863 138.525 94.8127 139.621 95.1943 140.717L94.5371 140.945ZM2.95798 142.608L2.29276 142.404C2.63483 141.291 3.022 140.177 3.44313 139.093L4.09166 139.345C3.67665 140.413 3.29505 141.511 2.95798 142.608ZM96.3271 147.604C96.1106 146.48 95.8498 145.348 95.5525 144.242L96.2244 144.062C96.5261 145.184 96.7905 146.332 97.0104 147.473L96.3271 147.604ZM1.41265 149.328L0.724876 149.221C0.903291 148.072 1.12568 146.916 1.38593 145.784L2.06396 145.94C1.80761 147.055 1.58856 148.195 1.41265 149.328ZM97.144 154.45C97.0895 153.303 96.9934 152.147 96.8582 151.012L97.549 150.93C97.6862 152.081 97.7839 153.254 97.839 154.417L97.144 154.45ZM0.844283 156.199L0.148438 156.191C0.162076 155.028 0.217188 153.852 0.312658 152.696L1.006 152.753C0.911919 153.893 0.857643 155.052 0.844283 156.199ZM97.7711 160.263L97.0769 160.214C97.1577 159.073 97.1986 157.914 97.1986 156.766H97.8944C97.8944 157.93 97.853 159.106 97.7711 160.263ZM0.562326 163.174C0.411467 162.024 0.300132 160.851 0.231383 159.69L0.926114 159.649C0.99375 160.794 1.10342 161.95 1.25205 163.083L0.562326 163.174ZM96.7794 167.187L96.0992 167.039C96.3424 165.921 96.5484 164.779 96.7107 163.644L97.3995 163.742C97.2348 164.893 97.026 166.052 96.7794 167.187ZM1.96821 170.026C1.65314 168.907 1.37507 167.763 1.14155 166.625L1.82348 166.485C2.05338 167.607 2.32727 168.735 2.6379 169.838L1.96821 170.026ZM94.8032 173.898L94.1516 173.654C94.5538 172.581 94.9218 171.479 95.2452 170.381L95.9127 170.578C95.5845 171.692 95.2113 172.809 94.8032 173.898ZM4.34466 176.602C3.87205 175.54 3.43255 174.449 3.03842 173.359L3.6928 173.122C4.08136 174.197 4.51445 175.273 4.98039 176.319L4.34466 176.602ZM91.8779 180.261L91.2683 179.926C91.8214 178.92 92.3444 177.883 92.8228 176.842L93.4552 177.132C92.9698 178.188 92.4393 179.241 91.8779 180.261ZM7.63991 182.767C7.02033 181.785 6.42858 180.767 5.88137 179.743L6.49511 179.416C7.03453 180.425 7.61792 181.428 8.22887 182.397L7.63991 182.767ZM88.0727 186.137L87.5169 185.718C88.2077 184.803 88.8738 183.851 89.4964 182.889L90.0804 183.267C89.4488 184.242 88.7733 185.208 88.0727 186.137ZM11.7841 188.402C11.0298 187.517 10.2989 186.594 9.6111 185.659L10.172 185.247C10.8497 186.169 11.5706 187.079 12.314 187.952L11.7841 188.402ZM83.4701 191.41L82.9797 190.917C83.793 190.109 84.5876 189.262 85.3411 188.398L85.8652 188.855C85.1012 189.731 84.2951 190.591 83.4701 191.41ZM16.6895 193.394C15.8183 192.625 14.9633 191.815 14.1475 190.985L14.644 190.498C15.4481 191.316 16.2912 192.115 17.1499 192.872L16.6895 193.394ZM78.1664 195.974L77.7511 195.416C78.6707 194.733 79.5773 194.007 80.4454 193.26L80.8997 193.786C80.019 194.545 79.0994 195.281 78.1664 195.974ZM22.2566 197.639C21.2843 197.002 20.3221 196.321 19.3969 195.615L19.8189 195.063C20.7313 195.758 21.6798 196.43 22.6382 197.057L22.2566 197.639ZM72.2687 199.737L71.9374 199.125C72.9434 198.581 73.9434 197.992 74.9104 197.375L75.2847 197.961C74.3041 198.587 73.2893 199.184 72.2687 199.737ZM28.3758 201.047C27.322 200.556 26.2719 200.02 25.2545 199.453L25.5936 198.845C26.5961 199.404 27.6313 199.933 28.67 200.417L28.3758 201.047ZM65.8967 202.615L65.6562 201.963C66.7297 201.568 67.8036 201.129 68.8473 200.657L69.1343 201.291C68.0749 201.769 66.9858 202.215 65.8967 202.615ZM34.9246 203.543C33.8093 203.209 32.6923 202.828 31.6046 202.414L31.8526 201.764C32.9247 202.173 34.0255 202.547 35.125 202.878L34.9246 203.543ZM59.1695 204.55L59.0259 203.871C60.1467 203.635 61.2735 203.354 62.3754 203.036L62.568 203.704C61.4499 204.027 60.3065 204.311 59.1695 204.55ZM41.7561 205.07C40.6032 204.897 39.4448 204.683 38.3128 204.43L38.4648 203.751C39.5803 204.002 40.7224 204.213 41.8585 204.383L41.7561 205.07ZM52.2353 205.501L52.1902 204.808C53.3333 204.733 54.489 204.617 55.6249 204.461L55.7192 205.151C54.5672 205.309 53.3951 205.426 52.2353 205.501ZM48.7343 205.604C47.5664 205.598 46.3893 205.548 45.2356 205.462L45.2891 204.767C46.4263 204.856 47.5867 204.903 48.7382 204.909L48.7343 205.604Z" fill="#146BFF"/>
<path fill-rule="evenodd" clip-rule="evenodd" d="M244.757 16.7186C238.583 16.7186 233.561 21.7371 233.561 27.9059C233.561 34.0745 238.583 39.093 244.757 39.093C250.931 39.093 255.953 34.0745 255.953 27.9059C255.953 21.7371 250.931 16.7186 244.757 16.7186ZM244.757 39.6133C238.297 39.6133 233.039 34.3614 233.039 27.9059C233.039 21.4504 238.297 16.1982 244.757 16.1982C251.217 16.1982 256.472 21.4504 256.472 27.9059C256.472 34.3614 251.217 39.6133 244.757 39.6133Z" fill="#146BFF"/>
<path fill-rule="evenodd" clip-rule="evenodd" d="M51.4889 74.1481C47.2825 74.1481 43.8601 77.5669 43.8601 81.7688V293.193C43.8601 297.396 47.2825 300.814 51.4889 300.814H359.063C363.264 300.814 366.686 297.396 366.686 293.193V81.7688C366.686 77.5669 363.264 74.1481 359.063 74.1481H51.4889ZM359.063 301.509H51.4889C46.8985 301.509 43.1641 297.78 43.1641 293.193V81.7688C43.1641 77.1833 46.8985 73.4528 51.4889 73.4528H359.063C363.648 73.4528 367.379 77.1833 367.379 81.7688V293.193C367.379 297.78 363.648 301.509 359.063 301.509Z" fill="#146BFF"/>
<path fill-rule="evenodd" clip-rule="evenodd" d="M43.8601 93.9285H366.683V81.7542C366.683 77.5596 363.261 74.1469 359.06 74.1469H51.4888C47.2822 74.1469 43.8601 77.5596 43.8601 81.7542V93.9285ZM367.379 94.6226H43.1641V81.7542C43.1641 77.1768 46.8985 73.4528 51.4888 73.4528H359.06C363.645 73.4528 367.379 77.1768 367.379 81.7542V94.6226Z" fill="#146BFF"/>
<path fill-rule="evenodd" clip-rule="evenodd" d="M65.1526 84.0376C65.1526 86.0748 63.5 87.7264 61.4612 87.7264C59.4224 87.7264 57.7695 86.0748 57.7695 84.0376C57.7695 82.0004 59.4224 80.3491 61.4612 80.3491C63.5 80.3491 65.1526 82.0004 65.1526 84.0376Z" fill="#3335CF"/>
<path fill-rule="evenodd" clip-rule="evenodd" d="M75.5856 80.3491C73.5499 80.3491 71.894 82.004 71.894 84.0376C71.894 86.0715 73.5499 87.7264 75.5856 87.7264C77.6213 87.7264 79.2772 86.0715 79.2772 84.0376C79.2772 82.004 77.6213 80.3491 75.5856 80.3491Z" fill="#3335CF"/>
<path fill-rule="evenodd" clip-rule="evenodd" d="M89.8701 81.0407C88.2164 81.0407 86.8709 82.385 86.8709 84.0377C86.8709 85.6902 88.2164 87.0348 89.8701 87.0348C91.5241 87.0348 92.8697 85.6902 92.8697 84.0377C92.8697 82.385 91.5241 81.0407 89.8701 81.0407ZM89.8701 87.7264C87.8346 87.7264 86.1787 86.0717 86.1787 84.0377C86.1787 82.0038 87.8346 80.3491 89.8701 80.3491C91.9059 80.3491 93.5618 82.0038 93.5618 84.0377C93.5618 86.0717 91.9059 87.7264 89.8701 87.7264Z" fill="#146BFF"/>
<path fill-rule="evenodd" clip-rule="evenodd" d="M112.137 80.7171C110.243 80.7171 108.702 82.2428 108.702 84.1179C108.702 85.993 110.243 87.5188 112.137 87.5188H181.079C182.972 87.5188 184.513 85.993 184.513 84.1179C184.513 82.2428 182.972 80.7171 181.079 80.7171H112.137ZM181.079 88.2076H112.137C109.859 88.2076 108.007 86.373 108.007 84.1179C108.007 81.8629 109.859 80.0283 112.137 80.0283H181.079C183.356 80.0283 185.209 81.8629 185.209 84.1179C185.209 86.373 183.356 88.2076 181.079 88.2076Z" fill="#146BFF"/>
<path fill-rule="evenodd" clip-rule="evenodd" d="M268.831 192.782C268.831 226.078 241.816 253.075 208.486 253.075C175.156 253.075 148.133 226.078 148.133 192.782C148.133 161.542 171.919 135.852 202.38 132.792L204.393 152.578C183.982 154.629 168.048 171.849 168.048 192.782C168.048 215.099 186.154 233.186 208.486 233.186C230.818 233.186 248.916 215.099 248.916 192.782C248.916 188.887 248.365 185.125 247.335 181.564L266.472 176.042C268.009 181.356 268.831 186.975 268.831 192.782Z" fill="#146BFF"/>
<path fill-rule="evenodd" clip-rule="evenodd" d="M208.562 241.368C181.658 241.368 159.849 219.576 159.849 192.694C159.849 165.811 181.658 144.019 208.562 144.019C235.465 144.019 257.274 165.811 257.274 192.694C257.274 219.576 235.465 241.368 208.562 241.368Z" fill="#E8E8FF"/>
<path fill-rule="evenodd" clip-rule="evenodd" d="M242.99 192.773C242.99 211.817 227.541 227.255 208.482 227.255C189.424 227.255 173.974 211.817 173.974 192.773C173.974 173.73 189.424 158.292 208.482 158.292C227.541 158.292 242.99 173.73 242.99 192.773Z" fill="white"/>
<path fill-rule="evenodd" clip-rule="evenodd" d="M212.387 209.66V214.906H205.713V209.897C200.983 209.616 196.394 208.335 193.555 206.591L197.149 198.46C200.274 200.303 204.434 201.485 208.079 201.485C211.25 201.485 212.387 200.823 212.387 199.687C212.387 195.529 194.075 198.885 194.075 186.55C194.075 181.208 197.954 176.719 205.713 175.632V170.481H212.387V175.538C215.884 175.869 219.295 176.767 221.99 178.28L218.632 186.361C215.363 184.706 212.289 183.904 209.405 183.904C206.136 183.904 205.097 184.849 205.097 185.982C205.097 189.953 223.408 186.644 223.408 198.837C223.408 203.941 219.719 208.386 212.387 209.66Z" fill="#146BFF"/>
<path fill-rule="evenodd" clip-rule="evenodd" d="M305.265 153.477L296.959 130.547C287.574 133.943 280.868 142.927 280.868 153.477C280.868 166.942 291.791 177.858 305.265 177.858C318.741 177.858 329.661 166.942 329.661 153.477C329.661 149.425 328.668 145.607 326.918 142.245L305.265 153.477Z" fill="#E9F1FF"/>
<path fill-rule="evenodd" clip-rule="evenodd" d="M330.142 133.431C326.071 125.621 317.889 120.283 308.45 120.283C305.526 120.283 302.726 120.796 300.128 121.735L308.45 144.66L330.142 133.431Z" fill="#146BFF"/>
<path fill-rule="evenodd" clip-rule="evenodd" d="M281.992 286.594H339.773V231.585H281.992V286.594Z" fill="#E9F1FF"/>
<path fill-rule="evenodd" clip-rule="evenodd" d="M290.98 248.585H323.401V246.34H290.98V248.585Z" fill="white"/>
<path fill-rule="evenodd" clip-rule="evenodd" d="M290.98 255.481H323.401V253.236H290.98V255.481Z" fill="white"/>
<path fill-rule="evenodd" clip-rule="evenodd" d="M69.0049 211.538H119.242V126.698H69.0049V211.538Z" fill="#E9F1FF"/>
<path fill-rule="evenodd" clip-rule="evenodd" d="M76.709 169.038H109.612V138.887H76.709V169.038Z" fill="white"/>
<path fill-rule="evenodd" clip-rule="evenodd" d="M109.303 169.359L76.3882 139.239L76.8577 138.726L109.773 168.846L109.303 169.359Z" fill="#E9F1FF"/>
<path fill-rule="evenodd" clip-rule="evenodd" d="M76.8577 169.359L76.3882 168.846L109.303 138.726L109.773 139.239L76.8577 169.359Z" fill="#E9F1FF"/>
<path fill-rule="evenodd" clip-rule="evenodd" d="M251.536 344.212C249.477 330.715 252.308 316.525 259.386 304.852C266.467 293.176 277.741 284.108 290.659 279.698C283.344 284.818 278.879 293.098 275.762 301.466C272.647 309.838 270.604 318.622 266.757 326.684C262.913 334.744 256.853 342.277 248.447 345.292L251.536 344.212Z" fill="#07B8FF"/>
<path fill-rule="evenodd" clip-rule="evenodd" d="M249.331 344.17C249.039 328.587 246.014 313.06 240.438 298.506C238.46 293.338 236.085 288.182 232.224 284.219C228.365 280.258 222.751 277.65 217.309 278.617C224.085 283.696 227.596 292.051 229.574 300.291C231.552 308.535 232.313 317.087 235.096 325.091C237.88 333.095 243.205 340.81 251.175 343.672L249.331 344.17Z" fill="#07B8FF"/>
<path fill-rule="evenodd" clip-rule="evenodd" d="M248.397 345.292C244.512 334.832 240.291 324.109 232.48 316.14C224.669 308.174 212.291 303.613 202.062 308.068C210.347 309.947 217.938 314.745 223.193 321.419C227.047 326.314 229.636 332.117 233.599 336.923C237.562 341.728 243.607 345.602 249.731 344.454L248.397 345.292Z" fill="#CADEFF"/>
<path fill-rule="evenodd" clip-rule="evenodd" d="M247.132 344.582C245.545 333.116 243.956 321.468 245.628 310.016C247.301 298.565 252.715 287.13 262.41 280.821C257.044 286.088 255.252 294.063 255.249 301.585C255.246 309.107 256.769 316.56 256.897 324.082C257.025 331.601 255.533 339.59 250.45 345.132L247.132 344.582Z" fill="#CADEFF"/>
<path fill-rule="evenodd" clip-rule="evenodd" d="M252.62 342.836C256.333 333.347 260.29 323.497 267.852 316.684C272.709 312.312 278.894 309.443 285.362 308.566C280.827 312.195 277.989 317.512 275.634 322.828C273.279 328.145 271.246 333.682 267.836 338.388C264.425 343.095 259.304 346.966 253.508 347.217L252.62 342.836Z" fill="#CADEFF"/>
<path fill-rule="evenodd" clip-rule="evenodd" d="M271.37 371.594H229.539L223.087 339.519H277.819L271.37 371.594Z" fill="white"/>
<path fill-rule="evenodd" clip-rule="evenodd" d="M229.919 371.379H271.147L277.451 339.894H223.615L229.919 371.379ZM271.715 372.075H229.348L222.766 339.198H278.3L271.715 372.075Z" fill="#146BFF"/>
</svg>
