<svg width="327" height="175" viewBox="0 0 327 175" fill="none" xmlns="http://www.w3.org/2000/svg">
<g filter="url(#filter0_d_257_605)">
<rect x="35" y="23" width="256.477" height="104.36" rx="16" fill="#146BFF"/>
</g>
<path d="M211.728 54.4733L204.458 63.2663C203.865 63.9834 203.54 64.8847 203.54 65.8152V97.5206C203.54 99.7298 205.331 101.521 207.54 101.521H270.293C272.502 101.521 274.293 99.7298 274.293 97.5206V51.1096L261.514 60.2234C260.573 60.8949 259.387 61.126 258.262 60.8574L247.603 58.311C246.143 57.9621 244.61 58.4605 243.634 59.6014L237.044 67.3048C235.536 69.0678 232.85 69.1822 231.197 67.5538L217.619 54.1732C215.947 52.5262 213.224 52.6649 211.728 54.4733Z" fill="url(#paint0_linear_257_605)"/>
<path d="M204.425 64.3757L212.311 54.5942C213.808 52.7363 216.59 52.5949 218.268 54.2914L231.275 67.4374C232.935 69.115 235.679 68.9984 237.19 67.186L243.467 59.6599C244.446 58.4866 246.007 57.9732 247.491 58.3368L257.695 60.8369C258.842 61.118 260.055 60.8776 261.008 60.1802L273.408 51.1096" stroke="#FFEA32" stroke-width="2" stroke-linecap="round" stroke-linejoin="round"/>
<path d="M55.0407 47.6988V57.4568H53.7667V47.6988H55.0407ZM60.95 49.6448C61.8834 49.6448 62.6394 49.9295 63.218 50.4988C63.7967 51.0588 64.086 51.8708 64.086 52.9348V57.4568H62.826V53.1168C62.826 52.3515 62.6347 51.7681 62.252 51.3668C61.8694 50.9561 61.3467 50.7508 60.684 50.7508C60.012 50.7508 59.4754 50.9608 59.074 51.3808C58.682 51.8008 58.486 52.4121 58.486 53.2148V57.4568H57.212V49.7848H58.486V50.8768C58.738 50.4848 59.0787 50.1815 59.508 49.9668C59.9467 49.7521 60.4274 49.6448 60.95 49.6448ZM65.6911 53.6068C65.6911 52.8135 65.8498 52.1228 66.1671 51.5348C66.4844 50.9375 66.9231 50.4755 67.4831 50.1488C68.0524 49.8221 68.7011 49.6588 69.4291 49.6588C70.3718 49.6588 71.1464 49.8875 71.7531 50.3448C72.3691 50.8021 72.7751 51.4368 72.9711 52.2488H71.5991C71.4684 51.7821 71.2118 51.4135 70.8291 51.1428C70.4558 50.8721 69.9891 50.7368 69.4291 50.7368C68.7011 50.7368 68.1131 50.9888 67.6651 51.4928C67.2171 51.9875 66.9931 52.6921 66.9931 53.6068C66.9931 54.5308 67.2171 55.2448 67.6651 55.7488C68.1131 56.2528 68.7011 56.5048 69.4291 56.5048C69.9891 56.5048 70.4558 56.3741 70.8291 56.1128C71.2024 55.8515 71.4591 55.4781 71.5991 54.9928H72.9711C72.7658 55.7768 72.3551 56.4068 71.7391 56.8828C71.1231 57.3495 70.3531 57.5828 69.4291 57.5828C68.7011 57.5828 68.0524 57.4195 67.4831 57.0928C66.9231 56.7661 66.4844 56.3041 66.1671 55.7068C65.8498 55.1095 65.6911 54.4095 65.6911 53.6068ZM78.017 57.5828C77.2984 57.5828 76.645 57.4195 76.057 57.0928C75.4784 56.7661 75.021 56.3041 74.685 55.7068C74.3584 55.1001 74.195 54.4001 74.195 53.6068C74.195 52.8228 74.363 52.1321 74.699 51.5348C75.0444 50.9281 75.511 50.4661 76.099 50.1488C76.687 49.8221 77.345 49.6588 78.073 49.6588C78.801 49.6588 79.459 49.8221 80.047 50.1488C80.635 50.4661 81.097 50.9235 81.433 51.5208C81.7784 52.1181 81.951 52.8135 81.951 53.6068C81.951 54.4001 81.7737 55.1001 81.419 55.7068C81.0737 56.3041 80.6024 56.7661 80.005 57.0928C79.4077 57.4195 78.745 57.5828 78.017 57.5828ZM78.017 56.4628C78.4744 56.4628 78.9037 56.3555 79.305 56.1408C79.7064 55.9261 80.0284 55.6041 80.271 55.1748C80.523 54.7455 80.649 54.2228 80.649 53.6068C80.649 52.9908 80.5277 52.4681 80.285 52.0388C80.0424 51.6095 79.725 51.2921 79.333 51.0868C78.941 50.8721 78.5164 50.7648 78.059 50.7648C77.5924 50.7648 77.163 50.8721 76.771 51.0868C76.3884 51.2921 76.0804 51.6095 75.847 52.0388C75.6137 52.4681 75.497 52.9908 75.497 53.6068C75.497 54.2321 75.609 54.7595 75.833 55.1888C76.0664 55.6181 76.3744 55.9401 76.757 56.1548C77.1397 56.3601 77.5597 56.4628 78.017 56.4628ZM92.8521 49.6448C93.4494 49.6448 93.9814 49.7708 94.4481 50.0228C94.9148 50.2655 95.2834 50.6341 95.5541 51.1288C95.8248 51.6235 95.9601 52.2255 95.9601 52.9348V57.4568H94.7001V53.1168C94.7001 52.3515 94.5088 51.7681 94.1261 51.3668C93.7528 50.9561 93.2441 50.7508 92.6001 50.7508C91.9374 50.7508 91.4101 50.9655 91.0181 51.3948C90.6261 51.8148 90.4301 52.4261 90.4301 53.2288V57.4568H89.1701V53.1168C89.1701 52.3515 88.9788 51.7681 88.5961 51.3668C88.2228 50.9561 87.7141 50.7508 87.0701 50.7508C86.4074 50.7508 85.8801 50.9655 85.4881 51.3948C85.0961 51.8148 84.9001 52.4261 84.9001 53.2288V57.4568H83.6261V49.7848H84.9001V50.8908C85.1521 50.4895 85.4881 50.1815 85.9081 49.9668C86.3374 49.7521 86.8088 49.6448 87.3221 49.6448C87.9661 49.6448 88.5354 49.7895 89.0301 50.0788C89.5248 50.3681 89.8934 50.7928 90.1361 51.3528C90.3508 50.8115 90.7054 50.3915 91.2001 50.0928C91.6948 49.7941 92.2454 49.6448 92.8521 49.6448ZM105.05 53.3268C105.05 53.5695 105.036 53.8261 105.008 54.0968H98.8759C98.9226 54.8528 99.1793 55.4455 99.6459 55.8748C100.122 56.2948 100.696 56.5048 101.368 56.5048C101.919 56.5048 102.376 56.3788 102.74 56.1268C103.113 55.8655 103.375 55.5201 103.524 55.0908H104.896C104.691 55.8281 104.28 56.4301 103.664 56.8968C103.048 57.3541 102.283 57.5828 101.368 57.5828C100.64 57.5828 99.9866 57.4195 99.4079 57.0928C98.8386 56.7661 98.3906 56.3041 98.0639 55.7068C97.7373 55.1001 97.5739 54.4001 97.5739 53.6068C97.5739 52.8135 97.7326 52.1181 98.0499 51.5208C98.3673 50.9235 98.8106 50.4661 99.3799 50.1488C99.9586 49.8221 100.621 49.6588 101.368 49.6588C102.096 49.6588 102.74 49.8175 103.3 50.1348C103.86 50.4521 104.289 50.8908 104.588 51.4508C104.896 52.0015 105.05 52.6268 105.05 53.3268ZM103.734 53.0608C103.734 52.5755 103.627 52.1601 103.412 51.8148C103.197 51.4601 102.903 51.1941 102.53 51.0168C102.166 50.8301 101.76 50.7368 101.312 50.7368C100.668 50.7368 100.117 50.9421 99.6599 51.3528C99.2119 51.7635 98.9553 52.3328 98.8899 53.0608H103.734Z" fill="white"/>
<path d="M66.3047 80.2443H61.9577V84.7063H58.9217V80.2443H54.5747V77.4383H58.9217V72.9763H61.9577V77.4383H66.3047V80.2443ZM81.2278 82.4063C81.2278 83.2036 81.0208 83.955 80.6068 84.6603C80.2081 85.3503 79.6101 85.9253 78.8128 86.3853C78.0308 86.83 77.1031 87.0906 76.0298 87.1673V89.0303H74.5578V87.1443C73.0244 87.0063 71.7901 86.5463 70.8548 85.7643C69.9194 84.967 69.4364 83.8936 69.4058 82.5443H72.8558C72.9478 83.6483 73.5151 84.3153 74.5578 84.5453V80.1523C73.4538 79.8763 72.5644 79.6003 71.8898 79.3243C71.2151 79.0483 70.6324 78.6036 70.1418 77.9903C69.6511 77.377 69.4058 76.5413 69.4058 75.4833C69.4058 74.1493 69.8811 73.0606 70.8318 72.2173C71.7978 71.374 73.0398 70.891 74.5578 70.7683V68.9053H76.0298V70.7683C77.5018 70.891 78.6748 71.3356 79.5488 72.1023C80.4381 72.869 80.9364 73.927 81.0438 75.2763H77.5708C77.5248 74.8316 77.3638 74.4483 77.0878 74.1263C76.8271 73.789 76.4744 73.5513 76.0298 73.4133V77.7603C77.1798 78.0516 78.0844 78.3353 78.7438 78.6113C79.4184 78.872 80.0011 79.309 80.4918 79.9223C80.9824 80.5203 81.2278 81.3483 81.2278 82.4063ZM72.7638 75.3223C72.7638 75.8283 72.9171 76.2423 73.2238 76.5643C73.5304 76.871 73.9751 77.124 74.5578 77.3233V73.3443C74.0058 73.421 73.5688 73.628 73.2468 73.9653C72.9248 74.3026 72.7638 74.755 72.7638 75.3223ZM76.0298 84.5913C76.6124 84.484 77.0648 84.2463 77.3868 83.8783C77.7241 83.5103 77.8928 83.0656 77.8928 82.5443C77.8928 82.0383 77.7318 81.632 77.4098 81.3253C77.0878 81.0186 76.6278 80.7656 76.0298 80.5663V84.5913ZM84.3166 83.7633V81.2333L91.8376 70.4693H95.5866V80.9573H97.6106V83.7633H95.5866V87.0293H92.3666V83.7633H84.3166ZM92.5736 73.9193L87.8586 80.9573H92.5736V73.9193ZM103.548 83.6483L100.857 90.1113H98.7867L100.282 83.6483H103.548ZM105.5 78.4273C105.5 75.7746 105.976 73.697 106.926 72.1943C107.892 70.6916 109.487 69.9403 111.71 69.9403C113.934 69.9403 115.521 70.6916 116.471 72.1943C117.437 73.697 117.92 75.7746 117.92 78.4273C117.92 81.0953 117.437 83.1883 116.471 84.7063C115.521 86.2243 113.934 86.9833 111.71 86.9833C109.487 86.9833 107.892 86.2243 106.926 84.7063C105.976 83.1883 105.5 81.0953 105.5 78.4273ZM114.746 78.4273C114.746 77.2926 114.67 76.342 114.516 75.5753C114.378 74.7933 114.087 74.157 113.642 73.6663C113.213 73.1756 112.569 72.9303 111.71 72.9303C110.852 72.9303 110.2 73.1756 109.755 73.6663C109.326 74.157 109.035 74.7933 108.881 75.5753C108.743 76.342 108.674 77.2926 108.674 78.4273C108.674 79.5926 108.743 80.574 108.881 81.3713C109.019 82.1533 109.311 82.7896 109.755 83.2803C110.2 83.7556 110.852 83.9933 111.71 83.9933C112.569 83.9933 113.221 83.7556 113.665 83.2803C114.11 82.7896 114.401 82.1533 114.539 81.3713C114.677 80.574 114.746 79.5926 114.746 78.4273ZM123.176 78.1513C121.642 77.354 120.876 76.1196 120.876 74.4483C120.876 73.6203 121.083 72.869 121.497 72.1943C121.926 71.5043 122.562 70.96 123.406 70.5613C124.264 70.1473 125.307 69.9403 126.534 69.9403C127.76 69.9403 128.795 70.1473 129.639 70.5613C130.497 70.96 131.134 71.5043 131.548 72.1943C131.977 72.869 132.192 73.6203 132.192 74.4483C132.192 75.2916 131.985 76.0353 131.571 76.6793C131.157 77.308 130.605 77.7986 129.915 78.1513C130.758 78.5193 131.417 79.056 131.893 79.7613C132.368 80.4666 132.606 81.3023 132.606 82.2683C132.606 83.311 132.337 84.2233 131.801 85.0053C131.279 85.772 130.559 86.3623 129.639 86.7763C128.719 87.1903 127.684 87.3973 126.534 87.3973C125.384 87.3973 124.349 87.1903 123.429 86.7763C122.524 86.3623 121.803 85.772 121.267 85.0053C120.745 84.2233 120.485 83.311 120.485 82.2683C120.485 81.3023 120.722 80.4666 121.198 79.7613C121.673 79.0406 122.332 78.504 123.176 78.1513ZM129.064 74.9083C129.064 74.157 128.834 73.5743 128.374 73.1603C127.929 72.7463 127.316 72.5393 126.534 72.5393C125.767 72.5393 125.154 72.7463 124.694 73.1603C124.249 73.5743 124.027 74.1646 124.027 74.9313C124.027 75.6213 124.257 76.1733 124.717 76.5873C125.192 77.0013 125.798 77.2083 126.534 77.2083C127.27 77.2083 127.875 77.0013 128.351 76.5873C128.826 76.158 129.064 75.5983 129.064 74.9083ZM126.534 79.5543C125.66 79.5543 124.947 79.7766 124.395 80.2213C123.858 80.666 123.59 81.3023 123.59 82.1303C123.59 82.897 123.85 83.5256 124.372 84.0163C124.908 84.4916 125.629 84.7293 126.534 84.7293C127.438 84.7293 128.151 84.484 128.673 83.9933C129.194 83.5026 129.455 82.8816 129.455 82.1303C129.455 81.3176 129.186 80.689 128.65 80.2443C128.113 79.7843 127.408 79.5543 126.534 79.5543ZM138.875 82.3143C138.998 82.989 139.274 83.5103 139.703 83.8783C140.148 84.231 140.738 84.4073 141.474 84.4073C142.425 84.4073 143.115 84.0163 143.544 83.2343C143.973 82.437 144.188 81.103 144.188 79.2323C143.835 79.723 143.337 80.1063 142.693 80.3823C142.064 80.6583 141.382 80.7963 140.646 80.7963C139.665 80.7963 138.775 80.597 137.978 80.1983C137.196 79.7843 136.575 79.1786 136.115 78.3813C135.655 77.5686 135.425 76.5873 135.425 75.4373C135.425 73.7353 135.931 72.386 136.943 71.3893C137.955 70.3773 139.335 69.8713 141.083 69.8713C143.26 69.8713 144.794 70.569 145.683 71.9643C146.588 73.3596 147.04 75.4603 147.04 78.2663C147.04 80.2596 146.864 81.8926 146.511 83.1653C146.174 84.438 145.583 85.404 144.74 86.0633C143.912 86.7226 142.777 87.0523 141.336 87.0523C140.201 87.0523 139.235 86.8376 138.438 86.4083C137.641 85.9636 137.027 85.3886 136.598 84.6833C136.184 83.9626 135.946 83.173 135.885 82.3143H138.875ZM141.313 78.1743C142.11 78.1743 142.739 77.929 143.199 77.4383C143.659 76.9476 143.889 76.2883 143.889 75.4603C143.889 74.5556 143.644 73.858 143.153 73.3673C142.678 72.8613 142.026 72.6083 141.198 72.6083C140.37 72.6083 139.711 72.869 139.22 73.3903C138.745 73.8963 138.507 74.571 138.507 75.4143C138.507 76.227 138.737 76.894 139.197 77.4153C139.672 77.9213 140.378 78.1743 141.313 78.1743ZM151.34 87.1903C150.758 87.1903 150.275 87.014 149.891 86.6613C149.523 86.2933 149.339 85.841 149.339 85.3043C149.339 84.7676 149.523 84.323 149.891 83.9703C150.275 83.6023 150.758 83.4183 151.34 83.4183C151.908 83.4183 152.375 83.6023 152.743 83.9703C153.111 84.323 153.295 84.7676 153.295 85.3043C153.295 85.841 153.111 86.2933 152.743 86.6613C152.375 87.014 151.908 87.1903 151.34 87.1903ZM164.215 74.4483C164.062 73.8043 163.793 73.3213 163.41 72.9993C163.042 72.6773 162.505 72.5163 161.8 72.5163C160.742 72.5163 159.96 72.9456 159.454 73.8043C158.963 74.6476 158.71 76.0276 158.695 77.9443C159.063 77.331 159.6 76.8556 160.305 76.5183C161.01 76.1656 161.777 75.9893 162.605 75.9893C163.602 75.9893 164.483 76.204 165.25 76.6333C166.017 77.0626 166.615 77.6913 167.044 78.5193C167.473 79.332 167.688 80.3133 167.688 81.4633C167.688 82.552 167.466 83.5256 167.021 84.3843C166.592 85.2276 165.955 85.887 165.112 86.3623C164.269 86.8376 163.264 87.0753 162.099 87.0753C160.504 87.0753 159.247 86.7226 158.327 86.0173C157.422 85.312 156.786 84.3306 156.418 83.0733C156.065 81.8006 155.889 80.2366 155.889 78.3813C155.889 75.5753 156.372 73.4593 157.338 72.0333C158.304 70.592 159.83 69.8713 161.915 69.8713C163.525 69.8713 164.775 70.3083 165.664 71.1823C166.553 72.0563 167.067 73.145 167.205 74.4483H164.215ZM161.869 78.6343C161.056 78.6343 160.374 78.872 159.822 79.3473C159.27 79.8226 158.994 80.5126 158.994 81.4173C158.994 82.322 159.247 83.035 159.753 83.5563C160.274 84.0776 161.003 84.3383 161.938 84.3383C162.766 84.3383 163.418 84.0853 163.893 83.5793C164.384 83.0733 164.629 82.391 164.629 81.5323C164.629 80.643 164.391 79.9376 163.916 79.4163C163.456 78.895 162.774 78.6343 161.869 78.6343ZM180.905 72.7003L174.787 87.0293H171.521L177.685 73.0683H169.819V70.3083H180.905V72.7003Z" fill="white"/>
<path d="M68.0452 103.392H65.9662V105.526H64.5142V103.392H62.4352V102.05H64.5142V99.9157H65.9662V102.05H68.0452V103.392ZM69.4623 105.075V103.865L73.0593 98.7167H74.8523V103.733H75.8203V105.075H74.8523V106.637H73.3123V105.075H69.4623ZM73.4113 100.367L71.1563 103.733H73.4113V100.367ZM77.2848 104.899C77.9888 104.312 78.5498 103.824 78.9678 103.436C79.3858 103.04 79.7341 102.629 80.0128 102.204C80.2914 101.778 80.4308 101.36 80.4308 100.95C80.4308 100.576 80.3428 100.282 80.1668 100.07C79.9908 99.8571 79.7194 99.7507 79.3528 99.7507C78.9861 99.7507 78.7038 99.8754 78.5058 100.125C78.3078 100.367 78.2051 100.7 78.1978 101.126H76.7018C76.7311 100.246 76.9914 99.5784 77.4828 99.1237C77.9814 98.6691 78.6121 98.4417 79.3748 98.4417C80.2108 98.4417 80.8524 98.6654 81.2998 99.1127C81.7471 99.5527 81.9708 100.136 81.9708 100.862C81.9708 101.434 81.8168 101.98 81.5088 102.501C81.2008 103.021 80.8488 103.476 80.4528 103.865C80.0568 104.246 79.5398 104.708 78.9018 105.251H82.1468V106.527H76.7128V105.383L77.2848 104.899ZM83.9752 106.714C83.6965 106.714 83.4655 106.629 83.2822 106.461C83.1062 106.285 83.0182 106.068 83.0182 105.812C83.0182 105.555 83.1062 105.342 83.2822 105.174C83.4655 104.998 83.6965 104.91 83.9752 104.91C84.2465 104.91 84.4702 104.998 84.6462 105.174C84.8222 105.342 84.9102 105.555 84.9102 105.812C84.9102 106.068 84.8222 106.285 84.6462 106.461C84.4702 106.629 84.2465 106.714 83.9752 106.714ZM91.3646 99.9487H87.8006V101.83C87.9546 101.639 88.1746 101.485 88.4606 101.368C88.7466 101.243 89.0509 101.181 89.3736 101.181C89.9603 101.181 90.4406 101.309 90.8146 101.566C91.1886 101.822 91.4599 102.152 91.6286 102.556C91.7973 102.952 91.8816 103.377 91.8816 103.832C91.8816 104.675 91.6396 105.353 91.1556 105.867C90.6789 106.38 89.9969 106.637 89.1096 106.637C88.2736 106.637 87.6063 106.428 87.1076 106.01C86.6089 105.592 86.3266 105.045 86.2606 104.371H87.7566C87.8226 104.664 87.9693 104.899 88.1966 105.075C88.4313 105.251 88.7283 105.339 89.0876 105.339C89.5203 105.339 89.8466 105.203 90.0666 104.932C90.2866 104.66 90.3966 104.301 90.3966 103.854C90.3966 103.399 90.2829 103.054 90.0556 102.82C89.8356 102.578 89.5093 102.457 89.0766 102.457C88.7686 102.457 88.5119 102.534 88.3066 102.688C88.1013 102.842 87.9546 103.047 87.8666 103.304H86.3926V98.5957H91.3646V99.9487ZM92.8777 100.587C92.8777 100.029 93.039 99.5931 93.3617 99.2777C93.6917 98.9624 94.1134 98.8047 94.6267 98.8047C95.14 98.8047 95.558 98.9624 95.8807 99.2777C96.2107 99.5931 96.3757 100.029 96.3757 100.587C96.3757 101.151 96.2107 101.591 95.8807 101.907C95.558 102.222 95.14 102.38 94.6267 102.38C94.1134 102.38 93.6917 102.222 93.3617 101.907C93.039 101.591 92.8777 101.151 92.8777 100.587ZM99.9397 98.9367L95.6167 106.637H94.1207L98.4327 98.9367H99.9397ZM94.6157 99.7287C94.2124 99.7287 94.0107 100.015 94.0107 100.587C94.0107 101.166 94.2124 101.456 94.6157 101.456C94.8137 101.456 94.9677 101.386 95.0777 101.247C95.1877 101.1 95.2427 100.88 95.2427 100.587C95.2427 100.015 95.0337 99.7287 94.6157 99.7287ZM97.7067 104.976C97.7067 104.411 97.868 103.975 98.1907 103.667C98.5207 103.351 98.9424 103.194 99.4557 103.194C99.969 103.194 100.383 103.351 100.699 103.667C101.021 103.975 101.183 104.411 101.183 104.976C101.183 105.54 101.021 105.98 100.699 106.296C100.383 106.611 99.969 106.769 99.4557 106.769C98.935 106.769 98.5134 106.611 98.1907 106.296C97.868 105.98 97.7067 105.54 97.7067 104.976ZM99.4447 104.118C99.0267 104.118 98.8177 104.404 98.8177 104.976C98.8177 105.555 99.0267 105.845 99.4447 105.845C99.8554 105.845 100.061 105.555 100.061 104.976C100.061 104.404 99.8554 104.118 99.4447 104.118Z" fill="#30EF00"/>
<path d="M107.614 105.713L109.484 100.609H110.551L108.186 106.637H107.02L104.655 100.609H105.733L107.614 105.713ZM113.67 106.736C113.208 106.736 112.794 106.659 112.427 106.505C112.061 106.343 111.771 106.123 111.558 105.845C111.346 105.559 111.228 105.232 111.206 104.866H112.24C112.27 105.166 112.409 105.412 112.658 105.603C112.915 105.793 113.249 105.889 113.659 105.889C114.041 105.889 114.341 105.804 114.561 105.636C114.781 105.467 114.891 105.254 114.891 104.998C114.891 104.734 114.774 104.539 114.539 104.415C114.305 104.283 113.942 104.154 113.45 104.03C113.003 103.912 112.636 103.795 112.35 103.678C112.072 103.553 111.83 103.373 111.624 103.139C111.426 102.897 111.327 102.581 111.327 102.193C111.327 101.885 111.419 101.602 111.602 101.346C111.786 101.089 112.046 100.887 112.383 100.741C112.721 100.587 113.106 100.51 113.538 100.51C114.206 100.51 114.745 100.678 115.155 101.016C115.566 101.353 115.786 101.815 115.815 102.402H114.814C114.792 102.086 114.664 101.833 114.429 101.643C114.202 101.452 113.894 101.357 113.505 101.357C113.146 101.357 112.86 101.434 112.647 101.588C112.435 101.742 112.328 101.943 112.328 102.193C112.328 102.391 112.391 102.556 112.515 102.688C112.647 102.812 112.809 102.915 112.999 102.996C113.197 103.069 113.469 103.153 113.813 103.249C114.246 103.366 114.598 103.483 114.869 103.601C115.141 103.711 115.372 103.879 115.562 104.107C115.76 104.334 115.863 104.631 115.87 104.998C115.87 105.328 115.779 105.625 115.595 105.889C115.412 106.153 115.152 106.362 114.814 106.516C114.484 106.662 114.103 106.736 113.67 106.736ZM121.217 98.4967V106.637H120.216V98.4967H121.217ZM122.549 103.601C122.549 102.985 122.674 102.446 122.923 101.984C123.173 101.514 123.514 101.151 123.946 100.895C124.386 100.638 124.874 100.51 125.409 100.51C125.937 100.51 126.396 100.623 126.784 100.851C127.173 101.078 127.463 101.364 127.653 101.709V100.609H128.665V106.637H127.653V105.515C127.455 105.867 127.158 106.16 126.762 106.395C126.374 106.622 125.919 106.736 125.398 106.736C124.863 106.736 124.379 106.604 123.946 106.34C123.514 106.076 123.173 105.705 122.923 105.229C122.674 104.752 122.549 104.209 122.549 103.601ZM127.653 103.612C127.653 103.157 127.562 102.761 127.378 102.424C127.195 102.086 126.946 101.83 126.63 101.654C126.322 101.47 125.981 101.379 125.607 101.379C125.233 101.379 124.892 101.467 124.584 101.643C124.276 101.819 124.031 102.075 123.847 102.413C123.664 102.75 123.572 103.146 123.572 103.601C123.572 104.063 123.664 104.466 123.847 104.811C124.031 105.148 124.276 105.408 124.584 105.592C124.892 105.768 125.233 105.856 125.607 105.856C125.981 105.856 126.322 105.768 126.63 105.592C126.946 105.408 127.195 105.148 127.378 104.811C127.562 104.466 127.653 104.066 127.653 103.612ZM132.491 106.736C132.029 106.736 131.614 106.659 131.248 106.505C130.881 106.343 130.591 106.123 130.379 105.845C130.166 105.559 130.049 105.232 130.027 104.866H131.061C131.09 105.166 131.229 105.412 131.479 105.603C131.735 105.793 132.069 105.889 132.48 105.889C132.861 105.889 133.162 105.804 133.382 105.636C133.602 105.467 133.712 105.254 133.712 104.998C133.712 104.734 133.594 104.539 133.36 104.415C133.125 104.283 132.762 104.154 132.271 104.03C131.823 103.912 131.457 103.795 131.171 103.678C130.892 103.553 130.65 103.373 130.445 103.139C130.247 102.897 130.148 102.581 130.148 102.193C130.148 101.885 130.239 101.602 130.423 101.346C130.606 101.089 130.866 100.887 131.204 100.741C131.541 100.587 131.926 100.51 132.359 100.51C133.026 100.51 133.565 100.678 133.976 101.016C134.386 101.353 134.606 101.815 134.636 102.402H133.635C133.613 102.086 133.484 101.833 133.25 101.643C133.022 101.452 132.714 101.357 132.326 101.357C131.966 101.357 131.68 101.434 131.468 101.588C131.255 101.742 131.149 101.943 131.149 102.193C131.149 102.391 131.211 102.556 131.336 102.688C131.468 102.812 131.629 102.915 131.82 102.996C132.018 103.069 132.289 103.153 132.634 103.249C133.066 103.366 133.418 103.483 133.69 103.601C133.961 103.711 134.192 103.879 134.383 104.107C134.581 104.334 134.683 104.631 134.691 104.998C134.691 105.328 134.599 105.625 134.416 105.889C134.232 106.153 133.972 106.362 133.635 106.516C133.305 106.662 132.923 106.736 132.491 106.736ZM137.325 101.434V104.987C137.325 105.28 137.387 105.489 137.512 105.614C137.637 105.731 137.853 105.79 138.161 105.79H138.898V106.637H137.996C137.439 106.637 137.021 106.508 136.742 106.252C136.463 105.995 136.324 105.573 136.324 104.987V101.434H135.543V100.609H136.324V99.0907H137.325V100.609H138.898V101.434H137.325ZM142.856 100.686C142.908 100.011 143.168 99.4831 143.637 99.1017C144.107 98.7204 144.715 98.5297 145.463 98.5297C145.962 98.5297 146.391 98.6214 146.75 98.8047C147.117 98.9807 147.392 99.2227 147.575 99.5307C147.766 99.8387 147.861 100.187 147.861 100.576C147.861 101.03 147.729 101.423 147.465 101.753C147.209 102.083 146.871 102.295 146.453 102.391V102.446C146.93 102.563 147.308 102.794 147.586 103.139C147.865 103.483 148.004 103.934 148.004 104.492C148.004 104.91 147.909 105.287 147.718 105.625C147.528 105.955 147.242 106.215 146.86 106.406C146.479 106.596 146.021 106.692 145.485 106.692C144.708 106.692 144.07 106.49 143.571 106.087C143.073 105.676 142.794 105.097 142.735 104.349H143.703C143.755 104.789 143.934 105.148 144.242 105.427C144.55 105.705 144.961 105.845 145.474 105.845C145.988 105.845 146.376 105.713 146.64 105.449C146.912 105.177 147.047 104.829 147.047 104.404C147.047 103.854 146.864 103.458 146.497 103.216C146.131 102.974 145.577 102.853 144.836 102.853H144.583V102.017H144.847C145.522 102.009 146.032 101.899 146.376 101.687C146.721 101.467 146.893 101.129 146.893 100.675C146.893 100.286 146.765 99.9744 146.508 99.7397C146.259 99.5051 145.9 99.3877 145.43 99.3877C144.976 99.3877 144.609 99.5051 144.33 99.7397C144.052 99.9744 143.887 100.29 143.835 100.686H142.856ZM149.356 102.578C149.356 101.316 149.561 100.334 149.972 99.6297C150.382 98.9184 151.101 98.5627 152.128 98.5627C153.147 98.5627 153.862 98.9184 154.273 99.6297C154.683 100.334 154.889 101.316 154.889 102.578C154.889 103.861 154.683 104.858 154.273 105.57C153.862 106.281 153.147 106.637 152.128 106.637C151.101 106.637 150.382 106.281 149.972 105.57C149.561 104.858 149.356 103.861 149.356 102.578ZM153.899 102.578C153.899 101.94 153.855 101.401 153.767 100.961C153.686 100.513 153.514 100.154 153.25 99.8827C152.993 99.6114 152.619 99.4757 152.128 99.4757C151.629 99.4757 151.248 99.6114 150.984 99.8827C150.727 100.154 150.555 100.513 150.467 100.961C150.386 101.401 150.346 101.94 150.346 102.578C150.346 103.238 150.386 103.791 150.467 104.239C150.555 104.686 150.727 105.045 150.984 105.317C151.248 105.588 151.629 105.724 152.128 105.724C152.619 105.724 152.993 105.588 153.25 105.317C153.514 105.045 153.686 104.686 153.767 104.239C153.855 103.791 153.899 103.238 153.899 102.578ZM156.054 103.601C156.054 102.985 156.179 102.446 156.428 101.984C156.677 101.514 157.018 101.151 157.451 100.895C157.891 100.638 158.382 100.51 158.925 100.51C159.394 100.51 159.831 100.62 160.234 100.84C160.637 101.052 160.945 101.335 161.158 101.687V98.4967H162.17V106.637H161.158V105.504C160.96 105.863 160.667 106.16 160.278 106.395C159.889 106.622 159.435 106.736 158.914 106.736C158.379 106.736 157.891 106.604 157.451 106.34C157.018 106.076 156.677 105.705 156.428 105.229C156.179 104.752 156.054 104.209 156.054 103.601ZM161.158 103.612C161.158 103.157 161.066 102.761 160.883 102.424C160.7 102.086 160.45 101.83 160.135 101.654C159.827 101.47 159.486 101.379 159.112 101.379C158.738 101.379 158.397 101.467 158.089 101.643C157.781 101.819 157.535 102.075 157.352 102.413C157.169 102.75 157.077 103.146 157.077 103.601C157.077 104.063 157.169 104.466 157.352 104.811C157.535 105.148 157.781 105.408 158.089 105.592C158.397 105.768 158.738 105.856 159.112 105.856C159.486 105.856 159.827 105.768 160.135 105.592C160.45 105.408 160.7 105.148 160.883 104.811C161.066 104.466 161.158 104.066 161.158 103.612ZM163.488 103.601C163.488 102.985 163.612 102.446 163.862 101.984C164.111 101.514 164.452 101.151 164.885 100.895C165.325 100.638 165.812 100.51 166.348 100.51C166.876 100.51 167.334 100.623 167.723 100.851C168.111 101.078 168.401 101.364 168.592 101.709V100.609H169.604V106.637H168.592V105.515C168.394 105.867 168.097 106.16 167.701 106.395C167.312 106.622 166.857 106.736 166.337 106.736C165.801 106.736 165.317 106.604 164.885 106.34C164.452 106.076 164.111 105.705 163.862 105.229C163.612 104.752 163.488 104.209 163.488 103.601ZM168.592 103.612C168.592 103.157 168.5 102.761 168.317 102.424C168.133 102.086 167.884 101.83 167.569 101.654C167.261 101.47 166.92 101.379 166.546 101.379C166.172 101.379 165.831 101.467 165.523 101.643C165.215 101.819 164.969 102.075 164.786 102.413C164.602 102.75 164.511 103.146 164.511 103.601C164.511 104.063 164.602 104.466 164.786 104.811C164.969 105.148 165.215 105.408 165.523 105.592C165.831 105.768 166.172 105.856 166.546 105.856C166.92 105.856 167.261 105.768 167.569 105.592C167.884 105.408 168.133 105.148 168.317 104.811C168.5 104.466 168.592 104.066 168.592 103.612ZM176.487 100.609L172.857 109.475H171.823L173.011 106.571L170.58 100.609H171.691L173.583 105.493L175.453 100.609H176.487ZM179.627 106.736C179.165 106.736 178.751 106.659 178.384 106.505C178.018 106.343 177.728 106.123 177.515 105.845C177.303 105.559 177.185 105.232 177.163 104.866H178.197C178.227 105.166 178.366 105.412 178.615 105.603C178.872 105.793 179.206 105.889 179.616 105.889C179.998 105.889 180.298 105.804 180.518 105.636C180.738 105.467 180.848 105.254 180.848 104.998C180.848 104.734 180.731 104.539 180.496 104.415C180.262 104.283 179.899 104.154 179.407 104.03C178.96 103.912 178.593 103.795 178.307 103.678C178.029 103.553 177.787 103.373 177.581 103.139C177.383 102.897 177.284 102.581 177.284 102.193C177.284 101.885 177.376 101.602 177.559 101.346C177.743 101.089 178.003 100.887 178.34 100.741C178.678 100.587 179.063 100.51 179.495 100.51C180.163 100.51 180.702 100.678 181.112 101.016C181.523 101.353 181.743 101.815 181.772 102.402H180.771C180.749 102.086 180.621 101.833 180.386 101.643C180.159 101.452 179.851 101.357 179.462 101.357C179.103 101.357 178.817 101.434 178.604 101.588C178.392 101.742 178.285 101.943 178.285 102.193C178.285 102.391 178.348 102.556 178.472 102.688C178.604 102.812 178.766 102.915 178.956 102.996C179.154 103.069 179.426 103.153 179.77 103.249C180.203 103.366 180.555 103.483 180.826 103.601C181.098 103.711 181.329 103.879 181.519 104.107C181.717 104.334 181.82 104.631 181.827 104.998C181.827 105.328 181.736 105.625 181.552 105.889C181.369 106.153 181.109 106.362 180.771 106.516C180.441 106.662 180.06 106.736 179.627 106.736Z" fill="white"/>
<path d="M59.379 98.1411C59.3607 97.8655 59.1224 97.6571 58.8469 97.6754L54.3568 97.9748C54.0813 97.9931 53.8728 98.2314 53.8912 98.5069C53.9096 98.7824 54.1478 98.9909 54.4234 98.9725L58.4145 98.7065L58.6806 102.698C58.6989 102.973 58.9372 103.182 59.2127 103.163C59.4883 103.145 59.6967 102.907 59.6784 102.631L59.379 98.1411ZM58.5038 97.8451L52.313 104.92L53.0656 105.579L59.2564 98.5036L58.5038 97.8451Z" fill="#30EF00"/>
<defs>
<filter id="filter0_d_257_605" x="0" y="0" width="326.477" height="174.36" filterUnits="userSpaceOnUse" color-interpolation-filters="sRGB">
<feFlood flood-opacity="0" result="BackgroundImageFix"/>
<feColorMatrix in="SourceAlpha" type="matrix" values="0 0 0 0 0 0 0 0 0 0 0 0 0 0 0 0 0 0 127 0" result="hardAlpha"/>
<feOffset dy="12"/>
<feGaussianBlur stdDeviation="17.5"/>
<feComposite in2="hardAlpha" operator="out"/>
<feColorMatrix type="matrix" values="0 0 0 0 0 0 0 0 0 0.237553 0 0 0 0 0.641667 0 0 0 0.22 0"/>
<feBlend mode="normal" in2="BackgroundImageFix" result="effect1_dropShadow_257_605"/>
<feBlend mode="normal" in="SourceGraphic" in2="effect1_dropShadow_257_605" result="shape"/>
</filter>
<linearGradient id="paint0_linear_257_605" x1="246.826" y1="40.0546" x2="246.826" y2="94.4454" gradientUnits="userSpaceOnUse">
<stop stop-color="#FFEA32"/>
<stop offset="1" stop-color="#D9D9D9" stop-opacity="0"/>
<stop offset="1" stop-color="#F4F3F3" stop-opacity="0.25"/>
</linearGradient>
</defs>
</svg>
