<svg width="336" height="185" viewBox="0 0 336 185" fill="none" xmlns="http://www.w3.org/2000/svg">
<g filter="url(#filter0_d_257_616)">
<rect x="40" y="35" width="256" height="104.36" rx="16" fill="#07377E"/>
</g>
<path d="M220.547 78.4737L206.621 75.1782V106.29C206.621 108.499 208.412 110.29 210.621 110.29H271.604C273.813 110.29 275.604 108.499 275.604 106.29V59.8792L269.505 68.4763C268.475 69.9288 266.608 70.5251 264.926 69.939L259.2 67.9433C257.73 67.4312 256.097 67.8178 255.014 68.9342L251.386 72.6706C249.992 74.1068 247.75 74.2912 246.14 73.1022L238.555 67.5017C236.932 66.3033 234.671 66.5012 233.281 67.9633L224.367 77.3375C223.387 78.3687 221.932 78.8014 220.547 78.4737Z" fill="url(#paint0_linear_257_616)"/>
<path d="M206.621 74.9139L220.477 78.3257C221.899 78.6758 223.399 78.221 224.386 77.14L233.237 67.4545C234.638 65.9212 236.979 65.7154 238.627 66.9809L246.069 72.6994C247.704 73.9552 250.025 73.7634 251.431 72.2563L254.987 68.4448C256.081 67.2727 257.769 66.8667 259.276 67.4132L264.846 69.4332C266.564 70.0562 268.485 69.4359 269.515 67.9262L275.604 58.9946" stroke="#6FFFE5" stroke-width="2"/>
<path d="M60.7346 59.6193V62.8813H64.2906V63.9313H60.7346V67.2913H64.7106V68.3413H59.4606V58.5693H64.7106V59.6193H60.7346ZM70.6423 68.3413L68.8223 65.4853L67.0723 68.3413H65.7423L68.2203 64.5333L65.7423 60.6693H67.1843L69.0043 63.5113L70.7403 60.6693H72.0703L69.6063 64.4633L72.0843 68.3413H70.6423ZM74.6115 62.0833C74.8635 61.6446 75.2369 61.2806 75.7315 60.9913C76.2355 60.6926 76.8189 60.5433 77.4815 60.5433C78.1629 60.5433 78.7789 60.7066 79.3295 61.0333C79.8895 61.36 80.3282 61.822 80.6455 62.4193C80.9629 63.0073 81.1215 63.6933 81.1215 64.4773C81.1215 65.252 80.9629 65.9426 80.6455 66.5493C80.3282 67.156 79.8895 67.6273 79.3295 67.9633C78.7789 68.2993 78.1629 68.4673 77.4815 68.4673C76.8282 68.4673 76.2495 68.3226 75.7455 68.0333C75.2509 67.7346 74.8729 67.366 74.6115 66.9273V71.9813H73.3375V60.6693H74.6115V62.0833ZM79.8195 64.4773C79.8195 63.8986 79.7029 63.3946 79.4695 62.9653C79.2362 62.536 78.9189 62.2093 78.5175 61.9853C78.1255 61.7613 77.6915 61.6493 77.2155 61.6493C76.7489 61.6493 76.3149 61.766 75.9135 61.9993C75.5215 62.2233 75.2042 62.5546 74.9615 62.9933C74.7282 63.4226 74.6115 63.922 74.6115 64.4913C74.6115 65.07 74.7282 65.5786 74.9615 66.0173C75.2042 66.4466 75.5215 66.778 75.9135 67.0113C76.3149 67.2353 76.7489 67.3473 77.2155 67.3473C77.6915 67.3473 78.1255 67.2353 78.5175 67.0113C78.9189 66.778 79.2362 66.4466 79.4695 66.0173C79.7029 65.5786 79.8195 65.0653 79.8195 64.4773ZM89.7985 64.2113C89.7985 64.454 89.7845 64.7106 89.7565 64.9813H83.6245C83.6711 65.7373 83.9278 66.33 84.3945 66.7593C84.8705 67.1793 85.4445 67.3893 86.1165 67.3893C86.6671 67.3893 87.1245 67.2633 87.4885 67.0113C87.8618 66.75 88.1231 66.4046 88.2725 65.9753H89.6445C89.4391 66.7126 89.0285 67.3146 88.4125 67.7813C87.7965 68.2386 87.0311 68.4673 86.1165 68.4673C85.3885 68.4673 84.7351 68.304 84.1565 67.9773C83.5871 67.6506 83.1391 67.1886 82.8125 66.5913C82.4858 65.9846 82.3225 65.2846 82.3225 64.4913C82.3225 63.698 82.4811 63.0026 82.7985 62.4053C83.1158 61.808 83.5591 61.3506 84.1285 61.0333C84.7071 60.7066 85.3698 60.5433 86.1165 60.5433C86.8445 60.5433 87.4885 60.702 88.0485 61.0193C88.6085 61.3366 89.0378 61.7753 89.3365 62.3353C89.6445 62.886 89.7985 63.5113 89.7985 64.2113ZM88.4825 63.9453C88.4825 63.46 88.3751 63.0446 88.1605 62.6993C87.9458 62.3446 87.6518 62.0786 87.2785 61.9013C86.9145 61.7146 86.5085 61.6213 86.0605 61.6213C85.4165 61.6213 84.8658 61.8266 84.4085 62.2373C83.9605 62.648 83.7038 63.2173 83.6385 63.9453H88.4825ZM95.2181 60.5293C96.1514 60.5293 96.9074 60.814 97.4861 61.3833C98.0648 61.9433 98.3541 62.7553 98.3541 63.8193V68.3413H97.0941V64.0013C97.0941 63.236 96.9028 62.6526 96.5201 62.2513C96.1374 61.8406 95.6148 61.6353 94.9521 61.6353C94.2801 61.6353 93.7434 61.8453 93.3421 62.2653C92.9501 62.6853 92.7541 63.2966 92.7541 64.0993V68.3413H91.4801V60.6693H92.7541V61.7613C93.0061 61.3693 93.3468 61.066 93.7761 60.8513C94.2148 60.6366 94.6954 60.5293 95.2181 60.5293ZM103.151 68.4673C102.563 68.4673 102.036 68.3693 101.569 68.1733C101.103 67.968 100.734 67.688 100.463 67.3333C100.193 66.9693 100.043 66.554 100.015 66.0873H101.331C101.369 66.47 101.546 66.7826 101.863 67.0253C102.19 67.268 102.615 67.3893 103.137 67.3893C103.623 67.3893 104.005 67.282 104.285 67.0673C104.565 66.8526 104.705 66.582 104.705 66.2553C104.705 65.9193 104.556 65.672 104.257 65.5133C103.959 65.3453 103.497 65.182 102.871 65.0233C102.302 64.874 101.835 64.7246 101.471 64.5753C101.117 64.4166 100.809 64.188 100.547 63.8893C100.295 63.5813 100.169 63.18 100.169 62.6853C100.169 62.2933 100.286 61.934 100.519 61.6073C100.753 61.2806 101.084 61.024 101.513 60.8373C101.943 60.6413 102.433 60.5433 102.983 60.5433C103.833 60.5433 104.519 60.758 105.041 61.1873C105.564 61.6166 105.844 62.2046 105.881 62.9513H104.607C104.579 62.55 104.416 62.228 104.117 61.9853C103.828 61.7426 103.436 61.6213 102.941 61.6213C102.484 61.6213 102.12 61.7193 101.849 61.9153C101.579 62.1113 101.443 62.368 101.443 62.6853C101.443 62.9373 101.523 63.1473 101.681 63.3153C101.849 63.474 102.055 63.6046 102.297 63.7073C102.549 63.8006 102.895 63.908 103.333 64.0293C103.884 64.1786 104.332 64.328 104.677 64.4773C105.023 64.6173 105.317 64.832 105.559 65.1213C105.811 65.4106 105.942 65.7886 105.951 66.2553C105.951 66.6753 105.835 67.0533 105.601 67.3893C105.368 67.7253 105.037 67.9913 104.607 68.1873C104.187 68.374 103.702 68.4673 103.151 68.4673ZM114.75 64.2113C114.75 64.454 114.736 64.7106 114.708 64.9813H108.576C108.622 65.7373 108.879 66.33 109.346 66.7593C109.822 67.1793 110.396 67.3893 111.068 67.3893C111.618 67.3893 112.076 67.2633 112.44 67.0113C112.813 66.75 113.074 66.4046 113.224 65.9753H114.596C114.39 66.7126 113.98 67.3146 113.364 67.7813C112.748 68.2386 111.982 68.4673 111.068 68.4673C110.34 68.4673 109.686 68.304 109.108 67.9773C108.538 67.6506 108.09 67.1886 107.764 66.5913C107.437 65.9846 107.274 65.2846 107.274 64.4913C107.274 63.698 107.432 63.0026 107.75 62.4053C108.067 61.808 108.51 61.3506 109.08 61.0333C109.658 60.7066 110.321 60.5433 111.068 60.5433C111.796 60.5433 112.44 60.702 113 61.0193C113.56 61.3366 113.989 61.7753 114.288 62.3353C114.596 62.886 114.75 63.5113 114.75 64.2113ZM113.434 63.9453C113.434 63.46 113.326 63.0446 113.112 62.6993C112.897 62.3446 112.603 62.0786 112.23 61.9013C111.866 61.7146 111.46 61.6213 111.012 61.6213C110.368 61.6213 109.817 61.8266 109.36 62.2373C108.912 62.648 108.655 63.2173 108.59 63.9453H113.434ZM119.147 68.4673C118.559 68.4673 118.032 68.3693 117.565 68.1733C117.099 67.968 116.73 67.688 116.459 67.3333C116.189 66.9693 116.039 66.554 116.011 66.0873H117.327C117.365 66.47 117.542 66.7826 117.859 67.0253C118.186 67.268 118.611 67.3893 119.133 67.3893C119.619 67.3893 120.001 67.282 120.281 67.0673C120.561 66.8526 120.701 66.582 120.701 66.2553C120.701 65.9193 120.552 65.672 120.253 65.5133C119.955 65.3453 119.493 65.182 118.867 65.0233C118.298 64.874 117.831 64.7246 117.467 64.5753C117.113 64.4166 116.805 64.188 116.543 63.8893C116.291 63.5813 116.165 63.18 116.165 62.6853C116.165 62.2933 116.282 61.934 116.515 61.6073C116.749 61.2806 117.08 61.024 117.509 60.8373C117.939 60.6413 118.429 60.5433 118.979 60.5433C119.829 60.5433 120.515 60.758 121.037 61.1873C121.56 61.6166 121.84 62.2046 121.877 62.9513H120.603C120.575 62.55 120.412 62.228 120.113 61.9853C119.824 61.7426 119.432 61.6213 118.937 61.6213C118.48 61.6213 118.116 61.7193 117.845 61.9153C117.575 62.1113 117.439 62.368 117.439 62.6853C117.439 62.9373 117.519 63.1473 117.677 63.3153C117.845 63.474 118.051 63.6046 118.293 63.7073C118.545 63.8006 118.891 63.908 119.329 64.0293C119.88 64.1786 120.328 64.328 120.673 64.4773C121.019 64.6173 121.313 64.832 121.555 65.1213C121.807 65.4106 121.938 65.7886 121.947 66.2553C121.947 66.6753 121.831 67.0533 121.597 67.3893C121.364 67.7253 121.033 67.9913 120.603 68.1873C120.183 68.374 119.698 68.4673 119.147 68.4673Z" fill="white"/>
<path d="M69.7676 88.3456V91.0596H60.0156V88.3456H69.7676ZM84.8327 93.2906C84.8327 94.0879 84.6257 94.8392 84.2117 95.5446C83.8131 96.2346 83.2151 96.8096 82.4177 97.2696C81.6357 97.7142 80.7081 97.9749 79.6347 98.0516V99.9146H78.1627V98.0286C76.6294 97.8906 75.3951 97.4306 74.4597 96.6486C73.5244 95.8512 73.0414 94.7779 73.0107 93.4286H76.4607C76.5527 94.5326 77.1201 95.1996 78.1627 95.4296V91.0366C77.0587 90.7606 76.1694 90.4846 75.4947 90.2086C74.8201 89.9326 74.2374 89.4879 73.7467 88.8746C73.2561 88.2612 73.0107 87.4256 73.0107 86.3676C73.0107 85.0336 73.4861 83.9449 74.4367 83.1016C75.4027 82.2582 76.6447 81.7752 78.1627 81.6526V79.7896H79.6347V81.6526C81.1067 81.7752 82.2797 82.2199 83.1537 82.9866C84.0431 83.7532 84.5414 84.8112 84.6487 86.1606H81.1757C81.1297 85.7159 80.9687 85.3326 80.6927 85.0106C80.4321 84.6732 80.0794 84.4356 79.6347 84.2976V88.6446C80.7847 88.9359 81.6894 89.2196 82.3487 89.4956C83.0234 89.7562 83.6061 90.1932 84.0967 90.8066C84.5874 91.4046 84.8327 92.2326 84.8327 93.2906ZM76.3687 86.2066C76.3687 86.7126 76.5221 87.1266 76.8287 87.4486C77.1354 87.7552 77.5801 88.0082 78.1627 88.2076V84.2286C77.6107 84.3052 77.1737 84.5122 76.8517 84.8496C76.5297 85.1869 76.3687 85.6392 76.3687 86.2066ZM79.6347 95.4756C80.2174 95.3682 80.6697 95.1306 80.9917 94.7626C81.3291 94.3946 81.4977 93.9499 81.4977 93.4286C81.4977 92.9226 81.3367 92.5162 81.0147 92.2096C80.6927 91.9029 80.2327 91.6499 79.6347 91.4506V95.4756ZM87.6686 84.1136V81.1466H93.2116V97.9136H89.8996V84.1136H87.6686ZM100.28 94.5326L97.5886 100.996H95.5186L97.0136 94.5326H100.28ZM112.904 83.5846L106.786 97.9136H103.52L109.684 83.9526H101.818V81.1926H112.904V83.5846ZM114.695 94.6476V92.1176L122.216 81.3536H125.965V91.8416H127.989V94.6476H125.965V97.9136H122.745V94.6476H114.695ZM122.952 84.8036L118.237 91.8416H122.952V84.8036ZM133.765 93.1986C133.888 93.8732 134.164 94.3946 134.593 94.7626C135.038 95.1152 135.628 95.2916 136.364 95.2916C137.315 95.2916 138.005 94.9006 138.434 94.1186C138.863 93.3212 139.078 91.9872 139.078 90.1166C138.725 90.6072 138.227 90.9906 137.583 91.2666C136.954 91.5426 136.272 91.6806 135.536 91.6806C134.555 91.6806 133.665 91.4812 132.868 91.0826C132.086 90.6686 131.465 90.0629 131.005 89.2656C130.545 88.4529 130.315 87.4716 130.315 86.3216C130.315 84.6196 130.821 83.2702 131.833 82.2736C132.845 81.2616 134.225 80.7556 135.973 80.7556C138.15 80.7556 139.684 81.4532 140.573 82.8486C141.478 84.2439 141.93 86.3446 141.93 89.1506C141.93 91.1439 141.754 92.7769 141.401 94.0496C141.064 95.3222 140.473 96.2882 139.63 96.9476C138.802 97.6069 137.667 97.9366 136.226 97.9366C135.091 97.9366 134.125 97.7219 133.328 97.2926C132.531 96.8479 131.917 96.2729 131.488 95.5676C131.074 94.8469 130.836 94.0572 130.775 93.1986H133.765ZM136.203 89.0586C137 89.0586 137.629 88.8132 138.089 88.3226C138.549 87.8319 138.779 87.1726 138.779 86.3446C138.779 85.4399 138.534 84.7422 138.043 84.2516C137.568 83.7456 136.916 83.4926 136.088 83.4926C135.26 83.4926 134.601 83.7532 134.11 84.2746C133.635 84.7806 133.397 85.4552 133.397 86.2986C133.397 87.1112 133.627 87.7782 134.087 88.2996C134.562 88.8056 135.268 89.0586 136.203 89.0586ZM146.231 98.0746C145.648 98.0746 145.165 97.8982 144.782 97.5456C144.414 97.1776 144.23 96.7252 144.23 96.1886C144.23 95.6519 144.414 95.2072 144.782 94.8546C145.165 94.4866 145.648 94.3026 146.231 94.3026C146.798 94.3026 147.266 94.4866 147.634 94.8546C148.002 95.2072 148.186 95.6519 148.186 96.1886C148.186 96.7252 148.002 97.1776 147.634 97.5456C147.266 97.8982 146.798 98.0746 146.231 98.0746ZM151.423 94.2796C152.895 93.0529 154.068 92.0332 154.942 91.2206C155.816 90.3926 156.544 89.5339 157.127 88.6446C157.71 87.7552 158.001 86.8812 158.001 86.0226C158.001 85.2406 157.817 84.6272 157.449 84.1826C157.081 83.7379 156.514 83.5156 155.747 83.5156C154.98 83.5156 154.39 83.7762 153.976 84.2976C153.562 84.8036 153.347 85.5012 153.332 86.3906H150.204C150.265 84.5506 150.81 83.1552 151.837 82.2046C152.88 81.2539 154.198 80.7786 155.793 80.7786C157.541 80.7786 158.883 81.2462 159.818 82.1816C160.753 83.1016 161.221 84.3206 161.221 85.8386C161.221 87.0346 160.899 88.1769 160.255 89.2656C159.611 90.3542 158.875 91.3049 158.047 92.1176C157.219 92.9149 156.138 93.8809 154.804 95.0156H161.589V97.6836H150.227V95.2916L151.423 94.2796ZM163.664 85.5626C163.741 84.0292 164.278 82.8486 165.274 82.0206C166.286 81.1772 167.613 80.7556 169.253 80.7556C170.373 80.7556 171.331 80.9549 172.128 81.3536C172.926 81.7369 173.524 82.2659 173.922 82.9406C174.336 83.5999 174.543 84.3512 174.543 85.1946C174.543 86.1606 174.29 86.9809 173.784 87.6556C173.294 88.3149 172.703 88.7596 172.013 88.9896V89.0816C172.903 89.3576 173.593 89.8482 174.083 90.5536C174.589 91.2589 174.842 92.1636 174.842 93.2676C174.842 94.1876 174.628 95.0079 174.198 95.7286C173.784 96.4492 173.163 97.0166 172.335 97.4306C171.523 97.8292 170.541 98.0286 169.391 98.0286C167.659 98.0286 166.248 97.5916 165.159 96.7176C164.071 95.8436 163.496 94.5556 163.434 92.8536H166.562C166.593 93.6049 166.846 94.2106 167.321 94.6706C167.812 95.1152 168.479 95.3376 169.322 95.3376C170.104 95.3376 170.702 95.1229 171.116 94.6936C171.546 94.2489 171.76 93.6816 171.76 92.9916C171.76 92.0716 171.469 91.4122 170.886 91.0136C170.304 90.6149 169.399 90.4156 168.172 90.4156H167.505V87.7706H168.172C170.35 87.7706 171.438 87.0422 171.438 85.5856C171.438 84.9262 171.239 84.4126 170.84 84.0446C170.457 83.6766 169.897 83.4926 169.161 83.4926C168.441 83.4926 167.881 83.6919 167.482 84.0906C167.099 84.4739 166.877 84.9646 166.815 85.5626H163.664Z" fill="white"/>
<path d="M74.2422 114.276H72.1632V116.41H70.7112V114.276H68.6322V112.934H70.7112V110.8H72.1632V112.934H74.2422V114.276ZM75.7473 111.614C75.784 110.881 76.0407 110.316 76.5173 109.92C77.0013 109.517 77.6357 109.315 78.4203 109.315C78.9557 109.315 79.414 109.41 79.7953 109.601C80.1767 109.784 80.4627 110.037 80.6533 110.36C80.8513 110.675 80.9503 111.035 80.9503 111.438C80.9503 111.9 80.8293 112.292 80.5873 112.615C80.3527 112.93 80.0703 113.143 79.7403 113.253V113.297C80.1657 113.429 80.4957 113.664 80.7303 114.001C80.9723 114.338 81.0933 114.771 81.0933 115.299C81.0933 115.739 80.9907 116.131 80.7853 116.476C80.5873 116.821 80.2903 117.092 79.8943 117.29C79.5057 117.481 79.0363 117.576 78.4863 117.576C77.6577 117.576 76.983 117.367 76.4623 116.949C75.9417 116.531 75.6667 115.915 75.6373 115.101H77.1333C77.148 115.46 77.269 115.75 77.4963 115.97C77.731 116.183 78.05 116.289 78.4533 116.289C78.8273 116.289 79.1133 116.186 79.3113 115.981C79.5167 115.768 79.6193 115.497 79.6193 115.167C79.6193 114.727 79.48 114.412 79.2013 114.221C78.9227 114.03 78.49 113.935 77.9033 113.935H77.5843V112.67H77.9033C78.9447 112.67 79.4653 112.322 79.4653 111.625C79.4653 111.31 79.37 111.064 79.1793 110.888C78.996 110.712 78.7283 110.624 78.3763 110.624C78.0317 110.624 77.764 110.719 77.5733 110.91C77.39 111.093 77.2837 111.328 77.2543 111.614H75.7473ZM82.7943 115.783C83.4983 115.196 84.0593 114.709 84.4773 114.32C84.8953 113.924 85.2436 113.513 85.5223 113.088C85.801 112.663 85.9403 112.245 85.9403 111.834C85.9403 111.46 85.8523 111.167 85.6763 110.954C85.5003 110.741 85.229 110.635 84.8623 110.635C84.4956 110.635 84.2133 110.76 84.0153 111.009C83.8173 111.251 83.7146 111.585 83.7073 112.01H82.2113C82.2406 111.13 82.501 110.463 82.9923 110.008C83.491 109.553 84.1216 109.326 84.8843 109.326C85.7203 109.326 86.362 109.55 86.8093 109.997C87.2566 110.437 87.4803 111.02 87.4803 111.746C87.4803 112.318 87.3263 112.864 87.0183 113.385C86.7103 113.906 86.3583 114.36 85.9623 114.749C85.5663 115.13 85.0493 115.592 84.4113 116.135H87.6563V117.411H82.2223V116.267L82.7943 115.783ZM89.4847 117.598C89.206 117.598 88.975 117.514 88.7917 117.345C88.6157 117.169 88.5277 116.953 88.5277 116.696C88.5277 116.439 88.6157 116.227 88.7917 116.058C88.975 115.882 89.206 115.794 89.4847 115.794C89.756 115.794 89.9797 115.882 90.1557 116.058C90.3317 116.227 90.4197 116.439 90.4197 116.696C90.4197 116.953 90.3317 117.169 90.1557 117.345C89.9797 117.514 89.756 117.598 89.4847 117.598ZM91.4841 113.407C91.4841 112.138 91.7115 111.145 92.1661 110.426C92.6281 109.707 93.3908 109.348 94.4541 109.348C95.5175 109.348 96.2765 109.707 96.7311 110.426C97.1931 111.145 97.4241 112.138 97.4241 113.407C97.4241 114.683 97.1931 115.684 96.7311 116.41C96.2765 117.136 95.5175 117.499 94.4541 117.499C93.3908 117.499 92.6281 117.136 92.1661 116.41C91.7115 115.684 91.4841 114.683 91.4841 113.407ZM95.9061 113.407C95.9061 112.864 95.8695 112.41 95.7961 112.043C95.7301 111.669 95.5908 111.365 95.3781 111.13C95.1728 110.895 94.8648 110.778 94.4541 110.778C94.0435 110.778 93.7318 110.895 93.5191 111.13C93.3138 111.365 93.1745 111.669 93.1011 112.043C93.0351 112.41 93.0021 112.864 93.0021 113.407C93.0021 113.964 93.0351 114.434 93.1011 114.815C93.1671 115.189 93.3065 115.493 93.5191 115.728C93.7318 115.955 94.0435 116.069 94.4541 116.069C94.8648 116.069 95.1765 115.955 95.3891 115.728C95.6018 115.493 95.7411 115.189 95.8071 114.815C95.8731 114.434 95.9061 113.964 95.9061 113.407ZM98.6175 111.614C98.6541 110.881 98.9108 110.316 99.3875 109.92C99.8715 109.517 100.506 109.315 101.29 109.315C101.826 109.315 102.284 109.41 102.665 109.601C103.047 109.784 103.333 110.037 103.523 110.36C103.721 110.675 103.82 111.035 103.82 111.438C103.82 111.9 103.699 112.292 103.457 112.615C103.223 112.93 102.94 113.143 102.61 113.253V113.297C103.036 113.429 103.366 113.664 103.6 114.001C103.842 114.338 103.963 114.771 103.963 115.299C103.963 115.739 103.861 116.131 103.655 116.476C103.457 116.821 103.16 117.092 102.764 117.29C102.376 117.481 101.906 117.576 101.356 117.576C100.528 117.576 99.8531 117.367 99.3325 116.949C98.8118 116.531 98.5368 115.915 98.5075 115.101H100.003C100.018 115.46 100.139 115.75 100.366 115.97C100.601 116.183 100.92 116.289 101.323 116.289C101.697 116.289 101.983 116.186 102.181 115.981C102.387 115.768 102.489 115.497 102.489 115.167C102.489 114.727 102.35 114.412 102.071 114.221C101.793 114.03 101.36 113.935 100.773 113.935H100.454V112.67H100.773C101.815 112.67 102.335 112.322 102.335 111.625C102.335 111.31 102.24 111.064 102.049 110.888C101.866 110.712 101.598 110.624 101.246 110.624C100.902 110.624 100.634 110.719 100.443 110.91C100.26 111.093 100.154 111.328 100.124 111.614H98.6175ZM105.004 111.471C105.004 110.914 105.166 110.477 105.488 110.162C105.818 109.847 106.24 109.689 106.753 109.689C107.267 109.689 107.685 109.847 108.007 110.162C108.337 110.477 108.502 110.914 108.502 111.471C108.502 112.036 108.337 112.476 108.007 112.791C107.685 113.106 107.267 113.264 106.753 113.264C106.24 113.264 105.818 113.106 105.488 112.791C105.166 112.476 105.004 112.036 105.004 111.471ZM112.066 109.821L107.743 117.521H106.247L110.559 109.821H112.066ZM106.742 110.613C106.339 110.613 106.137 110.899 106.137 111.471C106.137 112.05 106.339 112.34 106.742 112.34C106.94 112.34 107.094 112.27 107.204 112.131C107.314 111.984 107.369 111.764 107.369 111.471C107.369 110.899 107.16 110.613 106.742 110.613ZM109.833 115.86C109.833 115.295 109.995 114.859 110.317 114.551C110.647 114.236 111.069 114.078 111.582 114.078C112.096 114.078 112.51 114.236 112.825 114.551C113.148 114.859 113.309 115.295 113.309 115.86C113.309 116.425 113.148 116.865 112.825 117.18C112.51 117.495 112.096 117.653 111.582 117.653C111.062 117.653 110.64 117.495 110.317 117.18C109.995 116.865 109.833 116.425 109.833 115.86ZM111.571 115.002C111.153 115.002 110.944 115.288 110.944 115.86C110.944 116.439 111.153 116.729 111.571 116.729C111.982 116.729 112.187 116.439 112.187 115.86C112.187 115.288 111.982 115.002 111.571 115.002Z" fill="#FF4220"/>
<path d="M119.741 116.597L121.611 111.493H122.678L120.313 117.521H119.147L116.782 111.493H117.86L119.741 116.597ZM125.797 117.62C125.335 117.62 124.921 117.543 124.554 117.389C124.187 117.228 123.898 117.008 123.685 116.729C123.472 116.443 123.355 116.117 123.333 115.75H124.367C124.396 116.051 124.536 116.296 124.785 116.487C125.042 116.678 125.375 116.773 125.786 116.773C126.167 116.773 126.468 116.689 126.688 116.52C126.908 116.351 127.018 116.139 127.018 115.882C127.018 115.618 126.901 115.424 126.666 115.299C126.431 115.167 126.068 115.039 125.577 114.914C125.13 114.797 124.763 114.679 124.477 114.562C124.198 114.437 123.956 114.258 123.751 114.023C123.553 113.781 123.454 113.466 123.454 113.077C123.454 112.769 123.546 112.487 123.729 112.23C123.912 111.973 124.173 111.772 124.51 111.625C124.847 111.471 125.232 111.394 125.665 111.394C126.332 111.394 126.871 111.563 127.282 111.9C127.693 112.237 127.913 112.699 127.942 113.286H126.941C126.919 112.971 126.791 112.718 126.556 112.527C126.329 112.336 126.021 112.241 125.632 112.241C125.273 112.241 124.987 112.318 124.774 112.472C124.561 112.626 124.455 112.828 124.455 113.077C124.455 113.275 124.517 113.44 124.642 113.572C124.774 113.697 124.935 113.799 125.126 113.88C125.324 113.953 125.595 114.038 125.94 114.133C126.373 114.25 126.725 114.368 126.996 114.485C127.267 114.595 127.498 114.764 127.689 114.991C127.887 115.218 127.99 115.515 127.997 115.882C127.997 116.212 127.905 116.509 127.722 116.773C127.539 117.037 127.278 117.246 126.941 117.4C126.611 117.547 126.23 117.62 125.797 117.62ZM133.344 109.381V117.521H132.343V109.381H133.344ZM134.676 114.485C134.676 113.869 134.801 113.33 135.05 112.868C135.299 112.399 135.64 112.036 136.073 111.779C136.513 111.522 137.001 111.394 137.536 111.394C138.064 111.394 138.522 111.508 138.911 111.735C139.3 111.962 139.589 112.248 139.78 112.593V111.493H140.792V117.521H139.78V116.399C139.582 116.751 139.285 117.044 138.889 117.279C138.5 117.506 138.046 117.62 137.525 117.62C136.99 117.62 136.506 117.488 136.073 117.224C135.64 116.96 135.299 116.59 135.05 116.113C134.801 115.636 134.676 115.094 134.676 114.485ZM139.78 114.496C139.78 114.041 139.688 113.645 139.505 113.308C139.322 112.971 139.072 112.714 138.757 112.538C138.449 112.355 138.108 112.263 137.734 112.263C137.36 112.263 137.019 112.351 136.711 112.527C136.403 112.703 136.157 112.96 135.974 113.297C135.791 113.634 135.699 114.03 135.699 114.485C135.699 114.947 135.791 115.35 135.974 115.695C136.157 116.032 136.403 116.293 136.711 116.476C137.019 116.652 137.36 116.74 137.734 116.74C138.108 116.74 138.449 116.652 138.757 116.476C139.072 116.293 139.322 116.032 139.505 115.695C139.688 115.35 139.78 114.951 139.78 114.496ZM144.617 117.62C144.155 117.62 143.741 117.543 143.374 117.389C143.008 117.228 142.718 117.008 142.505 116.729C142.293 116.443 142.175 116.117 142.153 115.75H143.187C143.217 116.051 143.356 116.296 143.605 116.487C143.862 116.678 144.196 116.773 144.606 116.773C144.988 116.773 145.288 116.689 145.508 116.52C145.728 116.351 145.838 116.139 145.838 115.882C145.838 115.618 145.721 115.424 145.486 115.299C145.252 115.167 144.889 115.039 144.397 114.914C143.95 114.797 143.583 114.679 143.297 114.562C143.019 114.437 142.777 114.258 142.571 114.023C142.373 113.781 142.274 113.466 142.274 113.077C142.274 112.769 142.366 112.487 142.549 112.23C142.733 111.973 142.993 111.772 143.33 111.625C143.668 111.471 144.053 111.394 144.485 111.394C145.153 111.394 145.692 111.563 146.102 111.9C146.513 112.237 146.733 112.699 146.762 113.286H145.761C145.739 112.971 145.611 112.718 145.376 112.527C145.149 112.336 144.841 112.241 144.452 112.241C144.093 112.241 143.807 112.318 143.594 112.472C143.382 112.626 143.275 112.828 143.275 113.077C143.275 113.275 143.338 113.44 143.462 113.572C143.594 113.697 143.756 113.799 143.946 113.88C144.144 113.953 144.416 114.038 144.76 114.133C145.193 114.25 145.545 114.368 145.816 114.485C146.088 114.595 146.319 114.764 146.509 114.991C146.707 115.218 146.81 115.515 146.817 115.882C146.817 116.212 146.726 116.509 146.542 116.773C146.359 117.037 146.099 117.246 145.761 117.4C145.431 117.547 145.05 117.62 144.617 117.62ZM149.452 112.318V115.871C149.452 116.164 149.514 116.373 149.639 116.498C149.763 116.615 149.98 116.674 150.288 116.674H151.025V117.521H150.123C149.565 117.521 149.147 117.393 148.869 117.136C148.59 116.879 148.451 116.458 148.451 115.871V112.318H147.67V111.493H148.451V109.975H149.452V111.493H151.025V112.318H149.452ZM154.983 111.57C155.034 110.895 155.295 110.367 155.764 109.986C156.233 109.605 156.842 109.414 157.59 109.414C158.089 109.414 158.518 109.506 158.877 109.689C159.244 109.865 159.519 110.107 159.702 110.415C159.893 110.723 159.988 111.071 159.988 111.46C159.988 111.915 159.856 112.307 159.592 112.637C159.335 112.967 158.998 113.18 158.58 113.275V113.33C159.057 113.447 159.434 113.678 159.713 114.023C159.992 114.368 160.131 114.819 160.131 115.376C160.131 115.794 160.036 116.172 159.845 116.509C159.654 116.839 159.368 117.099 158.987 117.29C158.606 117.481 158.147 117.576 157.612 117.576C156.835 117.576 156.197 117.374 155.698 116.971C155.199 116.56 154.921 115.981 154.862 115.233H155.83C155.881 115.673 156.061 116.032 156.369 116.311C156.677 116.59 157.088 116.729 157.601 116.729C158.114 116.729 158.503 116.597 158.767 116.333C159.038 116.062 159.174 115.713 159.174 115.288C159.174 114.738 158.991 114.342 158.624 114.1C158.257 113.858 157.704 113.737 156.963 113.737H156.71V112.901H156.974C157.649 112.894 158.158 112.784 158.503 112.571C158.848 112.351 159.02 112.014 159.02 111.559C159.02 111.17 158.892 110.859 158.635 110.624C158.386 110.389 158.026 110.272 157.557 110.272C157.102 110.272 156.736 110.389 156.457 110.624C156.178 110.859 156.013 111.174 155.962 111.57H154.983ZM161.483 113.462C161.483 112.201 161.688 111.218 162.099 110.514C162.509 109.803 163.228 109.447 164.255 109.447C165.274 109.447 165.989 109.803 166.4 110.514C166.81 111.218 167.016 112.201 167.016 113.462C167.016 114.745 166.81 115.743 166.4 116.454C165.989 117.165 165.274 117.521 164.255 117.521C163.228 117.521 162.509 117.165 162.099 116.454C161.688 115.743 161.483 114.745 161.483 113.462ZM166.026 113.462C166.026 112.824 165.982 112.285 165.894 111.845C165.813 111.398 165.641 111.038 165.377 110.767C165.12 110.496 164.746 110.36 164.255 110.36C163.756 110.36 163.375 110.496 163.111 110.767C162.854 111.038 162.682 111.398 162.594 111.845C162.513 112.285 162.473 112.824 162.473 113.462C162.473 114.122 162.513 114.676 162.594 115.123C162.682 115.57 162.854 115.93 163.111 116.201C163.375 116.472 163.756 116.608 164.255 116.608C164.746 116.608 165.12 116.472 165.377 116.201C165.641 115.93 165.813 115.57 165.894 115.123C165.982 114.676 166.026 114.122 166.026 113.462ZM168.181 114.485C168.181 113.869 168.305 113.33 168.555 112.868C168.804 112.399 169.145 112.036 169.578 111.779C170.018 111.522 170.509 111.394 171.052 111.394C171.521 111.394 171.957 111.504 172.361 111.724C172.764 111.937 173.072 112.219 173.285 112.571V109.381H174.297V117.521H173.285V116.388C173.087 116.747 172.793 117.044 172.405 117.279C172.016 117.506 171.561 117.62 171.041 117.62C170.505 117.62 170.018 117.488 169.578 117.224C169.145 116.96 168.804 116.59 168.555 116.113C168.305 115.636 168.181 115.094 168.181 114.485ZM173.285 114.496C173.285 114.041 173.193 113.645 173.01 113.308C172.826 112.971 172.577 112.714 172.262 112.538C171.954 112.355 171.613 112.263 171.239 112.263C170.865 112.263 170.524 112.351 170.216 112.527C169.908 112.703 169.662 112.96 169.479 113.297C169.295 113.634 169.204 114.03 169.204 114.485C169.204 114.947 169.295 115.35 169.479 115.695C169.662 116.032 169.908 116.293 170.216 116.476C170.524 116.652 170.865 116.74 171.239 116.74C171.613 116.74 171.954 116.652 172.262 116.476C172.577 116.293 172.826 116.032 173.01 115.695C173.193 115.35 173.285 114.951 173.285 114.496ZM175.614 114.485C175.614 113.869 175.739 113.33 175.988 112.868C176.238 112.399 176.579 112.036 177.011 111.779C177.451 111.522 177.939 111.394 178.474 111.394C179.002 111.394 179.461 111.508 179.849 111.735C180.238 111.962 180.528 112.248 180.718 112.593V111.493H181.73V117.521H180.718V116.399C180.52 116.751 180.223 117.044 179.827 117.279C179.439 117.506 178.984 117.62 178.463 117.62C177.928 117.62 177.444 117.488 177.011 117.224C176.579 116.96 176.238 116.59 175.988 116.113C175.739 115.636 175.614 115.094 175.614 114.485ZM180.718 114.496C180.718 114.041 180.627 113.645 180.443 113.308C180.26 112.971 180.011 112.714 179.695 112.538C179.387 112.355 179.046 112.263 178.672 112.263C178.298 112.263 177.957 112.351 177.649 112.527C177.341 112.703 177.096 112.96 176.912 113.297C176.729 113.634 176.637 114.03 176.637 114.485C176.637 114.947 176.729 115.35 176.912 115.695C177.096 116.032 177.341 116.293 177.649 116.476C177.957 116.652 178.298 116.74 178.672 116.74C179.046 116.74 179.387 116.652 179.695 116.476C180.011 116.293 180.26 116.032 180.443 115.695C180.627 115.35 180.718 114.951 180.718 114.496ZM188.614 111.493L184.984 120.359H183.95L185.138 117.455L182.707 111.493H183.818L185.71 116.377L187.58 111.493H188.614ZM191.754 117.62C191.292 117.62 190.878 117.543 190.511 117.389C190.145 117.228 189.855 117.008 189.642 116.729C189.43 116.443 189.312 116.117 189.29 115.75H190.324C190.354 116.051 190.493 116.296 190.742 116.487C190.999 116.678 191.333 116.773 191.743 116.773C192.125 116.773 192.425 116.689 192.645 116.52C192.865 116.351 192.975 116.139 192.975 115.882C192.975 115.618 192.858 115.424 192.623 115.299C192.389 115.167 192.026 115.039 191.534 114.914C191.087 114.797 190.72 114.679 190.434 114.562C190.156 114.437 189.914 114.258 189.708 114.023C189.51 113.781 189.411 113.466 189.411 113.077C189.411 112.769 189.503 112.487 189.686 112.23C189.87 111.973 190.13 111.772 190.467 111.625C190.805 111.471 191.19 111.394 191.622 111.394C192.29 111.394 192.829 111.563 193.239 111.9C193.65 112.237 193.87 112.699 193.899 113.286H192.898C192.876 112.971 192.748 112.718 192.513 112.527C192.286 112.336 191.978 112.241 191.589 112.241C191.23 112.241 190.944 112.318 190.731 112.472C190.519 112.626 190.412 112.828 190.412 113.077C190.412 113.275 190.475 113.44 190.599 113.572C190.731 113.697 190.893 113.799 191.083 113.88C191.281 113.953 191.553 114.038 191.897 114.133C192.33 114.25 192.682 114.368 192.953 114.485C193.225 114.595 193.456 114.764 193.646 114.991C193.844 115.218 193.947 115.515 193.954 115.882C193.954 116.212 193.863 116.509 193.679 116.773C193.496 117.037 193.236 117.246 192.898 117.4C192.568 117.547 192.187 117.62 191.754 117.62Z" fill="white"/>
<path d="M57.8838 116.167C57.9021 116.443 58.1404 116.651 58.4159 116.633L62.906 116.333C63.1815 116.315 63.39 116.077 63.3716 115.801C63.3532 115.526 63.115 115.317 62.8394 115.336L58.8483 115.602L58.5822 111.611C58.5638 111.335 58.3256 111.127 58.0501 111.145C57.7745 111.163 57.5661 111.402 57.5844 111.677L57.8838 116.167ZM64.1972 108.729L58.0064 115.805L58.7589 116.463L64.9498 109.388L64.1972 108.729Z" fill="#FF4220"/>
<defs>
<filter id="filter0_d_257_616" x="0" y="0" width="336" height="184.36" filterUnits="userSpaceOnUse" color-interpolation-filters="sRGB">
<feFlood flood-opacity="0" result="BackgroundImageFix"/>
<feColorMatrix in="SourceAlpha" type="matrix" values="0 0 0 0 0 0 0 0 0 0 0 0 0 0 0 0 0 0 127 0" result="hardAlpha"/>
<feOffset dy="5"/>
<feGaussianBlur stdDeviation="20"/>
<feComposite in2="hardAlpha" operator="out"/>
<feColorMatrix type="matrix" values="0 0 0 0 0.027451 0 0 0 0 0.215686 0 0 0 0 0.494118 0 0 0 0.16 0"/>
<feBlend mode="normal" in2="BackgroundImageFix" result="effect1_dropShadow_257_616"/>
<feBlend mode="normal" in="SourceGraphic" in2="effect1_dropShadow_257_616" result="shape"/>
</filter>
<linearGradient id="paint0_linear_257_616" x1="248.824" y1="59.8792" x2="248.824" y2="104.542" gradientUnits="userSpaceOnUse">
<stop stop-color="#6FFFE5"/>
<stop offset="1" stop-color="#D9D9D9" stop-opacity="0"/>
<stop offset="1" stop-color="#F4F3F3" stop-opacity="0.25"/>
</linearGradient>
</defs>
</svg>
