<svg width="670" height="489" viewBox="0 0 670 489" fill="none" xmlns="http://www.w3.org/2000/svg">
<g filter="url(#filter0_d_559_301)">
<path d="M114.725 108.926C114.725 100.089 121.888 92.9258 130.725 92.9258H581.999C590.836 92.9258 597.999 100.089 597.999 108.926V385.013C597.999 393.85 590.836 401.013 581.999 401.013H130.725C121.888 401.013 114.725 393.85 114.725 385.013V108.926Z" fill="white"/>
</g>
<mask id="mask0_559_301" style="mask-type:alpha" maskUnits="userSpaceOnUse" x="129" y="108" width="454" height="278">
<path d="M129.826 124.028C129.826 115.191 136.99 108.028 145.826 108.028H566.896C575.733 108.028 582.896 115.191 582.896 124.028V369.911C582.896 378.747 575.733 385.911 566.896 385.911H145.826C136.99 385.911 129.826 378.747 129.826 369.911V124.028Z" fill="#959595"/>
</mask>
<g mask="url(#mask0_559_301)">
<path d="M143.572 139.028L140.584 133.898H138.604V139.028H136.966V126.482H141.016C141.964 126.482 142.762 126.644 143.41 126.968C144.07 127.292 144.562 127.73 144.886 128.282C145.21 128.834 145.372 129.464 145.372 130.172C145.372 131.036 145.12 131.798 144.616 132.458C144.124 133.118 143.38 133.556 142.384 133.772L145.534 139.028H143.572ZM138.604 132.584H141.016C141.904 132.584 142.57 132.368 143.014 131.936C143.458 131.492 143.68 130.904 143.68 130.172C143.68 129.428 143.458 128.852 143.014 128.444C142.582 128.036 141.916 127.832 141.016 127.832H138.604V132.584ZM156.917 133.718C156.917 134.03 156.899 134.36 156.863 134.708H148.979C149.039 135.68 149.369 136.442 149.969 136.994C150.581 137.534 151.319 137.804 152.183 137.804C152.891 137.804 153.479 137.642 153.947 137.318C154.427 136.982 154.763 136.538 154.955 135.986H156.719C156.455 136.934 155.927 137.708 155.135 138.308C154.343 138.896 153.359 139.19 152.183 139.19C151.247 139.19 150.407 138.98 149.663 138.56C148.931 138.14 148.355 137.546 147.935 136.778C147.515 135.998 147.305 135.098 147.305 134.078C147.305 133.058 147.509 132.164 147.917 131.396C148.325 130.628 148.895 130.04 149.627 129.632C150.371 129.212 151.223 129.002 152.183 129.002C153.119 129.002 153.947 129.206 154.667 129.614C155.387 130.022 155.939 130.586 156.323 131.306C156.719 132.014 156.917 132.818 156.917 133.718ZM155.225 133.376C155.225 132.752 155.087 132.218 154.811 131.774C154.535 131.318 154.157 130.976 153.677 130.748C153.209 130.508 152.687 130.388 152.111 130.388C151.283 130.388 150.575 130.652 149.987 131.18C149.411 131.708 149.081 132.44 148.997 133.376H155.225ZM162.751 137.516L165.811 129.164H167.557L163.687 139.028H161.779L157.909 129.164H159.673L162.751 137.516ZM178.169 133.718C178.169 134.03 178.151 134.36 178.115 134.708H170.231C170.291 135.68 170.621 136.442 171.221 136.994C171.833 137.534 172.571 137.804 173.435 137.804C174.143 137.804 174.731 137.642 175.199 137.318C175.679 136.982 176.015 136.538 176.207 135.986H177.971C177.707 136.934 177.179 137.708 176.387 138.308C175.595 138.896 174.611 139.19 173.435 139.19C172.499 139.19 171.659 138.98 170.915 138.56C170.183 138.14 169.607 137.546 169.187 136.778C168.767 135.998 168.557 135.098 168.557 134.078C168.557 133.058 168.761 132.164 169.169 131.396C169.577 130.628 170.147 130.04 170.879 129.632C171.623 129.212 172.475 129.002 173.435 129.002C174.371 129.002 175.199 129.206 175.919 129.614C176.639 130.022 177.191 130.586 177.575 131.306C177.971 132.014 178.169 132.818 178.169 133.718ZM176.477 133.376C176.477 132.752 176.339 132.218 176.063 131.774C175.787 131.318 175.409 130.976 174.929 130.748C174.461 130.508 173.939 130.388 173.363 130.388C172.535 130.388 171.827 130.652 171.239 131.18C170.663 131.708 170.333 132.44 170.249 133.376H176.477ZM185.137 128.984C186.337 128.984 187.309 129.35 188.053 130.082C188.797 130.802 189.169 131.846 189.169 133.214V139.028H187.549V133.448C187.549 132.464 187.303 131.714 186.811 131.198C186.319 130.67 185.647 130.406 184.795 130.406C183.931 130.406 183.241 130.676 182.725 131.216C182.221 131.756 181.969 132.542 181.969 133.574V139.028H180.331V129.164H181.969V130.568C182.293 130.064 182.731 129.674 183.283 129.398C183.847 129.122 184.465 128.984 185.137 128.984ZM200.593 129.164V139.028H198.955V137.57C198.643 138.074 198.205 138.47 197.641 138.758C197.089 139.034 196.477 139.172 195.805 139.172C195.037 139.172 194.347 139.016 193.735 138.704C193.123 138.38 192.637 137.9 192.277 137.264C191.929 136.628 191.755 135.854 191.755 134.942V129.164H193.375V134.726C193.375 135.698 193.621 136.448 194.113 136.976C194.605 137.492 195.277 137.75 196.129 137.75C197.005 137.75 197.695 137.48 198.199 136.94C198.703 136.4 198.955 135.614 198.955 134.582V129.164H200.593ZM212.359 133.718C212.359 134.03 212.341 134.36 212.305 134.708H204.421C204.481 135.68 204.811 136.442 205.411 136.994C206.023 137.534 206.761 137.804 207.625 137.804C208.333 137.804 208.921 137.642 209.389 137.318C209.869 136.982 210.205 136.538 210.397 135.986H212.161C211.897 136.934 211.369 137.708 210.577 138.308C209.785 138.896 208.801 139.19 207.625 139.19C206.689 139.19 205.849 138.98 205.105 138.56C204.373 138.14 203.797 137.546 203.377 136.778C202.957 135.998 202.747 135.098 202.747 134.078C202.747 133.058 202.951 132.164 203.359 131.396C203.767 130.628 204.337 130.04 205.069 129.632C205.813 129.212 206.665 129.002 207.625 129.002C208.561 129.002 209.389 129.206 210.109 129.614C210.829 130.022 211.381 130.586 211.765 131.306C212.161 132.014 212.359 132.818 212.359 133.718ZM210.667 133.376C210.667 132.752 210.529 132.218 210.253 131.774C209.977 131.318 209.599 130.976 209.119 130.748C208.651 130.508 208.129 130.388 207.553 130.388C206.725 130.388 206.017 130.652 205.429 131.18C204.853 131.708 204.523 132.44 204.439 133.376H210.667ZM223.298 139.154C222.47 139.154 221.726 139.01 221.066 138.722C220.418 138.422 219.908 138.014 219.536 137.498C219.164 136.97 218.972 136.364 218.96 135.68H220.706C220.766 136.268 221.006 136.766 221.426 137.174C221.858 137.57 222.482 137.768 223.298 137.768C224.078 137.768 224.69 137.576 225.134 137.192C225.59 136.796 225.818 136.292 225.818 135.68C225.818 135.2 225.686 134.81 225.422 134.51C225.158 134.21 224.828 133.982 224.432 133.826C224.036 133.67 223.502 133.502 222.83 133.322C222.002 133.106 221.336 132.89 220.832 132.674C220.34 132.458 219.914 132.122 219.554 131.666C219.206 131.198 219.032 130.574 219.032 129.794C219.032 129.11 219.206 128.504 219.554 127.976C219.902 127.448 220.388 127.04 221.012 126.752C221.648 126.464 222.374 126.32 223.19 126.32C224.366 126.32 225.326 126.614 226.07 127.202C226.826 127.79 227.252 128.57 227.348 129.542H225.548C225.488 129.062 225.236 128.642 224.792 128.282C224.348 127.91 223.76 127.724 223.028 127.724C222.344 127.724 221.786 127.904 221.354 128.264C220.922 128.612 220.706 129.104 220.706 129.74C220.706 130.196 220.832 130.568 221.084 130.856C221.348 131.144 221.666 131.366 222.038 131.522C222.422 131.666 222.956 131.834 223.64 132.026C224.468 132.254 225.134 132.482 225.638 132.71C226.142 132.926 226.574 133.268 226.934 133.736C227.294 134.192 227.474 134.816 227.474 135.608C227.474 136.22 227.312 136.796 226.988 137.336C226.664 137.876 226.184 138.314 225.548 138.65C224.912 138.986 224.162 139.154 223.298 139.154ZM231.882 130.514V136.328C231.882 136.808 231.984 137.15 232.188 137.354C232.392 137.546 232.746 137.642 233.25 137.642H234.456V139.028H232.98C232.068 139.028 231.384 138.818 230.928 138.398C230.472 137.978 230.244 137.288 230.244 136.328V130.514H228.966V129.164H230.244V126.68H231.882V129.164H234.456V130.514H231.882ZM235.829 134.06C235.829 133.052 236.033 132.17 236.441 131.414C236.849 130.646 237.407 130.052 238.115 129.632C238.835 129.212 239.633 129.002 240.509 129.002C241.373 129.002 242.123 129.188 242.759 129.56C243.395 129.932 243.869 130.4 244.181 130.964V129.164H245.837V139.028H244.181V137.192C243.857 137.768 243.371 138.248 242.723 138.632C242.087 139.004 241.343 139.19 240.491 139.19C239.615 139.19 238.823 138.974 238.115 138.542C237.407 138.11 236.849 137.504 236.441 136.724C236.033 135.944 235.829 135.056 235.829 134.06ZM244.181 134.078C244.181 133.334 244.031 132.686 243.731 132.134C243.431 131.582 243.023 131.162 242.507 130.874C242.003 130.574 241.445 130.424 240.833 130.424C240.221 130.424 239.663 130.568 239.159 130.856C238.655 131.144 238.253 131.564 237.953 132.116C237.653 132.668 237.503 133.316 237.503 134.06C237.503 134.816 237.653 135.476 237.953 136.04C238.253 136.592 238.655 137.018 239.159 137.318C239.663 137.606 240.221 137.75 240.833 137.75C241.445 137.75 242.003 137.606 242.507 137.318C243.023 137.018 243.431 136.592 243.731 136.04C244.031 135.476 244.181 134.822 244.181 134.078ZM250.603 130.514V136.328C250.603 136.808 250.705 137.15 250.909 137.354C251.113 137.546 251.467 137.642 251.971 137.642H253.177V139.028H251.701C250.789 139.028 250.105 138.818 249.649 138.398C249.193 137.978 248.965 137.288 248.965 136.328V130.514H247.687V129.164H248.965V126.68H250.603V129.164H253.177V130.514H250.603ZM256.007 127.562C255.695 127.562 255.431 127.454 255.215 127.238C254.999 127.022 254.891 126.758 254.891 126.446C254.891 126.134 254.999 125.87 255.215 125.654C255.431 125.438 255.695 125.33 256.007 125.33C256.307 125.33 256.559 125.438 256.763 125.654C256.979 125.87 257.087 126.134 257.087 126.446C257.087 126.758 256.979 127.022 256.763 127.238C256.559 127.454 256.307 127.562 256.007 127.562ZM256.799 129.164V139.028H255.161V129.164H256.799ZM263.083 139.19C262.327 139.19 261.649 139.064 261.049 138.812C260.449 138.548 259.975 138.188 259.627 137.732C259.279 137.264 259.087 136.73 259.051 136.13H260.743C260.791 136.622 261.019 137.024 261.427 137.336C261.847 137.648 262.393 137.804 263.065 137.804C263.689 137.804 264.181 137.666 264.541 137.39C264.901 137.114 265.081 136.766 265.081 136.346C265.081 135.914 264.889 135.596 264.505 135.392C264.121 135.176 263.527 134.966 262.723 134.762C261.991 134.57 261.391 134.378 260.923 134.186C260.467 133.982 260.071 133.688 259.735 133.304C259.411 132.908 259.249 132.392 259.249 131.756C259.249 131.252 259.399 130.79 259.699 130.37C259.999 129.95 260.425 129.62 260.977 129.38C261.529 129.128 262.159 129.002 262.867 129.002C263.959 129.002 264.841 129.278 265.513 129.83C266.185 130.382 266.545 131.138 266.593 132.098H264.955C264.919 131.582 264.709 131.168 264.325 130.856C263.953 130.544 263.449 130.388 262.813 130.388C262.225 130.388 261.757 130.514 261.409 130.766C261.061 131.018 260.887 131.348 260.887 131.756C260.887 132.08 260.989 132.35 261.193 132.566C261.409 132.77 261.673 132.938 261.985 133.07C262.309 133.19 262.753 133.328 263.317 133.484C264.025 133.676 264.601 133.868 265.045 134.06C265.489 134.24 265.867 134.516 266.179 134.888C266.503 135.26 266.671 135.746 266.683 136.346C266.683 136.886 266.533 137.372 266.233 137.804C265.933 138.236 265.507 138.578 264.955 138.83C264.415 139.07 263.791 139.19 263.083 139.19ZM270.993 130.514V136.328C270.993 136.808 271.095 137.15 271.299 137.354C271.503 137.546 271.857 137.642 272.361 137.642H273.567V139.028H272.091C271.179 139.028 270.495 138.818 270.039 138.398C269.583 137.978 269.355 137.288 269.355 136.328V130.514H268.077V129.164H269.355V126.68H270.993V129.164H273.567V130.514H270.993ZM276.398 127.562C276.086 127.562 275.822 127.454 275.606 127.238C275.39 127.022 275.282 126.758 275.282 126.446C275.282 126.134 275.39 125.87 275.606 125.654C275.822 125.438 276.086 125.33 276.398 125.33C276.698 125.33 276.95 125.438 277.154 125.654C277.37 125.87 277.478 126.134 277.478 126.446C277.478 126.758 277.37 127.022 277.154 127.238C276.95 127.454 276.698 127.562 276.398 127.562ZM277.19 129.164V139.028H275.552V129.164H277.19ZM279.37 134.078C279.37 133.058 279.574 132.17 279.982 131.414C280.39 130.646 280.954 130.052 281.674 129.632C282.406 129.212 283.24 129.002 284.176 129.002C285.388 129.002 286.384 129.296 287.164 129.884C287.956 130.472 288.478 131.288 288.73 132.332H286.966C286.798 131.732 286.468 131.258 285.976 130.91C285.496 130.562 284.896 130.388 284.176 130.388C283.24 130.388 282.484 130.712 281.908 131.36C281.332 131.996 281.044 132.902 281.044 134.078C281.044 135.266 281.332 136.184 281.908 136.832C282.484 137.48 283.24 137.804 284.176 137.804C284.896 137.804 285.496 137.636 285.976 137.3C286.456 136.964 286.786 136.484 286.966 135.86H288.73C288.466 136.868 287.938 137.678 287.146 138.29C286.354 138.89 285.364 139.19 284.176 139.19C283.24 139.19 282.406 138.98 281.674 138.56C280.954 138.14 280.39 137.546 279.982 136.778C279.574 136.01 279.37 135.11 279.37 134.078ZM294.407 139.19C293.651 139.19 292.973 139.064 292.373 138.812C291.773 138.548 291.299 138.188 290.951 137.732C290.603 137.264 290.411 136.73 290.375 136.13H292.067C292.115 136.622 292.343 137.024 292.751 137.336C293.171 137.648 293.717 137.804 294.389 137.804C295.013 137.804 295.505 137.666 295.865 137.39C296.225 137.114 296.405 136.766 296.405 136.346C296.405 135.914 296.213 135.596 295.829 135.392C295.445 135.176 294.851 134.966 294.047 134.762C293.315 134.57 292.715 134.378 292.247 134.186C291.791 133.982 291.395 133.688 291.059 133.304C290.735 132.908 290.573 132.392 290.573 131.756C290.573 131.252 290.723 130.79 291.023 130.37C291.323 129.95 291.749 129.62 292.301 129.38C292.853 129.128 293.483 129.002 294.191 129.002C295.283 129.002 296.165 129.278 296.837 129.83C297.509 130.382 297.869 131.138 297.917 132.098H296.279C296.243 131.582 296.033 131.168 295.649 130.856C295.277 130.544 294.773 130.388 294.137 130.388C293.549 130.388 293.081 130.514 292.733 130.766C292.385 131.018 292.211 131.348 292.211 131.756C292.211 132.08 292.313 132.35 292.517 132.566C292.733 132.77 292.997 132.938 293.309 133.07C293.633 133.19 294.077 133.328 294.641 133.484C295.349 133.676 295.925 133.868 296.369 134.06C296.813 134.24 297.191 134.516 297.503 134.888C297.827 135.26 297.995 135.746 298.007 136.346C298.007 136.886 297.857 137.372 297.557 137.804C297.257 138.236 296.831 138.578 296.279 138.83C295.739 139.07 295.115 139.19 294.407 139.19Z" fill="black"/>
<path d="M150.057 169.893C150.057 170.826 149.824 171.703 149.357 172.525C148.909 173.346 148.237 174.037 147.341 174.597C146.464 175.157 145.419 175.493 144.205 175.605V177.873H142.385V175.605C140.631 175.437 139.212 174.886 138.129 173.953C137.047 173.019 136.505 171.787 136.505 170.257H139.921C139.977 170.985 140.211 171.591 140.621 172.077C141.032 172.543 141.62 172.842 142.385 172.973V166.813C141.135 166.495 140.117 166.178 139.333 165.861C138.549 165.525 137.877 165.002 137.317 164.293C136.776 163.583 136.505 162.613 136.505 161.381C136.505 159.831 137.047 158.553 138.129 157.545C139.212 156.518 140.631 155.921 142.385 155.753V153.485H144.205V155.753C145.848 155.902 147.164 156.425 148.153 157.321C149.161 158.198 149.731 159.411 149.861 160.961H146.445C146.389 160.382 146.165 159.869 145.773 159.421C145.381 158.954 144.859 158.637 144.205 158.469V164.517C145.456 164.815 146.473 165.133 147.257 165.469C148.041 165.786 148.704 166.299 149.245 167.009C149.787 167.699 150.057 168.661 150.057 169.893ZM139.753 161.213C139.753 161.978 139.977 162.575 140.425 163.005C140.892 163.434 141.545 163.779 142.385 164.041V158.385C141.583 158.478 140.939 158.767 140.453 159.253C139.987 159.738 139.753 160.391 139.753 161.213ZM144.205 172.973C145.027 172.842 145.671 172.515 146.137 171.993C146.604 171.451 146.837 170.807 146.837 170.061C146.837 169.314 146.604 168.735 146.137 168.325C145.689 167.895 145.045 167.55 144.205 167.289V172.973ZM156.48 171.097C158.272 169.547 159.681 168.278 160.708 167.289C161.753 166.281 162.621 165.235 163.312 164.153C164.003 163.07 164.348 161.987 164.348 160.905C164.348 159.785 164.077 158.907 163.536 158.273C163.013 157.638 162.183 157.321 161.044 157.321C159.943 157.321 159.084 157.675 158.468 158.385C157.871 159.075 157.553 160.009 157.516 161.185H154.436C154.492 159.057 155.127 157.433 156.34 156.313C157.572 155.174 159.131 154.605 161.016 154.605C163.051 154.605 164.637 155.165 165.776 156.285C166.933 157.405 167.512 158.898 167.512 160.765C167.512 162.109 167.167 163.406 166.476 164.657C165.804 165.889 164.992 166.999 164.04 167.989C163.107 168.959 161.912 170.089 160.456 171.377L159.196 172.497H168.072V175.157H154.464V172.833L156.48 171.097ZM184.036 157.769H174.656V163.341C175.048 162.818 175.627 162.379 176.392 162.025C177.176 161.67 178.007 161.493 178.884 161.493C180.452 161.493 181.722 161.829 182.692 162.501C183.682 163.173 184.382 164.022 184.792 165.049C185.222 166.075 185.436 167.158 185.436 168.297C185.436 169.678 185.166 170.91 184.624 171.993C184.102 173.057 183.308 173.897 182.244 174.513C181.199 175.129 179.911 175.437 178.38 175.437C176.346 175.437 174.712 174.933 173.48 173.925C172.248 172.917 171.511 171.582 171.268 169.921H174.376C174.582 170.798 175.039 171.498 175.748 172.021C176.458 172.525 177.344 172.777 178.408 172.777C179.734 172.777 180.723 172.375 181.376 171.573C182.048 170.77 182.384 169.706 182.384 168.381C182.384 167.037 182.048 166.01 181.376 165.301C180.704 164.573 179.715 164.209 178.408 164.209C177.494 164.209 176.719 164.442 176.084 164.909C175.468 165.357 175.02 165.973 174.74 166.757H171.716V154.969H184.036V157.769ZM192.679 171.601L189.291 179.329H187.219L189.207 171.601H192.679ZM194.992 160.065C195.104 158.329 195.767 156.975 196.98 156.005C198.212 155.034 199.78 154.549 201.684 154.549C202.991 154.549 204.12 154.782 205.072 155.249C206.024 155.715 206.743 156.35 207.228 157.153C207.713 157.955 207.956 158.861 207.956 159.869C207.956 161.026 207.648 162.015 207.032 162.837C206.416 163.658 205.679 164.209 204.82 164.489V164.601C205.921 164.937 206.78 165.553 207.396 166.449C208.012 167.326 208.32 168.455 208.32 169.837C208.32 170.938 208.068 171.918 207.564 172.777C207.06 173.635 206.313 174.317 205.324 174.821C204.335 175.306 203.149 175.549 201.768 175.549C199.752 175.549 198.091 175.035 196.784 174.009C195.496 172.963 194.805 171.47 194.712 169.529H197.792C197.867 170.518 198.249 171.33 198.94 171.965C199.631 172.581 200.564 172.889 201.74 172.889C202.879 172.889 203.756 172.581 204.372 171.965C204.988 171.33 205.296 170.518 205.296 169.529C205.296 168.222 204.876 167.298 204.036 166.757C203.215 166.197 201.945 165.917 200.228 165.917H199.5V163.285H200.256C201.768 163.266 202.916 163.014 203.7 162.529C204.503 162.043 204.904 161.278 204.904 160.233C204.904 159.337 204.615 158.627 204.036 158.105C203.457 157.563 202.636 157.293 201.572 157.293C200.527 157.293 199.715 157.563 199.136 158.105C198.557 158.627 198.212 159.281 198.1 160.065H194.992ZM215.649 169.893C215.836 170.826 216.237 171.535 216.853 172.021C217.469 172.506 218.3 172.749 219.345 172.749C220.67 172.749 221.641 172.226 222.257 171.181C222.873 170.135 223.181 168.353 223.181 165.833C222.733 166.467 222.098 166.962 221.277 167.317C220.474 167.653 219.597 167.821 218.645 167.821C217.432 167.821 216.33 167.578 215.341 167.093C214.352 166.589 213.568 165.851 212.989 164.881C212.429 163.891 212.149 162.697 212.149 161.297C212.149 159.243 212.746 157.61 213.941 156.397C215.154 155.165 216.816 154.549 218.925 154.549C221.464 154.549 223.265 155.398 224.329 157.097C225.412 158.777 225.953 161.362 225.953 164.853C225.953 167.261 225.748 169.23 225.337 170.761C224.945 172.291 224.254 173.449 223.265 174.233C222.276 175.017 220.904 175.409 219.149 175.409C217.152 175.409 215.612 174.886 214.529 173.841C213.446 172.795 212.84 171.479 212.709 169.893H215.649ZM219.205 165.133C220.325 165.133 221.202 164.787 221.837 164.097C222.49 163.387 222.817 162.454 222.817 161.297C222.817 160.009 222.472 159.01 221.781 158.301C221.109 157.573 220.185 157.209 219.009 157.209C217.833 157.209 216.9 157.582 216.209 158.329C215.537 159.057 215.201 160.018 215.201 161.213C215.201 162.351 215.528 163.294 216.181 164.041C216.853 164.769 217.861 165.133 219.205 165.133ZM231.211 171.097C233.003 169.547 234.412 168.278 235.439 167.289C236.484 166.281 237.352 165.235 238.043 164.153C238.733 163.07 239.079 161.987 239.079 160.905C239.079 159.785 238.808 158.907 238.267 158.273C237.744 157.638 236.913 157.321 235.775 157.321C234.673 157.321 233.815 157.675 233.199 158.385C232.601 159.075 232.284 160.009 232.247 161.185H229.167C229.223 159.057 229.857 157.433 231.071 156.313C232.303 155.174 233.861 154.605 235.747 154.605C237.781 154.605 239.368 155.165 240.507 156.285C241.664 157.405 242.243 158.898 242.243 160.765C242.243 162.109 241.897 163.406 241.207 164.657C240.535 165.889 239.723 166.999 238.771 167.989C237.837 168.959 236.643 170.089 235.187 171.377L233.927 172.497H242.803V175.157H229.195V172.833L231.211 171.097ZM249.527 171.601L246.139 179.329H244.067L246.055 171.601H249.527ZM251.504 171.181V168.773L260.912 155.277H264.776V168.409H267.38V171.181H264.776V175.437H261.64V171.181H251.504ZM261.78 158.525L255.172 168.409H261.78V158.525ZM283.185 157.769H273.805V163.341C274.197 162.818 274.775 162.379 275.541 162.025C276.325 161.67 277.155 161.493 278.033 161.493C279.601 161.493 280.87 161.829 281.841 162.501C282.83 163.173 283.53 164.022 283.941 165.049C284.37 166.075 284.585 167.158 284.585 168.297C284.585 169.678 284.314 170.91 283.773 171.993C283.25 173.057 282.457 173.897 281.393 174.513C280.347 175.129 279.059 175.437 277.529 175.437C275.494 175.437 273.861 174.933 272.629 173.925C271.397 172.917 270.659 171.582 270.417 169.921H273.525C273.73 170.798 274.187 171.498 274.897 172.021C275.606 172.525 276.493 172.777 277.557 172.777C278.882 172.777 279.871 172.375 280.525 171.573C281.197 170.77 281.533 169.706 281.533 168.381C281.533 167.037 281.197 166.01 280.525 165.301C279.853 164.573 278.863 164.209 277.557 164.209C276.642 164.209 275.867 164.442 275.233 164.909C274.617 165.357 274.169 165.973 273.889 166.757H270.865V154.969H283.185V157.769ZM287.908 164.965C287.908 161.735 288.449 159.215 289.532 157.405C290.633 155.575 292.518 154.661 295.188 154.661C297.857 154.661 299.733 155.575 300.816 157.405C301.917 159.215 302.468 161.735 302.468 164.965C302.468 168.231 301.917 170.789 300.816 172.637C299.733 174.466 297.857 175.381 295.188 175.381C292.518 175.381 290.633 174.466 289.532 172.637C288.449 170.789 287.908 168.231 287.908 164.965ZM299.332 164.965C299.332 163.453 299.229 162.174 299.024 161.129C298.837 160.083 298.445 159.234 297.848 158.581C297.25 157.909 296.364 157.573 295.188 157.573C294.012 157.573 293.125 157.909 292.528 158.581C291.93 159.234 291.529 160.083 291.324 161.129C291.137 162.174 291.044 163.453 291.044 164.965C291.044 166.533 291.137 167.849 291.324 168.913C291.51 169.977 291.902 170.835 292.5 171.489C293.116 172.142 294.012 172.469 295.188 172.469C296.364 172.469 297.25 172.142 297.848 171.489C298.464 170.835 298.865 169.977 299.052 168.913C299.238 167.849 299.332 166.533 299.332 164.965Z" fill="#2E2E2E"/>
<path d="M144.597 368.933V367.854H147.041V377.253H145.845V368.933H144.597ZM151.79 377.37C151.244 377.37 150.754 377.279 150.321 377.097C149.887 376.906 149.545 376.646 149.294 376.317C149.042 375.979 148.904 375.593 148.878 375.16H150.1C150.134 375.515 150.299 375.806 150.594 376.031C150.897 376.256 151.291 376.369 151.777 376.369C152.227 376.369 152.583 376.269 152.843 376.07C153.103 375.871 153.233 375.619 153.233 375.316C153.233 375.004 153.094 374.774 152.817 374.627C152.539 374.471 152.11 374.319 151.53 374.172C151.001 374.033 150.568 373.895 150.23 373.756C149.9 373.609 149.614 373.396 149.372 373.119C149.138 372.833 149.021 372.46 149.021 372.001C149.021 371.637 149.129 371.303 149.346 371C149.562 370.697 149.87 370.458 150.269 370.285C150.667 370.103 151.122 370.012 151.634 370.012C152.422 370.012 153.059 370.211 153.545 370.61C154.03 371.009 154.29 371.555 154.325 372.248H153.142C153.116 371.875 152.964 371.576 152.687 371.351C152.418 371.126 152.054 371.013 151.595 371.013C151.17 371.013 150.832 371.104 150.581 371.286C150.329 371.468 150.204 371.706 150.204 372.001C150.204 372.235 150.277 372.43 150.425 372.586C150.581 372.733 150.771 372.855 150.997 372.95C151.231 373.037 151.551 373.136 151.959 373.249C152.47 373.388 152.886 373.526 153.207 373.665C153.527 373.795 153.8 373.994 154.026 374.263C154.26 374.532 154.381 374.883 154.39 375.316C154.39 375.706 154.281 376.057 154.065 376.369C153.848 376.681 153.54 376.928 153.142 377.11C152.752 377.283 152.301 377.37 151.79 377.37ZM157.503 371.104V375.303C157.503 375.65 157.576 375.897 157.724 376.044C157.871 376.183 158.127 376.252 158.491 376.252H159.362V377.253H158.296C157.637 377.253 157.143 377.101 156.814 376.798C156.484 376.495 156.32 375.996 156.32 375.303V371.104H155.397V370.129H156.32V368.335H157.503V370.129H159.362V371.104H157.503ZM175.649 368.192L173.023 377.253H171.697L169.591 369.96L167.407 377.253L166.094 377.266L163.559 368.192H164.82L166.796 375.875L168.98 368.192H170.306L172.386 375.849L174.375 368.192H175.649ZM183.443 373.418C183.443 373.643 183.43 373.882 183.404 374.133H177.71C177.754 374.835 177.992 375.385 178.425 375.784C178.867 376.174 179.4 376.369 180.024 376.369C180.536 376.369 180.96 376.252 181.298 376.018C181.645 375.775 181.888 375.455 182.026 375.056H183.3C183.11 375.741 182.728 376.3 182.156 376.733C181.584 377.158 180.874 377.37 180.024 377.37C179.348 377.37 178.742 377.218 178.204 376.915C177.676 376.612 177.26 376.183 176.956 375.628C176.653 375.065 176.501 374.415 176.501 373.678C176.501 372.941 176.649 372.296 176.943 371.741C177.238 371.186 177.65 370.762 178.178 370.467C178.716 370.164 179.331 370.012 180.024 370.012C180.7 370.012 181.298 370.159 181.818 370.454C182.338 370.749 182.737 371.156 183.014 371.676C183.3 372.187 183.443 372.768 183.443 373.418ZM182.221 373.171C182.221 372.72 182.122 372.335 181.922 372.014C181.723 371.685 181.45 371.438 181.103 371.273C180.765 371.1 180.388 371.013 179.972 371.013C179.374 371.013 178.863 371.204 178.438 371.585C178.022 371.966 177.784 372.495 177.723 373.171H182.221ZM191.505 373.418C191.505 373.643 191.492 373.882 191.466 374.133H185.772C185.815 374.835 186.054 375.385 186.487 375.784C186.929 376.174 187.462 376.369 188.086 376.369C188.597 376.369 189.022 376.252 189.36 376.018C189.707 375.775 189.949 375.455 190.088 375.056H191.362C191.171 375.741 190.79 376.3 190.218 376.733C189.646 377.158 188.935 377.37 188.086 377.37C187.41 377.37 186.803 377.218 186.266 376.915C185.737 376.612 185.321 376.183 185.018 375.628C184.715 375.065 184.563 374.415 184.563 373.678C184.563 372.941 184.71 372.296 185.005 371.741C185.3 371.186 185.711 370.762 186.24 370.467C186.777 370.164 187.393 370.012 188.086 370.012C188.762 370.012 189.36 370.159 189.88 370.454C190.4 370.749 190.799 371.156 191.076 371.676C191.362 372.187 191.505 372.768 191.505 373.418ZM190.283 373.171C190.283 372.72 190.183 372.335 189.984 372.014C189.785 371.685 189.512 371.438 189.165 371.273C188.827 371.1 188.45 371.013 188.034 371.013C187.436 371.013 186.925 371.204 186.5 371.585C186.084 371.966 185.846 372.495 185.785 373.171H190.283ZM197.044 377.253L194.249 374.107V377.253H193.066V367.633H194.249V373.288L196.992 370.129H198.643L195.289 373.678L198.656 377.253H197.044ZM292.996 376.304C294.097 375.42 294.959 374.696 295.583 374.133C296.207 373.561 296.731 372.967 297.156 372.352C297.589 371.728 297.806 371.117 297.806 370.519C297.806 369.956 297.667 369.514 297.39 369.193C297.121 368.864 296.684 368.699 296.077 368.699C295.488 368.699 295.028 368.885 294.699 369.258C294.378 369.622 294.205 370.112 294.179 370.727H293.035C293.07 369.756 293.364 369.007 293.919 368.478C294.474 367.949 295.189 367.685 296.064 367.685C296.957 367.685 297.663 367.932 298.183 368.426C298.712 368.92 298.976 369.6 298.976 370.467C298.976 371.186 298.759 371.888 298.326 372.573C297.901 373.249 297.416 373.847 296.87 374.367C296.324 374.878 295.626 375.476 294.777 376.161H299.249V377.149H292.996V376.304ZM304.283 369.999C305.149 369.999 305.851 370.263 306.389 370.792C306.926 371.312 307.195 372.066 307.195 373.054V377.253H306.025V373.223C306.025 372.512 305.847 371.971 305.492 371.598C305.136 371.217 304.651 371.026 304.036 371.026C303.412 371.026 302.913 371.221 302.541 371.611C302.177 372.001 301.995 372.569 301.995 373.314V377.253H300.812V370.129H301.995V371.143C302.229 370.779 302.545 370.497 302.944 370.298C303.351 370.099 303.797 369.999 304.283 369.999ZM308.685 373.665C308.685 372.937 308.832 372.3 309.127 371.754C309.422 371.199 309.825 370.77 310.336 370.467C310.856 370.164 311.437 370.012 312.078 370.012C312.633 370.012 313.148 370.142 313.625 370.402C314.102 370.653 314.466 370.987 314.717 371.403V367.633H315.913V377.253H314.717V375.914C314.483 376.339 314.136 376.69 313.677 376.967C313.218 377.236 312.68 377.37 312.065 377.37C311.432 377.37 310.856 377.214 310.336 376.902C309.825 376.59 309.422 376.152 309.127 375.589C308.832 375.026 308.685 374.384 308.685 373.665ZM314.717 373.678C314.717 373.141 314.609 372.673 314.392 372.274C314.175 371.875 313.881 371.572 313.508 371.364C313.144 371.147 312.741 371.039 312.299 371.039C311.857 371.039 311.454 371.143 311.09 371.351C310.726 371.559 310.436 371.862 310.219 372.261C310.002 372.66 309.894 373.128 309.894 373.665C309.894 374.211 310.002 374.688 310.219 375.095C310.436 375.494 310.726 375.801 311.09 376.018C311.454 376.226 311.857 376.33 312.299 376.33C312.741 376.33 313.144 376.226 313.508 376.018C313.881 375.801 314.175 375.494 314.392 375.095C314.609 374.688 314.717 374.215 314.717 373.678ZM332.766 368.192L330.14 377.253H328.814L326.708 369.96L324.524 377.253L323.211 377.266L320.676 368.192H321.937L323.913 375.875L326.097 368.192H327.423L329.503 375.849L331.492 368.192H332.766ZM340.561 373.418C340.561 373.643 340.548 373.882 340.522 374.133H334.828C334.871 374.835 335.109 375.385 335.543 375.784C335.985 376.174 336.518 376.369 337.142 376.369C337.653 376.369 338.078 376.252 338.416 376.018C338.762 375.775 339.005 375.455 339.144 375.056H340.418C340.227 375.741 339.846 376.3 339.274 376.733C338.702 377.158 337.991 377.37 337.142 377.37C336.466 377.37 335.859 377.218 335.322 376.915C334.793 376.612 334.377 376.183 334.074 375.628C333.77 375.065 333.619 374.415 333.619 373.678C333.619 372.941 333.766 372.296 334.061 371.741C334.355 371.186 334.767 370.762 335.296 370.467C335.833 370.164 336.448 370.012 337.142 370.012C337.818 370.012 338.416 370.159 338.936 370.454C339.456 370.749 339.854 371.156 340.132 371.676C340.418 372.187 340.561 372.768 340.561 373.418ZM339.339 373.171C339.339 372.72 339.239 372.335 339.04 372.014C338.84 371.685 338.567 371.438 338.221 371.273C337.883 371.1 337.506 371.013 337.09 371.013C336.492 371.013 335.98 371.204 335.556 371.585C335.14 371.966 334.901 372.495 334.841 373.171H339.339ZM348.622 373.418C348.622 373.643 348.609 373.882 348.583 374.133H342.889C342.932 374.835 343.171 375.385 343.604 375.784C344.046 376.174 344.579 376.369 345.203 376.369C345.714 376.369 346.139 376.252 346.477 376.018C346.824 375.775 347.066 375.455 347.205 375.056H348.479C348.288 375.741 347.907 376.3 347.335 376.733C346.763 377.158 346.052 377.37 345.203 377.37C344.527 377.37 343.92 377.218 343.383 376.915C342.854 376.612 342.438 376.183 342.135 375.628C341.832 375.065 341.68 374.415 341.68 373.678C341.68 372.941 341.827 372.296 342.122 371.741C342.417 371.186 342.828 370.762 343.357 370.467C343.894 370.164 344.51 370.012 345.203 370.012C345.879 370.012 346.477 370.159 346.997 370.454C347.517 370.749 347.916 371.156 348.193 371.676C348.479 372.187 348.622 372.768 348.622 373.418ZM347.4 373.171C347.4 372.72 347.3 372.335 347.101 372.014C346.902 371.685 346.629 371.438 346.282 371.273C345.944 371.1 345.567 371.013 345.151 371.013C344.553 371.013 344.042 371.204 343.617 371.585C343.201 371.966 342.963 372.495 342.902 373.171H347.4ZM354.162 377.253L351.367 374.107V377.253H350.184V367.633H351.367V373.288L354.11 370.129H355.761L352.407 373.678L355.774 377.253H354.162ZM450.23 370.22C450.291 369.423 450.599 368.799 451.153 368.348C451.708 367.897 452.427 367.672 453.311 367.672C453.901 367.672 454.408 367.78 454.832 367.997C455.266 368.205 455.591 368.491 455.807 368.855C456.033 369.219 456.145 369.631 456.145 370.09C456.145 370.627 455.989 371.091 455.677 371.481C455.374 371.871 454.975 372.122 454.481 372.235V372.3C455.045 372.439 455.491 372.712 455.82 373.119C456.15 373.526 456.314 374.059 456.314 374.718C456.314 375.212 456.202 375.658 455.976 376.057C455.751 376.447 455.413 376.755 454.962 376.98C454.512 377.205 453.97 377.318 453.337 377.318C452.419 377.318 451.665 377.08 451.075 376.603C450.486 376.118 450.157 375.433 450.087 374.549H451.231C451.292 375.069 451.504 375.494 451.868 375.823C452.232 376.152 452.718 376.317 453.324 376.317C453.931 376.317 454.39 376.161 454.702 375.849C455.023 375.528 455.183 375.117 455.183 374.614C455.183 373.964 454.967 373.496 454.533 373.21C454.1 372.924 453.446 372.781 452.57 372.781H452.271V371.793H452.583C453.381 371.784 453.983 371.654 454.39 371.403C454.798 371.143 455.001 370.744 455.001 370.207C455.001 369.748 454.85 369.379 454.546 369.102C454.252 368.825 453.827 368.686 453.272 368.686C452.735 368.686 452.302 368.825 451.972 369.102C451.643 369.379 451.448 369.752 451.387 370.22H450.23ZM459.289 371.286C459.497 370.879 459.792 370.562 460.173 370.337C460.563 370.112 461.036 369.999 461.59 369.999V371.221H461.278C459.952 371.221 459.289 371.94 459.289 373.379V377.253H458.106V370.129H459.289V371.286ZM462.514 373.665C462.514 372.937 462.661 372.3 462.956 371.754C463.251 371.199 463.654 370.77 464.165 370.467C464.685 370.164 465.266 370.012 465.907 370.012C466.462 370.012 466.977 370.142 467.454 370.402C467.931 370.653 468.295 370.987 468.546 371.403V367.633H469.742V377.253H468.546V375.914C468.312 376.339 467.965 376.69 467.506 376.967C467.047 377.236 466.509 377.37 465.894 377.37C465.261 377.37 464.685 377.214 464.165 376.902C463.654 376.59 463.251 376.152 462.956 375.589C462.661 375.026 462.514 374.384 462.514 373.665ZM468.546 373.678C468.546 373.141 468.438 372.673 468.221 372.274C468.004 371.875 467.71 371.572 467.337 371.364C466.973 371.147 466.57 371.039 466.128 371.039C465.686 371.039 465.283 371.143 464.919 371.351C464.555 371.559 464.265 371.862 464.048 372.261C463.831 372.66 463.723 373.128 463.723 373.665C463.723 374.211 463.831 374.688 464.048 375.095C464.265 375.494 464.555 375.801 464.919 376.018C465.283 376.226 465.686 376.33 466.128 376.33C466.57 376.33 466.973 376.226 467.337 376.018C467.71 375.801 468.004 375.494 468.221 375.095C468.438 374.688 468.546 374.215 468.546 373.678ZM486.595 368.192L483.969 377.253H482.643L480.537 369.96L478.353 377.253L477.04 377.266L474.505 368.192H475.766L477.742 375.875L479.926 368.192H481.252L483.332 375.849L485.321 368.192H486.595ZM494.39 373.418C494.39 373.643 494.377 373.882 494.351 374.133H488.657C488.7 374.835 488.938 375.385 489.372 375.784C489.814 376.174 490.347 376.369 490.971 376.369C491.482 376.369 491.907 376.252 492.245 376.018C492.591 375.775 492.834 375.455 492.973 375.056H494.247C494.056 375.741 493.675 376.3 493.103 376.733C492.531 377.158 491.82 377.37 490.971 377.37C490.295 377.37 489.688 377.218 489.151 376.915C488.622 376.612 488.206 376.183 487.903 375.628C487.599 375.065 487.448 374.415 487.448 373.678C487.448 372.941 487.595 372.296 487.89 371.741C488.184 371.186 488.596 370.762 489.125 370.467C489.662 370.164 490.277 370.012 490.971 370.012C491.647 370.012 492.245 370.159 492.765 370.454C493.285 370.749 493.683 371.156 493.961 371.676C494.247 372.187 494.39 372.768 494.39 373.418ZM493.168 373.171C493.168 372.72 493.068 372.335 492.869 372.014C492.669 371.685 492.396 371.438 492.05 371.273C491.712 371.1 491.335 371.013 490.919 371.013C490.321 371.013 489.809 371.204 489.385 371.585C488.969 371.966 488.73 372.495 488.67 373.171H493.168ZM502.451 373.418C502.451 373.643 502.438 373.882 502.412 374.133H496.718C496.762 374.835 497 375.385 497.433 375.784C497.875 376.174 498.408 376.369 499.032 376.369C499.544 376.369 499.968 376.252 500.306 376.018C500.653 375.775 500.896 375.455 501.034 375.056H502.308C502.118 375.741 501.736 376.3 501.164 376.733C500.592 377.158 499.882 377.37 499.032 377.37C498.356 377.37 497.75 377.218 497.212 376.915C496.684 376.612 496.268 376.183 495.964 375.628C495.661 375.065 495.509 374.415 495.509 373.678C495.509 372.941 495.657 372.296 495.951 371.741C496.246 371.186 496.658 370.762 497.186 370.467C497.724 370.164 498.339 370.012 499.032 370.012C499.708 370.012 500.306 370.159 500.826 370.454C501.346 370.749 501.745 371.156 502.022 371.676C502.308 372.187 502.451 372.768 502.451 373.418ZM501.229 373.171C501.229 372.72 501.13 372.335 500.93 372.014C500.731 371.685 500.458 371.438 500.111 371.273C499.773 371.1 499.396 371.013 498.98 371.013C498.382 371.013 497.871 371.204 497.446 371.585C497.03 371.966 496.792 372.495 496.731 373.171H501.229ZM507.991 377.253L505.196 374.107V377.253H504.013V367.633H505.196V373.288L507.939 370.129H509.59L506.236 373.678L509.603 377.253H507.991ZM144.623 395.16V394.263L149.186 387.945H150.603V394.133H151.903V395.16H150.603V397.253H149.433V395.16H144.623ZM149.485 389.18L145.988 394.133H149.485V389.18ZM154.722 391.104V395.303C154.722 395.65 154.796 395.897 154.943 396.044C155.091 396.183 155.346 396.252 155.71 396.252H156.581V397.253H155.515C154.857 397.253 154.363 397.101 154.033 396.798C153.704 396.495 153.539 395.996 153.539 395.303V391.104H152.616V390.129H153.539V388.335H154.722V390.129H156.581V391.104H154.722ZM161.551 389.999C162.088 389.999 162.573 390.116 163.007 390.35C163.44 390.575 163.778 390.918 164.021 391.377C164.272 391.836 164.398 392.395 164.398 393.054V397.253H163.228V393.223C163.228 392.512 163.05 391.971 162.695 391.598C162.339 391.217 161.854 391.026 161.239 391.026C160.615 391.026 160.116 391.221 159.744 391.611C159.38 392.001 159.198 392.569 159.198 393.314V397.253H158.015V387.633H159.198V391.143C159.432 390.779 159.752 390.497 160.16 390.298C160.576 390.099 161.039 389.999 161.551 389.999ZM181.184 388.192L178.558 397.253H177.232L175.126 389.96L172.942 397.253L171.629 397.266L169.094 388.192H170.355L172.331 395.875L174.515 388.192H175.841L177.921 395.849L179.91 388.192H181.184ZM188.979 393.418C188.979 393.643 188.966 393.882 188.94 394.133H183.246C183.289 394.835 183.527 395.385 183.961 395.784C184.403 396.174 184.936 396.369 185.56 396.369C186.071 396.369 186.496 396.252 186.834 396.018C187.18 395.775 187.423 395.455 187.562 395.056H188.836C188.645 395.741 188.264 396.3 187.692 396.733C187.12 397.158 186.409 397.37 185.56 397.37C184.884 397.37 184.277 397.218 183.74 396.915C183.211 396.612 182.795 396.183 182.492 395.628C182.188 395.065 182.037 394.415 182.037 393.678C182.037 392.941 182.184 392.296 182.479 391.741C182.773 391.186 183.185 390.762 183.714 390.467C184.251 390.164 184.866 390.012 185.56 390.012C186.236 390.012 186.834 390.159 187.354 390.454C187.874 390.749 188.272 391.156 188.55 391.676C188.836 392.187 188.979 392.768 188.979 393.418ZM187.757 393.171C187.757 392.72 187.657 392.335 187.458 392.014C187.258 391.685 186.985 391.438 186.639 391.273C186.301 391.1 185.924 391.013 185.508 391.013C184.91 391.013 184.398 391.204 183.974 391.585C183.558 391.966 183.319 392.495 183.259 393.171H187.757ZM197.04 393.418C197.04 393.643 197.027 393.882 197.001 394.133H191.307C191.35 394.835 191.589 395.385 192.022 395.784C192.464 396.174 192.997 396.369 193.621 396.369C194.132 396.369 194.557 396.252 194.895 396.018C195.242 395.775 195.484 395.455 195.623 395.056H196.897C196.706 395.741 196.325 396.3 195.753 396.733C195.181 397.158 194.47 397.37 193.621 397.37C192.945 397.37 192.338 397.218 191.801 396.915C191.272 396.612 190.856 396.183 190.553 395.628C190.25 395.065 190.098 394.415 190.098 393.678C190.098 392.941 190.245 392.296 190.54 391.741C190.835 391.186 191.246 390.762 191.775 390.467C192.312 390.164 192.928 390.012 193.621 390.012C194.297 390.012 194.895 390.159 195.415 390.454C195.935 390.749 196.334 391.156 196.611 391.676C196.897 392.187 197.04 392.768 197.04 393.418ZM195.818 393.171C195.818 392.72 195.718 392.335 195.519 392.014C195.32 391.685 195.047 391.438 194.7 391.273C194.362 391.1 193.985 391.013 193.569 391.013C192.971 391.013 192.46 391.204 192.035 391.585C191.619 391.966 191.381 392.495 191.32 393.171H195.818ZM202.58 397.253L199.785 394.107V397.253H198.602V387.633H199.785V393.288L202.528 390.129H204.179L200.825 393.678L204.192 397.253H202.58Z" fill="#888888"/>
<path d="M163.972 301.627L136.395 281.467L136.015 358.985C136.007 360.648 137.352 362 139.015 362H580C581.657 362 583 360.657 583 359V214.888L562.429 243.387C560.072 246.651 555.987 248.184 552.065 247.276L547.965 246.327C543.155 245.213 538.251 247.777 536.421 252.364L530.876 266.264C527.25 275.354 514.076 274.363 511.85 264.833L502.196 223.495C500.057 214.336 487.606 212.927 483.474 221.377L480.673 227.106C479.741 229.011 478.228 230.57 476.353 231.559L459.736 240.32C455.314 242.652 449.848 241.359 446.939 237.292L429.459 212.857C428.723 211.828 428.189 210.669 427.885 209.441L426.993 205.836C424.807 196.998 412.909 195.442 408.523 203.42L371.986 269.878C368.79 275.692 360.923 276.839 356.201 272.18L339.222 255.431C335.439 251.699 329.397 251.578 325.467 255.157L307.19 271.8C302.042 276.487 293.798 274.611 291.187 268.157L270.998 218.261C267.449 209.491 254.834 210.096 252.141 219.166L243.411 248.572C241.337 255.561 232.721 258.052 227.237 253.249L219.076 246.102C214.164 241.8 206.513 243.284 203.565 249.111L178.797 298.068C176.011 303.574 168.953 305.268 163.972 301.627Z" fill="url(#paint0_linear_559_301)"/>
<path d="M136 281.8L163.616 302.028C168.599 305.678 175.667 303.982 178.451 298.468L203.264 249.325C206.21 243.489 213.872 242.003 218.786 246.316L226.965 253.493C232.45 258.306 241.076 255.814 243.149 248.818L251.906 219.261C254.596 210.184 267.222 209.579 270.767 218.357L291 268.462C293.61 274.924 301.864 276.802 307.013 272.104L325.319 255.401C329.251 251.814 335.304 251.935 339.089 255.676L356.095 272.485C360.818 277.154 368.697 276.006 371.892 270.184L408.493 203.474C412.875 195.487 424.785 197.042 426.968 205.887L427.871 209.543C428.174 210.77 428.707 211.928 429.441 212.957L447.01 237.566C449.894 241.606 455.304 242.918 459.719 240.65L475.521 232.531C477.454 231.537 479.011 229.941 479.956 227.984L483.557 220.524C487.66 212.028 500.165 213.418 502.303 222.607L512.634 267.025C514.864 276.609 528.141 277.549 531.698 268.374L537.618 253.106C539.486 248.287 544.718 245.686 549.688 247.105L550.152 247.238C553.912 248.312 557.953 247.095 560.495 244.125L582 219" stroke="#146BFF" stroke-width="3"/>
</g>
<g filter="url(#filter1_d_559_301)">
<rect x="40" y="329.537" width="225.799" height="110.463" rx="16" fill="white"/>
</g>
<rect x="189.5" y="347.5" width="59" height="24" rx="12" fill="#A2FFB0" stroke="#23AA62"/>
<path d="M207.418 356.96V356.047H209.486V364H208.474V356.96H207.418ZM216.276 356.916H212.415V359.424C212.584 359.189 212.833 358.999 213.163 358.852C213.493 358.698 213.849 358.621 214.23 358.621C214.839 358.621 215.334 358.749 215.715 359.006C216.097 359.255 216.368 359.582 216.529 359.985C216.698 360.381 216.782 360.803 216.782 361.25C216.782 361.778 216.683 362.251 216.485 362.669C216.287 363.087 215.983 363.417 215.572 363.659C215.169 363.901 214.667 364.022 214.065 364.022C213.295 364.022 212.672 363.824 212.195 363.428C211.719 363.032 211.429 362.504 211.326 361.844H212.305C212.401 362.262 212.602 362.588 212.91 362.823C213.218 363.058 213.607 363.175 214.076 363.175C214.656 363.175 215.092 363.003 215.385 362.658C215.679 362.306 215.825 361.844 215.825 361.272C215.825 360.7 215.679 360.26 215.385 359.952C215.092 359.637 214.659 359.479 214.087 359.479C213.699 359.479 213.358 359.574 213.064 359.765C212.778 359.948 212.569 360.201 212.437 360.524H211.491V356.036H216.276V356.916ZM218.597 364.066C218.406 364.066 218.245 364 218.113 363.868C217.981 363.736 217.915 363.575 217.915 363.384C217.915 363.193 217.981 363.032 218.113 362.9C218.245 362.768 218.406 362.702 218.597 362.702C218.78 362.702 218.934 362.768 219.059 362.9C219.191 363.032 219.257 363.193 219.257 363.384C219.257 363.575 219.191 363.736 219.059 363.868C218.934 364 218.78 364.066 218.597 364.066ZM220.4 358.049C220.452 357.374 220.712 356.846 221.181 356.465C221.651 356.084 222.259 355.893 223.007 355.893C223.506 355.893 223.935 355.985 224.294 356.168C224.661 356.344 224.936 356.586 225.119 356.894C225.31 357.202 225.405 357.55 225.405 357.939C225.405 358.394 225.273 358.786 225.009 359.116C224.753 359.446 224.415 359.659 223.997 359.754V359.809C224.474 359.926 224.852 360.157 225.13 360.502C225.409 360.847 225.548 361.298 225.548 361.855C225.548 362.273 225.453 362.651 225.262 362.988C225.072 363.318 224.786 363.578 224.404 363.769C224.023 363.96 223.565 364.055 223.029 364.055C222.252 364.055 221.614 363.853 221.115 363.45C220.617 363.039 220.338 362.46 220.279 361.712H221.247C221.299 362.152 221.478 362.511 221.786 362.79C222.094 363.069 222.505 363.208 223.018 363.208C223.532 363.208 223.92 363.076 224.184 362.812C224.456 362.541 224.591 362.192 224.591 361.767C224.591 361.217 224.408 360.821 224.041 360.579C223.675 360.337 223.121 360.216 222.38 360.216H222.127V359.38H222.391C223.066 359.373 223.576 359.263 223.92 359.05C224.265 358.83 224.437 358.493 224.437 358.038C224.437 357.649 224.309 357.338 224.052 357.103C223.803 356.868 223.444 356.751 222.974 356.751C222.52 356.751 222.153 356.868 221.874 357.103C221.596 357.338 221.431 357.653 221.379 358.049H220.4ZM226.658 362.229V361.47L230.519 356.124H231.718V361.36H232.818V362.229H231.718V364H230.728V362.229H226.658ZM230.772 357.169L227.813 361.36H230.772V357.169ZM233.598 357.84C233.598 357.341 233.748 356.945 234.049 356.652C234.349 356.351 234.734 356.201 235.204 356.201C235.673 356.201 236.058 356.351 236.359 356.652C236.659 356.945 236.81 357.341 236.81 357.84C236.81 358.346 236.659 358.749 236.359 359.05C236.058 359.343 235.673 359.49 235.204 359.49C234.734 359.49 234.349 359.343 234.049 359.05C233.748 358.749 233.598 358.346 233.598 357.84ZM240.022 356.322L235.567 364H234.577L239.032 356.322H240.022ZM235.204 356.817C234.954 356.817 234.756 356.905 234.61 357.081C234.47 357.25 234.401 357.503 234.401 357.84C234.401 358.177 234.47 358.434 234.61 358.61C234.756 358.786 234.954 358.874 235.204 358.874C235.453 358.874 235.651 358.786 235.798 358.61C235.944 358.427 236.018 358.17 236.018 357.84C236.018 357.503 235.944 357.25 235.798 357.081C235.651 356.905 235.453 356.817 235.204 356.817ZM237.811 362.482C237.811 361.976 237.961 361.576 238.262 361.283C238.562 360.982 238.947 360.832 239.417 360.832C239.886 360.832 240.267 360.982 240.561 361.283C240.861 361.576 241.012 361.976 241.012 362.482C241.012 362.981 240.861 363.38 240.561 363.681C240.267 363.982 239.886 364.132 239.417 364.132C238.947 364.132 238.562 363.985 238.262 363.692C237.961 363.391 237.811 362.988 237.811 362.482ZM239.406 361.459C239.156 361.459 238.958 361.547 238.812 361.723C238.665 361.892 238.592 362.145 238.592 362.482C238.592 362.812 238.665 363.065 238.812 363.241C238.958 363.41 239.156 363.494 239.406 363.494C239.655 363.494 239.853 363.41 240 363.241C240.146 363.065 240.22 362.812 240.22 362.482C240.22 362.145 240.146 361.892 240 361.723C239.853 361.547 239.655 361.459 239.406 361.459Z" fill="#007C3A"/>
<path d="M204.368 355.987C204.327 355.714 204.072 355.526 203.799 355.567L199.349 356.232C199.075 356.273 198.887 356.528 198.928 356.801C198.969 357.074 199.223 357.262 199.497 357.221L203.453 356.629L204.044 360.585C204.085 360.859 204.34 361.047 204.613 361.006C204.886 360.965 205.074 360.711 205.033 360.438L204.368 355.987ZM203.471 355.764L197.598 363.703L198.402 364.297L204.275 356.358L203.471 355.764Z" fill="#007C3A"/>
<path d="M71.2122 361.049H66.9562L66.1722 363.219H64.8282L68.3562 353.517H69.8262L73.3402 363.219H71.9962L71.2122 361.049ZM70.8482 360.013L69.0842 355.085L67.3202 360.013H70.8482ZM76.1518 356.961C76.4038 356.522 76.7771 356.158 77.2718 355.869C77.7758 355.57 78.3591 355.421 79.0218 355.421C79.7031 355.421 80.3191 355.584 80.8698 355.911C81.4298 356.237 81.8685 356.699 82.1858 357.297C82.5031 357.885 82.6618 358.571 82.6618 359.355C82.6618 360.129 82.5031 360.82 82.1858 361.427C81.8685 362.033 81.4298 362.505 80.8698 362.841C80.3191 363.177 79.7031 363.345 79.0218 363.345C78.3685 363.345 77.7898 363.2 77.2858 362.911C76.7911 362.612 76.4131 362.243 76.1518 361.805V366.859H74.8778V355.547H76.1518V356.961ZM81.3598 359.355C81.3598 358.776 81.2431 358.272 81.0098 357.843C80.7765 357.413 80.4591 357.087 80.0578 356.863C79.6658 356.639 79.2318 356.527 78.7558 356.527C78.2891 356.527 77.8551 356.643 77.4538 356.877C77.0618 357.101 76.7445 357.432 76.5018 357.871C76.2685 358.3 76.1518 358.799 76.1518 359.369C76.1518 359.947 76.2685 360.456 76.5018 360.895C76.7445 361.324 77.0618 361.655 77.4538 361.889C77.8551 362.113 78.2891 362.225 78.7558 362.225C79.2318 362.225 79.6658 362.113 80.0578 361.889C80.4591 361.655 80.7765 361.324 81.0098 360.895C81.2431 360.456 81.3598 359.943 81.3598 359.355ZM85.6127 356.961C85.8647 356.522 86.2381 356.158 86.7327 355.869C87.2367 355.57 87.8201 355.421 88.4827 355.421C89.1641 355.421 89.7801 355.584 90.3307 355.911C90.8907 356.237 91.3294 356.699 91.6467 357.297C91.9641 357.885 92.1227 358.571 92.1227 359.355C92.1227 360.129 91.9641 360.82 91.6467 361.427C91.3294 362.033 90.8907 362.505 90.3307 362.841C89.7801 363.177 89.1641 363.345 88.4827 363.345C87.8294 363.345 87.2507 363.2 86.7467 362.911C86.2521 362.612 85.8741 362.243 85.6127 361.805V366.859H84.3387V355.547H85.6127V356.961ZM90.8207 359.355C90.8207 358.776 90.7041 358.272 90.4707 357.843C90.2374 357.413 89.9201 357.087 89.5187 356.863C89.1267 356.639 88.6927 356.527 88.2167 356.527C87.7501 356.527 87.3161 356.643 86.9147 356.877C86.5227 357.101 86.2054 357.432 85.9627 357.871C85.7294 358.3 85.6127 358.799 85.6127 359.369C85.6127 359.947 85.7294 360.456 85.9627 360.895C86.2054 361.324 86.5227 361.655 86.9147 361.889C87.3161 362.113 87.7501 362.225 88.2167 362.225C88.6927 362.225 89.1267 362.113 89.5187 361.889C89.9201 361.655 90.2374 361.324 90.4707 360.895C90.7041 360.456 90.8207 359.943 90.8207 359.355ZM95.0737 352.859V363.219H93.7997V352.859H95.0737ZM97.903 354.301C97.6603 354.301 97.455 354.217 97.287 354.049C97.119 353.881 97.035 353.675 97.035 353.433C97.035 353.19 97.119 352.985 97.287 352.817C97.455 352.649 97.6603 352.565 97.903 352.565C98.1363 352.565 98.3323 352.649 98.491 352.817C98.659 352.985 98.743 353.19 98.743 353.433C98.743 353.675 98.659 353.881 98.491 354.049C98.3323 354.217 98.1363 354.301 97.903 354.301ZM98.519 355.547V363.219H97.245V355.547H98.519ZM100.214 359.369C100.214 358.575 100.373 357.885 100.69 357.297C101.008 356.699 101.446 356.237 102.006 355.911C102.576 355.584 103.224 355.421 103.952 355.421C104.895 355.421 105.67 355.649 106.276 356.107C106.892 356.564 107.298 357.199 107.494 358.011H106.122C105.992 357.544 105.735 357.175 105.352 356.905C104.979 356.634 104.512 356.499 103.952 356.499C103.224 356.499 102.636 356.751 102.188 357.255C101.74 357.749 101.516 358.454 101.516 359.369C101.516 360.293 101.74 361.007 102.188 361.511C102.636 362.015 103.224 362.267 103.952 362.267C104.512 362.267 104.979 362.136 105.352 361.875C105.726 361.613 105.982 361.24 106.122 360.755H107.494C107.289 361.539 106.878 362.169 106.262 362.645C105.646 363.111 104.876 363.345 103.952 363.345C103.224 363.345 102.576 363.181 102.006 362.855C101.446 362.528 101.008 362.066 100.69 361.469C100.373 360.871 100.214 360.171 100.214 359.369ZM108.718 359.355C108.718 358.571 108.877 357.885 109.194 357.297C109.512 356.699 109.946 356.237 110.496 355.911C111.056 355.584 111.677 355.421 112.358 355.421C113.03 355.421 113.614 355.565 114.108 355.855C114.603 356.144 114.972 356.508 115.214 356.947V355.547H116.502V363.219H115.214V361.791C114.962 362.239 114.584 362.612 114.08 362.911C113.586 363.2 113.007 363.345 112.344 363.345C111.663 363.345 111.047 363.177 110.496 362.841C109.946 362.505 109.512 362.033 109.194 361.427C108.877 360.82 108.718 360.129 108.718 359.355ZM115.214 359.369C115.214 358.79 115.098 358.286 114.864 357.857C114.631 357.427 114.314 357.101 113.912 356.877C113.52 356.643 113.086 356.527 112.61 356.527C112.134 356.527 111.7 356.639 111.308 356.863C110.916 357.087 110.604 357.413 110.37 357.843C110.137 358.272 110.02 358.776 110.02 359.355C110.02 359.943 110.137 360.456 110.37 360.895C110.604 361.324 110.916 361.655 111.308 361.889C111.7 362.113 112.134 362.225 112.61 362.225C113.086 362.225 113.52 362.113 113.912 361.889C114.314 361.655 114.631 361.324 114.864 360.895C115.098 360.456 115.214 359.947 115.214 359.369ZM120.209 356.597V361.119C120.209 361.492 120.288 361.758 120.447 361.917C120.606 362.066 120.881 362.141 121.273 362.141H122.211V363.219H121.063C120.354 363.219 119.822 363.055 119.467 362.729C119.112 362.402 118.935 361.865 118.935 361.119V356.597H117.941V355.547H118.935V353.615H120.209V355.547H122.211V356.597H120.209ZM124.413 354.301C124.17 354.301 123.965 354.217 123.797 354.049C123.629 353.881 123.545 353.675 123.545 353.433C123.545 353.19 123.629 352.985 123.797 352.817C123.965 352.649 124.17 352.565 124.413 352.565C124.646 352.565 124.842 352.649 125.001 352.817C125.169 352.985 125.253 353.19 125.253 353.433C125.253 353.675 125.169 353.881 125.001 354.049C124.842 354.217 124.646 354.301 124.413 354.301ZM125.029 355.547V363.219H123.755V355.547H125.029ZM130.546 363.345C129.827 363.345 129.174 363.181 128.586 362.855C128.007 362.528 127.55 362.066 127.214 361.469C126.887 360.862 126.724 360.162 126.724 359.369C126.724 358.585 126.892 357.894 127.228 357.297C127.573 356.69 128.04 356.228 128.628 355.911C129.216 355.584 129.874 355.421 130.602 355.421C131.33 355.421 131.988 355.584 132.576 355.911C133.164 356.228 133.626 356.685 133.962 357.283C134.307 357.88 134.48 358.575 134.48 359.369C134.48 360.162 134.303 360.862 133.948 361.469C133.603 362.066 133.131 362.528 132.534 362.855C131.937 363.181 131.274 363.345 130.546 363.345ZM130.546 362.225C131.003 362.225 131.433 362.117 131.834 361.903C132.235 361.688 132.557 361.366 132.8 360.937C133.052 360.507 133.178 359.985 133.178 359.369C133.178 358.753 133.057 358.23 132.814 357.801C132.571 357.371 132.254 357.054 131.862 356.849C131.47 356.634 131.045 356.527 130.588 356.527C130.121 356.527 129.692 356.634 129.3 356.849C128.917 357.054 128.609 357.371 128.376 357.801C128.143 358.23 128.026 358.753 128.026 359.369C128.026 359.994 128.138 360.521 128.362 360.951C128.595 361.38 128.903 361.702 129.286 361.917C129.669 362.122 130.089 362.225 130.546 362.225ZM139.893 355.407C140.826 355.407 141.582 355.691 142.161 356.261C142.74 356.821 143.029 357.633 143.029 358.697V363.219H141.769V358.879C141.769 358.113 141.578 357.53 141.195 357.129C140.812 356.718 140.29 356.513 139.627 356.513C138.955 356.513 138.418 356.723 138.017 357.143C137.625 357.563 137.429 358.174 137.429 358.977V363.219H136.155V355.547H137.429V356.639C137.681 356.247 138.022 355.943 138.451 355.729C138.89 355.514 139.37 355.407 139.893 355.407ZM147.826 363.345C147.238 363.345 146.711 363.247 146.244 363.051C145.778 362.845 145.409 362.565 145.138 362.211C144.868 361.847 144.718 361.431 144.69 360.965H146.006C146.044 361.347 146.221 361.66 146.538 361.903C146.865 362.145 147.29 362.267 147.812 362.267C148.298 362.267 148.68 362.159 148.96 361.945C149.24 361.73 149.38 361.459 149.38 361.133C149.38 360.797 149.231 360.549 148.932 360.391C148.634 360.223 148.172 360.059 147.546 359.901C146.977 359.751 146.51 359.602 146.146 359.453C145.792 359.294 145.484 359.065 145.222 358.767C144.97 358.459 144.844 358.057 144.844 357.563C144.844 357.171 144.961 356.811 145.194 356.485C145.428 356.158 145.759 355.901 146.188 355.715C146.618 355.519 147.108 355.421 147.658 355.421C148.508 355.421 149.194 355.635 149.716 356.065C150.239 356.494 150.519 357.082 150.556 357.829H149.282C149.254 357.427 149.091 357.105 148.792 356.863C148.503 356.62 148.111 356.499 147.616 356.499C147.159 356.499 146.795 356.597 146.524 356.793C146.254 356.989 146.118 357.245 146.118 357.563C146.118 357.815 146.198 358.025 146.356 358.193C146.524 358.351 146.73 358.482 146.972 358.585C147.224 358.678 147.57 358.785 148.008 358.907C148.559 359.056 149.007 359.205 149.352 359.355C149.698 359.495 149.992 359.709 150.234 359.999C150.486 360.288 150.617 360.666 150.626 361.133C150.626 361.553 150.51 361.931 150.276 362.267C150.043 362.603 149.712 362.869 149.282 363.065C148.862 363.251 148.377 363.345 147.826 363.345Z" fill="black"/>
<rect x="64.3662" y="384.769" width="81.2226" height="6.49781" rx="3.24891" fill="#146BFF"/>
<rect x="64.3662" y="406.699" width="146.201" height="6.49781" rx="3.24891" fill="#9FC3FF"/>
<g filter="url(#filter2_d_559_301)">
<rect x="394.943" y="18.4546" width="177.878" height="128.332" rx="16" fill="white"/>
</g>
<path d="M415.964 41.974C416.319 42.03 416.641 42.1747 416.93 42.408C417.229 42.6413 417.462 42.9307 417.63 43.276C417.807 43.6213 417.896 43.99 417.896 44.382C417.896 44.8767 417.77 45.3247 417.518 45.726C417.266 46.118 416.897 46.4307 416.412 46.664C415.936 46.888 415.371 47 414.718 47H411.078V37.242H414.578C415.241 37.242 415.805 37.354 416.272 37.578C416.739 37.7927 417.089 38.0867 417.322 38.46C417.555 38.8333 417.672 39.2533 417.672 39.72C417.672 40.2987 417.513 40.7793 417.196 41.162C416.888 41.5353 416.477 41.806 415.964 41.974ZM412.352 41.456H414.494C415.091 41.456 415.553 41.316 415.88 41.036C416.207 40.756 416.37 40.3687 416.37 39.874C416.37 39.3793 416.207 38.992 415.88 38.712C415.553 38.432 415.082 38.292 414.466 38.292H412.352V41.456ZM414.606 45.95C415.241 45.95 415.735 45.8007 416.09 45.502C416.445 45.2033 416.622 44.788 416.622 44.256C416.622 43.7147 416.435 43.29 416.062 42.982C415.689 42.6647 415.189 42.506 414.564 42.506H412.352V45.95H414.606ZM426.468 39.328V47H425.194V45.866C424.951 46.258 424.611 46.566 424.172 46.79C423.743 47.0047 423.267 47.112 422.744 47.112C422.147 47.112 421.61 46.9907 421.134 46.748C420.658 46.496 420.28 46.1227 420 45.628C419.729 45.1333 419.594 44.5313 419.594 43.822V39.328H420.854V43.654C420.854 44.41 421.045 44.9933 421.428 45.404C421.811 45.8053 422.333 46.006 422.996 46.006C423.677 46.006 424.214 45.796 424.606 45.376C424.998 44.956 425.194 44.3447 425.194 43.542V39.328H426.468ZM431.335 47.126C430.747 47.126 430.22 47.028 429.753 46.832C429.286 46.6267 428.918 46.3467 428.647 45.992C428.376 45.628 428.227 45.2127 428.199 44.746H429.515C429.552 45.1287 429.73 45.4413 430.047 45.684C430.374 45.9267 430.798 46.048 431.321 46.048C431.806 46.048 432.189 45.9407 432.469 45.726C432.749 45.5113 432.889 45.2407 432.889 44.914C432.889 44.578 432.74 44.3307 432.441 44.172C432.142 44.004 431.68 43.8407 431.055 43.682C430.486 43.5327 430.019 43.3833 429.655 43.234C429.3 43.0753 428.992 42.8467 428.731 42.548C428.479 42.24 428.353 41.8387 428.353 41.344C428.353 40.952 428.47 40.5927 428.703 40.266C428.936 39.9393 429.268 39.6827 429.697 39.496C430.126 39.3 430.616 39.202 431.167 39.202C432.016 39.202 432.702 39.4167 433.225 39.846C433.748 40.2753 434.028 40.8633 434.065 41.61H432.791C432.763 41.2087 432.6 40.8867 432.301 40.644C432.012 40.4013 431.62 40.28 431.125 40.28C430.668 40.28 430.304 40.378 430.033 40.574C429.762 40.77 429.627 41.0267 429.627 41.344C429.627 41.596 429.706 41.806 429.865 41.974C430.033 42.1327 430.238 42.2633 430.481 42.366C430.733 42.4593 431.078 42.5667 431.517 42.688C432.068 42.8373 432.516 42.9867 432.861 43.136C433.206 43.276 433.5 43.4907 433.743 43.78C433.995 44.0693 434.126 44.4473 434.135 44.914C434.135 45.334 434.018 45.712 433.785 46.048C433.552 46.384 433.22 46.65 432.791 46.846C432.371 47.0327 431.886 47.126 431.335 47.126ZM436.591 38.082C436.349 38.082 436.143 37.998 435.975 37.83C435.807 37.662 435.723 37.4567 435.723 37.214C435.723 36.9713 435.807 36.766 435.975 36.598C436.143 36.43 436.349 36.346 436.591 36.346C436.825 36.346 437.021 36.43 437.179 36.598C437.347 36.766 437.431 36.9713 437.431 37.214C437.431 37.4567 437.347 37.662 437.179 37.83C437.021 37.998 436.825 38.082 436.591 38.082ZM437.207 39.328V47H435.933V39.328H437.207ZM443.117 39.188C444.05 39.188 444.806 39.4727 445.385 40.042C445.963 40.602 446.253 41.414 446.253 42.478V47H444.993V42.66C444.993 41.8947 444.801 41.3113 444.419 40.91C444.036 40.4993 443.513 40.294 442.851 40.294C442.179 40.294 441.642 40.504 441.241 40.924C440.849 41.344 440.653 41.9553 440.653 42.758V47H439.379V39.328H440.653V40.42C440.905 40.028 441.245 39.7247 441.675 39.51C442.113 39.2953 442.594 39.188 443.117 39.188ZM455.334 42.87C455.334 43.1127 455.32 43.3693 455.292 43.64H449.16C449.207 44.396 449.463 44.9887 449.93 45.418C450.406 45.838 450.98 46.048 451.652 46.048C452.203 46.048 452.66 45.922 453.024 45.67C453.397 45.4087 453.659 45.0633 453.808 44.634H455.18C454.975 45.3713 454.564 45.9733 453.948 46.44C453.332 46.8973 452.567 47.126 451.652 47.126C450.924 47.126 450.271 46.9627 449.692 46.636C449.123 46.3093 448.675 45.8473 448.348 45.25C448.021 44.6433 447.858 43.9433 447.858 43.15C447.858 42.3567 448.017 41.6613 448.334 41.064C448.651 40.4667 449.095 40.0093 449.664 39.692C450.243 39.3653 450.905 39.202 451.652 39.202C452.38 39.202 453.024 39.3607 453.584 39.678C454.144 39.9953 454.573 40.434 454.872 40.994C455.18 41.5447 455.334 42.17 455.334 42.87ZM454.018 42.604C454.018 42.1187 453.911 41.7033 453.696 41.358C453.481 41.0033 453.187 40.7373 452.814 40.56C452.45 40.3733 452.044 40.28 451.596 40.28C450.952 40.28 450.401 40.4853 449.944 40.896C449.496 41.3067 449.239 41.876 449.174 42.604H454.018ZM459.732 47.126C459.144 47.126 458.616 47.028 458.15 46.832C457.683 46.6267 457.314 46.3467 457.044 45.992C456.773 45.628 456.624 45.2127 456.596 44.746H457.912C457.949 45.1287 458.126 45.4413 458.444 45.684C458.77 45.9267 459.195 46.048 459.718 46.048C460.203 46.048 460.586 45.9407 460.866 45.726C461.146 45.5113 461.286 45.2407 461.286 44.914C461.286 44.578 461.136 44.3307 460.838 44.172C460.539 44.004 460.077 43.8407 459.452 43.682C458.882 43.5327 458.416 43.3833 458.052 43.234C457.697 43.0753 457.389 42.8467 457.128 42.548C456.876 42.24 456.75 41.8387 456.75 41.344C456.75 40.952 456.866 40.5927 457.1 40.266C457.333 39.9393 457.664 39.6827 458.094 39.496C458.523 39.3 459.013 39.202 459.564 39.202C460.413 39.202 461.099 39.4167 461.622 39.846C462.144 40.2753 462.424 40.8633 462.462 41.61H461.188C461.16 41.2087 460.996 40.8867 460.698 40.644C460.408 40.4013 460.016 40.28 459.522 40.28C459.064 40.28 458.7 40.378 458.43 40.574C458.159 40.77 458.024 41.0267 458.024 41.344C458.024 41.596 458.103 41.806 458.262 41.974C458.43 42.1327 458.635 42.2633 458.878 42.366C459.13 42.4593 459.475 42.5667 459.914 42.688C460.464 42.8373 460.912 42.9867 461.258 43.136C461.603 43.276 461.897 43.4907 462.14 43.78C462.392 44.0693 462.522 44.4473 462.532 44.914C462.532 45.334 462.415 45.712 462.182 46.048C461.948 46.384 461.617 46.65 461.188 46.846C460.768 47.0327 460.282 47.126 459.732 47.126ZM467.046 47.126C466.458 47.126 465.931 47.028 465.464 46.832C464.997 46.6267 464.629 46.3467 464.358 45.992C464.087 45.628 463.938 45.2127 463.91 44.746H465.226C465.263 45.1287 465.441 45.4413 465.758 45.684C466.085 45.9267 466.509 46.048 467.032 46.048C467.517 46.048 467.9 45.9407 468.18 45.726C468.46 45.5113 468.6 45.2407 468.6 44.914C468.6 44.578 468.451 44.3307 468.152 44.172C467.853 44.004 467.391 43.8407 466.766 43.682C466.197 43.5327 465.73 43.3833 465.366 43.234C465.011 43.0753 464.703 42.8467 464.442 42.548C464.19 42.24 464.064 41.8387 464.064 41.344C464.064 40.952 464.181 40.5927 464.414 40.266C464.647 39.9393 464.979 39.6827 465.408 39.496C465.837 39.3 466.327 39.202 466.878 39.202C467.727 39.202 468.413 39.4167 468.936 39.846C469.459 40.2753 469.739 40.8633 469.776 41.61H468.502C468.474 41.2087 468.311 40.8867 468.012 40.644C467.723 40.4013 467.331 40.28 466.836 40.28C466.379 40.28 466.015 40.378 465.744 40.574C465.473 40.77 465.338 41.0267 465.338 41.344C465.338 41.596 465.417 41.806 465.576 41.974C465.744 42.1327 465.949 42.2633 466.192 42.366C466.444 42.4593 466.789 42.5667 467.228 42.688C467.779 42.8373 468.227 42.9867 468.572 43.136C468.917 43.276 469.211 43.4907 469.454 43.78C469.706 44.0693 469.837 44.4473 469.846 44.914C469.846 45.334 469.729 45.712 469.496 46.048C469.263 46.384 468.931 46.65 468.502 46.846C468.082 47.0327 467.597 47.126 467.046 47.126ZM480.893 37.242V38.278H476.651V41.568H480.095V42.604H476.651V47H475.377V37.242H480.893ZM483.706 36.64V47H482.432V36.64H483.706ZM489.223 47.126C488.504 47.126 487.851 46.9627 487.263 46.636C486.684 46.3093 486.227 45.8473 485.891 45.25C485.564 44.6433 485.401 43.9433 485.401 43.15C485.401 42.366 485.569 41.6753 485.905 41.078C486.25 40.4713 486.717 40.0093 487.305 39.692C487.893 39.3653 488.551 39.202 489.279 39.202C490.007 39.202 490.665 39.3653 491.253 39.692C491.841 40.0093 492.303 40.4667 492.639 41.064C492.984 41.6613 493.157 42.3567 493.157 43.15C493.157 43.9433 492.979 44.6433 492.625 45.25C492.279 45.8473 491.808 46.3093 491.211 46.636C490.613 46.9627 489.951 47.126 489.223 47.126ZM489.223 46.006C489.68 46.006 490.109 45.8987 490.511 45.684C490.912 45.4693 491.234 45.1473 491.477 44.718C491.729 44.2887 491.855 43.766 491.855 43.15C491.855 42.534 491.733 42.0113 491.491 41.582C491.248 41.1527 490.931 40.8353 490.539 40.63C490.147 40.4153 489.722 40.308 489.265 40.308C488.798 40.308 488.369 40.4153 487.977 40.63C487.594 40.8353 487.286 41.1527 487.053 41.582C486.819 42.0113 486.703 42.534 486.703 43.15C486.703 43.7753 486.815 44.3027 487.039 44.732C487.272 45.1613 487.58 45.4833 487.963 45.698C488.345 45.9033 488.765 46.006 489.223 46.006ZM505.052 39.328L502.658 47H501.342L499.494 40.91L497.646 47H496.33L493.922 39.328H495.224L496.988 45.768L498.892 39.328H500.194L502.056 45.782L503.792 39.328H505.052Z" fill="black"/>
<path d="M451.8 98.3059C451.8 92.7831 456.277 88.3059 461.8 88.3059H464.542C470.065 88.3059 474.542 92.7831 474.542 98.3059V132.166H451.8V98.3059Z" fill="#D9E7FF"/>
<path d="M488.351 69.8779C488.351 64.3551 492.828 59.8779 498.351 59.8779H501.093C506.616 59.8779 511.093 64.3551 511.093 69.8779V132.166H488.351V69.8779Z" fill="#146BFF"/>
<path d="M524.088 85.3103C524.088 79.7875 528.565 75.3103 534.088 75.3103H536.83C542.353 75.3103 546.83 79.7875 546.83 85.3103V132.166H524.088V85.3103Z" fill="#9FC3FF"/>
<defs>
<filter id="filter0_d_559_301" x="39.7246" y="29.9258" width="633.274" height="458.087" filterUnits="userSpaceOnUse" color-interpolation-filters="sRGB">
<feFlood flood-opacity="0" result="BackgroundImageFix"/>
<feColorMatrix in="SourceAlpha" type="matrix" values="0 0 0 0 0 0 0 0 0 0 0 0 0 0 0 0 0 0 127 0" result="hardAlpha"/>
<feOffset dy="12"/>
<feGaussianBlur stdDeviation="37.5"/>
<feComposite in2="hardAlpha" operator="out"/>
<feColorMatrix type="matrix" values="0 0 0 0 0.00784314 0 0 0 0 0.654902 0 0 0 0 0.913725 0 0 0 0.24 0"/>
<feBlend mode="normal" in2="BackgroundImageFix" result="effect1_dropShadow_559_301"/>
<feBlend mode="normal" in="SourceGraphic" in2="effect1_dropShadow_559_301" result="shape"/>
</filter>
<filter id="filter1_d_559_301" x="0" y="289.537" width="305.799" height="190.463" filterUnits="userSpaceOnUse" color-interpolation-filters="sRGB">
<feFlood flood-opacity="0" result="BackgroundImageFix"/>
<feColorMatrix in="SourceAlpha" type="matrix" values="0 0 0 0 0 0 0 0 0 0 0 0 0 0 0 0 0 0 127 0" result="hardAlpha"/>
<feOffset/>
<feGaussianBlur stdDeviation="20"/>
<feComposite in2="hardAlpha" operator="out"/>
<feColorMatrix type="matrix" values="0 0 0 0 0.00784314 0 0 0 0 0.654902 0 0 0 0 0.913725 0 0 0 0.15 0"/>
<feBlend mode="normal" in2="BackgroundImageFix" result="effect1_dropShadow_559_301"/>
<feBlend mode="normal" in="SourceGraphic" in2="effect1_dropShadow_559_301" result="shape"/>
</filter>
<filter id="filter2_d_559_301" x="364.943" y="0.45459" width="237.878" height="188.332" filterUnits="userSpaceOnUse" color-interpolation-filters="sRGB">
<feFlood flood-opacity="0" result="BackgroundImageFix"/>
<feColorMatrix in="SourceAlpha" type="matrix" values="0 0 0 0 0 0 0 0 0 0 0 0 0 0 0 0 0 0 127 0" result="hardAlpha"/>
<feOffset dy="12"/>
<feGaussianBlur stdDeviation="15"/>
<feComposite in2="hardAlpha" operator="out"/>
<feColorMatrix type="matrix" values="0 0 0 0 0.00784314 0 0 0 0 0.654902 0 0 0 0 0.913725 0 0 0 0.14 0"/>
<feBlend mode="normal" in2="BackgroundImageFix" result="effect1_dropShadow_559_301"/>
<feBlend mode="normal" in="SourceGraphic" in2="effect1_dropShadow_559_301" result="shape"/>
</filter>
<linearGradient id="paint0_linear_559_301" x1="372.322" y1="181" x2="372.322" y2="362" gradientUnits="userSpaceOnUse">
<stop stop-color="#B7D1FF"/>
<stop offset="1" stop-color="#D9D9D9" stop-opacity="0"/>
<stop offset="1" stop-color="#EBEBEB" stop-opacity="0"/>
</linearGradient>
</defs>
</svg>
