<svg width="167" height="66" viewBox="0 0 167 66" fill="none" xmlns="http://www.w3.org/2000/svg">
<path d="M52.0421 37.7241V16.7241H60.3821C61.6621 16.7241 62.8021 16.9841 63.8021 17.5041C64.8221 18.0041 65.6121 18.7241 66.1721 19.6641C66.7521 20.5841 67.0421 21.6941 67.0421 22.9941V23.3841C67.0421 24.6841 66.7421 25.8041 66.1421 26.7441C65.5621 27.6841 64.7721 28.4041 63.7721 28.9041C62.7721 29.4041 61.6421 29.6541 60.3821 29.6541H55.2821V37.7241H52.0421ZM55.2821 26.7141H60.0521C61.1921 26.7141 62.1021 26.4141 62.7821 25.8141C63.4621 25.2141 63.8021 24.3941 63.8021 23.3541V23.0541C63.8021 21.9941 63.4621 21.1641 62.7821 20.5641C62.1021 19.9641 61.1921 19.6641 60.0521 19.6641H55.2821V26.7141ZM70.2082 37.7241V22.9341H73.2382V24.6741H73.7182C73.9582 24.0541 74.3382 23.6041 74.8582 23.3241C75.3982 23.0241 76.0582 22.8741 76.8382 22.8741H78.6082V25.6641H76.7182C75.7182 25.6641 74.8982 25.9441 74.2582 26.5041C73.6182 27.0441 73.2982 27.8841 73.2982 29.0241V37.7241H70.2082ZM88.0624 38.1441C86.5624 38.1441 85.2524 37.8341 84.1324 37.2141C83.0124 36.5741 82.1324 35.6841 81.4924 34.5441C80.8724 33.3841 80.5624 32.0441 80.5624 30.5241V30.1641C80.5624 28.6241 80.8724 27.2841 81.4924 26.1441C82.1124 24.9841 82.9724 24.0941 84.0724 23.4741C85.1924 22.8341 86.4824 22.5141 87.9424 22.5141C89.3624 22.5141 90.6024 22.8341 91.6624 23.4741C92.7424 24.0941 93.5824 24.9641 94.1824 26.0841C94.7824 27.2041 95.0824 28.5141 95.0824 30.0141V31.1841H83.7124C83.7524 32.4841 84.1824 33.5241 85.0024 34.3041C85.8424 35.0641 86.8824 35.4441 88.1224 35.4441C89.2824 35.4441 90.1524 35.1841 90.7324 34.6641C91.3324 34.1441 91.7924 33.5441 92.1124 32.8641L94.6624 34.1841C94.3824 34.7441 93.9724 35.3341 93.4324 35.9541C92.9124 36.5741 92.2224 37.0941 91.3624 37.5141C90.5024 37.9341 89.4024 38.1441 88.0624 38.1441ZM83.7424 28.8141H91.9324C91.8524 27.6941 91.4524 26.8241 90.7324 26.2041C90.0124 25.5641 89.0724 25.2441 87.9124 25.2441C86.7524 25.2441 85.8024 25.5641 85.0624 26.2041C84.3424 26.8241 83.9024 27.6941 83.7424 28.8141ZM104.862 38.1441C102.982 38.1441 101.422 37.7241 100.182 36.8841C98.942 36.0441 98.182 34.7741 97.902 33.0741L100.782 32.3841C100.942 33.2041 101.212 33.8541 101.592 34.3341C101.972 34.8141 102.442 35.1541 103.002 35.3541C103.582 35.5541 104.202 35.6541 104.862 35.6541C105.842 35.6541 106.592 35.4641 107.112 35.0841C107.652 34.7041 107.922 34.2141 107.922 33.6141C107.922 33.0141 107.672 32.5741 107.172 32.2941C106.672 32.0141 105.932 31.7841 104.952 31.6041L103.932 31.4241C102.932 31.2441 102.022 30.9841 101.202 30.6441C100.382 30.3041 99.732 29.8341 99.252 29.2341C98.772 28.6341 98.532 27.8641 98.532 26.9241C98.532 25.5241 99.052 24.4441 100.092 23.6841C101.132 22.9041 102.512 22.5141 104.232 22.5141C105.892 22.5141 107.252 22.8941 108.312 23.6541C109.392 24.3941 110.092 25.4041 110.412 26.6841L107.532 27.4941C107.352 26.5941 106.972 25.9641 106.392 25.6041C105.812 25.2241 105.092 25.0341 104.232 25.0341C103.392 25.0341 102.732 25.1941 102.252 25.5141C101.772 25.8141 101.532 26.2441 101.532 26.8041C101.532 27.4041 101.762 27.8441 102.222 28.1241C102.702 28.4041 103.342 28.6141 104.142 28.7541L105.192 28.9341C106.252 29.1141 107.222 29.3641 108.102 29.6841C108.982 30.0041 109.672 30.4641 110.172 31.0641C110.692 31.6641 110.952 32.4641 110.952 33.4641C110.952 34.9441 110.402 36.0941 109.302 36.9141C108.202 37.7341 106.722 38.1441 104.862 38.1441ZM119.791 37.7241C118.891 37.7241 118.171 37.4541 117.631 36.9141C117.111 36.3741 116.851 35.6541 116.851 34.7541V25.5441H112.771V22.9341H116.851V18.0441H119.941V22.9341H124.351V25.5441H119.941V34.2141C119.941 34.8141 120.221 35.1141 120.781 35.1141H123.871V37.7241H119.791ZM132.542 38.1441C131.482 38.1441 130.532 37.9641 129.692 37.6041C128.872 37.2441 128.212 36.7141 127.712 36.0141C127.232 35.3141 126.992 34.4641 126.992 33.4641C126.992 32.4441 127.232 31.6041 127.712 30.9441C128.212 30.2641 128.882 29.7541 129.722 29.4141C130.582 29.0741 131.552 28.9041 132.632 28.9041H137.132V27.9441C137.132 27.0841 136.872 26.3941 136.352 25.8741C135.832 25.3541 135.032 25.0941 133.952 25.0941C132.892 25.0941 132.082 25.3441 131.522 25.8441C130.962 26.3441 130.592 26.9941 130.412 27.7941L127.532 26.8641C127.772 26.0641 128.152 25.3441 128.672 24.7041C129.212 24.0441 129.922 23.5141 130.802 23.1141C131.682 22.7141 132.742 22.5141 133.982 22.5141C135.902 22.5141 137.412 23.0041 138.512 23.9841C139.612 24.9641 140.162 26.3541 140.162 28.1541V34.2441C140.162 34.8441 140.442 35.1441 141.002 35.1441H142.262V37.7241H139.952C139.252 37.7241 138.682 37.5441 138.242 37.1841C137.802 36.8241 137.582 36.3341 137.582 35.7141V35.6241H137.132C136.972 35.9241 136.732 36.2741 136.412 36.6741C136.092 37.0741 135.622 37.4241 135.002 37.7241C134.382 38.0041 133.562 38.1441 132.542 38.1441ZM132.992 35.5941C134.232 35.5941 135.232 35.2441 135.992 34.5441C136.752 33.8241 137.132 32.8441 137.132 31.6041V31.3041H132.812C131.992 31.3041 131.332 31.4841 130.832 31.8441C130.332 32.1841 130.082 32.6941 130.082 33.3741C130.082 34.0541 130.342 34.5941 130.862 34.9941C131.382 35.3941 132.092 35.5941 132.992 35.5941Z" fill="black"/>
<g clip-path="url(#clip0_167_1038)">
<path fill-rule="evenodd" clip-rule="evenodd" d="M1.90665e-06 65.4286C12.0451 65.4286 21.8095 55.664 21.8095 43.6191C21.8095 31.5741 12.045 21.8096 0 21.8096L1.90665e-06 65.4286Z" fill="#F6C543"/>
<path fill-rule="evenodd" clip-rule="evenodd" d="M21.8095 0C21.8095 12.0451 12.0451 21.8095 0 21.8095C0 9.76443 9.76443 0 21.8095 0Z" fill="#EC5B30"/>
<path fill-rule="evenodd" clip-rule="evenodd" d="M43.6191 21.8096C43.6191 33.8545 33.8545 43.6191 21.8096 43.6191C21.8096 31.5741 31.5741 21.8096 43.6191 21.8096Z" fill="#717DDD"/>
<path fill-rule="evenodd" clip-rule="evenodd" d="M43.6191 21.8095C43.6191 9.76443 33.8545 0 21.8096 0C21.8096 12.0451 31.5741 21.8095 43.6191 21.8095Z" fill="#39818E"/>
</g>
<defs>
<clipPath id="clip0_167_1038">
<rect width="43.619" height="65.4285" fill="white"/>
</clipPath>
</defs>
</svg>
