<svg width="135" height="36" viewBox="0 0 135 36" fill="none" xmlns="http://www.w3.org/2000/svg">
<g clip-path="url(#clip0_167_1029)">
<path d="M16.7203 2.5126L6.02344 8.68603V0.506348H0V35.5829H0.159375L16.7203 26.0251L33.2812 35.5829H33.4453V12.1876L16.7203 2.5126ZM27.4125 25.2376L16.7203 19.0641L6.02344 25.2376V15.6376L16.7203 9.46884L27.4125 15.6423V25.2376Z" fill="#DB3939"/>
<path d="M58.7764 9.59062H52.9686V0.506253H46.9404V35.5828H58.7764C60.3899 35.5834 61.9878 35.2661 63.4787 34.6488C64.9696 34.0316 66.3242 33.1267 67.4652 31.9857C68.6062 30.8447 69.5111 29.4901 70.1283 27.9992C70.7455 26.5083 71.0629 24.9105 71.0623 23.2969V21.8906C71.0648 20.2759 70.7488 18.6764 70.1324 17.1839C69.516 15.6914 68.6113 14.3352 67.4702 13.1927C66.329 12.0502 64.9738 11.144 63.482 10.5259C61.9902 9.90784 60.3911 9.59001 58.7764 9.59062ZM65.0342 23.4797C65.0348 24.3324 64.8673 25.1769 64.5412 25.9649C64.2152 26.7528 63.737 27.4687 63.134 28.0717C62.5311 28.6747 61.8151 29.1529 61.0272 29.4789C60.2392 29.805 59.3947 29.9725 58.542 29.9719H52.9686V15.1969H58.542C60.2638 15.1969 61.9151 15.8809 63.1327 17.0984C64.3502 18.3159 65.0342 19.9672 65.0342 21.6891V23.4797ZM97.8842 9.59062V23.7656C97.8842 26.8836 96.6456 29.8738 94.4408 32.0785C92.2361 34.2833 89.2459 35.5219 86.1279 35.5219H85.3404C82.2241 35.5194 79.2363 34.2797 77.0336 32.0752C74.8309 29.8708 73.5935 26.8819 73.5935 23.7656V9.59062H79.617V24.1219C79.617 24.8837 79.7671 25.6381 80.0588 26.3419C80.3505 27.0457 80.778 27.6851 81.317 28.2236C81.8559 28.7621 82.4957 29.1891 83.1997 29.4803C83.9037 29.7714 84.6582 29.9209 85.4201 29.9203H86.0717C86.8339 29.9209 87.5888 29.7712 88.2932 29.4798C88.9975 29.1884 89.6375 28.761 90.1765 28.222C90.7155 27.683 91.1429 27.043 91.4343 26.3387C91.7257 25.6343 91.8754 24.8794 91.8748 24.1172V9.58594L97.8842 9.59062ZM118.336 35.5828H112.312V0.506253H118.336V35.5828ZM107.878 35.5828H101.85V9.59062H107.878V35.5828ZM108.281 3.4125C108.281 4.08723 108.081 4.74682 107.706 5.3079C107.331 5.86898 106.799 6.30637 106.176 6.56479C105.552 6.82321 104.866 6.89106 104.205 6.75977C103.543 6.62848 102.935 6.30393 102.457 5.82715C101.98 5.35038 101.654 4.74277 101.522 4.08112C101.39 3.41947 101.457 2.73347 101.714 2.10984C101.972 1.48621 102.409 0.952923 102.969 0.57739C103.53 0.201857 104.189 0.000930045 104.864 3.21973e-06C105.312 -0.000612893 105.757 0.0871994 106.171 0.258418C106.586 0.429636 106.963 0.680901 107.28 0.997842C107.597 1.31478 107.849 1.69118 108.021 2.10551C108.193 2.51984 108.281 2.96397 108.281 3.4125ZM128.156 12.4312V26.25C128.156 27.2446 128.551 28.1984 129.254 28.9016C129.958 29.6049 130.911 30 131.906 30H132.787V35.625H131.536C129.049 35.625 126.665 34.6373 124.907 32.8791C123.148 31.121 122.161 28.7364 122.161 26.25V0.506253H128.156V6.825H135V12.45L128.156 12.4312Z" fill="#081533"/>
</g>
<defs>
<clipPath id="clip0_167_1029">
<rect width="135" height="35.5828" fill="white"/>
</clipPath>
</defs>
</svg>
