<svg width="257" height="105" viewBox="0 0 257 105" fill="none" xmlns="http://www.w3.org/2000/svg">
<rect y="0.370605" width="256.477" height="104.36" rx="16" fill="#146BFF"/>
<path d="M176.728 31.8439L169.458 40.6369C168.865 41.354 168.54 42.2553 168.54 43.1858V74.8912C168.54 77.1004 170.331 78.8912 172.54 78.8912H235.293C237.502 78.8912 239.293 77.1004 239.293 74.8912V28.4802L226.514 37.594C225.573 38.2655 224.387 38.4966 223.262 38.228L212.603 35.6816C211.143 35.3327 209.61 35.8311 208.634 36.972L202.044 44.6754C200.536 46.4384 197.85 46.5528 196.197 44.9245L182.619 31.5438C180.947 29.8968 178.224 30.0355 176.728 31.8439Z" fill="url(#paint0_linear_529_4746)"/>
<path d="M169.425 41.7463L177.311 31.9648C178.808 30.1069 181.59 29.9655 183.268 31.662L196.275 44.8081C197.935 46.4856 200.679 46.369 202.19 44.5566L208.467 37.0305C209.446 35.8572 211.007 35.3438 212.491 35.7074L222.695 38.2075C223.842 38.4886 225.055 38.2482 226.008 37.5508L238.408 28.4802" stroke="#FFEA32" stroke-width="2" stroke-linecap="round" stroke-linejoin="round"/>
<path d="M20.0407 25.0694V34.8274H18.7667V25.0694H20.0407ZM25.95 27.0154C26.8834 27.0154 27.6394 27.3001 28.218 27.8694C28.7967 28.4294 29.086 29.2414 29.086 30.3054V34.8274H27.826V30.4874C27.826 29.7221 27.6347 29.1387 27.252 28.7374C26.8694 28.3267 26.3467 28.1214 25.684 28.1214C25.012 28.1214 24.4754 28.3314 24.074 28.7514C23.682 29.1714 23.486 29.7827 23.486 30.5854V34.8274H22.212V27.1554H23.486V28.2474C23.738 27.8554 24.0787 27.5521 24.508 27.3374C24.9467 27.1227 25.4274 27.0154 25.95 27.0154ZM30.6911 30.9774C30.6911 30.1841 30.8498 29.4934 31.1671 28.9054C31.4844 28.3081 31.9231 27.8461 32.4831 27.5194C33.0524 27.1927 33.7011 27.0294 34.4291 27.0294C35.3718 27.0294 36.1464 27.2581 36.7531 27.7154C37.3691 28.1727 37.7751 28.8074 37.9711 29.6194H36.5991C36.4684 29.1527 36.2118 28.7841 35.8291 28.5134C35.4558 28.2427 34.9891 28.1074 34.4291 28.1074C33.7011 28.1074 33.1131 28.3594 32.6651 28.8634C32.2171 29.3581 31.9931 30.0627 31.9931 30.9774C31.9931 31.9014 32.2171 32.6154 32.6651 33.1194C33.1131 33.6234 33.7011 33.8754 34.4291 33.8754C34.9891 33.8754 35.4558 33.7447 35.8291 33.4834C36.2024 33.2221 36.4591 32.8487 36.5991 32.3634H37.9711C37.7658 33.1474 37.3551 33.7774 36.7391 34.2534C36.1231 34.7201 35.3531 34.9534 34.4291 34.9534C33.7011 34.9534 33.0524 34.7901 32.4831 34.4634C31.9231 34.1367 31.4844 33.6747 31.1671 33.0774C30.8498 32.4801 30.6911 31.7801 30.6911 30.9774ZM43.017 34.9534C42.2984 34.9534 41.645 34.7901 41.057 34.4634C40.4784 34.1367 40.021 33.6747 39.685 33.0774C39.3584 32.4707 39.195 31.7707 39.195 30.9774C39.195 30.1934 39.363 29.5027 39.699 28.9054C40.0444 28.2987 40.511 27.8367 41.099 27.5194C41.687 27.1927 42.345 27.0294 43.073 27.0294C43.801 27.0294 44.459 27.1927 45.047 27.5194C45.635 27.8367 46.097 28.2941 46.433 28.8914C46.7784 29.4887 46.951 30.1841 46.951 30.9774C46.951 31.7707 46.7737 32.4707 46.419 33.0774C46.0737 33.6747 45.6024 34.1367 45.005 34.4634C44.4077 34.7901 43.745 34.9534 43.017 34.9534ZM43.017 33.8334C43.4744 33.8334 43.9037 33.7261 44.305 33.5114C44.7064 33.2967 45.0284 32.9747 45.271 32.5454C45.523 32.1161 45.649 31.5934 45.649 30.9774C45.649 30.3614 45.5277 29.8387 45.285 29.4094C45.0424 28.9801 44.725 28.6627 44.333 28.4574C43.941 28.2427 43.5164 28.1354 43.059 28.1354C42.5924 28.1354 42.163 28.2427 41.771 28.4574C41.3884 28.6627 41.0804 28.9801 40.847 29.4094C40.6137 29.8387 40.497 30.3614 40.497 30.9774C40.497 31.6027 40.609 32.1301 40.833 32.5594C41.0664 32.9887 41.3744 33.3107 41.757 33.5254C42.1397 33.7307 42.5597 33.8334 43.017 33.8334ZM57.8521 27.0154C58.4494 27.0154 58.9814 27.1414 59.4481 27.3934C59.9148 27.6361 60.2834 28.0047 60.5541 28.4994C60.8248 28.9941 60.9601 29.5961 60.9601 30.3054V34.8274H59.7001V30.4874C59.7001 29.7221 59.5088 29.1387 59.1261 28.7374C58.7528 28.3267 58.2441 28.1214 57.6001 28.1214C56.9374 28.1214 56.4101 28.3361 56.0181 28.7654C55.6261 29.1854 55.4301 29.7967 55.4301 30.5994V34.8274H54.1701V30.4874C54.1701 29.7221 53.9788 29.1387 53.5961 28.7374C53.2228 28.3267 52.7141 28.1214 52.0701 28.1214C51.4074 28.1214 50.8801 28.3361 50.4881 28.7654C50.0961 29.1854 49.9001 29.7967 49.9001 30.5994V34.8274H48.6261V27.1554H49.9001V28.2614C50.1521 27.8601 50.4881 27.5521 50.9081 27.3374C51.3374 27.1227 51.8088 27.0154 52.3221 27.0154C52.9661 27.0154 53.5354 27.1601 54.0301 27.4494C54.5248 27.7387 54.8934 28.1634 55.1361 28.7234C55.3508 28.1821 55.7054 27.7621 56.2001 27.4634C56.6948 27.1647 57.2454 27.0154 57.8521 27.0154ZM70.0499 30.6974C70.0499 30.9401 70.0359 31.1967 70.0079 31.4674H63.8759C63.9226 32.2234 64.1793 32.8161 64.6459 33.2454C65.1219 33.6654 65.6959 33.8754 66.3679 33.8754C66.9186 33.8754 67.3759 33.7494 67.7399 33.4974C68.1133 33.2361 68.3746 32.8907 68.5239 32.4614H69.8959C69.6906 33.1987 69.2799 33.8007 68.6639 34.2674C68.0479 34.7247 67.2826 34.9534 66.3679 34.9534C65.6399 34.9534 64.9866 34.7901 64.4079 34.4634C63.8386 34.1367 63.3906 33.6747 63.0639 33.0774C62.7373 32.4707 62.5739 31.7707 62.5739 30.9774C62.5739 30.1841 62.7326 29.4887 63.0499 28.8914C63.3673 28.2941 63.8106 27.8367 64.3799 27.5194C64.9586 27.1927 65.6213 27.0294 66.3679 27.0294C67.0959 27.0294 67.7399 27.1881 68.2999 27.5054C68.8599 27.8227 69.2893 28.2614 69.5879 28.8214C69.8959 29.3721 70.0499 29.9974 70.0499 30.6974ZM68.7339 30.4314C68.7339 29.9461 68.6266 29.5307 68.4119 29.1854C68.1973 28.8307 67.9033 28.5647 67.5299 28.3874C67.1659 28.2007 66.7599 28.1074 66.3119 28.1074C65.6679 28.1074 65.1173 28.3127 64.6599 28.7234C64.2119 29.1341 63.9553 29.7034 63.8899 30.4314H68.7339Z" fill="white"/>
<path d="M31.3047 57.6149H26.9577V62.0769H23.9217V57.6149H19.5747V54.8089H23.9217V50.3469H26.9577V54.8089H31.3047V57.6149ZM46.2278 59.7769C46.2278 60.5742 46.0208 61.3256 45.6068 62.0309C45.2081 62.7209 44.6101 63.2959 43.8128 63.7559C43.0308 64.2006 42.1031 64.4612 41.0298 64.5379V66.4009H39.5578V64.5149C38.0244 64.3769 36.7901 63.9169 35.8548 63.1349C34.9194 62.3376 34.4364 61.2642 34.4058 59.9149H37.8558C37.9478 61.0189 38.5151 61.6859 39.5578 61.9159V57.5229C38.4538 57.2469 37.5644 56.9709 36.8898 56.6949C36.2151 56.4189 35.6324 55.9742 35.1418 55.3609C34.6511 54.7476 34.4058 53.9119 34.4058 52.8539C34.4058 51.5199 34.8811 50.4312 35.8318 49.5879C36.7978 48.7446 38.0398 48.2616 39.5578 48.1389V46.2759H41.0298V48.1389C42.5018 48.2616 43.6748 48.7062 44.5488 49.4729C45.4381 50.2396 45.9364 51.2976 46.0438 52.6469H42.5708C42.5248 52.2022 42.3638 51.8189 42.0878 51.4969C41.8271 51.1596 41.4744 50.9219 41.0298 50.7839V55.1309C42.1798 55.4222 43.0844 55.7059 43.7438 55.9819C44.4184 56.2426 45.0011 56.6796 45.4918 57.2929C45.9824 57.8909 46.2278 58.7189 46.2278 59.7769ZM37.7638 52.6929C37.7638 53.1989 37.9171 53.6129 38.2238 53.9349C38.5304 54.2416 38.9751 54.4946 39.5578 54.6939V50.7149C39.0058 50.7916 38.5688 50.9986 38.2468 51.3359C37.9248 51.6732 37.7638 52.1256 37.7638 52.6929ZM41.0298 61.9619C41.6124 61.8546 42.0648 61.6169 42.3868 61.2489C42.7241 60.8809 42.8928 60.4362 42.8928 59.9149C42.8928 59.4089 42.7318 59.0026 42.4098 58.6959C42.0878 58.3892 41.6278 58.1362 41.0298 57.9369V61.9619ZM49.3166 61.1339V58.6039L56.8376 47.8399H60.5866V58.3279H62.6106V61.1339H60.5866V64.3999H57.3666V61.1339H49.3166ZM57.5736 51.2899L52.8586 58.3279H57.5736V51.2899ZM68.5477 61.0189L65.8567 67.4819H63.7867L65.2817 61.0189H68.5477ZM70.5005 55.7979C70.5005 53.1452 70.9758 51.0676 71.9265 49.5649C72.8925 48.0622 74.4872 47.3109 76.7105 47.3109C78.9338 47.3109 80.5208 48.0622 81.4715 49.5649C82.4375 51.0676 82.9205 53.1452 82.9205 55.7979C82.9205 58.4659 82.4375 60.5589 81.4715 62.0769C80.5208 63.5949 78.9338 64.3539 76.7105 64.3539C74.4872 64.3539 72.8925 63.5949 71.9265 62.0769C70.9758 60.5589 70.5005 58.4659 70.5005 55.7979ZM79.7465 55.7979C79.7465 54.6632 79.6698 53.7126 79.5165 52.9459C79.3785 52.1639 79.0872 51.5276 78.6425 51.0369C78.2132 50.5462 77.5692 50.3009 76.7105 50.3009C75.8518 50.3009 75.2002 50.5462 74.7555 51.0369C74.3262 51.5276 74.0348 52.1639 73.8815 52.9459C73.7435 53.7126 73.6745 54.6632 73.6745 55.7979C73.6745 56.9632 73.7435 57.9446 73.8815 58.7419C74.0195 59.5239 74.3108 60.1602 74.7555 60.6509C75.2002 61.1262 75.8518 61.3639 76.7105 61.3639C77.5692 61.3639 78.2208 61.1262 78.6655 60.6509C79.1102 60.1602 79.4015 59.5239 79.5395 58.7419C79.6775 57.9446 79.7465 56.9632 79.7465 55.7979ZM88.1756 55.5219C86.6423 54.7246 85.8756 53.4902 85.8756 51.8189C85.8756 50.9909 86.0826 50.2396 86.4966 49.5649C86.926 48.8749 87.5623 48.3306 88.4056 47.9319C89.2643 47.5179 90.307 47.3109 91.5336 47.3109C92.7603 47.3109 93.7953 47.5179 94.6386 47.9319C95.4973 48.3306 96.1336 48.8749 96.5476 49.5649C96.977 50.2396 97.1916 50.9909 97.1916 51.8189C97.1916 52.6622 96.9846 53.4059 96.5706 54.0499C96.1566 54.6786 95.6046 55.1692 94.9146 55.5219C95.758 55.8899 96.4173 56.4266 96.8926 57.1319C97.368 57.8372 97.6056 58.6729 97.6056 59.6389C97.6056 60.6816 97.3373 61.5939 96.8006 62.3759C96.2793 63.1426 95.5586 63.7329 94.6386 64.1469C93.7186 64.5609 92.6836 64.7679 91.5336 64.7679C90.3836 64.7679 89.3486 64.5609 88.4286 64.1469C87.524 63.7329 86.8033 63.1426 86.2666 62.3759C85.7453 61.5939 85.4846 60.6816 85.4846 59.6389C85.4846 58.6729 85.7223 57.8372 86.1976 57.1319C86.673 56.4112 87.3323 55.8746 88.1756 55.5219ZM94.0636 52.2789C94.0636 51.5276 93.8336 50.9449 93.3736 50.5309C92.929 50.1169 92.3156 49.9099 91.5336 49.9099C90.767 49.9099 90.1536 50.1169 89.6936 50.5309C89.249 50.9449 89.0266 51.5352 89.0266 52.3019C89.0266 52.9919 89.2566 53.5439 89.7166 53.9579C90.192 54.3719 90.7976 54.5789 91.5336 54.5789C92.2696 54.5789 92.8753 54.3719 93.3506 53.9579C93.826 53.5286 94.0636 52.9689 94.0636 52.2789ZM91.5336 56.9249C90.6596 56.9249 89.9466 57.1472 89.3946 57.5919C88.858 58.0366 88.5896 58.6729 88.5896 59.5009C88.5896 60.2676 88.8503 60.8962 89.3716 61.3869C89.9083 61.8622 90.629 62.0999 91.5336 62.0999C92.4383 62.0999 93.1513 61.8546 93.6726 61.3639C94.194 60.8732 94.4546 60.2522 94.4546 59.5009C94.4546 58.6882 94.1863 58.0596 93.6496 57.6149C93.113 57.1549 92.4076 56.9249 91.5336 56.9249ZM103.875 59.6849C103.998 60.3596 104.274 60.8809 104.703 61.2489C105.148 61.6016 105.738 61.7779 106.474 61.7779C107.425 61.7779 108.115 61.3869 108.544 60.6049C108.973 59.8076 109.188 58.4736 109.188 56.6029C108.835 57.0936 108.337 57.4769 107.693 57.7529C107.064 58.0289 106.382 58.1669 105.646 58.1669C104.665 58.1669 103.775 57.9676 102.978 57.5689C102.196 57.1549 101.575 56.5492 101.115 55.7519C100.655 54.9392 100.425 53.9579 100.425 52.8079C100.425 51.1059 100.931 49.7566 101.943 48.7599C102.955 47.7479 104.335 47.2419 106.083 47.2419C108.26 47.2419 109.794 47.9396 110.683 49.3349C111.588 50.7302 112.04 52.8309 112.04 55.6369C112.04 57.6302 111.864 59.2632 111.511 60.5359C111.174 61.8086 110.583 62.7746 109.74 63.4339C108.912 64.0932 107.777 64.4229 106.336 64.4229C105.201 64.4229 104.235 64.2082 103.438 63.7789C102.641 63.3342 102.027 62.7592 101.598 62.0539C101.184 61.3332 100.946 60.5436 100.885 59.6849H103.875ZM106.313 55.5449C107.11 55.5449 107.739 55.2996 108.199 54.8089C108.659 54.3182 108.889 53.6589 108.889 52.8309C108.889 51.9262 108.644 51.2286 108.153 50.7379C107.678 50.2319 107.026 49.9789 106.198 49.9789C105.37 49.9789 104.711 50.2396 104.22 50.7609C103.745 51.2669 103.507 51.9416 103.507 52.7849C103.507 53.5976 103.737 54.2646 104.197 54.7859C104.672 55.2919 105.378 55.5449 106.313 55.5449ZM116.34 64.5609C115.758 64.5609 115.275 64.3846 114.891 64.0319C114.523 63.6639 114.339 63.2116 114.339 62.6749C114.339 62.1382 114.523 61.6936 114.891 61.3409C115.275 60.9729 115.758 60.7889 116.34 60.7889C116.908 60.7889 117.375 60.9729 117.743 61.3409C118.111 61.6936 118.295 62.1382 118.295 62.6749C118.295 63.2116 118.111 63.6639 117.743 64.0319C117.375 64.3846 116.908 64.5609 116.34 64.5609ZM129.215 51.8189C129.062 51.1749 128.793 50.6919 128.41 50.3699C128.042 50.0479 127.505 49.8869 126.8 49.8869C125.742 49.8869 124.96 50.3162 124.454 51.1749C123.963 52.0182 123.71 53.3982 123.695 55.3149C124.063 54.7016 124.6 54.2262 125.305 53.8889C126.01 53.5362 126.777 53.3599 127.605 53.3599C128.602 53.3599 129.483 53.5746 130.25 54.0039C131.017 54.4332 131.615 55.0619 132.044 55.8899C132.473 56.7026 132.688 57.6839 132.688 58.8339C132.688 59.9226 132.466 60.8962 132.021 61.7549C131.592 62.5982 130.955 63.2576 130.112 63.7329C129.269 64.2082 128.264 64.4459 127.099 64.4459C125.504 64.4459 124.247 64.0932 123.327 63.3879C122.422 62.6826 121.786 61.7012 121.418 60.4439C121.065 59.1712 120.889 57.6072 120.889 55.7519C120.889 52.9459 121.372 50.8299 122.338 49.4039C123.304 47.9626 124.83 47.2419 126.915 47.2419C128.525 47.2419 129.775 47.6789 130.664 48.5529C131.553 49.4269 132.067 50.5156 132.205 51.8189H129.215ZM126.869 56.0049C126.056 56.0049 125.374 56.2426 124.822 56.7179C124.27 57.1932 123.994 57.8832 123.994 58.7879C123.994 59.6926 124.247 60.4056 124.753 60.9269C125.274 61.4482 126.003 61.7089 126.938 61.7089C127.766 61.7089 128.418 61.4559 128.893 60.9499C129.384 60.4439 129.629 59.7616 129.629 58.9029C129.629 58.0136 129.391 57.3082 128.916 56.7869C128.456 56.2656 127.774 56.0049 126.869 56.0049ZM145.905 50.0709L139.787 64.3999H136.521L142.685 50.4389H134.819V47.6789H145.905V50.0709Z" fill="white"/>
<path d="M33.0452 80.7622H30.9662V82.8962H29.5142V80.7622H27.4352V79.4202H29.5142V77.2862H30.9662V79.4202H33.0452V80.7622ZM34.4623 82.4452V81.2352L38.0593 76.0872H39.8523V81.1032H40.8203V82.4452H39.8523V84.0072H38.3123V82.4452H34.4623ZM38.4113 77.7372L36.1563 81.1032H38.4113V77.7372ZM42.2848 82.2692C42.9888 81.6825 43.5498 81.1949 43.9678 80.8062C44.3858 80.4102 44.7341 79.9995 45.0128 79.5742C45.2914 79.1489 45.4308 78.7309 45.4308 78.3202C45.4308 77.9462 45.3428 77.6529 45.1668 77.4402C44.9908 77.2275 44.7194 77.1212 44.3528 77.1212C43.9861 77.1212 43.7038 77.2459 43.5058 77.4952C43.3078 77.7372 43.2051 78.0709 43.1978 78.4962H41.7018C41.7311 77.6162 41.9914 76.9489 42.4828 76.4942C42.9814 76.0395 43.6121 75.8122 44.3748 75.8122C45.2108 75.8122 45.8524 76.0359 46.2998 76.4832C46.7471 76.9232 46.9708 77.5062 46.9708 78.2322C46.9708 78.8042 46.8168 79.3505 46.5088 79.8712C46.2008 80.3919 45.8488 80.8465 45.4528 81.2352C45.0568 81.6165 44.5398 82.0785 43.9018 82.6212H47.1468V83.8972H41.7128V82.7532L42.2848 82.2692ZM48.9752 84.0842C48.6965 84.0842 48.4655 83.9999 48.2822 83.8312C48.1062 83.6552 48.0182 83.4389 48.0182 83.1822C48.0182 82.9255 48.1062 82.7129 48.2822 82.5442C48.4655 82.3682 48.6965 82.2802 48.9752 82.2802C49.2465 82.2802 49.4702 82.3682 49.6462 82.5442C49.8222 82.7129 49.9102 82.9255 49.9102 83.1822C49.9102 83.4389 49.8222 83.6552 49.6462 83.8312C49.4702 83.9999 49.2465 84.0842 48.9752 84.0842ZM56.3646 77.3192H52.8006V79.2002C52.9546 79.0095 53.1746 78.8555 53.4606 78.7382C53.7466 78.6135 54.0509 78.5512 54.3736 78.5512C54.9603 78.5512 55.4406 78.6795 55.8146 78.9362C56.1886 79.1929 56.4599 79.5229 56.6286 79.9262C56.7973 80.3222 56.8816 80.7475 56.8816 81.2022C56.8816 82.0455 56.6396 82.7239 56.1556 83.2372C55.6789 83.7505 54.9969 84.0072 54.1096 84.0072C53.2736 84.0072 52.6063 83.7982 52.1076 83.3802C51.6089 82.9622 51.3266 82.4159 51.2606 81.7412H52.7566C52.8226 82.0345 52.9693 82.2692 53.1966 82.4452C53.4313 82.6212 53.7283 82.7092 54.0876 82.7092C54.5203 82.7092 54.8466 82.5735 55.0666 82.3022C55.2866 82.0309 55.3966 81.6715 55.3966 81.2242C55.3966 80.7695 55.2829 80.4249 55.0556 80.1902C54.8356 79.9482 54.5093 79.8272 54.0766 79.8272C53.7686 79.8272 53.5119 79.9042 53.3066 80.0582C53.1013 80.2122 52.9546 80.4175 52.8666 80.6742H51.3926V75.9662H56.3646V77.3192ZM57.8777 77.9572C57.8777 77.3999 58.039 76.9635 58.3617 76.6482C58.6917 76.3329 59.1134 76.1752 59.6267 76.1752C60.14 76.1752 60.558 76.3329 60.8807 76.6482C61.2107 76.9635 61.3757 77.3999 61.3757 77.9572C61.3757 78.5219 61.2107 78.9619 60.8807 79.2772C60.558 79.5925 60.14 79.7502 59.6267 79.7502C59.1134 79.7502 58.6917 79.5925 58.3617 79.2772C58.039 78.9619 57.8777 78.5219 57.8777 77.9572ZM64.9397 76.3072L60.6167 84.0072H59.1207L63.4327 76.3072H64.9397ZM59.6157 77.0992C59.2124 77.0992 59.0107 77.3852 59.0107 77.9572C59.0107 78.5365 59.2124 78.8262 59.6157 78.8262C59.8137 78.8262 59.9677 78.7565 60.0777 78.6172C60.1877 78.4705 60.2427 78.2505 60.2427 77.9572C60.2427 77.3852 60.0337 77.0992 59.6157 77.0992ZM62.7067 82.3462C62.7067 81.7815 62.868 81.3452 63.1907 81.0372C63.5207 80.7219 63.9424 80.5642 64.4557 80.5642C64.969 80.5642 65.3834 80.7219 65.6987 81.0372C66.0214 81.3452 66.1827 81.7815 66.1827 82.3462C66.1827 82.9109 66.0214 83.3509 65.6987 83.6662C65.3834 83.9815 64.969 84.1392 64.4557 84.1392C63.935 84.1392 63.5134 83.9815 63.1907 83.6662C62.868 83.3509 62.7067 82.9109 62.7067 82.3462ZM64.4447 81.4882C64.0267 81.4882 63.8177 81.7742 63.8177 82.3462C63.8177 82.9255 64.0267 83.2152 64.4447 83.2152C64.8554 83.2152 65.0607 82.9255 65.0607 82.3462C65.0607 81.7742 64.8554 81.4882 64.4447 81.4882Z" fill="#30EF00"/>
<path d="M72.6144 83.0832L74.4844 77.9792H75.5514L73.1864 84.0072H72.0204L69.6554 77.9792H70.7334L72.6144 83.0832ZM78.6705 84.1062C78.2085 84.1062 77.7941 84.0292 77.4275 83.8752C77.0608 83.7139 76.7711 83.4939 76.5585 83.2152C76.3458 82.9292 76.2285 82.6029 76.2065 82.2362H77.2405C77.2698 82.5369 77.4091 82.7825 77.6585 82.9732C77.9151 83.1639 78.2488 83.2592 78.6595 83.2592C79.0408 83.2592 79.3415 83.1749 79.5615 83.0062C79.7815 82.8375 79.8915 82.6249 79.8915 82.3682C79.8915 82.1042 79.7741 81.9099 79.5395 81.7852C79.3048 81.6532 78.9418 81.5249 78.4505 81.4002C78.0031 81.2829 77.6365 81.1655 77.3505 81.0482C77.0718 80.9235 76.8298 80.7439 76.6245 80.5092C76.4265 80.2672 76.3275 79.9519 76.3275 79.5632C76.3275 79.2552 76.4191 78.9729 76.6025 78.7162C76.7858 78.4595 77.0461 78.2579 77.3835 78.1112C77.7208 77.9572 78.1058 77.8802 78.5385 77.8802C79.2058 77.8802 79.7448 78.0489 80.1555 78.3862C80.5661 78.7235 80.7861 79.1855 80.8155 79.7722H79.8145C79.7925 79.4569 79.6641 79.2039 79.4295 79.0132C79.2021 78.8225 78.8941 78.7272 78.5055 78.7272C78.1461 78.7272 77.8601 78.8042 77.6475 78.9582C77.4348 79.1122 77.3285 79.3139 77.3285 79.5632C77.3285 79.7612 77.3908 79.9262 77.5155 80.0582C77.6475 80.1829 77.8088 80.2855 77.9995 80.3662C78.1975 80.4395 78.4688 80.5239 78.8135 80.6192C79.2461 80.7365 79.5981 80.8539 79.8695 80.9712C80.1408 81.0812 80.3718 81.2499 80.5625 81.4772C80.7605 81.7045 80.8631 82.0015 80.8705 82.3682C80.8705 82.6982 80.7788 82.9952 80.5955 83.2592C80.4121 83.5232 80.1518 83.7322 79.8145 83.8862C79.4845 84.0329 79.1031 84.1062 78.6705 84.1062ZM86.2171 75.8672V84.0072H85.2161V75.8672H86.2171ZM87.5492 80.9712C87.5492 80.3552 87.6738 79.8162 87.9232 79.3542C88.1725 78.8849 88.5135 78.5219 88.9462 78.2652C89.3862 78.0085 89.8738 77.8802 90.4092 77.8802C90.9372 77.8802 91.3955 77.9939 91.7842 78.2212C92.1728 78.4485 92.4625 78.7345 92.6532 79.0792V77.9792H93.6652V84.0072H92.6532V82.8852C92.4552 83.2372 92.1582 83.5305 91.7622 83.7652C91.3735 83.9925 90.9188 84.1062 90.3982 84.1062C89.8628 84.1062 89.3788 83.9742 88.9462 83.7102C88.5135 83.4462 88.1725 83.0759 87.9232 82.5992C87.6738 82.1225 87.5492 81.5799 87.5492 80.9712ZM92.6532 80.9822C92.6532 80.5275 92.5615 80.1315 92.3782 79.7942C92.1948 79.4569 91.9455 79.2002 91.6302 79.0242C91.3222 78.8409 90.9812 78.7492 90.6072 78.7492C90.2332 78.7492 89.8922 78.8372 89.5842 79.0132C89.2762 79.1892 89.0305 79.4459 88.8472 79.7832C88.6638 80.1205 88.5722 80.5165 88.5722 80.9712C88.5722 81.4332 88.6638 81.8365 88.8472 82.1812C89.0305 82.5185 89.2762 82.7789 89.5842 82.9622C89.8922 83.1382 90.2332 83.2262 90.6072 83.2262C90.9812 83.2262 91.3222 83.1382 91.6302 82.9622C91.9455 82.7789 92.1948 82.5185 92.3782 82.1812C92.5615 81.8365 92.6532 81.4369 92.6532 80.9822ZM97.4908 84.1062C97.0288 84.1062 96.6144 84.0292 96.2478 83.8752C95.8811 83.7139 95.5914 83.4939 95.3788 83.2152C95.1661 82.9292 95.0488 82.6029 95.0268 82.2362H96.0608C96.0901 82.5369 96.2294 82.7825 96.4788 82.9732C96.7354 83.1639 97.0691 83.2592 97.4798 83.2592C97.8611 83.2592 98.1618 83.1749 98.3818 83.0062C98.6018 82.8375 98.7118 82.6249 98.7118 82.3682C98.7118 82.1042 98.5944 81.9099 98.3598 81.7852C98.1251 81.6532 97.7621 81.5249 97.2708 81.4002C96.8234 81.2829 96.4568 81.1655 96.1708 81.0482C95.8921 80.9235 95.6501 80.7439 95.4448 80.5092C95.2468 80.2672 95.1478 79.9519 95.1478 79.5632C95.1478 79.2552 95.2394 78.9729 95.4228 78.7162C95.6061 78.4595 95.8664 78.2579 96.2038 78.1112C96.5411 77.9572 96.9261 77.8802 97.3588 77.8802C98.0261 77.8802 98.5651 78.0489 98.9758 78.3862C99.3864 78.7235 99.6064 79.1855 99.6358 79.7722H98.6348C98.6128 79.4569 98.4844 79.2039 98.2498 79.0132C98.0224 78.8225 97.7144 78.7272 97.3258 78.7272C96.9664 78.7272 96.6804 78.8042 96.4678 78.9582C96.2551 79.1122 96.1488 79.3139 96.1488 79.5632C96.1488 79.7612 96.2111 79.9262 96.3358 80.0582C96.4678 80.1829 96.6291 80.2855 96.8198 80.3662C97.0178 80.4395 97.2891 80.5239 97.6338 80.6192C98.0664 80.7365 98.4184 80.8539 98.6898 80.9712C98.9611 81.0812 99.1921 81.2499 99.3828 81.4772C99.5808 81.7045 99.6834 82.0015 99.6908 82.3682C99.6908 82.6982 99.5991 82.9952 99.4158 83.2592C99.2324 83.5232 98.9721 83.7322 98.6348 83.8862C98.3048 84.0329 97.9234 84.1062 97.4908 84.1062ZM102.325 78.8042V82.3572C102.325 82.6505 102.387 82.8595 102.512 82.9842C102.637 83.1015 102.853 83.1602 103.161 83.1602H103.898V84.0072H102.996C102.439 84.0072 102.021 83.8789 101.742 83.6222C101.463 83.3655 101.324 82.9439 101.324 82.3572V78.8042H100.543V77.9792H101.324V76.4612H102.325V77.9792H103.898V78.8042H102.325ZM107.856 78.0562C107.908 77.3815 108.168 76.8535 108.637 76.4722C109.107 76.0909 109.715 75.9002 110.463 75.9002C110.962 75.9002 111.391 75.9919 111.75 76.1752C112.117 76.3512 112.392 76.5932 112.575 76.9012C112.766 77.2092 112.861 77.5575 112.861 77.9462C112.861 78.4009 112.729 78.7932 112.465 79.1232C112.209 79.4532 111.871 79.6659 111.453 79.7612V79.8162C111.93 79.9335 112.308 80.1645 112.586 80.5092C112.865 80.8539 113.004 81.3049 113.004 81.8622C113.004 82.2802 112.909 82.6579 112.718 82.9952C112.528 83.3252 112.242 83.5855 111.86 83.7762C111.479 83.9669 111.021 84.0622 110.485 84.0622C109.708 84.0622 109.07 83.8605 108.571 83.4572C108.073 83.0465 107.794 82.4672 107.735 81.7192H108.703C108.755 82.1592 108.934 82.5185 109.242 82.7972C109.55 83.0759 109.961 83.2152 110.474 83.2152C110.988 83.2152 111.376 83.0832 111.64 82.8192C111.912 82.5479 112.047 82.1995 112.047 81.7742C112.047 81.2242 111.864 80.8282 111.497 80.5862C111.131 80.3442 110.577 80.2232 109.836 80.2232H109.583V79.3872H109.847C110.522 79.3799 111.032 79.2699 111.376 79.0572C111.721 78.8372 111.893 78.4999 111.893 78.0452C111.893 77.6565 111.765 77.3449 111.508 77.1102C111.259 76.8755 110.9 76.7582 110.43 76.7582C109.976 76.7582 109.609 76.8755 109.33 77.1102C109.052 77.3449 108.887 77.6602 108.835 78.0562H107.856ZM114.356 79.9482C114.356 78.6869 114.561 77.7042 114.972 77.0002C115.382 76.2889 116.101 75.9332 117.128 75.9332C118.147 75.9332 118.862 76.2889 119.273 77.0002C119.683 77.7042 119.889 78.6869 119.889 79.9482C119.889 81.2315 119.683 82.2289 119.273 82.9402C118.862 83.6515 118.147 84.0072 117.128 84.0072C116.101 84.0072 115.382 83.6515 114.972 82.9402C114.561 82.2289 114.356 81.2315 114.356 79.9482ZM118.899 79.9482C118.899 79.3102 118.855 78.7712 118.767 78.3312C118.686 77.8839 118.514 77.5245 118.25 77.2532C117.993 76.9819 117.619 76.8462 117.128 76.8462C116.629 76.8462 116.248 76.9819 115.984 77.2532C115.727 77.5245 115.555 77.8839 115.467 78.3312C115.386 78.7712 115.346 79.3102 115.346 79.9482C115.346 80.6082 115.386 81.1619 115.467 81.6092C115.555 82.0565 115.727 82.4159 115.984 82.6872C116.248 82.9585 116.629 83.0942 117.128 83.0942C117.619 83.0942 117.993 82.9585 118.25 82.6872C118.514 82.4159 118.686 82.0565 118.767 81.6092C118.855 81.1619 118.899 80.6082 118.899 79.9482ZM121.054 80.9712C121.054 80.3552 121.179 79.8162 121.428 79.3542C121.677 78.8849 122.018 78.5219 122.451 78.2652C122.891 78.0085 123.382 77.8802 123.925 77.8802C124.394 77.8802 124.831 77.9902 125.234 78.2102C125.637 78.4229 125.945 78.7052 126.158 79.0572V75.8672H127.17V84.0072H126.158V82.8742C125.96 83.2335 125.667 83.5305 125.278 83.7652C124.889 83.9925 124.435 84.1062 123.914 84.1062C123.379 84.1062 122.891 83.9742 122.451 83.7102C122.018 83.4462 121.677 83.0759 121.428 82.5992C121.179 82.1225 121.054 81.5799 121.054 80.9712ZM126.158 80.9822C126.158 80.5275 126.066 80.1315 125.883 79.7942C125.7 79.4569 125.45 79.2002 125.135 79.0242C124.827 78.8409 124.486 78.7492 124.112 78.7492C123.738 78.7492 123.397 78.8372 123.089 79.0132C122.781 79.1892 122.535 79.4459 122.352 79.7832C122.169 80.1205 122.077 80.5165 122.077 80.9712C122.077 81.4332 122.169 81.8365 122.352 82.1812C122.535 82.5185 122.781 82.7789 123.089 82.9622C123.397 83.1382 123.738 83.2262 124.112 83.2262C124.486 83.2262 124.827 83.1382 125.135 82.9622C125.45 82.7789 125.7 82.5185 125.883 82.1812C126.066 81.8365 126.158 81.4369 126.158 80.9822ZM128.488 80.9712C128.488 80.3552 128.612 79.8162 128.862 79.3542C129.111 78.8849 129.452 78.5219 129.885 78.2652C130.325 78.0085 130.812 77.8802 131.348 77.8802C131.876 77.8802 132.334 77.9939 132.723 78.2212C133.111 78.4485 133.401 78.7345 133.592 79.0792V77.9792H134.604V84.0072H133.592V82.8852C133.394 83.2372 133.097 83.5305 132.701 83.7652C132.312 83.9925 131.857 84.1062 131.337 84.1062C130.801 84.1062 130.317 83.9742 129.885 83.7102C129.452 83.4462 129.111 83.0759 128.862 82.5992C128.612 82.1225 128.488 81.5799 128.488 80.9712ZM133.592 80.9822C133.592 80.5275 133.5 80.1315 133.317 79.7942C133.133 79.4569 132.884 79.2002 132.569 79.0242C132.261 78.8409 131.92 78.7492 131.546 78.7492C131.172 78.7492 130.831 78.8372 130.523 79.0132C130.215 79.1892 129.969 79.4459 129.786 79.7832C129.602 80.1205 129.511 80.5165 129.511 80.9712C129.511 81.4332 129.602 81.8365 129.786 82.1812C129.969 82.5185 130.215 82.7789 130.523 82.9622C130.831 83.1382 131.172 83.2262 131.546 83.2262C131.92 83.2262 132.261 83.1382 132.569 82.9622C132.884 82.7789 133.133 82.5185 133.317 82.1812C133.5 81.8365 133.592 81.4369 133.592 80.9822ZM141.487 77.9792L137.857 86.8452H136.823L138.011 83.9412L135.58 77.9792H136.691L138.583 82.8632L140.453 77.9792H141.487ZM144.627 84.1062C144.165 84.1062 143.751 84.0292 143.384 83.8752C143.018 83.7139 142.728 83.4939 142.515 83.2152C142.303 82.9292 142.185 82.6029 142.163 82.2362H143.197C143.227 82.5369 143.366 82.7825 143.615 82.9732C143.872 83.1639 144.206 83.2592 144.616 83.2592C144.998 83.2592 145.298 83.1749 145.518 83.0062C145.738 82.8375 145.848 82.6249 145.848 82.3682C145.848 82.1042 145.731 81.9099 145.496 81.7852C145.262 81.6532 144.899 81.5249 144.407 81.4002C143.96 81.2829 143.593 81.1655 143.307 81.0482C143.029 80.9235 142.787 80.7439 142.581 80.5092C142.383 80.2672 142.284 79.9519 142.284 79.5632C142.284 79.2552 142.376 78.9729 142.559 78.7162C142.743 78.4595 143.003 78.2579 143.34 78.1112C143.678 77.9572 144.063 77.8802 144.495 77.8802C145.163 77.8802 145.702 78.0489 146.112 78.3862C146.523 78.7235 146.743 79.1855 146.772 79.7722H145.771C145.749 79.4569 145.621 79.2039 145.386 79.0132C145.159 78.8225 144.851 78.7272 144.462 78.7272C144.103 78.7272 143.817 78.8042 143.604 78.9582C143.392 79.1122 143.285 79.3139 143.285 79.5632C143.285 79.7612 143.348 79.9262 143.472 80.0582C143.604 80.1829 143.766 80.2855 143.956 80.3662C144.154 80.4395 144.426 80.5239 144.77 80.6192C145.203 80.7365 145.555 80.8539 145.826 80.9712C146.098 81.0812 146.329 81.2499 146.519 81.4772C146.717 81.7045 146.82 82.0015 146.827 82.3682C146.827 82.6982 146.736 82.9952 146.552 83.2592C146.369 83.5232 146.109 83.7322 145.771 83.8862C145.441 84.0329 145.06 84.1062 144.627 84.1062Z" fill="white"/>
<path d="M24.379 75.5115C24.3607 75.236 24.1224 75.0275 23.8469 75.0459L19.3568 75.3452C19.0813 75.3636 18.8728 75.6019 18.8912 75.8774C18.9096 76.1529 19.1478 76.3614 19.4234 76.343L23.4145 76.077L23.6806 80.0681C23.6989 80.3436 23.9372 80.5521 24.2127 80.5337C24.4883 80.5154 24.6967 80.2771 24.6784 80.0016L24.379 75.5115ZM23.5038 75.2155L17.313 82.2908L18.0656 82.9493L24.2564 75.8741L23.5038 75.2155Z" fill="#30EF00"/>
<defs>
<linearGradient id="paint0_linear_529_4746" x1="211.826" y1="17.4252" x2="211.826" y2="71.816" gradientUnits="userSpaceOnUse">
<stop stop-color="#FFEA32"/>
<stop offset="1" stop-color="#D9D9D9" stop-opacity="0"/>
<stop offset="1" stop-color="#F4F3F3" stop-opacity="0.25"/>
</linearGradient>
</defs>
</svg>
