<svg width="257" height="105" viewBox="0 0 257 105" fill="none" xmlns="http://www.w3.org/2000/svg">
<rect x="0.134766" y="0.611328" width="256" height="104.36" rx="16" fill="#07377E"/>
<path d="M180.429 43.8342L166 40.4779V72.0001C166 74.2093 167.791 76.0001 170 76.0001H233C235.209 76.0001 237 74.2093 237 72.0001V25.0001L230.667 33.7746C229.636 35.2025 227.793 35.7884 226.127 35.2177L220.013 33.1233C218.56 32.6255 216.95 33.0037 215.871 34.0966L211.983 38.0332C210.594 39.4392 208.386 39.6204 206.787 38.4596L198.754 32.629C197.142 31.4589 194.914 31.6534 193.529 33.0852L184.21 42.7192C183.233 43.7293 181.798 44.1525 180.429 43.8342Z" fill="url(#paint0_linear_529_4757)"/>
<path d="M166.756 40.5253L180.612 43.9372C182.034 44.2873 183.533 43.8325 184.521 42.7514L193.371 33.066C194.773 31.5326 197.114 31.3269 198.761 32.5924L206.204 38.3109C207.839 39.5667 210.16 39.3749 211.566 37.8678L215.122 34.0563C216.216 32.8842 217.903 32.4782 219.41 33.0247L225.076 35.0791C226.749 35.6858 228.622 35.114 229.671 33.676L236 25.0001" stroke="#6FFFE5" stroke-width="2" stroke-linecap="round"/>
<path d="M20.8693 25.2308V28.4928H24.4253V29.5428H20.8693V32.9028H24.8453V33.9528H19.5953V24.1808H24.8453V25.2308H20.8693ZM30.7771 33.9528L28.9571 31.0968L27.2071 33.9528H25.8771L28.3551 30.1448L25.8771 26.2808H27.3191L29.1391 29.1228L30.8751 26.2808H32.2051L29.7411 30.0748L32.2191 33.9528H30.7771ZM34.7463 27.6948C34.9983 27.2561 35.3716 26.8921 35.8663 26.6028C36.3703 26.3041 36.9536 26.1548 37.6163 26.1548C38.2976 26.1548 38.9136 26.3181 39.4643 26.6448C40.0243 26.9714 40.463 27.4334 40.7803 28.0308C41.0976 28.6188 41.2563 29.3048 41.2563 30.0888C41.2563 30.8634 41.0976 31.5541 40.7803 32.1608C40.463 32.7674 40.0243 33.2388 39.4643 33.5748C38.9136 33.9108 38.2976 34.0788 37.6163 34.0788C36.963 34.0788 36.3843 33.9341 35.8803 33.6448C35.3856 33.3461 35.0076 32.9774 34.7463 32.5388V37.5928H33.4723V26.2808H34.7463V27.6948ZM39.9543 30.0888C39.9543 29.5101 39.8376 29.0061 39.6043 28.5768C39.371 28.1474 39.0536 27.8208 38.6523 27.5968C38.2603 27.3728 37.8263 27.2608 37.3503 27.2608C36.8836 27.2608 36.4496 27.3774 36.0483 27.6108C35.6563 27.8348 35.339 28.1661 35.0963 28.6048C34.863 29.0341 34.7463 29.5334 34.7463 30.1028C34.7463 30.6814 34.863 31.1901 35.0963 31.6288C35.339 32.0581 35.6563 32.3894 36.0483 32.6228C36.4496 32.8468 36.8836 32.9588 37.3503 32.9588C37.8263 32.9588 38.2603 32.8468 38.6523 32.6228C39.0536 32.3894 39.371 32.0581 39.6043 31.6288C39.8376 31.1901 39.9543 30.6768 39.9543 30.0888ZM49.9332 29.8228C49.9332 30.0654 49.9192 30.3221 49.8912 30.5928H43.7592C43.8059 31.3488 44.0626 31.9414 44.5292 32.3708C45.0052 32.7908 45.5792 33.0008 46.2512 33.0008C46.8019 33.0008 47.2592 32.8748 47.6232 32.6228C47.9966 32.3614 48.2579 32.0161 48.4072 31.5868H49.7792C49.5739 32.3241 49.1632 32.9261 48.5472 33.3928C47.9312 33.8501 47.1659 34.0788 46.2512 34.0788C45.5232 34.0788 44.8699 33.9154 44.2912 33.5888C43.7219 33.2621 43.2739 32.8001 42.9472 32.2028C42.6206 31.5961 42.4572 30.8961 42.4572 30.1028C42.4572 29.3094 42.6159 28.6141 42.9332 28.0168C43.2506 27.4194 43.6939 26.9621 44.2632 26.6448C44.8419 26.3181 45.5046 26.1548 46.2512 26.1548C46.9792 26.1548 47.6232 26.3134 48.1832 26.6308C48.7432 26.9481 49.1726 27.3868 49.4712 27.9468C49.7792 28.4974 49.9332 29.1228 49.9332 29.8228ZM48.6172 29.5568C48.6172 29.0714 48.5099 28.6561 48.2952 28.3108C48.0806 27.9561 47.7866 27.6901 47.4132 27.5128C47.0492 27.3261 46.6432 27.2328 46.1952 27.2328C45.5512 27.2328 45.0006 27.4381 44.5432 27.8488C44.0952 28.2594 43.8386 28.8288 43.7732 29.5568H48.6172ZM55.3529 26.1408C56.2862 26.1408 57.0422 26.4254 57.6209 26.9948C58.1995 27.5548 58.4889 28.3668 58.4889 29.4308V33.9528H57.2289V29.6128C57.2289 28.8474 57.0375 28.2641 56.6549 27.8628C56.2722 27.4521 55.7495 27.2468 55.0869 27.2468C54.4149 27.2468 53.8782 27.4568 53.4769 27.8768C53.0849 28.2968 52.8889 28.9081 52.8889 29.7108V33.9528H51.6149V26.2808H52.8889V27.3728C53.1409 26.9808 53.4815 26.6774 53.9109 26.4628C54.3495 26.2481 54.8302 26.1408 55.3529 26.1408ZM63.2859 34.0788C62.6979 34.0788 62.1706 33.9808 61.7039 33.7848C61.2373 33.5794 60.8686 33.2994 60.5979 32.9448C60.3273 32.5808 60.1779 32.1654 60.1499 31.6988H61.4659C61.5033 32.0814 61.6806 32.3941 61.9979 32.6368C62.3246 32.8794 62.7493 33.0008 63.2719 33.0008C63.7573 33.0008 64.1399 32.8934 64.4199 32.6788C64.6999 32.4641 64.8399 32.1934 64.8399 31.8668C64.8399 31.5308 64.6906 31.2834 64.3919 31.1248C64.0933 30.9568 63.6313 30.7934 63.0059 30.6348C62.4366 30.4854 61.9699 30.3361 61.6059 30.1868C61.2513 30.0281 60.9433 29.7994 60.6819 29.5008C60.4299 29.1928 60.3039 28.7914 60.3039 28.2968C60.3039 27.9048 60.4206 27.5454 60.6539 27.2188C60.8873 26.8921 61.2186 26.6354 61.6479 26.4488C62.0773 26.2528 62.5673 26.1548 63.1179 26.1548C63.9673 26.1548 64.6533 26.3694 65.1759 26.7988C65.6986 27.2281 65.9786 27.8161 66.0159 28.5628H64.7419C64.7139 28.1614 64.5506 27.8394 64.2519 27.5968C63.9626 27.3541 63.5706 27.2328 63.0759 27.2328C62.6186 27.2328 62.2546 27.3308 61.9839 27.5268C61.7133 27.7228 61.5779 27.9794 61.5779 28.2968C61.5779 28.5488 61.6573 28.7588 61.8159 28.9268C61.9839 29.0854 62.1893 29.2161 62.4319 29.3188C62.6839 29.4121 63.0293 29.5194 63.4679 29.6408C64.0186 29.7901 64.4666 29.9394 64.8119 30.0888C65.1573 30.2288 65.4513 30.4434 65.6939 30.7328C65.9459 31.0221 66.0766 31.4001 66.0859 31.8668C66.0859 32.2868 65.9693 32.6648 65.7359 33.0008C65.5026 33.3368 65.1713 33.6028 64.7419 33.7988C64.3219 33.9854 63.8366 34.0788 63.2859 34.0788ZM74.8844 29.8228C74.8844 30.0654 74.8704 30.3221 74.8424 30.5928H68.7104C68.7571 31.3488 69.0137 31.9414 69.4804 32.3708C69.9564 32.7908 70.5304 33.0008 71.2024 33.0008C71.7531 33.0008 72.2104 32.8748 72.5744 32.6228C72.9477 32.3614 73.2091 32.0161 73.3584 31.5868H74.7304C74.5251 32.3241 74.1144 32.9261 73.4984 33.3928C72.8824 33.8501 72.1171 34.0788 71.2024 34.0788C70.4744 34.0788 69.8211 33.9154 69.2424 33.5888C68.6731 33.2621 68.2251 32.8001 67.8984 32.2028C67.5717 31.5961 67.4084 30.8961 67.4084 30.1028C67.4084 29.3094 67.5671 28.6141 67.8844 28.0168C68.2017 27.4194 68.6451 26.9621 69.2144 26.6448C69.7931 26.3181 70.4557 26.1548 71.2024 26.1548C71.9304 26.1548 72.5744 26.3134 73.1344 26.6308C73.6944 26.9481 74.1237 27.3868 74.4224 27.9468C74.7304 28.4974 74.8844 29.1228 74.8844 29.8228ZM73.5684 29.5568C73.5684 29.0714 73.4611 28.6561 73.2464 28.3108C73.0317 27.9561 72.7377 27.6901 72.3644 27.5128C72.0004 27.3261 71.5944 27.2328 71.1464 27.2328C70.5024 27.2328 69.9517 27.4381 69.4944 27.8488C69.0464 28.2594 68.7897 28.8288 68.7244 29.5568H73.5684ZM79.282 34.0788C78.694 34.0788 78.1667 33.9808 77.7 33.7848C77.2334 33.5794 76.8647 33.2994 76.594 32.9448C76.3234 32.5808 76.174 32.1654 76.146 31.6988H77.462C77.4994 32.0814 77.6767 32.3941 77.994 32.6368C78.3207 32.8794 78.7454 33.0008 79.268 33.0008C79.7534 33.0008 80.136 32.8934 80.416 32.6788C80.696 32.4641 80.836 32.1934 80.836 31.8668C80.836 31.5308 80.6867 31.2834 80.388 31.1248C80.0894 30.9568 79.6274 30.7934 79.002 30.6348C78.4327 30.4854 77.966 30.3361 77.602 30.1868C77.2474 30.0281 76.9394 29.7994 76.678 29.5008C76.426 29.1928 76.3 28.7914 76.3 28.2968C76.3 27.9048 76.4167 27.5454 76.65 27.2188C76.8834 26.8921 77.2147 26.6354 77.644 26.4488C78.0734 26.2528 78.5634 26.1548 79.114 26.1548C79.9634 26.1548 80.6494 26.3694 81.172 26.7988C81.6947 27.2281 81.9747 27.8161 82.012 28.5628H80.738C80.71 28.1614 80.5467 27.8394 80.248 27.5968C79.9587 27.3541 79.5667 27.2328 79.072 27.2328C78.6147 27.2328 78.2507 27.3308 77.98 27.5268C77.7094 27.7228 77.574 27.9794 77.574 28.2968C77.574 28.5488 77.6534 28.7588 77.812 28.9268C77.98 29.0854 78.1854 29.2161 78.428 29.3188C78.68 29.4121 79.0254 29.5194 79.464 29.6408C80.0147 29.7901 80.4627 29.9394 80.808 30.0888C81.1534 30.2288 81.4474 30.4434 81.69 30.7328C81.942 31.0221 82.0727 31.4001 82.082 31.8668C82.082 32.2868 81.9654 32.6648 81.732 33.0008C81.4987 33.3368 81.1674 33.6028 80.738 33.7988C80.318 33.9854 79.8327 34.0788 79.282 34.0788Z" fill="white"/>
<path d="M29.9023 53.957V56.671H20.1503V53.957H29.9023ZM44.9675 58.902C44.9675 59.6994 44.7605 60.4507 44.3465 61.156C43.9478 61.846 43.3498 62.421 42.5525 62.881C41.7705 63.3257 40.8428 63.5864 39.7695 63.663V65.526H38.2975V63.64C36.7642 63.502 35.5298 63.042 34.5945 62.26C33.6592 61.4627 33.1762 60.3894 33.1455 59.04H36.5955C36.6875 60.144 37.2548 60.811 38.2975 61.041V56.648C37.1935 56.372 36.3042 56.096 35.6295 55.82C34.9548 55.544 34.3722 55.0994 33.8815 54.486C33.3908 53.8727 33.1455 53.037 33.1455 51.979C33.1455 50.645 33.6208 49.5564 34.5715 48.713C35.5375 47.8697 36.7795 47.3867 38.2975 47.264V45.401H39.7695V47.264C41.2415 47.3867 42.4145 47.8314 43.2885 48.598C44.1778 49.3647 44.6762 50.4227 44.7835 51.772H41.3105C41.2645 51.3274 41.1035 50.944 40.8275 50.622C40.5668 50.2847 40.2142 50.047 39.7695 49.909V54.256C40.9195 54.5474 41.8242 54.831 42.4835 55.107C43.1582 55.3677 43.7408 55.8047 44.2315 56.418C44.7222 57.016 44.9675 57.844 44.9675 58.902ZM36.5035 51.818C36.5035 52.324 36.6568 52.738 36.9635 53.06C37.2702 53.3667 37.7148 53.6197 38.2975 53.819V49.84C37.7455 49.9167 37.3085 50.1237 36.9865 50.461C36.6645 50.7984 36.5035 51.2507 36.5035 51.818ZM39.7695 61.087C40.3522 60.9797 40.8045 60.742 41.1265 60.374C41.4638 60.006 41.6325 59.5614 41.6325 59.04C41.6325 58.534 41.4715 58.1277 41.1495 57.821C40.8275 57.5144 40.3675 57.2614 39.7695 57.062V61.087ZM47.8033 49.725V46.758H53.3463V63.525H50.0343V49.725H47.8033ZM60.4144 60.144L57.7233 66.607H55.6533L57.1483 60.144H60.4144ZM73.0392 49.196L66.9212 63.525H63.6552L69.8192 49.564H61.9532V46.804H73.0392V49.196ZM74.8298 60.259V57.729L82.3508 46.965H86.0998V57.453H88.1238V60.259H86.0998V63.525H82.8798V60.259H74.8298ZM83.0868 50.415L78.3718 57.453H83.0868V50.415ZM93.8998 58.81C94.0225 59.4847 94.2985 60.006 94.7278 60.374C95.1725 60.7267 95.7628 60.903 96.4988 60.903C97.4495 60.903 98.1395 60.512 98.5688 59.73C98.9982 58.9327 99.2128 57.5987 99.2128 55.728C98.8602 56.2187 98.3618 56.602 97.7178 56.878C97.0892 57.154 96.4068 57.292 95.6708 57.292C94.6895 57.292 93.8002 57.0927 93.0028 56.694C92.2208 56.28 91.5998 55.6744 91.1398 54.877C90.6798 54.0644 90.4498 53.083 90.4498 51.933C90.4498 50.231 90.9558 48.8817 91.9678 47.885C92.9798 46.873 94.3598 46.367 96.1078 46.367C98.2852 46.367 99.8185 47.0647 100.708 48.46C101.613 49.8554 102.065 51.956 102.065 54.762C102.065 56.7554 101.889 58.3884 101.536 59.661C101.199 60.9337 100.608 61.8997 99.7648 62.559C98.9368 63.2184 97.8022 63.548 96.3608 63.548C95.2262 63.548 94.2602 63.3334 93.4628 62.904C92.6655 62.4594 92.0522 61.8844 91.6228 61.179C91.2088 60.4584 90.9712 59.6687 90.9098 58.81H93.8998ZM96.3378 54.67C97.1352 54.67 97.7638 54.4247 98.2238 53.934C98.6838 53.4434 98.9138 52.784 98.9138 51.956C98.9138 51.0514 98.6685 50.3537 98.1778 49.863C97.7025 49.357 97.0508 49.104 96.2228 49.104C95.3948 49.104 94.7355 49.3647 94.2448 49.886C93.7695 50.392 93.5318 51.0667 93.5318 51.91C93.5318 52.7227 93.7618 53.3897 94.2218 53.911C94.6972 54.417 95.4025 54.67 96.3378 54.67ZM106.365 63.686C105.783 63.686 105.3 63.5097 104.916 63.157C104.548 62.789 104.364 62.3367 104.364 61.8C104.364 61.2634 104.548 60.8187 104.916 60.466C105.3 60.098 105.783 59.914 106.365 59.914C106.933 59.914 107.4 60.098 107.768 60.466C108.136 60.8187 108.32 61.2634 108.32 61.8C108.32 62.3367 108.136 62.789 107.768 63.157C107.4 63.5097 106.933 63.686 106.365 63.686ZM111.558 59.891C113.03 58.6644 114.203 57.6447 115.077 56.832C115.951 56.004 116.679 55.1454 117.262 54.256C117.845 53.3667 118.136 52.4927 118.136 51.634C118.136 50.852 117.952 50.2387 117.584 49.794C117.216 49.3494 116.649 49.127 115.882 49.127C115.115 49.127 114.525 49.3877 114.111 49.909C113.697 50.415 113.482 51.1127 113.467 52.002H110.339C110.4 50.162 110.945 48.7667 111.972 47.816C113.015 46.8654 114.333 46.39 115.928 46.39C117.676 46.39 119.018 46.8577 119.953 47.793C120.888 48.713 121.356 49.932 121.356 51.45C121.356 52.646 121.034 53.7884 120.39 54.877C119.746 55.9657 119.01 56.9164 118.182 57.729C117.354 58.5264 116.273 59.4924 114.939 60.627H121.724V63.295H110.362V60.903L111.558 59.891ZM123.799 51.174C123.876 49.6407 124.412 48.46 125.409 47.632C126.421 46.7887 127.747 46.367 129.388 46.367C130.507 46.367 131.466 46.5664 132.263 46.965C133.06 47.3484 133.658 47.8774 134.057 48.552C134.471 49.2114 134.678 49.9627 134.678 50.806C134.678 51.772 134.425 52.5924 133.919 53.267C133.428 53.9264 132.838 54.371 132.148 54.601V54.693C133.037 54.969 133.727 55.4597 134.218 56.165C134.724 56.8704 134.977 57.775 134.977 58.879C134.977 59.799 134.762 60.6194 134.333 61.34C133.919 62.0607 133.298 62.628 132.47 63.042C131.657 63.4407 130.676 63.64 129.526 63.64C127.793 63.64 126.383 63.203 125.294 62.329C124.205 61.455 123.63 60.167 123.569 58.465H126.697C126.728 59.2164 126.981 59.822 127.456 60.282C127.947 60.7267 128.614 60.949 129.457 60.949C130.239 60.949 130.837 60.7344 131.251 60.305C131.68 59.8604 131.895 59.293 131.895 58.603C131.895 57.683 131.604 57.0237 131.021 56.625C130.438 56.2264 129.534 56.027 128.307 56.027H127.64V53.382H128.307C130.484 53.382 131.573 52.6537 131.573 51.197C131.573 50.5377 131.374 50.024 130.975 49.656C130.592 49.288 130.032 49.104 129.296 49.104C128.575 49.104 128.016 49.3034 127.617 49.702C127.234 50.0854 127.011 50.576 126.95 51.174H123.799Z" fill="white"/>
<path d="M34.377 79.8874H32.298V82.0214H30.846V79.8874H28.767V78.5454H30.846V76.4114H32.298V78.5454H34.377V79.8874ZM35.8821 77.2254C35.9188 76.4921 36.1754 75.9274 36.6521 75.5314C37.1361 75.1281 37.7704 74.9264 38.5551 74.9264C39.0904 74.9264 39.5488 75.0218 39.9301 75.2124C40.3114 75.3958 40.5974 75.6488 40.7881 75.9714C40.9861 76.2868 41.0851 76.6461 41.0851 77.0494C41.0851 77.5114 40.9641 77.9038 40.7221 78.2264C40.4874 78.5418 40.2051 78.7544 39.8751 78.8644V78.9084C40.3004 79.0404 40.6304 79.2751 40.8651 79.6124C41.1071 79.9498 41.2281 80.3824 41.2281 80.9104C41.2281 81.3504 41.1254 81.7428 40.9201 82.0874C40.7221 82.4321 40.4251 82.7034 40.0291 82.9014C39.6404 83.0921 39.1711 83.1874 38.6211 83.1874C37.7924 83.1874 37.1178 82.9784 36.5971 82.5604C36.0764 82.1424 35.8014 81.5264 35.7721 80.7124H37.2681C37.2828 81.0718 37.4038 81.3614 37.6311 81.5814C37.8658 81.7941 38.1848 81.9004 38.5881 81.9004C38.9621 81.9004 39.2481 81.7978 39.4461 81.5924C39.6514 81.3798 39.7541 81.1084 39.7541 80.7784C39.7541 80.3384 39.6148 80.0231 39.3361 79.8324C39.0574 79.6418 38.6248 79.5464 38.0381 79.5464H37.7191V78.2814H38.0381C39.0794 78.2814 39.6001 77.9331 39.6001 77.2364C39.6001 76.9211 39.5048 76.6754 39.3141 76.4994C39.1308 76.3234 38.8631 76.2354 38.5111 76.2354C38.1664 76.2354 37.8988 76.3308 37.7081 76.5214C37.5248 76.7048 37.4184 76.9394 37.3891 77.2254H35.8821ZM42.9291 81.3944C43.6331 80.8078 44.1941 80.3201 44.6121 79.9314C45.0301 79.5354 45.3784 79.1248 45.6571 78.6994C45.9357 78.2741 46.0751 77.8561 46.0751 77.4454C46.0751 77.0714 45.9871 76.7781 45.8111 76.5654C45.6351 76.3528 45.3637 76.2464 44.9971 76.2464C44.6304 76.2464 44.3481 76.3711 44.1501 76.6204C43.9521 76.8624 43.8494 77.1961 43.8421 77.6214H42.3461C42.3754 76.7414 42.6357 76.0741 43.1271 75.6194C43.6257 75.1648 44.2564 74.9374 45.0191 74.9374C45.8551 74.9374 46.4967 75.1611 46.9441 75.6084C47.3914 76.0484 47.6151 76.6314 47.6151 77.3574C47.6151 77.9294 47.4611 78.4758 47.1531 78.9964C46.8451 79.5171 46.4931 79.9718 46.0971 80.3604C45.7011 80.7418 45.1841 81.2038 44.5461 81.7464H47.7911V83.0224H42.3571V81.8784L42.9291 81.3944ZM49.6195 83.2094C49.3408 83.2094 49.1098 83.1251 48.9265 82.9564C48.7505 82.7804 48.6625 82.5641 48.6625 82.3074C48.6625 82.0508 48.7505 81.8381 48.9265 81.6694C49.1098 81.4934 49.3408 81.4054 49.6195 81.4054C49.8908 81.4054 50.1145 81.4934 50.2905 81.6694C50.4665 81.8381 50.5545 82.0508 50.5545 82.3074C50.5545 82.5641 50.4665 82.7804 50.2905 82.9564C50.1145 83.1251 49.8908 83.2094 49.6195 83.2094ZM51.6189 79.0184C51.6189 77.7498 51.8462 76.7561 52.3009 76.0374C52.7629 75.3188 53.5256 74.9594 54.5889 74.9594C55.6522 74.9594 56.4112 75.3188 56.8659 76.0374C57.3279 76.7561 57.5589 77.7498 57.5589 79.0184C57.5589 80.2944 57.3279 81.2954 56.8659 82.0214C56.4112 82.7474 55.6522 83.1104 54.5889 83.1104C53.5256 83.1104 52.7629 82.7474 52.3009 82.0214C51.8462 81.2954 51.6189 80.2944 51.6189 79.0184ZM56.0409 79.0184C56.0409 78.4758 56.0042 78.0211 55.9309 77.6544C55.8649 77.2804 55.7256 76.9761 55.5129 76.7414C55.3076 76.5068 54.9996 76.3894 54.5889 76.3894C54.1782 76.3894 53.8666 76.5068 53.6539 76.7414C53.4486 76.9761 53.3092 77.2804 53.2359 77.6544C53.1699 78.0211 53.1369 78.4758 53.1369 79.0184C53.1369 79.5758 53.1699 80.0451 53.2359 80.4264C53.3019 80.8004 53.4412 81.1048 53.6539 81.3394C53.8666 81.5668 54.1782 81.6804 54.5889 81.6804C54.9996 81.6804 55.3112 81.5668 55.5239 81.3394C55.7366 81.1048 55.8759 80.8004 55.9419 80.4264C56.0079 80.0451 56.0409 79.5758 56.0409 79.0184ZM58.7522 77.2254C58.7889 76.4921 59.0456 75.9274 59.5222 75.5314C60.0062 75.1281 60.6406 74.9264 61.4252 74.9264C61.9606 74.9264 62.4189 75.0218 62.8002 75.2124C63.1816 75.3958 63.4676 75.6488 63.6582 75.9714C63.8562 76.2868 63.9552 76.6461 63.9552 77.0494C63.9552 77.5114 63.8342 77.9038 63.5922 78.2264C63.3576 78.5418 63.0752 78.7544 62.7452 78.8644V78.9084C63.1706 79.0404 63.5006 79.2751 63.7352 79.6124C63.9772 79.9498 64.0982 80.3824 64.0982 80.9104C64.0982 81.3504 63.9956 81.7428 63.7902 82.0874C63.5922 82.4321 63.2952 82.7034 62.8992 82.9014C62.5106 83.0921 62.0412 83.1874 61.4912 83.1874C60.6626 83.1874 59.9879 82.9784 59.4672 82.5604C58.9466 82.1424 58.6716 81.5264 58.6422 80.7124H60.1382C60.1529 81.0718 60.2739 81.3614 60.5012 81.5814C60.7359 81.7941 61.0549 81.9004 61.4582 81.9004C61.8322 81.9004 62.1182 81.7978 62.3162 81.5924C62.5216 81.3798 62.6242 81.1084 62.6242 80.7784C62.6242 80.3384 62.4849 80.0231 62.2062 79.8324C61.9276 79.6418 61.4949 79.5464 60.9082 79.5464H60.5892V78.2814H60.9082C61.9496 78.2814 62.4702 77.9331 62.4702 77.2364C62.4702 76.9211 62.3749 76.6754 62.1842 76.4994C62.0009 76.3234 61.7332 76.2354 61.3812 76.2354C61.0366 76.2354 60.7689 76.3308 60.5782 76.5214C60.3949 76.7048 60.2886 76.9394 60.2592 77.2254H58.7522ZM65.1392 77.0824C65.1392 76.5251 65.3005 76.0888 65.6232 75.7734C65.9532 75.4581 66.3748 75.3004 66.8882 75.3004C67.4015 75.3004 67.8195 75.4581 68.1422 75.7734C68.4722 76.0888 68.6372 76.5251 68.6372 77.0824C68.6372 77.6471 68.4722 78.0871 68.1422 78.4024C67.8195 78.7178 67.4015 78.8754 66.8882 78.8754C66.3748 78.8754 65.9532 78.7178 65.6232 78.4024C65.3005 78.0871 65.1392 77.6471 65.1392 77.0824ZM72.2012 75.4324L67.8782 83.1324H66.3822L70.6942 75.4324H72.2012ZM66.8772 76.2244C66.4738 76.2244 66.2722 76.5104 66.2722 77.0824C66.2722 77.6618 66.4738 77.9514 66.8772 77.9514C67.0752 77.9514 67.2292 77.8818 67.3392 77.7424C67.4492 77.5958 67.5042 77.3758 67.5042 77.0824C67.5042 76.5104 67.2952 76.2244 66.8772 76.2244ZM69.9682 81.4714C69.9682 80.9068 70.1295 80.4704 70.4522 80.1624C70.7822 79.8471 71.2038 79.6894 71.7172 79.6894C72.2305 79.6894 72.6448 79.8471 72.9602 80.1624C73.2828 80.4704 73.4442 80.9068 73.4442 81.4714C73.4442 82.0361 73.2828 82.4761 72.9602 82.7914C72.6448 83.1068 72.2305 83.2644 71.7172 83.2644C71.1965 83.2644 70.7748 83.1068 70.4522 82.7914C70.1295 82.4761 69.9682 82.0361 69.9682 81.4714ZM71.7062 80.6134C71.2882 80.6134 71.0792 80.8994 71.0792 81.4714C71.0792 82.0508 71.2882 82.3404 71.7062 82.3404C72.1168 82.3404 72.3222 82.0508 72.3222 81.4714C72.3222 80.8994 72.1168 80.6134 71.7062 80.6134Z" fill="#FF4220"/>
<path d="M79.8759 82.2084L81.7459 77.1044H82.8129L80.4479 83.1324H79.2819L76.9169 77.1044H77.9949L79.8759 82.2084ZM85.9319 83.2314C85.4699 83.2314 85.0556 83.1544 84.6889 83.0004C84.3223 82.8391 84.0326 82.6191 83.8199 82.3404C83.6073 82.0544 83.4899 81.7281 83.4679 81.3614H84.5019C84.5313 81.6621 84.6706 81.9078 84.9199 82.0984C85.1766 82.2891 85.5103 82.3844 85.9209 82.3844C86.3023 82.3844 86.6029 82.3001 86.8229 82.1314C87.0429 81.9628 87.1529 81.7501 87.1529 81.4934C87.1529 81.2294 87.0356 81.0351 86.8009 80.9104C86.5663 80.7784 86.2033 80.6501 85.7119 80.5254C85.2646 80.4081 84.8979 80.2908 84.6119 80.1734C84.3333 80.0488 84.0913 79.8691 83.8859 79.6344C83.6879 79.3924 83.5889 79.0771 83.5889 78.6884C83.5889 78.3804 83.6806 78.0981 83.8639 77.8414C84.0473 77.5848 84.3076 77.3831 84.6449 77.2364C84.9823 77.0824 85.3673 77.0054 85.7999 77.0054C86.4673 77.0054 87.0063 77.1741 87.4169 77.5114C87.8276 77.8488 88.0476 78.3108 88.0769 78.8974H87.0759C87.0539 78.5821 86.9256 78.3291 86.6909 78.1384C86.4636 77.9478 86.1556 77.8524 85.7669 77.8524C85.4076 77.8524 85.1216 77.9294 84.9089 78.0834C84.6963 78.2374 84.5899 78.4391 84.5899 78.6884C84.5899 78.8864 84.6523 79.0514 84.7769 79.1834C84.9089 79.3081 85.0703 79.4108 85.2609 79.4914C85.4589 79.5648 85.7303 79.6491 86.0749 79.7444C86.5076 79.8618 86.8596 79.9791 87.1309 80.0964C87.4023 80.2064 87.6333 80.3751 87.8239 80.6024C88.0219 80.8298 88.1246 81.1268 88.1319 81.4934C88.1319 81.8234 88.0403 82.1204 87.8569 82.3844C87.6736 82.6484 87.4133 82.8574 87.0759 83.0114C86.7459 83.1581 86.3646 83.2314 85.9319 83.2314ZM93.4786 74.9924V83.1324H92.4776V74.9924H93.4786ZM94.8106 80.0964C94.8106 79.4804 94.9353 78.9414 95.1846 78.4794C95.434 78.0101 95.775 77.6471 96.2076 77.3904C96.6476 77.1338 97.1353 77.0054 97.6706 77.0054C98.1986 77.0054 98.657 77.1191 99.0456 77.3464C99.4343 77.5738 99.724 77.8598 99.9146 78.2044V77.1044H100.927V83.1324H99.9146V82.0104C99.7166 82.3624 99.4196 82.6558 99.0236 82.8904C98.635 83.1178 98.1803 83.2314 97.6596 83.2314C97.1243 83.2314 96.6403 83.0994 96.2076 82.8354C95.775 82.5714 95.434 82.2011 95.1846 81.7244C94.9353 81.2478 94.8106 80.7051 94.8106 80.0964ZM99.9146 80.1074C99.9146 79.6528 99.823 79.2568 99.6396 78.9194C99.4563 78.5821 99.207 78.3254 98.8916 78.1494C98.5836 77.9661 98.2426 77.8744 97.8686 77.8744C97.4946 77.8744 97.1536 77.9624 96.8456 78.1384C96.5376 78.3144 96.292 78.5711 96.1086 78.9084C95.9253 79.2458 95.8336 79.6418 95.8336 80.0964C95.8336 80.5584 95.9253 80.9618 96.1086 81.3064C96.292 81.6438 96.5376 81.9041 96.8456 82.0874C97.1536 82.2634 97.4946 82.3514 97.8686 82.3514C98.2426 82.3514 98.5836 82.2634 98.8916 82.0874C99.207 81.9041 99.4563 81.6438 99.6396 81.3064C99.823 80.9618 99.9146 80.5621 99.9146 80.1074ZM104.752 83.2314C104.29 83.2314 103.876 83.1544 103.509 83.0004C103.143 82.8391 102.853 82.6191 102.64 82.3404C102.428 82.0544 102.31 81.7281 102.288 81.3614H103.322C103.352 81.6621 103.491 81.9078 103.74 82.0984C103.997 82.2891 104.331 82.3844 104.741 82.3844C105.123 82.3844 105.423 82.3001 105.643 82.1314C105.863 81.9628 105.973 81.7501 105.973 81.4934C105.973 81.2294 105.856 81.0351 105.621 80.9104C105.387 80.7784 105.024 80.6501 104.532 80.5254C104.085 80.4081 103.718 80.2908 103.432 80.1734C103.154 80.0488 102.912 79.8691 102.706 79.6344C102.508 79.3924 102.409 79.0771 102.409 78.6884C102.409 78.3804 102.501 78.0981 102.684 77.8414C102.868 77.5848 103.128 77.3831 103.465 77.2364C103.803 77.0824 104.188 77.0054 104.62 77.0054C105.288 77.0054 105.827 77.1741 106.237 77.5114C106.648 77.8488 106.868 78.3108 106.897 78.8974H105.896C105.874 78.5821 105.746 78.3291 105.511 78.1384C105.284 77.9478 104.976 77.8524 104.587 77.8524C104.228 77.8524 103.942 77.9294 103.729 78.0834C103.517 78.2374 103.41 78.4391 103.41 78.6884C103.41 78.8864 103.473 79.0514 103.597 79.1834C103.729 79.3081 103.891 79.4108 104.081 79.4914C104.279 79.5648 104.551 79.6491 104.895 79.7444C105.328 79.8618 105.68 79.9791 105.951 80.0964C106.223 80.2064 106.454 80.3751 106.644 80.6024C106.842 80.8298 106.945 81.1268 106.952 81.4934C106.952 81.8234 106.861 82.1204 106.677 82.3844C106.494 82.6484 106.234 82.8574 105.896 83.0114C105.566 83.1581 105.185 83.2314 104.752 83.2314ZM109.586 77.9294V81.4824C109.586 81.7758 109.649 81.9848 109.773 82.1094C109.898 82.2268 110.114 82.2854 110.422 82.2854H111.159V83.1324H110.257C109.7 83.1324 109.282 83.0041 109.003 82.7474C108.725 82.4908 108.585 82.0691 108.585 81.4824V77.9294H107.804V77.1044H108.585V75.5864H109.586V77.1044H111.159V77.9294H109.586ZM115.118 77.1814C115.169 76.5068 115.429 75.9788 115.899 75.5974C116.368 75.2161 116.977 75.0254 117.725 75.0254C118.223 75.0254 118.652 75.1171 119.012 75.3004C119.378 75.4764 119.653 75.7184 119.837 76.0264C120.027 76.3344 120.123 76.6828 120.123 77.0714C120.123 77.5261 119.991 77.9184 119.727 78.2484C119.47 78.5784 119.133 78.7911 118.715 78.8864V78.9414C119.191 79.0588 119.569 79.2898 119.848 79.6344C120.126 79.9791 120.266 80.4301 120.266 80.9874C120.266 81.4054 120.17 81.7831 119.98 82.1204C119.789 82.4504 119.503 82.7108 119.122 82.9014C118.74 83.0921 118.282 83.1874 117.747 83.1874C116.969 83.1874 116.331 82.9858 115.833 82.5824C115.334 82.1718 115.055 81.5924 114.997 80.8444H115.965C116.016 81.2844 116.196 81.6438 116.504 81.9224C116.812 82.2011 117.222 82.3404 117.736 82.3404C118.249 82.3404 118.638 82.2084 118.902 81.9444C119.173 81.6731 119.309 81.3248 119.309 80.8994C119.309 80.3494 119.125 79.9534 118.759 79.7114C118.392 79.4694 117.838 79.3484 117.098 79.3484H116.845V78.5124H117.109C117.783 78.5051 118.293 78.3951 118.638 78.1824C118.982 77.9624 119.155 77.6251 119.155 77.1704C119.155 76.7818 119.026 76.4701 118.77 76.2354C118.52 76.0008 118.161 75.8834 117.692 75.8834C117.237 75.8834 116.87 76.0008 116.592 76.2354C116.313 76.4701 116.148 76.7854 116.097 77.1814H115.118ZM121.617 79.0734C121.617 77.8121 121.823 76.8294 122.233 76.1254C122.644 75.4141 123.363 75.0584 124.389 75.0584C125.409 75.0584 126.124 75.4141 126.534 76.1254C126.945 76.8294 127.15 77.8121 127.15 79.0734C127.15 80.3568 126.945 81.3541 126.534 82.0654C126.124 82.7768 125.409 83.1324 124.389 83.1324C123.363 83.1324 122.644 82.7768 122.233 82.0654C121.823 81.3541 121.617 80.3568 121.617 79.0734ZM126.16 79.0734C126.16 78.4354 126.116 77.8964 126.028 77.4564C125.948 77.0091 125.775 76.6498 125.511 76.3784C125.255 76.1071 124.881 75.9714 124.389 75.9714C123.891 75.9714 123.509 76.1071 123.245 76.3784C122.989 76.6498 122.816 77.0091 122.728 77.4564C122.648 77.8964 122.607 78.4354 122.607 79.0734C122.607 79.7334 122.648 80.2871 122.728 80.7344C122.816 81.1818 122.989 81.5411 123.245 81.8124C123.509 82.0838 123.891 82.2194 124.389 82.2194C124.881 82.2194 125.255 82.0838 125.511 81.8124C125.775 81.5411 125.948 81.1818 126.028 80.7344C126.116 80.2871 126.16 79.7334 126.16 79.0734ZM128.316 80.0964C128.316 79.4804 128.44 78.9414 128.69 78.4794C128.939 78.0101 129.28 77.6471 129.713 77.3904C130.153 77.1338 130.644 77.0054 131.187 77.0054C131.656 77.0054 132.092 77.1154 132.496 77.3354C132.899 77.5481 133.207 77.8304 133.42 78.1824V74.9924H134.432V83.1324H133.42V81.9994C133.222 82.3588 132.928 82.6558 132.54 82.8904C132.151 83.1178 131.696 83.2314 131.176 83.2314C130.64 83.2314 130.153 83.0994 129.713 82.8354C129.28 82.5714 128.939 82.2011 128.69 81.7244C128.44 81.2478 128.316 80.7051 128.316 80.0964ZM133.42 80.1074C133.42 79.6528 133.328 79.2568 133.145 78.9194C132.961 78.5821 132.712 78.3254 132.397 78.1494C132.089 77.9661 131.748 77.8744 131.374 77.8744C131 77.8744 130.659 77.9624 130.351 78.1384C130.043 78.3144 129.797 78.5711 129.614 78.9084C129.43 79.2458 129.339 79.6418 129.339 80.0964C129.339 80.5584 129.43 80.9618 129.614 81.3064C129.797 81.6438 130.043 81.9041 130.351 82.0874C130.659 82.2634 131 82.3514 131.374 82.3514C131.748 82.3514 132.089 82.2634 132.397 82.0874C132.712 81.9041 132.961 81.6438 133.145 81.3064C133.328 80.9618 133.42 80.5621 133.42 80.1074ZM135.749 80.0964C135.749 79.4804 135.874 78.9414 136.123 78.4794C136.372 78.0101 136.713 77.6471 137.146 77.3904C137.586 77.1338 138.074 77.0054 138.609 77.0054C139.137 77.0054 139.595 77.1191 139.984 77.3464C140.373 77.5738 140.662 77.8598 140.853 78.2044V77.1044H141.865V83.1324H140.853V82.0104C140.655 82.3624 140.358 82.6558 139.962 82.8904C139.573 83.1178 139.119 83.2314 138.598 83.2314C138.063 83.2314 137.579 83.0994 137.146 82.8354C136.713 82.5714 136.372 82.2011 136.123 81.7244C135.874 81.2478 135.749 80.7051 135.749 80.0964ZM140.853 80.1074C140.853 79.6528 140.761 79.2568 140.578 78.9194C140.395 78.5821 140.145 78.3254 139.83 78.1494C139.522 77.9661 139.181 77.8744 138.807 77.8744C138.433 77.8744 138.092 77.9624 137.784 78.1384C137.476 78.3144 137.23 78.5711 137.047 78.9084C136.864 79.2458 136.772 79.6418 136.772 80.0964C136.772 80.5584 136.864 80.9618 137.047 81.3064C137.23 81.6438 137.476 81.9041 137.784 82.0874C138.092 82.2634 138.433 82.3514 138.807 82.3514C139.181 82.3514 139.522 82.2634 139.83 82.0874C140.145 81.9041 140.395 81.6438 140.578 81.3064C140.761 80.9618 140.853 80.5621 140.853 80.1074ZM148.749 77.1044L145.119 85.9704H144.085L145.273 83.0664L142.842 77.1044H143.953L145.845 81.9884L147.715 77.1044H148.749ZM151.889 83.2314C151.427 83.2314 151.013 83.1544 150.646 83.0004C150.279 82.8391 149.99 82.6191 149.777 82.3404C149.564 82.0544 149.447 81.7281 149.425 81.3614H150.459C150.488 81.6621 150.628 81.9078 150.877 82.0984C151.134 82.2891 151.467 82.3844 151.878 82.3844C152.259 82.3844 152.56 82.3001 152.78 82.1314C153 81.9628 153.11 81.7501 153.11 81.4934C153.11 81.2294 152.993 81.0351 152.758 80.9104C152.523 80.7784 152.16 80.6501 151.669 80.5254C151.222 80.4081 150.855 80.2908 150.569 80.1734C150.29 80.0488 150.048 79.8691 149.843 79.6344C149.645 79.3924 149.546 79.0771 149.546 78.6884C149.546 78.3804 149.638 78.0981 149.821 77.8414C150.004 77.5848 150.265 77.3831 150.602 77.2364C150.939 77.0824 151.324 77.0054 151.757 77.0054C152.424 77.0054 152.963 77.1741 153.374 77.5114C153.785 77.8488 154.005 78.3108 154.034 78.8974H153.033C153.011 78.5821 152.883 78.3291 152.648 78.1384C152.421 77.9478 152.113 77.8524 151.724 77.8524C151.365 77.8524 151.079 77.9294 150.866 78.0834C150.653 78.2374 150.547 78.4391 150.547 78.6884C150.547 78.8864 150.609 79.0514 150.734 79.1834C150.866 79.3081 151.027 79.4108 151.218 79.4914C151.416 79.5648 151.687 79.6491 152.032 79.7444C152.465 79.8618 152.817 79.9791 153.088 80.0964C153.359 80.2064 153.59 80.3751 153.781 80.6024C153.979 80.8298 154.082 81.1268 154.089 81.4934C154.089 81.8234 153.997 82.1204 153.814 82.3844C153.631 82.6484 153.37 82.8574 153.033 83.0114C152.703 83.1581 152.322 83.2314 151.889 83.2314Z" fill="white"/>
<path d="M18.0185 81.7785C18.0369 82.0541 18.2752 82.2625 18.5507 82.2442L23.0407 81.9448C23.3162 81.9265 23.5247 81.6882 23.5064 81.4127C23.488 81.1371 23.2497 80.9287 22.9742 80.947L18.9831 81.2131L18.717 77.222C18.6986 76.9465 18.4604 76.738 18.1848 76.7563C17.9093 76.7747 17.7008 77.013 17.7192 77.2885L18.0185 81.7785ZM24.332 74.3408L18.1411 81.416L18.8937 82.0745L25.0845 74.9993L24.332 74.3408Z" fill="#FF4220"/>
<defs>
<linearGradient id="paint0_linear_529_4757" x1="209.437" y1="25.0001" x2="209.437" y2="70.1843" gradientUnits="userSpaceOnUse">
<stop stop-color="#6FFFE5"/>
<stop offset="1" stop-color="#D9D9D9" stop-opacity="0"/>
<stop offset="1" stop-color="#F4F3F3" stop-opacity="0.25"/>
</linearGradient>
</defs>
</svg>
