<svg width="631" height="460" viewBox="0 0 631 460" fill="none" xmlns="http://www.w3.org/2000/svg">
<g filter="url(#filter0_d_407_1654)">
<path d="M75.7251 79.9258C75.7251 71.0892 82.8885 63.9258 91.7251 63.9258H543C551.836 63.9258 559 71.0892 559 79.9258V356.013C559 364.85 551.836 372.013 543 372.013H91.7251C82.8885 372.013 75.7251 364.85 75.7251 356.013V79.9258Z" fill="white"/>
</g>
<mask id="mask0_407_1654" style="mask-type:alpha" maskUnits="userSpaceOnUse" x="90" y="79" width="454" height="278">
<path d="M90.8271 95.0278C90.8271 86.1913 97.9906 79.0278 106.827 79.0278H527.897C536.734 79.0278 543.897 86.1913 543.897 95.0278V340.911C543.897 349.747 536.734 356.911 527.897 356.911H106.827C97.9906 356.911 90.8271 349.747 90.8271 340.911V95.0278Z" fill="#959595"/>
</mask>
<g mask="url(#mask0_407_1654)">
<path d="M104.574 110.028L101.586 104.898H99.6055V110.028H97.9675V97.4818H102.018C102.966 97.4818 103.764 97.6438 104.412 97.9678C105.072 98.2918 105.564 98.7298 105.888 99.2818C106.212 99.8338 106.374 100.464 106.374 101.172C106.374 102.036 106.122 102.798 105.618 103.458C105.126 104.118 104.382 104.556 103.386 104.772L106.536 110.028H104.574ZM99.6055 103.584H102.018C102.906 103.584 103.572 103.368 104.016 102.936C104.46 102.492 104.682 101.904 104.682 101.172C104.682 100.428 104.46 99.8518 104.016 99.4438C103.584 99.0358 102.918 98.8318 102.018 98.8318H99.6055V103.584ZM117.919 104.718C117.919 105.03 117.901 105.36 117.865 105.708H109.981C110.041 106.68 110.371 107.442 110.971 107.994C111.583 108.534 112.321 108.804 113.185 108.804C113.893 108.804 114.481 108.642 114.949 108.318C115.429 107.982 115.765 107.538 115.957 106.986H117.721C117.457 107.934 116.929 108.708 116.137 109.308C115.345 109.896 114.361 110.19 113.185 110.19C112.249 110.19 111.409 109.98 110.665 109.56C109.933 109.14 109.357 108.546 108.937 107.778C108.517 106.998 108.307 106.098 108.307 105.078C108.307 104.058 108.511 103.164 108.919 102.396C109.327 101.628 109.897 101.04 110.629 100.632C111.373 100.212 112.225 100.002 113.185 100.002C114.121 100.002 114.949 100.206 115.669 100.614C116.389 101.022 116.941 101.586 117.325 102.306C117.721 103.014 117.919 103.818 117.919 104.718ZM116.227 104.376C116.227 103.752 116.089 103.218 115.813 102.774C115.537 102.318 115.159 101.976 114.679 101.748C114.211 101.508 113.689 101.388 113.113 101.388C112.285 101.388 111.577 101.652 110.989 102.18C110.413 102.708 110.083 103.44 109.999 104.376H116.227ZM123.753 108.516L126.813 100.164H128.559L124.689 110.028H122.781L118.911 100.164H120.675L123.753 108.516ZM139.171 104.718C139.171 105.03 139.153 105.36 139.117 105.708H131.233C131.293 106.68 131.623 107.442 132.223 107.994C132.835 108.534 133.573 108.804 134.437 108.804C135.145 108.804 135.733 108.642 136.201 108.318C136.681 107.982 137.017 107.538 137.209 106.986H138.973C138.709 107.934 138.181 108.708 137.389 109.308C136.597 109.896 135.613 110.19 134.437 110.19C133.501 110.19 132.661 109.98 131.917 109.56C131.185 109.14 130.609 108.546 130.189 107.778C129.769 106.998 129.559 106.098 129.559 105.078C129.559 104.058 129.763 103.164 130.171 102.396C130.579 101.628 131.149 101.04 131.881 100.632C132.625 100.212 133.477 100.002 134.437 100.002C135.373 100.002 136.201 100.206 136.921 100.614C137.641 101.022 138.193 101.586 138.577 102.306C138.973 103.014 139.171 103.818 139.171 104.718ZM137.479 104.376C137.479 103.752 137.341 103.218 137.065 102.774C136.789 102.318 136.411 101.976 135.931 101.748C135.463 101.508 134.941 101.388 134.365 101.388C133.537 101.388 132.829 101.652 132.241 102.18C131.665 102.708 131.335 103.44 131.251 104.376H137.479ZM146.139 99.9838C147.339 99.9838 148.311 100.35 149.055 101.082C149.799 101.802 150.171 102.846 150.171 104.214V110.028H148.551V104.448C148.551 103.464 148.305 102.714 147.813 102.198C147.321 101.67 146.649 101.406 145.797 101.406C144.933 101.406 144.243 101.676 143.727 102.216C143.223 102.756 142.971 103.542 142.971 104.574V110.028H141.333V100.164H142.971V101.568C143.295 101.064 143.733 100.674 144.285 100.398C144.849 100.122 145.467 99.9838 146.139 99.9838ZM161.594 100.164V110.028H159.956V108.57C159.644 109.074 159.206 109.47 158.642 109.758C158.09 110.034 157.478 110.172 156.806 110.172C156.038 110.172 155.348 110.016 154.736 109.704C154.124 109.38 153.638 108.9 153.278 108.264C152.93 107.628 152.756 106.854 152.756 105.942V100.164H154.376V105.726C154.376 106.698 154.622 107.448 155.114 107.976C155.606 108.492 156.278 108.75 157.13 108.75C158.006 108.75 158.696 108.48 159.2 107.94C159.704 107.4 159.956 106.614 159.956 105.582V100.164H161.594ZM173.36 104.718C173.36 105.03 173.342 105.36 173.306 105.708H165.422C165.482 106.68 165.812 107.442 166.412 107.994C167.024 108.534 167.762 108.804 168.626 108.804C169.334 108.804 169.922 108.642 170.39 108.318C170.87 107.982 171.206 107.538 171.398 106.986H173.162C172.898 107.934 172.37 108.708 171.578 109.308C170.786 109.896 169.802 110.19 168.626 110.19C167.69 110.19 166.85 109.98 166.106 109.56C165.374 109.14 164.798 108.546 164.378 107.778C163.958 106.998 163.748 106.098 163.748 105.078C163.748 104.058 163.952 103.164 164.36 102.396C164.768 101.628 165.338 101.04 166.07 100.632C166.814 100.212 167.666 100.002 168.626 100.002C169.562 100.002 170.39 100.206 171.11 100.614C171.83 101.022 172.382 101.586 172.766 102.306C173.162 103.014 173.36 103.818 173.36 104.718ZM171.668 104.376C171.668 103.752 171.53 103.218 171.254 102.774C170.978 102.318 170.6 101.976 170.12 101.748C169.652 101.508 169.13 101.388 168.554 101.388C167.726 101.388 167.018 101.652 166.43 102.18C165.854 102.708 165.524 103.44 165.44 104.376H171.668ZM184.299 110.154C183.471 110.154 182.727 110.01 182.067 109.722C181.419 109.422 180.909 109.014 180.537 108.498C180.165 107.97 179.973 107.364 179.961 106.68H181.707C181.767 107.268 182.007 107.766 182.427 108.174C182.859 108.57 183.483 108.768 184.299 108.768C185.079 108.768 185.691 108.576 186.135 108.192C186.591 107.796 186.819 107.292 186.819 106.68C186.819 106.2 186.687 105.81 186.423 105.51C186.159 105.21 185.829 104.982 185.433 104.826C185.037 104.67 184.503 104.502 183.831 104.322C183.003 104.106 182.337 103.89 181.833 103.674C181.341 103.458 180.915 103.122 180.555 102.666C180.207 102.198 180.033 101.574 180.033 100.794C180.033 100.11 180.207 99.5038 180.555 98.9758C180.903 98.4478 181.389 98.0398 182.013 97.7518C182.649 97.4638 183.375 97.3198 184.191 97.3198C185.367 97.3198 186.327 97.6138 187.071 98.2018C187.827 98.7898 188.253 99.5698 188.349 100.542H186.549C186.489 100.062 186.237 99.6418 185.793 99.2818C185.349 98.9098 184.761 98.7238 184.029 98.7238C183.345 98.7238 182.787 98.9038 182.355 99.2638C181.923 99.6118 181.707 100.104 181.707 100.74C181.707 101.196 181.833 101.568 182.085 101.856C182.349 102.144 182.667 102.366 183.039 102.522C183.423 102.666 183.957 102.834 184.641 103.026C185.469 103.254 186.135 103.482 186.639 103.71C187.143 103.926 187.575 104.268 187.935 104.736C188.295 105.192 188.475 105.816 188.475 106.608C188.475 107.22 188.313 107.796 187.989 108.336C187.665 108.876 187.185 109.314 186.549 109.65C185.913 109.986 185.163 110.154 184.299 110.154ZM192.884 101.514V107.328C192.884 107.808 192.986 108.15 193.19 108.354C193.394 108.546 193.748 108.642 194.252 108.642H195.458V110.028H193.982C193.07 110.028 192.386 109.818 191.93 109.398C191.474 108.978 191.246 108.288 191.246 107.328V101.514H189.968V100.164H191.246V97.6798H192.884V100.164H195.458V101.514H192.884ZM196.83 105.06C196.83 104.052 197.034 103.17 197.442 102.414C197.85 101.646 198.408 101.052 199.116 100.632C199.836 100.212 200.634 100.002 201.51 100.002C202.374 100.002 203.124 100.188 203.76 100.56C204.396 100.932 204.87 101.4 205.182 101.964V100.164H206.838V110.028H205.182V108.192C204.858 108.768 204.372 109.248 203.724 109.632C203.088 110.004 202.344 110.19 201.492 110.19C200.616 110.19 199.824 109.974 199.116 109.542C198.408 109.11 197.85 108.504 197.442 107.724C197.034 106.944 196.83 106.056 196.83 105.06ZM205.182 105.078C205.182 104.334 205.032 103.686 204.732 103.134C204.432 102.582 204.024 102.162 203.508 101.874C203.004 101.574 202.446 101.424 201.834 101.424C201.222 101.424 200.664 101.568 200.16 101.856C199.656 102.144 199.254 102.564 198.954 103.116C198.654 103.668 198.504 104.316 198.504 105.06C198.504 105.816 198.654 106.476 198.954 107.04C199.254 107.592 199.656 108.018 200.16 108.318C200.664 108.606 201.222 108.75 201.834 108.75C202.446 108.75 203.004 108.606 203.508 108.318C204.024 108.018 204.432 107.592 204.732 107.04C205.032 106.476 205.182 105.822 205.182 105.078ZM211.604 101.514V107.328C211.604 107.808 211.706 108.15 211.91 108.354C212.114 108.546 212.468 108.642 212.972 108.642H214.178V110.028H212.702C211.79 110.028 211.106 109.818 210.65 109.398C210.194 108.978 209.966 108.288 209.966 107.328V101.514H208.688V100.164H209.966V97.6798H211.604V100.164H214.178V101.514H211.604ZM217.009 98.5618C216.697 98.5618 216.433 98.4538 216.217 98.2378C216.001 98.0218 215.893 97.7578 215.893 97.4458C215.893 97.1338 216.001 96.8698 216.217 96.6538C216.433 96.4378 216.697 96.3298 217.009 96.3298C217.309 96.3298 217.561 96.4378 217.765 96.6538C217.981 96.8698 218.089 97.1338 218.089 97.4458C218.089 97.7578 217.981 98.0218 217.765 98.2378C217.561 98.4538 217.309 98.5618 217.009 98.5618ZM217.801 100.164V110.028H216.163V100.164H217.801ZM224.085 110.19C223.329 110.19 222.651 110.064 222.051 109.812C221.451 109.548 220.977 109.188 220.629 108.732C220.281 108.264 220.089 107.73 220.053 107.13H221.745C221.793 107.622 222.021 108.024 222.429 108.336C222.849 108.648 223.395 108.804 224.067 108.804C224.691 108.804 225.183 108.666 225.543 108.39C225.903 108.114 226.083 107.766 226.083 107.346C226.083 106.914 225.891 106.596 225.507 106.392C225.123 106.176 224.529 105.966 223.725 105.762C222.993 105.57 222.393 105.378 221.925 105.186C221.469 104.982 221.073 104.688 220.737 104.304C220.413 103.908 220.251 103.392 220.251 102.756C220.251 102.252 220.401 101.79 220.701 101.37C221.001 100.95 221.427 100.62 221.979 100.38C222.531 100.128 223.161 100.002 223.869 100.002C224.961 100.002 225.843 100.278 226.515 100.83C227.187 101.382 227.547 102.138 227.595 103.098H225.957C225.921 102.582 225.711 102.168 225.327 101.856C224.955 101.544 224.451 101.388 223.815 101.388C223.227 101.388 222.759 101.514 222.411 101.766C222.063 102.018 221.889 102.348 221.889 102.756C221.889 103.08 221.991 103.35 222.195 103.566C222.411 103.77 222.675 103.938 222.987 104.07C223.311 104.19 223.755 104.328 224.319 104.484C225.027 104.676 225.603 104.868 226.047 105.06C226.491 105.24 226.869 105.516 227.181 105.888C227.505 106.26 227.673 106.746 227.685 107.346C227.685 107.886 227.535 108.372 227.235 108.804C226.935 109.236 226.509 109.578 225.957 109.83C225.417 110.07 224.793 110.19 224.085 110.19ZM231.995 101.514V107.328C231.995 107.808 232.097 108.15 232.301 108.354C232.505 108.546 232.859 108.642 233.363 108.642H234.569V110.028H233.093C232.181 110.028 231.497 109.818 231.041 109.398C230.585 108.978 230.357 108.288 230.357 107.328V101.514H229.079V100.164H230.357V97.6798H231.995V100.164H234.569V101.514H231.995ZM237.399 98.5618C237.087 98.5618 236.823 98.4538 236.607 98.2378C236.391 98.0218 236.283 97.7578 236.283 97.4458C236.283 97.1338 236.391 96.8698 236.607 96.6538C236.823 96.4378 237.087 96.3298 237.399 96.3298C237.699 96.3298 237.951 96.4378 238.155 96.6538C238.371 96.8698 238.479 97.1338 238.479 97.4458C238.479 97.7578 238.371 98.0218 238.155 98.2378C237.951 98.4538 237.699 98.5618 237.399 98.5618ZM238.191 100.164V110.028H236.553V100.164H238.191ZM240.371 105.078C240.371 104.058 240.575 103.17 240.983 102.414C241.391 101.646 241.955 101.052 242.675 100.632C243.407 100.212 244.241 100.002 245.177 100.002C246.389 100.002 247.385 100.296 248.165 100.884C248.957 101.472 249.479 102.288 249.731 103.332H247.967C247.799 102.732 247.469 102.258 246.977 101.91C246.497 101.562 245.897 101.388 245.177 101.388C244.241 101.388 243.485 101.712 242.909 102.36C242.333 102.996 242.045 103.902 242.045 105.078C242.045 106.266 242.333 107.184 242.909 107.832C243.485 108.48 244.241 108.804 245.177 108.804C245.897 108.804 246.497 108.636 246.977 108.3C247.457 107.964 247.787 107.484 247.967 106.86H249.731C249.467 107.868 248.939 108.678 248.147 109.29C247.355 109.89 246.365 110.19 245.177 110.19C244.241 110.19 243.407 109.98 242.675 109.56C241.955 109.14 241.391 108.546 240.983 107.778C240.575 107.01 240.371 106.11 240.371 105.078ZM255.409 110.19C254.653 110.19 253.975 110.064 253.375 109.812C252.775 109.548 252.301 109.188 251.953 108.732C251.605 108.264 251.413 107.73 251.377 107.13H253.069C253.117 107.622 253.345 108.024 253.753 108.336C254.173 108.648 254.719 108.804 255.391 108.804C256.015 108.804 256.507 108.666 256.867 108.39C257.227 108.114 257.407 107.766 257.407 107.346C257.407 106.914 257.215 106.596 256.831 106.392C256.447 106.176 255.853 105.966 255.049 105.762C254.317 105.57 253.717 105.378 253.249 105.186C252.793 104.982 252.397 104.688 252.061 104.304C251.737 103.908 251.575 103.392 251.575 102.756C251.575 102.252 251.725 101.79 252.025 101.37C252.325 100.95 252.751 100.62 253.303 100.38C253.855 100.128 254.485 100.002 255.193 100.002C256.285 100.002 257.167 100.278 257.839 100.83C258.511 101.382 258.871 102.138 258.919 103.098H257.281C257.245 102.582 257.035 102.168 256.651 101.856C256.279 101.544 255.775 101.388 255.139 101.388C254.551 101.388 254.083 101.514 253.735 101.766C253.387 102.018 253.213 102.348 253.213 102.756C253.213 103.08 253.315 103.35 253.519 103.566C253.735 103.77 253.999 103.938 254.311 104.07C254.635 104.19 255.079 104.328 255.643 104.484C256.351 104.676 256.927 104.868 257.371 105.06C257.815 105.24 258.193 105.516 258.505 105.888C258.829 106.26 258.997 106.746 259.009 107.346C259.009 107.886 258.859 108.372 258.559 108.804C258.259 109.236 257.833 109.578 257.281 109.83C256.741 110.07 256.117 110.19 255.409 110.19Z" fill="black"/>
<path d="M111.059 140.893C111.059 141.826 110.825 142.703 110.359 143.525C109.911 144.346 109.239 145.037 108.343 145.597C107.465 146.157 106.42 146.493 105.207 146.605V148.873H103.387V146.605C101.632 146.437 100.213 145.886 99.1307 144.953C98.048 144.019 97.5067 142.787 97.5067 141.257H100.923C100.979 141.985 101.212 142.591 101.623 143.077C102.033 143.543 102.621 143.842 103.387 143.973V137.813C102.136 137.495 101.119 137.178 100.335 136.861C99.5507 136.525 98.8787 136.002 98.3187 135.293C97.7773 134.583 97.5067 133.613 97.5067 132.381C97.5067 130.831 98.048 129.553 99.1307 128.545C100.213 127.518 101.632 126.921 103.387 126.753V124.485H105.207V126.753C106.849 126.902 108.165 127.425 109.155 128.321C110.163 129.198 110.732 130.411 110.863 131.961H107.447C107.391 131.382 107.167 130.869 106.775 130.421C106.383 129.954 105.86 129.637 105.207 129.469V135.517C106.457 135.815 107.475 136.133 108.259 136.469C109.043 136.786 109.705 137.299 110.247 138.009C110.788 138.699 111.059 139.661 111.059 140.893ZM100.755 132.213C100.755 132.978 100.979 133.575 101.427 134.005C101.893 134.434 102.547 134.779 103.387 135.041V129.385C102.584 129.478 101.94 129.767 101.455 130.253C100.988 130.738 100.755 131.391 100.755 132.213ZM105.207 143.973C106.028 143.842 106.672 143.515 107.139 142.993C107.605 142.451 107.839 141.807 107.839 141.061C107.839 140.314 107.605 139.735 107.139 139.325C106.691 138.895 106.047 138.55 105.207 138.289V143.973ZM117.482 142.097C119.274 140.547 120.683 139.278 121.71 138.289C122.755 137.281 123.623 136.235 124.314 135.153C125.004 134.07 125.35 132.987 125.35 131.905C125.35 130.785 125.079 129.907 124.538 129.273C124.015 128.638 123.184 128.321 122.046 128.321C120.944 128.321 120.086 128.675 119.47 129.385C118.872 130.075 118.555 131.009 118.518 132.185H115.438C115.494 130.057 116.128 128.433 117.342 127.313C118.574 126.174 120.132 125.605 122.018 125.605C124.052 125.605 125.639 126.165 126.778 127.285C127.935 128.405 128.514 129.898 128.514 131.765C128.514 133.109 128.168 134.406 127.478 135.657C126.806 136.889 125.994 137.999 125.042 138.989C124.108 139.959 122.914 141.089 121.458 142.377L120.198 143.497H129.074V146.157H115.466V143.833L117.482 142.097ZM145.038 128.769H135.658V134.341C136.05 133.818 136.628 133.379 137.394 133.025C138.178 132.67 139.008 132.493 139.886 132.493C141.454 132.493 142.723 132.829 143.694 133.501C144.683 134.173 145.383 135.022 145.794 136.049C146.223 137.075 146.438 138.158 146.438 139.297C146.438 140.678 146.167 141.91 145.626 142.993C145.103 144.057 144.31 144.897 143.246 145.513C142.2 146.129 140.912 146.437 139.382 146.437C137.347 146.437 135.714 145.933 134.482 144.925C133.25 143.917 132.512 142.582 132.27 140.921H135.378C135.583 141.798 136.04 142.498 136.75 143.021C137.459 143.525 138.346 143.777 139.41 143.777C140.735 143.777 141.724 143.375 142.378 142.573C143.05 141.77 143.386 140.706 143.386 139.381C143.386 138.037 143.05 137.01 142.378 136.301C141.706 135.573 140.716 135.209 139.41 135.209C138.495 135.209 137.72 135.442 137.086 135.909C136.47 136.357 136.022 136.973 135.742 137.757H132.718V125.969H145.038V128.769ZM153.681 142.601L150.293 150.329H148.221L150.209 142.601H153.681ZM155.994 131.065C156.106 129.329 156.768 127.975 157.982 127.005C159.214 126.034 160.782 125.549 162.686 125.549C163.992 125.549 165.122 125.782 166.074 126.249C167.026 126.715 167.744 127.35 168.23 128.153C168.715 128.955 168.958 129.861 168.958 130.869C168.958 132.026 168.65 133.015 168.034 133.837C167.418 134.658 166.68 135.209 165.822 135.489V135.601C166.923 135.937 167.782 136.553 168.398 137.449C169.014 138.326 169.322 139.455 169.322 140.837C169.322 141.938 169.07 142.918 168.566 143.777C168.062 144.635 167.315 145.317 166.326 145.821C165.336 146.306 164.151 146.549 162.77 146.549C160.754 146.549 159.092 146.035 157.786 145.009C156.498 143.963 155.807 142.47 155.714 140.529H158.794C158.868 141.518 159.251 142.33 159.942 142.965C160.632 143.581 161.566 143.889 162.742 143.889C163.88 143.889 164.758 143.581 165.374 142.965C165.99 142.33 166.298 141.518 166.298 140.529C166.298 139.222 165.878 138.298 165.038 137.757C164.216 137.197 162.947 136.917 161.23 136.917H160.502V134.285H161.258C162.77 134.266 163.918 134.014 164.702 133.529C165.504 133.043 165.906 132.278 165.906 131.233C165.906 130.337 165.616 129.627 165.038 129.105C164.459 128.563 163.638 128.293 162.574 128.293C161.528 128.293 160.716 128.563 160.138 129.105C159.559 129.627 159.214 130.281 159.102 131.065H155.994ZM176.651 140.893C176.837 141.826 177.239 142.535 177.855 143.021C178.471 143.506 179.301 143.749 180.347 143.749C181.672 143.749 182.643 143.226 183.259 142.181C183.875 141.135 184.183 139.353 184.183 136.833C183.735 137.467 183.1 137.962 182.279 138.317C181.476 138.653 180.599 138.821 179.647 138.821C178.433 138.821 177.332 138.578 176.343 138.093C175.353 137.589 174.569 136.851 173.991 135.881C173.431 134.891 173.151 133.697 173.151 132.297C173.151 130.243 173.748 128.61 174.943 127.397C176.156 126.165 177.817 125.549 179.927 125.549C182.465 125.549 184.267 126.398 185.331 128.097C186.413 129.777 186.955 132.362 186.955 135.853C186.955 138.261 186.749 140.23 186.339 141.761C185.947 143.291 185.256 144.449 184.267 145.233C183.277 146.017 181.905 146.409 180.151 146.409C178.153 146.409 176.613 145.886 175.531 144.841C174.448 143.795 173.841 142.479 173.711 140.893H176.651ZM180.207 136.133C181.327 136.133 182.204 135.787 182.839 135.097C183.492 134.387 183.819 133.454 183.819 132.297C183.819 131.009 183.473 130.01 182.783 129.301C182.111 128.573 181.187 128.209 180.011 128.209C178.835 128.209 177.901 128.582 177.211 129.329C176.539 130.057 176.203 131.018 176.203 132.213C176.203 133.351 176.529 134.294 177.183 135.041C177.855 135.769 178.863 136.133 180.207 136.133ZM192.212 142.097C194.004 140.547 195.413 139.278 196.44 138.289C197.485 137.281 198.353 136.235 199.044 135.153C199.735 134.07 200.08 132.987 200.08 131.905C200.08 130.785 199.809 129.907 199.268 129.273C198.745 128.638 197.915 128.321 196.776 128.321C195.675 128.321 194.816 128.675 194.2 129.385C193.603 130.075 193.285 131.009 193.248 132.185H190.168C190.224 130.057 190.859 128.433 192.072 127.313C193.304 126.174 194.863 125.605 196.748 125.605C198.783 125.605 200.369 126.165 201.508 127.285C202.665 128.405 203.244 129.898 203.244 131.765C203.244 133.109 202.899 134.406 202.208 135.657C201.536 136.889 200.724 137.999 199.772 138.989C198.839 139.959 197.644 141.089 196.188 142.377L194.928 143.497H203.804V146.157H190.196V143.833L192.212 142.097ZM210.528 142.601L207.14 150.329H205.068L207.056 142.601H210.528ZM212.505 142.181V139.773L221.913 126.277H225.777V139.409H228.381V142.181H225.777V146.437H222.641V142.181H212.505ZM222.781 129.525L216.173 139.409H222.781V129.525ZM244.186 128.769H234.806V134.341C235.198 133.818 235.777 133.379 236.542 133.025C237.326 132.67 238.157 132.493 239.034 132.493C240.602 132.493 241.872 132.829 242.842 133.501C243.832 134.173 244.532 135.022 244.942 136.049C245.372 137.075 245.586 138.158 245.586 139.297C245.586 140.678 245.316 141.91 244.774 142.993C244.252 144.057 243.458 144.897 242.394 145.513C241.349 146.129 240.061 146.437 238.53 146.437C236.496 146.437 234.862 145.933 233.63 144.925C232.398 143.917 231.661 142.582 231.418 140.921H234.526C234.732 141.798 235.189 142.498 235.898 143.021C236.608 143.525 237.494 143.777 238.558 143.777C239.884 143.777 240.873 143.375 241.526 142.573C242.198 141.77 242.534 140.706 242.534 139.381C242.534 138.037 242.198 137.01 241.526 136.301C240.854 135.573 239.865 135.209 238.558 135.209C237.644 135.209 236.869 135.442 236.234 135.909C235.618 136.357 235.17 136.973 234.89 137.757H231.866V125.969H244.186V128.769ZM248.909 135.965C248.909 132.735 249.45 130.215 250.533 128.405C251.634 126.575 253.52 125.661 256.189 125.661C258.858 125.661 260.734 126.575 261.817 128.405C262.918 130.215 263.469 132.735 263.469 135.965C263.469 139.231 262.918 141.789 261.817 143.637C260.734 145.466 258.858 146.381 256.189 146.381C253.52 146.381 251.634 145.466 250.533 143.637C249.45 141.789 248.909 139.231 248.909 135.965ZM260.333 135.965C260.333 134.453 260.23 133.174 260.025 132.129C259.838 131.083 259.446 130.234 258.849 129.581C258.252 128.909 257.365 128.573 256.189 128.573C255.013 128.573 254.126 128.909 253.529 129.581C252.932 130.234 252.53 131.083 252.325 132.129C252.138 133.174 252.045 134.453 252.045 135.965C252.045 137.533 252.138 138.849 252.325 139.913C252.512 140.977 252.904 141.835 253.501 142.489C254.117 143.142 255.013 143.469 256.189 143.469C257.365 143.469 258.252 143.142 258.849 142.489C259.465 141.835 259.866 140.977 260.053 139.913C260.24 138.849 260.333 137.533 260.333 135.965Z" fill="#2E2E2E"/>
<path d="M105.598 339.933V338.854H108.042V348.253H106.846V339.933H105.598ZM112.791 348.37C112.245 348.37 111.755 348.279 111.322 348.097C110.889 347.906 110.546 347.646 110.295 347.317C110.044 346.979 109.905 346.593 109.879 346.16H111.101C111.136 346.515 111.3 346.806 111.595 347.031C111.898 347.256 112.293 347.369 112.778 347.369C113.229 347.369 113.584 347.269 113.844 347.07C114.104 346.871 114.234 346.619 114.234 346.316C114.234 346.004 114.095 345.774 113.818 345.627C113.541 345.471 113.112 345.319 112.531 345.172C112.002 345.033 111.569 344.895 111.231 344.756C110.902 344.609 110.616 344.396 110.373 344.119C110.139 343.833 110.022 343.46 110.022 343.001C110.022 342.637 110.13 342.303 110.347 342C110.564 341.697 110.871 341.458 111.27 341.285C111.669 341.103 112.124 341.012 112.635 341.012C113.424 341.012 114.061 341.211 114.546 341.61C115.031 342.009 115.291 342.555 115.326 343.248H114.143C114.117 342.875 113.965 342.576 113.688 342.351C113.419 342.126 113.055 342.013 112.596 342.013C112.171 342.013 111.833 342.104 111.582 342.286C111.331 342.468 111.205 342.706 111.205 343.001C111.205 343.235 111.279 343.43 111.426 343.586C111.582 343.733 111.773 343.855 111.998 343.95C112.232 344.037 112.553 344.136 112.96 344.249C113.471 344.388 113.887 344.526 114.208 344.665C114.529 344.795 114.802 344.994 115.027 345.263C115.261 345.532 115.382 345.883 115.391 346.316C115.391 346.706 115.283 347.057 115.066 347.369C114.849 347.681 114.542 347.928 114.143 348.11C113.753 348.283 113.302 348.37 112.791 348.37ZM118.504 342.104V346.303C118.504 346.65 118.578 346.897 118.725 347.044C118.872 347.183 119.128 347.252 119.492 347.252H120.363V348.253H119.297C118.638 348.253 118.144 348.101 117.815 347.798C117.486 347.495 117.321 346.996 117.321 346.303V342.104H116.398V341.129H117.321V339.335H118.504V341.129H120.363V342.104H118.504ZM136.65 339.192L134.024 348.253H132.698L130.592 340.96L128.408 348.253L127.095 348.266L124.56 339.192H125.821L127.797 346.875L129.981 339.192H131.307L133.387 346.849L135.376 339.192H136.65ZM144.445 344.418C144.445 344.643 144.432 344.882 144.406 345.133H138.712C138.755 345.835 138.994 346.385 139.427 346.784C139.869 347.174 140.402 347.369 141.026 347.369C141.537 347.369 141.962 347.252 142.3 347.018C142.647 346.775 142.889 346.455 143.028 346.056H144.302C144.111 346.741 143.73 347.3 143.158 347.733C142.586 348.158 141.875 348.37 141.026 348.37C140.35 348.37 139.743 348.218 139.206 347.915C138.677 347.612 138.261 347.183 137.958 346.628C137.655 346.065 137.503 345.415 137.503 344.678C137.503 343.941 137.65 343.296 137.945 342.741C138.24 342.186 138.651 341.762 139.18 341.467C139.717 341.164 140.333 341.012 141.026 341.012C141.702 341.012 142.3 341.159 142.82 341.454C143.34 341.749 143.739 342.156 144.016 342.676C144.302 343.187 144.445 343.768 144.445 344.418ZM143.223 344.171C143.223 343.72 143.123 343.335 142.924 343.014C142.725 342.685 142.452 342.438 142.105 342.273C141.767 342.1 141.39 342.013 140.974 342.013C140.376 342.013 139.865 342.204 139.44 342.585C139.024 342.966 138.786 343.495 138.725 344.171H143.223ZM152.506 344.418C152.506 344.643 152.493 344.882 152.467 345.133H146.773C146.817 345.835 147.055 346.385 147.488 346.784C147.93 347.174 148.463 347.369 149.087 347.369C149.599 347.369 150.023 347.252 150.361 347.018C150.708 346.775 150.951 346.455 151.089 346.056H152.363C152.173 346.741 151.791 347.3 151.219 347.733C150.647 348.158 149.937 348.37 149.087 348.37C148.411 348.37 147.805 348.218 147.267 347.915C146.739 347.612 146.323 347.183 146.019 346.628C145.716 346.065 145.564 345.415 145.564 344.678C145.564 343.941 145.712 343.296 146.006 342.741C146.301 342.186 146.713 341.762 147.241 341.467C147.779 341.164 148.394 341.012 149.087 341.012C149.763 341.012 150.361 341.159 150.881 341.454C151.401 341.749 151.8 342.156 152.077 342.676C152.363 343.187 152.506 343.768 152.506 344.418ZM151.284 344.171C151.284 343.72 151.185 343.335 150.985 343.014C150.786 342.685 150.513 342.438 150.166 342.273C149.828 342.1 149.451 342.013 149.035 342.013C148.437 342.013 147.926 342.204 147.501 342.585C147.085 342.966 146.847 343.495 146.786 344.171H151.284ZM158.046 348.253L155.251 345.107V348.253H154.068V338.633H155.251V344.288L157.994 341.129H159.645L156.291 344.678L159.658 348.253H158.046ZM253.997 347.304C255.098 346.42 255.96 345.696 256.584 345.133C257.208 344.561 257.733 343.967 258.157 343.352C258.591 342.728 258.807 342.117 258.807 341.519C258.807 340.956 258.669 340.514 258.391 340.193C258.123 339.864 257.685 339.699 257.078 339.699C256.489 339.699 256.03 339.885 255.7 340.258C255.38 340.622 255.206 341.112 255.18 341.727H254.036C254.071 340.756 254.366 340.007 254.92 339.478C255.475 338.949 256.19 338.685 257.065 338.685C257.958 338.685 258.664 338.932 259.184 339.426C259.713 339.92 259.977 340.6 259.977 341.467C259.977 342.186 259.761 342.888 259.327 343.573C258.903 344.249 258.417 344.847 257.871 345.367C257.325 345.878 256.628 346.476 255.778 347.161H260.25V348.149H253.997V347.304ZM265.284 340.999C266.151 340.999 266.853 341.263 267.39 341.792C267.927 342.312 268.196 343.066 268.196 344.054V348.253H267.026V344.223C267.026 343.512 266.848 342.971 266.493 342.598C266.138 342.217 265.652 342.026 265.037 342.026C264.413 342.026 263.915 342.221 263.542 342.611C263.178 343.001 262.996 343.569 262.996 344.314V348.253H261.813V341.129H262.996V342.143C263.23 341.779 263.546 341.497 263.945 341.298C264.352 341.099 264.799 340.999 265.284 340.999ZM269.686 344.665C269.686 343.937 269.834 343.3 270.128 342.754C270.423 342.199 270.826 341.77 271.337 341.467C271.857 341.164 272.438 341.012 273.079 341.012C273.634 341.012 274.15 341.142 274.626 341.402C275.103 341.653 275.467 341.987 275.718 342.403V338.633H276.914V348.253H275.718V346.914C275.484 347.339 275.138 347.69 274.678 347.967C274.219 348.236 273.682 348.37 273.066 348.37C272.434 348.37 271.857 348.214 271.337 347.902C270.826 347.59 270.423 347.152 270.128 346.589C269.834 346.026 269.686 345.384 269.686 344.665ZM275.718 344.678C275.718 344.141 275.61 343.673 275.393 343.274C275.177 342.875 274.882 342.572 274.509 342.364C274.145 342.147 273.742 342.039 273.3 342.039C272.858 342.039 272.455 342.143 272.091 342.351C271.727 342.559 271.437 342.862 271.22 343.261C271.004 343.66 270.895 344.128 270.895 344.665C270.895 345.211 271.004 345.688 271.22 346.095C271.437 346.494 271.727 346.801 272.091 347.018C272.455 347.226 272.858 347.33 273.3 347.33C273.742 347.33 274.145 347.226 274.509 347.018C274.882 346.801 275.177 346.494 275.393 346.095C275.61 345.688 275.718 345.215 275.718 344.678ZM293.767 339.192L291.141 348.253H289.815L287.709 340.96L285.525 348.253L284.212 348.266L281.677 339.192H282.938L284.914 346.875L287.098 339.192H288.424L290.504 346.849L292.493 339.192H293.767ZM301.562 344.418C301.562 344.643 301.549 344.882 301.523 345.133H295.829C295.872 345.835 296.111 346.385 296.544 346.784C296.986 347.174 297.519 347.369 298.143 347.369C298.654 347.369 299.079 347.252 299.417 347.018C299.764 346.775 300.006 346.455 300.145 346.056H301.419C301.228 346.741 300.847 347.3 300.275 347.733C299.703 348.158 298.992 348.37 298.143 348.37C297.467 348.37 296.86 348.218 296.323 347.915C295.794 347.612 295.378 347.183 295.075 346.628C294.772 346.065 294.62 345.415 294.62 344.678C294.62 343.941 294.767 343.296 295.062 342.741C295.357 342.186 295.768 341.762 296.297 341.467C296.834 341.164 297.45 341.012 298.143 341.012C298.819 341.012 299.417 341.159 299.937 341.454C300.457 341.749 300.856 342.156 301.133 342.676C301.419 343.187 301.562 343.768 301.562 344.418ZM300.34 344.171C300.34 343.72 300.24 343.335 300.041 343.014C299.842 342.685 299.569 342.438 299.222 342.273C298.884 342.1 298.507 342.013 298.091 342.013C297.493 342.013 296.982 342.204 296.557 342.585C296.141 342.966 295.903 343.495 295.842 344.171H300.34ZM309.624 344.418C309.624 344.643 309.611 344.882 309.585 345.133H303.891C303.934 345.835 304.172 346.385 304.606 346.784C305.048 347.174 305.581 347.369 306.205 347.369C306.716 347.369 307.141 347.252 307.479 347.018C307.825 346.775 308.068 346.455 308.207 346.056H309.481C309.29 346.741 308.909 347.3 308.337 347.733C307.765 348.158 307.054 348.37 306.205 348.37C305.529 348.37 304.922 348.218 304.385 347.915C303.856 347.612 303.44 347.183 303.137 346.628C302.833 346.065 302.682 345.415 302.682 344.678C302.682 343.941 302.829 343.296 303.124 342.741C303.418 342.186 303.83 341.762 304.359 341.467C304.896 341.164 305.511 341.012 306.205 341.012C306.881 341.012 307.479 341.159 307.999 341.454C308.519 341.749 308.917 342.156 309.195 342.676C309.481 343.187 309.624 343.768 309.624 344.418ZM308.402 344.171C308.402 343.72 308.302 343.335 308.103 343.014C307.903 342.685 307.63 342.438 307.284 342.273C306.946 342.1 306.569 342.013 306.153 342.013C305.555 342.013 305.043 342.204 304.619 342.585C304.203 342.966 303.964 343.495 303.904 344.171H308.402ZM315.163 348.253L312.368 345.107V348.253H311.185V338.633H312.368V344.288L315.111 341.129H316.762L313.408 344.678L316.775 348.253H315.163ZM411.232 341.22C411.292 340.423 411.6 339.799 412.155 339.348C412.709 338.897 413.429 338.672 414.313 338.672C414.902 338.672 415.409 338.78 415.834 338.997C416.267 339.205 416.592 339.491 416.809 339.855C417.034 340.219 417.147 340.631 417.147 341.09C417.147 341.627 416.991 342.091 416.679 342.481C416.375 342.871 415.977 343.122 415.483 343.235V343.3C416.046 343.439 416.492 343.712 416.822 344.119C417.151 344.526 417.316 345.059 417.316 345.718C417.316 346.212 417.203 346.658 416.978 347.057C416.752 347.447 416.414 347.755 415.964 347.98C415.513 348.205 414.971 348.318 414.339 348.318C413.42 348.318 412.666 348.08 412.077 347.603C411.487 347.118 411.158 346.433 411.089 345.549H412.233C412.293 346.069 412.506 346.494 412.87 346.823C413.234 347.152 413.719 347.317 414.326 347.317C414.932 347.317 415.392 347.161 415.704 346.849C416.024 346.528 416.185 346.117 416.185 345.614C416.185 344.964 415.968 344.496 415.535 344.21C415.101 343.924 414.447 343.781 413.572 343.781H413.273V342.793H413.585C414.382 342.784 414.984 342.654 415.392 342.403C415.799 342.143 416.003 341.744 416.003 341.207C416.003 340.748 415.851 340.379 415.548 340.102C415.253 339.825 414.828 339.686 414.274 339.686C413.736 339.686 413.303 339.825 412.974 340.102C412.644 340.379 412.449 340.752 412.389 341.22H411.232ZM420.291 342.286C420.499 341.879 420.794 341.562 421.175 341.337C421.565 341.112 422.037 340.999 422.592 340.999V342.221H422.28C420.954 342.221 420.291 342.94 420.291 344.379V348.253H419.108V341.129H420.291V342.286ZM423.516 344.665C423.516 343.937 423.663 343.3 423.958 342.754C424.252 342.199 424.655 341.77 425.167 341.467C425.687 341.164 426.267 341.012 426.909 341.012C427.463 341.012 427.979 341.142 428.456 341.402C428.932 341.653 429.296 341.987 429.548 342.403V338.633H430.744V348.253H429.548V346.914C429.314 347.339 428.967 347.69 428.508 347.967C428.048 348.236 427.511 348.37 426.896 348.37C426.263 348.37 425.687 348.214 425.167 347.902C424.655 347.59 424.252 347.152 423.958 346.589C423.663 346.026 423.516 345.384 423.516 344.665ZM429.548 344.678C429.548 344.141 429.439 343.673 429.223 343.274C429.006 342.875 428.711 342.572 428.339 342.364C427.975 342.147 427.572 342.039 427.13 342.039C426.688 342.039 426.285 342.143 425.921 342.351C425.557 342.559 425.266 342.862 425.05 343.261C424.833 343.66 424.725 344.128 424.725 344.665C424.725 345.211 424.833 345.688 425.05 346.095C425.266 346.494 425.557 346.801 425.921 347.018C426.285 347.226 426.688 347.33 427.13 347.33C427.572 347.33 427.975 347.226 428.339 347.018C428.711 346.801 429.006 346.494 429.223 346.095C429.439 345.688 429.548 345.215 429.548 344.678ZM447.597 339.192L444.971 348.253H443.645L441.539 340.96L439.355 348.253L438.042 348.266L435.507 339.192H436.768L438.744 346.875L440.928 339.192H442.254L444.334 346.849L446.323 339.192H447.597ZM455.391 344.418C455.391 344.643 455.378 344.882 455.352 345.133H449.658C449.701 345.835 449.94 346.385 450.373 346.784C450.815 347.174 451.348 347.369 451.972 347.369C452.483 347.369 452.908 347.252 453.246 347.018C453.593 346.775 453.835 346.455 453.974 346.056H455.248C455.057 346.741 454.676 347.3 454.104 347.733C453.532 348.158 452.821 348.37 451.972 348.37C451.296 348.37 450.689 348.218 450.152 347.915C449.623 347.612 449.207 347.183 448.904 346.628C448.601 346.065 448.449 345.415 448.449 344.678C448.449 343.941 448.596 343.296 448.891 342.741C449.186 342.186 449.597 341.762 450.126 341.467C450.663 341.164 451.279 341.012 451.972 341.012C452.648 341.012 453.246 341.159 453.766 341.454C454.286 341.749 454.685 342.156 454.962 342.676C455.248 343.187 455.391 343.768 455.391 344.418ZM454.169 344.171C454.169 343.72 454.069 343.335 453.87 343.014C453.671 342.685 453.398 342.438 453.051 342.273C452.713 342.1 452.336 342.013 451.92 342.013C451.322 342.013 450.811 342.204 450.386 342.585C449.97 342.966 449.732 343.495 449.671 344.171H454.169ZM463.453 344.418C463.453 344.643 463.44 344.882 463.414 345.133H457.72C457.763 345.835 458.001 346.385 458.435 346.784C458.877 347.174 459.41 347.369 460.034 347.369C460.545 347.369 460.97 347.252 461.308 347.018C461.654 346.775 461.897 346.455 462.036 346.056H463.31C463.119 346.741 462.738 347.3 462.166 347.733C461.594 348.158 460.883 348.37 460.034 348.37C459.358 348.37 458.751 348.218 458.214 347.915C457.685 347.612 457.269 347.183 456.966 346.628C456.662 346.065 456.511 345.415 456.511 344.678C456.511 343.941 456.658 343.296 456.953 342.741C457.247 342.186 457.659 341.762 458.188 341.467C458.725 341.164 459.34 341.012 460.034 341.012C460.71 341.012 461.308 341.159 461.828 341.454C462.348 341.749 462.746 342.156 463.024 342.676C463.31 343.187 463.453 343.768 463.453 344.418ZM462.231 344.171C462.231 343.72 462.131 343.335 461.932 343.014C461.732 342.685 461.459 342.438 461.113 342.273C460.775 342.1 460.398 342.013 459.982 342.013C459.384 342.013 458.872 342.204 458.448 342.585C458.032 342.966 457.793 343.495 457.733 344.171H462.231ZM468.992 348.253L466.197 345.107V348.253H465.014V338.633H466.197V344.288L468.94 341.129H470.591L467.237 344.678L470.604 348.253H468.992ZM105.624 366.16V365.263L110.187 358.945H111.604V365.133H112.904V366.16H111.604V368.253H110.434V366.16H105.624ZM110.486 360.18L106.989 365.133H110.486V360.18ZM115.724 362.104V366.303C115.724 366.65 115.797 366.897 115.945 367.044C116.092 367.183 116.348 367.252 116.712 367.252H117.583V368.253H116.517C115.858 368.253 115.364 368.101 115.035 367.798C114.705 367.495 114.541 366.996 114.541 366.303V362.104H113.618V361.129H114.541V359.335H115.724V361.129H117.583V362.104H115.724ZM122.552 360.999C123.089 360.999 123.575 361.116 124.008 361.35C124.441 361.575 124.779 361.918 125.022 362.377C125.273 362.836 125.399 363.395 125.399 364.054V368.253H124.229V364.223C124.229 363.512 124.051 362.971 123.696 362.598C123.341 362.217 122.855 362.026 122.24 362.026C121.616 362.026 121.118 362.221 120.745 362.611C120.381 363.001 120.199 363.569 120.199 364.314V368.253H119.016V358.633H120.199V362.143C120.433 361.779 120.754 361.497 121.161 361.298C121.577 361.099 122.041 360.999 122.552 360.999ZM142.185 359.192L139.559 368.253H138.233L136.127 360.96L133.943 368.253L132.63 368.266L130.095 359.192H131.356L133.332 366.875L135.516 359.192H136.842L138.922 366.849L140.911 359.192H142.185ZM149.98 364.418C149.98 364.643 149.967 364.882 149.941 365.133H144.247C144.29 365.835 144.529 366.385 144.962 366.784C145.404 367.174 145.937 367.369 146.561 367.369C147.072 367.369 147.497 367.252 147.835 367.018C148.182 366.775 148.424 366.455 148.563 366.056H149.837C149.646 366.741 149.265 367.3 148.693 367.733C148.121 368.158 147.41 368.37 146.561 368.37C145.885 368.37 145.278 368.218 144.741 367.915C144.212 367.612 143.796 367.183 143.493 366.628C143.19 366.065 143.038 365.415 143.038 364.678C143.038 363.941 143.185 363.296 143.48 362.741C143.775 362.186 144.186 361.762 144.715 361.467C145.252 361.164 145.868 361.012 146.561 361.012C147.237 361.012 147.835 361.159 148.355 361.454C148.875 361.749 149.274 362.156 149.551 362.676C149.837 363.187 149.98 363.768 149.98 364.418ZM148.758 364.171C148.758 363.72 148.658 363.335 148.459 363.014C148.26 362.685 147.987 362.438 147.64 362.273C147.302 362.1 146.925 362.013 146.509 362.013C145.911 362.013 145.4 362.204 144.975 362.585C144.559 362.966 144.321 363.495 144.26 364.171H148.758ZM158.042 364.418C158.042 364.643 158.029 364.882 158.003 365.133H152.309C152.352 365.835 152.59 366.385 153.024 366.784C153.466 367.174 153.999 367.369 154.623 367.369C155.134 367.369 155.559 367.252 155.897 367.018C156.243 366.775 156.486 366.455 156.625 366.056H157.899C157.708 366.741 157.327 367.3 156.755 367.733C156.183 368.158 155.472 368.37 154.623 368.37C153.947 368.37 153.34 368.218 152.803 367.915C152.274 367.612 151.858 367.183 151.555 366.628C151.251 366.065 151.1 365.415 151.1 364.678C151.1 363.941 151.247 363.296 151.542 362.741C151.836 362.186 152.248 361.762 152.777 361.467C153.314 361.164 153.929 361.012 154.623 361.012C155.299 361.012 155.897 361.159 156.417 361.454C156.937 361.749 157.335 362.156 157.613 362.676C157.899 363.187 158.042 363.768 158.042 364.418ZM156.82 364.171C156.82 363.72 156.72 363.335 156.521 363.014C156.321 362.685 156.048 362.438 155.702 362.273C155.364 362.1 154.987 362.013 154.571 362.013C153.973 362.013 153.461 362.204 153.037 362.585C152.621 362.966 152.382 363.495 152.322 364.171H156.82ZM163.581 368.253L160.786 365.107V368.253H159.603V358.633H160.786V364.288L163.529 361.129H165.18L161.826 364.678L165.193 368.253H163.581Z" fill="#888888"/>
<path d="M124.973 272.627L97.3955 252.467L97.0157 329.985C97.0076 331.648 98.3531 333 100.016 333H541.001C542.658 333 544.001 331.657 544.001 330V185.888L523.43 214.387C521.073 217.651 516.988 219.184 513.066 218.276L508.966 217.327C504.156 216.213 499.252 218.777 497.422 223.364L491.877 237.264C488.251 246.354 475.076 245.363 472.851 235.833L463.197 194.495C461.058 185.336 448.607 183.927 444.475 192.377L441.673 198.106C440.742 200.011 439.229 201.57 437.354 202.559L420.737 211.32C416.315 213.652 410.849 212.359 407.94 208.292L390.46 183.857C389.724 182.828 389.19 181.669 388.886 180.441L387.994 176.836C385.808 167.998 373.91 166.442 369.524 174.42L332.987 240.878C329.791 246.692 321.924 247.839 317.202 243.18L300.223 226.431C296.44 222.699 290.398 222.578 286.468 226.157L268.191 242.8C263.043 247.487 254.799 245.611 252.188 239.157L231.999 189.261C228.45 180.491 215.835 181.096 213.142 190.166L204.412 219.572C202.337 226.561 193.722 229.052 188.237 224.249L180.077 217.102C175.165 212.8 167.514 214.284 164.566 220.111L139.798 269.068C137.012 274.574 129.954 276.268 124.973 272.627Z" fill="url(#paint0_linear_407_1654)"/>
<path d="M97.001 252.8L124.616 273.028C129.6 276.678 136.668 274.982 139.452 269.468L164.265 220.325C167.211 214.489 174.873 213.003 179.787 217.316L187.966 224.493C193.451 229.306 202.077 226.814 204.15 219.818L212.907 190.261C215.597 181.184 228.223 180.579 231.768 189.357L252.001 239.462C254.611 245.924 262.865 247.802 268.014 243.104L286.32 226.401C290.252 222.814 296.305 222.935 300.09 226.676L317.096 243.485C321.819 248.154 329.698 247.006 332.893 241.184L369.494 174.474C373.876 166.487 385.786 168.042 387.969 176.887L388.872 180.543C389.175 181.77 389.708 182.928 390.442 183.957L408.011 208.566C410.895 212.606 416.305 213.918 420.72 211.65L436.522 203.531C438.455 202.537 440.012 200.941 440.957 198.984L444.558 191.524C448.661 183.028 461.166 184.418 463.304 193.607L473.635 238.025C475.865 247.609 489.142 248.549 492.699 239.374L498.619 224.106C500.487 219.287 505.719 216.686 510.689 218.105L511.153 218.238C514.913 219.312 518.954 218.095 521.496 215.125L543.001 190" stroke="#146BFF" stroke-width="3"/>
</g>
<defs>
<filter id="filter0_d_407_1654" x="0.725098" y="0.925781" width="633.275" height="458.088" filterUnits="userSpaceOnUse" color-interpolation-filters="sRGB">
<feFlood flood-opacity="0" result="BackgroundImageFix"/>
<feColorMatrix in="SourceAlpha" type="matrix" values="0 0 0 0 0 0 0 0 0 0 0 0 0 0 0 0 0 0 127 0" result="hardAlpha"/>
<feOffset dy="12"/>
<feGaussianBlur stdDeviation="37.5"/>
<feComposite in2="hardAlpha" operator="out"/>
<feColorMatrix type="matrix" values="0 0 0 0 0.00784314 0 0 0 0 0.654902 0 0 0 0 0.913725 0 0 0 0.24 0"/>
<feBlend mode="normal" in2="BackgroundImageFix" result="effect1_dropShadow_407_1654"/>
<feBlend mode="normal" in="SourceGraphic" in2="effect1_dropShadow_407_1654" result="shape"/>
</filter>
<linearGradient id="paint0_linear_407_1654" x1="333.323" y1="152" x2="333.323" y2="333" gradientUnits="userSpaceOnUse">
<stop stop-color="#B7D1FF"/>
<stop offset="1" stop-color="#D9D9D9" stop-opacity="0"/>
<stop offset="1" stop-color="#EBEBEB" stop-opacity="0"/>
</linearGradient>
</defs>
</svg>
