<svg width="19" height="18" viewBox="0 0 19 18" fill="none" xmlns="http://www.w3.org/2000/svg">
<path d="M9.00132 1.62126C11.4033 1.62126 11.688 1.62917 12.6372 1.67399C13.5152 1.71354 13.9924 1.86119 14.3088 1.98511C14.728 2.14858 15.0286 2.34368 15.3423 2.65744C15.6561 2.97119 15.8512 3.27176 16.0147 3.69098C16.1386 4.00737 16.2836 4.4846 16.3258 5.36258C16.368 6.31175 16.3785 6.5965 16.3785 8.99844C16.3785 11.4004 16.3706 11.6851 16.3258 12.6343C16.2862 13.5123 16.1386 13.9895 16.0147 14.3059C15.8512 14.7251 15.6561 15.0257 15.3423 15.3394C15.0286 15.6532 14.728 15.8483 14.3088 16.0118C13.9924 16.1357 13.5152 16.2807 12.6372 16.3229C11.688 16.3651 11.4033 16.3756 9.00132 16.3756C6.59939 16.3756 6.31463 16.3677 5.36546 16.3229C4.48748 16.2833 4.01025 16.1357 3.69386 16.0118C3.27465 15.8483 2.97407 15.6532 2.66032 15.3394C2.34657 15.0257 2.15146 14.7251 1.98799 14.3059C1.86407 13.9895 1.71906 13.5123 1.67687 12.6343C1.63469 11.6851 1.62414 11.4004 1.62414 8.99844C1.62414 6.5965 1.63205 6.31175 1.67687 5.36258C1.71642 4.4846 1.86407 4.00737 1.98799 3.69098C2.15146 3.27176 2.34657 2.97119 2.66032 2.65744C2.97407 2.34368 3.27465 2.14858 3.69386 1.98511C4.01025 1.86119 4.48748 1.71618 5.36546 1.67399C6.31463 1.62917 6.59939 1.62126 9.00132 1.62126ZM9.00132 -0.000244141C6.5572 -0.000244141 6.25136 0.0103024 5.29164 0.0551244C4.33455 0.0999464 3.68068 0.250232 3.1059 0.474342C2.51531 0.701089 2.01172 1.00957 1.5134 1.51052C1.01245 2.01147 0.706606 2.51243 0.474586 3.10566C0.253113 3.6778 0.10019 4.33167 0.0553682 5.29139C0.0105461 6.25111 0 6.55696 0 9.00107C0 11.4452 0.0105461 11.751 0.0553682 12.7108C0.10019 13.6678 0.250476 14.3217 0.474586 14.8965C0.70397 15.4844 1.01245 15.988 1.5134 16.4864C2.01436 16.9873 2.51531 17.2931 3.10854 17.5252C3.68068 17.7466 4.33455 17.8996 5.29427 17.9444C6.25399 17.9892 6.55984 17.9998 9.00396 17.9998C11.4481 17.9998 11.7539 17.9892 12.7136 17.9444C13.6707 17.8996 14.3246 17.7493 14.8994 17.5252C15.4873 17.2958 15.9909 16.9873 16.4892 16.4864C16.9902 15.9854 17.296 15.4844 17.5281 14.8912C17.7495 14.3191 17.9024 13.6652 17.9473 12.7055C17.9921 11.7458 18.0026 11.4399 18.0026 8.9958C18.0026 6.55168 17.9921 6.24584 17.9473 5.28612C17.9024 4.32904 17.7522 3.67516 17.5281 3.10039C17.2987 2.51243 16.9902 2.00884 16.4892 1.51052C15.9883 1.00957 15.4873 0.703726 14.8941 0.471706C14.322 0.250232 13.6681 0.0973097 12.7084 0.0524877C11.7513 0.0103022 11.4454 -0.000244141 9.00132 -0.000244141Z" fill="#02A7E9"/>
<path d="M9.00158 4.37647C6.44936 4.37647 4.37964 6.44619 4.37964 8.99841C4.37964 11.5506 6.44936 13.6204 9.00158 13.6204C11.5538 13.6204 13.6235 11.5506 13.6235 8.99841C13.6235 6.44619 11.5538 4.37647 9.00158 4.37647ZM9.00158 11.9989C7.3458 11.9989 6.00114 10.6568 6.00114 8.99841C6.00114 7.34 7.3458 5.99797 9.00158 5.99797C10.6574 5.99797 12.002 7.34 12.002 8.99841C12.002 10.6568 10.6574 11.9989 9.00158 11.9989Z" fill="#02A7E9"/>
<path d="M13.8052 5.27576C14.4022 5.27576 14.8862 4.79178 14.8862 4.19476C14.8862 3.59774 14.4022 3.11376 13.8052 3.11376C13.2082 3.11376 12.7242 3.59774 12.7242 4.19476C12.7242 4.79178 13.2082 5.27576 13.8052 5.27576Z" fill="#02A7E9"/>
</svg>
