<svg width="190" height="278" viewBox="0 0 190 278" fill="none" xmlns="http://www.w3.org/2000/svg">
<path d="M28.96 244.581L28.9505 244.297L28.6705 244.342L16.0312 246.37L15.7956 246.408L15.8224 246.645L16.0708 246.617C15.8224 246.645 15.8224 246.645 15.8224 246.645L15.8225 246.646L15.8227 246.648L15.8237 246.657L15.8277 246.692L15.8431 246.829L15.9017 247.351C15.9522 247.8 16.0242 248.445 16.1106 249.223C16.2833 250.778 16.5133 252.867 16.7422 255.001C16.9711 257.134 17.1988 259.312 17.3672 261.046C17.5366 262.791 17.6432 264.062 17.6352 264.401L17.6351 264.401C17.6316 264.55 17.7001 264.707 17.777 264.845C17.8597 264.992 17.9779 265.161 18.1225 265.345C18.4123 265.714 18.8266 266.169 19.3267 266.68C20.3281 267.704 21.6922 268.974 23.1406 270.275C26.0385 272.876 29.2874 275.614 30.6804 276.778C31.1802 277.196 31.8493 277.346 32.4842 277.19C33.6192 276.914 34.2862 275.752 33.9213 274.654L33.9213 274.654L29.528 261.446L28.96 244.581Z" fill="#02A7E9" stroke="black" stroke-width="0.5"/>
<path fill-rule="evenodd" clip-rule="evenodd" d="M32.4817 276.937L17.8291 263.257L17.8696 263.972C17.9053 264.591 18.1625 265.178 18.6022 265.626C19.7779 266.827 23.0989 270.072 30.8391 276.579C31.2892 276.958 31.9078 277.093 32.4817 276.937Z" fill="#B6EAFF"/>
<path fill-rule="evenodd" clip-rule="evenodd" d="M21.214 257.552C21.66 257.817 21.8365 258.438 21.5821 258.88C21.327 259.323 20.6762 259.503 20.226 259.245C19.7751 258.988 19.5393 258.249 19.8433 257.837C20.1474 257.425 20.9237 257.254 21.2974 257.608" fill="#FFFFFE"/>
<path fill-rule="evenodd" clip-rule="evenodd" d="M28.166 269.67C28.2652 269.713 28.6013 268.766 29.5932 268.209C30.5686 267.623 31.5281 267.817 31.5439 267.707C31.5563 267.662 31.3325 267.537 30.9281 267.503C30.5279 267.465 29.9514 267.556 29.4086 267.87C28.8665 268.187 28.4918 268.648 28.3155 269.02C28.135 269.395 28.1226 269.658 28.166 269.67Z" fill="#1A282B"/>
<path fill-rule="evenodd" clip-rule="evenodd" d="M29.562 271.956C29.6478 272.027 30.1691 271.429 31.0454 271.121C31.9141 270.793 32.6914 270.916 32.7135 270.806C32.7585 270.714 31.9099 270.391 30.9166 270.76C29.9206 271.117 29.4699 271.914 29.562 271.956Z" fill="#1A282B"/>
<path fill-rule="evenodd" clip-rule="evenodd" d="M25.6901 267.033C25.7766 267.111 26.587 266.186 27.9284 265.586C29.2614 264.963 30.4917 264.955 30.4889 264.838C30.5121 264.743 29.1988 264.574 27.768 265.237C26.3309 265.885 25.6029 266.989 25.6901 267.033Z" fill="#1A282B"/>
<path fill-rule="evenodd" clip-rule="evenodd" d="M25.0998 261.754C25.1514 261.858 26.074 261.39 27.3013 261.272C28.5273 261.135 29.5193 261.406 29.5503 261.293C29.5929 261.203 28.5816 260.736 27.2642 260.88C25.946 261.009 25.0414 261.674 25.0998 261.754Z" fill="#1A282B"/>
<path fill-rule="evenodd" clip-rule="evenodd" d="M24.6311 256.72C24.6909 256.814 25.6298 256.199 26.9622 256.186C28.2938 256.144 29.2594 256.721 29.315 256.624C29.3411 256.586 29.1384 256.384 28.7217 256.182C28.3086 255.978 27.6709 255.8 26.9537 255.814C26.2372 255.83 25.608 256.033 25.204 256.253C24.7972 256.473 24.6029 256.684 24.6311 256.72Z" fill="#1A282B"/>
<path fill-rule="evenodd" clip-rule="evenodd" d="M26.9474 255.469C26.9695 255.468 26.9958 255.241 26.935 254.832C26.8741 254.428 26.7185 253.835 26.3236 253.196C26.1196 252.894 25.9032 252.502 25.4108 252.308C25.1659 252.209 24.8125 252.271 24.6217 252.505C24.4315 252.732 24.3831 253.012 24.3928 253.279C24.4716 254.344 25.4675 255.325 26.7033 255.412C27.9433 255.477 29.0207 254.728 29.4564 253.781C29.5498 253.536 29.6072 253.24 29.4571 252.963C29.3098 252.684 28.9537 252.589 28.7102 252.643C28.2033 252.746 27.8976 253.051 27.6099 253.281C27.0442 253.779 26.7054 254.288 26.511 254.65C26.316 255.015 26.26 255.237 26.2801 255.245C26.343 255.285 26.6673 254.396 27.7842 253.479C28.0664 253.267 28.3907 252.999 28.7566 252.947C28.935 252.92 29.0934 252.98 29.1653 253.118C29.2386 253.251 29.2144 253.463 29.1321 253.656C28.7628 254.432 27.7766 255.114 26.7289 255.043C25.6867 254.98 24.8125 254.117 24.7413 253.26C24.7268 253.053 24.7711 252.842 24.8769 252.713C24.9813 252.586 25.1487 252.544 25.3112 252.598C25.6528 252.712 25.8976 253.053 26.0975 253.337C26.8921 254.531 26.8727 255.49 26.9474 255.469Z" fill="#1A282B"/>
<path d="M62.7689 247.113L62.7871 246.855L62.5283 246.846L49.9428 246.401L49.6912 246.392L49.684 246.644L49.1134 266.549L49.1062 266.798L49.3551 266.806L74.5576 267.63L74.8232 267.639L74.8157 267.373C74.8045 266.976 74.5348 266.576 74.1695 266.201C73.7937 265.815 73.2691 265.407 72.6546 264.994C71.4239 264.166 69.7961 263.291 68.179 262.494C66.5601 261.697 64.9443 260.974 63.7337 260.451C63.1283 260.189 62.6239 259.977 62.2707 259.83C62.1079 259.763 61.9772 259.709 61.8835 259.671L62.7689 247.113Z" fill="#02A7E9" stroke="black" stroke-width="0.5"/>
<path fill-rule="evenodd" clip-rule="evenodd" d="M53.7734 258.483C53.2747 258.599 52.9157 259.133 53.0137 259.627C53.1111 260.12 53.6612 260.484 54.1613 260.376C54.6621 260.268 55.1135 259.64 54.9598 259.161C54.8067 258.682 54.1366 258.289 53.6775 258.511" fill="#B6EAFF"/>
<path fill-rule="evenodd" clip-rule="evenodd" d="M49.3633 266.546L49.5005 264.517L73.5993 266.076C73.5993 266.076 74.7044 266.598 74.5512 267.38L49.3633 266.546Z" fill="#B6EAFF"/>
<path fill-rule="evenodd" clip-rule="evenodd" d="M62.0213 259.491C62.0129 259.614 61.3953 259.648 60.7764 260.022C60.1476 260.381 59.8179 260.901 59.7064 260.849C59.5935 260.821 59.8012 260.095 60.5589 259.655C61.3124 259.208 62.0512 259.379 62.0213 259.491Z" fill="#1A282B"/>
<path fill-rule="evenodd" clip-rule="evenodd" d="M64.7151 260.905C64.7376 261.02 64.2245 261.203 63.8106 261.687C63.3829 262.159 63.2651 262.693 63.1485 262.685C63.0386 262.699 62.9804 262.008 63.5061 261.415C64.0265 260.819 64.7157 260.792 64.7151 260.905Z" fill="#1A282B"/>
<path fill-rule="evenodd" clip-rule="evenodd" d="M66.0208 263.83C65.9094 263.851 65.7607 263.274 66.0952 262.657C66.4248 262.037 67.0063 261.808 67.0544 261.905C67.1198 262.001 66.7386 262.326 66.4729 262.837C66.1936 263.341 66.142 263.822 66.0208 263.83Z" fill="#1A282B"/>
<path fill-rule="evenodd" clip-rule="evenodd" d="M61.8986 256.693C61.8422 256.802 61.2691 256.616 60.5539 256.639C59.8387 256.65 59.2756 256.862 59.2134 256.755C59.1434 256.665 59.7008 256.233 60.5432 256.217C61.3849 256.194 61.9636 256.599 61.8986 256.693Z" fill="#1A282B"/>
<path fill-rule="evenodd" clip-rule="evenodd" d="M62.024 254.117C62.024 254.166 61.5542 254.225 60.8122 254.07C60.4428 253.992 60.0092 253.854 59.5569 253.631C59.3307 253.52 59.1005 253.387 58.873 253.232C58.764 253.156 58.6342 253.078 58.5164 252.931C58.3893 252.802 58.3257 252.48 58.4836 252.291C58.6134 252.106 58.8349 252.032 59.0102 252.034C59.1889 252.034 59.3321 252.075 59.4625 252.113C59.7302 252.188 59.9798 252.288 60.2073 252.401C60.663 252.63 61.0296 252.913 61.3013 253.184C61.8446 253.731 62.022 254.186 61.9811 254.208C61.9263 254.245 61.6653 253.86 61.1079 253.404C60.8302 253.178 60.4736 252.942 60.0474 252.75C59.8339 252.655 59.6031 252.572 59.3582 252.508C59.1046 252.431 58.8864 252.422 58.8168 252.535C58.7914 252.579 58.7874 252.596 58.8389 252.675C58.8918 252.747 58.9935 252.819 59.1005 252.895C59.3106 253.044 59.5214 253.175 59.7289 253.288C60.1444 253.515 60.5432 253.674 60.8858 253.784C61.573 254.004 62.028 254.053 62.024 254.117Z" fill="#1A282B"/>
<path fill-rule="evenodd" clip-rule="evenodd" d="M61.8399 254.323C61.7964 254.341 61.5727 253.901 61.5544 253.118C61.5469 252.729 61.6026 252.262 61.7672 251.769C61.8508 251.524 61.9623 251.273 62.1058 251.028C62.2581 250.789 62.4444 250.468 62.9122 250.43C63.1556 250.429 63.3514 250.627 63.4153 250.792C63.4914 250.961 63.5023 251.105 63.5268 251.25C63.5622 251.54 63.5479 251.823 63.4996 252.083C63.4051 252.607 63.1766 253.037 62.9312 253.344C62.4294 253.968 61.9236 254.095 61.9147 254.054C61.8766 253.992 62.303 253.774 62.6912 253.171C62.8822 252.873 63.057 252.479 63.1195 252.021C63.1515 251.792 63.1556 251.55 63.1209 251.305C63.091 251.042 62.9999 250.826 62.9013 250.85C62.7789 250.844 62.5647 251.034 62.4566 251.241C62.3234 251.458 62.2152 251.681 62.1296 251.901C61.961 252.342 61.8794 252.768 61.8501 253.128C61.7923 253.852 61.9052 254.308 61.8399 254.323Z" fill="#1A282B"/>
<path fill-rule="evenodd" clip-rule="evenodd" d="M10.7979 122.105L14.5099 258.219L34.323 257.636L39.0481 117.465L10.7979 122.105Z" fill="#07377E"/>
<path fill-rule="evenodd" clip-rule="evenodd" d="M52.0734 117.235C52.0734 117.235 66.8051 174.957 67.2571 184.799C67.7092 194.641 64.1041 256.156 64.1041 256.156H44.6776L46.2993 186.104L31.5439 126.82L35.1156 117.538L52.0734 117.235Z" fill="#07377E"/>
<path fill-rule="evenodd" clip-rule="evenodd" d="M39.976 124.337C39.9822 124.337 39.985 124.399 39.985 124.521C39.9815 124.663 39.9781 124.841 39.9732 125.061C39.9545 125.562 39.9282 126.256 39.895 127.136C39.8099 128.964 39.6881 131.561 39.5394 134.759C39.203 141.218 38.7408 150.096 38.2308 159.903C37.6793 169.711 37.1797 178.589 36.8164 185.047C36.6192 188.243 36.4593 190.838 36.3465 192.665C36.2843 193.544 36.2358 194.235 36.2005 194.736C36.1812 194.956 36.1652 195.133 36.1535 195.275C36.1403 195.396 36.1313 195.458 36.1251 195.458C36.1189 195.458 36.1161 195.395 36.1168 195.274C36.1196 195.132 36.123 194.954 36.1279 194.734C36.1466 194.233 36.1729 193.541 36.2061 192.661C36.2912 190.834 36.4123 188.237 36.5617 185.039C36.8981 178.578 37.3603 169.7 37.8703 159.888C38.4225 150.082 38.9214 141.205 39.2847 134.745C39.4819 131.55 39.6418 128.955 39.7553 127.128C39.8168 126.25 39.8653 125.557 39.9006 125.057C39.9199 124.838 39.9352 124.661 39.9476 124.519C39.9601 124.398 39.9698 124.337 39.976 124.337Z" fill="#146BFF"/>
<path fill-rule="evenodd" clip-rule="evenodd" d="M37.9033 43.3127C37.9033 43.3127 45.1336 78.2804 45.2383 88.1341C45.3429 97.9872 48.8936 117.236 48.8936 117.236H17.5711L16.8952 63.961L14.665 48.0699L19.3681 41.5336L37.9033 43.3127Z" fill="#CCDFFF"/>
<path d="M47.7586 49.7866L68.4384 68.3039L68.5446 68.399L68.6806 68.356L94.4607 60.2056L99.4283 70.4248L71.9416 82.6007C69.9949 83.4108 68.4349 83.5835 67.0355 83.306C65.631 83.0275 64.3591 82.2899 62.9973 81.2255L48.5426 69.9275L47.7586 49.7866Z" fill="#02A7E9" stroke="black" stroke-width="0.5"/>
<path d="M38.2241 44.2824L38.293 44.0421L37.9285 43.9376L37.9761 44.3138L46.7193 113.442L46.7224 113.467L46.7301 113.49L51.1491 126.764L51.2008 126.919L51.3636 126.934L54.4951 127.22L54.7938 127.247L54.7668 126.948L51.5648 91.4934L51.5645 91.4879L51.5634 91.466L51.5588 91.3796L51.5409 91.0423C51.5252 90.7468 51.5019 90.3131 51.4716 89.7605C51.4112 88.6552 51.3231 87.0738 51.2125 85.1696C50.9914 81.3613 50.6803 76.2611 50.3206 71.0941C49.9609 65.9277 49.5523 60.6923 49.1363 56.6146C48.9283 54.5762 48.7181 52.8236 48.5107 51.5124C48.407 50.8571 48.3034 50.3078 48.2002 49.8864C48.1486 49.6758 48.0962 49.4933 48.0426 49.3438C47.9905 49.1982 47.9317 49.0675 47.8616 48.9717C47.3383 48.2564 46.4671 47.5962 45.4807 47.0108C44.4896 46.4226 43.3598 45.8971 42.2975 45.4585C41.2344 45.0196 40.2341 44.6658 39.4998 44.4217C39.1326 44.2997 38.8315 44.2049 38.622 44.1407C38.5172 44.1085 38.4353 44.084 38.3794 44.0674L38.3155 44.0486L38.299 44.0438L38.2946 44.0426L38.2935 44.0423L38.2932 44.0422C38.2931 44.0421 38.293 44.0421 38.2241 44.2824Z" fill="#02A7E9" stroke="black" stroke-width="0.5"/>
<path d="M51.0644 71.5147C51.0644 71.5147 51.5486 53.4842 51.064 53.0098C49.8476 52.3291 48.6414 51.1118 48.1568 50.6373C48.1568 49.2139 46.8403 47.7904 46.219 47.7904C45.2504 47.7904 49.6108 70.0913 49.6108 70.0913L51.0644 71.5147Z" fill="#02A7E9"/>
<path fill-rule="evenodd" clip-rule="evenodd" d="M89.8512 63.2531C90.0041 63.5318 89.8964 63.8785 89.6107 64.028C89.3249 64.1768 88.9702 64.0715 88.8179 63.7929C88.665 63.5135 88.7734 63.1668 89.0585 63.0173C89.3443 62.8685 89.699 62.9738 89.8512 63.2531Z" fill="#1A282B"/>
<path fill-rule="evenodd" clip-rule="evenodd" d="M89.3336 62.8695C89.2465 62.8695 89.1574 62.89 89.0752 62.9329C88.9457 63.001 88.8502 63.1141 88.8077 63.2517C88.7646 63.39 88.7792 63.5351 88.8488 63.6625C88.9178 63.7892 89.0334 63.8825 89.1748 63.9241C89.3155 63.9663 89.4645 63.9506 89.5941 63.8839C89.7243 63.8157 89.819 63.7027 89.8615 63.565C89.9047 63.4274 89.8901 63.2817 89.8204 63.1543C89.7215 62.9731 89.5307 62.8695 89.3336 62.8695ZM89.335 63.9813L89.1643 63.9567C89.0146 63.9125 88.892 63.8137 88.8182 63.6781C88.7444 63.5432 88.7284 63.3886 88.7743 63.2421C88.8196 63.0957 88.9206 62.9751 89.0592 62.9029C89.1971 62.8314 89.3552 62.8164 89.5049 62.86C89.6547 62.9049 89.7773 63.0037 89.8511 63.1386C89.9249 63.2735 89.9409 63.4281 89.895 63.5753C89.8497 63.721 89.7487 63.8416 89.6108 63.9138C89.5244 63.9588 89.4304 63.9813 89.335 63.9813Z" fill="#1A282B"/>
<path fill-rule="evenodd" clip-rule="evenodd" d="M91.9625 62.6811C92.1147 62.9605 92.007 63.3073 91.7212 63.4561C91.4362 63.6057 91.0814 63.5004 90.9285 63.221C90.7762 62.9416 90.8839 62.5948 91.169 62.446C91.4548 62.2971 91.8103 62.4024 91.9625 62.6811Z" fill="#1A282B"/>
<path fill-rule="evenodd" clip-rule="evenodd" d="M91.3252 62.4117C91.2353 62.4117 91.1468 62.4335 91.066 62.4758C90.7984 62.6154 90.6966 62.9431 90.8395 63.2053C90.9092 63.332 91.0249 63.4247 91.1657 63.4669C91.3071 63.5085 91.4563 63.4935 91.5859 63.4261C91.8542 63.2864 91.9559 62.9594 91.8124 62.6972C91.7427 62.5704 91.627 62.4771 91.4862 62.4356L91.3252 62.4117ZM91.3266 63.5241L91.1559 63.4989C91.0061 63.4547 90.8827 63.3559 90.8095 63.221C90.6569 62.9424 90.7649 62.5943 91.05 62.4458C91.1873 62.3742 91.3462 62.3593 91.496 62.4029C91.6458 62.4471 91.7692 62.5459 91.843 62.6815C91.9169 62.8164 91.9323 62.971 91.887 63.1175C91.841 63.2639 91.7399 63.3838 91.6019 63.456C91.5162 63.5017 91.4214 63.5241 91.3266 63.5241Z" fill="#1A282B"/>
<path fill-rule="evenodd" clip-rule="evenodd" d="M94.0699 62.3373C94.2222 62.6159 94.1144 62.9633 93.8293 63.1121C93.5434 63.2616 93.1886 63.1556 93.0364 62.877C92.8834 62.5976 92.9911 62.2509 93.277 62.1022C93.5621 61.9527 93.9176 62.0579 94.0699 62.3373Z" fill="#1A282B"/>
<path fill-rule="evenodd" clip-rule="evenodd" d="M93.5523 61.9541C93.4652 61.9541 93.376 61.9745 93.293 62.0174C93.1634 62.0848 93.0686 62.1978 93.0261 62.336C92.9828 62.4735 92.9975 62.6192 93.0672 62.7458C93.1362 62.8732 93.2519 62.9657 93.3927 63.0073C93.5342 63.0488 93.6826 63.0345 93.813 62.9671C94.0806 62.8275 94.1824 62.5001 94.0395 62.2386C93.9405 62.0569 93.7495 61.9541 93.5523 61.9541ZM93.5537 63.0651L93.3829 63.04C93.2331 62.9957 93.1097 62.897 93.0365 62.7622C92.9626 62.6267 92.9466 62.4722 92.9926 62.3258C93.0379 62.1794 93.139 62.0596 93.277 61.9874C93.5614 61.8376 93.9175 61.9438 94.0702 62.2223C94.2221 62.5008 94.1141 62.8486 93.829 62.9971C93.7433 63.042 93.6492 63.0651 93.5537 63.0651Z" fill="#1A282B"/>
<path fill-rule="evenodd" clip-rule="evenodd" d="M48.2184 56.6513C48.2445 56.6506 48.2858 57.0293 48.3444 57.7129C48.4248 58.4585 48.5306 59.4314 48.6581 60.6041C48.9587 63.1058 49.3599 66.446 49.8039 70.1389C50.2421 73.8658 50.5912 77.2463 50.7549 79.7009C50.8411 80.9275 50.8788 81.9229 50.8875 82.6106C50.8882 83.2996 50.8766 83.6796 50.8498 83.6796C50.8244 83.6803 50.7868 83.301 50.7412 82.6167C50.6868 81.9324 50.6093 80.9425 50.4891 79.7207C50.258 77.2763 49.8669 73.904 49.4294 70.1777C48.992 66.4535 48.6066 63.0779 48.3923 60.628C48.2836 59.4027 48.2235 58.4087 48.1974 57.721C48.1844 57.032 48.1931 56.652 48.2184 56.6513Z" fill="#1A282B"/>
<path fill-rule="evenodd" clip-rule="evenodd" d="M52.8702 61.3469C52.9639 61.3738 52.3884 63.6264 51.585 66.3774C50.7808 69.1292 50.0533 71.3372 49.9597 71.3102C49.866 71.2832 50.4415 69.0314 51.2457 66.2789C52.0491 63.5286 52.7766 61.3199 52.8702 61.3469Z" fill="#1A282B"/>
<path fill-rule="evenodd" clip-rule="evenodd" d="M68.4096 74.4019C68.3727 74.4203 68.1612 74.0946 67.9611 73.5005C67.761 72.9092 67.6023 72.0399 67.6599 71.0779C67.7208 70.1166 67.9845 69.2739 68.2563 68.7132C68.5274 68.1491 68.7777 67.8527 68.8118 67.8759C68.9102 67.9249 68.107 69.25 68.008 71.1004C67.8788 72.948 68.5133 74.3658 68.4096 74.4019Z" fill="#1A282B"/>
<path d="M39.9548 125.524L8.7173 126.823L12.6906 96.0085L12.6978 95.9527L12.6804 95.8992L1.55452 61.6629L1.55454 61.6629L1.55343 61.6596C0.274925 57.9033 1.66121 53.7686 4.96964 51.4853L19.2216 42.5867L33.1029 74.6613C33.1031 74.6617 33.1032 74.6622 33.1034 74.6626C34.8566 78.8504 35.9993 83.2595 36.4978 87.7599L39.1973 112.148L39.9548 125.524Z" fill="#02A7E9" stroke="black" stroke-width="0.5"/>
<path d="M65.0411 107.745L65.3209 107.809L65.3465 107.523L66.3734 96.0541L66.3905 95.8632L66.2107 95.7971L35.5189 84.5191L20.0788 55.5695C20.0788 55.5695 20.0788 55.5695 20.0788 55.5694C17.6551 51.0234 11.8132 49.4236 7.32654 52.0667C3.20558 54.4936 1.73108 59.6428 3.97118 63.8112L18.5023 93.5141C19.7099 95.9827 21.9949 97.783 24.7159 98.4125L65.0411 107.745Z" fill="#02A7E9" stroke="black" stroke-width="0.5"/>
<path fill-rule="evenodd" clip-rule="evenodd" d="M59.2093 103.15C59.2093 103.466 58.9464 103.722 58.6232 103.722C58.2993 103.722 58.0371 103.466 58.0371 103.15C58.0371 102.833 58.2993 102.577 58.6232 102.577C58.9464 102.577 59.2093 102.833 59.2093 103.15Z" fill="#1A282B"/>
<path fill-rule="evenodd" clip-rule="evenodd" d="M58.6232 102.496C58.3194 102.496 58.072 102.738 58.072 103.035C58.072 103.332 58.3194 103.574 58.6232 103.574C58.9271 103.574 59.1745 103.332 59.1745 103.035C59.1745 102.738 58.9271 102.496 58.6232 102.496ZM58.6232 103.608C58.2998 103.608 58.0371 103.351 58.0371 103.035C58.0371 102.719 58.2998 102.462 58.6232 102.462C58.9466 102.462 59.2093 102.719 59.2093 103.035C59.2093 103.351 58.9466 103.608 58.6232 103.608Z" fill="#1A282B"/>
<path fill-rule="evenodd" clip-rule="evenodd" d="M61.4378 103.722C61.4378 104.039 61.1751 104.295 60.8514 104.295C60.5284 104.295 60.2656 104.039 60.2656 103.722C60.2656 103.406 60.5284 103.15 60.8514 103.15C61.1751 103.15 61.4378 103.406 61.4378 103.722Z" fill="#1A282B"/>
<path fill-rule="evenodd" clip-rule="evenodd" d="M60.851 103.184C60.5472 103.184 60.2998 103.425 60.2998 103.722C60.2998 104.019 60.5472 104.261 60.851 104.261C61.1556 104.261 61.403 104.019 61.403 103.722C61.403 103.425 61.1556 103.184 60.851 103.184ZM60.851 104.295C60.5284 104.295 60.2656 104.038 60.2656 103.722C60.2656 103.406 60.5284 103.15 60.851 103.15C61.1744 103.15 61.4378 103.406 61.4378 103.722C61.4378 104.038 61.1744 104.295 60.851 104.295Z" fill="#1A282B"/>
<path fill-rule="evenodd" clip-rule="evenodd" d="M63.4276 104.18C63.4276 104.497 63.1647 104.753 62.8415 104.753C62.5175 104.753 62.2554 104.497 62.2554 104.18C62.2554 103.863 62.5175 103.607 62.8415 103.607C63.1647 103.607 63.4276 103.863 63.4276 104.18Z" fill="#1A282B"/>
<path fill-rule="evenodd" clip-rule="evenodd" d="M62.8415 103.755C62.5376 103.755 62.2902 103.997 62.2902 104.294C62.2902 104.591 62.5376 104.833 62.8415 104.833C63.1453 104.833 63.3927 104.591 63.3927 104.294C63.3927 103.997 63.1453 103.755 62.8415 103.755ZM62.8415 104.867C62.5181 104.867 62.2554 104.61 62.2554 104.294C62.2554 103.978 62.5181 103.721 62.8415 103.721C63.1648 103.721 63.4276 103.978 63.4276 104.294C63.4276 104.61 63.1648 104.867 62.8415 104.867Z" fill="#1A282B"/>
<path fill-rule="evenodd" clip-rule="evenodd" d="M32.4809 105.671C32.4948 105.691 32.3242 105.832 32.0025 106.067C31.68 106.302 31.2077 106.632 30.6107 107.024C29.4165 107.798 27.7148 108.848 25.6212 109.566C23.5249 110.283 21.4577 110.378 20.0298 110.115C19.3142 109.99 18.7525 109.81 18.3821 109.65C18.0104 109.492 17.8197 109.377 17.8295 109.357C17.8544 109.294 18.6609 109.688 20.068 109.867C21.4653 110.06 23.4597 109.93 25.5033 109.232C27.5476 108.532 29.2494 107.53 30.4734 106.812C31.6953 106.085 32.4518 105.627 32.4809 105.671Z" fill="#1A282B"/>
<path fill-rule="evenodd" clip-rule="evenodd" d="M34.3111 109.562C34.323 109.559 34.357 109.647 34.4113 109.817C34.4711 109.985 34.5323 110.24 34.5963 110.573C34.7187 111.238 34.7841 112.232 34.5685 113.433C34.341 114.624 33.809 116.028 32.7602 117.295C31.7274 118.568 30.1355 119.61 28.282 120.118C26.4244 120.616 24.5056 120.524 22.9414 119.955C21.3676 119.399 20.1616 118.465 19.3305 117.56C18.5043 116.642 18.0292 115.758 17.7782 115.129C17.6551 114.812 17.5709 114.564 17.532 114.389C17.4875 114.216 17.4694 114.125 17.4819 114.122C17.5674 114.075 17.8526 115.629 19.5204 117.394C20.3522 118.252 21.5359 119.132 23.0534 119.65C24.5598 120.18 26.398 120.258 28.1847 119.78C29.9665 119.291 31.4965 118.301 32.5015 117.09C33.5232 115.885 34.0642 114.537 34.3174 113.385C34.8001 111.038 34.2131 109.565 34.3111 109.562Z" fill="#1A282B"/>
<path d="M29.0004 48.1855C33.2426 47.9665 36.5706 44.5257 36.5511 40.3628C36.5435 38.7647 36.54 37.403 36.5459 36.8861C36.5708 36.8823 36.5976 36.8781 36.6262 36.8734C36.8139 36.8427 37.0808 36.7917 37.4018 36.7102C38.0431 36.5475 38.9048 36.262 39.7829 35.7703C41.5459 34.7831 43.3761 32.9612 43.6105 29.6621C43.831 26.5592 43.7524 20.1484 43.6132 14.3648C43.4601 8.01409 38.3343 2.85461 31.8557 2.49437C31.8557 2.49437 31.8556 2.49437 31.8556 2.49436L31.2238 2.45898L31.2167 2.45858L31.2095 2.45859C27.7164 2.46311 24.9834 3.91934 23.1541 6.23371C21.3297 8.54189 20.4147 11.689 20.5147 15.0719L20.6067 40.4296C20.6225 44.8912 24.4552 48.4212 29.0004 48.1855ZM29.0004 48.1855L28.9876 47.9377L29.0004 48.1855C29.0004 48.1855 29.0004 48.1855 29.0004 48.1855Z" fill="#F4F8FF" stroke="black" stroke-width="0.5"/>
<path fill-rule="evenodd" clip-rule="evenodd" d="M36.35 36.7502C36.35 36.7502 32.2298 36.8497 28.0273 33.86C28.0273 33.86 29.7605 38.6497 36.2692 38.434L36.35 36.7502Z" fill="#272727"/>
<path fill-rule="evenodd" clip-rule="evenodd" d="M41.8597 18.2887C41.8485 18.7943 41.4206 19.2029 40.9019 19.2015C40.3853 19.1993 39.9741 18.7886 39.9846 18.2822C39.9957 17.7759 40.4237 17.3673 40.941 17.3687C41.459 17.3701 41.8702 17.7823 41.8597 18.2887Z" fill="#1A282B"/>
<path fill-rule="evenodd" clip-rule="evenodd" d="M42.078 17.238C41.9579 17.3577 41.2933 16.7727 40.3073 16.7164C39.3234 16.6443 38.5714 17.137 38.4718 17.0035C38.422 16.9436 38.5503 16.7222 38.8785 16.4993C39.2012 16.2764 39.7423 16.0737 40.3565 16.1133C40.9699 16.1537 41.4735 16.4235 41.7566 16.6861C42.0466 16.9501 42.1374 17.1846 42.078 17.238Z" fill="#1A282B"/>
<path fill-rule="evenodd" clip-rule="evenodd" d="M32.012 18.2879C32.0016 18.795 31.5728 19.2029 31.0546 19.2015C30.5371 19.1993 30.1264 18.7886 30.1369 18.2822C30.1474 17.7752 30.5762 17.3666 31.0937 17.3687C31.6119 17.3701 32.0232 17.7816 32.012 18.2879Z" fill="#1A282B"/>
<path fill-rule="evenodd" clip-rule="evenodd" d="M31.9974 17.0094C31.8766 17.1291 31.2113 16.5443 30.226 16.4881C29.2428 16.4167 28.4909 16.9084 28.3906 16.7743C28.3415 16.7145 28.4684 16.4939 28.7973 16.2711C29.12 16.0483 29.6618 15.8457 30.2752 15.8846C30.8886 15.9257 31.3921 16.1954 31.676 16.4578C31.9646 16.7217 32.056 16.956 31.9974 17.0094Z" fill="#1A282B"/>
<path fill-rule="evenodd" clip-rule="evenodd" d="M35.1782 24.7219C35.1768 24.6657 35.8303 24.5937 36.8858 24.5239C37.1531 24.5115 37.4074 24.4752 37.4629 24.3053C37.5364 24.1258 37.4413 23.8476 37.3303 23.5469C37.117 22.922 36.8944 22.2671 36.6595 21.5806C35.733 18.7819 35.0781 16.4867 35.197 16.4525C35.3158 16.4175 36.1631 18.6579 37.0904 21.4566C37.3123 22.1458 37.5256 22.8035 37.7273 23.4325C37.8102 23.725 37.9643 24.06 37.8051 24.4314C37.723 24.6163 37.5191 24.7431 37.3469 24.7773C37.1732 24.8178 37.0234 24.8123 36.8915 24.8123C35.8331 24.8089 35.1789 24.7787 35.1782 24.7219Z" fill="#1A282B"/>
<path fill-rule="evenodd" clip-rule="evenodd" d="M32.4753 14.7528C32.3587 15.005 31.3473 14.8294 30.143 14.8995C28.9359 14.9473 27.9513 15.2218 27.8065 14.9821C27.7422 14.8681 27.9259 14.6355 28.3313 14.4069C28.7332 14.1783 29.3646 13.9753 30.0879 13.9386C30.8112 13.9039 31.4624 14.0447 31.8883 14.232C32.3171 14.4194 32.5261 14.6329 32.4753 14.7528Z" fill="#1A282B"/>
<path fill-rule="evenodd" clip-rule="evenodd" d="M41.9457 14.7723C41.7581 14.9763 41.0876 14.7177 40.2665 14.6632C39.4476 14.5813 38.7399 14.7249 38.5936 14.493C38.5297 14.3812 38.652 14.1733 38.9687 13.9882C39.2799 13.8037 39.7911 13.6666 40.3552 13.7128C40.9185 13.7602 41.3967 13.9798 41.6695 14.2136C41.9464 14.4481 42.0288 14.6722 41.9457 14.7723Z" fill="#1A282B"/>
<path d="M21.1111 20.059L21.3611 20.063L21.3637 19.9042L21.2209 19.8344C21.1857 19.8172 21.0881 19.7831 20.9639 19.7466C20.8309 19.7076 20.6483 19.6603 20.4323 19.6194C20.0029 19.5379 19.4295 19.4789 18.8487 19.5671C18.2656 19.6556 17.6621 19.8949 17.1986 20.4204C16.735 20.9459 16.4375 21.7283 16.4088 22.8521L16.4088 22.8521C16.3803 23.9788 16.6479 24.8007 17.0899 25.3886C17.531 25.9753 18.1274 26.3045 18.7135 26.4806C19.298 26.6561 19.8814 26.6824 20.3177 26.658C20.5363 26.6458 20.7223 26.6205 20.8579 26.593C20.9247 26.5794 20.9849 26.5641 21.0326 26.5476C21.0551 26.5398 21.0845 26.5284 21.1127 26.5123C21.1262 26.5045 21.1495 26.4901 21.1729 26.4674C21.1916 26.4492 21.2434 26.3942 21.2514 26.3038C21.2552 26.2613 21.2634 25.8411 21.274 25.2618C21.2847 24.6724 21.2979 23.8983 21.3108 23.1282C21.3237 22.358 21.3363 21.5917 21.3457 21.018L21.3569 20.3253L21.36 20.1316L21.3608 20.0805L21.361 20.0674L21.3611 20.0641L21.3611 20.0633L21.3611 20.0631L21.1111 20.059Z" fill="#F4F8FF" stroke="black" stroke-width="0.5"/>
<path fill-rule="evenodd" clip-rule="evenodd" d="M19.818 24.586C19.7982 24.5719 19.7367 24.637 19.6018 24.692C19.4697 24.7457 19.2443 24.7793 19.009 24.69C18.5328 24.5108 18.1478 23.7765 18.1464 22.9973C18.1449 22.6039 18.2417 22.2314 18.3965 21.9247C18.5434 21.6126 18.7646 21.3965 19.0076 21.3616C19.2492 21.3146 19.4167 21.4562 19.4697 21.579C19.5276 21.7012 19.4958 21.7871 19.5198 21.7945C19.5325 21.8059 19.6194 21.7247 19.5876 21.5455C19.5714 21.4595 19.5205 21.3562 19.416 21.2703C19.3093 21.1837 19.1496 21.1367 18.9807 21.1501C18.6296 21.1649 18.3053 21.4636 18.135 21.8005C17.9457 22.1375 17.8277 22.5563 17.8291 22.9979C17.8355 23.8692 18.2827 24.6947 18.9355 24.8914C19.2535 24.978 19.5226 24.8927 19.6632 24.7941C19.8067 24.6907 19.8335 24.5947 19.818 24.586Z" fill="#272727"/>
<path fill-rule="evenodd" clip-rule="evenodd" d="M18.7741 19.6921C19.4621 19.5685 20.6011 20.2489 20.854 20.8879C21.1076 21.5268 21.1305 22.2364 21.3827 22.8761C21.6349 23.515 22.2543 24.1153 22.9437 23.9958C23.4183 23.9136 23.7786 23.5021 23.9289 23.0519C24.0793 22.6031 24.0571 22.1176 24.0239 21.6464C23.8804 19.5936 23.5603 17.5491 23.5964 15.4923C23.6324 13.4355 24.0543 11.321 25.2558 9.63364C26.4565 7.94693 28.551 6.77424 30.6296 7.05604C32.007 7.24277 33.2347 8.02026 34.5983 8.28576C36.2147 8.60083 37.9704 8.13298 39.2024 7.06011C39.2439 7.02344 39.325 6.96844 39.422 6.90665C39.8717 6.61942 40.0975 6.07009 39.9299 5.56964C39.873 5.39988 39.7954 5.24303 39.6915 5.13778C37.1085 2.51401 32.2349 1.54911 28.5815 2.23628C24.928 2.92346 21.4069 5.22741 19.6644 8.44873C17.9225 11.67 18.1151 16.297 18.7741 19.6921Z" fill="#1A282B"/>
<path fill-rule="evenodd" clip-rule="evenodd" d="M32.7674 25.3857C32.9328 25.376 32.935 26.4576 33.8775 27.2247C34.8187 27.9953 35.9929 27.8737 36.0013 28.0243C36.0168 28.0928 35.7395 28.2344 35.2446 28.2476C34.7582 28.2641 34.0479 28.1107 33.4714 27.6415C32.8962 27.1708 32.6491 26.5426 32.6111 26.0989C32.5689 25.647 32.6921 25.3788 32.7674 25.3857Z" fill="#1A282B"/>
<path d="M95.2674 61.1958L95.4307 61.3851L95.2675 61.1957L95.2677 61.1955L95.2684 61.1949L95.2711 61.1926L95.2817 61.1834L95.3232 61.1478L95.4812 61.0124C95.6178 60.8956 95.8138 60.7286 96.0518 60.5272C96.5279 60.1244 97.1727 59.584 97.8469 59.0336C98.5207 58.4835 99.2258 57.922 99.8221 57.4777C100.12 57.2557 100.393 57.0612 100.623 56.9115C100.846 56.7664 101.049 56.6494 101.199 56.5992L95.2674 61.1958ZM95.2674 61.1958L95.1126 61.3292M95.2674 61.1958L95.1126 61.3292M95.1126 61.3292L95.2127 61.5075M95.1126 61.3292L95.2127 61.5075M95.2127 61.5075L99.301 68.7899L99.4041 68.9735M95.2127 61.5075L99.4041 68.9735M99.4041 68.9735L99.6025 68.9031M99.4041 68.9735L99.6025 68.9031M99.6025 68.9031L99.519 68.6675L99.6025 68.9031ZM111.683 67.6275C111.995 67.3601 112.094 66.9049 111.861 66.4657L106.928 65.0769C107.067 65.0208 107.173 64.9974 107.238 64.9875C107.248 64.9861 107.257 64.985 107.264 64.9841C107.412 65.0819 107.628 65.253 107.889 65.4727C108.184 65.7213 108.523 66.0201 108.858 66.3179C108.909 66.3623 108.959 66.4068 109.008 66.451C109.291 66.7021 109.567 66.9469 109.804 67.151C110.076 67.3853 110.318 67.5838 110.463 67.6708L110.463 67.6708C110.901 67.9341 111.373 67.8923 111.683 67.6275ZM110.374 59.7561C110.412 59.777 110.464 59.8056 110.53 59.8407C110.676 59.919 110.885 60.0301 111.14 60.1613C111.649 60.4237 112.342 60.7675 113.075 61.0924C113.807 61.4165 114.586 61.7251 115.265 61.9137C115.604 62.0079 115.926 62.0744 116.209 62.0959C116.486 62.117 116.757 62.0978 116.972 61.9908L116.972 61.9908C117.099 61.9276 117.207 61.821 117.24 61.6636C117.269 61.5201 117.225 61.3836 117.17 61.2752C117.06 61.0599 116.835 60.8241 116.565 60.5867C116.013 60.1025 115.163 59.5205 114.272 58.9547C113.378 58.3868 112.43 57.8276 111.676 57.3885C111.494 57.2829 111.325 57.1846 111.17 57.0948C111.002 56.9973 110.851 56.9097 110.72 56.8335C110.464 56.6836 110.307 56.5888 110.257 56.5528L110.257 56.5527C110.181 56.4974 110.078 56.4681 109.995 56.449C109.901 56.4272 109.785 56.4089 109.655 56.3932C109.394 56.3615 109.053 56.3379 108.661 56.3209C107.876 56.287 106.87 56.2794 105.852 56.2929C104.835 56.3064 103.803 56.3411 102.966 56.3919C102.547 56.4174 102.175 56.447 101.877 56.4803C101.587 56.5128 101.344 56.5509 101.199 56.5992L110.374 59.7561Z" fill="#F4F8FF" stroke="black" stroke-width="0.5"/>
<path fill-rule="evenodd" clip-rule="evenodd" d="M94.7271 60.3475L96.7549 59.6296L101.409 69.1203L99.428 69.937L94.7271 60.3475Z" fill="#B6EAFF" stroke="black" stroke-width="0.5"/>
<path fill-rule="evenodd" clip-rule="evenodd" d="M116.765 61.7659C116.763 61.8128 116.152 61.8514 115.184 61.6672C114.703 61.5734 114.135 61.4189 113.53 61.1747C112.949 60.8994 112.32 60.58 111.658 60.2454C111.171 59.9943 110.701 59.7522 110.257 59.5231L110.349 59.5459C108.157 59.5673 106.569 59.5266 106.566 59.439C106.564 59.3507 108.148 59.2431 110.344 59.172L110.388 59.1706L110.436 59.1941C110.879 59.4162 111.347 59.6508 111.831 59.8943C112.475 60.2254 113.088 60.5421 113.672 60.8421C114.247 61.096 114.787 61.2726 115.248 61.3975C116.171 61.6451 116.769 61.7059 116.765 61.7659Z" fill="#D8D8D8"/>
<path d="M67.9652 97.3676L67.8051 97.4049L67.7759 97.5667L66.3223 105.633L66.2826 105.854L66.4975 105.917L73.0284 107.848L73.1188 107.925C73.203 107.997 73.3242 108.101 73.4727 108.226C73.7697 108.476 74.1762 108.815 74.6141 109.168C75.0516 109.52 75.5222 109.887 75.9468 110.195C76.3655 110.497 76.7579 110.756 77.0331 110.876L77.0331 110.876C77.3708 111.023 77.6853 110.957 77.9424 110.794C78.1884 110.639 78.3879 110.394 78.5409 110.157C78.6962 109.918 78.8166 109.666 78.8976 109.478C78.9228 109.419 78.9444 109.366 78.9623 109.32L79.5088 109.313C80.2142 109.391 80.761 108.955 81.1051 108.562C81.2831 108.358 81.4202 108.151 81.5126 107.996C81.5491 107.935 81.5789 107.882 81.6018 107.839C82.3387 107.651 82.8226 107.363 83.1106 107.004C83.4183 106.621 83.4756 106.192 83.4227 105.808C83.3999 105.643 83.3568 105.485 83.3038 105.339C83.3773 105.372 83.4541 105.403 83.5334 105.431C83.845 105.539 84.2128 105.601 84.5847 105.512C84.9639 105.421 85.318 105.18 85.6056 104.737C85.8184 104.409 85.6916 104.002 85.493 103.647C85.2827 103.27 84.9309 102.841 84.4958 102.387C83.6227 101.477 82.3675 100.42 81.0893 99.4192C79.8091 98.4171 78.4975 97.4653 77.5066 96.7645C77.011 96.414 76.5952 96.1259 76.3033 95.9255C76.1573 95.8253 76.0422 95.7469 75.9636 95.6936L75.8736 95.6327L75.8504 95.617L75.8445 95.613L75.843 95.612L75.8426 95.6118C75.8425 95.6117 75.8424 95.6116 75.7031 95.8192L75.8424 95.6116L75.7522 95.5511L75.6463 95.5758L67.9652 97.3676Z" fill="#F4F8FF" stroke="black" stroke-width="0.5"/>
<path fill-rule="evenodd" clip-rule="evenodd" d="M66.0855 96.6623L68.0236 97.1368L66.57 106.627L64.6318 106.152L66.0855 96.6623Z" fill="#B6EAFF" stroke="black" stroke-width="0.5"/>
<path d="M72.861 107.344L73.3407 109.386L73.405 109.659L73.1256 109.691L73.0973 109.443L73.1256 109.691L73.1255 109.691L73.1252 109.691L73.1241 109.691L73.12 109.692L73.1041 109.693L73.044 109.7C72.9922 109.706 72.9177 109.713 72.8269 109.722C72.6454 109.74 72.3976 109.762 72.1333 109.78C71.8696 109.798 71.5866 109.812 71.3354 109.812C71.0927 109.813 70.8524 109.801 70.6898 109.758C69.8771 109.541 69.5732 108.832 69.5186 108.146C69.4642 107.462 69.6436 106.721 69.8791 106.266L72.861 107.344ZM72.861 107.344C72.8737 107.329 72.8876 107.314 72.9027 107.297C72.9814 107.208 73.091 107.086 73.2147 106.953C73.4652 106.682 73.763 106.376 73.9785 106.196L73.9785 106.196C74.1677 106.039 74.231 105.794 74.2287 105.576C74.2263 105.352 74.1563 105.111 74.0247 104.905C73.8921 104.698 73.6896 104.516 73.4179 104.434C73.1459 104.351 72.8328 104.376 72.4947 104.531L72.4773 104.538C72.4613 104.545 72.4381 104.554 72.4087 104.566C72.3498 104.59 72.2656 104.625 72.1634 104.669C71.9594 104.758 71.6822 104.886 71.3904 105.04C71.0995 105.194 70.789 105.378 70.5209 105.579C70.2579 105.777 70.0124 106.009 69.8792 106.266L72.861 107.344Z" fill="#F4F8FF" stroke="black" stroke-width="0.5"/>
<path d="M75.696 110.038L75.6646 109.79L75.6961 110.038L76.0524 109.993L75.8862 109.674L75.6733 109.266C75.4684 108.874 75.3479 108.563 75.344 108.303C75.3405 108.071 75.4292 107.852 75.7352 107.629L75.746 107.621L75.7559 107.612L76.2306 107.182L76.2306 107.182L76.233 107.179C76.4042 107.02 76.4601 106.783 76.456 106.572C76.4517 106.354 76.3845 106.12 76.2565 105.92C76.1273 105.717 75.93 105.541 75.6635 105.461C75.3974 105.382 75.0911 105.409 74.759 105.559L74.7419 105.565C74.7262 105.571 74.7033 105.58 74.6743 105.592C74.6163 105.615 74.5335 105.649 74.4329 105.692C74.232 105.779 73.959 105.903 73.6717 106.053C73.3853 106.202 73.0794 106.381 72.8153 106.576C72.5564 106.768 72.3137 106.994 72.1817 107.246C71.9359 107.714 71.8986 108.327 72.103 108.871C72.3108 109.425 72.7692 109.908 73.5059 110.103L73.5059 110.103C73.6652 110.145 73.8873 110.156 74.1086 110.155C74.3368 110.155 74.5897 110.141 74.8232 110.124C75.0574 110.107 75.2752 110.085 75.4344 110.068C75.514 110.06 75.5791 110.052 75.6245 110.047L75.6771 110.04L75.691 110.039L75.6947 110.038L75.6957 110.038L75.6959 110.038L75.696 110.038Z" fill="#F4F8FF" stroke="black" stroke-width="0.5"/>
<path fill-rule="evenodd" clip-rule="evenodd" d="M75.4753 109.672C75.0975 109.335 75.0609 108.734 75.3072 108.299C75.5528 107.863 76.026 107.58 76.5213 107.444C76.8472 107.355 77.2505 107.343 77.4684 107.594C77.6089 107.755 77.6303 107.985 77.6013 108.194C77.5238 108.748 77.1495 109.216 76.7884 109.653C76.596 109.887 76.3581 110.142 76.0495 110.135C75.7333 110.127 75.5064 109.848 75.3286 109.597" fill="#F4F8FF"/>
<path fill-rule="evenodd" clip-rule="evenodd" d="M31.3516 45.6471L33.2114 44.9695L34.8256 47.7427L33.9272 50.7024L32.0291 51.154L30.1367 48.8609L31.3516 45.6471Z" fill="#02A7E9"/>
<path fill-rule="evenodd" clip-rule="evenodd" d="M32.0142 51.1471C32.0142 51.1471 34.3948 63.8865 36.3794 72.8472C36.3794 72.8472 38.0071 80.3067 38.6663 82.0272C39.4018 83.9479 41.6656 86.8197 41.6656 86.8197L43.9707 87.6878L42.5627 75.0968L33.8903 50.6957L32.0142 51.1471Z" fill="#02A7E9"/>
<path fill-rule="evenodd" clip-rule="evenodd" d="M32.0291 51.154L30.1367 48.8609L31.3516 45.6471L33.2114 44.9695L34.8256 47.7427L33.9272 50.7024L32.0291 51.154Z" fill="#004DD1"/>
<path fill-rule="evenodd" clip-rule="evenodd" d="M39.3119 83.2219C39.0418 82.7438 38.8428 82.3324 38.7837 82.0762C38.9173 82.4342 39.1009 82.8238 39.3119 83.2219Z" fill="#8C8D89"/>
<path fill-rule="evenodd" clip-rule="evenodd" d="M43.9707 87.6878L41.6656 86.8197C41.6656 86.8197 40.061 84.6383 39.1919 83.1383C38.9819 82.7523 38.7993 82.3744 38.6663 82.0272C38.2437 80.2372 36.3794 72.8472 36.3794 72.8472C34.3948 63.8865 32.0142 51.1471 32.0142 51.1471L33.8903 50.6957L42.5627 75.0968L43.9707 87.6878Z" fill="#004DD1"/>
<path d="M19.4053 42.0033L20.6394 38.3803L31.2427 45.8585L29.0604 51.7311L19.4053 42.0033Z" fill="white" stroke="black" stroke-width="0.5"/>
<path d="M33.0746 44.8784L33.0248 44.9882L33.0797 45.0955L35.4743 49.779L35.7217 50.2628L35.9282 49.7602L38.3395 43.8914L38.3738 43.8081L38.347 43.7221L36.6109 38.1383L36.4158 37.5109L36.1445 38.1093L33.0746 44.8784Z" fill="white" stroke="black" stroke-width="0.5"/>
<path fill-rule="evenodd" clip-rule="evenodd" d="M31.5391 45.7267C31.5572 45.7335 31.5125 45.9047 31.4146 46.2164C31.2908 46.5859 31.1425 47.0274 30.9684 47.5484C30.5739 48.6847 29.9991 50.2857 29.313 52.1549L29.2186 52.4137L29.027 52.2085C28.229 51.3548 27.3611 50.4249 26.4547 49.4536C24.4559 47.2991 22.6621 45.3362 21.3773 43.903C20.7787 43.2251 20.2744 42.6532 19.8695 42.1941C19.5198 41.7852 19.3345 41.5508 19.3534 41.5345C19.3722 41.5182 19.5925 41.7207 19.9744 42.1017C20.4031 42.5405 20.936 43.0873 21.5682 43.7352C22.9019 45.1256 24.7266 47.0627 26.7253 49.2166C27.6254 50.1933 28.4877 51.1279 29.2801 51.9871L28.9934 52.0415C29.7039 50.1811 30.3222 48.5958 30.7712 47.4791C30.9824 46.9704 31.1607 46.5404 31.3097 46.1791C31.4412 45.8789 31.5209 45.7206 31.5391 45.7267Z" fill="#1A282B"/>
<path fill-rule="evenodd" clip-rule="evenodd" d="M38.1017 43.9391C38.1479 43.9571 37.9478 44.543 37.5861 45.4762C37.2252 46.4095 36.7026 47.6888 36.1044 49.0943C36.0163 49.3014 35.9288 49.5058 35.8456 49.7002L35.6644 50.1231L35.5077 49.6922C34.573 47.1296 33.2137 45.4328 33.3068 45.376C33.3404 45.352 33.7188 45.7441 34.2281 46.4729C34.7374 47.1991 35.3601 48.2766 35.8491 49.5773L35.5105 49.57C35.593 49.3756 35.6791 49.1711 35.7672 48.9641C36.3654 47.5585 36.9257 46.2926 37.3476 45.3834C37.7701 44.4742 38.0549 43.9211 38.1017 43.9391Z" fill="#1A282B"/>
<path d="M177.952 244.828L178.022 245.1L182.249 261.527L189.415 273.57L189.416 273.57C190.009 274.569 189.613 275.848 188.563 276.357L188.563 276.357C187.975 276.641 187.289 276.634 186.711 276.328C186.711 276.328 186.711 276.328 186.711 276.328L186.828 276.107C183.602 274.402 171.767 268.075 171.526 266.853L177.952 244.828ZM177.952 244.828L177.69 244.93M177.952 244.828L177.69 244.93M177.69 244.93L165.79 249.547L165.566 249.634M177.69 244.93L165.566 249.634M165.566 249.634L165.644 249.861M165.566 249.634L165.644 249.861M165.644 249.861L165.881 249.78L165.644 249.861Z" fill="#02A7E9" stroke="black" stroke-width="0.5"/>
<path fill-rule="evenodd" clip-rule="evenodd" d="M187.559 276.314C187.267 276.314 186.975 276.244 186.711 276.105C177.763 271.393 173.825 268.933 172.42 268.012C172.139 267.828 171.899 267.594 171.711 267.326C173.458 269.097 183.782 274.539 186.762 276.091C187.023 276.227 187.309 276.295 187.597 276.295C187.867 276.295 188.137 276.235 188.387 276.115C188.128 276.248 187.844 276.314 187.559 276.314ZM171.413 266.764C171.391 266.702 171.369 266.639 171.351 266.576C171.355 266.576 171.358 266.576 171.361 266.576C171.381 266.645 171.399 266.708 171.413 266.764ZM171.272 266.274C171.269 266.274 171.268 266.274 171.265 266.274L171.155 265.892C171.198 266.03 171.237 266.157 171.272 266.274Z" fill="#FFFFFE"/>
<path fill-rule="evenodd" clip-rule="evenodd" d="M171.429 266.506C171.427 266.501 171.426 266.496 171.424 266.491L171.341 266.196C171.345 266.196 171.346 266.196 171.349 266.196C171.384 266.31 171.413 266.413 171.439 266.506C171.436 266.506 171.433 266.506 171.429 266.506Z" fill="#A1A7A6"/>
<path fill-rule="evenodd" clip-rule="evenodd" d="M187.598 276.199C187.31 276.199 187.023 276.131 186.762 275.995C183.783 274.442 173.461 268.997 171.715 267.225C171.593 267.051 171.493 266.861 171.417 266.662C171.402 266.606 171.385 266.544 171.365 266.474C171.339 266.384 171.31 266.283 171.276 266.172C171.241 266.055 171.202 265.928 171.159 265.79L171.155 265.777L188.387 276.019C188.137 276.139 187.867 276.199 187.598 276.199Z" fill="#B6EAFF"/>
<path fill-rule="evenodd" clip-rule="evenodd" d="M172.857 261.54C172.766 261.54 172.675 261.527 172.587 261.498C172.098 261.342 171.711 260.671 171.914 260.209C172.067 259.862 172.505 259.593 172.899 259.593C173.029 259.593 173.155 259.623 173.264 259.689C173.696 259.891 173.953 260.417 173.813 260.867C173.691 261.262 173.273 261.54 172.857 261.54Z" fill="#B6EAFF"/>
<path fill-rule="evenodd" clip-rule="evenodd" d="M182.689 270.014C182.795 270.034 182.928 269.075 183.778 268.343C184.606 267.587 185.58 267.568 185.572 267.461C185.575 267.417 185.331 267.347 184.931 267.399C184.534 267.448 183.993 267.655 183.529 268.064C183.067 268.476 182.797 268.987 182.702 269.374C182.604 269.763 182.645 270.012 182.689 270.014Z" fill="#1A282B"/>
<path fill-rule="evenodd" clip-rule="evenodd" d="M184.302 271.96C184.403 272.009 184.797 271.334 185.608 270.86C186.408 270.368 187.214 270.324 187.212 270.215C187.237 270.119 186.317 269.99 185.402 270.546C184.48 271.091 184.2 271.939 184.302 271.96Z" fill="#1A282B"/>
<path fill-rule="evenodd" clip-rule="evenodd" d="M179.607 267.836C179.708 267.893 180.301 266.852 181.48 266.007C182.647 265.144 183.843 264.883 183.815 264.774C183.818 264.68 182.503 264.788 181.25 265.71C179.988 266.619 179.513 267.812 179.607 267.836Z" fill="#1A282B"/>
<path fill-rule="evenodd" clip-rule="evenodd" d="M177.723 263.021C177.795 263.105 178.617 262.487 179.813 262.126C181.005 261.748 182.048 261.788 182.055 261.679C182.078 261.588 180.977 261.373 179.695 261.776C178.411 262.168 177.647 262.96 177.723 263.021Z" fill="#1A282B"/>
<path fill-rule="evenodd" clip-rule="evenodd" d="M176.555 258.099C176.633 258.18 177.396 257.377 178.665 257.087C179.926 256.77 180.972 257.14 181.003 257.032C181.021 256.99 180.783 256.833 180.343 256.718C179.905 256.603 179.258 256.56 178.577 256.722C177.896 256.887 177.339 257.217 177.002 257.519C176.661 257.821 176.52 258.069 176.555 258.099Z" fill="#1A282B"/>
<path fill-rule="evenodd" clip-rule="evenodd" d="M178.302 256.253C178.323 256.248 178.299 256.019 178.15 255.633C178.001 255.25 177.719 254.703 177.19 254.16C176.924 253.908 176.626 253.57 176.098 253.482C175.836 253.436 175.502 253.571 175.365 253.839C175.228 254.1 175.242 254.383 175.309 254.642C175.621 255.668 176.814 256.419 178.049 256.248C179.283 256.053 180.178 255.098 180.4 254.081C180.438 253.823 180.429 253.521 180.222 253.282C180.016 253.04 179.645 253.021 179.417 253.125C178.941 253.33 178.707 253.692 178.474 253.976C178.027 254.58 177.805 255.148 177.693 255.543C177.582 255.94 177.574 256.168 177.595 256.172C177.666 256.2 177.792 255.262 178.689 254.134C178.92 253.868 179.181 253.539 179.529 253.412C179.698 253.348 179.868 253.375 179.968 253.494C180.069 253.609 180.092 253.821 180.054 254.027C179.859 254.862 179.039 255.733 177.994 255.882C176.954 256.037 175.906 255.375 175.648 254.551C175.589 254.352 175.587 254.137 175.662 253.989C175.737 253.843 175.892 253.768 176.063 253.787C176.425 253.826 176.74 254.109 176.999 254.345C178.042 255.347 178.232 256.289 178.302 256.253Z" fill="#1A282B"/>
<path d="M125.171 247.991L124.912 248.001L124.93 248.259L125.816 260.817C125.722 260.855 125.591 260.909 125.428 260.976C125.075 261.123 124.571 261.335 123.965 261.597C122.755 262.12 121.139 262.842 119.52 263.64C117.903 264.437 116.276 265.312 115.045 266.139C114.43 266.553 113.906 266.96 113.53 267.347C113.164 267.722 112.895 268.121 112.883 268.518L112.876 268.784L113.141 268.775L138.344 267.951L138.593 267.943L138.586 267.694L138.015 247.789L138.008 247.538L137.756 247.546L125.171 247.991Z" fill="#02A7E9" stroke="black" stroke-width="0.5"/>
<path fill-rule="evenodd" clip-rule="evenodd" d="M133.924 259.628C134.423 259.745 134.783 260.279 134.684 260.772C134.587 261.265 134.036 261.629 133.536 261.521C133.035 261.413 132.584 260.786 132.738 260.306C132.891 259.826 133.562 259.435 134.02 259.657" fill="#B6EAFF"/>
<path fill-rule="evenodd" clip-rule="evenodd" d="M138.336 267.692L138.199 265.663L114.1 267.221C114.1 267.221 112.995 267.744 113.148 268.526L138.336 267.692Z" fill="#B6EAFF"/>
<path fill-rule="evenodd" clip-rule="evenodd" d="M125.675 260.981C125.683 261.102 126.301 261.137 126.92 261.512C127.548 261.87 127.879 262.39 127.99 262.338C128.103 262.311 127.895 261.584 127.137 261.144C126.384 260.698 125.645 260.868 125.675 260.981Z" fill="#1A282B"/>
<path fill-rule="evenodd" clip-rule="evenodd" d="M123.095 262.05C123.073 262.164 123.586 262.348 124 262.832C124.427 263.304 124.545 263.839 124.662 263.83C124.772 263.845 124.83 263.152 124.305 262.56C123.784 261.963 123.095 261.937 123.095 262.05Z" fill="#1A282B"/>
<path fill-rule="evenodd" clip-rule="evenodd" d="M121.674 265.09C121.785 265.111 121.934 264.534 121.599 263.917C121.27 263.298 120.688 263.068 120.64 263.165C120.574 263.261 120.956 263.586 121.221 264.097C121.501 264.601 121.553 265.082 121.674 265.09Z" fill="#1A282B"/>
<path fill-rule="evenodd" clip-rule="evenodd" d="M125.797 257.953C125.853 258.062 126.426 257.876 127.142 257.9C127.857 257.91 128.42 258.122 128.482 258.016C128.553 257.926 127.995 257.493 127.152 257.477C126.311 257.454 125.732 257.859 125.797 257.953Z" fill="#1A282B"/>
<path fill-rule="evenodd" clip-rule="evenodd" d="M125.792 255.377C125.793 255.428 126.262 255.486 127.004 255.33C127.373 255.253 127.807 255.114 128.259 254.892C128.485 254.78 128.715 254.648 128.943 254.494C129.052 254.416 129.182 254.339 129.299 254.191C129.427 254.061 129.49 253.74 129.333 253.551C129.203 253.365 128.981 253.292 128.806 253.294C128.627 253.294 128.484 253.335 128.353 253.373C128.086 253.448 127.837 253.547 127.609 253.661C127.153 253.89 126.786 254.173 126.515 254.444C125.971 254.991 125.794 255.446 125.835 255.468C125.89 255.506 126.151 255.12 126.708 254.666C126.986 254.439 127.342 254.202 127.769 254.01C127.982 253.915 128.213 253.832 128.458 253.768C128.711 253.692 128.929 253.682 129 253.796C129.024 253.84 129.029 253.857 128.978 253.934C128.924 254.007 128.822 254.079 128.715 254.155C128.506 254.304 128.294 254.435 128.087 254.549C127.672 254.776 127.273 254.935 126.93 255.044C126.244 255.264 125.788 255.313 125.792 255.377Z" fill="#1A282B"/>
<path fill-rule="evenodd" clip-rule="evenodd" d="M125.856 255.584C125.899 255.601 126.124 255.16 126.141 254.378C126.15 253.99 126.094 253.522 125.929 253.029C125.845 252.784 125.734 252.534 125.59 252.288C125.438 252.049 125.251 251.728 124.783 251.69C124.54 251.689 124.344 251.886 124.281 252.053C124.205 252.222 124.193 252.366 124.169 252.51C124.133 252.8 124.148 253.083 124.196 253.343C124.29 253.867 124.519 254.297 124.764 254.604C125.266 255.228 125.772 255.356 125.781 255.314C125.819 255.252 125.393 255.033 125.004 254.43C124.813 254.133 124.639 253.738 124.576 253.281C124.545 253.053 124.54 252.81 124.575 252.566C124.605 252.301 124.696 252.086 124.795 252.11C124.917 252.104 125.132 252.295 125.239 252.501C125.372 252.718 125.48 252.941 125.566 253.161C125.735 253.602 125.817 254.027 125.846 254.388C125.904 255.112 125.791 255.567 125.856 255.584Z" fill="#1A282B"/>
<path fill-rule="evenodd" clip-rule="evenodd" d="M118.289 110.594L122.347 257.92L142.247 257.337L140.718 130.891L166.076 260.853L184.05 256.276L160.845 110.875L118.289 110.594Z" fill="#07377E"/>
<path fill-rule="evenodd" clip-rule="evenodd" d="M129.306 258.218C129.205 258.218 129.123 227.656 129.123 189.963C129.123 152.259 129.205 121.702 129.306 121.702C129.407 121.702 129.49 152.259 129.49 189.963C129.49 227.656 129.407 258.218 129.306 258.218Z" fill="#146BFF"/>
<path fill-rule="evenodd" clip-rule="evenodd" d="M171.737 260.738C171.639 260.753 166.993 231.484 161.362 195.373C155.729 159.249 151.245 129.963 151.344 129.948C151.443 129.934 156.088 159.196 161.721 195.32C167.351 231.431 171.837 260.724 171.737 260.738Z" fill="#146BFF"/>
<path fill-rule="evenodd" clip-rule="evenodd" d="M146.844 18.5141C147.434 16.9412 148.204 15.4637 148.524 13.8173C148.762 12.5919 149.137 10.7533 148.634 9.60771C148.131 8.46213 146.915 7.36494 145.379 7.6757C144.995 5.25233 143.678 3.28488 141.171 2.09569C138.916 1.02643 136.7 0.502371 134.202 0.32314C133.447 0.269302 132.268 0.317688 131.589 0.64412C130.91 0.970552 130.279 1.62887 130.019 2.3015C128.706 1.28267 126.814 0.987589 124.898 1.49802C122.982 2.00777 120.793 3.02046 119.953 4.78143C119.432 5.87112 119.239 7.2191 119.801 8.94054C120.174 10.0868 121.412 11.8852 122.565 11.4661" fill="#1A282B"/>
<path d="M122.715 8.86234C122.465 8.84952 122.465 8.84958 122.465 8.8497L122.465 8.85021L122.465 8.85224L122.465 8.86027L122.463 8.89202L122.457 9.01639C122.452 9.12567 122.444 9.28672 122.433 9.49395C122.413 9.90838 122.385 10.5075 122.351 11.2463C122.284 12.724 122.198 14.7608 122.119 16.9972C121.96 21.467 121.832 26.7445 121.954 29.9466L121.954 29.9466C122.081 33.242 123.841 35.1149 125.562 36.1538C126.419 36.6712 127.266 36.9824 127.899 37.1645C128.215 37.2557 128.479 37.3148 128.664 37.3512C128.688 37.3559 128.711 37.3602 128.732 37.3641L128.726 37.4732C128.713 37.688 128.696 37.9989 128.674 38.3834C128.631 39.1524 128.573 40.2156 128.513 41.3929C128.264 46.2745 132.182 50.3845 137.157 50.486C142.036 50.5854 146.081 46.7877 146.178 41.9964L146.178 41.9963L146.788 11.8161L146.79 11.6844L146.683 11.6078L145.699 10.9029L145.699 10.9029C138.991 6.10366 130.159 5.23592 122.612 8.63439L122.473 8.69707L122.465 8.84952L122.715 8.86234Z" fill="#F4F8FF" stroke="black" stroke-width="0.5"/>
<path fill-rule="evenodd" clip-rule="evenodd" d="M128.931 37.2469C128.931 37.2469 133.071 37.4745 137.395 34.6622C137.395 34.6622 135.378 39.6354 128.838 39.2184L128.931 37.2469Z" fill="#272727"/>
<path d="M145.708 18.2945L145.564 18.36L145.562 18.5179L145.812 18.522L145.562 18.518L145.562 18.5182L145.562 18.519L145.562 18.5224L145.562 18.5355L145.561 18.5866L145.558 18.7809L145.546 19.4753C145.537 20.0505 145.525 20.8187 145.513 21.5909C145.501 22.363 145.489 23.1391 145.481 23.7301C145.472 24.311 145.467 24.7321 145.469 24.7748C145.474 24.8652 145.524 24.9219 145.542 24.9407C145.565 24.9643 145.588 24.9795 145.601 24.9877C145.629 25.0048 145.658 25.0171 145.68 25.0257C145.728 25.0438 145.787 25.061 145.854 25.0767C145.988 25.1086 146.174 25.1398 146.392 25.1589C146.827 25.1972 147.412 25.1892 148.002 25.0317C148.594 24.8737 149.201 24.5625 149.66 23.9886C150.121 23.4136 150.415 22.5986 150.423 21.4689C150.431 20.3421 150.159 19.549 149.712 19.0079C149.266 18.4667 148.67 18.2079 148.09 18.1008C147.512 17.9942 146.936 18.0352 146.504 18.1034C146.287 18.1376 146.103 18.1792 145.969 18.2142C145.844 18.2467 145.744 18.278 145.708 18.2945Z" fill="#F4F8FF" stroke="black" stroke-width="0.5"/>
<path fill-rule="evenodd" clip-rule="evenodd" d="M147.13 23.1932C147.15 23.1791 147.207 23.2465 147.337 23.3059C147.464 23.3632 147.682 23.4044 147.914 23.3207C148.382 23.1561 148.781 22.4329 148.808 21.653C148.823 21.259 148.741 20.8833 148.6 20.5722C148.467 20.2545 148.259 20.0319 148.024 19.9894C147.79 19.9347 147.622 20.0717 147.568 20.1931C147.507 20.3132 147.535 20.4002 147.511 20.4076C147.499 20.4184 147.417 20.3341 147.454 20.156C147.473 20.0703 147.525 19.9684 147.629 19.8855C147.737 19.8018 147.893 19.76 148.057 19.7782C148.399 19.8032 148.703 20.1128 148.858 20.4549C149.032 20.7983 149.132 21.2206 149.117 21.6631C149.083 22.5348 148.62 23.3477 147.978 23.5252C147.667 23.6021 147.407 23.5083 147.274 23.4051C147.138 23.2978 147.114 23.2007 147.13 23.1932Z" fill="#272727"/>
<path fill-rule="evenodd" clip-rule="evenodd" d="M124.267 18.8336C124.262 19.2766 124.678 19.6458 125.196 19.6589C125.713 19.672 126.137 19.3248 126.143 18.8818C126.147 18.4388 125.732 18.0697 125.215 18.0559C124.696 18.0428 124.272 18.3913 124.267 18.8336Z" fill="#1A282B"/>
<path fill-rule="evenodd" clip-rule="evenodd" d="M124.165 18.0374C124.282 18.1681 124.962 17.5742 125.948 17.5498C126.933 17.5093 127.668 18.0557 127.772 17.9182C127.824 17.8563 127.703 17.6186 127.381 17.3717C127.066 17.1248 126.532 16.8917 125.918 16.9116C125.304 16.933 124.794 17.1997 124.502 17.4665C124.205 17.7347 124.108 17.9793 124.165 18.0374Z" fill="#1A282B"/>
<path fill-rule="evenodd" clip-rule="evenodd" d="M134.346 18.8337C134.341 19.2766 134.757 19.6452 135.275 19.6589C135.793 19.6715 136.217 19.3242 136.222 18.8812C136.227 18.4389 135.811 18.0691 135.294 18.0559C134.775 18.0428 134.351 18.3907 134.346 18.8337Z" fill="#1A282B"/>
<path fill-rule="evenodd" clip-rule="evenodd" d="M134.009 18.0374C134.125 18.1681 134.807 17.5747 135.792 17.5502C136.776 17.5097 137.512 18.0565 137.616 17.9181C137.667 17.8569 137.547 17.6191 137.225 17.3721C136.909 17.1251 136.375 16.8911 135.761 16.9117C135.147 16.9331 134.637 17.2 134.346 17.4669C134.049 17.7353 133.951 17.98 134.009 18.0374Z" fill="#1A282B"/>
<path fill-rule="evenodd" clip-rule="evenodd" d="M130.573 25.1034C130.576 25.0483 129.955 24.9596 128.948 24.8595C128.694 24.84 128.452 24.797 128.405 24.629C128.341 24.4517 128.44 24.1829 128.556 23.8926C128.779 23.2879 129.013 22.655 129.259 21.9911C130.234 19.2853 130.932 17.0626 130.82 17.0257C130.707 16.9887 129.826 19.1516 128.852 21.8574C128.617 22.5246 128.393 23.1602 128.181 23.769C128.092 24.0519 127.935 24.3751 128.074 24.7426C128.147 24.9254 128.337 25.055 128.501 25.094C128.665 25.1377 128.808 25.137 128.934 25.1417C129.944 25.1699 130.571 25.1585 130.573 25.1034Z" fill="#1A282B"/>
<path fill-rule="evenodd" clip-rule="evenodd" d="M133.467 25.8436C133.305 25.8382 133.33 26.8972 132.425 27.6719C131.521 28.4492 130.366 28.3585 130.361 28.5061C130.348 28.5738 130.623 28.7058 131.11 28.7065C131.587 28.7113 132.279 28.544 132.834 28.07C133.385 27.5954 133.613 26.9744 133.639 26.539C133.668 26.0948 133.541 25.8355 133.467 25.8436Z" fill="#1A282B"/>
<path fill-rule="evenodd" clip-rule="evenodd" d="M133.652 14.0761C133.76 14.3172 134.779 14.1792 135.983 14.2799C137.191 14.3588 138.168 14.6452 138.32 14.4234C138.389 14.3172 138.214 14.0916 137.816 13.8648C137.42 13.638 136.794 13.428 136.071 13.3733C135.349 13.3205 134.692 13.4348 134.259 13.6001C133.821 13.7654 133.605 13.9611 133.652 14.0761Z" fill="#1A282B"/>
<path fill-rule="evenodd" clip-rule="evenodd" d="M124.528 14.9899C124.708 15.2078 125.385 14.9607 126.206 14.9295C127.026 14.8697 127.726 15.0408 127.881 14.8045C127.948 14.6898 127.833 14.4698 127.523 14.2675C127.219 14.0652 126.714 13.9063 126.15 13.9369C125.586 13.9688 125.102 14.182 124.822 14.4169C124.537 14.6525 124.448 14.8833 124.528 14.9899Z" fill="#1A282B"/>
<path fill-rule="evenodd" clip-rule="evenodd" d="M146.884 12.4238C146.843 14.2931 147.318 16.3605 147.033 18.2031C146.99 18.4812 146.28 19.2389 146.222 19.5149C145.881 21.1471 145.216 21.8597 144.195 20.2097C143.802 19.5744 143.513 17.7898 143.351 17.069C142.906 15.1061 142.461 13.1439 142.017 11.1817C140.485 11.9326 138.816 12.5194 137.107 12.4593C135.397 12.3999 133.64 11.5889 132.821 10.1077C132.046 11.4536 130.626 12.4204 129.075 12.6602C127.524 12.9 125.874 12.4081 124.717 11.3607C124.159 12.2885 122.787 12.5775 121.838 12.0405C120.889 11.5035 120.44 10.2853 120.711 9.23999C121.118 7.66586 122.795 6.77562 124.364 6.27892C130.498 4.33243 137.369 5.56837 143.006 8.64559C143.829 9.09447 144.64 9.58843 145.291 10.2559C145.943 10.9241 146.843 11.7057 146.894 12.6315" fill="#1A282B"/>
<path fill-rule="evenodd" clip-rule="evenodd" d="M142.206 11.9232C142.22 11.9849 142.626 11.8425 143.207 12.0812C143.494 12.1972 143.814 12.3945 144.128 12.6658C144.442 12.9351 144.756 13.2911 145.132 13.6357C145.504 13.9822 145.931 14.2813 146.386 14.4129C146.841 14.5478 147.275 14.5187 147.61 14.4291C148.293 14.2406 148.564 13.8703 148.531 13.8479C148.494 13.7971 148.173 14.0704 147.554 14.1714C147.249 14.2196 146.871 14.2162 146.494 14.086C146.115 13.9578 145.746 13.6933 145.39 13.363C145.031 13.0341 144.708 12.6821 144.352 12.402C144 12.1233 143.63 11.9286 143.295 11.8316C142.601 11.6309 142.174 11.8933 142.206 11.9232Z" fill="#146BFF"/>
<path fill-rule="evenodd" clip-rule="evenodd" d="M143.024 13.7912C143.031 13.8447 143.363 13.7996 143.742 14.1049C143.929 14.2485 144.108 14.4768 144.32 14.7481C144.528 15.0201 144.82 15.3233 145.184 15.535C145.91 15.9811 146.716 16.047 147.25 15.9645C147.796 15.8833 148.08 15.6862 148.061 15.6467C148.039 15.5898 147.729 15.689 147.227 15.6959C146.732 15.705 146.027 15.603 145.389 15.2109C144.741 14.8515 144.417 14.177 143.898 13.8821C143.391 13.5782 142.989 13.7454 143.024 13.7912Z" fill="#146BFF"/>
<path fill-rule="evenodd" clip-rule="evenodd" d="M125.574 1.47036C125.574 1.45069 125.361 1.41747 124.994 1.52326C124.634 1.62837 124.125 1.90234 123.72 2.4435C122.91 3.53463 122.725 5.47276 123.351 7.34715C123.986 9.25273 125.432 10.5649 126.588 11.1773C127.167 11.4987 127.679 11.6751 128.035 11.7714C128.392 11.8683 128.598 11.8839 128.603 11.8636C128.626 11.7978 127.818 11.6242 126.731 10.9522C125.65 10.3011 124.322 9.03504 123.72 7.22983C123.123 5.45377 123.266 3.60651 123.947 2.59133C124.286 2.08272 124.727 1.79655 125.047 1.65888C125.371 1.51986 125.577 1.50155 125.574 1.47036Z" fill="#146BFF"/>
<path fill-rule="evenodd" clip-rule="evenodd" d="M120.32 4.08373C120.277 4.08509 120.239 4.56087 120.375 5.31721C120.508 6.07081 120.859 7.0954 121.509 8.07836C122.164 9.05859 122.973 9.77806 123.616 10.1924C124.261 10.6108 124.715 10.759 124.733 10.7201C124.801 10.6204 123.068 9.78079 121.822 7.87017C120.543 5.98207 120.438 4.05916 120.32 4.08373Z" fill="#146BFF"/>
<path d="M84.4853 92.7529L84.4208 92.5829L84.2392 92.592L74.7019 93.0675L74.7018 93.0675C73.3558 93.1349 72.2949 94.2403 72.3228 95.5788L72.3228 95.5789C72.3455 96.6561 72.449 97.9564 72.7703 98.9598C72.9306 99.4604 73.1529 99.9125 73.4685 100.223C73.7951 100.544 74.2153 100.706 74.7243 100.623L74.8893 100.595L74.9272 100.433L75.9203 96.1625L83.5207 102.763C84.3556 103.508 85.3864 104.004 86.4948 104.197L86.5287 104.203L86.563 104.199L88.4224 104.011L88.7464 103.978L88.6308 103.673L84.4853 92.7529Z" fill="#F4F8FF" stroke="black" stroke-width="0.5"/>
<path fill-rule="evenodd" clip-rule="evenodd" d="M129.992 43.0093L124.989 44.6205L122.509 85.1089V121.02L153.216 124.337L153.572 72.5453L151.589 46.7688L146.899 41.3049L129.992 43.0093Z" fill="#B6EAFF"/>
<path fill-rule="evenodd" clip-rule="evenodd" d="M128.489 44.8398V40.917L146.658 38.4418L145.928 47.4775L141.753 54.5612L134.93 54.9337L129.998 51.9528L128.489 44.8398Z" fill="#B6EAFF"/>
<path fill-rule="evenodd" clip-rule="evenodd" d="M130.047 44.3972C129.946 44.3931 129.9 43.5949 129.943 42.615C129.987 41.6336 130.104 40.8422 130.205 40.8469C130.306 40.851 130.352 41.6491 130.309 42.6291C130.265 43.6098 130.148 44.4013 130.047 44.3972Z" fill="#1A282B"/>
<path fill-rule="evenodd" clip-rule="evenodd" d="M134.579 43.9389C134.478 43.9329 134.45 43.0567 134.517 41.9814C134.584 40.906 134.72 40.0398 134.821 40.045C134.921 40.0504 134.949 40.9266 134.882 42.0019C134.816 43.0766 134.679 43.9442 134.579 43.9389Z" fill="#1A282B"/>
<path fill-rule="evenodd" clip-rule="evenodd" d="M138.992 43.8245C138.891 43.8169 138.882 42.8625 138.97 41.6928C139.058 40.5223 139.211 39.5802 139.313 39.587C139.413 39.5946 139.423 40.5483 139.335 41.7187C139.247 42.8885 139.093 43.8313 138.992 43.8245Z" fill="#1A282B"/>
<path fill-rule="evenodd" clip-rule="evenodd" d="M143.333 43.0233C143.234 43.0273 143.118 42.1501 143.172 41.0655C143.223 39.9808 143.423 39.1176 143.522 39.1295C143.624 39.1415 143.588 40.0126 143.537 41.0814C143.484 42.1495 143.436 43.02 143.333 43.0233Z" fill="#1A282B"/>
<path fill-rule="evenodd" clip-rule="evenodd" d="M141.379 60.0874C141.403 60.0976 141.314 60.3344 141.137 60.7535C140.96 61.1733 140.685 61.7713 140.329 62.504C139.617 63.9695 138.559 65.9609 137.26 68.0884C135.96 70.2158 134.669 72.0725 133.686 73.3801C133.196 74.0353 132.787 74.5565 132.493 74.9075C132.199 75.26 132.028 75.4477 132.008 75.4328C131.964 75.4015 132.55 74.5789 133.475 73.2366C134.401 71.8956 135.654 70.0253 136.948 67.9067C138.241 65.7888 139.33 63.8246 140.098 62.3918C140.867 60.9603 141.331 60.0656 141.379 60.0874Z" fill="#1A282B"/>
<path d="M146.785 40.2769L146.46 40.124L146.429 40.4817L143.358 76.3018L143.357 76.3124V76.3231V114.468V114.481L143.359 114.493L144.748 128.253L144.77 128.471L144.99 128.478L168.685 129.168L168.988 129.176L168.94 128.878L162.971 91.9256L167.972 53.8094L167.972 53.8094C168.531 49.5439 165.558 45.6116 161.237 44.8738L151.712 42.5963L146.785 40.2769Z" fill="#146BFF" stroke="black" stroke-width="0.5"/>
<path fill-rule="evenodd" clip-rule="evenodd" d="M143.728 85.1687C143.716 85.166 143.74 85.0036 143.798 84.6972C143.867 84.3562 143.957 83.9119 144.068 83.3595C144.326 82.1611 144.685 80.496 145.125 78.4552C146.061 74.2865 147.339 68.5934 148.751 62.3045C149.147 60.5714 149.533 58.8845 149.903 57.2656L149.949 57.4225C149.387 56.8518 148.839 56.2934 148.302 55.7479L148.211 55.6555L148.279 55.5461C149.263 53.9537 150.189 52.4563 151.042 51.0765L151.033 51.2104C149.781 48.2598 148.738 45.8005 147.99 44.0369C147.645 43.1979 147.369 42.526 147.163 42.0266C146.978 41.5619 146.886 41.3112 146.901 41.305C146.915 41.299 147.036 41.5375 147.248 41.9913C147.473 42.4832 147.775 43.1442 148.152 43.9696C148.93 45.7217 150.014 48.1647 151.314 51.0949L151.344 51.1635L151.305 51.2294C150.462 52.6146 149.548 54.1181 148.575 55.7173L148.551 55.5162C149.089 56.059 149.641 56.6147 150.204 57.1834L150.271 57.25L150.25 57.3403C149.882 58.9593 149.499 60.6475 149.106 62.3806C147.654 68.6613 146.34 74.3463 145.377 78.5095C144.889 80.5402 144.492 82.1971 144.206 83.3894C144.067 83.9363 143.956 84.3752 143.87 84.7122C143.788 85.0145 143.741 85.1707 143.728 85.1687Z" fill="#1A282B"/>
<path d="M85.0944 91.5265L105.814 80.239L105.895 80.1947L105.928 80.1081L116.07 53.382C117.461 49.7147 120.35 46.7747 124.048 45.2679L124.048 45.2679L126.396 44.3108L126.409 114.309H126.409L126.409 114.317L126.937 130.642L116.142 127.483L121.887 94.1968L121.893 94.1606L121.889 94.1242L119.89 77.6328L119.399 77.6025L117.413 85.5805C117.413 85.5806 117.413 85.5806 117.413 85.5806C116.719 88.3636 114.9 90.7552 112.37 92.2065L90.8133 103.147L85.0944 91.5265Z" fill="#146BFF" stroke="black" stroke-width="0.5"/>
<path fill-rule="evenodd" clip-rule="evenodd" d="M84.9107 91.9256L83.1196 92.4376L88.1575 103.951L90.5046 103.079L84.9107 91.9256Z" fill="#B6EAFF" stroke="black" stroke-width="0.5"/>
<path fill-rule="evenodd" clip-rule="evenodd" d="M109.478 84.7099C109.372 84.7439 109.016 83.395 107.926 82.121C106.856 80.8299 105.576 80.236 105.63 80.1394C105.645 80.0524 107.065 80.5299 108.202 81.8944C109.353 83.2467 109.568 84.7113 109.478 84.7099Z" fill="#1A282B"/>
<path fill-rule="evenodd" clip-rule="evenodd" d="M144.897 122.069C145.31 122.34 163.193 133.842 163.193 133.842L165.256 132.218L166.232 105.832L148.807 92.8417L146.41 93.6542L144.897 122.069Z" fill="#02A7E9"/>
<path fill-rule="evenodd" clip-rule="evenodd" d="M148.633 93.414L149.352 121.931H145.483L146.78 93.9787L148.633 93.414Z" fill="#B6EAFF"/>
<path d="M157.102 66.2313L157.038 66.3517L157.104 66.471L168.453 86.8215L159.21 113.555L159.141 113.755L159.326 113.856L169.645 119.517L169.885 119.648L169.994 119.398L183.108 89.5437C183.108 89.5436 183.108 89.5436 183.108 89.5436C184.11 87.2633 184.068 84.6749 182.993 82.4263L166.903 48.7559L166.691 48.3103L166.457 48.7458L157.102 66.2313Z" fill="#146BFF" stroke="black" stroke-width="0.5"/>
<path d="M167.351 50.1626C166.866 48.2647 165.251 46.9994 164.443 46.3667C161.697 51.7442 155.819 63.1636 156.207 63.9227C156.594 64.6819 157.661 66.7697 158.146 67.7186C161.214 62.3411 167.649 51.327 167.351 50.1626Z" fill="#146BFF"/>
<path fill-rule="evenodd" clip-rule="evenodd" d="M87.2535 91.5755C87.2746 91.6213 87.1562 91.7121 87.1444 91.908C87.124 92.1106 87.2601 92.33 87.5192 92.2486C87.7803 92.1732 87.779 91.9134 87.6547 91.7545C87.5409 91.5964 87.3936 91.5856 87.387 91.5351C87.364 91.4961 87.5705 91.3843 87.8217 91.5755C87.9348 91.6664 88.0558 91.8306 88.0473 92.0641C88.042 92.3031 87.8447 92.5212 87.6159 92.5851C87.3897 92.6585 87.1089 92.5838 86.978 92.3859C86.8478 92.1947 86.8622 91.9888 86.9089 91.8501C87.0194 91.5506 87.2516 91.5304 87.2535 91.5755Z" fill="#1A282B"/>
<path fill-rule="evenodd" clip-rule="evenodd" d="M89.0099 90.8881C89.0309 90.9345 88.9125 91.0254 88.9007 91.2205C88.8803 91.4237 89.0164 91.6424 89.2756 91.5616C89.5366 91.4863 89.5353 91.2265 89.411 91.0671C89.2973 90.909 89.1499 90.8989 89.1434 90.8484C89.121 90.8094 89.3268 90.697 89.5781 90.8881C89.6912 90.9789 89.8122 91.1438 89.8036 91.3773C89.7984 91.6155 89.6017 91.8341 89.3722 91.8981C89.146 91.9714 88.8652 91.8967 88.7343 91.6989C88.6041 91.5071 88.6186 91.3019 88.6653 91.1626C88.7758 90.8632 89.0086 90.843 89.0099 90.8881Z" fill="#1A282B"/>
<path fill-rule="evenodd" clip-rule="evenodd" d="M126.606 86.1996C126.594 86.2009 126.562 86.0512 126.513 85.7647C126.462 85.4414 126.397 85.0248 126.318 84.5096C126.158 83.3743 125.936 81.8054 125.666 79.8854C125.146 75.9384 124.437 70.558 123.655 64.6133C123.546 63.7693 123.44 62.9362 123.336 62.1174L123.33 62.0732L123.347 62.0317C123.882 60.7194 124.401 59.448 124.898 58.2297L124.901 58.3597C124.365 57.1781 123.852 56.0496 123.369 54.9858L123.346 54.9347L123.361 54.8823C124.302 51.6037 125.093 48.8478 125.662 46.8638C125.942 45.9266 126.167 45.1738 126.335 44.6143C126.496 44.0957 126.59 43.8207 126.606 43.8247C126.623 43.8288 126.562 44.1127 126.431 44.6388C126.286 45.2044 126.09 45.9647 125.846 46.9114C125.309 48.9036 124.562 51.6711 123.673 54.9633L123.665 54.8599C124.156 55.9196 124.677 57.0454 125.222 58.2235L125.251 58.2868L125.225 58.3535C124.732 59.5726 124.218 60.846 123.687 62.1603L123.698 62.0746C123.804 62.8927 123.911 63.7258 124.019 64.5698C124.761 70.5198 125.431 75.9043 125.924 79.8547C126.147 81.7802 126.328 83.3539 126.46 84.4926C126.512 85.0119 126.554 85.4305 126.587 85.7558C126.611 86.0451 126.619 86.1982 126.606 86.1996Z" fill="#1A282B"/>
<path fill-rule="evenodd" clip-rule="evenodd" d="M121.444 94.3311C121.431 94.3324 121.408 94.2176 121.373 93.9987C121.337 93.7384 121.293 93.421 121.24 93.0376C121.13 92.1473 120.983 90.951 120.803 89.4979C120.44 86.5086 119.931 82.3802 119.319 77.8277C118.706 73.2738 118.105 69.157 117.665 66.1786C117.454 64.7289 117.28 63.5367 117.15 62.649C117.1 62.265 117.059 61.9476 117.024 61.6873C117 61.4664 116.992 61.3502 117.004 61.3474C117.016 61.3454 117.047 61.4582 117.094 61.6757C117.146 61.9326 117.21 62.2467 117.287 62.6266C117.447 63.4538 117.661 64.6541 117.913 66.1392C118.417 69.1094 119.057 73.2229 119.671 77.7801C120.284 82.3367 120.754 86.4719 121.053 89.47C121.203 90.9687 121.314 92.1826 121.378 93.0234C121.404 93.4094 121.427 93.7289 121.444 93.9912C121.456 94.2128 121.456 94.3304 121.444 94.3311Z" fill="#1A282B"/>
<path fill-rule="evenodd" clip-rule="evenodd" d="M118.644 119.501C118.676 119.485 118.76 119.762 119.134 120.074C119.494 120.374 120.216 120.691 121.064 120.494C121.905 120.303 122.732 119.541 123.157 118.498C123.596 117.451 123.648 116.163 123.748 114.83C123.833 113.506 123.801 112.22 123.355 111.174C122.926 110.123 122.092 109.424 121.438 108.826C120.768 108.234 120.252 107.703 119.975 107.281C119.692 106.861 119.612 106.591 119.629 106.585C119.658 106.572 119.781 106.818 120.09 107.199C120.395 107.586 120.919 108.071 121.612 108.639C122.281 109.211 123.179 109.916 123.667 111.049C124.162 112.167 124.199 113.512 124.112 114.852C124.012 116.184 123.956 117.502 123.468 118.622C122.997 119.735 122.075 120.556 121.121 120.739C120.16 120.923 119.397 120.531 119.037 120.177C118.85 119.995 118.752 119.817 118.695 119.698C118.647 119.573 118.632 119.505 118.644 119.501Z" fill="#1A282B"/>
<path fill-rule="evenodd" clip-rule="evenodd" d="M110.905 92.8417C110.905 92.8417 111.582 85.085 117.938 84.3667C117.938 84.3667 118.055 90.6888 110.905 92.8417Z" fill="#07377E"/>
<path d="M149.47 126.294C149.405 126.535 149.405 126.535 149.405 126.535L149.405 126.535L149.406 126.535L149.408 126.536L149.413 126.537L149.432 126.542C149.447 126.545 149.469 126.55 149.496 126.555C149.549 126.565 149.625 126.578 149.717 126.586C149.902 126.603 150.158 126.606 150.443 126.55C151.023 126.436 151.706 126.076 152.141 125.142C152.535 124.297 152.915 123.607 153.196 123.129C153.239 123.056 153.279 122.988 153.317 122.925L153.813 125.676L151.545 126.428L151.411 126.473L151.38 126.611L151.624 126.666C151.38 126.611 151.38 126.611 151.38 126.611L151.38 126.611L151.38 126.612L151.379 126.614L151.378 126.619L151.375 126.634C151.373 126.647 151.37 126.665 151.366 126.687C151.36 126.731 151.353 126.793 151.349 126.868C151.341 127.018 151.346 127.225 151.401 127.451C151.512 127.915 151.828 128.446 152.598 128.726L152.644 128.742L152.694 128.74L154.167 128.678C154.176 128.697 154.187 128.717 154.198 128.738C154.271 128.873 154.387 129.053 154.561 129.236C154.905 129.6 155.468 129.968 156.344 130.041C156.345 130.043 156.347 130.045 156.348 130.047L156.349 130.048L158.319 131.229M149.47 126.294L149.228 126.232L149.228 126.232L149.228 126.231L149.229 126.226L149.234 126.209L149.251 126.142L149.315 125.888L149.546 124.981C149.737 124.229 149.991 123.226 150.246 122.217C150.5 121.209 150.754 120.196 150.945 119.425C151.041 119.04 151.12 118.716 151.175 118.484C151.203 118.368 151.225 118.276 151.239 118.211C151.246 118.178 151.252 118.153 151.255 118.137L151.256 118.131V117.963L151.434 117.909L160.133 115.278L160.226 115.25L160.314 115.292L166.492 118.263L166.711 118.368L166.612 118.59L163.21 126.216L163.209 126.219L162.982 126.114L163.209 126.219L163.209 126.219L163.209 126.219L163.208 126.222L163.204 126.23L163.189 126.262C163.176 126.29 163.157 126.331 163.132 126.383C163.083 126.487 163.011 126.637 162.923 126.817C162.745 127.179 162.498 127.668 162.221 128.175C161.944 128.682 161.634 129.211 161.33 129.652C161.178 129.872 161.025 130.074 160.877 130.241C160.731 130.406 160.578 130.549 160.425 130.639M149.47 126.294L149.405 126.535L149.167 126.47L149.228 126.232L149.47 126.294ZM160.425 130.639L160.298 130.424L160.425 130.639C160.425 130.639 160.425 130.639 160.425 130.639ZM160.425 130.639C159.667 131.088 158.931 131.227 158.319 131.229M158.319 131.229L158.318 130.986L158.319 131.229C158.319 131.229 158.319 131.229 158.319 131.229ZM151.258 118.122L151.258 118.122C151.258 118.119 151.258 118.119 151.258 118.122Z" fill="#F4F8FF" stroke="black" stroke-width="0.5"/>
<path fill-rule="evenodd" clip-rule="evenodd" d="M159.45 113.571L158.495 115.658L168.151 120.786L169.162 118.961L159.45 113.571Z" fill="#B6EAFF" stroke="black" stroke-width="0.5"/>
<path fill-rule="evenodd" clip-rule="evenodd" d="M159.456 113.686C159.45 113.684 159.461 113.638 159.486 113.549C159.517 113.442 159.557 113.313 159.604 113.154C159.723 112.784 159.885 112.278 160.091 111.636C160.538 110.291 161.173 108.379 161.963 105.998C163.591 101.182 165.859 94.4772 168.454 86.8015L168.47 86.9443C167.158 84.7485 165.813 82.4282 164.453 80.033C161.971 75.6597 159.69 71.4461 157.739 67.5509C156.777 65.5971 155.878 63.7317 155.119 61.948C154.292 60.1663 154.087 58.2962 154.18 56.6511C154.287 55.0007 154.621 53.5161 155.186 52.3172C155.742 51.1156 156.484 50.2193 157.174 49.5943C157.873 48.9735 158.519 48.6198 158.968 48.4247C159.418 48.2261 159.674 48.1771 159.674 48.1771C159.71 48.2315 158.632 48.4457 157.269 49.695C156.607 50.3233 155.896 51.2149 155.369 52.3988C154.834 53.5746 154.523 55.0422 154.433 56.6641C154.36 58.2832 154.572 60.0949 155.393 61.8331C156.161 63.6046 157.068 65.4611 158.036 67.4067C160 71.287 162.287 75.4904 164.766 79.861C166.124 82.2527 167.468 84.5744 168.771 86.7682L168.812 86.8369L168.786 86.9117C166.144 94.5717 163.835 101.263 162.176 106.069C161.345 108.436 160.677 110.336 160.207 111.674C159.977 112.308 159.797 112.808 159.663 113.174C159.604 113.329 159.555 113.455 159.515 113.559C159.481 113.645 159.46 113.688 159.456 113.686Z" fill="#1A282B"/>
<path fill-rule="evenodd" clip-rule="evenodd" d="M176.544 86.6464C176.513 86.6965 176.103 86.4855 175.406 86.2624C174.71 86.0372 173.707 85.8364 172.59 85.8669C171.471 85.9027 170.483 86.163 169.803 86.4294C169.122 86.6938 168.727 86.9284 168.693 86.8804C168.669 86.85 169.015 86.5369 169.696 86.2029C170.373 85.8675 171.404 85.5518 172.578 85.5153C173.752 85.4821 174.801 85.735 175.498 86.0298C176.199 86.3226 176.567 86.614 176.544 86.6464Z" fill="#1A282B"/>
<path fill-rule="evenodd" clip-rule="evenodd" d="M154.979 61.4617L163.196 88.1464L164.356 79.3729L154.979 61.4617Z" fill="#07377E"/>
<path fill-rule="evenodd" clip-rule="evenodd" d="M168.721 114.022C168.742 114.069 168.624 114.159 168.612 114.355C168.591 114.557 168.727 114.777 168.987 114.696C169.247 114.621 169.246 114.361 169.122 114.201C169.008 114.044 168.861 114.033 168.854 113.983C168.832 113.944 169.037 113.832 169.289 114.022C169.402 114.114 169.523 114.278 169.515 114.512C169.509 114.75 169.312 114.969 169.083 115.033C168.857 115.106 168.577 115.031 168.446 114.833C168.315 114.642 168.329 114.436 168.376 114.298C168.487 113.998 168.72 113.977 168.721 114.022Z" fill="#1A282B"/>
<path fill-rule="evenodd" clip-rule="evenodd" d="M169.423 112.075C169.444 112.122 169.325 112.212 169.313 112.408C169.293 112.611 169.429 112.83 169.689 112.749C169.95 112.674 169.948 112.414 169.824 112.255C169.71 112.096 169.562 112.086 169.556 112.036C169.533 111.997 169.74 111.885 169.991 112.075C170.104 112.166 170.225 112.331 170.216 112.564C170.212 112.803 170.015 113.022 169.785 113.086C169.559 113.159 169.278 113.084 169.146 112.887C169.017 112.695 169.031 112.489 169.078 112.35C169.188 112.051 169.421 112.03 169.423 112.075Z" fill="#1A282B"/>
<path fill-rule="evenodd" clip-rule="evenodd" d="M180.494 78.0673C179.263 78.6931 178.833 80.4388 178.975 81.7731C179.118 83.1073 179.626 84.4049 179.59 85.7459C179.565 86.7032 179.262 87.63 179.063 88.5683C178.864 89.5066 178.772 90.5113 179.151 91.3967C179.53 92.2815 180.503 92.9899 181.48 92.8144L182.454 90.9147C184.001 87.9012 183.95 84.3547 182.317 81.3839L180.494 78.0673Z" fill="#07377E"/>
</svg>
