<svg width="463" height="419" viewBox="0 0 463 419" fill="none" xmlns="http://www.w3.org/2000/svg">
<path fill-rule="evenodd" clip-rule="evenodd" d="M387.464 181.6C406.207 181.6 421.4 166.711 421.4 148.345C421.4 129.979 406.207 115.091 387.464 115.091C373.296 115.091 361.156 123.599 356.074 135.685H373.473C377.919 135.685 381.536 139.229 381.536 143.586V181.094C383.461 181.427 385.442 181.6 387.464 181.6Z" fill="#DBF5FF"/>
<path fill-rule="evenodd" clip-rule="evenodd" d="M309.788 50.9823C316.916 50.9823 323.637 46.7452 326.342 39.8435C329.849 30.8991 325.28 20.8673 316.139 17.4369C314.052 16.6535 311.905 16.2821 309.795 16.2821C302.667 16.2821 295.945 20.5194 293.24 27.4206C289.734 36.3652 294.302 46.3968 303.444 49.8272C305.531 50.6108 307.678 50.9823 309.788 50.9823Z" fill="#DBF5FF"/>
<path fill-rule="evenodd" clip-rule="evenodd" d="M61.115 319.845C68.2436 319.845 74.9644 315.608 77.6696 308.707C81.1757 299.762 76.6075 289.73 67.4665 286.3C65.3787 285.517 63.2325 285.145 61.1223 285.145C53.9937 285.145 47.2726 289.382 44.5674 296.284C41.0616 305.228 45.6296 315.26 54.7708 318.69C56.8584 319.474 59.0051 319.845 61.115 319.845Z" fill="#DBF5FF"/>
<path fill-rule="evenodd" clip-rule="evenodd" d="M330.426 1.60348C331.502 1.35462 332.605 1.1896 333.705 1.11317L333.658 0.453613C332.521 0.532686 331.382 0.702997 330.271 0.960315L330.426 1.60348ZM340.29 1.70291L340.458 1.06266C339.352 0.782864 338.217 0.589545 337.083 0.487993L337.022 1.14623C338.119 1.24461 339.219 1.43184 340.29 1.70291ZM324.315 4.07907C325.255 3.51207 326.249 3.01489 327.269 2.60128L327.011 1.99038C325.958 2.41722 324.932 2.93053 323.961 3.51604L324.315 4.07907ZM346.349 4.29804L346.715 3.74215C345.76 3.13919 344.744 2.60604 343.696 2.15805L343.426 2.76392C344.441 3.1979 345.424 3.71412 346.349 4.29804ZM319.316 8.31437C320.023 7.48556 320.805 6.70673 321.64 5.99878L321.199 5.49895C320.336 6.22965 319.528 7.03439 318.798 7.89018L319.316 8.31437ZM351.256 8.63675L351.783 8.22393C351.07 7.35095 350.28 6.52928 349.435 5.78192L348.982 6.27249C349.8 6.99631 350.565 7.7918 351.256 8.63675ZM315.948 13.8868C316.353 12.8765 316.842 11.8943 317.402 10.9672L316.821 10.6305C316.243 11.5881 315.738 12.6023 315.32 13.6451L315.948 13.8868ZM354.508 14.2755L355.141 14.0462C354.746 12.9993 354.261 11.9753 353.7 11.0031L353.113 11.3281C353.656 12.2699 354.125 13.2613 354.508 14.2755ZM314.949 17.1581C315.174 16.104 315.49 15.0554 315.887 14.0412L315.257 13.8043C314.846 14.8515 314.521 15.9342 314.288 17.0225L314.949 17.1581ZM355.781 20.6313L356.456 20.6098C356.419 19.4949 356.288 18.373 356.068 17.2758L355.406 17.4033C355.619 18.4656 355.745 19.5515 355.781 20.6313ZM313.984 23.7053L314.654 23.6278C314.56 22.849 314.513 22.0569 314.513 21.2742C314.513 20.9774 314.519 20.6767 314.533 20.3811L313.859 20.3515C313.845 20.6572 313.838 20.9674 313.838 21.2742C313.838 22.0829 313.887 22.9008 313.984 23.7053ZM355.573 27.2438C355.901 26.1711 356.142 25.0673 356.289 23.9626L355.62 23.877C355.477 24.9467 355.244 26.0156 354.927 27.0542L355.573 27.2438ZM315.858 30.1367L316.469 29.8564C316 28.8763 315.609 27.8526 315.306 26.8135L314.657 26.9949C314.97 28.0678 315.374 29.1249 315.858 30.1367ZM352.602 33.2652C353.255 32.3523 353.837 31.3786 354.334 30.371L353.726 30.0835C353.245 31.0594 352.681 32.0019 352.049 32.886L352.602 33.2652ZM319.705 35.6617L320.195 35.2066C319.436 34.4235 318.735 33.5731 318.112 32.6787L317.555 33.051C318.198 33.9745 318.921 34.853 319.705 35.6617ZM347.835 38.053C348.753 37.3887 349.621 36.6471 350.416 35.8487L349.933 35.387C349.163 36.16 348.322 36.878 347.434 37.5214L347.835 38.053ZM325.143 39.7058L325.459 39.1219C324.482 38.6142 323.542 38.0257 322.665 37.3736L322.257 37.9001C323.163 38.574 324.134 39.1814 325.143 39.7058ZM341.767 41.1188C342.85 40.7716 343.913 40.336 344.927 39.8243L344.617 39.2367C343.636 39.7323 342.606 40.1544 341.557 40.4905L341.767 41.1188ZM331.607 41.8622L331.72 41.2103C330.635 41.0302 329.554 40.7613 328.505 40.4109L328.287 41.0366C329.37 41.3984 330.487 41.6761 331.607 41.8622ZM335.149 42.1547C336.244 42.1547 337.351 42.0701 338.436 41.9032L338.332 41.2503C337.281 41.4119 336.209 41.4936 335.148 41.4936L335.024 41.4933L335.02 42.1545L335.149 42.1547Z" fill="#146BFF"/>
<path fill-rule="evenodd" clip-rule="evenodd" d="M69.7324 162.497C70.7114 162.458 71.7066 162.439 72.6856 162.439C72.8205 162.439 72.9527 162.439 73.0875 162.44L73.0902 161.78C72.9554 161.779 72.8178 161.78 72.6856 161.779C71.6958 161.779 70.6925 161.799 69.7054 161.838L69.7324 162.497ZM79.7843 162.78L79.8517 162.124C78.7351 162.016 77.5997 161.932 76.475 161.875L76.44 162.534C77.5538 162.59 78.6785 162.673 79.7843 162.78ZM63.0518 163.07C64.1549 162.925 65.2768 162.803 66.3853 162.707L66.326 162.05C65.2067 162.146 64.074 162.269 62.9628 162.417L63.0518 163.07ZM86.419 163.733L86.5485 163.085C85.4454 162.874 84.3234 162.686 83.2122 162.527L83.1124 163.18C84.2155 163.338 85.3267 163.524 86.419 163.733ZM56.4575 164.255C57.539 164.008 58.6448 163.783 59.7398 163.586L59.6185 162.937C58.5127 163.136 57.3961 163.363 56.3038 163.612L56.4575 164.255ZM92.9324 165.293L93.1239 164.661C92.0478 164.349 90.9501 164.058 89.8551 163.796L89.6959 164.437C90.7775 164.697 91.8671 164.985 92.9324 165.293ZM50.0035 166.045C51.0607 165.698 52.1395 165.372 53.2076 165.075L53.0242 164.44C51.9453 164.74 50.8557 165.07 49.7904 165.42L50.0035 166.045ZM99.2678 167.451L99.5186 166.839C98.4748 166.428 97.4068 166.036 96.3469 165.675L96.1257 166.299C97.1748 166.656 98.2321 167.044 99.2678 167.451ZM43.7409 168.431C44.7604 167.987 45.8042 167.561 46.8425 167.165L46.5998 166.55C45.5507 166.95 44.4961 167.38 43.4685 167.828L43.7409 168.431ZM105.35 170.179L105.66 169.593C104.665 169.09 103.642 168.602 102.623 168.145L102.342 168.744C103.351 169.198 104.365 169.681 105.35 170.179ZM37.74 171.385C38.7109 170.849 39.7088 170.329 40.704 169.838L40.402 169.249C39.396 169.744 38.39 170.269 37.4082 170.81L37.74 171.385ZM111.148 173.458L111.515 172.903C110.568 172.309 109.597 171.73 108.627 171.181L108.289 171.752C109.252 172.296 110.212 172.87 111.148 173.458ZM32.0546 174.877C32.9689 174.254 33.9129 173.644 34.8541 173.065L34.4954 172.507C33.5461 173.091 32.594 173.706 31.6689 174.335L32.0546 174.877ZM116.612 177.258L117.028 176.738C116.143 176.061 115.232 175.394 114.317 174.757L113.926 175.295C114.832 175.926 115.736 176.586 116.612 177.258ZM26.7307 178.874C27.5775 178.173 28.4567 177.48 29.3441 176.815L28.9341 176.291C28.0387 176.963 27.1514 177.662 26.2937 178.371L26.7307 178.874ZM121.688 181.542L122.152 181.063C121.338 180.306 120.491 179.559 119.641 178.842L119.202 179.341C120.043 180.052 120.879 180.793 121.688 181.542ZM21.8139 183.34C22.5934 182.561 23.4025 181.791 24.217 181.052L23.7585 180.568C22.9359 181.315 22.1214 182.092 21.3312 182.878L21.8139 183.34ZM126.338 186.274L126.845 185.84C126.103 185.011 125.335 184.189 124.555 183.397L124.07 183.854C124.841 184.639 125.604 185.453 126.338 186.274ZM17.3476 188.234C18.0489 187.389 18.7797 186.549 19.5214 185.736L19.0171 185.297C18.27 186.117 17.531 186.965 16.8244 187.818L17.3476 188.234ZM130.516 191.413L131.061 191.027C130.405 190.136 129.715 189.247 129.016 188.385L128.488 188.795C129.181 189.65 129.863 190.531 130.516 191.413ZM13.3694 193.512C13.9871 192.608 14.6344 191.705 15.2952 190.828L14.7531 190.436C14.0842 191.321 13.4315 192.233 12.8085 193.146L13.3694 193.512ZM134.184 196.915L134.764 196.581C134.195 195.633 133.593 194.684 132.978 193.761L132.414 194.122C133.024 195.036 133.62 195.976 134.184 196.915ZM9.91724 199.129C10.4432 198.174 11.0014 197.216 11.5759 196.281L10.9961 195.941C10.4162 196.885 9.85252 197.852 9.3239 198.816L9.91724 199.129ZM137.307 202.734L137.916 202.455C137.442 201.46 136.935 200.459 136.412 199.481L135.815 199.788C136.333 200.757 136.835 201.748 137.307 202.734ZM7.02061 205.034C7.45215 204.036 7.91602 203.031 8.39879 202.049L7.78928 201.763C7.3038 202.755 6.8372 203.769 6.40028 204.777L7.02061 205.034ZM139.856 208.819L140.489 208.598C140.112 207.559 139.705 206.515 139.278 205.496L138.655 205.746C139.076 206.756 139.481 207.79 139.856 208.819ZM4.70654 211.185C5.04369 210.146 5.40779 209.101 5.79077 208.079L5.15965 207.851C4.77127 208.882 4.40178 209.937 4.06465 210.987L4.70654 211.185ZM141.8 215.108L142.453 214.947C142.181 213.88 141.876 212.806 141.549 211.754L140.905 211.945C141.226 212.987 141.528 214.051 141.8 215.108ZM2.9966 217.531C3.22855 216.467 3.49016 215.393 3.77605 214.338L3.1234 214.169C2.83751 215.235 2.57317 216.319 2.33852 217.392L2.9966 217.531ZM143.127 221.541L143.793 221.441C143.623 220.353 143.424 219.255 143.203 218.178L142.539 218.309C142.76 219.376 142.957 220.463 143.127 221.541ZM1.90698 224.006C2.03645 222.926 2.1929 221.832 2.37361 220.755L1.70744 220.648C1.52673 221.735 1.36758 222.839 1.23813 223.93L1.90698 224.006ZM143.828 228.066L144.5 228.029C144.435 226.928 144.344 225.817 144.225 224.727L143.556 224.796C143.672 225.875 143.764 226.976 143.828 228.066ZM1.4431 230.552C1.46738 229.462 1.51865 228.359 1.59686 227.274L0.925293 227.226C0.847076 228.322 0.793121 229.435 0.768845 230.536L1.4431 230.552ZM144.578 234.653C144.608 233.835 144.624 233.001 144.624 232.175C144.624 231.895 144.621 231.618 144.619 231.338L143.944 231.346C143.947 231.623 143.95 231.898 143.95 232.175C143.95 232.993 143.934 233.819 143.907 234.629L144.578 234.653ZM0.828201 235.484L1.49976 235.455C1.44852 234.371 1.42422 233.268 1.42422 232.175H0.749969C0.749969 233.278 0.774261 234.392 0.828201 235.484ZM144.031 241.256C144.174 240.169 144.292 239.061 144.384 237.96L143.712 237.907C143.621 238.995 143.505 240.095 143.362 241.172L144.031 241.256ZM1.45659 242.083L2.12276 241.99C1.96902 240.913 1.83688 239.818 1.73441 238.728L1.06284 238.791C1.16803 239.889 1.30016 240.995 1.45659 242.083ZM142.849 247.778C143.097 246.709 143.321 245.617 143.518 244.529L142.855 244.416C142.661 245.492 142.437 246.575 142.191 247.633L142.849 247.778ZM2.71613 248.591L3.37152 248.438C3.11259 247.38 2.87793 246.3 2.67026 245.229L2.00679 245.35C2.21715 246.432 2.45451 247.522 2.71613 248.591ZM141.045 254.162C141.396 253.117 141.725 252.048 142.024 250.993L141.374 250.816C141.077 251.864 140.751 252.919 140.403 253.956L141.045 254.162ZM4.59866 254.954L5.23787 254.74C4.87917 253.711 4.53935 252.658 4.22919 251.61L3.57919 251.795C3.89204 252.851 4.23726 253.914 4.59866 254.954ZM138.631 260.346C139.082 259.338 139.51 258.309 139.912 257.285L139.281 257.05C138.885 258.063 138.459 259.085 138.014 260.08L138.631 260.346ZM7.09615 261.127L7.71104 260.855C7.24986 259.858 6.81023 258.839 6.40028 257.828L5.7719 258.071C6.18724 259.092 6.63225 260.119 7.09615 261.127ZM135.635 266.271C136.18 265.31 136.708 264.326 137.204 263.342L136.6 263.051C136.109 264.025 135.586 265.002 135.047 265.952L135.635 266.271ZM10.1789 267.039L10.7614 266.709C10.2112 265.764 9.6745 264.793 9.16745 263.819L8.56602 264.118C9.07846 265.102 9.62059 266.084 10.1789 267.039ZM132.08 271.901C132.714 270.995 133.334 270.064 133.925 269.127L133.353 268.781C132.768 269.707 132.153 270.631 131.524 271.529L132.08 271.901ZM13.8118 272.634L14.362 272.254C13.7201 271.362 13.0917 270.444 12.4956 269.525L11.9265 269.879C12.5307 270.805 13.1645 271.734 13.8118 272.634ZM128.002 277.182C128.72 276.337 129.429 275.464 130.106 274.59L129.566 274.192C128.898 275.057 128.196 275.923 127.482 276.76L128.002 277.182ZM17.9652 277.871L18.4777 277.443C17.7522 276.612 17.0402 275.757 16.3578 274.896L15.8265 275.3C16.5142 276.168 17.2343 277.031 17.9652 277.871ZM123.433 282.07C124.229 281.291 125.019 280.486 125.774 279.678L125.278 279.232C124.528 280.035 123.746 280.832 122.956 281.603L123.433 282.07ZM22.5988 282.703L23.068 282.228C22.2697 281.471 21.4795 280.684 20.7162 279.89L20.2254 280.341C20.994 281.143 21.7923 281.938 22.5988 282.703ZM118.414 286.519C119.283 285.817 120.146 285.089 120.976 284.35L120.523 283.862C119.701 284.593 118.846 285.316 117.985 286.01L118.414 286.519ZM27.6719 287.087L28.0927 286.572C27.2269 285.891 26.3639 285.179 25.5305 284.458L25.0828 284.952C25.9269 285.68 26.7981 286.398 27.6719 287.087ZM112.99 290.491C113.918 289.877 114.849 289.227 115.749 288.567L115.345 288.04C114.452 288.694 113.532 289.335 112.613 289.945L112.99 290.491ZM33.1388 290.988L33.511 290.436C32.5778 289.834 31.6527 289.206 30.7573 288.567L30.3582 289.101C31.2644 289.745 32.1976 290.381 33.1388 290.988ZM107.208 293.949C108.192 293.421 109.179 292.861 110.14 292.286L109.789 291.724C108.837 292.294 107.858 292.848 106.882 293.371L107.208 293.949ZM38.9537 294.366L39.2692 293.783C38.2875 293.271 37.3058 292.732 36.351 292.175L36.0058 292.743C36.9713 293.305 37.9612 293.849 38.9537 294.366ZM101.113 296.86C102.148 296.424 103.184 295.957 104.195 295.474L103.899 294.883C102.898 295.361 101.87 295.823 100.846 296.253L101.113 296.86ZM45.0598 297.19L45.3187 296.58C44.2965 296.166 43.269 295.717 42.2603 295.253L41.9717 295.849C42.9885 296.319 44.0295 296.77 45.0598 297.19ZM94.7583 299.193C95.829 298.855 96.9078 298.488 97.9651 298.1L97.7278 297.483C96.6813 297.865 95.6106 298.23 94.5533 298.565L94.7583 299.193ZM51.4194 299.441L51.619 298.81C50.5537 298.488 49.483 298.137 48.4392 297.768L48.2072 298.388C49.2645 298.763 50.3433 299.116 51.4194 299.441ZM88.2233 300.922C89.321 300.687 90.4295 300.42 91.5137 300.133L91.3358 299.497C90.2623 299.782 89.1673 300.043 88.0804 300.278L88.2233 300.922ZM57.9733 301.096L58.1108 300.449C57.0185 300.228 55.9208 299.977 54.8447 299.705L54.6775 300.344C55.7617 300.618 56.8702 300.872 57.9733 301.096ZM81.5509 302.038C82.6647 301.906 83.7921 301.743 84.9006 301.558L84.7873 300.909C83.6869 301.091 82.573 301.252 81.4699 301.384L81.5509 302.038ZM64.6592 302.136L64.7347 301.481C63.6263 301.36 62.5097 301.212 61.4093 301.04L61.3041 301.692C62.4126 301.864 63.5427 302.014 64.6592 302.136ZM74.8028 302.54C75.9248 302.508 77.063 302.45 78.1822 302.365L78.131 301.708C77.0225 301.79 75.8952 301.848 74.7813 301.88L74.8028 302.54ZM71.4153 302.558L71.4261 301.898C70.3095 301.88 69.1822 301.835 68.0764 301.766L68.0332 302.423C69.1498 302.495 70.288 302.54 71.4153 302.558Z" fill="#146BFF"/>
<path fill-rule="evenodd" clip-rule="evenodd" d="M411.474 169.191C412.579 169.096 413.703 169.037 414.815 169.019L414.804 168.359C413.675 168.378 412.535 168.437 411.415 168.534L411.474 169.191ZM421.494 169.367L421.577 168.713C420.462 168.576 419.324 168.477 418.197 168.418L418.161 169.077C419.273 169.135 420.394 169.233 421.494 169.367ZM404.873 170.233C405.954 169.983 407.058 169.769 408.155 169.596L408.047 168.944C406.935 169.12 405.815 169.337 404.718 169.59L404.873 170.233ZM428.052 170.643L428.23 170.007C427.145 169.715 426.034 169.458 424.928 169.242L424.796 169.89C425.886 170.102 426.982 170.355 428.052 170.643ZM398.489 172.193C399.523 171.793 400.586 171.425 401.647 171.099L401.445 170.469C400.368 170.8 399.29 171.174 398.241 171.579L398.489 172.193ZM434.35 172.828L434.621 172.223C433.59 171.781 432.529 171.371 431.468 171.003L431.243 171.625C432.289 171.988 433.334 172.392 434.35 172.828ZM392.458 175.033C393.422 174.492 394.42 173.978 395.421 173.507L395.128 172.912C394.113 173.39 393.101 173.911 392.123 174.46L392.458 175.033ZM440.263 175.874L440.619 175.314C439.662 174.732 438.672 174.176 437.676 173.663L437.362 174.247C438.344 174.753 439.32 175.3 440.263 175.874ZM386.906 178.687C387.782 178.017 388.693 177.369 389.615 176.763L389.239 176.215C388.304 176.83 387.379 177.487 386.491 178.167L386.906 178.687ZM445.673 179.716L446.107 179.212C445.245 178.502 444.346 177.814 443.434 177.166L443.038 177.7C443.937 178.339 444.823 179.018 445.673 179.716ZM381.943 183.076C382.712 182.291 383.521 181.524 384.345 180.795L383.892 180.305C383.056 181.045 382.237 181.823 381.457 182.619L381.943 183.076ZM450.472 184.275L450.975 183.835C450.225 183.013 449.434 182.206 448.625 181.438L448.155 181.912C448.953 182.669 449.732 183.464 450.472 184.275ZM377.669 188.109C378.317 187.225 379.005 186.354 379.715 185.518L379.196 185.096C378.476 185.944 377.778 186.828 377.122 187.724L377.669 188.109ZM454.562 189.456L455.124 189.091C454.5 188.172 453.835 187.264 453.145 186.39L452.611 186.794C453.291 187.655 453.948 188.55 454.562 189.456ZM374.174 193.683C374.685 192.718 375.239 191.76 375.82 190.835L375.245 190.489C374.656 191.428 374.094 192.4 373.575 193.379L374.174 193.683ZM457.855 195.156L458.464 194.874C457.982 193.878 457.456 192.885 456.9 191.923L456.313 192.248C456.861 193.196 457.379 194.174 457.855 195.156ZM371.531 199.686C371.895 198.66 372.303 197.635 372.742 196.638L372.122 196.377C371.677 197.388 371.264 198.429 370.894 199.469L371.531 199.686ZM460.278 201.264L460.923 201.07C460.591 200.014 460.216 198.957 459.808 197.928L459.18 198.167C459.582 199.181 459.952 200.223 460.278 201.264ZM369.796 206.004C370.006 204.938 370.259 203.864 370.547 202.814L369.896 202.643C369.603 203.708 369.347 204.797 369.134 205.88L369.796 206.004ZM461.776 207.64L462.442 207.539C462.269 206.449 462.054 205.351 461.802 204.278L461.145 204.425C461.393 205.484 461.605 206.566 461.776 207.64ZM369.005 212.501C369.057 211.413 369.151 210.315 369.282 209.239L368.612 209.161C368.479 210.253 368.385 211.366 368.331 212.47L369.005 212.501ZM462.327 214.161L463.001 214.154C462.988 213.05 462.934 211.934 462.842 210.837L462.17 210.891C462.261 211.972 462.314 213.073 462.327 214.161ZM368.397 218.018L369.07 217.971C368.991 216.889 368.952 215.788 368.952 214.699H368.277C368.277 215.803 368.318 216.92 368.397 218.018ZM462.6 220.78C462.746 219.688 462.854 218.576 462.921 217.474L462.247 217.435C462.182 218.522 462.076 219.618 461.931 220.694L462.6 220.78ZM369.358 224.588L370.017 224.448C369.781 223.387 369.582 222.303 369.425 221.226L368.757 221.32C368.917 222.412 369.119 223.512 369.358 224.588ZM461.237 227.283C461.543 226.22 461.812 225.135 462.039 224.055L461.378 223.923C461.155 224.987 460.89 226.057 460.588 227.104L461.237 227.283ZM371.273 230.956L371.905 230.725C371.515 229.707 371.158 228.662 370.845 227.62L370.198 227.806C370.516 228.863 370.878 229.923 371.273 230.956ZM458.935 233.523C459.393 232.515 459.818 231.48 460.2 230.445L459.566 230.221C459.19 231.241 458.77 232.262 458.318 233.254L458.935 233.523ZM374.108 236.995L374.699 236.677C374.163 235.723 373.656 234.738 373.192 233.751L372.579 234.026C373.05 235.028 373.564 236.027 374.108 236.995ZM455.741 239.374C456.342 238.441 456.915 237.476 457.445 236.504L456.851 236.193C456.328 237.151 455.762 238.103 455.17 239.022L455.741 239.374ZM377.795 242.571L378.334 242.174C377.665 241.305 377.019 240.402 376.416 239.489L375.85 239.848C376.462 240.773 377.117 241.69 377.795 242.571ZM451.725 244.721C452.456 243.881 453.164 243.005 453.831 242.117L453.287 241.727C452.631 242.601 451.932 243.465 451.212 244.294L451.725 244.721ZM382.256 247.575L382.731 247.107C381.943 246.341 381.173 245.537 380.443 244.717L379.935 245.151C380.675 245.982 381.456 246.798 382.256 247.575ZM446.971 249.458C447.816 248.729 448.644 247.96 449.435 247.172L448.954 246.71C448.174 247.486 447.357 248.244 446.525 248.963L446.971 249.458ZM387.395 251.907L387.798 251.377C386.907 250.728 386.028 250.04 385.187 249.331L384.747 249.83C385.6 250.55 386.491 251.248 387.395 251.907ZM441.576 253.486C442.519 252.882 443.451 252.236 444.348 251.566L443.939 251.042C443.055 251.702 442.135 252.339 441.207 252.934L441.576 253.486ZM393.111 255.477L393.432 254.897C392.457 254.38 391.488 253.821 390.551 253.236L390.188 253.792C391.138 254.386 392.122 254.953 393.111 255.477ZM435.646 256.721C436.668 256.255 437.685 255.746 438.671 255.208L438.343 254.631C437.371 255.162 436.368 255.664 435.361 256.123L435.646 256.721ZM399.286 258.209L399.519 257.589C398.478 257.215 397.438 256.798 396.426 256.351L396.148 256.952C397.175 257.406 398.23 257.829 399.286 258.209ZM429.3 259.089C430.381 258.772 431.463 258.411 432.518 258.017L432.277 257.401C431.238 257.789 430.171 258.144 429.106 258.458L429.3 259.089ZM405.805 260.045L405.944 259.401C404.858 259.176 403.766 258.91 402.698 258.608L402.511 259.242C403.595 259.548 404.703 259.818 405.805 260.045ZM422.68 260.538C423.797 260.375 424.92 260.171 426.017 259.931L425.869 259.287C424.788 259.525 423.682 259.725 422.581 259.886L422.68 260.538ZM412.525 260.947L412.568 260.29C411.461 260.219 410.341 260.108 409.24 259.96L409.149 260.615C410.265 260.765 411.401 260.876 412.525 260.947ZM415.917 261.045C417.049 261.04 418.19 260.992 419.308 260.91L419.256 260.25C418.154 260.335 417.03 260.38 415.914 260.385L415.917 261.045Z" fill="#146BFF"/>
<path fill-rule="evenodd" clip-rule="evenodd" d="M225.954 81.7983C231.938 81.7983 236.804 86.5607 236.804 92.4147C236.804 98.2685 231.938 103.031 225.954 103.031C219.971 103.031 215.105 98.2685 215.105 92.4147C215.105 86.5607 219.971 81.7983 225.954 81.7983ZM225.954 103.525C232.215 103.525 237.31 98.5408 237.31 92.4147C237.31 86.2886 232.215 81.3044 225.954 81.3044C219.694 81.3044 214.601 86.2886 214.601 92.4147C214.601 98.5408 219.694 103.525 225.954 103.525Z" fill="#146BFF"/>
<path fill-rule="evenodd" clip-rule="evenodd" d="M100.234 151.892C104.104 171.063 91.2809 189.673 71.5931 193.459C51.9043 197.246 32.806 184.775 28.9356 165.603C25.0642 146.432 37.887 127.822 57.5758 124.037C77.2646 120.25 96.3638 132.721 100.234 151.892Z" fill="#CCF0FF"/>
<path fill-rule="evenodd" clip-rule="evenodd" d="M91.8414 153.42C94.7874 167.998 85.0259 182.152 70.0361 185.033C55.0491 187.911 40.5082 178.427 37.5621 163.848C34.6161 149.268 44.3776 135.114 59.3664 132.235C74.3544 129.356 88.8934 138.84 91.8414 153.42Z" fill="#A6E6FF"/>
<path fill-rule="evenodd" clip-rule="evenodd" d="M91.4948 152.721C91.3323 152.758 90.9819 151.618 90.1375 149.673C89.2854 147.742 87.879 144.983 85.3806 142.155C84.1337 140.748 82.6224 139.33 80.8267 138.032C79.0226 136.752 76.9502 135.571 74.6189 134.686C73.4552 134.239 72.2348 133.848 70.9615 133.563C69.6901 133.271 68.3724 133.043 67.0188 132.944C65.6671 132.84 64.2833 132.807 62.8844 132.912C61.4874 133.013 60.0781 133.214 58.6725 133.521C57.2708 133.846 55.9125 134.267 54.6099 134.772C53.3054 135.276 52.0746 135.897 50.9043 136.568C49.7302 137.236 48.6477 138.004 47.6332 138.81C46.615 139.611 45.6912 140.485 44.8448 141.383C43.1427 143.176 41.8042 145.125 40.7538 147.047C39.7186 148.981 38.9912 150.903 38.4972 152.703C37.513 156.313 37.479 159.395 37.5744 161.497C37.6839 163.607 37.8785 164.783 37.7142 164.817C37.5942 164.848 37.1247 163.729 36.7564 161.58C36.4031 159.443 36.1962 156.222 37.0435 152.363C37.4695 150.441 38.1543 148.372 39.1877 146.277C40.2371 144.193 41.6106 142.073 43.3968 140.111C44.2856 139.128 45.2604 138.173 46.3429 137.294C47.4207 136.411 48.5787 135.569 49.836 134.835C51.0913 134.099 52.4147 133.419 53.8202 132.868C55.2229 132.315 56.6889 131.858 58.1993 131.508C59.7163 131.177 61.2371 130.963 62.7456 130.861C64.2559 130.757 65.7503 130.802 67.2068 130.929C68.6662 131.051 70.0831 131.313 71.4461 131.648C72.812 131.975 74.1164 132.418 75.3538 132.922C77.8343 133.924 80.0182 135.244 81.8913 136.67C83.7549 138.113 85.2965 139.682 86.5377 141.229C89.0238 144.338 90.2744 147.324 90.912 149.398C91.5402 151.489 91.6157 152.695 91.4948 152.721Z" fill="#07B8FF"/>
<path fill-rule="evenodd" clip-rule="evenodd" d="M72.1503 164.997C71.8382 163.557 70.4504 163.031 68.5083 162.787L69.739 168.46C71.7426 167.572 72.436 166.313 72.1503 164.997ZM62.7709 156.589L61.5033 150.753C59.3833 151.708 58.759 153.083 59.0532 154.44C59.3653 155.878 60.7957 156.399 62.7709 156.589ZM70.9149 173.887L71.9138 178.491L67.7108 179.362L66.7384 174.883C62.523 175.499 58.2529 175.054 55.5578 173.765L56.7809 168.27C59.214 169.356 62.4805 169.837 65.571 169.497L64.0811 162.631C59.1743 162.491 53.6308 162.051 52.3565 156.172C51.4115 151.814 53.837 147.403 60.318 145.286L59.3285 140.722L63.5324 139.851L64.5049 144.332C67.7108 143.924 70.9574 144.11 73.5816 145.068L72.5779 150.562C70.1742 149.815 67.8366 149.568 65.6807 149.756L67.1972 156.746C72.0945 156.846 77.5547 157.304 78.811 163.099C79.7381 167.375 77.3457 171.738 70.9149 173.887Z" fill="#07B8FF"/>
<path fill-rule="evenodd" clip-rule="evenodd" d="M197.576 277.572C199.841 288.771 192.334 299.642 180.807 301.854C169.28 304.066 158.098 296.781 155.831 285.582C153.565 274.384 161.073 263.513 172.6 261.302C184.127 259.09 195.309 266.375 197.576 277.572Z" fill="#CCF0FF"/>
<path fill-rule="evenodd" clip-rule="evenodd" d="M192.631 278.527C194.361 287.057 188.632 295.339 179.835 297.024C171.04 298.708 162.506 293.158 160.777 284.629C159.049 276.098 164.777 267.816 173.573 266.132C182.369 264.446 190.901 269.996 192.631 278.527Z" fill="#A6E6FF"/>
<path fill-rule="evenodd" clip-rule="evenodd" d="M192.326 277.983C192.23 278.006 192.025 277.338 191.532 276.198C191.033 275.067 190.21 273.451 188.747 271.794C188.018 270.969 187.134 270.138 186.084 269.377C185.028 268.628 183.816 267.937 182.451 267.417C181.77 267.156 181.057 266.927 180.311 266.76C179.567 266.589 178.796 266.455 178.005 266.397C177.214 266.337 176.404 266.316 175.586 266.378C174.768 266.438 173.943 266.555 173.121 266.736C172.3 266.926 171.506 267.172 170.744 267.468C169.98 267.764 169.26 268.127 168.576 268.52C167.889 268.912 167.255 269.363 166.662 269.834C166.066 270.303 165.526 270.815 165.03 271.341C164.034 272.392 163.251 273.533 162.637 274.66C162.031 275.793 161.606 276.919 161.317 277.973C160.74 280.089 160.721 281.894 160.777 283.125C160.84 284.362 160.955 285.05 160.858 285.07C160.788 285.088 160.513 284.433 160.298 283.174C160.091 281.922 159.97 280.035 160.466 277.775C160.715 276.648 161.116 275.436 161.721 274.209C162.334 272.989 163.138 271.746 164.183 270.596C164.703 270.02 165.273 269.461 165.907 268.946C166.537 268.428 167.215 267.936 167.951 267.505C168.685 267.074 169.46 266.676 170.282 266.353C171.102 266.028 171.96 265.761 172.844 265.556C173.732 265.362 174.622 265.236 175.504 265.176C176.388 265.116 177.262 265.142 178.114 265.216C178.968 265.289 179.797 265.442 180.595 265.638C181.394 265.83 182.157 266.089 182.881 266.385C184.333 266.972 185.61 267.744 186.707 268.581C187.797 269.426 188.698 270.345 189.426 271.252C190.879 273.072 191.611 274.822 191.985 276.037C192.352 277.262 192.397 277.968 192.326 277.983Z" fill="#07B8FF"/>
<path fill-rule="evenodd" clip-rule="evenodd" d="M180.958 285.364C180.776 284.521 179.964 284.213 178.827 284.07L179.547 287.393C180.72 286.872 181.125 286.134 180.958 285.364ZM175.469 280.442L174.728 277.024C173.487 277.583 173.122 278.389 173.293 279.182C173.477 280.025 174.314 280.331 175.469 280.442ZM180.235 290.569L180.82 293.265L178.359 293.775L177.792 291.152C175.324 291.513 172.826 291.252 171.249 290.497L171.965 287.28C173.388 287.916 175.3 288.198 177.108 287.999L176.236 283.979C173.365 283.896 170.121 283.639 169.375 280.197C168.823 277.645 170.242 275.063 174.034 273.823L173.455 271.152L175.915 270.641L176.484 273.265C178.36 273.026 180.26 273.134 181.796 273.696L181.208 276.912C179.802 276.475 178.434 276.331 177.172 276.441L178.059 280.532C180.925 280.592 184.12 280.86 184.855 284.253C185.398 286.757 183.998 289.31 180.235 290.569Z" fill="#07B8FF"/>
<path fill-rule="evenodd" clip-rule="evenodd" d="M420.397 211.425C420.74 210.028 419.747 208.992 418.146 207.98L416.794 213.488C418.935 213.529 420.084 212.703 420.397 211.425ZM415.761 200.154L417.151 194.486C414.88 194.455 413.741 195.412 413.418 196.728C413.075 198.125 414.11 199.172 415.761 200.154ZM415.503 218.756L414.406 223.227L410.339 222.267L411.406 217.915C407.44 216.725 403.879 214.575 402.064 212.331L405.494 207.989C407.165 209.946 409.829 211.716 412.689 212.687L414.323 206.021C410.074 203.877 405.392 201.209 406.792 195.501C407.83 191.27 411.851 188.378 418.453 189.177L419.539 184.746L423.606 185.706L422.539 190.058C425.53 191.018 428.303 192.518 430.197 194.443L426.96 198.871C425.17 197.225 423.221 196.046 421.248 195.327L419.583 202.112C423.843 204.216 428.442 206.865 427.062 212.494C426.043 216.645 422.073 219.507 415.503 218.756Z" fill="#A6E6FF"/>
<path fill-rule="evenodd" clip-rule="evenodd" d="M456.219 418.262C456.219 418.394 357.926 418.502 236.705 418.502C115.441 418.502 17.1694 418.394 17.1694 418.262C17.1694 418.128 115.441 418.02 236.705 418.02C357.926 418.02 456.219 418.128 456.219 418.262Z" fill="#07377E"/>
<path fill-rule="evenodd" clip-rule="evenodd" d="M433.381 98.6953C433.269 96.2172 431.108 94.9634 427.944 94.035L428.385 103.806C431.973 102.87 433.484 100.961 433.381 98.6953ZM420.147 82.1699L419.694 72.1161C415.891 73.1314 414.462 75.2507 414.568 77.5873C414.679 80.0653 416.915 81.3164 420.147 82.1699ZM428.807 113.151L429.166 121.081L421.92 121.394L421.571 113.676C414.378 113.561 407.396 111.663 403.273 108.792L406.867 99.9805C410.609 102.445 415.911 104.13 421.152 104.402L420.618 92.5778C412.488 91.0132 403.384 88.7811 402.927 78.6562C402.587 71.1517 407.877 64.4683 419.267 62.6994L418.912 54.8417L426.159 54.5283L426.507 62.2454C431.96 62.4359 437.315 63.6232 441.412 65.9302L438.183 74.7948C434.394 72.9002 430.572 71.86 426.93 71.5909L427.474 83.6271C435.6 85.1214 444.558 87.359 445.009 97.3425C445.341 104.705 440.123 111.315 428.807 113.151Z" fill="#A6E6FF"/>
<path fill-rule="evenodd" clip-rule="evenodd" d="M386.097 266.976H87.3467C83.5791 266.976 80.5249 263.993 80.5249 260.311V44.7023C80.5249 41.0207 83.5791 38.0369 87.3467 38.0369H386.097C389.866 38.0369 392.919 41.0207 392.919 44.7023V260.311C392.919 263.993 389.866 266.976 386.097 266.976Z" fill="#F1FBFF"/>
<path fill-rule="evenodd" clip-rule="evenodd" d="M386.126 266.987C386.111 266.935 387.116 267.105 388.832 266.413C389.665 266.047 390.666 265.427 391.496 264.365C392.342 263.328 392.944 261.807 392.901 260.049C392.891 253.003 392.875 242.618 392.854 229.243C392.836 202.486 392.81 163.776 392.777 115.944C392.772 103.985 392.766 91.4566 392.761 78.402C392.759 71.8748 392.756 65.2152 392.753 58.4309C392.752 55.0387 392.751 51.6141 392.75 48.16C392.749 47.2962 392.749 46.4306 392.749 45.5631C392.753 44.6873 392.764 43.8421 392.54 43.0208C392.125 41.3793 391.008 39.9135 389.503 39.047C388.755 38.6104 387.915 38.321 387.047 38.2045C386.438 38.1268 385.797 38.1305 385.153 38.1351C384.889 38.1369 384.626 38.1388 384.364 38.1351C382.549 38.136 380.727 38.1369 378.897 38.1369C375.238 38.1379 371.549 38.1388 367.83 38.1406C360.394 38.1416 352.838 38.1434 345.171 38.1453C329.837 38.149 314.056 38.1527 297.874 38.1564C233.141 38.1619 161.973 38.1684 87.2722 38.1749C85.0118 38.1591 82.7968 39.3549 81.642 41.2498C81.0457 42.1802 80.72 43.265 80.6803 44.3581C80.6557 45.4753 80.6736 46.6239 80.668 47.7531C80.668 52.2883 80.668 56.8097 80.668 61.3163C80.667 70.3285 80.667 79.2806 80.667 88.168C80.6651 105.944 80.6642 123.458 80.6632 140.668C80.6585 175.088 80.6538 208.288 80.649 239.915C80.6481 243.868 80.6471 247.797 80.6462 251.7C80.6462 253.653 80.6453 255.598 80.6453 257.537C80.6471 258.505 80.649 259.471 80.6509 260.436C80.668 261.372 80.8961 262.299 81.3126 263.135C82.1342 264.821 83.7443 266.106 85.5845 266.557C86.3957 266.778 87.241 266.776 88.109 266.773C88.2188 266.773 88.3295 266.773 88.4412 266.773C89.4171 266.774 90.3902 266.774 91.3633 266.774C95.2518 266.775 99.1138 266.776 102.947 266.776C118.283 266.78 133.17 266.784 147.564 266.788C176.352 266.799 203.167 266.809 227.648 266.818C276.606 266.85 316.224 266.876 343.607 266.895C357.295 266.913 367.924 266.929 375.135 266.939C378.734 266.949 381.482 266.958 383.333 266.963C385.181 266.972 386.126 266.987 386.126 266.987C386.126 266.987 385.181 267.005 383.333 267.012C381.482 267.018 378.734 267.026 375.135 267.036C367.924 267.047 357.295 267.062 343.607 267.082C316.224 267.099 276.606 267.125 227.648 267.158C203.167 267.167 176.352 267.177 147.564 267.188C133.17 267.192 118.283 267.195 102.947 267.2C99.1138 267.201 95.2518 267.202 91.3633 267.204C90.3902 267.204 89.4171 267.204 88.4412 267.204C88.3267 267.204 88.2112 267.204 88.0948 267.204C87.2372 267.204 86.3389 267.209 85.4737 266.974C83.5086 266.493 81.7916 265.125 80.9141 263.326C80.4673 262.432 80.224 261.441 80.2051 260.444C80.2032 259.477 80.2004 258.508 80.1985 257.537C80.1975 255.598 80.1975 253.653 80.1966 251.7C80.1956 247.797 80.1956 243.868 80.1947 239.915C80.19 208.288 80.1852 175.088 80.1805 140.668C80.1786 123.458 80.1776 105.944 80.1744 88.168C80.1744 79.2806 80.1744 70.3285 80.1744 61.3163C80.1744 56.8097 80.1744 52.2883 80.1744 47.7531C80.1814 46.6156 80.1625 45.4938 80.189 44.3405C80.2307 43.1651 80.5818 41.998 81.2217 40.9983C82.4617 38.9628 84.8471 37.6755 87.2722 37.6929C161.973 37.7004 233.141 37.706 297.874 37.7125C314.056 37.7162 329.837 37.7189 345.171 37.7217C352.838 37.7245 360.394 37.7263 367.83 37.7282C371.549 37.7291 375.238 37.73 378.897 37.731C380.727 37.7319 382.549 37.7328 384.364 37.7328C384.63 37.7374 384.895 37.7356 385.16 37.7337C385.801 37.7291 386.442 37.7245 387.104 37.8077C388.025 37.9316 388.918 38.2396 389.713 38.7029C391.31 39.6259 392.494 41.1805 392.934 42.9247C393.171 43.7958 393.154 44.7086 393.154 45.5631C393.154 46.4306 393.154 47.2962 393.154 48.16C393.151 51.6141 393.15 55.0387 393.149 58.4309C393.146 65.2152 393.143 71.8748 393.141 78.402C393.135 91.4566 393.131 103.985 393.126 115.944C393.092 163.776 393.065 202.486 393.047 229.243C393.027 242.618 393.011 253.003 393.001 260.049C393.037 261.825 392.418 263.368 391.555 264.411C390.709 265.478 389.695 266.097 388.853 266.458C387.998 266.819 387.291 266.902 386.83 266.965C386.363 266.985 386.126 266.987 386.126 266.987Z" fill="#146BFF"/>
<path fill-rule="evenodd" clip-rule="evenodd" d="M370.374 133.437H248.892C244.599 133.437 241.117 130.04 241.117 125.849V80.5559C241.117 76.3651 244.599 72.9671 248.892 72.9671H370.374C374.667 72.9671 378.149 76.3651 378.149 80.5559V125.849C378.149 130.04 374.667 133.437 370.374 133.437Z" fill="#146BFF"/>
<path fill-rule="evenodd" clip-rule="evenodd" d="M315.245 102.973H313.05V100.636C310.877 100.507 308.791 99.8431 307.583 98.9207L308.791 96.3043C309.889 97.0981 311.47 97.6763 313.05 97.8271V94.2458C310.613 93.6666 307.891 92.8728 307.891 89.8068C307.891 87.5337 309.581 85.5825 313.05 85.1967V82.8162H315.245V85.1541C316.891 85.2827 318.495 85.7111 319.701 86.4614L318.604 89.0991C317.485 88.4773 316.343 88.1128 315.245 87.9842V91.6294C317.682 92.1873 320.361 92.9811 320.361 96.0045C320.361 98.2342 318.692 100.164 315.245 100.572V102.973ZM315.245 94.7815V97.7411C316.343 97.5052 316.826 96.9482 316.826 96.2617C316.826 95.5105 316.188 95.1034 315.245 94.7815ZM313.05 88.0481C311.885 88.3062 311.425 88.9279 311.425 89.6357C311.425 90.386 312.083 90.793 313.05 91.0937V88.0481Z" fill="white"/>
<path fill-rule="evenodd" clip-rule="evenodd" d="M325.678 117.518H323.986V115.712C322.311 115.613 320.703 115.098 319.773 114.387L320.703 112.364C321.55 112.978 322.768 113.425 323.986 113.541V110.774C322.108 110.327 320.01 109.713 320.01 107.344C320.01 105.588 321.313 104.08 323.986 103.781V101.942H325.678V103.748C326.946 103.848 328.182 104.179 329.112 104.759L328.267 106.797C327.404 106.317 326.524 106.035 325.678 105.936V108.752C327.556 109.183 329.62 109.796 329.62 112.133C329.62 113.856 328.334 115.347 325.678 115.662V117.518ZM325.678 111.188V113.475C326.524 113.292 326.896 112.862 326.896 112.331C326.896 111.751 326.405 111.437 325.678 111.188ZM323.986 105.986C323.09 106.184 322.734 106.665 322.734 107.211C322.734 107.792 323.241 108.107 323.986 108.338V105.986Z" fill="white"/>
<path fill-rule="evenodd" clip-rule="evenodd" d="M338.54 98.2566C338.553 98.2593 338.563 98.3893 338.573 98.6371C338.58 98.9248 338.589 99.2849 338.599 99.7285C338.608 100.73 338.62 102.107 338.635 103.825C338.633 107.382 338.632 112.343 338.629 118.196L338.583 118.061C339.277 118.774 340.387 119.236 341.493 119.513C342.619 119.79 343.821 119.909 345.051 119.909C347.474 119.912 350.124 119.334 352.184 117.835L352.098 118.018V118C352.115 110.648 352.13 103.835 352.144 98.2566L352.158 98.3299C351.944 97.9224 351.49 97.5586 351.057 97.3006C350.608 97.0352 350.12 96.8533 349.639 96.6974C348.666 96.4115 347.699 96.2742 346.789 96.2175C344.964 96.1006 343.366 96.2213 342.092 96.4737C340.818 96.741 339.882 97.1698 339.321 97.5623C339.041 97.7582 338.846 97.9336 338.724 98.0598C338.602 98.1888 338.551 98.2593 338.54 98.2566C338.519 98.2491 338.689 97.9002 339.248 97.4677C339.8 97.0333 340.747 96.5591 342.04 96.2528C343.333 95.9623 344.953 95.8082 346.809 95.8983C347.737 95.9428 348.731 96.0672 349.748 96.353C350.738 96.676 351.861 97.0751 352.535 98.1823L352.551 98.2064V98.2566C352.563 103.835 352.578 110.648 352.595 118V118.138L352.509 118.2C350.272 119.827 347.566 120.379 345.05 120.381C343.79 120.377 342.549 120.251 341.374 119.955C340.205 119.641 339.079 119.214 338.225 118.328L338.177 118.278L338.178 118.193C338.256 112.322 338.321 107.345 338.368 103.778C338.407 102.065 338.437 100.694 338.46 99.696C338.476 99.2589 338.491 98.9034 338.502 98.6204C338.514 98.3772 338.528 98.2528 338.54 98.2566Z" fill="#FFFFFE"/>
<path fill-rule="evenodd" clip-rule="evenodd" d="M352.358 98.3996C352.385 98.4393 351.763 98.945 350.562 99.5027C349.369 100.078 347.505 100.477 345.47 100.453C343.448 100.471 341.571 100.173 340.355 99.6234C339.137 99.0974 338.501 98.6076 338.527 98.567C338.568 98.4983 339.277 98.8921 340.487 99.323C341.692 99.7749 343.476 100.009 345.471 99.9943C347.461 100.015 349.227 99.6859 350.42 99.2067C351.618 98.7415 352.314 98.3327 352.358 98.3996Z" fill="#FFFFFE"/>
<path fill-rule="evenodd" clip-rule="evenodd" d="M352.358 103.324C352.385 103.363 351.763 103.869 350.562 104.427C349.369 105.002 347.505 105.401 345.47 105.377C343.448 105.395 341.571 105.097 340.355 104.547C339.137 104.021 338.501 103.531 338.527 103.492C338.568 103.422 339.277 103.815 340.487 104.247C341.692 104.699 343.476 104.933 345.471 104.918C347.461 104.938 349.227 104.61 350.42 104.131C351.618 103.665 352.314 103.257 352.358 103.324Z" fill="#FFFFFE"/>
<path fill-rule="evenodd" clip-rule="evenodd" d="M352.358 108.249C352.385 108.288 351.763 108.794 350.562 109.352C349.369 109.927 347.505 110.326 345.47 110.302C343.448 110.32 341.571 110.021 340.355 109.473C339.137 108.947 338.501 108.457 338.527 108.417C338.568 108.347 339.277 108.74 340.487 109.173C341.692 109.624 343.476 109.858 345.471 109.844C347.461 109.864 349.227 109.535 350.42 109.056C351.618 108.591 352.314 108.182 352.358 108.249Z" fill="#FFFFFE"/>
<path fill-rule="evenodd" clip-rule="evenodd" d="M352.358 113.174C352.385 113.213 351.763 113.719 350.562 114.277C349.369 114.851 347.505 115.251 345.47 115.227C343.448 115.245 341.571 114.947 340.355 114.397C339.137 113.871 338.501 113.381 338.527 113.342C338.568 113.272 339.277 113.666 340.487 114.098C341.692 114.55 343.476 114.783 345.471 114.769C347.461 114.788 349.227 114.46 350.42 113.981C351.618 113.516 352.314 113.107 352.358 113.174Z" fill="#FFFFFE"/>
<path fill-rule="evenodd" clip-rule="evenodd" d="M352.262 88.2658C352.276 88.2695 352.288 88.4673 352.298 88.8454C352.305 89.2596 352.316 89.8106 352.328 90.5058C352.337 91.9924 352.35 94.0901 352.367 96.7129C352.365 102.048 352.364 109.511 352.361 118.202L352.312 118.062C353.023 118.788 354.158 119.253 355.276 119.523C356.414 119.799 357.622 119.911 358.849 119.908C361.268 119.896 363.878 119.311 365.898 117.842L365.812 118.024V118.008C365.837 106.529 365.859 96.0731 365.876 88.2667L365.889 88.3323C365.665 87.9117 365.204 87.5437 364.757 87.2849C364.301 87.0149 363.801 86.8374 363.314 86.683C362.327 86.3974 361.35 86.2716 360.436 86.2125C358.603 86.1099 357.009 86.2291 355.747 86.4907C354.485 86.7635 353.567 87.1943 353.019 87.5817C352.745 87.7767 352.557 87.9496 352.438 88.0735C352.322 88.2001 352.271 88.2686 352.262 88.2658C352.254 88.263 352.292 88.1789 352.397 88.0402C352.504 87.9024 352.685 87.7129 352.955 87.5003C353.495 87.076 354.422 86.6054 355.701 86.2985C356.981 86.0017 358.591 85.8519 360.452 85.9296C361.384 85.9767 362.382 86.0914 363.41 86.3752C364.409 86.6914 365.549 87.0926 366.23 88.2001L366.243 88.2214L366.244 88.2667C366.261 96.0731 366.284 106.529 366.308 118.008V118.145L366.222 118.206C364.029 119.801 361.364 120.362 358.85 120.382C357.592 120.383 356.347 120.267 355.157 119.975C353.973 119.668 352.822 119.245 351.939 118.339L351.89 118.289L351.891 118.2C351.967 109.488 352.033 102.01 352.081 96.663C352.121 94.0466 352.154 91.9536 352.176 90.4716C352.195 89.7829 352.21 89.2365 352.22 88.8269C352.236 88.4544 352.249 88.263 352.262 88.2658Z" fill="#FFFFFE"/>
<path fill-rule="evenodd" clip-rule="evenodd" d="M365.957 98.3996C365.986 98.4393 365.362 98.945 364.162 99.5027C362.968 100.078 361.105 100.477 359.07 100.453C357.047 100.471 355.171 100.173 353.954 99.6234C352.736 99.0974 352.1 98.6076 352.126 98.567C352.167 98.4983 352.877 98.8921 354.087 99.323C355.292 99.7749 357.074 100.009 359.07 99.9943C361.061 100.015 362.828 99.6859 364.02 99.2067C365.218 98.7415 365.915 98.3327 365.957 98.3996Z" fill="#FFFFFE"/>
<path fill-rule="evenodd" clip-rule="evenodd" d="M365.957 103.324C365.986 103.363 365.362 103.869 364.162 104.427C362.968 105.002 361.105 105.401 359.07 105.377C357.047 105.395 355.171 105.097 353.954 104.547C352.736 104.021 352.1 103.531 352.126 103.492C352.167 103.422 352.877 103.815 354.087 104.247C355.292 104.699 357.074 104.933 359.07 104.918C361.061 104.938 362.828 104.61 364.02 104.131C365.218 103.665 365.915 103.257 365.957 103.324Z" fill="#FFFFFE"/>
<path fill-rule="evenodd" clip-rule="evenodd" d="M365.957 93.4745C365.986 93.5142 365.362 94.0199 364.162 94.5775C362.968 95.1519 361.105 95.551 359.07 95.5281C357.047 95.5457 355.171 95.2471 353.954 94.6982C352.736 94.1723 352.1 93.6816 352.126 93.6419C352.167 93.5723 352.877 93.9661 354.087 94.3978C355.292 94.8498 357.074 95.0841 359.07 95.07C361.061 95.0894 362.828 94.7608 364.02 94.2815C365.218 93.8172 365.915 93.4067 365.957 93.4745Z" fill="#FFFFFE"/>
<path fill-rule="evenodd" clip-rule="evenodd" d="M365.957 88.321C365.986 88.3615 365.362 88.8662 364.162 89.4245C362.968 89.9987 361.105 90.3977 359.07 90.3748C357.047 90.3915 355.171 90.0938 353.954 89.5443C352.736 89.0194 352.1 88.5289 352.126 88.4892C352.167 88.4197 352.877 88.8133 354.087 89.2449C355.292 89.6966 357.074 89.93 359.07 89.9159C361.061 89.9362 362.828 89.6077 364.02 89.1277C365.218 88.6636 365.915 88.2541 365.957 88.321Z" fill="#FFFFFE"/>
<path fill-rule="evenodd" clip-rule="evenodd" d="M365.957 108.249C365.986 108.288 365.362 108.794 364.162 109.352C362.968 109.927 361.105 110.326 359.07 110.302C357.047 110.32 355.171 110.021 353.954 109.473C352.736 108.947 352.1 108.457 352.126 108.417C352.167 108.347 352.877 108.74 354.087 109.173C355.292 109.624 357.074 109.858 359.07 109.844C361.061 109.864 362.828 109.535 364.02 109.056C365.218 108.591 365.915 108.182 365.957 108.249Z" fill="#FFFFFE"/>
<path fill-rule="evenodd" clip-rule="evenodd" d="M365.957 113.174C365.986 113.213 365.362 113.719 364.162 114.277C362.968 114.851 361.105 115.251 359.07 115.227C357.047 115.245 355.171 114.947 353.954 114.397C352.736 113.871 352.1 113.381 352.126 113.342C352.167 113.272 352.877 113.666 354.087 114.098C355.292 114.55 357.074 114.783 359.07 114.769C361.061 114.788 362.828 114.46 364.02 113.981C365.218 113.516 365.915 113.107 365.957 113.174Z" fill="#FFFFFE"/>
<path fill-rule="evenodd" clip-rule="evenodd" d="M227.712 133.437H106.239C101.943 133.437 98.4604 130.037 98.4604 125.844V80.5605C98.4604 76.367 101.943 72.9671 106.239 72.9671H227.712C232.008 72.9671 235.492 76.367 235.492 80.5605V125.844C235.492 130.037 232.008 133.437 227.712 133.437Z" fill="#07B8FF"/>
<path fill-rule="evenodd" clip-rule="evenodd" d="M163.735 96.2617C163.735 95.5105 163.099 95.1034 162.155 94.7815V97.7411C163.253 97.5052 163.735 96.9473 163.735 96.2617ZM159.959 91.0937V88.0481C158.796 88.3062 158.335 88.927 158.335 89.6357C158.335 90.386 158.993 90.793 159.959 91.0937ZM162.155 100.571V102.973H159.959V100.636C157.785 100.507 155.7 99.8421 154.493 98.9207L155.7 96.3043C156.797 97.0981 158.378 97.6763 159.959 97.8271V94.2449C157.522 93.6666 154.8 92.8728 154.8 89.8068C154.8 87.5337 156.49 85.5825 159.959 85.1967V82.8162H162.155V85.1532C163.801 85.2818 165.404 85.7111 166.611 86.4614L165.514 89.0991C164.394 88.4773 163.253 88.1128 162.155 87.9842V91.6294C164.592 92.1864 167.27 92.9801 167.27 96.0036C167.27 98.2342 165.602 100.164 162.155 100.571Z" fill="#A6E6FF"/>
<path fill-rule="evenodd" clip-rule="evenodd" d="M173.923 112.331C173.923 111.751 173.432 111.436 172.705 111.188V113.474C173.551 113.292 173.923 112.861 173.923 112.331ZM171.013 108.337V105.986C170.116 106.184 169.761 106.664 169.761 107.212C169.761 107.792 170.269 108.106 171.013 108.337ZM172.705 115.662V117.518H171.013V115.712C169.338 115.612 167.731 115.098 166.8 114.386L167.731 112.364C168.577 112.977 169.795 113.425 171.013 113.541V110.774C169.136 110.326 167.037 109.713 167.037 107.344C167.037 105.588 168.34 104.08 171.013 103.781V101.942H172.705V103.748C173.974 103.848 175.209 104.179 176.139 104.758L175.293 106.797C174.43 106.317 173.551 106.035 172.705 105.936V108.752C174.583 109.183 176.647 109.796 176.647 112.133C176.647 113.856 175.361 115.347 172.705 115.662Z" fill="#A6E6FF"/>
<path fill-rule="evenodd" clip-rule="evenodd" d="M110.707 94.2097H109.127V93.8114H112.761V94.2097H111.182V98.1634H110.707V94.2097Z" fill="white"/>
<path fill-rule="evenodd" clip-rule="evenodd" d="M115.571 96.6721C115.571 95.8814 115.026 95.3552 114.291 95.3552C113.554 95.3552 113.002 95.8814 113.002 96.6721C113.002 97.4618 113.554 97.988 114.291 97.988C115.026 97.988 115.571 97.4618 115.571 96.6721ZM112.528 96.6721C112.528 95.67 113.277 94.957 114.291 94.957C115.303 94.957 116.045 95.67 116.045 96.6721C116.045 97.6732 115.303 98.3928 114.291 98.3928C113.277 98.3928 112.528 97.6732 112.528 96.6721Z" fill="white"/>
<path fill-rule="evenodd" clip-rule="evenodd" d="M118.742 97.9342C118.559 98.089 118.285 98.1632 118.017 98.1632C117.37 98.1632 117.012 97.816 117.012 97.2133V95.2402H116.397V94.8683H117.012V94.1547H117.475V94.8683H118.52V95.2402H117.475V97.1894C117.475 97.5742 117.683 97.7849 118.069 97.7849C118.259 97.7849 118.448 97.729 118.579 97.6172L118.742 97.9342Z" fill="white"/>
<path fill-rule="evenodd" clip-rule="evenodd" d="M121.669 97.3462V96.7934H120.573C119.895 96.7934 119.675 97.0513 119.675 97.3974C119.675 97.7889 120.001 98.0335 120.56 98.0335C121.092 98.0335 121.483 97.7889 121.669 97.3462ZM122.141 96.2673V98.3606H121.689V97.8344C121.476 98.1814 121.064 98.3928 120.486 98.3928C119.696 98.3928 119.21 97.9946 119.21 97.4097C119.21 96.8901 119.557 96.4531 120.56 96.4531H121.669V96.2474C121.669 95.67 121.33 95.3552 120.68 95.3552C120.227 95.3552 119.802 95.5098 119.516 95.7534L119.304 95.4131C119.656 95.1239 120.175 94.957 120.726 94.957C121.63 94.957 122.141 95.3941 122.141 96.2673Z" fill="white"/>
<path fill-rule="evenodd" clip-rule="evenodd" d="M123.318 98.3927H123.769V93.6971H123.318V98.3927Z" fill="white"/>
<path fill-rule="evenodd" clip-rule="evenodd" d="M130.693 96.1019C130.693 95.0279 129.895 94.2368 128.824 94.2368C127.746 94.2368 126.942 95.0279 126.942 96.1019C126.942 97.1769 127.746 97.968 128.824 97.968C129.895 97.968 130.693 97.1769 130.693 96.1019ZM126.477 96.1019C126.477 94.7895 127.472 93.8114 128.824 93.8114C130.164 93.8114 131.165 94.7829 131.165 96.1019C131.165 97.421 130.164 98.3925 128.824 98.3925C127.472 98.3925 126.477 97.4143 126.477 96.1019Z" fill="white"/>
<path fill-rule="evenodd" clip-rule="evenodd" d="M133.976 94.957V95.3742L133.863 95.3688C133.134 95.3688 132.689 95.7922 132.689 96.5425V98.1638H132.218V94.9811H132.669V95.6046C132.888 95.1812 133.333 94.957 133.976 94.957Z" fill="white"/>
<path fill-rule="evenodd" clip-rule="evenodd" d="M137.383 96.7084C137.383 95.9345 136.829 95.4195 136.098 95.4195C135.358 95.4195 134.803 95.9345 134.803 96.7084C134.803 97.4815 135.358 97.9965 136.098 97.9965C136.829 97.9965 137.383 97.4815 137.383 96.7084ZM137.846 93.6971V98.3612H137.397V97.7079C137.113 98.1542 136.631 98.3927 136.058 98.3927C135.067 98.3927 134.329 97.7079 134.329 96.7084C134.329 95.709 135.067 95.0297 136.058 95.0297C136.612 95.0297 137.087 95.2562 137.376 95.683V93.6971H137.846Z" fill="white"/>
<path fill-rule="evenodd" clip-rule="evenodd" d="M139.004 96.473H141.396C141.338 95.8112 140.856 95.3486 140.197 95.3486C139.543 95.3486 139.062 95.8112 139.004 96.473ZM141.824 96.8134H139.004C139.056 97.5197 139.594 97.988 140.331 97.988C140.742 97.988 141.107 97.8411 141.364 97.5453L141.62 97.8411C141.318 98.2004 140.851 98.3928 140.319 98.3928C139.267 98.3928 138.549 97.6732 138.549 96.6721C138.549 95.67 139.248 94.957 140.197 94.957C141.146 94.957 141.831 95.6567 141.831 96.6721L141.824 96.8134Z" fill="white"/>
<path fill-rule="evenodd" clip-rule="evenodd" d="M144.643 94.957V95.3742L144.53 95.3688C143.8 95.3688 143.356 95.7922 143.356 96.5425V98.1638H142.885V94.9811H143.335V95.6046C143.555 95.1812 144 94.957 144.643 94.957Z" fill="white"/>
<path fill-rule="evenodd" clip-rule="evenodd" d="M115.106 103.89V117.518H111.899V106.42H109.127V103.89H115.106Z" fill="white"/>
<path fill-rule="evenodd" clip-rule="evenodd" d="M127.881 114.72V117.29H117.491V115.246L122.794 110.283C124.012 109.135 124.228 108.434 124.228 107.772C124.228 106.701 123.481 106.079 122.028 106.079C120.849 106.079 119.848 106.526 119.18 107.441L116.862 105.962C117.923 104.424 119.848 103.432 122.322 103.432C125.386 103.432 127.429 104.989 127.429 107.46C127.429 108.784 127.056 109.991 125.131 111.762L121.969 114.72H127.881Z" fill="white"/>
<path fill-rule="evenodd" clip-rule="evenodd" d="M137.913 110.703C137.913 107.609 136.807 106.325 135.209 106.325C133.631 106.325 132.526 107.609 132.526 110.703C132.526 113.797 133.631 115.081 135.209 115.081C136.807 115.081 137.913 113.797 137.913 110.703ZM129.29 110.703C129.29 106.208 131.815 103.66 135.209 103.66C138.623 103.66 141.129 106.208 141.129 110.703C141.129 115.198 138.623 117.747 135.209 117.747C131.815 117.747 129.29 115.198 129.29 110.703Z" fill="white"/>
<path fill-rule="evenodd" clip-rule="evenodd" d="M221.349 116.945H187.157C185.496 116.945 184.149 115.631 184.149 114.01V94.6837C184.149 93.0633 185.496 91.7492 187.157 91.7492H221.349C223.01 91.7492 224.356 93.0633 224.356 94.6837V114.01C224.356 115.631 223.01 116.945 221.349 116.945Z" fill="#CCF0FF"/>
<path fill-rule="evenodd" clip-rule="evenodd" d="M188.723 98.7365H195.287V96.4455H188.723V98.7365Z" fill="#07B8FF"/>
<path fill-rule="evenodd" clip-rule="evenodd" d="M196.693 103.547C196.693 103.679 194.594 103.785 192.005 103.785C189.414 103.785 187.315 103.679 187.315 103.547C187.315 103.415 189.414 103.308 192.005 103.308C194.594 103.308 196.693 103.415 196.693 103.547Z" fill="#07B8FF"/>
<path fill-rule="evenodd" clip-rule="evenodd" d="M203.02 103.547C203.02 103.679 201.97 103.785 200.675 103.785C199.38 103.785 198.331 103.679 198.331 103.547C198.331 103.415 199.38 103.308 200.675 103.308C201.97 103.308 203.02 103.415 203.02 103.547Z" fill="#07B8FF"/>
<path fill-rule="evenodd" clip-rule="evenodd" d="M220.371 103.547C220.371 103.679 218.797 103.785 216.855 103.785C214.912 103.785 213.338 103.679 213.338 103.547C213.338 103.415 214.912 103.308 216.855 103.308C218.797 103.308 220.371 103.415 220.371 103.547Z" fill="#07B8FF"/>
<path fill-rule="evenodd" clip-rule="evenodd" d="M211.578 103.547C211.578 103.679 210.107 103.785 208.295 103.785C206.482 103.785 205.013 103.679 205.013 103.547C205.013 103.415 206.482 103.308 208.295 103.308C210.107 103.308 211.578 103.415 211.578 103.547Z" fill="#07B8FF"/>
<path fill-rule="evenodd" clip-rule="evenodd" d="M194.463 109.042C194.463 109.174 192.941 109.282 191.064 109.282C189.186 109.282 187.664 109.174 187.664 109.042C187.664 108.912 189.186 108.804 191.064 108.804C192.941 108.804 194.463 108.912 194.463 109.042Z" fill="#07B8FF"/>
<path fill-rule="evenodd" clip-rule="evenodd" d="M200.324 111.563C200.324 111.695 197.489 111.801 193.994 111.801C190.498 111.801 187.664 111.695 187.664 111.563C187.664 111.431 190.498 111.325 193.994 111.325C197.489 111.325 200.324 111.431 200.324 111.563Z" fill="#07B8FF"/>
<path fill-rule="evenodd" clip-rule="evenodd" d="M220.255 111.563C220.255 111.695 219.047 111.801 217.558 111.801C216.069 111.801 214.863 111.695 214.863 111.563C214.863 111.431 216.069 111.325 217.558 111.325C219.047 111.325 220.255 111.431 220.255 111.563Z" fill="#07B8FF"/>
<path fill-rule="evenodd" clip-rule="evenodd" d="M253.364 96.271H251.784V95.8727H255.418V96.271H253.838V100.225H253.364V96.271Z" fill="#FFFFFE"/>
<path fill-rule="evenodd" clip-rule="evenodd" d="M258.463 98.7333C258.463 97.9426 257.916 97.4155 257.181 97.4155C256.444 97.4155 255.892 97.9426 255.892 98.7333C255.892 99.5231 256.444 100.049 257.181 100.049C257.916 100.049 258.463 99.5231 258.463 98.7333ZM255.418 98.7333C255.418 97.7312 256.169 97.0183 257.181 97.0183C258.194 97.0183 258.935 97.7312 258.935 98.7333C258.935 99.7345 258.194 100.454 257.181 100.454C256.169 100.454 255.418 99.7345 255.418 98.7333Z" fill="#FFFFFE"/>
<path fill-rule="evenodd" clip-rule="evenodd" d="M261.75 100.224C261.567 100.38 261.293 100.454 261.025 100.454C260.378 100.454 260.019 100.107 260.019 99.504V97.5309H259.405V97.159H260.019V96.4455H260.482V97.159H261.527V97.5309H260.482V99.4793C260.482 99.864 260.691 100.076 261.077 100.076C261.267 100.076 261.456 100.02 261.587 99.908L261.75 100.224Z" fill="#FFFFFE"/>
<path fill-rule="evenodd" clip-rule="evenodd" d="M264.56 99.4074V98.8547H263.462C262.784 98.8547 262.565 99.1116 262.565 99.4586C262.565 99.8502 262.89 100.095 263.45 100.095C263.981 100.095 264.373 99.8502 264.56 99.4074ZM265.031 98.3285V100.422H264.58V99.8957C264.367 100.243 263.954 100.454 263.377 100.454C262.585 100.454 262.101 100.056 262.101 99.4709C262.101 98.9514 262.446 98.5143 263.45 98.5143H264.56V98.3086C264.56 97.7312 264.221 97.4155 263.569 97.4155C263.117 97.4155 262.691 97.5701 262.406 97.8147L262.194 97.4743C262.546 97.1851 263.064 97.0183 263.616 97.0183C264.52 97.0183 265.031 97.4544 265.031 98.3285Z" fill="#FFFFFE"/>
<path fill-rule="evenodd" clip-rule="evenodd" d="M266.212 100.454H266.663V95.7584H266.212V100.454Z" fill="#FFFFFE"/>
<path fill-rule="evenodd" clip-rule="evenodd" d="M272.821 97.3649C272.821 96.6684 272.355 96.271 271.475 96.271H270.304V98.4534H271.475C272.355 98.4534 272.821 98.0487 272.821 97.3649ZM272.846 100.225L271.839 98.826C271.726 98.8388 271.612 98.8444 271.486 98.8444H270.304V100.225H269.839V95.8727H271.486C272.606 95.8727 273.287 96.4316 273.287 97.3649C273.287 98.0487 272.921 98.5277 272.28 98.7324L273.355 100.225H272.846Z" fill="#FFFFFE"/>
<path fill-rule="evenodd" clip-rule="evenodd" d="M274.395 98.5342H276.785C276.729 97.8725 276.248 97.4098 275.587 97.4098C274.932 97.4098 274.452 97.8725 274.395 98.5342ZM277.215 98.8746H274.395C274.446 99.5809 274.984 100.049 275.722 100.049C276.132 100.049 276.498 99.9014 276.754 99.6065L277.011 99.9014C276.709 100.262 276.241 100.454 275.709 100.454C274.657 100.454 273.939 99.7345 273.939 98.7333C273.939 97.7312 274.638 97.0183 275.587 97.0183C276.536 97.0183 277.222 97.718 277.222 98.7333L277.215 98.8746Z" fill="#FFFFFE"/>
<path fill-rule="evenodd" clip-rule="evenodd" d="M280.973 97.0183L279.45 100.225H278.973L277.456 97.0183H277.938L279.221 99.7498L280.518 97.0183H280.973Z" fill="#FFFFFE"/>
<path fill-rule="evenodd" clip-rule="evenodd" d="M281.546 98.5342H283.936C283.88 97.8725 283.399 97.4098 282.739 97.4098C282.084 97.4098 281.603 97.8725 281.546 98.5342ZM284.366 98.8746H281.546C281.597 99.5809 282.136 100.049 282.873 100.049C283.284 100.049 283.648 99.9014 283.905 99.6065L284.161 99.9014C283.86 100.262 283.392 100.454 282.86 100.454C281.808 100.454 281.09 99.7345 281.09 98.7333C281.09 97.7312 281.79 97.0183 282.739 97.0183C283.687 97.0183 284.373 97.718 284.373 98.7333L284.366 98.8746Z" fill="#FFFFFE"/>
<path fill-rule="evenodd" clip-rule="evenodd" d="M288.476 98.3796V100.225H288.01V98.4216C288.01 97.7498 287.632 97.4051 286.977 97.4051C286.238 97.4051 285.774 97.8293 285.774 98.5547V100.225H285.311V97.0424H285.755V97.6293C286.003 97.2416 286.468 97.0183 287.062 97.0183C287.899 97.0183 288.476 97.4658 288.476 98.3796Z" fill="#FFFFFE"/>
<path fill-rule="evenodd" clip-rule="evenodd" d="M292.811 97.0183V100.422H292.361V99.8007C292.118 100.214 291.669 100.454 291.113 100.454C290.228 100.454 289.646 99.9688 289.646 98.9917V97.0183H290.116V98.9458C290.116 99.6708 290.498 100.04 291.16 100.04C291.886 100.04 292.343 99.5801 292.343 98.8045V97.0183H292.811Z" fill="#FFFFFE"/>
<path fill-rule="evenodd" clip-rule="evenodd" d="M293.971 98.5342H296.362C296.305 97.8725 295.824 97.4098 295.163 97.4098C294.508 97.4098 294.029 97.8725 293.971 98.5342ZM296.792 98.8746H293.971C294.022 99.5809 294.56 100.049 295.298 100.049C295.708 100.049 296.074 99.9014 296.33 99.6065L296.587 99.9014C296.285 100.262 295.817 100.454 295.285 100.454C294.233 100.454 293.516 99.7345 293.516 98.7333C293.516 97.7312 294.214 97.0183 295.163 97.0183C296.113 97.0183 296.798 97.718 296.798 98.7333L296.792 98.8746Z" fill="#FFFFFE"/>
<path fill-rule="evenodd" clip-rule="evenodd" d="M258.072 114.697C258.072 114.215 257.664 113.954 257.057 113.747V115.648C257.762 115.496 258.072 115.138 258.072 114.697ZM255.647 111.379V109.424C254.9 109.589 254.603 109.989 254.603 110.443C254.603 110.925 255.027 111.187 255.647 111.379ZM257.057 117.464V119.007H255.647V117.506C254.251 117.424 252.911 116.997 252.137 116.404L252.911 114.725C253.617 115.234 254.633 115.606 255.647 115.702V113.403C254.082 113.031 252.333 112.522 252.333 110.553C252.333 109.093 253.419 107.841 255.647 107.593V106.065H257.057V107.566C258.114 107.648 259.144 107.923 259.919 108.405L259.214 110.099C258.495 109.7 257.762 109.466 257.057 109.383V111.724C258.622 112.082 260.342 112.591 260.342 114.532C260.342 115.964 259.271 117.203 257.057 117.464Z" fill="#FFFFFE"/>
<path fill-rule="evenodd" clip-rule="evenodd" d="M264.915 107.898V117.518H262.651V109.684H260.695V107.898H264.915Z" fill="#FFFFFE"/>
<path fill-rule="evenodd" clip-rule="evenodd" d="M274.29 114.31C274.29 116.025 272.99 117.519 270.133 117.519C268.747 117.519 267.29 117.146 266.319 116.482L267.233 114.767C267.99 115.32 269.033 115.638 270.076 115.638C271.233 115.638 271.947 115.168 271.947 114.379C271.947 113.618 271.433 113.12 269.618 113.12H267.061L267.575 107.67H273.675V109.468H269.504L269.347 111.308H270.161C273.118 111.308 274.29 112.594 274.29 114.31Z" fill="#FFFFFE"/>
<path fill-rule="evenodd" clip-rule="evenodd" d="M277.808 116.21C277.808 116.569 277.751 116.831 277.43 117.591L276.634 119.58H275.251L275.867 117.384C275.405 117.205 275.112 116.777 275.112 116.21C275.112 115.41 275.698 114.884 276.466 114.884C277.249 114.884 277.808 115.423 277.808 116.21Z" fill="#FFFFFE"/>
<path fill-rule="evenodd" clip-rule="evenodd" d="M284.861 112.708C284.861 110.495 284.064 109.577 282.908 109.577C281.768 109.577 280.969 110.495 280.969 112.708C280.969 114.922 281.768 115.841 282.908 115.841C284.064 115.841 284.861 114.922 284.861 112.708ZM278.63 112.708C278.63 109.493 280.455 107.67 282.908 107.67C285.375 107.67 287.187 109.493 287.187 112.708C287.187 115.924 285.375 117.748 282.908 117.748C280.455 117.748 278.63 115.924 278.63 112.708Z" fill="#FFFFFE"/>
<path fill-rule="evenodd" clip-rule="evenodd" d="M294.47 112.708C294.47 110.495 293.672 109.577 292.517 109.577C291.377 109.577 290.578 110.495 290.578 112.708C290.578 114.922 291.377 115.841 292.517 115.841C293.672 115.841 294.47 114.922 294.47 112.708ZM288.239 112.708C288.239 109.493 290.064 107.67 292.517 107.67C294.984 107.67 296.796 109.493 296.796 112.708C296.796 115.924 294.984 117.748 292.517 117.748C290.064 117.748 288.239 115.924 288.239 112.708Z" fill="#FFFFFE"/>
<path fill-rule="evenodd" clip-rule="evenodd" d="M303.968 112.708C303.968 110.495 303.171 109.577 302.015 109.577C300.874 109.577 300.075 110.495 300.075 112.708C300.075 114.922 300.874 115.841 302.015 115.841C303.171 115.841 303.968 114.922 303.968 112.708ZM297.736 112.708C297.736 109.493 299.561 107.67 302.015 107.67C304.482 107.67 306.293 109.493 306.293 112.708C306.293 115.924 304.482 117.748 302.015 117.748C299.561 117.748 297.736 115.924 297.736 112.708Z" fill="#FFFFFE"/>
<path fill-rule="evenodd" clip-rule="evenodd" d="M368.488 253.121C368.488 253.121 368.655 253.104 368.986 253.083C369.318 253.08 369.807 253.01 370.45 252.898C371.703 252.622 373.644 251.97 375.415 250.156C376.284 249.256 377.077 248.064 377.568 246.608C377.791 245.876 377.975 245.087 378.002 244.25C378.053 243.417 378.013 242.534 378.022 241.623C378.016 237.971 378.009 233.76 378 229.019C377.988 219.534 377.975 207.931 377.958 194.462C377.952 187.726 377.945 180.523 377.94 172.885C377.937 169.066 377.934 165.138 377.93 161.105C377.929 159.089 377.927 157.046 377.926 154.977C377.915 153.947 377.954 152.892 377.876 151.873C377.76 150.85 377.477 149.842 377.026 148.9C376.139 147.006 374.534 145.418 372.566 144.503C371.585 144.042 370.516 143.747 369.42 143.635C368.682 143.582 367.916 143.586 367.149 143.591C366.783 143.593 366.415 143.596 366.05 143.591C361.508 143.594 356.866 143.597 352.129 143.598C342.655 143.603 332.799 143.609 322.594 143.612C302.184 143.62 280.375 143.627 257.426 143.634C211.527 143.641 161.066 143.647 108.101 143.654C106.488 143.67 104.876 144.061 103.48 144.842C102.085 145.622 100.885 146.738 100.069 148.09C99.2226 149.424 98.7844 150.981 98.7343 152.539C98.7068 154.128 98.7267 155.738 98.721 157.332C98.7201 163.722 98.7201 170.068 98.7191 176.37C98.7191 188.971 98.7172 201.389 98.7153 213.589C98.7144 219.69 98.7144 225.736 98.7135 231.725C98.7125 234.719 98.7125 237.698 98.7116 240.663V242.884C98.7135 243.629 98.7012 244.35 98.8204 245.06C99.0371 246.479 99.5718 247.86 100.437 249.018C101.291 250.179 102.405 251.159 103.695 251.824C104.986 252.484 106.428 252.849 107.877 252.882C110.847 252.886 113.801 252.89 116.738 252.895C122.614 252.897 128.424 252.897 134.162 252.898C180.066 252.918 221.404 252.936 256.12 252.95C290.832 252.983 318.921 253.009 338.34 253.027C348.043 253.046 355.578 253.061 360.694 253.072C363.245 253.082 365.192 253.091 366.507 253.095C367.817 253.104 368.488 253.121 368.488 253.121C368.488 253.121 367.817 253.137 366.507 253.145C365.192 253.151 363.245 253.159 360.694 253.168C355.578 253.18 348.043 253.195 338.34 253.214C318.921 253.232 290.832 253.258 256.12 253.29C221.404 253.305 180.066 253.323 134.162 253.342C128.424 253.344 122.614 253.345 116.738 253.347C113.798 253.344 110.841 253.341 107.867 253.338C106.347 253.304 104.831 252.922 103.476 252.229C102.121 251.531 100.949 250.503 100.053 249.284C99.145 248.069 98.581 246.618 98.3529 245.127C98.2272 244.381 98.2412 243.615 98.2374 242.884V240.663C98.2374 237.698 98.2365 234.719 98.2365 231.725C98.2355 225.736 98.2346 219.69 98.2336 213.589C98.2317 201.389 98.2308 188.971 98.2272 176.37C98.2272 170.068 98.2272 163.722 98.2272 157.332C98.2346 155.732 98.2147 154.142 98.2422 152.527C98.2942 150.886 98.757 149.246 99.6466 147.842C100.506 146.419 101.768 145.245 103.236 144.422C104.707 143.6 106.407 143.188 108.101 143.172C161.066 143.18 211.527 143.186 257.426 143.192C280.375 143.199 302.184 143.207 322.594 143.214C332.799 143.218 342.655 143.223 352.129 143.228C356.866 143.23 361.508 143.232 366.05 143.235C366.421 143.24 366.788 143.238 367.155 143.236C367.918 143.232 368.677 143.228 369.455 143.285C370.594 143.402 371.703 143.709 372.721 144.19C374.763 145.141 376.423 146.791 377.342 148.754C377.808 149.733 378.101 150.779 378.218 151.84C378.298 152.912 378.256 153.939 378.265 154.977C378.264 157.046 378.262 159.089 378.261 161.105C378.259 165.138 378.256 169.066 378.253 172.885C378.246 180.523 378.24 187.726 378.234 194.462C378.217 207.931 378.204 219.534 378.191 229.019C378.183 233.76 378.176 237.971 378.17 241.623C378.155 242.537 378.192 243.41 378.137 244.258C378.104 245.107 377.915 245.904 377.685 246.645C377.181 248.118 376.371 249.318 375.487 250.224C373.685 252.044 371.722 252.684 370.46 252.946C369.813 253.051 369.32 253.113 368.988 253.108C368.655 253.121 368.488 253.121 368.488 253.121Z" fill="#07B8FF"/>
<path fill-rule="evenodd" clip-rule="evenodd" d="M183.799 247.047H192.942V211.773H183.799V247.047Z" fill="#A6E6FF"/>
<path fill-rule="evenodd" clip-rule="evenodd" d="M197.396 247.048H206.539V222.425H197.396V247.048Z" fill="#A6E6FF"/>
<path fill-rule="evenodd" clip-rule="evenodd" d="M170.786 247.048H179.929V222.425H170.786V247.048Z" fill="#A6E6FF"/>
<path fill-rule="evenodd" clip-rule="evenodd" d="M144.061 246.933H153.204V243.726H144.061V246.933Z" fill="#A6E6FF"/>
<path fill-rule="evenodd" clip-rule="evenodd" d="M157.656 246.934H166.799V238.802H157.656V246.934Z" fill="#A6E6FF"/>
<path fill-rule="evenodd" clip-rule="evenodd" d="M131.165 246.933H140.308V244.299H131.165V246.933Z" fill="#A6E6FF"/>
<path fill-rule="evenodd" clip-rule="evenodd" d="M117.45 246.933H126.593V244.299H117.45V246.933Z" fill="#A6E6FF"/>
<path fill-rule="evenodd" clip-rule="evenodd" d="M211.813 246.933H220.956V227.349H211.813V246.933Z" fill="#A6E6FF"/>
<path fill-rule="evenodd" clip-rule="evenodd" d="M226.114 247.048H235.257V232.846H226.114V247.048Z" fill="#A6E6FF"/>
<path fill-rule="evenodd" clip-rule="evenodd" d="M240.3 247.048H249.443V222.425H240.3V247.048Z" fill="#A6E6FF"/>
<path fill-rule="evenodd" clip-rule="evenodd" d="M254.714 246.934H263.858V207.078H254.714V246.934Z" fill="#A6E6FF"/>
<path fill-rule="evenodd" clip-rule="evenodd" d="M269.016 247.048H278.159V195.282H269.016V247.048Z" fill="#A6E6FF"/>
<path fill-rule="evenodd" clip-rule="evenodd" d="M283.435 247.047H292.578V211.773H283.435V247.047Z" fill="#A6E6FF"/>
<path fill-rule="evenodd" clip-rule="evenodd" d="M297.736 247.162H306.879V180.164H297.736V247.162Z" fill="#A6E6FF"/>
<path fill-rule="evenodd" clip-rule="evenodd" d="M312.154 247.047H321.298V211.773H312.154V247.047Z" fill="#A6E6FF"/>
<path fill-rule="evenodd" clip-rule="evenodd" d="M326.338 247.048H335.481V222.425H326.338V247.048Z" fill="#A6E6FF"/>
<path fill-rule="evenodd" clip-rule="evenodd" d="M340.757 246.933H349.9V227.006H340.757V246.933Z" fill="#A6E6FF"/>
<path fill-rule="evenodd" clip-rule="evenodd" d="M355.058 247.048H364.201V232.846H355.058V247.048Z" fill="#A6E6FF"/>
<path fill-rule="evenodd" clip-rule="evenodd" d="M124.954 246.939C124.954 246.939 125.257 246.923 125.847 246.914C126.45 246.909 127.325 246.901 128.467 246.891C130.784 246.88 134.178 246.865 138.544 246.846C139.638 246.842 140.793 246.839 142.008 246.835C143.224 246.842 144.49 246.82 145.803 246.646C148.421 246.309 151.237 245.466 153.843 243.844C155.148 243.04 156.367 242.009 157.427 240.783C158.462 239.545 159.164 238 159.904 236.449C161.323 233.305 162.61 229.887 163.926 226.288C165.213 222.677 166.561 218.893 167.967 214.952C168.681 212.984 169.401 210.973 170.227 208.952C171.087 206.942 172.061 204.924 173.337 203.03C174.617 201.145 176.149 199.362 177.982 197.846C179.808 196.327 181.935 195.087 184.26 194.251C186.584 193.407 189.1 193.012 191.639 192.98C194.173 192.972 196.761 193.191 199.278 193.895C200.545 194.216 201.764 194.719 202.956 195.281C204.116 195.904 205.267 196.582 206.273 197.454C208.343 199.136 209.947 201.339 211.208 203.7C212.482 206.075 213.218 208.687 214.068 211.248C214.896 213.824 215.727 216.424 216.656 219.017C218.522 224.183 220.652 229.428 223.896 234.112C225.522 236.43 227.478 238.606 229.943 240.111C231.159 240.884 232.538 241.392 233.956 241.668C234.664 241.834 235.394 241.841 236.121 241.881C236.855 241.841 237.599 241.873 238.329 241.772C240.327 241.596 242.299 241.123 244.037 240.2C245.78 239.284 247.192 237.875 248.342 236.314C249.488 234.74 250.446 233.036 251.421 231.354C252.397 229.681 253.246 227.951 254.028 226.205C257.134 219.199 259.063 211.898 261.962 205.164C263.332 201.776 264.745 198.435 266.531 195.332C268.295 192.222 270.497 189.402 273.046 187.021C274.324 185.846 275.669 184.715 277.183 183.873C278.657 182.965 280.279 182.361 281.885 181.823C285.139 180.83 288.506 180.522 291.758 180.65C295.011 180.791 298.176 181.388 301.103 182.433C304.025 183.487 306.67 185.073 308.867 186.998C313.301 190.831 316.523 195.32 320.2 198.878C323.828 202.507 328.317 204.577 332.489 205.923C336.699 207.254 340.714 207.844 344.296 208.121H344.289C351.532 208.145 357.121 208.164 360.915 208.176C362.797 208.189 364.23 208.2 365.207 208.206C366.172 208.217 366.663 208.238 366.663 208.238C366.663 208.238 366.172 208.259 365.207 208.269C364.23 208.276 362.797 208.286 360.915 208.3C357.121 208.312 351.532 208.331 344.289 208.355H344.284L344.279 208.354C340.681 208.095 336.644 207.519 332.398 206.196C328.195 204.858 323.647 202.782 319.959 199.116C316.245 195.54 313.011 191.062 308.613 187.283C306.433 185.382 303.847 183.841 300.962 182.805C298.077 181.78 294.95 181.196 291.739 181.063C288.531 180.942 285.212 181.252 282.017 182.232C278.819 183.214 275.828 184.931 273.358 187.341C270.847 189.694 268.68 192.475 266.936 195.555C265.172 198.627 263.768 201.949 262.404 205.336C259.517 212.051 257.6 219.333 254.476 226.395C253.689 228.155 252.833 229.9 251.849 231.589C250.873 233.271 249.914 234.984 248.74 236.596C247.566 238.191 246.094 239.666 244.275 240.622C242.461 241.585 240.418 242.073 238.376 242.252C237.626 242.354 236.873 242.322 236.123 242.363C235.367 242.322 234.603 242.314 233.862 242.141C232.381 241.854 230.942 241.32 229.683 240.521C227.132 238.96 225.141 236.734 223.492 234.383C220.206 229.631 218.07 224.358 216.2 219.173C215.27 216.571 214.439 213.964 213.612 211.388C212.764 208.819 212.036 206.236 210.788 203.909C209.552 201.59 207.987 199.437 205.974 197.8C204.995 196.949 203.876 196.289 202.746 195.679C201.584 195.131 200.396 194.638 199.156 194.323C196.695 193.63 194.139 193.409 191.644 193.414C189.151 193.444 186.684 193.826 184.409 194.648C179.819 196.265 176.174 199.533 173.679 203.249C171.157 206.994 169.769 211.156 168.326 215.076C166.91 219.014 165.551 222.795 164.254 226.403C162.927 230.001 161.627 233.42 160.19 236.575C159.439 238.135 158.731 239.685 157.653 240.967C156.567 242.215 155.32 243.26 153.992 244.071C151.336 245.707 148.482 246.546 145.834 246.874C144.508 247.044 143.218 247.058 142.008 247.044C140.793 247.04 139.638 247.037 138.544 247.033C134.178 247.013 130.784 246.999 128.467 246.988C127.325 246.977 126.45 246.97 125.847 246.964C125.257 246.956 124.954 246.939 124.954 246.939Z" fill="#146BFF"/>
<path fill-rule="evenodd" clip-rule="evenodd" d="M213.06 165.161H162.034C161.236 165.161 160.587 165.793 160.587 166.573V183.701C160.587 184.482 161.236 185.114 162.034 185.114H187.864C188.274 185.114 188.662 185.28 188.937 185.577C189.744 186.45 190.826 187.587 191.622 188.42C192.2 189.024 193.183 189.016 193.752 188.405L196.382 185.577C196.657 185.282 197.046 185.114 197.454 185.114H213.06C213.86 185.114 214.509 184.482 214.509 183.701V166.573C214.509 165.793 213.86 165.161 213.06 165.161Z" fill="#146BFF"/>
<path fill-rule="evenodd" clip-rule="evenodd" d="M156.911 214.064H114.326C113.849 214.064 113.463 214.443 113.463 214.911V225.171C113.463 225.638 113.849 226.017 114.326 226.017H129.705C129.949 226.017 130.18 226.116 130.344 226.295C130.825 226.817 131.469 227.498 131.942 227.997C132.287 228.359 132.872 228.355 133.212 227.988L134.777 226.295C134.94 226.118 135.173 226.017 135.415 226.017H156.911C157.387 226.017 157.773 225.638 157.773 225.171V214.911C157.773 214.443 157.387 214.064 156.911 214.064Z" fill="#CCF0FF"/>
<path fill-rule="evenodd" clip-rule="evenodd" d="M194.347 193.163C194.347 194.206 193.481 195.052 192.414 195.052C191.345 195.052 190.479 194.206 190.479 193.163C190.479 192.119 191.345 191.273 192.414 191.273C193.481 191.273 194.347 192.119 194.347 193.163Z" fill="#146BFF"/>
<path fill-rule="evenodd" clip-rule="evenodd" d="M192.296 191.205C191.191 191.205 190.292 192.084 190.292 193.163C190.292 194.242 191.191 195.12 192.296 195.12C193.4 195.12 194.298 194.242 194.298 193.163C194.298 192.084 193.4 191.205 192.296 191.205ZM192.296 195.167C191.164 195.167 190.244 194.268 190.244 193.163C190.244 192.058 191.164 191.158 192.296 191.158C193.426 191.158 194.346 192.058 194.346 193.163C194.346 194.268 193.426 195.167 192.296 195.167Z" fill="#07377E"/>
<path fill-rule="evenodd" clip-rule="evenodd" d="M174.433 176.694C174.433 176.396 174.181 176.233 173.809 176.105V177.282C174.242 177.189 174.433 176.967 174.433 176.694ZM172.943 174.638V173.427C172.484 173.529 172.302 173.777 172.302 174.059C172.302 174.358 172.561 174.519 172.943 174.638ZM173.809 178.409V179.363H172.943V178.434C172.085 178.383 171.262 178.118 170.786 177.751L171.262 176.711C171.695 177.027 172.319 177.257 172.943 177.317V175.892C171.981 175.662 170.907 175.346 170.907 174.126C170.907 173.223 171.574 172.447 172.943 172.292V171.346H173.809V172.276C174.458 172.327 175.091 172.498 175.567 172.796L175.134 173.845C174.692 173.598 174.242 173.452 173.809 173.402V174.851C174.77 175.073 175.826 175.389 175.826 176.592C175.826 177.478 175.168 178.246 173.809 178.409Z" fill="#FFFFFE"/>
<path fill-rule="evenodd" clip-rule="evenodd" d="M178.523 172.376V178.217H177.077V173.461H175.827V172.376H178.523Z" fill="#FFFFFE"/>
<path fill-rule="evenodd" clip-rule="evenodd" d="M184.149 176.468C184.149 177.525 183.365 178.446 181.643 178.446C180.807 178.446 179.929 178.216 179.343 177.807L179.895 176.75C180.351 177.091 180.979 177.287 181.608 177.287C182.306 177.287 182.736 176.997 182.736 176.511C182.736 176.042 182.426 175.735 181.333 175.735H179.79L180.101 172.376H183.778V173.484H181.263L181.169 174.619H181.659C183.442 174.619 184.149 175.411 184.149 176.468Z" fill="#FFFFFE"/>
<path fill-rule="evenodd" clip-rule="evenodd" d="M186.494 177.536C186.494 177.756 186.457 177.916 186.248 178.379L185.729 179.592H184.827L185.228 178.252C184.927 178.143 184.736 177.882 184.736 177.536C184.736 177.049 185.119 176.729 185.62 176.729C186.129 176.729 186.494 177.057 186.494 177.536Z" fill="#FFFFFE"/>
<path fill-rule="evenodd" clip-rule="evenodd" d="M190.804 175.411C190.804 174.078 190.312 173.524 189.6 173.524C188.896 173.524 188.404 174.078 188.404 175.411C188.404 176.745 188.896 177.298 189.6 177.298C190.312 177.298 190.804 176.745 190.804 175.411ZM186.962 175.411C186.962 173.474 188.088 172.376 189.6 172.376C191.121 172.376 192.237 173.474 192.237 175.411C192.237 177.348 191.121 178.446 189.6 178.446C188.088 178.446 186.962 177.348 186.962 175.411Z" fill="#FFFFFE"/>
<path fill-rule="evenodd" clip-rule="evenodd" d="M196.782 175.411C196.782 174.078 196.291 173.524 195.578 173.524C194.874 173.524 194.381 174.078 194.381 175.411C194.381 176.745 194.874 177.298 195.578 177.298C196.291 177.298 196.782 176.745 196.782 175.411ZM192.941 175.411C192.941 173.474 194.066 172.376 195.578 172.376C197.099 172.376 198.216 173.474 198.216 175.411C198.216 177.348 197.099 178.446 195.578 178.446C194.066 178.446 192.941 177.348 192.941 175.411Z" fill="#FFFFFE"/>
<path fill-rule="evenodd" clip-rule="evenodd" d="M202.674 175.37C202.674 174.019 202.188 173.458 201.484 173.458C200.787 173.458 200.301 174.019 200.301 175.37C200.301 176.722 200.787 177.283 201.484 177.283C202.188 177.283 202.674 176.722 202.674 175.37ZM198.875 175.37C198.875 173.407 199.988 172.294 201.484 172.294C202.988 172.294 204.092 173.407 204.092 175.37C204.092 177.334 202.988 178.447 201.484 178.447C199.988 178.447 198.875 177.334 198.875 175.37Z" fill="#FFFFFE"/>
<path fill-rule="evenodd" clip-rule="evenodd" d="M393.154 54.702H80.2915V42.9884C80.2915 39.9379 82.8213 37.4647 85.9417 37.4647H387.504C390.625 37.4647 393.154 39.9379 393.154 42.9884V54.702Z" fill="#146BFF"/>
<path fill-rule="evenodd" clip-rule="evenodd" d="M94.1216 46.3402C94.1216 47.6998 92.9929 48.8025 91.6004 48.8025C90.2087 48.8025 89.0811 47.6998 89.0811 46.3402C89.0811 44.9805 90.2087 43.8778 91.6004 43.8778C92.9929 43.8778 94.1216 44.9805 94.1216 46.3402Z" fill="#CCF0FF"/>
<path fill-rule="evenodd" clip-rule="evenodd" d="M101.86 46.3402C101.86 47.6998 100.732 48.8025 99.3401 48.8025C97.9485 48.8025 96.8198 47.6998 96.8198 46.3402C96.8198 44.9805 97.9485 43.8778 99.3401 43.8778C100.732 43.8778 101.86 44.9805 101.86 46.3402Z" fill="#CCF0FF"/>
<path fill-rule="evenodd" clip-rule="evenodd" d="M109.83 46.3402C109.83 47.6998 108.702 48.8025 107.31 48.8025C105.918 48.8025 104.79 47.6998 104.79 46.3402C104.79 44.9805 105.918 43.8778 107.31 43.8778C108.702 43.8778 109.83 44.9805 109.83 46.3402Z" fill="#CCF0FF"/>
</svg>
