<svg width="457" height="442" viewBox="0 0 457 442" fill="none" xmlns="http://www.w3.org/2000/svg">
<rect x="0.00195312" y="10.3436" width="456.998" height="430.669" rx="15" fill="white"/>
<mask id="mask0_947_14" style="mask-type:alpha" maskUnits="userSpaceOnUse" x="0" y="0" width="457" height="432">
<rect x="0.00195312" width="456.998" height="431.609" rx="15" fill="#D9D9D9"/>
</mask>
<g mask="url(#mask0_947_14)">
<path d="M30.801 100.873H26.238V103.837C26.4373 103.559 26.732 103.334 27.122 103.161C27.512 102.979 27.9323 102.888 28.383 102.888C29.1023 102.888 29.6873 103.039 30.138 103.343C30.5886 103.637 30.9093 104.023 31.1 104.5C31.2993 104.968 31.399 105.466 31.399 105.995C31.399 106.619 31.282 107.178 31.048 107.672C30.814 108.166 30.4543 108.556 29.969 108.842C29.4923 109.128 28.8986 109.271 28.188 109.271C27.278 109.271 26.5413 109.037 25.978 108.569C25.4146 108.101 25.0723 107.477 24.951 106.697H26.108C26.2206 107.191 26.459 107.576 26.823 107.854C27.187 108.131 27.6463 108.27 28.201 108.27C28.8856 108.27 29.4013 108.066 29.748 107.659C30.0946 107.243 30.268 106.697 30.268 106.021C30.268 105.345 30.0946 104.825 29.748 104.461C29.4013 104.088 28.89 103.902 28.214 103.902C27.7546 103.902 27.3516 104.014 27.005 104.24C26.667 104.456 26.42 104.755 26.264 105.137H25.146V99.8326H30.801V100.873ZM32.971 104.448C32.971 102.957 33.2137 101.796 33.699 100.964C34.1844 100.123 35.0337 99.7026 36.247 99.7026C37.4517 99.7026 38.2967 100.123 38.782 100.964C39.2674 101.796 39.51 102.957 39.51 104.448C39.51 105.964 39.2674 107.143 38.782 107.984C38.2967 108.824 37.4517 109.245 36.247 109.245C35.0337 109.245 34.1844 108.824 33.699 107.984C33.2137 107.143 32.971 105.964 32.971 104.448ZM38.34 104.448C38.34 103.694 38.288 103.057 38.184 102.537C38.0887 102.008 37.885 101.583 37.573 101.263C37.2697 100.942 36.8277 100.782 36.247 100.782C35.6577 100.782 35.207 100.942 34.895 101.263C34.5917 101.583 34.388 102.008 34.284 102.537C34.1887 103.057 34.141 103.694 34.141 104.448C34.141 105.228 34.1887 105.882 34.284 106.411C34.388 106.939 34.5917 107.364 34.895 107.685C35.207 108.005 35.6577 108.166 36.247 108.166C36.8277 108.166 37.2697 108.005 37.573 107.685C37.885 107.364 38.0887 106.939 38.184 106.411C38.288 105.882 38.34 105.228 38.34 104.448ZM41.1341 104.448C41.1341 102.957 41.3768 101.796 41.8621 100.964C42.3475 100.123 43.1968 99.7026 44.4101 99.7026C45.6148 99.7026 46.4598 100.123 46.9451 100.964C47.4305 101.796 47.6731 102.957 47.6731 104.448C47.6731 105.964 47.4305 107.143 46.9451 107.984C46.4598 108.824 45.6148 109.245 44.4101 109.245C43.1968 109.245 42.3475 108.824 41.8621 107.984C41.3768 107.143 41.1341 105.964 41.1341 104.448ZM46.5031 104.448C46.5031 103.694 46.4511 103.057 46.3471 102.537C46.2518 102.008 46.0481 101.583 45.7361 101.263C45.4328 100.942 44.9908 100.782 44.4101 100.782C43.8208 100.782 43.3701 100.942 43.0581 101.263C42.7548 101.583 42.5511 102.008 42.4471 102.537C42.3518 103.057 42.3041 103.694 42.3041 104.448C42.3041 105.228 42.3518 105.882 42.4471 106.411C42.5511 106.939 42.7548 107.364 43.0581 107.685C43.3701 108.005 43.8208 108.166 44.4101 108.166C44.9908 108.166 45.4328 108.005 45.7361 107.685C46.0481 107.364 46.2518 106.939 46.3471 106.411C46.4511 105.882 46.5031 105.228 46.5031 104.448ZM24.522 147.152V146.255L29.085 139.937H30.502V146.125H31.802V147.152H30.502V149.245H29.332V147.152H24.522ZM29.384 141.172L25.887 146.125H29.384V141.172ZM32.9837 144.448C32.9837 142.957 33.2264 141.796 33.7117 140.964C34.1971 140.123 35.0464 139.703 36.2597 139.703C37.4644 139.703 38.3094 140.123 38.7947 140.964C39.2801 141.796 39.5227 142.957 39.5227 144.448C39.5227 145.964 39.2801 147.143 38.7947 147.984C38.3094 148.824 37.4644 149.245 36.2597 149.245C35.0464 149.245 34.1971 148.824 33.7117 147.984C33.2264 147.143 32.9837 145.964 32.9837 144.448ZM38.3527 144.448C38.3527 143.694 38.3007 143.057 38.1967 142.537C38.1014 142.008 37.8977 141.583 37.5857 141.263C37.2824 140.942 36.8404 140.782 36.2597 140.782C35.6704 140.782 35.2197 140.942 34.9077 141.263C34.6044 141.583 34.4007 142.008 34.2967 142.537C34.2014 143.057 34.1537 143.694 34.1537 144.448C34.1537 145.228 34.2014 145.882 34.2967 146.411C34.4007 146.939 34.6044 147.364 34.9077 147.685C35.2197 148.005 35.6704 148.166 36.2597 148.166C36.8404 148.166 37.2824 148.005 37.5857 147.685C37.8977 147.364 38.1014 146.939 38.1967 146.411C38.3007 145.882 38.3527 145.228 38.3527 144.448ZM41.1468 144.448C41.1468 142.957 41.3895 141.796 41.8748 140.964C42.3602 140.123 43.2095 139.703 44.4228 139.703C45.6275 139.703 46.4725 140.123 46.9578 140.964C47.4432 141.796 47.6858 142.957 47.6858 144.448C47.6858 145.964 47.4432 147.143 46.9578 147.984C46.4725 148.824 45.6275 149.245 44.4228 149.245C43.2095 149.245 42.3602 148.824 41.8748 147.984C41.3895 147.143 41.1468 145.964 41.1468 144.448ZM46.5158 144.448C46.5158 143.694 46.4638 143.057 46.3598 142.537C46.2645 142.008 46.0608 141.583 45.7488 141.263C45.4455 140.942 45.0035 140.782 44.4228 140.782C43.8335 140.782 43.3828 140.942 43.0708 141.263C42.7675 141.583 42.5638 142.008 42.4598 142.537C42.3645 143.057 42.3168 143.694 42.3168 144.448C42.3168 145.228 42.3645 145.882 42.4598 146.411C42.5638 146.939 42.7675 147.364 43.0708 147.685C43.3828 148.005 43.8335 148.166 44.4228 148.166C45.0035 148.166 45.4455 148.005 45.7488 147.685C46.0608 147.364 46.2645 146.939 46.3598 146.411C46.4638 145.882 46.5158 145.228 46.5158 144.448ZM24.665 188.296C25.7656 187.412 26.628 186.688 27.252 186.125C27.876 185.553 28.4003 184.959 28.825 184.344C29.2583 183.72 29.475 183.109 29.475 182.511C29.475 181.947 29.3363 181.505 29.059 181.185C28.7903 180.855 28.3526 180.691 27.746 180.691C27.1566 180.691 26.6973 180.877 26.368 181.25C26.0473 181.614 25.874 182.103 25.848 182.719H24.704C24.7386 181.748 25.0333 180.998 25.588 180.47C26.1426 179.941 26.8576 179.677 27.733 179.677C28.6256 179.677 29.332 179.924 29.852 180.418C30.3806 180.912 30.645 181.592 30.645 182.459C30.645 183.178 30.4283 183.88 29.995 184.565C29.5703 185.241 29.085 185.839 28.539 186.359C27.993 186.87 27.2953 187.468 26.446 188.153H30.918V189.141H24.665V188.296ZM32.2855 184.448C32.2855 182.957 32.5282 181.796 33.0135 180.964C33.4988 180.123 34.3482 179.703 35.5615 179.703C36.7662 179.703 37.6112 180.123 38.0965 180.964C38.5818 181.796 38.8245 182.957 38.8245 184.448C38.8245 185.964 38.5818 187.143 38.0965 187.984C37.6112 188.824 36.7662 189.245 35.5615 189.245C34.3482 189.245 33.4988 188.824 33.0135 187.984C32.5282 187.143 32.2855 185.964 32.2855 184.448ZM37.6545 184.448C37.6545 183.694 37.6025 183.057 37.4985 182.537C37.4032 182.008 37.1995 181.583 36.8875 181.263C36.5842 180.942 36.1422 180.782 35.5615 180.782C34.9722 180.782 34.5215 180.942 34.2095 181.263C33.9062 181.583 33.7025 182.008 33.5985 182.537C33.5032 183.057 33.4555 183.694 33.4555 184.448C33.4555 185.228 33.5032 185.882 33.5985 186.411C33.7025 186.939 33.9062 187.364 34.2095 187.685C34.5215 188.005 34.9722 188.166 35.5615 188.166C36.1422 188.166 36.5842 188.005 36.8875 187.685C37.1995 187.364 37.4032 186.939 37.4985 186.411C37.6025 185.882 37.6545 185.228 37.6545 184.448ZM40.4486 184.448C40.4486 182.957 40.6912 181.796 41.1766 180.964C41.6619 180.123 42.5112 179.703 43.7246 179.703C44.9292 179.703 45.7742 180.123 46.2596 180.964C46.7449 181.796 46.9876 182.957 46.9876 184.448C46.9876 185.964 46.7449 187.143 46.2596 187.984C45.7742 188.824 44.9292 189.245 43.7246 189.245C42.5112 189.245 41.6619 188.824 41.1766 187.984C40.6912 187.143 40.4486 185.964 40.4486 184.448ZM45.8176 184.448C45.8176 183.694 45.7656 183.057 45.6616 182.537C45.5662 182.008 45.3626 181.583 45.0506 181.263C44.7472 180.942 44.3052 180.782 43.7246 180.782C43.1352 180.782 42.6846 180.942 42.3726 181.263C42.0692 181.583 41.8656 182.008 41.7616 182.537C41.6662 183.057 41.6186 183.694 41.6186 184.448C41.6186 185.228 41.6662 185.882 41.7616 186.411C41.8656 186.939 42.0692 187.364 42.3726 187.685C42.6846 188.005 43.1352 188.166 43.7246 188.166C44.3052 188.166 44.7472 188.005 45.0506 187.685C45.3626 187.364 45.5662 186.939 45.6616 186.411C45.7656 185.882 45.8176 185.228 45.8176 184.448ZM24.496 220.925V219.846H26.94V229.245H25.744V220.925H24.496ZM28.972 224.448C28.972 222.957 29.2147 221.796 29.7 220.964C30.1853 220.123 31.0347 219.703 32.248 219.703C33.4527 219.703 34.2977 220.123 34.783 220.964C35.2683 221.796 35.511 222.957 35.511 224.448C35.511 225.964 35.2683 227.143 34.783 227.984C34.2977 228.824 33.4527 229.245 32.248 229.245C31.0347 229.245 30.1853 228.824 29.7 227.984C29.2147 227.143 28.972 225.964 28.972 224.448ZM34.341 224.448C34.341 223.694 34.289 223.057 34.185 222.537C34.0897 222.008 33.886 221.583 33.574 221.263C33.2707 220.942 32.8287 220.782 32.248 220.782C31.6587 220.782 31.208 220.942 30.896 221.263C30.5927 221.583 30.389 222.008 30.285 222.537C30.1897 223.057 30.142 223.694 30.142 224.448C30.142 225.228 30.1897 225.882 30.285 226.411C30.389 226.939 30.5927 227.364 30.896 227.685C31.208 228.005 31.6587 228.166 32.248 228.166C32.8287 228.166 33.2707 228.005 33.574 227.685C33.886 227.364 34.0897 226.939 34.185 226.411C34.289 225.882 34.341 225.228 34.341 224.448ZM37.1351 224.448C37.1351 222.957 37.3778 221.796 37.8631 220.964C38.3484 220.123 39.1978 219.703 40.4111 219.703C41.6158 219.703 42.4608 220.123 42.9461 220.964C43.4314 221.796 43.6741 222.957 43.6741 224.448C43.6741 225.964 43.4314 227.143 42.9461 227.984C42.4608 228.824 41.6158 229.245 40.4111 229.245C39.1978 229.245 38.3484 228.824 37.8631 227.984C37.3778 227.143 37.1351 225.964 37.1351 224.448ZM42.5041 224.448C42.5041 223.694 42.4521 223.057 42.3481 222.537C42.2528 222.008 42.0491 221.583 41.7371 221.263C41.4338 220.942 40.9918 220.782 40.4111 220.782C39.8218 220.782 39.3711 220.942 39.0591 221.263C38.7558 221.583 38.5521 222.008 38.4481 222.537C38.3528 223.057 38.3051 223.694 38.3051 224.448C38.3051 225.228 38.3528 225.882 38.4481 226.411C38.5521 226.939 38.7558 227.364 39.0591 227.685C39.3711 228.005 39.8218 228.166 40.4111 228.166C40.9918 228.166 41.4338 228.005 41.7371 227.685C42.0491 227.364 42.2528 226.939 42.3481 226.411C42.4521 225.882 42.5041 225.228 42.5041 224.448ZM24.808 264.448C24.808 262.957 25.0506 261.796 25.536 260.964C26.0213 260.123 26.8706 259.703 28.084 259.703C29.2886 259.703 30.1336 260.123 30.619 260.964C31.1043 261.796 31.347 262.957 31.347 264.448C31.347 265.964 31.1043 267.143 30.619 267.984C30.1336 268.824 29.2886 269.245 28.084 269.245C26.8706 269.245 26.0213 268.824 25.536 267.984C25.0506 267.143 24.808 265.964 24.808 264.448ZM30.177 264.448C30.177 263.694 30.125 263.057 30.021 262.537C29.9256 262.008 29.722 261.583 29.41 261.263C29.1066 260.942 28.6646 260.782 28.084 260.782C27.4946 260.782 27.044 260.942 26.732 261.263C26.4286 261.583 26.225 262.008 26.121 262.537C26.0256 263.057 25.978 263.694 25.978 264.448C25.978 265.228 26.0256 265.882 26.121 266.411C26.225 266.939 26.4286 267.364 26.732 267.685C27.044 268.005 27.4946 268.166 28.084 268.166C28.6646 268.166 29.1066 268.005 29.41 267.685C29.722 267.364 29.9256 266.939 30.021 266.411C30.125 265.882 30.177 265.228 30.177 264.448Z" fill="black"/>
<line x1="63.4004" y1="282.878" x2="439" y2="282.878" stroke="#ADADAD" stroke-dasharray="2 2"/>
<line x1="62.0879" y1="243.271" x2="437.687" y2="243.271" stroke="#E9E9E9" stroke-dasharray="2 2"/>
<line x1="62.0879" y1="199.264" x2="437.687" y2="199.264" stroke="#E9E9E9" stroke-dasharray="2 2"/>
<line x1="62.0879" y1="155.257" x2="437.687" y2="155.257" stroke="#E9E9E9" stroke-dasharray="2 2"/>
<line x1="62.0879" y1="111.249" x2="437.687" y2="111.249" stroke="#E9E9E9" stroke-dasharray="2 2"/>
<line x1="24.002" y1="335.688" x2="439" y2="335.688" stroke="#E9E9E9"/>
<path d="M82.2421 298.5V297.504H84.4981V306.18H83.3941V298.5H82.2421ZM88.8819 306.288C88.3779 306.288 87.9259 306.204 87.5259 306.036C87.1259 305.86 86.8099 305.62 86.5779 305.316C86.3459 305.004 86.2179 304.648 86.1939 304.248H87.3219C87.3539 304.576 87.5059 304.844 87.7779 305.052C88.0579 305.26 88.4219 305.364 88.8699 305.364C89.2859 305.364 89.6139 305.272 89.8539 305.088C90.0939 304.904 90.2139 304.672 90.2139 304.392C90.2139 304.104 90.0859 303.892 89.8299 303.756C89.5739 303.612 89.1779 303.472 88.6419 303.336C88.1539 303.208 87.7539 303.08 87.4419 302.952C87.1379 302.816 86.8739 302.62 86.6499 302.364C86.4339 302.1 86.3259 301.756 86.3259 301.332C86.3259 300.996 86.4259 300.688 86.6259 300.408C86.8259 300.128 87.1099 299.908 87.4779 299.748C87.8459 299.58 88.2659 299.496 88.7379 299.496C89.4659 299.496 90.0539 299.68 90.5019 300.048C90.9499 300.416 91.1899 300.92 91.2219 301.56H90.1299C90.1059 301.216 89.9659 300.94 89.7099 300.732C89.4619 300.524 89.1259 300.42 88.7019 300.42C88.3099 300.42 87.9979 300.504 87.7659 300.672C87.5339 300.84 87.4179 301.06 87.4179 301.332C87.4179 301.548 87.4859 301.728 87.6219 301.872C87.7659 302.008 87.9419 302.12 88.1499 302.208C88.3659 302.288 88.6619 302.38 89.0379 302.484C89.5099 302.612 89.8939 302.74 90.1899 302.868C90.4859 302.988 90.7379 303.172 90.9459 303.42C91.1619 303.668 91.2739 303.992 91.2819 304.392C91.2819 304.752 91.1819 305.076 90.9819 305.364C90.7819 305.652 90.4979 305.88 90.1299 306.048C89.7699 306.208 89.3539 306.288 88.8819 306.288ZM94.1554 300.504V304.38C94.1554 304.7 94.2234 304.928 94.3594 305.064C94.4954 305.192 94.7314 305.256 95.0674 305.256H95.8714V306.18H94.8874C94.2794 306.18 93.8234 306.04 93.5194 305.76C93.2154 305.48 93.0634 305.02 93.0634 304.38V300.504H92.2114V299.604H93.0634V297.948H94.1554V299.604H95.8714V300.504H94.1554ZM110.906 297.816L108.482 306.18H107.258L105.314 299.448L103.298 306.18L102.086 306.192L99.7457 297.816H100.91L102.734 304.908L104.75 297.816H105.974L107.894 304.884L109.73 297.816H110.906ZM153.379 305.304C154.395 304.488 155.191 303.82 155.767 303.3C156.343 302.772 156.827 302.224 157.219 301.656C157.619 301.08 157.819 300.516 157.819 299.964C157.819 299.444 157.691 299.036 157.435 298.74C157.187 298.436 156.783 298.284 156.223 298.284C155.679 298.284 155.255 298.456 154.951 298.8C154.655 299.136 154.495 299.588 154.471 300.156H153.415C153.447 299.26 153.719 298.568 154.231 298.08C154.743 297.592 155.403 297.348 156.211 297.348C157.035 297.348 157.687 297.576 158.167 298.032C158.655 298.488 158.899 299.116 158.899 299.916C158.899 300.58 158.699 301.228 158.299 301.86C157.907 302.484 157.459 303.036 156.955 303.516C156.451 303.988 155.807 304.54 155.023 305.172H159.151V306.084H153.379V305.304ZM163.797 299.484C164.597 299.484 165.245 299.728 165.741 300.216C166.237 300.696 166.485 301.392 166.485 302.304V306.18H165.405V302.46C165.405 301.804 165.241 301.304 164.913 300.96C164.585 300.608 164.137 300.432 163.569 300.432C162.993 300.432 162.533 300.612 162.189 300.972C161.853 301.332 161.685 301.856 161.685 302.544V306.18H160.593V299.604H161.685V300.54C161.901 300.204 162.193 299.944 162.561 299.76C162.937 299.576 163.349 299.484 163.797 299.484ZM167.861 302.868C167.861 302.196 167.997 301.608 168.269 301.104C168.541 300.592 168.913 300.196 169.385 299.916C169.865 299.636 170.401 299.496 170.993 299.496C171.505 299.496 171.981 299.616 172.421 299.856C172.861 300.088 173.197 300.396 173.429 300.78V297.3H174.533V306.18H173.429V304.944C173.213 305.336 172.893 305.66 172.469 305.916C172.045 306.164 171.549 306.288 170.981 306.288C170.397 306.288 169.865 306.144 169.385 305.856C168.913 305.568 168.541 305.164 168.269 304.644C167.997 304.124 167.861 303.532 167.861 302.868ZM173.429 302.88C173.429 302.384 173.329 301.952 173.129 301.584C172.929 301.216 172.657 300.936 172.313 300.744C171.977 300.544 171.605 300.444 171.197 300.444C170.789 300.444 170.417 300.54 170.081 300.732C169.745 300.924 169.477 301.204 169.277 301.572C169.077 301.94 168.977 302.372 168.977 302.868C168.977 303.372 169.077 303.812 169.277 304.188C169.477 304.556 169.745 304.84 170.081 305.04C170.417 305.232 170.789 305.328 171.197 305.328C171.605 305.328 171.977 305.232 172.313 305.04C172.657 304.84 172.929 304.556 173.129 304.188C173.329 303.812 173.429 303.376 173.429 302.88ZM190.089 297.816L187.665 306.18H186.441L184.497 299.448L182.481 306.18L181.269 306.192L178.929 297.816H180.093L181.917 304.908L183.933 297.816H185.157L187.077 304.884L188.913 297.816H190.089ZM232.67 299.688C232.726 298.952 233.01 298.376 233.522 297.96C234.034 297.544 234.698 297.336 235.514 297.336C236.058 297.336 236.526 297.436 236.918 297.636C237.318 297.828 237.618 298.092 237.818 298.428C238.026 298.764 238.13 299.144 238.13 299.568C238.13 300.064 237.986 300.492 237.698 300.852C237.418 301.212 237.05 301.444 236.594 301.548V301.608C237.114 301.736 237.526 301.988 237.83 302.364C238.134 302.74 238.286 303.232 238.286 303.84C238.286 304.296 238.182 304.708 237.974 305.076C237.766 305.436 237.454 305.72 237.038 305.928C236.622 306.136 236.122 306.24 235.538 306.24C234.69 306.24 233.994 306.02 233.45 305.58C232.906 305.132 232.602 304.5 232.538 303.684H233.594C233.65 304.164 233.846 304.556 234.182 304.86C234.518 305.164 234.966 305.316 235.526 305.316C236.086 305.316 236.51 305.172 236.798 304.884C237.094 304.588 237.242 304.208 237.242 303.744C237.242 303.144 237.042 302.712 236.642 302.448C236.242 302.184 235.638 302.052 234.83 302.052H234.554V301.14H234.842C235.578 301.132 236.134 301.012 236.51 300.78C236.886 300.54 237.074 300.172 237.074 299.676C237.074 299.252 236.934 298.912 236.654 298.656C236.382 298.4 235.99 298.272 235.478 298.272C234.982 298.272 234.582 298.4 234.278 298.656C233.974 298.912 233.794 299.256 233.738 299.688H232.67ZM241.033 300.672C241.225 300.296 241.497 300.004 241.849 299.796C242.209 299.588 242.645 299.484 243.157 299.484V300.612H242.869C241.645 300.612 241.033 301.276 241.033 302.604V306.18H239.941V299.604H241.033V300.672ZM244.009 302.868C244.009 302.196 244.145 301.608 244.417 301.104C244.689 300.592 245.061 300.196 245.533 299.916C246.013 299.636 246.549 299.496 247.141 299.496C247.653 299.496 248.129 299.616 248.569 299.856C249.009 300.088 249.345 300.396 249.577 300.78V297.3H250.681V306.18H249.577V304.944C249.361 305.336 249.041 305.66 248.617 305.916C248.193 306.164 247.697 306.288 247.129 306.288C246.545 306.288 246.013 306.144 245.533 305.856C245.061 305.568 244.689 305.164 244.417 304.644C244.145 304.124 244.009 303.532 244.009 302.868ZM249.577 302.88C249.577 302.384 249.477 301.952 249.277 301.584C249.077 301.216 248.805 300.936 248.461 300.744C248.125 300.544 247.753 300.444 247.345 300.444C246.937 300.444 246.565 300.54 246.229 300.732C245.893 300.924 245.625 301.204 245.425 301.572C245.225 301.94 245.125 302.372 245.125 302.868C245.125 303.372 245.225 303.812 245.425 304.188C245.625 304.556 245.893 304.84 246.229 305.04C246.565 305.232 246.937 305.328 247.345 305.328C247.753 305.328 248.125 305.232 248.461 305.04C248.805 304.84 249.077 304.556 249.277 304.188C249.477 303.812 249.577 303.376 249.577 302.88ZM266.238 297.816L263.814 306.18H262.59L260.646 299.448L258.63 306.18L257.418 306.192L255.078 297.816H256.242L258.066 304.908L260.082 297.816H261.306L263.226 304.884L265.062 297.816H266.238ZM308.579 304.248V303.42L312.791 297.588H314.099V303.3H315.299V304.248H314.099V306.18H313.019V304.248H308.579ZM313.067 298.728L309.839 303.3H313.067V298.728ZM317.902 300.504V304.38C317.902 304.7 317.97 304.928 318.106 305.064C318.242 305.192 318.478 305.256 318.814 305.256H319.618V306.18H318.634C318.026 306.18 317.57 306.04 317.266 305.76C316.962 305.48 316.81 305.02 316.81 304.38V300.504H315.958V299.604H316.81V297.948H317.902V299.604H319.618V300.504H317.902ZM324.205 299.484C324.701 299.484 325.149 299.592 325.549 299.808C325.949 300.016 326.261 300.332 326.485 300.756C326.717 301.18 326.833 301.696 326.833 302.304V306.18H325.753V302.46C325.753 301.804 325.589 301.304 325.261 300.96C324.933 300.608 324.485 300.432 323.917 300.432C323.341 300.432 322.881 300.612 322.537 300.972C322.201 301.332 322.033 301.856 322.033 302.544V306.18H320.941V297.3H322.033V300.54C322.249 300.204 322.545 299.944 322.921 299.76C323.305 299.576 323.733 299.484 324.205 299.484ZM342.328 297.816L339.904 306.18H338.68L336.736 299.448L334.72 306.18L333.508 306.192L331.168 297.816H332.332L334.156 304.908L336.172 297.816H337.396L339.316 304.884L341.152 297.816H342.328Z" fill="black"/>
<path d="M36.546 37.2634V48.3354H35.09V40.0794L31.41 48.3354H30.386L26.69 40.0634V48.3354H25.234V37.2634H26.802L30.898 46.4154L34.994 37.2634H36.546ZM42.8392 48.4794C42.0179 48.4794 41.2712 48.2928 40.5992 47.9194C39.9379 47.5461 39.4152 47.0181 39.0312 46.3354C38.6579 45.6421 38.4712 44.8421 38.4712 43.9354C38.4712 43.0394 38.6632 42.2501 39.0472 41.5674C39.4419 40.8741 39.9752 40.3461 40.6472 39.9834C41.3192 39.6101 42.0712 39.4234 42.9032 39.4234C43.7352 39.4234 44.4872 39.6101 45.1592 39.9834C45.8312 40.3461 46.3592 40.8688 46.7432 41.5514C47.1379 42.2341 47.3352 43.0288 47.3352 43.9354C47.3352 44.8421 47.1325 45.6421 46.7272 46.3354C46.3325 47.0181 45.7939 47.5461 45.1112 47.9194C44.4285 48.2928 43.6712 48.4794 42.8392 48.4794ZM42.8392 47.1994C43.3619 47.1994 43.8525 47.0768 44.3112 46.8314C44.7699 46.5861 45.1379 46.2181 45.4152 45.7274C45.7032 45.2368 45.8472 44.6394 45.8472 43.9354C45.8472 43.2314 45.7085 42.6341 45.4312 42.1434C45.1539 41.6528 44.7912 41.2901 44.3432 41.0554C43.8952 40.8101 43.4099 40.6874 42.8872 40.6874C42.3539 40.6874 41.8632 40.8101 41.4152 41.0554C40.9779 41.2901 40.6259 41.6528 40.3592 42.1434C40.0925 42.6341 39.9592 43.2314 39.9592 43.9354C39.9592 44.6501 40.0872 45.2528 40.3432 45.7434C40.6099 46.2341 40.9619 46.6021 41.3992 46.8474C41.8365 47.0821 42.3165 47.1994 42.8392 47.1994ZM52.3536 48.4794C51.6816 48.4794 51.0789 48.3674 50.5456 48.1434C50.0122 47.9088 49.5909 47.5888 49.2816 47.1834C48.9722 46.7674 48.8016 46.2928 48.7696 45.7594H50.2736C50.3162 46.1968 50.5189 46.5541 50.8816 46.8314C51.2549 47.1088 51.7402 47.2474 52.3376 47.2474C52.8922 47.2474 53.3296 47.1248 53.6496 46.8794C53.9696 46.6341 54.1296 46.3248 54.1296 45.9514C54.1296 45.5674 53.9589 45.2848 53.6176 45.1034C53.2762 44.9114 52.7482 44.7248 52.0336 44.5434C51.3829 44.3728 50.8496 44.2021 50.4336 44.0314C50.0282 43.8501 49.6762 43.5888 49.3776 43.2474C49.0896 42.8954 48.9456 42.4368 48.9456 41.8714C48.9456 41.4234 49.0789 41.0128 49.3456 40.6394C49.6122 40.2661 49.9909 39.9728 50.4816 39.7594C50.9722 39.5354 51.5322 39.4234 52.1616 39.4234C53.1322 39.4234 53.9162 39.6688 54.5136 40.1594C55.1109 40.6501 55.4309 41.3221 55.4736 42.1754H54.0176C53.9856 41.7168 53.7989 41.3488 53.4576 41.0714C53.1269 40.7941 52.6789 40.6554 52.1136 40.6554C51.5909 40.6554 51.1749 40.7674 50.8656 40.9914C50.5562 41.2154 50.4016 41.5088 50.4016 41.8714C50.4016 42.1594 50.4922 42.3994 50.6736 42.5914C50.8656 42.7728 51.1002 42.9221 51.3776 43.0394C51.6656 43.1461 52.0602 43.2688 52.5616 43.4074C53.1909 43.5781 53.7029 43.7488 54.0976 43.9194C54.4922 44.0794 54.8282 44.3248 55.1056 44.6554C55.3936 44.9861 55.5429 45.4181 55.5536 45.9514C55.5536 46.4314 55.4202 46.8634 55.1536 47.2474C54.8869 47.6314 54.5082 47.9354 54.0176 48.1594C53.5376 48.3728 52.9829 48.4794 52.3536 48.4794ZM59.385 40.7674V45.9354C59.385 46.3621 59.4756 46.6661 59.657 46.8474C59.8383 47.0181 60.153 47.1034 60.601 47.1034H61.673V48.3354H60.361C59.5503 48.3354 58.9423 48.1488 58.537 47.7754C58.1316 47.4021 57.929 46.7888 57.929 45.9354V40.7674H56.793V39.5674H57.929V37.3594H59.385V39.5674H61.673V40.7674H59.385ZM67.1587 43.9194C67.1587 43.0234 67.34 42.2394 67.7027 41.5674C68.0654 40.8848 68.5614 40.3568 69.1907 39.9834C69.8307 39.6101 70.54 39.4234 71.3187 39.4234C72.0867 39.4234 72.7534 39.5888 73.3187 39.9194C73.884 40.2501 74.3054 40.6661 74.5827 41.1674V39.5674H76.0547V48.3354H74.5827V46.7034C74.2947 47.2154 73.8627 47.6421 73.2867 47.9834C72.7214 48.3141 72.06 48.4794 71.3027 48.4794C70.524 48.4794 69.82 48.2874 69.1907 47.9034C68.5614 47.5194 68.0654 46.9808 67.7027 46.2874C67.34 45.5941 67.1587 44.8048 67.1587 43.9194ZM74.5827 43.9354C74.5827 43.2741 74.4494 42.6981 74.1827 42.2074C73.916 41.7168 73.5534 41.3434 73.0947 41.0874C72.6467 40.8208 72.1507 40.6874 71.6067 40.6874C71.0627 40.6874 70.5667 40.8154 70.1187 41.0714C69.6707 41.3274 69.3134 41.7008 69.0467 42.1914C68.78 42.6821 68.6467 43.2581 68.6467 43.9194C68.6467 44.5914 68.78 45.1781 69.0467 45.6794C69.3134 46.1701 69.6707 46.5488 70.1187 46.8154C70.5667 47.0714 71.0627 47.1994 71.6067 47.1994C72.1507 47.1994 72.6467 47.0714 73.0947 46.8154C73.5534 46.5488 73.916 46.1701 74.1827 45.6794C74.4494 45.1781 74.5827 44.5968 74.5827 43.9354ZM79.9712 41.1834C80.2592 40.6821 80.6859 40.2661 81.2512 39.9354C81.8272 39.5941 82.4939 39.4234 83.2512 39.4234C84.0299 39.4234 84.7339 39.6101 85.3632 39.9834C86.0032 40.3568 86.5045 40.8848 86.8672 41.5674C87.2299 42.2394 87.4112 43.0234 87.4112 43.9194C87.4112 44.8048 87.2299 45.5941 86.8672 46.2874C86.5045 46.9808 86.0032 47.5194 85.3632 47.9034C84.7339 48.2874 84.0299 48.4794 83.2512 48.4794C82.5045 48.4794 81.8432 48.3141 81.2672 47.9834C80.7019 47.6421 80.2699 47.2208 79.9712 46.7194V52.4954H78.5152V39.5674H79.9712V41.1834ZM85.9232 43.9194C85.9232 43.2581 85.7899 42.6821 85.5232 42.1914C85.2565 41.7008 84.8939 41.3274 84.4352 41.0714C83.9872 40.8154 83.4912 40.6874 82.9472 40.6874C82.4139 40.6874 81.9179 40.8208 81.4592 41.0874C81.0112 41.3434 80.6485 41.7221 80.3712 42.2234C80.1045 42.7141 79.9712 43.2848 79.9712 43.9354C79.9712 44.5968 80.1045 45.1781 80.3712 45.6794C80.6485 46.1701 81.0112 46.5488 81.4592 46.8154C81.9179 47.0714 82.4139 47.1994 82.9472 47.1994C83.4912 47.1994 83.9872 47.0714 84.4352 46.8154C84.8939 46.5488 85.2565 46.1701 85.5232 45.6794C85.7899 45.1781 85.9232 44.5914 85.9232 43.9194ZM90.7837 41.1834C91.0717 40.6821 91.4984 40.2661 92.0637 39.9354C92.6397 39.5941 93.3064 39.4234 94.0637 39.4234C94.8424 39.4234 95.5464 39.6101 96.1757 39.9834C96.8157 40.3568 97.317 40.8848 97.6797 41.5674C98.0424 42.2394 98.2237 43.0234 98.2237 43.9194C98.2237 44.8048 98.0424 45.5941 97.6797 46.2874C97.317 46.9808 96.8157 47.5194 96.1757 47.9034C95.5464 48.2874 94.8424 48.4794 94.0637 48.4794C93.317 48.4794 92.6557 48.3141 92.0797 47.9834C91.5144 47.6421 91.0824 47.2208 90.7837 46.7194V52.4954H89.3277V39.5674H90.7837V41.1834ZM96.7357 43.9194C96.7357 43.2581 96.6024 42.6821 96.3357 42.1914C96.069 41.7008 95.7064 41.3274 95.2477 41.0714C94.7997 40.8154 94.3037 40.6874 93.7597 40.6874C93.2264 40.6874 92.7304 40.8208 92.2717 41.0874C91.8237 41.3434 91.461 41.7221 91.1837 42.2234C90.917 42.7141 90.7837 43.2848 90.7837 43.9354C90.7837 44.5968 90.917 45.1781 91.1837 45.6794C91.461 46.1701 91.8237 46.5488 92.2717 46.8154C92.7304 47.0714 93.2264 47.1994 93.7597 47.1994C94.3037 47.1994 94.7997 47.0714 95.2477 46.8154C95.7064 46.5488 96.069 46.1701 96.3357 45.6794C96.6024 45.1781 96.7357 44.5914 96.7357 43.9194ZM101.596 36.4954V48.3354H100.14V36.4954H101.596ZM104.83 38.1434C104.552 38.1434 104.318 38.0474 104.126 37.8554C103.934 37.6634 103.838 37.4288 103.838 37.1514C103.838 36.8741 103.934 36.6394 104.126 36.4474C104.318 36.2554 104.552 36.1594 104.83 36.1594C105.096 36.1594 105.32 36.2554 105.502 36.4474C105.694 36.6394 105.79 36.8741 105.79 37.1514C105.79 37.4288 105.694 37.6634 105.502 37.8554C105.32 38.0474 105.096 38.1434 104.83 38.1434ZM105.534 39.5674V48.3354H104.078V39.5674H105.534ZM116.015 43.6154C116.015 43.8928 115.999 44.1861 115.967 44.4954H108.959C109.013 45.3594 109.306 46.0368 109.839 46.5274C110.383 47.0074 111.039 47.2474 111.807 47.2474C112.437 47.2474 112.959 47.1034 113.375 46.8154C113.802 46.5168 114.101 46.1221 114.271 45.6314H115.839C115.605 46.4741 115.135 47.1621 114.431 47.6954C113.727 48.2181 112.853 48.4794 111.807 48.4794C110.975 48.4794 110.229 48.2928 109.567 47.9194C108.917 47.5461 108.405 47.0181 108.031 46.3354C107.658 45.6421 107.471 44.8421 107.471 43.9354C107.471 43.0288 107.653 42.2341 108.015 41.5514C108.378 40.8688 108.885 40.3461 109.535 39.9834C110.197 39.6101 110.954 39.4234 111.807 39.4234C112.639 39.4234 113.375 39.6048 114.015 39.9674C114.655 40.3301 115.146 40.8314 115.487 41.4714C115.839 42.1008 116.015 42.8154 116.015 43.6154ZM114.511 43.3114C114.511 42.7568 114.389 42.2821 114.143 41.8874C113.898 41.4821 113.562 41.1781 113.135 40.9754C112.719 40.7621 112.255 40.6554 111.743 40.6554C111.007 40.6554 110.378 40.8901 109.855 41.3594C109.343 41.8288 109.05 42.4794 108.975 43.3114H114.511ZM117.393 43.9194C117.393 43.0234 117.574 42.2394 117.937 41.5674C118.3 40.8848 118.796 40.3568 119.425 39.9834C120.065 39.6101 120.78 39.4234 121.569 39.4234C122.252 39.4234 122.886 39.5834 123.473 39.9034C124.06 40.2128 124.508 40.6234 124.817 41.1354V36.4954H126.289V48.3354H124.817V46.6874C124.529 47.2101 124.102 47.6421 123.537 47.9834C122.972 48.3141 122.31 48.4794 121.553 48.4794C120.774 48.4794 120.065 48.2874 119.425 47.9034C118.796 47.5194 118.3 46.9808 117.937 46.2874C117.574 45.5941 117.393 44.8048 117.393 43.9194ZM124.817 43.9354C124.817 43.2741 124.684 42.6981 124.417 42.2074C124.15 41.7168 123.788 41.3434 123.329 41.0874C122.881 40.8208 122.385 40.6874 121.841 40.6874C121.297 40.6874 120.801 40.8154 120.353 41.0714C119.905 41.3274 119.548 41.7008 119.281 42.1914C119.014 42.6821 118.881 43.2581 118.881 43.9194C118.881 44.5914 119.014 45.1781 119.281 45.6794C119.548 46.1701 119.905 46.5488 120.353 46.8154C120.801 47.0714 121.297 47.1994 121.841 47.1994C122.385 47.1994 122.881 47.0714 123.329 46.8154C123.788 46.5488 124.15 46.1701 124.417 45.6794C124.684 45.1781 124.817 44.5968 124.817 43.9354ZM133.767 38.1434C133.49 38.1434 133.255 38.0474 133.063 37.8554C132.871 37.6634 132.775 37.4288 132.775 37.1514C132.775 36.8741 132.871 36.6394 133.063 36.4474C133.255 36.2554 133.49 36.1594 133.767 36.1594C134.034 36.1594 134.258 36.2554 134.439 36.4474C134.631 36.6394 134.727 36.8741 134.727 37.1514C134.727 37.4288 134.631 37.6634 134.439 37.8554C134.258 38.0474 134.034 38.1434 133.767 38.1434ZM134.471 39.5674V48.3354H133.015V39.5674H134.471ZM141.225 39.4074C142.291 39.4074 143.155 39.7328 143.817 40.3834C144.478 41.0234 144.809 41.9514 144.809 43.1674V48.3354H143.369V43.3754C143.369 42.5008 143.15 41.8341 142.713 41.3754C142.275 40.9061 141.678 40.6714 140.921 40.6714C140.153 40.6714 139.539 40.9114 139.081 41.3914C138.633 41.8714 138.409 42.5701 138.409 43.4874V48.3354H136.953V39.5674H138.409V40.8154C138.697 40.3674 139.086 40.0208 139.577 39.7754C140.078 39.5301 140.627 39.4074 141.225 39.4074ZM146.643 43.9194C146.643 43.0234 146.824 42.2394 147.187 41.5674C147.55 40.8848 148.046 40.3568 148.675 39.9834C149.315 39.6101 150.03 39.4234 150.819 39.4234C151.502 39.4234 152.136 39.5834 152.723 39.9034C153.31 40.2128 153.758 40.6234 154.067 41.1354V36.4954H155.539V48.3354H154.067V46.6874C153.779 47.2101 153.352 47.6421 152.787 47.9834C152.222 48.3141 151.56 48.4794 150.803 48.4794C150.024 48.4794 149.315 48.2874 148.675 47.9034C148.046 47.5194 147.55 46.9808 147.187 46.2874C146.824 45.5941 146.643 44.8048 146.643 43.9194ZM154.067 43.9354C154.067 43.2741 153.934 42.6981 153.667 42.2074C153.4 41.7168 153.038 41.3434 152.579 41.0874C152.131 40.8208 151.635 40.6874 151.091 40.6874C150.547 40.6874 150.051 40.8154 149.603 41.0714C149.155 41.3274 148.798 41.7008 148.531 42.1914C148.264 42.6821 148.131 43.2581 148.131 43.9194C148.131 44.5914 148.264 45.1781 148.531 45.6794C148.798 46.1701 149.155 46.5488 149.603 46.8154C150.051 47.0714 150.547 47.1994 151.091 47.1994C151.635 47.1994 152.131 47.0714 152.579 46.8154C153.038 46.5488 153.4 46.1701 153.667 45.6794C153.934 45.1781 154.067 44.5968 154.067 43.9354ZM165.776 39.5674V48.3354H164.32V47.0394C164.042 47.4874 163.653 47.8394 163.152 48.0954C162.661 48.3408 162.117 48.4634 161.52 48.4634C160.837 48.4634 160.224 48.3248 159.68 48.0474C159.136 47.7594 158.704 47.3328 158.384 46.7674C158.074 46.2021 157.92 45.5141 157.92 44.7034V39.5674H159.36V44.5114C159.36 45.3754 159.578 46.0421 160.016 46.5114C160.453 46.9701 161.05 47.1994 161.808 47.1994C162.586 47.1994 163.2 46.9594 163.648 46.4794C164.096 45.9994 164.32 45.3008 164.32 44.3834V39.5674H165.776ZM171.338 48.4794C170.666 48.4794 170.063 48.3674 169.53 48.1434C168.997 47.9088 168.575 47.5888 168.266 47.1834C167.957 46.7674 167.786 46.2928 167.754 45.7594H169.258C169.301 46.1968 169.503 46.5541 169.866 46.8314C170.239 47.1088 170.725 47.2474 171.322 47.2474C171.877 47.2474 172.314 47.1248 172.634 46.8794C172.954 46.6341 173.114 46.3248 173.114 45.9514C173.114 45.5674 172.943 45.2848 172.602 45.1034C172.261 44.9114 171.733 44.7248 171.018 44.5434C170.367 44.3728 169.834 44.2021 169.418 44.0314C169.013 43.8501 168.661 43.5888 168.362 43.2474C168.074 42.8954 167.93 42.4368 167.93 41.8714C167.93 41.4234 168.063 41.0128 168.33 40.6394C168.597 40.2661 168.975 39.9728 169.466 39.7594C169.957 39.5354 170.517 39.4234 171.146 39.4234C172.117 39.4234 172.901 39.6688 173.498 40.1594C174.095 40.6501 174.415 41.3221 174.458 42.1754H173.002C172.97 41.7168 172.783 41.3488 172.442 41.0714C172.111 40.7941 171.663 40.6554 171.098 40.6554C170.575 40.6554 170.159 40.7674 169.85 40.9914C169.541 41.2154 169.386 41.5088 169.386 41.8714C169.386 42.1594 169.477 42.3994 169.658 42.5914C169.85 42.7728 170.085 42.9221 170.362 43.0394C170.65 43.1461 171.045 43.2688 171.546 43.4074C172.175 43.5781 172.687 43.7488 173.082 43.9194C173.477 44.0794 173.813 44.3248 174.09 44.6554C174.378 44.9861 174.527 45.4181 174.538 45.9514C174.538 46.4314 174.405 46.8634 174.138 47.2474C173.871 47.6314 173.493 47.9354 173.002 48.1594C172.522 48.3728 171.967 48.4794 171.338 48.4794ZM178.369 40.7674V45.9354C178.369 46.3621 178.46 46.6661 178.641 46.8474C178.823 47.0181 179.137 47.1034 179.585 47.1034H180.657V48.3354H179.345C178.535 48.3354 177.927 48.1488 177.521 47.7754C177.116 47.4021 176.913 46.7888 176.913 45.9354V40.7674H175.777V39.5674H176.913V37.3594H178.369V39.5674H180.657V40.7674H178.369ZM183.877 40.9914C184.133 40.4901 184.496 40.1008 184.965 39.8234C185.445 39.5461 186.027 39.4074 186.709 39.4074V40.9114H186.325C184.693 40.9114 183.877 41.7968 183.877 43.5674V48.3354H182.421V39.5674H183.877V40.9914ZM189.142 38.1434C188.865 38.1434 188.63 38.0474 188.438 37.8554C188.246 37.6634 188.15 37.4288 188.15 37.1514C188.15 36.8741 188.246 36.6394 188.438 36.4474C188.63 36.2554 188.865 36.1594 189.142 36.1594C189.409 36.1594 189.633 36.2554 189.814 36.4474C190.006 36.6394 190.102 36.8741 190.102 37.1514C190.102 37.4288 190.006 37.6634 189.814 37.8554C189.633 38.0474 189.409 38.1434 189.142 38.1434ZM189.846 39.5674V48.3354H188.39V39.5674H189.846ZM200.328 43.6154C200.328 43.8928 200.312 44.1861 200.28 44.4954H193.272C193.325 45.3594 193.618 46.0368 194.152 46.5274C194.696 47.0074 195.352 47.2474 196.12 47.2474C196.749 47.2474 197.272 47.1034 197.688 46.8154C198.114 46.5168 198.413 46.1221 198.584 45.6314H200.152C199.917 46.4741 199.448 47.1621 198.744 47.6954C198.04 48.2181 197.165 48.4794 196.12 48.4794C195.288 48.4794 194.541 48.2928 193.88 47.9194C193.229 47.5461 192.717 47.0181 192.344 46.3354C191.97 45.6421 191.784 44.8421 191.784 43.9354C191.784 43.0288 191.965 42.2341 192.328 41.5514C192.69 40.8688 193.197 40.3461 193.848 39.9834C194.509 39.6101 195.266 39.4234 196.12 39.4234C196.952 39.4234 197.688 39.6048 198.328 39.9674C198.968 40.3301 199.458 40.8314 199.8 41.4714C200.152 42.1008 200.328 42.8154 200.328 43.6154ZM198.824 43.3114C198.824 42.7568 198.701 42.2821 198.456 41.8874C198.21 41.4821 197.874 41.1781 197.448 40.9754C197.032 40.7621 196.568 40.6554 196.056 40.6554C195.32 40.6554 194.69 40.8901 194.168 41.3594C193.656 41.8288 193.362 42.4794 193.288 43.3114H198.824ZM205.354 48.4794C204.682 48.4794 204.079 48.3674 203.546 48.1434C203.012 47.9088 202.591 47.5888 202.282 47.1834C201.972 46.7674 201.802 46.2928 201.77 45.7594H203.274C203.316 46.1968 203.519 46.5541 203.882 46.8314C204.255 47.1088 204.74 47.2474 205.338 47.2474C205.892 47.2474 206.33 47.1248 206.65 46.8794C206.97 46.6341 207.13 46.3248 207.13 45.9514C207.13 45.5674 206.959 45.2848 206.618 45.1034C206.276 44.9114 205.748 44.7248 205.034 44.5434C204.383 44.3728 203.85 44.2021 203.434 44.0314C203.028 43.8501 202.676 43.5888 202.378 43.2474C202.09 42.8954 201.946 42.4368 201.946 41.8714C201.946 41.4234 202.079 41.0128 202.346 40.6394C202.612 40.2661 202.991 39.9728 203.482 39.7594C203.972 39.5354 204.532 39.4234 205.162 39.4234C206.132 39.4234 206.916 39.6688 207.514 40.1594C208.111 40.6501 208.431 41.3221 208.474 42.1754H207.018C206.986 41.7168 206.799 41.3488 206.458 41.0714C206.127 40.7941 205.679 40.6554 205.114 40.6554C204.591 40.6554 204.175 40.7674 203.866 40.9914C203.556 41.2154 203.402 41.5088 203.402 41.8714C203.402 42.1594 203.492 42.3994 203.674 42.5914C203.866 42.7728 204.1 42.9221 204.378 43.0394C204.666 43.1461 205.06 43.2688 205.562 43.4074C206.191 43.5781 206.703 43.7488 207.098 43.9194C207.492 44.0794 207.828 44.3248 208.106 44.6554C208.394 44.9861 208.543 45.4181 208.554 45.9514C208.554 46.4314 208.42 46.8634 208.154 47.2474C207.887 47.6314 207.508 47.9354 207.018 48.1594C206.538 48.3728 205.983 48.4794 205.354 48.4794Z" fill="black"/>
<path d="M71.2808 160.256C71.2808 154.733 75.7579 150.256 81.2808 150.256H115.125C120.648 150.256 125.125 154.733 125.125 160.256V250.373H71.2808V160.256Z" fill="#31D58F"/>
<path d="M71.2808 176.759C71.2808 171.236 75.7579 166.759 81.2808 166.759H115.125C120.648 166.759 125.125 171.236 125.125 176.759V228.369H71.2808V176.759Z" fill="#FFD231"/>
<path d="M71.2808 189.961C71.2808 184.438 75.7579 179.961 81.2808 179.961H115.125C120.648 179.961 125.125 184.438 125.125 189.961V219.568H71.2808V189.961Z" fill="#1B84FF"/>
<path d="M71.2808 203.163C71.2808 197.64 75.7579 193.163 81.2808 193.163H115.125C120.648 193.163 125.125 197.64 125.125 203.163V283.378H71.2808V203.163Z" fill="#0044B6"/>
<path d="M374.646 131.651C374.646 126.128 379.124 121.651 384.646 121.651H418.491C424.014 121.651 428.491 126.128 428.491 131.651V194.263H374.646V131.651Z" fill="#31D58F"/>
<path d="M374.646 153.655C374.646 148.132 379.124 143.655 384.646 143.655H418.491C424.014 143.655 428.491 148.132 428.491 153.655V216.267H374.646V153.655Z" fill="#FFD231"/>
<path d="M374.646 189.961C374.646 184.438 379.124 179.961 384.646 179.961H418.491C424.014 179.961 428.491 184.438 428.491 189.961V219.568H374.646V189.961Z" fill="#1B84FF"/>
<path d="M374.646 216.365C374.646 210.842 379.124 206.365 384.646 206.365H418.491C424.014 206.365 428.491 210.842 428.491 216.365V283.378H374.646V216.365Z" fill="#0044B6"/>
<path d="M172.403 101.946C172.403 96.423 176.88 91.9458 182.403 91.9458H216.248C221.771 91.9458 226.248 96.423 226.248 101.946V192.063H172.403V101.946Z" fill="#31D58F"/>
<path d="M172.403 151.454C172.403 145.931 176.88 141.454 182.403 141.454H216.248C221.771 141.454 226.248 145.931 226.248 151.454V203.065H172.403V151.454Z" fill="#FFD231"/>
<path d="M172.403 173.458C172.403 167.935 176.88 163.458 182.403 163.458H216.248C221.771 163.458 226.248 167.935 226.248 173.458V247.072H172.403V173.458Z" fill="#1B84FF"/>
<path d="M172.403 216.365C172.403 210.842 176.88 206.365 182.403 206.365H216.248C221.771 206.365 226.248 210.842 226.248 216.365V282.278H172.403V216.365Z" fill="#0044B6"/>
<path d="M273.524 159.155C273.524 153.632 278.001 149.155 283.524 149.155H317.369C322.891 149.155 327.369 153.632 327.369 159.155V194.263H273.524V159.155Z" fill="#FFD231"/>
<path d="M273.524 174.558C273.524 169.035 278.001 164.558 283.524 164.558H317.369C322.891 164.558 327.369 169.035 327.369 174.558V204.165H273.524V174.558Z" fill="#1B84FF"/>
<path d="M273.524 196.562C273.524 191.039 278.001 186.562 283.524 186.562H317.369C322.891 186.562 327.369 191.039 327.369 196.562V283.378H273.524V196.562Z" fill="#0044B6"/>
<rect x="24" y="362.592" width="15.7594" height="13.2022" rx="3" fill="#0044B6"/>
<path d="M60.4581 364.195V373.191H59.2751V366.483L56.2851 373.191H55.4531L52.4501 366.47V373.191H51.2671V364.195H52.5411L55.8691 371.631L59.1971 364.195H60.4581ZM68.9644 369.356C68.9644 369.581 68.9514 369.82 68.9254 370.071H63.2314C63.2747 370.773 63.513 371.323 63.9464 371.722C64.3884 372.112 64.9214 372.307 65.5454 372.307C66.0567 372.307 66.4814 372.19 66.8194 371.956C67.166 371.713 67.4087 371.393 67.5474 370.994H68.8214C68.6307 371.679 68.2494 372.238 67.6774 372.671C67.1054 373.096 66.3947 373.308 65.5454 373.308C64.8694 373.308 64.2627 373.156 63.7254 372.853C63.1967 372.55 62.7807 372.121 62.4774 371.566C62.174 371.003 62.0224 370.353 62.0224 369.616C62.0224 368.879 62.1697 368.234 62.4644 367.679C62.759 367.124 63.1707 366.7 63.6994 366.405C64.2367 366.102 64.852 365.95 65.5454 365.95C66.2214 365.95 66.8194 366.097 67.3394 366.392C67.8594 366.687 68.258 367.094 68.5354 367.614C68.8214 368.125 68.9644 368.706 68.9644 369.356ZM67.7424 369.109C67.7424 368.658 67.6427 368.273 67.4434 367.952C67.244 367.623 66.971 367.376 66.6244 367.211C66.2864 367.038 65.9094 366.951 65.4934 366.951C64.8954 366.951 64.384 367.142 63.9594 367.523C63.5434 367.904 63.305 368.433 63.2444 369.109H67.7424ZM70.0839 369.603C70.0839 368.875 70.2312 368.238 70.5259 367.692C70.8206 367.137 71.2236 366.708 71.7349 366.405C72.2549 366.102 72.8356 365.95 73.4769 365.95C74.0316 365.95 74.5472 366.08 75.0239 366.34C75.5006 366.591 75.8646 366.925 76.1159 367.341V363.571H77.3119V373.191H76.1159V371.852C75.8819 372.277 75.5352 372.628 75.0759 372.905C74.6166 373.174 74.0792 373.308 73.4639 373.308C72.8312 373.308 72.2549 373.152 71.7349 372.84C71.2236 372.528 70.8206 372.09 70.5259 371.527C70.2312 370.964 70.0839 370.322 70.0839 369.603ZM76.1159 369.616C76.1159 369.079 76.0076 368.611 75.7909 368.212C75.5742 367.813 75.2796 367.51 74.9069 367.302C74.5429 367.085 74.1399 366.977 73.6979 366.977C73.2559 366.977 72.8529 367.081 72.4889 367.289C72.1249 367.497 71.8346 367.8 71.6179 368.199C71.4012 368.598 71.2929 369.066 71.2929 369.603C71.2929 370.149 71.4012 370.626 71.6179 371.033C71.8346 371.432 72.1249 371.739 72.4889 371.956C72.8529 372.164 73.2559 372.268 73.6979 372.268C74.1399 372.268 74.5429 372.164 74.9069 371.956C75.2796 371.739 75.5742 371.432 75.7909 371.033C76.0076 370.626 76.1159 370.153 76.1159 369.616ZM79.9221 364.91C79.6967 364.91 79.5061 364.832 79.3501 364.676C79.1941 364.52 79.1161 364.329 79.1161 364.104C79.1161 363.879 79.1941 363.688 79.3501 363.532C79.5061 363.376 79.6967 363.298 79.9221 363.298C80.1387 363.298 80.3207 363.376 80.4681 363.532C80.6241 363.688 80.7021 363.879 80.7021 364.104C80.7021 364.329 80.6241 364.52 80.4681 364.676C80.3207 364.832 80.1387 364.91 79.9221 364.91ZM80.4941 366.067V373.191H79.3111V366.067H80.4941ZM82.0683 369.616C82.0683 368.879 82.2156 368.238 82.5103 367.692C82.8049 367.137 83.2123 366.708 83.7323 366.405C84.2609 366.102 84.8633 365.95 85.5393 365.95C86.4146 365.95 87.1339 366.162 87.6973 366.587C88.2693 367.012 88.6463 367.601 88.8283 368.355H87.5543C87.4329 367.922 87.1946 367.579 86.8393 367.328C86.4926 367.077 86.0593 366.951 85.5393 366.951C84.8633 366.951 84.3173 367.185 83.9013 367.653C83.4853 368.112 83.2773 368.767 83.2773 369.616C83.2773 370.474 83.4853 371.137 83.9013 371.605C84.3173 372.073 84.8633 372.307 85.5393 372.307C86.0593 372.307 86.4926 372.186 86.8393 371.943C87.1859 371.7 87.4243 371.354 87.5543 370.903H88.8283C88.6376 371.631 88.2563 372.216 87.6843 372.658C87.1123 373.091 86.3973 373.308 85.5393 373.308C84.8633 373.308 84.2609 373.156 83.7323 372.853C83.2123 372.55 82.8049 372.121 82.5103 371.566C82.2156 371.011 82.0683 370.361 82.0683 369.616ZM89.9648 369.603C89.9648 368.875 90.1121 368.238 90.4068 367.692C90.7014 367.137 91.1044 366.708 91.6158 366.405C92.1358 366.102 92.7121 365.95 93.3448 365.95C93.9688 365.95 94.5104 366.084 94.9698 366.353C95.4291 366.622 95.7714 366.96 95.9968 367.367V366.067H97.1928V373.191H95.9968V371.865C95.7628 372.281 95.4118 372.628 94.9438 372.905C94.4844 373.174 93.9471 373.308 93.3318 373.308C92.6991 373.308 92.1271 373.152 91.6158 372.84C91.1044 372.528 90.7014 372.09 90.4068 371.527C90.1121 370.964 89.9648 370.322 89.9648 369.603ZM95.9968 369.616C95.9968 369.079 95.8884 368.611 95.6718 368.212C95.4551 367.813 95.1604 367.51 94.7878 367.302C94.4238 367.085 94.0208 366.977 93.5788 366.977C93.1368 366.977 92.7338 367.081 92.3698 367.289C92.0058 367.497 91.7154 367.8 91.4988 368.199C91.2821 368.598 91.1738 369.066 91.1738 369.603C91.1738 370.149 91.2821 370.626 91.4988 371.033C91.7154 371.432 92.0058 371.739 92.3698 371.956C92.7338 372.164 93.1368 372.268 93.5788 372.268C94.0208 372.268 94.4238 372.164 94.7878 371.956C95.1604 371.739 95.4551 371.432 95.6718 371.033C95.8884 370.626 95.9968 370.153 95.9968 369.616ZM100.375 363.571V373.191H99.1919V363.571H100.375ZM111.915 366.782C111.915 367.536 111.655 368.164 111.135 368.667C110.624 369.161 109.839 369.408 108.782 369.408H107.04V373.191H105.857V364.13H108.782C109.805 364.13 110.58 364.377 111.109 364.871C111.646 365.365 111.915 366.002 111.915 366.782ZM108.782 368.433C109.441 368.433 109.926 368.29 110.238 368.004C110.55 367.718 110.706 367.311 110.706 366.782C110.706 365.664 110.065 365.105 108.782 365.105H107.04V368.433H108.782ZM114.568 367.224C114.776 366.817 115.071 366.5 115.452 366.275C115.842 366.05 116.315 365.937 116.869 365.937V367.159H116.557C115.231 367.159 114.568 367.878 114.568 369.317V373.191H113.385V366.067H114.568V367.224ZM117.793 369.603C117.793 368.875 117.94 368.238 118.235 367.692C118.53 367.137 118.933 366.708 119.444 366.405C119.964 366.102 120.54 365.95 121.173 365.95C121.797 365.95 122.339 366.084 122.798 366.353C123.257 366.622 123.6 366.96 123.825 367.367V366.067H125.021V373.191H123.825V371.865C123.591 372.281 123.24 372.628 122.772 372.905C122.313 373.174 121.775 373.308 121.16 373.308C120.527 373.308 119.955 373.152 119.444 372.84C118.933 372.528 118.53 372.09 118.235 371.527C117.94 370.964 117.793 370.322 117.793 369.603ZM123.825 369.616C123.825 369.079 123.717 368.611 123.5 368.212C123.283 367.813 122.989 367.51 122.616 367.302C122.252 367.085 121.849 366.977 121.407 366.977C120.965 366.977 120.562 367.081 120.198 367.289C119.834 367.497 119.544 367.8 119.327 368.199C119.11 368.598 119.002 369.066 119.002 369.603C119.002 370.149 119.11 370.626 119.327 371.033C119.544 371.432 119.834 371.739 120.198 371.956C120.562 372.164 120.965 372.268 121.407 372.268C121.849 372.268 122.252 372.164 122.616 371.956C122.989 371.739 123.283 371.432 123.5 371.033C123.717 370.626 123.825 370.153 123.825 369.616ZM126.578 369.616C126.578 368.879 126.725 368.238 127.02 367.692C127.315 367.137 127.722 366.708 128.242 366.405C128.771 366.102 129.373 365.95 130.049 365.95C130.924 365.95 131.644 366.162 132.207 366.587C132.779 367.012 133.156 367.601 133.338 368.355H132.064C131.943 367.922 131.704 367.579 131.349 367.328C131.002 367.077 130.569 366.951 130.049 366.951C129.373 366.951 128.827 367.185 128.411 367.653C127.995 368.112 127.787 368.767 127.787 369.616C127.787 370.474 127.995 371.137 128.411 371.605C128.827 372.073 129.373 372.307 130.049 372.307C130.569 372.307 131.002 372.186 131.349 371.943C131.696 371.7 131.934 371.354 132.064 370.903H133.338C133.147 371.631 132.766 372.216 132.194 372.658C131.622 373.091 130.907 373.308 130.049 373.308C129.373 373.308 128.771 373.156 128.242 372.853C127.722 372.55 127.315 372.121 127.02 371.566C126.725 371.011 126.578 370.361 126.578 369.616ZM136.36 367.042V371.241C136.36 371.588 136.433 371.835 136.581 371.982C136.728 372.121 136.984 372.19 137.348 372.19H138.219V373.191H137.153C136.494 373.191 136 373.039 135.671 372.736C135.341 372.433 135.177 371.934 135.177 371.241V367.042H134.254V366.067H135.177V364.273H136.36V366.067H138.219V367.042H136.36ZM140.263 364.91C140.038 364.91 139.847 364.832 139.691 364.676C139.535 364.52 139.457 364.329 139.457 364.104C139.457 363.879 139.535 363.688 139.691 363.532C139.847 363.376 140.038 363.298 140.263 363.298C140.48 363.298 140.662 363.376 140.809 363.532C140.965 363.688 141.043 363.879 141.043 364.104C141.043 364.329 140.965 364.52 140.809 364.676C140.662 364.832 140.48 364.91 140.263 364.91ZM140.835 366.067V373.191H139.652V366.067H140.835ZM142.409 369.616C142.409 368.879 142.556 368.238 142.851 367.692C143.146 367.137 143.553 366.708 144.073 366.405C144.602 366.102 145.204 365.95 145.88 365.95C146.755 365.95 147.475 366.162 148.038 366.587C148.61 367.012 148.987 367.601 149.169 368.355H147.895C147.774 367.922 147.535 367.579 147.18 367.328C146.833 367.077 146.4 366.951 145.88 366.951C145.204 366.951 144.658 367.185 144.242 367.653C143.826 368.112 143.618 368.767 143.618 369.616C143.618 370.474 143.826 371.137 144.242 371.605C144.658 372.073 145.204 372.307 145.88 372.307C146.4 372.307 146.833 372.186 147.18 371.943C147.527 371.7 147.765 371.354 147.895 370.903H149.169C148.978 371.631 148.597 372.216 148.025 372.658C147.453 373.091 146.738 373.308 145.88 373.308C145.204 373.308 144.602 373.156 144.073 372.853C143.553 372.55 143.146 372.121 142.851 371.566C142.556 371.011 142.409 370.361 142.409 369.616ZM157.248 369.356C157.248 369.581 157.235 369.82 157.209 370.071H151.515C151.558 370.773 151.796 371.323 152.23 371.722C152.672 372.112 153.205 372.307 153.829 372.307C154.34 372.307 154.765 372.19 155.103 371.956C155.449 371.713 155.692 371.393 155.831 370.994H157.105C156.914 371.679 156.533 372.238 155.961 372.671C155.389 373.096 154.678 373.308 153.829 373.308C153.153 373.308 152.546 373.156 152.009 372.853C151.48 372.55 151.064 372.121 150.761 371.566C150.457 371.003 150.306 370.353 150.306 369.616C150.306 368.879 150.453 368.234 150.748 367.679C151.042 367.124 151.454 366.7 151.983 366.405C152.52 366.102 153.135 365.95 153.829 365.95C154.505 365.95 155.103 366.097 155.623 366.392C156.143 366.687 156.541 367.094 156.819 367.614C157.105 368.125 157.248 368.706 157.248 369.356ZM156.026 369.109C156.026 368.658 155.926 368.273 155.727 367.952C155.527 367.623 155.254 367.376 154.908 367.211C154.57 367.038 154.193 366.951 153.777 366.951C153.179 366.951 152.667 367.142 152.243 367.523C151.827 367.904 151.588 368.433 151.528 369.109H156.026ZM161.331 373.308C160.785 373.308 160.295 373.217 159.862 373.035C159.429 372.844 159.086 372.584 158.835 372.255C158.584 371.917 158.445 371.531 158.419 371.098H159.641C159.676 371.453 159.84 371.744 160.135 371.969C160.438 372.194 160.833 372.307 161.318 372.307C161.769 372.307 162.124 372.207 162.384 372.008C162.644 371.809 162.774 371.557 162.774 371.254C162.774 370.942 162.635 370.712 162.358 370.565C162.081 370.409 161.652 370.257 161.071 370.11C160.542 369.971 160.109 369.833 159.771 369.694C159.442 369.547 159.156 369.334 158.913 369.057C158.679 368.771 158.562 368.398 158.562 367.939C158.562 367.575 158.67 367.241 158.887 366.938C159.104 366.635 159.411 366.396 159.81 366.223C160.209 366.041 160.664 365.95 161.175 365.95C161.964 365.95 162.601 366.149 163.086 366.548C163.571 366.947 163.831 367.493 163.866 368.186H162.683C162.657 367.813 162.505 367.514 162.228 367.289C161.959 367.064 161.595 366.951 161.136 366.951C160.711 366.951 160.373 367.042 160.122 367.224C159.871 367.406 159.745 367.644 159.745 367.939C159.745 368.173 159.819 368.368 159.966 368.524C160.122 368.671 160.313 368.793 160.538 368.888C160.772 368.975 161.093 369.074 161.5 369.187C162.011 369.326 162.427 369.464 162.748 369.603C163.069 369.733 163.342 369.932 163.567 370.201C163.801 370.47 163.922 370.821 163.931 371.254C163.931 371.644 163.823 371.995 163.606 372.307C163.389 372.619 163.082 372.866 162.683 373.048C162.293 373.221 161.842 373.308 161.331 373.308Z" fill="black"/>
<rect x="24" y="393.397" width="15.7594" height="13.2022" rx="3" fill="#1B84FF"/>
<path d="M50.8251 399.459C50.8251 398.575 51.0244 397.782 51.4231 397.08C51.8218 396.37 52.3634 395.815 53.0481 395.416C53.7414 395.018 54.5084 394.818 55.3491 394.818C56.3371 394.818 57.1994 395.057 57.9361 395.533C58.6728 396.01 59.2101 396.686 59.5481 397.561H58.1311C57.8798 397.015 57.5158 396.595 57.0391 396.3C56.5711 396.006 56.0078 395.858 55.3491 395.858C54.7164 395.858 54.1488 396.006 53.6461 396.3C53.1434 396.595 52.7491 397.015 52.4631 397.561C52.1771 398.099 52.0341 398.731 52.0341 399.459C52.0341 400.179 52.1771 400.811 52.4631 401.357C52.7491 401.895 53.1434 402.311 53.6461 402.605C54.1488 402.9 54.7164 403.047 55.3491 403.047C56.0078 403.047 56.5711 402.904 57.0391 402.618C57.5158 402.324 57.8798 401.903 58.1311 401.357H59.5481C59.2101 402.224 58.6728 402.896 57.9361 403.372C57.1994 403.84 56.3371 404.074 55.3491 404.074C54.5084 404.074 53.7414 403.879 53.0481 403.489C52.3634 403.091 51.8218 402.54 51.4231 401.838C51.0244 401.136 50.8251 400.343 50.8251 399.459ZM64.4161 404.113C63.7488 404.113 63.1421 403.962 62.5961 403.658C62.0588 403.355 61.6341 402.926 61.3221 402.371C61.0188 401.808 60.8671 401.158 60.8671 400.421C60.8671 399.693 61.0231 399.052 61.3351 398.497C61.6558 397.934 62.0891 397.505 62.6351 397.21C63.1811 396.907 63.7921 396.755 64.4681 396.755C65.1441 396.755 65.7551 396.907 66.3011 397.21C66.8471 397.505 67.2761 397.93 67.5881 398.484C67.9088 399.039 68.0691 399.685 68.0691 400.421C68.0691 401.158 67.9044 401.808 67.5751 402.371C67.2544 402.926 66.8168 403.355 66.2621 403.658C65.7074 403.962 65.0921 404.113 64.4161 404.113ZM64.4161 403.073C64.8408 403.073 65.2394 402.974 65.6121 402.774C65.9848 402.575 66.2838 402.276 66.5091 401.877C66.7431 401.479 66.8601 400.993 66.8601 400.421C66.8601 399.849 66.7474 399.364 66.5221 398.965C66.2968 398.567 66.0021 398.272 65.6381 398.081C65.2741 397.882 64.8798 397.782 64.4551 397.782C64.0218 397.782 63.6231 397.882 63.2591 398.081C62.9038 398.272 62.6178 398.567 62.4011 398.965C62.1844 399.364 62.0761 399.849 62.0761 400.421C62.0761 401.002 62.1801 401.492 62.3881 401.89C62.6048 402.289 62.8908 402.588 63.2461 402.787C63.6014 402.978 63.9914 403.073 64.4161 403.073ZM73.0955 396.742C73.9622 396.742 74.6642 397.007 75.2015 397.535C75.7389 398.055 76.0075 398.809 76.0075 399.797V403.996H74.8375V399.966C74.8375 399.256 74.6599 398.714 74.3045 398.341C73.9492 397.96 73.4639 397.769 72.8485 397.769C72.2245 397.769 71.7262 397.964 71.3535 398.354C70.9895 398.744 70.8075 399.312 70.8075 400.057V403.996H69.6245V396.872H70.8075V397.886C71.0415 397.522 71.3579 397.241 71.7565 397.041C72.1639 396.842 72.6102 396.742 73.0955 396.742ZM80.462 404.113C79.916 404.113 79.4263 404.022 78.993 403.84C78.5596 403.65 78.2173 403.39 77.966 403.06C77.7146 402.722 77.576 402.337 77.55 401.903H78.772C78.8066 402.259 78.9713 402.549 79.266 402.774C79.5693 403 79.9636 403.112 80.449 403.112C80.8996 403.112 81.255 403.013 81.515 402.813C81.775 402.614 81.905 402.363 81.905 402.059C81.905 401.747 81.7663 401.518 81.489 401.37C81.2116 401.214 80.7826 401.063 80.202 400.915C79.6733 400.777 79.24 400.638 78.902 400.499C78.5726 400.352 78.2866 400.14 78.044 399.862C77.81 399.576 77.693 399.204 77.693 398.744C77.693 398.38 77.8013 398.047 78.018 397.743C78.2346 397.44 78.5423 397.202 78.941 397.028C79.3396 396.846 79.7946 396.755 80.306 396.755C81.0946 396.755 81.7316 396.955 82.217 397.353C82.7023 397.752 82.9623 398.298 82.997 398.991H81.814C81.788 398.619 81.6363 398.32 81.359 398.094C81.0903 397.869 80.7263 397.756 80.267 397.756C79.8423 397.756 79.5043 397.847 79.253 398.029C79.0016 398.211 78.876 398.45 78.876 398.744C78.876 398.978 78.9496 399.173 79.097 399.329C79.253 399.477 79.4436 399.598 79.669 399.693C79.903 399.78 80.2236 399.88 80.631 399.992C81.1423 400.131 81.5583 400.27 81.879 400.408C82.1996 400.538 82.4726 400.738 82.698 401.006C82.932 401.275 83.0533 401.626 83.062 402.059C83.062 402.449 82.9536 402.8 82.737 403.112C82.5203 403.424 82.2126 403.671 81.814 403.853C81.424 404.027 80.9733 404.113 80.462 404.113ZM86.175 397.847V402.046C86.175 402.393 86.2486 402.64 86.396 402.787C86.5433 402.926 86.799 402.995 87.163 402.995H88.034V403.996H86.968C86.3093 403.996 85.8153 403.845 85.486 403.541C85.1566 403.238 84.992 402.74 84.992 402.046V397.847H84.069V396.872H84.992V395.078H86.175V396.872H88.034V397.847H86.175ZM90.6503 398.029C90.8583 397.622 91.153 397.306 91.5343 397.08C91.9243 396.855 92.3966 396.742 92.9513 396.742V397.964H92.6393C91.3133 397.964 90.6503 398.684 90.6503 400.122V403.996H89.4673V396.872H90.6503V398.029ZM100.635 396.872V403.996H99.4519V402.943C99.2266 403.307 98.9103 403.593 98.5029 403.801C98.1043 404.001 97.6623 404.1 97.1769 404.1C96.6223 404.1 96.1239 403.988 95.6819 403.762C95.2399 403.528 94.8889 403.182 94.6289 402.722C94.3776 402.263 94.2519 401.704 94.2519 401.045V396.872H95.4219V400.889C95.4219 401.591 95.5996 402.133 95.9549 402.514C96.3103 402.887 96.7956 403.073 97.4109 403.073C98.0436 403.073 98.5419 402.878 98.9059 402.488C99.2699 402.098 99.4519 401.531 99.4519 400.785V396.872H100.635ZM102.19 400.421C102.19 399.685 102.338 399.043 102.632 398.497C102.927 397.943 103.334 397.514 103.854 397.21C104.383 396.907 104.985 396.755 105.661 396.755C106.537 396.755 107.256 396.968 107.819 397.392C108.391 397.817 108.768 398.406 108.95 399.16H107.676C107.555 398.727 107.317 398.385 106.961 398.133C106.615 397.882 106.181 397.756 105.661 397.756C104.985 397.756 104.439 397.99 104.023 398.458C103.607 398.918 103.399 399.572 103.399 400.421C103.399 401.279 103.607 401.942 104.023 402.41C104.439 402.878 104.985 403.112 105.661 403.112C106.181 403.112 106.615 402.991 106.961 402.748C107.308 402.506 107.546 402.159 107.676 401.708H108.95C108.76 402.436 108.378 403.021 107.806 403.463C107.234 403.897 106.519 404.113 105.661 404.113C104.985 404.113 104.383 403.962 103.854 403.658C103.334 403.355 102.927 402.926 102.632 402.371C102.338 401.817 102.19 401.167 102.19 400.421ZM111.972 397.847V402.046C111.972 402.393 112.045 402.64 112.193 402.787C112.34 402.926 112.596 402.995 112.96 402.995H113.831V403.996H112.765C112.106 403.996 111.612 403.845 111.283 403.541C110.953 403.238 110.789 402.74 110.789 402.046V397.847H109.866V396.872H110.789V395.078H111.972V396.872H113.831V397.847H111.972ZM115.875 395.715C115.65 395.715 115.459 395.637 115.303 395.481C115.147 395.325 115.069 395.135 115.069 394.909C115.069 394.684 115.147 394.493 115.303 394.337C115.459 394.181 115.65 394.103 115.875 394.103C116.092 394.103 116.274 394.181 116.421 394.337C116.577 394.493 116.655 394.684 116.655 394.909C116.655 395.135 116.577 395.325 116.421 395.481C116.274 395.637 116.092 395.715 115.875 395.715ZM116.447 396.872V403.996H115.264V396.872H116.447ZM121.57 404.113C120.903 404.113 120.296 403.962 119.75 403.658C119.213 403.355 118.788 402.926 118.476 402.371C118.173 401.808 118.021 401.158 118.021 400.421C118.021 399.693 118.177 399.052 118.489 398.497C118.81 397.934 119.243 397.505 119.789 397.21C120.335 396.907 120.946 396.755 121.622 396.755C122.298 396.755 122.909 396.907 123.455 397.21C124.001 397.505 124.43 397.93 124.742 398.484C125.063 399.039 125.223 399.685 125.223 400.421C125.223 401.158 125.059 401.808 124.729 402.371C124.409 402.926 123.971 403.355 123.416 403.658C122.862 403.962 122.246 404.113 121.57 404.113ZM121.57 403.073C121.995 403.073 122.394 402.974 122.766 402.774C123.139 402.575 123.438 402.276 123.663 401.877C123.897 401.479 124.014 400.993 124.014 400.421C124.014 399.849 123.902 399.364 123.676 398.965C123.451 398.567 123.156 398.272 122.792 398.081C122.428 397.882 122.034 397.782 121.609 397.782C121.176 397.782 120.777 397.882 120.413 398.081C120.058 398.272 119.772 398.567 119.555 398.965C119.339 399.364 119.23 399.849 119.23 400.421C119.23 401.002 119.334 401.492 119.542 401.89C119.759 402.289 120.045 402.588 120.4 402.787C120.756 402.978 121.146 403.073 121.57 403.073ZM130.25 396.742C131.116 396.742 131.818 397.007 132.356 397.535C132.893 398.055 133.162 398.809 133.162 399.797V403.996H131.992V399.966C131.992 399.256 131.814 398.714 131.459 398.341C131.103 397.96 130.618 397.769 130.003 397.769C129.379 397.769 128.88 397.964 128.508 398.354C128.144 398.744 127.962 399.312 127.962 400.057V403.996H126.779V396.872H127.962V397.886C128.196 397.522 128.512 397.241 128.911 397.041C129.318 396.842 129.764 396.742 130.25 396.742Z" fill="black"/>
<rect x="230.185" y="362.592" width="15.7594" height="13.2022" rx="3" fill="#FFD231"/>
<path d="M257.01 368.654C257.01 367.77 257.209 366.977 257.608 366.275C258.006 365.564 258.548 365.01 259.233 364.611C259.926 364.212 260.693 364.013 261.534 364.013C262.522 364.013 263.384 364.251 264.121 364.728C264.857 365.205 265.395 365.881 265.733 366.756H264.316C264.064 366.21 263.7 365.79 263.224 365.495C262.756 365.2 262.192 365.053 261.534 365.053C260.901 365.053 260.333 365.2 259.831 365.495C259.328 365.79 258.934 366.21 258.648 366.756C258.362 367.293 258.219 367.926 258.219 368.654C258.219 369.373 258.362 370.006 258.648 370.552C258.934 371.089 259.328 371.505 259.831 371.8C260.333 372.095 260.901 372.242 261.534 372.242C262.192 372.242 262.756 372.099 263.224 371.813C263.7 371.518 264.064 371.098 264.316 370.552H265.733C265.395 371.419 264.857 372.09 264.121 372.567C263.384 373.035 262.522 373.269 261.534 373.269C260.693 373.269 259.926 373.074 259.233 372.684C258.548 372.285 258.006 371.735 257.608 371.033C257.209 370.331 257.01 369.538 257.01 368.654ZM270.601 373.308C269.933 373.308 269.327 373.156 268.781 372.853C268.243 372.55 267.819 372.121 267.507 371.566C267.203 371.003 267.052 370.353 267.052 369.616C267.052 368.888 267.208 368.247 267.52 367.692C267.84 367.129 268.274 366.7 268.82 366.405C269.366 366.102 269.977 365.95 270.653 365.95C271.329 365.95 271.94 366.102 272.486 366.405C273.032 366.7 273.461 367.124 273.773 367.679C274.093 368.234 274.254 368.879 274.254 369.616C274.254 370.353 274.089 371.003 273.76 371.566C273.439 372.121 273.001 372.55 272.447 372.853C271.892 373.156 271.277 373.308 270.601 373.308ZM270.601 372.268C271.025 372.268 271.424 372.168 271.797 371.969C272.169 371.77 272.468 371.471 272.694 371.072C272.928 370.673 273.045 370.188 273.045 369.616C273.045 369.044 272.932 368.559 272.707 368.16C272.481 367.761 272.187 367.467 271.823 367.276C271.459 367.077 271.064 366.977 270.64 366.977C270.206 366.977 269.808 367.077 269.444 367.276C269.088 367.467 268.802 367.761 268.586 368.16C268.369 368.559 268.261 369.044 268.261 369.616C268.261 370.197 268.365 370.686 268.573 371.085C268.789 371.484 269.075 371.783 269.431 371.982C269.786 372.173 270.176 372.268 270.601 372.268ZM284.376 365.937C284.931 365.937 285.425 366.054 285.858 366.288C286.291 366.513 286.634 366.856 286.885 367.315C287.136 367.774 287.262 368.333 287.262 368.992V373.191H286.092V369.161C286.092 368.45 285.914 367.909 285.559 367.536C285.212 367.155 284.74 366.964 284.142 366.964C283.527 366.964 283.037 367.163 282.673 367.562C282.309 367.952 282.127 368.52 282.127 369.265V373.191H280.957V369.161C280.957 368.45 280.779 367.909 280.424 367.536C280.077 367.155 279.605 366.964 279.007 366.964C278.392 366.964 277.902 367.163 277.538 367.562C277.174 367.952 276.992 368.52 276.992 369.265V373.191H275.809V366.067H276.992V367.094C277.226 366.721 277.538 366.435 277.928 366.236C278.327 366.037 278.764 365.937 279.241 365.937C279.839 365.937 280.368 366.071 280.827 366.34C281.286 366.609 281.629 367.003 281.854 367.523C282.053 367.02 282.383 366.63 282.842 366.353C283.301 366.076 283.813 365.937 284.376 365.937ZM297.77 365.937C298.324 365.937 298.818 366.054 299.252 366.288C299.685 366.513 300.027 366.856 300.279 367.315C300.53 367.774 300.656 368.333 300.656 368.992V373.191H299.486V369.161C299.486 368.45 299.308 367.909 298.953 367.536C298.606 367.155 298.134 366.964 297.536 366.964C296.92 366.964 296.431 367.163 296.067 367.562C295.703 367.952 295.521 368.52 295.521 369.265V373.191H294.351V369.161C294.351 368.45 294.173 367.909 293.818 367.536C293.471 367.155 292.999 366.964 292.401 366.964C291.785 366.964 291.296 367.163 290.932 367.562C290.568 367.952 290.386 368.52 290.386 369.265V373.191H289.203V366.067H290.386V367.094C290.62 366.721 290.932 366.435 291.322 366.236C291.72 366.037 292.158 365.937 292.635 365.937C293.233 365.937 293.761 366.071 294.221 366.34C294.68 366.609 295.022 367.003 295.248 367.523C295.447 367.02 295.776 366.63 296.236 366.353C296.695 366.076 297.206 365.937 297.77 365.937ZM309.096 369.356C309.096 369.581 309.083 369.82 309.057 370.071H303.363C303.407 370.773 303.645 371.323 304.078 371.722C304.52 372.112 305.053 372.307 305.677 372.307C306.189 372.307 306.613 372.19 306.951 371.956C307.298 371.713 307.541 371.393 307.679 370.994H308.953C308.763 371.679 308.381 372.238 307.809 372.671C307.237 373.096 306.527 373.308 305.677 373.308C305.001 373.308 304.395 373.156 303.857 372.853C303.329 372.55 302.913 372.121 302.609 371.566C302.306 371.003 302.154 370.353 302.154 369.616C302.154 368.879 302.302 368.234 302.596 367.679C302.891 367.124 303.303 366.7 303.831 366.405C304.369 366.102 304.984 365.95 305.677 365.95C306.353 365.95 306.951 366.097 307.471 366.392C307.991 366.687 308.39 367.094 308.667 367.614C308.953 368.125 309.096 368.706 309.096 369.356ZM307.874 369.109C307.874 368.658 307.775 368.273 307.575 367.952C307.376 367.623 307.103 367.376 306.756 367.211C306.418 367.038 306.041 366.951 305.625 366.951C305.027 366.951 304.516 367.142 304.091 367.523C303.675 367.904 303.437 368.433 303.376 369.109H307.874ZM311.841 367.224C312.049 366.817 312.343 366.5 312.725 366.275C313.115 366.05 313.587 365.937 314.142 365.937V367.159H313.83C312.504 367.159 311.841 367.878 311.841 369.317V373.191H310.658V366.067H311.841V367.224ZM315.065 369.616C315.065 368.879 315.213 368.238 315.507 367.692C315.802 367.137 316.209 366.708 316.729 366.405C317.258 366.102 317.86 365.95 318.536 365.95C319.412 365.95 320.131 366.162 320.694 366.587C321.266 367.012 321.643 367.601 321.825 368.355H320.551C320.43 367.922 320.192 367.579 319.836 367.328C319.49 367.077 319.056 366.951 318.536 366.951C317.86 366.951 317.314 367.185 316.898 367.653C316.482 368.112 316.274 368.767 316.274 369.616C316.274 370.474 316.482 371.137 316.898 371.605C317.314 372.073 317.86 372.307 318.536 372.307C319.056 372.307 319.49 372.186 319.836 371.943C320.183 371.7 320.421 371.354 320.551 370.903H321.825C321.635 371.631 321.253 372.216 320.681 372.658C320.109 373.091 319.394 373.308 318.536 373.308C317.86 373.308 317.258 373.156 316.729 372.853C316.209 372.55 315.802 372.121 315.507 371.566C315.213 371.011 315.065 370.361 315.065 369.616ZM324.015 364.91C323.789 364.91 323.599 364.832 323.443 364.676C323.287 364.52 323.209 364.329 323.209 364.104C323.209 363.879 323.287 363.688 323.443 363.532C323.599 363.376 323.789 363.298 324.015 363.298C324.231 363.298 324.413 363.376 324.561 363.532C324.717 363.688 324.795 363.879 324.795 364.104C324.795 364.329 324.717 364.52 324.561 364.676C324.413 364.832 324.231 364.91 324.015 364.91ZM324.587 366.067V373.191H323.404V366.067H324.587ZM326.161 369.603C326.161 368.875 326.308 368.238 326.603 367.692C326.898 367.137 327.301 366.708 327.812 366.405C328.332 366.102 328.908 365.95 329.541 365.95C330.165 365.95 330.707 366.084 331.166 366.353C331.625 366.622 331.968 366.96 332.193 367.367V366.067H333.389V373.191H332.193V371.865C331.959 372.281 331.608 372.628 331.14 372.905C330.681 373.174 330.143 373.308 329.528 373.308C328.895 373.308 328.323 373.152 327.812 372.84C327.301 372.528 326.898 372.09 326.603 371.527C326.308 370.964 326.161 370.322 326.161 369.603ZM332.193 369.616C332.193 369.079 332.085 368.611 331.868 368.212C331.651 367.813 331.357 367.51 330.984 367.302C330.62 367.085 330.217 366.977 329.775 366.977C329.333 366.977 328.93 367.081 328.566 367.289C328.202 367.497 327.912 367.8 327.695 368.199C327.478 368.598 327.37 369.066 327.37 369.603C327.37 370.149 327.478 370.626 327.695 371.033C327.912 371.432 328.202 371.739 328.566 371.956C328.93 372.164 329.333 372.268 329.775 372.268C330.217 372.268 330.62 372.164 330.984 371.956C331.357 371.739 331.651 371.432 331.868 371.033C332.085 370.626 332.193 370.153 332.193 369.616ZM336.571 363.571V373.191H335.388V363.571H336.571ZM349.541 364.13L346.122 373.191H344.757L341.338 364.13H342.599L345.446 371.943L348.293 364.13H349.541ZM357.338 369.356C357.338 369.581 357.325 369.82 357.299 370.071H351.605C351.649 370.773 351.887 371.323 352.32 371.722C352.762 372.112 353.295 372.307 353.919 372.307C354.431 372.307 354.855 372.19 355.193 371.956C355.54 371.713 355.783 371.393 355.921 370.994H357.195C357.005 371.679 356.623 372.238 356.051 372.671C355.479 373.096 354.769 373.308 353.919 373.308C353.243 373.308 352.637 373.156 352.099 372.853C351.571 372.55 351.155 372.121 350.851 371.566C350.548 371.003 350.396 370.353 350.396 369.616C350.396 368.879 350.544 368.234 350.838 367.679C351.133 367.124 351.545 366.7 352.073 366.405C352.611 366.102 353.226 365.95 353.919 365.95C354.595 365.95 355.193 366.097 355.713 366.392C356.233 366.687 356.632 367.094 356.909 367.614C357.195 368.125 357.338 368.706 357.338 369.356ZM356.116 369.109C356.116 368.658 356.017 368.273 355.817 367.952C355.618 367.623 355.345 367.376 354.998 367.211C354.66 367.038 354.283 366.951 353.867 366.951C353.269 366.951 352.758 367.142 352.333 367.523C351.917 367.904 351.679 368.433 351.618 369.109H356.116ZM362.436 365.937C362.973 365.937 363.459 366.054 363.892 366.288C364.325 366.513 364.663 366.856 364.906 367.315C365.157 367.774 365.283 368.333 365.283 368.992V373.191H364.113V369.161C364.113 368.45 363.935 367.909 363.58 367.536C363.225 367.155 362.739 366.964 362.124 366.964C361.5 366.964 361.002 367.159 360.629 367.549C360.265 367.939 360.083 368.507 360.083 369.252V373.191H358.9V363.571H360.083V367.081C360.317 366.717 360.638 366.435 361.045 366.236C361.461 366.037 361.925 365.937 362.436 365.937ZM367.826 364.91C367.601 364.91 367.41 364.832 367.254 364.676C367.098 364.52 367.02 364.329 367.02 364.104C367.02 363.879 367.098 363.688 367.254 363.532C367.41 363.376 367.601 363.298 367.826 363.298C368.043 363.298 368.225 363.376 368.372 363.532C368.528 363.688 368.606 363.879 368.606 364.104C368.606 364.329 368.528 364.52 368.372 364.676C368.225 364.832 368.043 364.91 367.826 364.91ZM368.398 366.067V373.191H367.215V366.067H368.398ZM369.973 369.616C369.973 368.879 370.12 368.238 370.415 367.692C370.709 367.137 371.117 366.708 371.637 366.405C372.165 366.102 372.768 365.95 373.444 365.95C374.319 365.95 375.038 366.162 375.602 366.587C376.174 367.012 376.551 367.601 376.733 368.355H375.459C375.337 367.922 375.099 367.579 374.744 367.328C374.397 367.077 373.964 366.951 373.444 366.951C372.768 366.951 372.222 367.185 371.806 367.653C371.39 368.112 371.182 368.767 371.182 369.616C371.182 370.474 371.39 371.137 371.806 371.605C372.222 372.073 372.768 372.307 373.444 372.307C373.964 372.307 374.397 372.186 374.744 371.943C375.09 371.7 375.329 371.354 375.459 370.903H376.733C376.542 371.631 376.161 372.216 375.589 372.658C375.017 373.091 374.302 373.308 373.444 373.308C372.768 373.308 372.165 373.156 371.637 372.853C371.117 372.55 370.709 372.121 370.415 371.566C370.12 371.011 369.973 370.361 369.973 369.616ZM379.494 363.571V373.191H378.311V363.571H379.494ZM388.01 369.356C388.01 369.581 387.997 369.82 387.971 370.071H382.277C382.321 370.773 382.559 371.323 382.992 371.722C383.434 372.112 383.967 372.307 384.591 372.307C385.103 372.307 385.527 372.19 385.865 371.956C386.212 371.713 386.455 371.393 386.593 370.994H387.867C387.677 371.679 387.295 372.238 386.723 372.671C386.151 373.096 385.441 373.308 384.591 373.308C383.915 373.308 383.309 373.156 382.771 372.853C382.243 372.55 381.827 372.121 381.523 371.566C381.22 371.003 381.068 370.353 381.068 369.616C381.068 368.879 381.216 368.234 381.51 367.679C381.805 367.124 382.217 366.7 382.745 366.405C383.283 366.102 383.898 365.95 384.591 365.95C385.267 365.95 385.865 366.097 386.385 366.392C386.905 366.687 387.304 367.094 387.581 367.614C387.867 368.125 388.01 368.706 388.01 369.356ZM386.788 369.109C386.788 368.658 386.689 368.273 386.489 367.952C386.29 367.623 386.017 367.376 385.67 367.211C385.332 367.038 384.955 366.951 384.539 366.951C383.941 366.951 383.43 367.142 383.005 367.523C382.589 367.904 382.351 368.433 382.29 369.109H386.788ZM392.094 373.308C391.548 373.308 391.058 373.217 390.625 373.035C390.191 372.844 389.849 372.584 389.598 372.255C389.346 371.917 389.208 371.531 389.182 371.098H390.404C390.438 371.453 390.603 371.744 390.898 371.969C391.201 372.194 391.595 372.307 392.081 372.307C392.531 372.307 392.887 372.207 393.147 372.008C393.407 371.809 393.537 371.557 393.537 371.254C393.537 370.942 393.398 370.712 393.121 370.565C392.843 370.409 392.414 370.257 391.834 370.11C391.305 369.971 390.872 369.833 390.534 369.694C390.204 369.547 389.918 369.334 389.676 369.057C389.442 368.771 389.325 368.398 389.325 367.939C389.325 367.575 389.433 367.241 389.65 366.938C389.866 366.635 390.174 366.396 390.573 366.223C390.971 366.041 391.426 365.95 391.938 365.95C392.726 365.95 393.363 366.149 393.849 366.548C394.334 366.947 394.594 367.493 394.629 368.186H393.446C393.42 367.813 393.268 367.514 392.991 367.289C392.722 367.064 392.358 366.951 391.899 366.951C391.474 366.951 391.136 367.042 390.885 367.224C390.633 367.406 390.508 367.644 390.508 367.939C390.508 368.173 390.581 368.368 390.729 368.524C390.885 368.671 391.075 368.793 391.301 368.888C391.535 368.975 391.855 369.074 392.263 369.187C392.774 369.326 393.19 369.464 393.511 369.603C393.831 369.733 394.104 369.932 394.33 370.201C394.564 370.47 394.685 370.821 394.694 371.254C394.694 371.644 394.585 371.995 394.369 372.307C394.152 372.619 393.844 372.866 393.446 373.048C393.056 373.221 392.605 373.308 392.094 373.308Z" fill="black"/>
<rect x="230.185" y="393.397" width="15.7594" height="13.2022" rx="3" fill="#31D48F"/>
<path d="M262.223 403.997L260.065 400.292H258.635V403.997H257.452V394.936H260.377C261.061 394.936 261.638 395.053 262.106 395.287C262.582 395.521 262.938 395.837 263.172 396.236C263.406 396.634 263.523 397.089 263.523 397.601C263.523 398.225 263.341 398.775 262.977 399.252C262.621 399.728 262.084 400.045 261.365 400.201L263.64 403.997H262.223ZM258.635 399.343H260.377C261.018 399.343 261.499 399.187 261.82 398.875C262.14 398.554 262.301 398.129 262.301 397.601C262.301 397.063 262.14 396.647 261.82 396.353C261.508 396.058 261.027 395.911 260.377 395.911H258.635V399.343ZM271.861 400.162C271.861 400.387 271.848 400.625 271.822 400.877H266.128C266.171 401.579 266.41 402.129 266.843 402.528C267.285 402.918 267.818 403.113 268.442 403.113C268.953 403.113 269.378 402.996 269.716 402.762C270.063 402.519 270.305 402.198 270.444 401.8H271.718C271.527 402.484 271.146 403.043 270.574 403.477C270.002 403.901 269.291 404.114 268.442 404.114C267.766 404.114 267.159 403.962 266.622 403.659C266.093 403.355 265.677 402.926 265.374 402.372C265.071 401.808 264.919 401.158 264.919 400.422C264.919 399.685 265.066 399.039 265.361 398.485C265.656 397.93 266.067 397.505 266.596 397.211C267.133 396.907 267.749 396.756 268.442 396.756C269.118 396.756 269.716 396.903 270.236 397.198C270.756 397.492 271.155 397.9 271.432 398.42C271.718 398.931 271.861 399.512 271.861 400.162ZM270.639 399.915C270.639 399.464 270.539 399.078 270.34 398.758C270.141 398.428 269.868 398.181 269.521 398.017C269.183 397.843 268.806 397.757 268.39 397.757C267.792 397.757 267.281 397.947 266.856 398.329C266.44 398.71 266.202 399.239 266.141 399.915H270.639ZM275.944 404.114C275.398 404.114 274.909 404.023 274.475 403.841C274.042 403.65 273.7 403.39 273.448 403.061C273.197 402.723 273.058 402.337 273.032 401.904H274.254C274.289 402.259 274.454 402.549 274.748 402.775C275.052 403 275.446 403.113 275.931 403.113C276.382 403.113 276.737 403.013 276.997 402.814C277.257 402.614 277.387 402.363 277.387 402.06C277.387 401.748 277.249 401.518 276.971 401.371C276.694 401.215 276.265 401.063 275.684 400.916C275.156 400.777 274.722 400.638 274.384 400.5C274.055 400.352 273.769 400.14 273.526 399.863C273.292 399.577 273.175 399.204 273.175 398.745C273.175 398.381 273.284 398.047 273.5 397.744C273.717 397.44 274.025 397.202 274.423 397.029C274.822 396.847 275.277 396.756 275.788 396.756C276.577 396.756 277.214 396.955 277.699 397.354C278.185 397.752 278.445 398.298 278.479 398.992H277.296C277.27 398.619 277.119 398.32 276.841 398.095C276.573 397.869 276.209 397.757 275.749 397.757C275.325 397.757 274.987 397.848 274.735 398.03C274.484 398.212 274.358 398.45 274.358 398.745C274.358 398.979 274.432 399.174 274.579 399.33C274.735 399.477 274.926 399.598 275.151 399.694C275.385 399.78 275.706 399.88 276.113 399.993C276.625 400.131 277.041 400.27 277.361 400.409C277.682 400.539 277.955 400.738 278.18 401.007C278.414 401.275 278.536 401.626 278.544 402.06C278.544 402.45 278.436 402.801 278.219 403.113C278.003 403.425 277.695 403.672 277.296 403.854C276.906 404.027 276.456 404.114 275.944 404.114ZM281.657 397.848V402.047C281.657 402.393 281.731 402.64 281.878 402.788C282.026 402.926 282.281 402.996 282.645 402.996H283.516V403.997H282.45C281.792 403.997 281.298 403.845 280.968 403.542C280.639 403.238 280.474 402.74 280.474 402.047V397.848H279.551V396.873H280.474V395.079H281.657V396.873H283.516V397.848H281.657ZM284.508 400.409C284.508 399.681 284.655 399.044 284.95 398.498C285.244 397.943 285.647 397.514 286.159 397.211C286.679 396.907 287.255 396.756 287.888 396.756C288.512 396.756 289.053 396.89 289.513 397.159C289.972 397.427 290.314 397.765 290.54 398.173V396.873H291.736V403.997H290.54V402.671C290.306 403.087 289.955 403.433 289.487 403.711C289.027 403.979 288.49 404.114 287.875 404.114C287.242 404.114 286.67 403.958 286.159 403.646C285.647 403.334 285.244 402.896 284.95 402.333C284.655 401.769 284.508 401.128 284.508 400.409ZM290.54 400.422C290.54 399.884 290.431 399.416 290.215 399.018C289.998 398.619 289.703 398.316 289.331 398.108C288.967 397.891 288.564 397.783 288.122 397.783C287.68 397.783 287.277 397.887 286.913 398.095C286.549 398.303 286.258 398.606 286.042 399.005C285.825 399.403 285.717 399.871 285.717 400.409C285.717 400.955 285.825 401.431 286.042 401.839C286.258 402.237 286.549 402.545 286.913 402.762C287.277 402.97 287.68 403.074 288.122 403.074C288.564 403.074 288.967 402.97 289.331 402.762C289.703 402.545 289.998 402.237 290.215 401.839C290.431 401.431 290.54 400.959 290.54 400.422ZM300.053 396.873V403.997H298.87V402.944C298.645 403.308 298.328 403.594 297.921 403.802C297.522 404.001 297.08 404.101 296.595 404.101C296.04 404.101 295.542 403.988 295.1 403.763C294.658 403.529 294.307 403.182 294.047 402.723C293.796 402.263 293.67 401.704 293.67 401.046V396.873H294.84V400.89C294.84 401.592 295.018 402.133 295.373 402.515C295.728 402.887 296.214 403.074 296.829 403.074C297.462 403.074 297.96 402.879 298.324 402.489C298.688 402.099 298.87 401.531 298.87 400.786V396.873H300.053ZM303.233 398.03C303.441 397.622 303.736 397.306 304.117 397.081C304.507 396.855 304.98 396.743 305.534 396.743V397.965H305.222C303.896 397.965 303.233 398.684 303.233 400.123V403.997H302.05V396.873H303.233V398.03ZM306.458 400.409C306.458 399.681 306.605 399.044 306.9 398.498C307.195 397.943 307.598 397.514 308.109 397.211C308.629 396.907 309.205 396.756 309.838 396.756C310.462 396.756 311.004 396.89 311.463 397.159C311.922 397.427 312.265 397.765 312.49 398.173V396.873H313.686V403.997H312.49V402.671C312.256 403.087 311.905 403.433 311.437 403.711C310.978 403.979 310.44 404.114 309.825 404.114C309.192 404.114 308.62 403.958 308.109 403.646C307.598 403.334 307.195 402.896 306.9 402.333C306.605 401.769 306.458 401.128 306.458 400.409ZM312.49 400.422C312.49 399.884 312.382 399.416 312.165 399.018C311.948 398.619 311.654 398.316 311.281 398.108C310.917 397.891 310.514 397.783 310.072 397.783C309.63 397.783 309.227 397.887 308.863 398.095C308.499 398.303 308.209 398.606 307.992 399.005C307.775 399.403 307.667 399.871 307.667 400.409C307.667 400.955 307.775 401.431 307.992 401.839C308.209 402.237 308.499 402.545 308.863 402.762C309.227 402.97 309.63 403.074 310.072 403.074C310.514 403.074 310.917 402.97 311.281 402.762C311.654 402.545 311.948 402.237 312.165 401.839C312.382 401.431 312.49 400.959 312.49 400.422ZM319.156 396.743C320.023 396.743 320.725 397.007 321.262 397.536C321.799 398.056 322.068 398.81 322.068 399.798V403.997H320.898V399.967C320.898 399.256 320.72 398.714 320.365 398.342C320.01 397.96 319.524 397.77 318.909 397.77C318.285 397.77 317.787 397.965 317.414 398.355C317.05 398.745 316.868 399.312 316.868 400.058V403.997H315.685V396.873H316.868V397.887C317.102 397.523 317.418 397.241 317.817 397.042C318.224 396.842 318.671 396.743 319.156 396.743ZM325.444 397.848V402.047C325.444 402.393 325.517 402.64 325.665 402.788C325.812 402.926 326.068 402.996 326.432 402.996H327.303V403.997H326.237C325.578 403.997 325.084 403.845 324.755 403.542C324.425 403.238 324.261 402.74 324.261 402.047V397.848H323.338V396.873H324.261V395.079H325.444V396.873H327.303V397.848H325.444ZM331.258 404.114C330.712 404.114 330.222 404.023 329.789 403.841C329.356 403.65 329.013 403.39 328.762 403.061C328.511 402.723 328.372 402.337 328.346 401.904H329.568C329.603 402.259 329.767 402.549 330.062 402.775C330.365 403 330.76 403.113 331.245 403.113C331.696 403.113 332.051 403.013 332.311 402.814C332.571 402.614 332.701 402.363 332.701 402.06C332.701 401.748 332.562 401.518 332.285 401.371C332.008 401.215 331.579 401.063 330.998 400.916C330.469 400.777 330.036 400.638 329.698 400.5C329.369 400.352 329.083 400.14 328.84 399.863C328.606 399.577 328.489 399.204 328.489 398.745C328.489 398.381 328.597 398.047 328.814 397.744C329.031 397.44 329.338 397.202 329.737 397.029C330.136 396.847 330.591 396.756 331.102 396.756C331.891 396.756 332.528 396.955 333.013 397.354C333.498 397.752 333.758 398.298 333.793 398.992H332.61C332.584 398.619 332.432 398.32 332.155 398.095C331.886 397.869 331.522 397.757 331.063 397.757C330.638 397.757 330.3 397.848 330.049 398.03C329.798 398.212 329.672 398.45 329.672 398.745C329.672 398.979 329.746 399.174 329.893 399.33C330.049 399.477 330.24 399.598 330.465 399.694C330.699 399.78 331.02 399.88 331.427 399.993C331.938 400.131 332.354 400.27 332.675 400.409C332.996 400.539 333.269 400.738 333.494 401.007C333.728 401.275 333.849 401.626 333.858 402.06C333.858 402.45 333.75 402.801 333.533 403.113C333.316 403.425 333.009 403.672 332.61 403.854C332.22 404.027 331.769 404.114 331.258 404.114Z" fill="black"/>
</g>
</svg>
