<svg width="231" height="314" viewBox="0 0 231 314" fill="none" xmlns="http://www.w3.org/2000/svg">
<rect width="231" height="314" rx="15" fill="#146BFF"/>
<path d="M22.52 29.9V41H21.155V29.9H22.52ZM32.3464 36.575C32.3464 36.835 32.3314 37.11 32.3014 37.4H25.7314C25.7814 38.21 26.0564 38.845 26.5564 39.305C27.0664 39.755 27.6814 39.98 28.4014 39.98C28.9914 39.98 29.4814 39.845 29.8714 39.575C30.2714 39.295 30.5514 38.925 30.7114 38.465H32.1814C31.9614 39.255 31.5214 39.9 30.8614 40.4C30.2014 40.89 29.3814 41.135 28.4014 41.135C27.6214 41.135 26.9214 40.96 26.3014 40.61C25.6914 40.26 25.2114 39.765 24.8614 39.125C24.5114 38.475 24.3364 37.725 24.3364 36.875C24.3364 36.025 24.5064 35.28 24.8464 34.64C25.1864 34 25.6614 33.51 26.2714 33.17C26.8914 32.82 27.6014 32.645 28.4014 32.645C29.1814 32.645 29.8714 32.815 30.4714 33.155C31.0714 33.495 31.5314 33.965 31.8514 34.565C32.1814 35.155 32.3464 35.825 32.3464 36.575ZM30.9364 36.29C30.9364 35.77 30.8214 35.325 30.5914 34.955C30.3614 34.575 30.0464 34.29 29.6464 34.1C29.2564 33.9 28.8214 33.8 28.3414 33.8C27.6514 33.8 27.0614 34.02 26.5714 34.46C26.0914 34.9 25.8164 35.51 25.7464 36.29H30.9364ZM37.0582 41.135C36.4282 41.135 35.8632 41.03 35.3632 40.82C34.8632 40.6 34.4682 40.3 34.1782 39.92C33.8882 39.53 33.7282 39.085 33.6982 38.585H35.1082C35.1482 38.995 35.3382 39.33 35.6782 39.59C36.0282 39.85 36.4832 39.98 37.0432 39.98C37.5632 39.98 37.9732 39.865 38.2732 39.635C38.5732 39.405 38.7232 39.115 38.7232 38.765C38.7232 38.405 38.5632 38.14 38.2432 37.97C37.9232 37.79 37.4282 37.615 36.7582 37.445C36.1482 37.285 35.6482 37.125 35.2582 36.965C34.8782 36.795 34.5482 36.55 34.2682 36.23C33.9982 35.9 33.8632 35.47 33.8632 34.94C33.8632 34.52 33.9882 34.135 34.2382 33.785C34.4882 33.435 34.8432 33.16 35.3032 32.96C35.7632 32.75 36.2882 32.645 36.8782 32.645C37.7882 32.645 38.5232 32.875 39.0832 33.335C39.6432 33.795 39.9432 34.425 39.9832 35.225H38.6182C38.5882 34.795 38.4132 34.45 38.0932 34.19C37.7832 33.93 37.3632 33.8 36.8332 33.8C36.3432 33.8 35.9532 33.905 35.6632 34.115C35.3732 34.325 35.2282 34.6 35.2282 34.94C35.2282 35.21 35.3132 35.435 35.4832 35.615C35.6632 35.785 35.8832 35.925 36.1432 36.035C36.4132 36.135 36.7832 36.25 37.2532 36.38C37.8432 36.54 38.3232 36.7 38.6932 36.86C39.0632 37.01 39.3782 37.24 39.6382 37.55C39.9082 37.86 40.0482 38.265 40.0582 38.765C40.0582 39.215 39.9332 39.62 39.6832 39.98C39.4332 40.34 39.0782 40.625 38.6182 40.835C38.1682 41.035 37.6482 41.135 37.0582 41.135ZM44.8951 41.135C44.2651 41.135 43.7001 41.03 43.2001 40.82C42.7001 40.6 42.3051 40.3 42.0151 39.92C41.7251 39.53 41.5651 39.085 41.5351 38.585H42.9451C42.9851 38.995 43.1751 39.33 43.5151 39.59C43.8651 39.85 44.3201 39.98 44.8801 39.98C45.4001 39.98 45.8101 39.865 46.1101 39.635C46.4101 39.405 46.5601 39.115 46.5601 38.765C46.5601 38.405 46.4001 38.14 46.0801 37.97C45.7601 37.79 45.2651 37.615 44.5951 37.445C43.9851 37.285 43.4851 37.125 43.0951 36.965C42.7151 36.795 42.3851 36.55 42.1051 36.23C41.8351 35.9 41.7001 35.47 41.7001 34.94C41.7001 34.52 41.8251 34.135 42.0751 33.785C42.3251 33.435 42.6801 33.16 43.1401 32.96C43.6001 32.75 44.1251 32.645 44.7151 32.645C45.6251 32.645 46.3601 32.875 46.9201 33.335C47.4801 33.795 47.7801 34.425 47.8201 35.225H46.4551C46.4251 34.795 46.2501 34.45 45.9301 34.19C45.6201 33.93 45.2001 33.8 44.6701 33.8C44.1801 33.8 43.7901 33.905 43.5001 34.115C43.2101 34.325 43.0651 34.6 43.0651 34.94C43.0651 35.21 43.1501 35.435 43.3201 35.615C43.5001 35.785 43.7201 35.925 43.9801 36.035C44.2501 36.135 44.6201 36.25 45.0901 36.38C45.6801 36.54 46.1601 36.7 46.5301 36.86C46.9001 37.01 47.2151 37.24 47.4751 37.55C47.7451 37.86 47.8851 38.265 47.8951 38.765C47.8951 39.215 47.7701 39.62 47.5201 39.98C47.2701 40.34 46.9151 40.625 46.4551 40.835C46.0051 41.035 45.4851 41.135 44.8951 41.135ZM57.322 36.575C57.322 36.835 57.307 37.11 57.277 37.4H50.707C50.757 38.21 51.032 38.845 51.532 39.305C52.042 39.755 52.657 39.98 53.377 39.98C53.967 39.98 54.457 39.845 54.847 39.575C55.247 39.295 55.527 38.925 55.687 38.465H57.157C56.937 39.255 56.497 39.9 55.837 40.4C55.177 40.89 54.357 41.135 53.377 41.135C52.597 41.135 51.897 40.96 51.277 40.61C50.667 40.26 50.187 39.765 49.837 39.125C49.487 38.475 49.312 37.725 49.312 36.875C49.312 36.025 49.482 35.28 49.822 34.64C50.162 34 50.637 33.51 51.247 33.17C51.867 32.82 52.577 32.645 53.377 32.645C54.157 32.645 54.847 32.815 55.447 33.155C56.047 33.495 56.507 33.965 56.827 34.565C57.157 35.155 57.322 35.825 57.322 36.575ZM55.912 36.29C55.912 35.77 55.797 35.325 55.567 34.955C55.337 34.575 55.022 34.29 54.622 34.1C54.232 33.9 53.797 33.8 53.317 33.8C52.627 33.8 52.037 34.02 51.547 34.46C51.067 34.9 50.792 35.51 50.722 36.29H55.912ZM60.4888 34.115C60.7288 33.645 61.0688 33.28 61.5088 33.02C61.9588 32.76 62.5038 32.63 63.1438 32.63V34.04H62.7838C61.2538 34.04 60.4888 34.87 60.4888 36.53V41H59.1238V32.78H60.4888V34.115ZM68.2085 36.86C68.2085 36.02 68.3785 35.285 68.7185 34.655C69.0585 34.015 69.5235 33.52 70.1135 33.17C70.7135 32.82 71.3785 32.645 72.1085 32.645C72.8285 32.645 73.4535 32.8 73.9835 33.11C74.5135 33.42 74.9085 33.81 75.1685 34.28V32.78H76.5485V41H75.1685V39.47C74.8985 39.95 74.4935 40.35 73.9535 40.67C73.4235 40.98 72.8035 41.135 72.0935 41.135C71.3635 41.135 70.7035 40.955 70.1135 40.595C69.5235 40.235 69.0585 39.73 68.7185 39.08C68.3785 38.43 68.2085 37.69 68.2085 36.86ZM75.1685 36.875C75.1685 36.255 75.0435 35.715 74.7935 35.255C74.5435 34.795 74.2035 34.445 73.7735 34.205C73.3535 33.955 72.8885 33.83 72.3785 33.83C71.8685 33.83 71.4035 33.95 70.9835 34.19C70.5635 34.43 70.2285 34.78 69.9785 35.24C69.7285 35.7 69.6035 36.24 69.6035 36.86C69.6035 37.49 69.7285 38.04 69.9785 38.51C70.2285 38.97 70.5635 39.325 70.9835 39.575C71.4035 39.815 71.8685 39.935 72.3785 39.935C72.8885 39.935 73.3535 39.815 73.7735 39.575C74.2035 39.325 74.5435 38.97 74.7935 38.51C75.0435 38.04 75.1685 37.495 75.1685 36.875ZM80.2202 34.295C80.4902 33.825 80.8902 33.435 81.4202 33.125C81.9602 32.805 82.5852 32.645 83.2952 32.645C84.0252 32.645 84.6852 32.82 85.2752 33.17C85.8752 33.52 86.3452 34.015 86.6852 34.655C87.0252 35.285 87.1952 36.02 87.1952 36.86C87.1952 37.69 87.0252 38.43 86.6852 39.08C86.3452 39.73 85.8752 40.235 85.2752 40.595C84.6852 40.955 84.0252 41.135 83.2952 41.135C82.5952 41.135 81.9752 40.98 81.4352 40.67C80.9052 40.35 80.5002 39.955 80.2202 39.485V44.9H78.8552V32.78H80.2202V34.295ZM85.8002 36.86C85.8002 36.24 85.6752 35.7 85.4252 35.24C85.1752 34.78 84.8352 34.43 84.4052 34.19C83.9852 33.95 83.5202 33.83 83.0102 33.83C82.5102 33.83 82.0452 33.955 81.6152 34.205C81.1952 34.445 80.8552 34.8 80.5952 35.27C80.3452 35.73 80.2202 36.265 80.2202 36.875C80.2202 37.495 80.3452 38.04 80.5952 38.51C80.8552 38.97 81.1952 39.325 81.6152 39.575C82.0452 39.815 82.5102 39.935 83.0102 39.935C83.5202 39.935 83.9852 39.815 84.4052 39.575C84.8352 39.325 85.1752 38.97 85.4252 38.51C85.6752 38.04 85.8002 37.49 85.8002 36.86ZM90.3569 34.295C90.6269 33.825 91.0269 33.435 91.5569 33.125C92.0969 32.805 92.7219 32.645 93.4319 32.645C94.1619 32.645 94.8219 32.82 95.4119 33.17C96.0119 33.52 96.4819 34.015 96.8219 34.655C97.1619 35.285 97.3319 36.02 97.3319 36.86C97.3319 37.69 97.1619 38.43 96.8219 39.08C96.4819 39.73 96.0119 40.235 95.4119 40.595C94.8219 40.955 94.1619 41.135 93.4319 41.135C92.7319 41.135 92.1119 40.98 91.5719 40.67C91.0419 40.35 90.6369 39.955 90.3569 39.485V44.9H88.9919V32.78H90.3569V34.295ZM95.9369 36.86C95.9369 36.24 95.8119 35.7 95.5619 35.24C95.3119 34.78 94.9719 34.43 94.5419 34.19C94.1219 33.95 93.6569 33.83 93.1469 33.83C92.6469 33.83 92.1819 33.955 91.7519 34.205C91.3319 34.445 90.9919 34.8 90.7319 35.27C90.4819 35.73 90.3569 36.265 90.3569 36.875C90.3569 37.495 90.4819 38.04 90.7319 38.51C90.9919 38.97 91.3319 39.325 91.7519 39.575C92.1819 39.815 92.6469 39.935 93.1469 39.935C93.6569 39.935 94.1219 39.815 94.5419 39.575C94.9719 39.325 95.3119 38.97 95.5619 38.51C95.8119 38.04 95.9369 37.49 95.9369 36.86ZM100.494 29.9V41H99.1286V29.9H100.494ZM103.525 31.445C103.265 31.445 103.045 31.355 102.865 31.175C102.685 30.995 102.595 30.775 102.595 30.515C102.595 30.255 102.685 30.035 102.865 29.855C103.045 29.675 103.265 29.585 103.525 29.585C103.775 29.585 103.985 29.675 104.155 29.855C104.335 30.035 104.425 30.255 104.425 30.515C104.425 30.775 104.335 30.995 104.155 31.175C103.985 31.355 103.775 31.445 103.525 31.445ZM104.185 32.78V41H102.82V32.78H104.185ZM114.011 36.575C114.011 36.835 113.996 37.11 113.966 37.4H107.396C107.446 38.21 107.721 38.845 108.221 39.305C108.731 39.755 109.346 39.98 110.066 39.98C110.656 39.98 111.146 39.845 111.536 39.575C111.936 39.295 112.216 38.925 112.376 38.465H113.846C113.626 39.255 113.186 39.9 112.526 40.4C111.866 40.89 111.046 41.135 110.066 41.135C109.286 41.135 108.586 40.96 107.966 40.61C107.356 40.26 106.876 39.765 106.526 39.125C106.176 38.475 106.001 37.725 106.001 36.875C106.001 36.025 106.171 35.28 106.511 34.64C106.851 34 107.326 33.51 107.936 33.17C108.556 32.82 109.266 32.645 110.066 32.645C110.846 32.645 111.536 32.815 112.136 33.155C112.736 33.495 113.196 33.965 113.516 34.565C113.846 35.155 114.011 35.825 114.011 36.575ZM112.601 36.29C112.601 35.77 112.486 35.325 112.256 34.955C112.026 34.575 111.711 34.29 111.311 34.1C110.921 33.9 110.486 33.8 110.006 33.8C109.316 33.8 108.726 34.02 108.236 34.46C107.756 34.9 107.481 35.51 107.411 36.29H112.601ZM115.303 36.86C115.303 36.02 115.473 35.285 115.813 34.655C116.153 34.015 116.618 33.52 117.208 33.17C117.808 32.82 118.478 32.645 119.218 32.645C119.858 32.645 120.453 32.795 121.003 33.095C121.553 33.385 121.973 33.77 122.263 34.25V29.9H123.643V41H122.263V39.455C121.993 39.945 121.593 40.35 121.063 40.67C120.533 40.98 119.913 41.135 119.203 41.135C118.473 41.135 117.808 40.955 117.208 40.595C116.618 40.235 116.153 39.73 115.813 39.08C115.473 38.43 115.303 37.69 115.303 36.86ZM122.263 36.875C122.263 36.255 122.138 35.715 121.888 35.255C121.638 34.795 121.298 34.445 120.868 34.205C120.448 33.955 119.983 33.83 119.473 33.83C118.963 33.83 118.498 33.95 118.078 34.19C117.658 34.43 117.323 34.78 117.073 35.24C116.823 35.7 116.698 36.24 116.698 36.86C116.698 37.49 116.823 38.04 117.073 38.51C117.323 38.97 117.658 39.325 118.078 39.575C118.498 39.815 118.963 39.935 119.473 39.935C119.983 39.935 120.448 39.815 120.868 39.575C121.298 39.325 121.638 38.97 121.888 38.51C122.138 38.04 122.263 37.495 122.263 36.875ZM130.654 31.445C130.394 31.445 130.174 31.355 129.994 31.175C129.814 30.995 129.724 30.775 129.724 30.515C129.724 30.255 129.814 30.035 129.994 29.855C130.174 29.675 130.394 29.585 130.654 29.585C130.904 29.585 131.114 29.675 131.284 29.855C131.464 30.035 131.554 30.255 131.554 30.515C131.554 30.775 131.464 30.995 131.284 31.175C131.114 31.355 130.904 31.445 130.654 31.445ZM131.314 32.78V41H129.949V32.78H131.314ZM137.645 32.63C138.645 32.63 139.455 32.935 140.075 33.545C140.695 34.145 141.005 35.015 141.005 36.155V41H139.655V36.35C139.655 35.53 139.45 34.905 139.04 34.475C138.63 34.035 138.07 33.815 137.36 33.815C136.64 33.815 136.065 34.04 135.635 34.49C135.215 34.94 135.005 35.595 135.005 36.455V41H133.64V32.78H135.005V33.95C135.275 33.53 135.64 33.205 136.1 32.975C136.57 32.745 137.085 32.63 137.645 32.63ZM142.725 36.86C142.725 36.02 142.895 35.285 143.235 34.655C143.575 34.015 144.04 33.52 144.63 33.17C145.23 32.82 145.9 32.645 146.64 32.645C147.28 32.645 147.875 32.795 148.425 33.095C148.975 33.385 149.395 33.77 149.685 34.25V29.9H151.065V41H149.685V39.455C149.415 39.945 149.015 40.35 148.485 40.67C147.955 40.98 147.335 41.135 146.625 41.135C145.895 41.135 145.23 40.955 144.63 40.595C144.04 40.235 143.575 39.73 143.235 39.08C142.895 38.43 142.725 37.69 142.725 36.86ZM149.685 36.875C149.685 36.255 149.56 35.715 149.31 35.255C149.06 34.795 148.72 34.445 148.29 34.205C147.87 33.955 147.405 33.83 146.895 33.83C146.385 33.83 145.92 33.95 145.5 34.19C145.08 34.43 144.745 34.78 144.495 35.24C144.245 35.7 144.12 36.24 144.12 36.86C144.12 37.49 144.245 38.04 144.495 38.51C144.745 38.97 145.08 39.325 145.5 39.575C145.92 39.815 146.385 39.935 146.895 39.935C147.405 39.935 147.87 39.815 148.29 39.575C148.72 39.325 149.06 38.97 149.31 38.51C149.56 38.04 149.685 37.495 149.685 36.875ZM160.662 32.78V41H159.297V39.785C159.037 40.205 158.672 40.535 158.202 40.775C157.742 41.005 157.232 41.12 156.672 41.12C156.032 41.12 155.457 40.99 154.947 40.73C154.437 40.46 154.032 40.06 153.732 39.53C153.442 39 153.297 38.355 153.297 37.595V32.78H154.647V37.415C154.647 38.225 154.852 38.85 155.262 39.29C155.672 39.72 156.232 39.935 156.942 39.935C157.672 39.935 158.247 39.71 158.667 39.26C159.087 38.81 159.297 38.155 159.297 37.295V32.78H160.662ZM165.877 41.135C165.247 41.135 164.682 41.03 164.182 40.82C163.682 40.6 163.287 40.3 162.997 39.92C162.707 39.53 162.547 39.085 162.517 38.585H163.927C163.967 38.995 164.157 39.33 164.497 39.59C164.847 39.85 165.302 39.98 165.862 39.98C166.382 39.98 166.792 39.865 167.092 39.635C167.392 39.405 167.542 39.115 167.542 38.765C167.542 38.405 167.382 38.14 167.062 37.97C166.742 37.79 166.247 37.615 165.577 37.445C164.967 37.285 164.467 37.125 164.077 36.965C163.697 36.795 163.367 36.55 163.087 36.23C162.817 35.9 162.682 35.47 162.682 34.94C162.682 34.52 162.807 34.135 163.057 33.785C163.307 33.435 163.662 33.16 164.122 32.96C164.582 32.75 165.107 32.645 165.697 32.645C166.607 32.645 167.342 32.875 167.902 33.335C168.462 33.795 168.762 34.425 168.802 35.225H167.437C167.407 34.795 167.232 34.45 166.912 34.19C166.602 33.93 166.182 33.8 165.652 33.8C165.162 33.8 164.772 33.905 164.482 34.115C164.192 34.325 164.047 34.6 164.047 34.94C164.047 35.21 164.132 35.435 164.302 35.615C164.482 35.785 164.702 35.925 164.962 36.035C165.232 36.135 165.602 36.25 166.072 36.38C166.662 36.54 167.142 36.7 167.512 36.86C167.882 37.01 168.197 37.24 168.457 37.55C168.727 37.86 168.867 38.265 168.877 38.765C168.877 39.215 168.752 39.62 168.502 39.98C168.252 40.34 167.897 40.625 167.437 40.835C166.987 41.035 166.467 41.135 165.877 41.135ZM172.468 33.905V38.75C172.468 39.15 172.553 39.435 172.723 39.605C172.893 39.765 173.188 39.845 173.608 39.845H174.613V41H173.383C172.623 41 172.053 40.825 171.673 40.475C171.293 40.125 171.103 39.55 171.103 38.75V33.905H170.038V32.78H171.103V30.71H172.468V32.78H174.613V33.905H172.468ZM177.632 34.115C177.872 33.645 178.212 33.28 178.652 33.02C179.102 32.76 179.647 32.63 180.287 32.63V34.04H179.927C178.397 34.04 177.632 34.87 177.632 36.53V41H176.267V32.78H177.632V34.115ZM182.568 31.445C182.308 31.445 182.088 31.355 181.908 31.175C181.728 30.995 181.638 30.775 181.638 30.515C181.638 30.255 181.728 30.035 181.908 29.855C182.088 29.675 182.308 29.585 182.568 29.585C182.818 29.585 183.028 29.675 183.198 29.855C183.378 30.035 183.468 30.255 183.468 30.515C183.468 30.775 183.378 30.995 183.198 31.175C183.028 31.355 182.818 31.445 182.568 31.445ZM183.228 32.78V41H181.863V32.78H183.228ZM193.054 36.575C193.054 36.835 193.039 37.11 193.009 37.4H186.439C186.489 38.21 186.764 38.845 187.264 39.305C187.774 39.755 188.389 39.98 189.109 39.98C189.699 39.98 190.189 39.845 190.579 39.575C190.979 39.295 191.259 38.925 191.419 38.465H192.889C192.669 39.255 192.229 39.9 191.569 40.4C190.909 40.89 190.089 41.135 189.109 41.135C188.329 41.135 187.629 40.96 187.009 40.61C186.399 40.26 185.919 39.765 185.569 39.125C185.219 38.475 185.044 37.725 185.044 36.875C185.044 36.025 185.214 35.28 185.554 34.64C185.894 34 186.369 33.51 186.979 33.17C187.599 32.82 188.309 32.645 189.109 32.645C189.889 32.645 190.579 32.815 191.179 33.155C191.779 33.495 192.239 33.965 192.559 34.565C192.889 35.155 193.054 35.825 193.054 36.575ZM191.644 36.29C191.644 35.77 191.529 35.325 191.299 34.955C191.069 34.575 190.754 34.29 190.354 34.1C189.964 33.9 189.529 33.8 189.049 33.8C188.359 33.8 187.769 34.02 187.279 34.46C186.799 34.9 186.524 35.51 186.454 36.29H191.644ZM197.766 41.135C197.136 41.135 196.571 41.03 196.071 40.82C195.571 40.6 195.176 40.3 194.886 39.92C194.596 39.53 194.436 39.085 194.406 38.585H195.816C195.856 38.995 196.046 39.33 196.386 39.59C196.736 39.85 197.191 39.98 197.751 39.98C198.271 39.98 198.681 39.865 198.981 39.635C199.281 39.405 199.431 39.115 199.431 38.765C199.431 38.405 199.271 38.14 198.951 37.97C198.631 37.79 198.136 37.615 197.466 37.445C196.856 37.285 196.356 37.125 195.966 36.965C195.586 36.795 195.256 36.55 194.976 36.23C194.706 35.9 194.571 35.47 194.571 34.94C194.571 34.52 194.696 34.135 194.946 33.785C195.196 33.435 195.551 33.16 196.011 32.96C196.471 32.75 196.996 32.645 197.586 32.645C198.496 32.645 199.231 32.875 199.791 33.335C200.351 33.795 200.651 34.425 200.691 35.225H199.326C199.296 34.795 199.121 34.45 198.801 34.19C198.491 33.93 198.071 33.8 197.541 33.8C197.051 33.8 196.661 33.905 196.371 34.115C196.081 34.325 195.936 34.6 195.936 34.94C195.936 35.21 196.021 35.435 196.191 35.615C196.371 35.785 196.591 35.925 196.851 36.035C197.121 36.135 197.491 36.25 197.961 36.38C198.551 36.54 199.031 36.7 199.401 36.86C199.771 37.01 200.086 37.24 200.346 37.55C200.616 37.86 200.756 38.265 200.766 38.765C200.766 39.215 200.641 39.62 200.391 39.98C200.141 40.34 199.786 40.625 199.326 40.835C198.876 41.035 198.356 41.135 197.766 41.135Z" fill="white"/>
<rect x="20" y="63" width="187" height="105" rx="10" fill="#0057EB"/>
<path d="M122.622 118.364L113.917 128.891C113.324 129.608 113 130.509 113 131.44V148C113 150.209 114.791 152 117 152H189C191.209 152 193 150.209 193 148V115L178.358 125.443C177.416 126.115 176.23 126.346 175.106 126.077L162.511 123.068C161.051 122.719 159.518 123.218 158.542 124.359L150.519 133.738C149.011 135.501 146.324 135.616 144.671 133.987L128.512 118.064C126.841 116.417 124.117 116.555 122.622 118.364Z" fill="url(#paint0_linear_947_16)"/>
<path d="M114 130L123.284 118.485C124.782 116.627 127.563 116.485 129.241 118.182L144.764 133.871C146.424 135.549 149.168 135.432 150.68 133.62L158.355 124.417C159.333 123.244 160.894 122.731 162.378 123.094L174.469 126.057C175.617 126.338 176.83 126.097 177.783 125.4L192 115" stroke="#FFDC62" stroke-width="2" stroke-linecap="round"/>
<path d="M39.116 84.242C40.18 84.242 41.0993 84.4427 41.874 84.844C42.658 85.236 43.2553 85.8007 43.666 86.538C44.086 87.2753 44.296 88.1433 44.296 89.142C44.296 90.1407 44.086 91.0087 43.666 91.746C43.2553 92.474 42.658 93.034 41.874 93.426C41.0993 93.8087 40.18 94 39.116 94H36.078V84.242H39.116ZM39.116 92.95C40.376 92.95 41.3373 92.6187 42 91.956C42.6627 91.284 42.994 90.346 42.994 89.142C42.994 87.9287 42.658 86.9813 41.986 86.3C41.3233 85.6187 40.3667 85.278 39.116 85.278H37.352V92.95H39.116ZM45.5004 90.136C45.5004 89.352 45.6591 88.666 45.9764 88.078C46.2938 87.4807 46.7278 87.0187 47.2784 86.692C47.8384 86.3653 48.4591 86.202 49.1404 86.202C49.8124 86.202 50.3958 86.3467 50.8904 86.636C51.3851 86.9253 51.7538 87.2893 51.9964 87.728V86.328H53.2844V94H51.9964V92.572C51.7444 93.02 51.3664 93.3933 50.8624 93.692C50.3678 93.9813 49.7891 94.126 49.1264 94.126C48.4451 94.126 47.8291 93.958 47.2784 93.622C46.7278 93.286 46.2938 92.8147 45.9764 92.208C45.6591 91.6013 45.5004 90.9107 45.5004 90.136ZM51.9964 90.15C51.9964 89.5713 51.8798 89.0673 51.6464 88.638C51.4131 88.2087 51.0958 87.882 50.6944 87.658C50.3024 87.4247 49.8684 87.308 49.3924 87.308C48.9164 87.308 48.4824 87.42 48.0904 87.644C47.6984 87.868 47.3858 88.1947 47.1524 88.624C46.9191 89.0533 46.8024 89.5573 46.8024 90.136C46.8024 90.724 46.9191 91.2373 47.1524 91.676C47.3858 92.1053 47.6984 92.4367 48.0904 92.67C48.4824 92.894 48.9164 93.006 49.3924 93.006C49.8684 93.006 50.3024 92.894 50.6944 92.67C51.0958 92.4367 51.4131 92.1053 51.6464 91.676C51.8798 91.2373 51.9964 90.7287 51.9964 90.15ZM62.0454 86.328L57.4254 97.612H56.1094L57.6214 93.916L54.5274 86.328H55.9414L58.3494 92.544L60.7294 86.328H62.0454ZM62.85 90.15C62.85 89.3567 63.0087 88.666 63.326 88.078C63.6434 87.4807 64.082 87.0187 64.642 86.692C65.2114 86.3653 65.86 86.202 66.588 86.202C67.5307 86.202 68.3054 86.4307 68.912 86.888C69.528 87.3453 69.934 87.98 70.13 88.792H68.758C68.6274 88.3253 68.3707 87.9567 67.988 87.686C67.6147 87.4153 67.148 87.28 66.588 87.28C65.86 87.28 65.272 87.532 64.824 88.036C64.376 88.5307 64.152 89.2353 64.152 90.15C64.152 91.074 64.376 91.788 64.824 92.292C65.272 92.796 65.86 93.048 66.588 93.048C67.148 93.048 67.6147 92.9173 67.988 92.656C68.3614 92.3947 68.618 92.0213 68.758 91.536H70.13C69.9247 92.32 69.514 92.95 68.898 93.426C68.282 93.8927 67.512 94.126 66.588 94.126C65.86 94.126 65.2114 93.9627 64.642 93.636C64.082 93.3093 63.6434 92.8473 63.326 92.25C63.0087 91.6527 62.85 90.9527 62.85 90.15ZM71.354 90.136C71.354 89.352 71.5126 88.666 71.83 88.078C72.1473 87.4807 72.5813 87.0187 73.132 86.692C73.692 86.3653 74.3126 86.202 74.994 86.202C75.666 86.202 76.2493 86.3467 76.744 86.636C77.2386 86.9253 77.6073 87.2893 77.85 87.728V86.328H79.138V94H77.85V92.572C77.598 93.02 77.22 93.3933 76.716 93.692C76.2213 93.9813 75.6426 94.126 74.98 94.126C74.2986 94.126 73.6826 93.958 73.132 93.622C72.5813 93.286 72.1473 92.8147 71.83 92.208C71.5126 91.6013 71.354 90.9107 71.354 90.136ZM77.85 90.15C77.85 89.5713 77.7333 89.0673 77.5 88.638C77.2666 88.2087 76.9493 87.882 76.548 87.658C76.156 87.4247 75.722 87.308 75.246 87.308C74.77 87.308 74.336 87.42 73.944 87.644C73.552 87.868 73.2393 88.1947 73.006 88.624C72.7726 89.0533 72.656 89.5573 72.656 90.136C72.656 90.724 72.7726 91.2373 73.006 91.676C73.2393 92.1053 73.552 92.4367 73.944 92.67C74.336 92.894 74.77 93.006 75.246 93.006C75.722 93.006 76.156 92.894 76.548 92.67C76.9493 92.4367 77.2666 92.1053 77.5 91.676C77.7333 91.2373 77.85 90.7287 77.85 90.15ZM82.5649 87.574C82.7889 87.1353 83.1062 86.7947 83.5169 86.552C83.9369 86.3093 84.4456 86.188 85.0429 86.188V87.504H84.7069C83.2789 87.504 82.5649 88.2787 82.5649 89.828V94H81.2909V86.328H82.5649V87.574ZM93.5135 89.87C93.5135 90.1127 93.4995 90.3693 93.4715 90.64H87.3395C87.3862 91.396 87.6429 91.9887 88.1095 92.418C88.5855 92.838 89.1595 93.048 89.8315 93.048C90.3822 93.048 90.8395 92.922 91.2035 92.67C91.5769 92.4087 91.8382 92.0633 91.9875 91.634H93.3595C93.1542 92.3713 92.7435 92.9733 92.1275 93.44C91.5115 93.8973 90.7462 94.126 89.8315 94.126C89.1035 94.126 88.4502 93.9627 87.8715 93.636C87.3022 93.3093 86.8542 92.8473 86.5275 92.25C86.2009 91.6433 86.0375 90.9433 86.0375 90.15C86.0375 89.3567 86.1962 88.6613 86.5135 88.064C86.8309 87.4667 87.2742 87.0093 87.8435 86.692C88.4222 86.3653 89.0849 86.202 89.8315 86.202C90.5595 86.202 91.2035 86.3607 91.7635 86.678C92.3235 86.9953 92.7529 87.434 93.0515 87.994C93.3595 88.5447 93.5135 89.17 93.5135 89.87ZM92.1975 89.604C92.1975 89.1187 92.0902 88.7033 91.8755 88.358C91.6609 88.0033 91.3669 87.7373 90.9935 87.56C90.6295 87.3733 90.2235 87.28 89.7755 87.28C89.1315 87.28 88.5809 87.4853 88.1235 87.896C87.6755 88.3067 87.4189 88.876 87.3535 89.604H92.1975ZM97.9112 94.126C97.3232 94.126 96.7959 94.028 96.3292 93.832C95.8625 93.6267 95.4939 93.3467 95.2232 92.992C94.9525 92.628 94.8032 92.2127 94.7752 91.746H96.0912C96.1285 92.1287 96.3059 92.4413 96.6232 92.684C96.9499 92.9267 97.3745 93.048 97.8972 93.048C98.3825 93.048 98.7652 92.9407 99.0452 92.726C99.3252 92.5113 99.4652 92.2407 99.4652 91.914C99.4652 91.578 99.3159 91.3307 99.0172 91.172C98.7185 91.004 98.2565 90.8407 97.6312 90.682C97.0619 90.5327 96.5952 90.3833 96.2312 90.234C95.8765 90.0753 95.5685 89.8467 95.3072 89.548C95.0552 89.24 94.9292 88.8387 94.9292 88.344C94.9292 87.952 95.0459 87.5927 95.2792 87.266C95.5125 86.9393 95.8439 86.6827 96.2732 86.496C96.7025 86.3 97.1925 86.202 97.7432 86.202C98.5925 86.202 99.2785 86.4167 99.8012 86.846C100.324 87.2753 100.604 87.8633 100.641 88.61H99.3672C99.3392 88.2087 99.1759 87.8867 98.8772 87.644C98.5879 87.4013 98.1959 87.28 97.7012 87.28C97.2439 87.28 96.8799 87.378 96.6092 87.574C96.3385 87.77 96.2032 88.0267 96.2032 88.344C96.2032 88.596 96.2825 88.806 96.4412 88.974C96.6092 89.1327 96.8145 89.2633 97.0572 89.366C97.3092 89.4593 97.6545 89.5667 98.0932 89.688C98.6439 89.8373 99.0919 89.9867 99.4372 90.136C99.7825 90.276 100.077 90.4907 100.319 90.78C100.571 91.0693 100.702 91.4473 100.711 91.914C100.711 92.334 100.595 92.712 100.361 93.048C100.128 93.384 99.7965 93.65 99.3672 93.846C98.9472 94.0327 98.4619 94.126 97.9112 94.126Z" fill="white"/>
<path d="M36.081 143.734V141.204L43.602 130.44H47.351V140.928H49.375V143.734H47.351V147H44.131V143.734H36.081ZM44.338 133.89L39.623 140.928H44.338V133.89ZM62.6951 133.016H55.2431V136.949C55.5651 136.55 56.0251 136.228 56.6231 135.983C57.2211 135.722 57.8574 135.592 58.5321 135.592C59.7587 135.592 60.7631 135.86 61.5451 136.397C62.3271 136.934 62.8944 137.624 63.2471 138.467C63.5997 139.295 63.7761 140.184 63.7761 141.135C63.7761 142.898 63.2701 144.317 62.2581 145.39C61.2614 146.463 59.8354 147 57.9801 147C56.2321 147 54.8367 146.563 53.7941 145.689C52.7514 144.815 52.1611 143.673 52.0231 142.262H55.1511C55.2891 142.875 55.5957 143.366 56.0711 143.734C56.5617 144.102 57.1827 144.286 57.9341 144.286C58.8387 144.286 59.5211 144.002 59.9811 143.435C60.4411 142.868 60.6711 142.116 60.6711 141.181C60.6711 140.23 60.4334 139.51 59.9581 139.019C59.4981 138.513 58.8157 138.26 57.9111 138.26C57.2671 138.26 56.7304 138.421 56.3011 138.743C55.8717 139.065 55.5651 139.494 55.3811 140.031H52.2991V130.187H62.6951V133.016Z" fill="white"/>
<path d="M173.396 86.4V84.981H176.047V93H174.463V86.4H173.396ZM182.958 86.312H179.394V88.193C179.548 88.0023 179.768 87.8483 180.054 87.731C180.34 87.6063 180.645 87.544 180.967 87.544C181.554 87.544 182.034 87.6723 182.408 87.929C182.782 88.1857 183.054 88.5157 183.222 88.919C183.391 89.315 183.475 89.7403 183.475 90.195C183.475 91.0383 183.233 91.7167 182.749 92.23C182.273 92.7433 181.591 93 180.703 93C179.867 93 179.2 92.791 178.701 92.373C178.203 91.955 177.92 91.4087 177.854 90.734H179.35C179.416 91.0273 179.563 91.262 179.79 91.438C180.025 91.614 180.322 91.702 180.681 91.702C181.114 91.702 181.44 91.5663 181.66 91.295C181.88 91.0237 181.99 90.6643 181.99 90.217C181.99 89.7623 181.877 89.4177 181.649 89.183C181.429 88.941 181.103 88.82 180.67 88.82C180.362 88.82 180.106 88.897 179.9 89.051C179.695 89.205 179.548 89.4103 179.46 89.667H177.986V84.959H182.958V86.312ZM184.471 86.95C184.471 86.3927 184.633 85.9563 184.955 85.641C185.285 85.3257 185.707 85.168 186.22 85.168C186.734 85.168 187.152 85.3257 187.474 85.641C187.804 85.9563 187.969 86.3927 187.969 86.95C187.969 87.5147 187.804 87.9547 187.474 88.27C187.152 88.5853 186.734 88.743 186.22 88.743C185.707 88.743 185.285 88.5853 184.955 88.27C184.633 87.9547 184.471 87.5147 184.471 86.95ZM191.533 85.3L187.21 93H185.714L190.026 85.3H191.533ZM186.209 86.092C185.806 86.092 185.604 86.378 185.604 86.95C185.604 87.5293 185.806 87.819 186.209 87.819C186.407 87.819 186.561 87.7493 186.671 87.61C186.781 87.4633 186.836 87.2433 186.836 86.95C186.836 86.378 186.627 86.092 186.209 86.092ZM189.3 91.339C189.3 90.7743 189.462 90.338 189.784 90.03C190.114 89.7147 190.536 89.557 191.049 89.557C191.563 89.557 191.977 89.7147 192.292 90.03C192.615 90.338 192.776 90.7743 192.776 91.339C192.776 91.9037 192.615 92.3437 192.292 92.659C191.977 92.9743 191.563 93.132 191.049 93.132C190.529 93.132 190.107 92.9743 189.784 92.659C189.462 92.3437 189.3 91.9037 189.3 91.339ZM191.038 90.481C190.62 90.481 190.411 90.767 190.411 91.339C190.411 91.9183 190.62 92.208 191.038 92.208C191.449 92.208 191.654 91.9183 191.654 91.339C191.654 90.767 191.449 90.481 191.038 90.481Z" fill="#FF6F31"/>
<path d="M162.501 93.0333C162.519 93.3088 162.758 93.5173 163.033 93.4989L167.523 93.1996C167.799 93.1812 168.007 92.9429 167.989 92.6674C167.971 92.3919 167.732 92.1834 167.457 92.2018L163.466 92.4678L163.2 88.4767C163.181 88.2012 162.943 87.9927 162.667 88.0111C162.392 88.0294 162.183 88.2677 162.202 88.5432L162.501 93.0333ZM169.624 84.6707L162.624 92.6707L163.376 93.3293L170.376 85.3293L169.624 84.6707Z" fill="#FF6F31"/>
<rect x="20" y="181" width="187" height="105" rx="10" fill="#0057EB"/>
<path d="M173.396 204.4V202.981H176.047V211H174.463V204.4H173.396ZM177.568 206.886C177.568 205.617 177.796 204.624 178.25 203.905C178.712 203.186 179.475 202.827 180.538 202.827C181.602 202.827 182.361 203.186 182.815 203.905C183.277 204.624 183.508 205.617 183.508 206.886C183.508 208.162 183.277 209.163 182.815 209.889C182.361 210.615 181.602 210.978 180.538 210.978C179.475 210.978 178.712 210.615 178.25 209.889C177.796 209.163 177.568 208.162 177.568 206.886ZM181.99 206.886C181.99 206.343 181.954 205.889 181.88 205.522C181.814 205.148 181.675 204.844 181.462 204.609C181.257 204.374 180.949 204.257 180.538 204.257C180.128 204.257 179.816 204.374 179.603 204.609C179.398 204.844 179.259 205.148 179.185 205.522C179.119 205.889 179.086 206.343 179.086 206.886C179.086 207.443 179.119 207.913 179.185 208.294C179.251 208.668 179.391 208.972 179.603 209.207C179.816 209.434 180.128 209.548 180.538 209.548C180.949 209.548 181.261 209.434 181.473 209.207C181.686 208.972 181.825 208.668 181.891 208.294C181.957 207.913 181.99 207.443 181.99 206.886ZM184.504 204.95C184.504 204.393 184.665 203.956 184.988 203.641C185.318 203.326 185.739 203.168 186.253 203.168C186.766 203.168 187.184 203.326 187.507 203.641C187.837 203.956 188.002 204.393 188.002 204.95C188.002 205.515 187.837 205.955 187.507 206.27C187.184 206.585 186.766 206.743 186.253 206.743C185.739 206.743 185.318 206.585 184.988 206.27C184.665 205.955 184.504 205.515 184.504 204.95ZM191.566 203.3L187.243 211H185.747L190.059 203.3H191.566ZM186.242 204.092C185.838 204.092 185.637 204.378 185.637 204.95C185.637 205.529 185.838 205.819 186.242 205.819C186.44 205.819 186.594 205.749 186.704 205.61C186.814 205.463 186.869 205.243 186.869 204.95C186.869 204.378 186.66 204.092 186.242 204.092ZM189.333 209.339C189.333 208.774 189.494 208.338 189.817 208.03C190.147 207.715 190.568 207.557 191.082 207.557C191.595 207.557 192.009 207.715 192.325 208.03C192.647 208.338 192.809 208.774 192.809 209.339C192.809 209.904 192.647 210.344 192.325 210.659C192.009 210.974 191.595 211.132 191.082 211.132C190.561 211.132 190.139 210.974 189.817 210.659C189.494 210.344 189.333 209.904 189.333 209.339ZM191.071 208.481C190.653 208.481 190.444 208.767 190.444 209.339C190.444 209.918 190.653 210.208 191.071 210.208C191.481 210.208 191.687 209.918 191.687 209.339C191.687 208.767 191.481 208.481 191.071 208.481Z" fill="#30EF00"/>
<path d="M170.499 202.967C170.481 202.691 170.242 202.483 169.967 202.501L165.477 202.8C165.201 202.819 164.993 203.057 165.011 203.333C165.029 203.608 165.268 203.817 165.543 203.798L169.534 203.532L169.8 207.523C169.819 207.799 170.057 208.007 170.333 207.989C170.608 207.971 170.817 207.732 170.798 207.457L170.499 202.967ZM169.624 202.671L162.624 210.671L163.376 211.329L170.376 203.329L169.624 202.671Z" fill="#30EF00"/>
<path d="M38.822 202.939C39.81 202.939 40.6637 203.125 41.383 203.498C42.111 203.862 42.6657 204.386 43.047 205.071C43.437 205.756 43.632 206.562 43.632 207.489C43.632 208.416 43.437 209.222 43.047 209.907C42.6657 210.583 42.111 211.103 41.383 211.467C40.6637 211.822 39.81 212 38.822 212H36.001V202.939H38.822ZM38.822 211.025C39.992 211.025 40.8847 210.717 41.5 210.102C42.1153 209.478 42.423 208.607 42.423 207.489C42.423 206.362 42.111 205.483 41.487 204.85C40.8717 204.217 39.9833 203.901 38.822 203.901H37.184V211.025H38.822ZM51.5104 204.876V212H50.3274V210.947C50.1021 211.311 49.7857 211.597 49.3784 211.805C48.9797 212.004 48.5377 212.104 48.0524 212.104C47.4977 212.104 46.9994 211.991 46.5574 211.766C46.1154 211.532 45.7644 211.185 45.5044 210.726C45.2531 210.267 45.1274 209.708 45.1274 209.049V204.876H46.2974V208.893C46.2974 209.595 46.4751 210.137 46.8304 210.518C47.1857 210.891 47.6711 211.077 48.2864 211.077C48.9191 211.077 49.4174 210.882 49.7814 210.492C50.1454 210.102 50.3274 209.534 50.3274 208.789V204.876H51.5104ZM62.0748 204.746C62.6295 204.746 63.1235 204.863 63.5568 205.097C63.9902 205.322 64.3325 205.665 64.5838 206.124C64.8352 206.583 64.9608 207.142 64.9608 207.801V212H63.7908V207.97C63.7908 207.259 63.6132 206.718 63.2578 206.345C62.9112 205.964 62.4388 205.773 61.8408 205.773C61.2255 205.773 60.7358 205.972 60.3718 206.371C60.0078 206.761 59.8258 207.329 59.8258 208.074V212H58.6558V207.97C58.6558 207.259 58.4782 206.718 58.1228 206.345C57.7762 205.964 57.3038 205.773 56.7058 205.773C56.0905 205.773 55.6008 205.972 55.2368 206.371C54.8728 206.761 54.6908 207.329 54.6908 208.074V212H53.5078V204.876H54.6908V205.903C54.9248 205.53 55.2368 205.244 55.6268 205.045C56.0255 204.846 56.4632 204.746 56.9398 204.746C57.5378 204.746 58.0665 204.88 58.5258 205.149C58.9852 205.418 59.3275 205.812 59.5528 206.332C59.7522 205.829 60.0815 205.439 60.5408 205.162C61.0002 204.885 61.5115 204.746 62.0748 204.746ZM68.0844 206.189C68.3184 205.782 68.6651 205.444 69.1244 205.175C69.5924 204.898 70.1341 204.759 70.7494 204.759C71.3821 204.759 71.9541 204.911 72.4654 205.214C72.9854 205.517 73.3927 205.946 73.6874 206.501C73.9821 207.047 74.1294 207.684 74.1294 208.412C74.1294 209.131 73.9821 209.773 73.6874 210.336C73.3927 210.899 72.9854 211.337 72.4654 211.649C71.9541 211.961 71.3821 212.117 70.7494 212.117C70.1427 212.117 69.6054 211.983 69.1374 211.714C68.6781 211.437 68.3271 211.094 68.0844 210.687V215.38H66.9014V204.876H68.0844V206.189ZM72.9204 208.412C72.9204 207.875 72.8121 207.407 72.5954 207.008C72.3787 206.609 72.0841 206.306 71.7114 206.098C71.3474 205.89 70.9444 205.786 70.5024 205.786C70.0691 205.786 69.6661 205.894 69.2934 206.111C68.9294 206.319 68.6347 206.627 68.4094 207.034C68.1927 207.433 68.0844 207.896 68.0844 208.425C68.0844 208.962 68.1927 209.435 68.4094 209.842C68.6347 210.241 68.9294 210.548 69.2934 210.765C69.6661 210.973 70.0691 211.077 70.5024 211.077C70.9444 211.077 71.3474 210.973 71.7114 210.765C72.0841 210.548 72.3787 210.241 72.5954 209.842C72.8121 209.435 72.9204 208.958 72.9204 208.412ZM84.7294 202.939V203.901H82.2594V212H81.0764V203.901H78.5934V202.939H84.7294ZM87.3686 206.033C87.5766 205.626 87.8712 205.309 88.2526 205.084C88.6426 204.859 89.1149 204.746 89.6696 204.746V205.968H89.3576C88.0316 205.968 87.3686 206.687 87.3686 208.126V212H86.1856V204.876H87.3686V206.033ZM97.3532 204.876V212H96.1702V210.947C95.9448 211.311 95.6285 211.597 95.2212 211.805C94.8225 212.004 94.3805 212.104 93.8952 212.104C93.3405 212.104 92.8422 211.991 92.4002 211.766C91.9582 211.532 91.6072 211.185 91.3472 210.726C91.0958 210.267 90.9702 209.708 90.9702 209.049V204.876H92.1402V208.893C92.1402 209.595 92.3178 210.137 92.6732 210.518C93.0285 210.891 93.5138 211.077 94.1292 211.077C94.7618 211.077 95.2602 210.882 95.6242 210.492C95.9882 210.102 96.1702 209.534 96.1702 208.789V204.876H97.3532ZM98.9086 208.425C98.9086 207.688 99.0559 207.047 99.3506 206.501C99.6453 205.946 100.053 205.517 100.573 205.214C101.101 204.911 101.704 204.759 102.38 204.759C103.255 204.759 103.974 204.971 104.538 205.396C105.11 205.821 105.487 206.41 105.669 207.164H104.395C104.273 206.731 104.035 206.388 103.68 206.137C103.333 205.886 102.9 205.76 102.38 205.76C101.704 205.76 101.158 205.994 100.742 206.462C100.326 206.921 100.118 207.576 100.118 208.425C100.118 209.283 100.326 209.946 100.742 210.414C101.158 210.882 101.704 211.116 102.38 211.116C102.9 211.116 103.333 210.995 103.68 210.752C104.026 210.509 104.265 210.163 104.395 209.712H105.669C105.478 210.44 105.097 211.025 104.525 211.467C103.953 211.9 103.238 212.117 102.38 212.117C101.704 212.117 101.101 211.965 100.573 211.662C100.053 211.359 99.6453 210.93 99.3506 210.375C99.0559 209.82 98.9086 209.17 98.9086 208.425ZM111.225 212L108.43 208.854V212H107.247V202.38H108.43V208.035L111.173 204.876H112.824L109.47 208.425L112.837 212H111.225ZM116.46 212.117C115.914 212.117 115.424 212.026 114.991 211.844C114.557 211.653 114.215 211.393 113.964 211.064C113.712 210.726 113.574 210.34 113.548 209.907H114.77C114.804 210.262 114.969 210.553 115.264 210.778C115.567 211.003 115.961 211.116 116.447 211.116C116.897 211.116 117.253 211.016 117.513 210.817C117.773 210.618 117.903 210.366 117.903 210.063C117.903 209.751 117.764 209.521 117.487 209.374C117.209 209.218 116.78 209.066 116.2 208.919C115.671 208.78 115.238 208.642 114.9 208.503C114.57 208.356 114.284 208.143 114.042 207.866C113.808 207.58 113.691 207.207 113.691 206.748C113.691 206.384 113.799 206.05 114.016 205.747C114.232 205.444 114.54 205.205 114.939 205.032C115.337 204.85 115.792 204.759 116.304 204.759C117.092 204.759 117.729 204.958 118.215 205.357C118.7 205.756 118.96 206.302 118.995 206.995H117.812C117.786 206.622 117.634 206.323 117.357 206.098C117.088 205.873 116.724 205.76 116.265 205.76C115.84 205.76 115.502 205.851 115.251 206.033C114.999 206.215 114.874 206.453 114.874 206.748C114.874 206.982 114.947 207.177 115.095 207.333C115.251 207.48 115.441 207.602 115.667 207.697C115.901 207.784 116.221 207.883 116.629 207.996C117.14 208.135 117.556 208.273 117.877 208.412C118.197 208.542 118.47 208.741 118.696 209.01C118.93 209.279 119.051 209.63 119.06 210.063C119.06 210.453 118.951 210.804 118.735 211.116C118.518 211.428 118.21 211.675 117.812 211.857C117.422 212.03 116.971 212.117 116.46 212.117Z" fill="white"/>
<path d="M37.231 261.366C38.703 260.139 39.876 259.12 40.75 258.307C41.624 257.479 42.3523 256.62 42.935 255.731C43.5177 254.842 43.809 253.968 43.809 253.109C43.809 252.327 43.625 251.714 43.257 251.269C42.889 250.824 42.3217 250.602 41.555 250.602C40.7883 250.602 40.198 250.863 39.784 251.384C39.37 251.89 39.1553 252.588 39.14 253.477H36.012C36.0733 251.637 36.6177 250.242 37.645 249.291C38.6877 248.34 40.0063 247.865 41.601 247.865C43.349 247.865 44.6907 248.333 45.626 249.268C46.5613 250.188 47.029 251.407 47.029 252.925C47.029 254.121 46.707 255.263 46.063 256.352C45.419 257.441 44.683 258.391 43.855 259.204C43.027 260.001 41.946 260.967 40.612 262.102H47.397V264.77H36.035V262.378L37.231 261.366ZM49.472 252.649C49.5487 251.116 50.0854 249.935 51.082 249.107C52.094 248.264 53.4204 247.842 55.061 247.842C56.1804 247.842 57.1387 248.041 57.936 248.44C58.7334 248.823 59.3314 249.352 59.73 250.027C60.144 250.686 60.351 251.438 60.351 252.281C60.351 253.247 60.098 254.067 59.592 254.742C59.1014 255.401 58.511 255.846 57.821 256.076V256.168C58.7104 256.444 59.4004 256.935 59.891 257.64C60.397 258.345 60.65 259.25 60.65 260.354C60.65 261.274 60.4354 262.094 60.006 262.815C59.592 263.536 58.971 264.103 58.143 264.517C57.3304 264.916 56.349 265.115 55.199 265.115C53.4664 265.115 52.0557 264.678 50.967 263.804C49.8784 262.93 49.3034 261.642 49.242 259.94H52.37C52.4007 260.691 52.6537 261.297 53.129 261.757C53.6197 262.202 54.2867 262.424 55.13 262.424C55.912 262.424 56.51 262.209 56.924 261.78C57.3534 261.335 57.568 260.768 57.568 260.078C57.568 259.158 57.2767 258.499 56.694 258.1C56.1114 257.701 55.2067 257.502 53.98 257.502H53.313V254.857H53.98C56.1574 254.857 57.246 254.129 57.246 252.672C57.246 252.013 57.0467 251.499 56.648 251.131C56.2647 250.763 55.705 250.579 54.969 250.579C54.2484 250.579 53.6887 250.778 53.29 251.177C52.9067 251.56 52.6844 252.051 52.623 252.649H49.472Z" fill="white"/>
<path d="M130.039 247.094L114 243.299V259C114 261.209 115.791 263 118 263H188C190.209 263 192 261.209 192 259V226L184.876 236.041C183.846 237.494 181.979 238.09 180.297 237.504L173.136 235.008C171.667 234.496 170.034 234.883 168.95 235.999L164.298 240.791C162.904 242.227 160.662 242.412 159.052 241.223L149.737 234.345C148.114 233.146 145.853 233.344 144.462 234.806L133.859 245.958C132.879 246.989 131.424 247.422 130.039 247.094Z" fill="url(#paint1_linear_947_16)"/>
<path d="M114 244L129.969 247.932C131.391 248.282 132.89 247.827 133.878 246.746L144.418 235.211C145.82 233.678 148.161 233.472 149.808 234.738L158.981 241.786C160.616 243.041 162.937 242.85 164.343 241.342L168.924 236.433C170.018 235.261 171.705 234.855 173.212 235.401L180.217 237.941C181.935 238.564 183.856 237.944 184.886 236.434L192 226" stroke="#40FFDD" stroke-width="2"/>
<defs>
<linearGradient id="paint0_linear_947_16" x1="161.718" y1="115" x2="161.718" y2="149.5" gradientUnits="userSpaceOnUse">
<stop stop-color="#FFDC62"/>
<stop offset="1" stop-color="#D9D9D9" stop-opacity="0"/>
<stop offset="1" stop-color="#F4F3F3" stop-opacity="0.25"/>
</linearGradient>
<linearGradient id="paint1_linear_947_16" x1="161.72" y1="229.5" x2="161.72" y2="263" gradientUnits="userSpaceOnUse">
<stop stop-color="#40FFDD"/>
<stop offset="1" stop-color="#D9D9D9" stop-opacity="0"/>
<stop offset="1" stop-color="white"/>
</linearGradient>
</defs>
</svg>
