<svg width="150" height="63" viewBox="0 0 150 63" fill="none" xmlns="http://www.w3.org/2000/svg">
<path fill-rule="evenodd" clip-rule="evenodd" d="M146.055 62.2475H3.62712C1.90166 62.2475 0.501221 60.8447 0.501221 59.1164V3.53008C0.501221 1.80053 1.90166 0.398926 3.62712 0.398926H146.055C147.782 0.398926 149.181 1.80053 149.181 3.53008V59.1164C149.181 60.8447 147.782 62.2475 146.055 62.2475Z" fill="#ECF3FF"/>
<path fill-rule="evenodd" clip-rule="evenodd" d="M31.391 19.947C31.391 23.7808 28.2878 26.8892 24.4593 26.8892C20.632 26.8892 17.5288 23.7808 17.5288 19.947C17.5288 16.1121 20.632 13.0037 24.4593 13.0037C28.2878 13.0037 31.391 16.1121 31.391 19.947Z" fill="#82B0FF"/>
<path fill-rule="evenodd" clip-rule="evenodd" d="M38.3215 17.8368H86.6164V15.1509H38.3215V17.8368Z" fill="#82B0FF"/>
<path fill-rule="evenodd" clip-rule="evenodd" d="M38.3215 23.9398H132.269V21.2539H38.3215V23.9398Z" fill="#FFFFFE"/>
<path fill-rule="evenodd" clip-rule="evenodd" d="M31.391 41.2917C31.391 45.1255 28.2878 48.2339 24.4593 48.2339C20.632 48.2339 17.5288 45.1255 17.5288 41.2917C17.5288 37.4568 20.632 34.3484 24.4593 34.3484C28.2878 34.3484 31.391 37.4568 31.391 41.2917Z" fill="#82B0FF"/>
<path fill-rule="evenodd" clip-rule="evenodd" d="M38.3215 39.1815H62.9834V36.4956H38.3215V39.1815Z" fill="#82B0FF"/>
<path fill-rule="evenodd" clip-rule="evenodd" d="M38.3215 45.2845H132.269V42.5986H38.3215V45.2845Z" fill="#FFFFFE"/>
</svg>
