<svg width="152" height="43" viewBox="0 0 152 43" fill="none" xmlns="http://www.w3.org/2000/svg">
<path fill-rule="evenodd" clip-rule="evenodd" d="M147.937 42.8028H4.84542C2.71369 42.8028 0.98584 41.0721 0.98584 38.9368V4.31575C0.98584 2.18044 2.71369 0.448486 4.84542 0.448486H147.937C150.068 0.448486 151.796 2.18044 151.796 4.31575V38.9368C151.796 41.0721 150.068 42.8028 147.937 42.8028Z" fill="#DCE9FF"/>
<path fill-rule="evenodd" clip-rule="evenodd" d="M32.7742 28.6886C29.5993 32.6552 23.8159 33.292 19.856 30.1118C15.8972 26.9316 15.2616 21.1384 18.4364 17.1718C21.6113 13.2064 27.3947 12.5697 31.3535 15.7499C35.3134 18.9301 35.9491 24.7232 32.7742 28.6886Z" fill="#FFFFFE"/>
<path fill-rule="evenodd" clip-rule="evenodd" d="M30.7704 19.8063C30.8911 19.9296 28.6638 22.2994 25.7984 25.0979C25.3802 25.5024 24.9763 25.8938 24.5843 26.2732L24.3669 26.4827L24.1589 26.2696C21.9233 23.9847 20.3364 22.2193 20.4404 22.1151C20.5431 22.011 22.3056 23.6017 24.5867 25.8424L24.1613 25.8388C24.5497 25.4557 24.95 25.0608 25.3634 24.6526C28.23 21.8542 30.6509 19.683 30.7704 19.8063Z" fill="#146BFF"/>
<path fill-rule="evenodd" clip-rule="evenodd" d="M137.077 18.5221C137.077 18.6945 117.906 18.8345 94.2632 18.8345C70.6122 18.8345 51.4458 18.6945 51.4458 18.5221C51.4458 18.351 70.6122 18.2109 94.2632 18.2109C117.906 18.2109 137.077 18.351 137.077 18.5221Z" fill="#146BFF"/>
<path fill-rule="evenodd" clip-rule="evenodd" d="M101.955 26.8981C101.955 27.0717 90.871 27.2105 77.2036 27.2105C63.5302 27.2105 52.4497 27.0717 52.4497 26.8981C52.4497 26.727 63.5302 26.5881 77.2036 26.5881C90.871 26.5881 101.955 26.727 101.955 26.8981Z" fill="#146BFF"/>
</svg>
