<svg width="201" height="194" viewBox="0 0 201 194" fill="none" xmlns="http://www.w3.org/2000/svg">
<path fill-rule="evenodd" clip-rule="evenodd" d="M190.28 193.042H10.3595C4.80913 193.042 0.309082 188.535 0.309082 182.976V10.204C0.309082 4.64313 4.80913 0.136719 10.3595 0.136719H190.28C195.831 0.136719 200.33 4.64313 200.33 10.204V182.976C200.33 188.535 195.831 193.042 190.28 193.042Z" fill="#DCE9FF"/>
<path fill-rule="evenodd" clip-rule="evenodd" d="M14.2871 134.183H20.8532V132.288H14.2871V134.183Z" fill="#146BFF"/>
<path fill-rule="evenodd" clip-rule="evenodd" d="M29.1387 144.313H37.5341V142.419H29.1387V144.313Z" fill="#146BFF"/>
<path fill-rule="evenodd" clip-rule="evenodd" d="M58.3638 144.313H66.758V142.419H58.3638V144.313Z" fill="#146BFF"/>
<path fill-rule="evenodd" clip-rule="evenodd" d="M87.5879 144.313H95.9822V142.419H87.5879V144.313Z" fill="#146BFF"/>
<path fill-rule="evenodd" clip-rule="evenodd" d="M116.813 144.313H125.208V142.419H116.813V144.313Z" fill="#146BFF"/>
<path fill-rule="evenodd" clip-rule="evenodd" d="M146.037 144.313H154.431V142.419H146.037V144.313Z" fill="#146BFF"/>
<path fill-rule="evenodd" clip-rule="evenodd" d="M175.261 144.313H183.656V142.419H175.261V144.313Z" fill="#146BFF"/>
<path fill-rule="evenodd" clip-rule="evenodd" d="M14.2871 108.875H20.8532V106.98H14.2871V108.875Z" fill="#146BFF"/>
<path fill-rule="evenodd" clip-rule="evenodd" d="M14.2871 61.2446H20.8532V59.3499H14.2871V61.2446Z" fill="#146BFF"/>
<path fill-rule="evenodd" clip-rule="evenodd" d="M14.2871 37.3073H20.8532V35.4126H14.2871V37.3073Z" fill="#146BFF"/>
<path fill-rule="evenodd" clip-rule="evenodd" d="M14.6206 85.0598H21.1855V83.165H14.6206V85.0598Z" fill="#146BFF"/>
<path fill-rule="evenodd" clip-rule="evenodd" d="M183.422 134.183C183.422 134.183 183.183 134.205 182.718 134.215C182.229 134.222 181.543 134.233 180.652 134.246C178.812 134.26 176.139 134.278 172.708 134.305C165.787 134.327 155.812 134.361 143.496 134.404C118.809 134.427 84.7419 134.459 47.1164 134.495C39.2933 134.494 31.6231 134.491 24.2768 134.49H23.9697V134.183C24.0115 101.9 24.0486 73.4926 24.0749 53.1282C24.1143 42.9735 24.1454 34.826 24.1669 29.1921C24.1908 26.4057 24.2075 24.2416 24.2194 22.7491C24.2326 22.0321 24.2421 21.4791 24.2481 21.0817C24.2577 20.7059 24.2768 20.5144 24.2768 20.5144C24.2768 20.5144 24.2959 20.7059 24.3055 21.0817C24.3114 21.4791 24.321 22.0321 24.333 22.7491C24.3449 24.2416 24.3628 26.4057 24.3855 29.1921C24.4083 34.826 24.4393 42.9735 24.4788 53.1282C24.505 73.4926 24.5421 101.9 24.5839 134.183L24.2768 133.875C31.6231 133.874 39.2933 133.873 47.1164 133.871C84.7419 133.907 118.809 133.94 143.496 133.962C155.812 134.005 165.787 134.038 172.708 134.062C176.139 134.087 178.812 134.107 180.652 134.12C181.543 134.134 182.229 134.144 182.718 134.151C183.183 134.161 183.422 134.183 183.422 134.183Z" fill="#146BFF"/>
<path fill-rule="evenodd" clip-rule="evenodd" d="M185.27 84.1117C185.27 84.2853 150.649 84.4241 107.952 84.4241C65.2408 84.4241 30.6265 84.2853 30.6265 84.1117C30.6265 83.9394 65.2408 83.8005 107.952 83.8005C150.649 83.8005 185.27 83.9394 185.27 84.1117Z" fill="#146BFF"/>
<path fill-rule="evenodd" clip-rule="evenodd" d="M185.27 60.2965C185.27 60.4689 150.649 60.6078 107.952 60.6078C65.2408 60.6078 30.6265 60.4689 30.6265 60.2965C30.6265 60.1242 65.2408 59.9854 107.952 59.9854C150.649 59.9854 185.27 60.1242 185.27 60.2965Z" fill="#146BFF"/>
<path fill-rule="evenodd" clip-rule="evenodd" d="M185.27 36.3605C185.27 36.5316 150.649 36.6717 107.952 36.6717C65.2408 36.6717 30.6265 36.5316 30.6265 36.3605C30.6265 36.1881 65.2408 36.0481 107.952 36.0481C150.649 36.0481 185.27 36.1881 185.27 36.3605Z" fill="#146BFF"/>
<path fill-rule="evenodd" clip-rule="evenodd" d="M32.2202 129.059C32.2202 125.07 32.2202 107.927 32.2202 107.927L45.3679 87.4822L54.2903 94.3394L72.6036 65.8454L83.4032 73.465L98.4293 47.1782L110.638 57.1414L128.951 22.2703L148.673 61.2445L164.638 41.7442L183.421 36.3604V129.059H32.2202Z" fill="#82B0FF"/>
<path fill-rule="evenodd" clip-rule="evenodd" d="M185.27 28.8581C185.27 28.8653 185.159 28.8737 184.939 28.8808C184.695 28.8868 184.374 28.8952 183.96 28.9048C183.069 28.9155 181.795 28.9299 180.148 28.9491C176.785 28.9682 171.908 28.9957 165.735 29.0304L165.871 28.9634C161.674 34.4621 156.445 41.3085 150.43 49.1842L150.355 49.28H150.234C139.011 49.2956 125.86 49.3147 111.565 49.3339L111.822 49.189C106.732 57.6752 101.242 66.8317 95.5651 76.3005C90.0266 85.5204 84.665 94.4459 79.6022 102.873L79.3692 103.262L79.1027 102.895C71.4648 92.3728 64.4005 82.643 58.1582 74.0455L58.5764 74.0312C50.6219 86.4457 44.0582 96.6889 39.4674 103.851C37.1779 107.394 35.3796 110.175 34.1392 112.096C33.531 113.021 33.0602 113.738 32.7256 114.247C32.403 114.73 32.2202 114.968 32.2202 114.968C32.2202 114.968 32.3588 114.703 32.6599 114.206C32.9802 113.688 33.4307 112.956 34.0114 112.014C35.2242 110.076 36.9831 107.271 39.2236 103.695C43.7703 96.5046 50.2694 86.2218 58.1486 73.7595L58.3482 73.4435L58.5693 73.7451C64.833 82.3282 71.9213 92.0401 79.5878 102.542L79.0884 102.565C84.1452 94.1323 89.4997 85.2032 95.0309 75.9786C100.715 66.5157 106.213 57.3628 111.308 48.879L111.396 48.7342H111.565C125.86 48.7546 139.011 48.7725 150.234 48.7881L150.039 48.8838C156.099 41.0428 161.368 34.2251 165.599 28.7516L165.652 28.6833H165.735C171.908 28.7193 176.785 28.7468 180.148 28.7659C181.795 28.7851 183.069 28.7994 183.96 28.8102C184.374 28.821 184.695 28.8282 184.939 28.833C185.159 28.8413 185.27 28.8497 185.27 28.8581Z" fill="#146BFF"/>
<path fill-rule="evenodd" clip-rule="evenodd" d="M48.3266 167.738C48.3266 172.849 44.0321 176.992 38.7326 176.992C33.4332 176.992 29.1387 172.849 29.1387 167.738C29.1387 162.629 33.4332 158.486 38.7326 158.486C44.0321 158.486 48.3266 162.629 48.3266 167.738Z" fill="#FFFFFE"/>
<path fill-rule="evenodd" clip-rule="evenodd" d="M62.5605 165.004H175.261V161.541H62.5605V165.004Z" fill="#FFFFFE"/>
<path fill-rule="evenodd" clip-rule="evenodd" d="M62.5605 173.654H109.356V170.19H62.5605V173.654Z" fill="#FFFFFE"/>
</svg>
