<svg width="193" height="82" viewBox="0 0 193 82" fill="none" xmlns="http://www.w3.org/2000/svg">
<path fill-rule="evenodd" clip-rule="evenodd" d="M187.801 81.7243H5.43165C2.82076 81.7243 0.703369 79.6021 0.703369 76.9868V4.78844C0.703369 2.17077 2.82076 0.0510254 5.43165 0.0510254H187.801C190.413 0.0510254 192.529 2.17077 192.529 4.78844V76.9868C192.529 79.6021 190.413 81.7243 187.801 81.7243Z" fill="#ECF3FF"/>
<path fill-rule="evenodd" clip-rule="evenodd" d="M35.7968 39.5197L35.6892 22.9531C30.8188 22.9819 25.8527 24.9101 22.0445 28.2818C17.5588 32.2532 14.6862 38.2235 15.4689 45.4385C15.5549 46.2285 15.6804 47.0292 15.856 47.8455L15.8668 47.9042H15.8692L35.7968 43.4121V39.5197Z" fill="#82B0FF"/>
<mask id="mask0_904_6" style="mask-type:luminance" maskUnits="userSpaceOnUse" x="37" y="23" width="22" height="25">
<path d="M58.0019 47.8405L57.9781 47.8346L38.0433 43.479L37.9106 23.0188V23.0164L37.9608 23.0176H37.9632L38.0182 23.0188C38.4245 23.0211 38.8248 23.0331 39.2191 23.0535C39.3541 23.0618 39.4855 23.075 39.6206 23.0846C39.8321 23.1001 40.0424 23.1193 40.2515 23.1408C48.0638 23.9248 53.5497 28.5928 56.335 34.4182C57.7092 37.2909 58.4285 40.4412 58.4453 43.5448C58.4453 43.5795 58.4453 43.613 58.4453 43.6477C58.4453 45.0661 58.2995 46.4749 58.0019 47.8405Z" fill="#C8444D"/>
</mask>
<g mask="url(#mask0_904_6)">
<path fill-rule="evenodd" clip-rule="evenodd" d="M37.9106 47.8405H58.4453V23.0164H37.9106V47.8405Z" fill="#3882FF"/>
</g>
<path fill-rule="evenodd" clip-rule="evenodd" d="M36.8651 65.9416C27.1241 65.9416 18.9808 59.1108 16.9363 49.9723L36.8651 45.4802L36.8902 45.4814L56.8238 49.837C54.8294 59.045 46.6538 65.9416 36.8651 65.9416Z" fill="#B0CDFF"/>
<path fill-rule="evenodd" clip-rule="evenodd" d="M71.7959 32.502H173.046V27.907H71.7959V32.502Z" fill="#FFFFFE"/>
<path fill-rule="evenodd" clip-rule="evenodd" d="M71.7959 44.615H173.046V40.02H71.7959V44.615Z" fill="#FFFFFE"/>
<path fill-rule="evenodd" clip-rule="evenodd" d="M71.7959 58.0086H126.518V53.4148H71.7959V58.0086Z" fill="#FFFFFE"/>
</svg>
