<svg width="134" height="111" viewBox="0 0 134 111" fill="none" xmlns="http://www.w3.org/2000/svg">
<path fill-rule="evenodd" clip-rule="evenodd" d="M127.85 110.634H6.84196C3.58462 110.634 0.943848 107.988 0.943848 104.726V6.20926C0.943848 2.94525 3.58462 0.300049 6.84196 0.300049H127.85C131.107 0.300049 133.749 2.94525 133.749 6.20926V104.726C133.749 107.988 131.107 110.634 127.85 110.634Z" fill="#DCE9FF"/>
<path fill-rule="evenodd" clip-rule="evenodd" d="M24.1191 98.6141H31.2791V44.4761H24.1191V98.6141Z" fill="#82B0FF"/>
<path fill-rule="evenodd" clip-rule="evenodd" d="M56.6582 98.614H63.8181V40.0833H56.6582V98.614Z" fill="#82B0FF"/>
<path fill-rule="evenodd" clip-rule="evenodd" d="M90.3618 98.614H97.5218V32.6504H90.3618V98.614Z" fill="#82B0FF"/>
<path fill-rule="evenodd" clip-rule="evenodd" d="M74.5303 98.614H81.6902V72.2542H74.5303V98.614Z" fill="#3882FF"/>
<path fill-rule="evenodd" clip-rule="evenodd" d="M32.4634 98.6141H39.6245V38.6758H32.4634V98.6141Z" fill="#B0CDFF"/>
<path fill-rule="evenodd" clip-rule="evenodd" d="M65.585 98.6139H72.7449V26.1187H65.585V98.6139Z" fill="#B0CDFF"/>
<path fill-rule="evenodd" clip-rule="evenodd" d="M108.827 98.6139H115.985V26.1187H108.827V98.6139Z" fill="#82B0FF"/>
<path fill-rule="evenodd" clip-rule="evenodd" d="M115.985 97.8215C113.501 95.9268 110.907 95.2649 108.827 95.1021V26.1187H115.985V97.8215Z" fill="#3882FF"/>
<path fill-rule="evenodd" clip-rule="evenodd" d="M99.4824 98.6141H106.642V11.8025H99.4824V98.6141Z" fill="#82B0FF"/>
<path fill-rule="evenodd" clip-rule="evenodd" d="M99.4824 95.4734V11.8025H106.642V95.0988C105.404 95.1921 104.635 95.4147 104.635 95.4147C102.651 95.4207 100.951 95.4291 99.4824 95.4734Z" fill="#B0CDFF"/>
<path fill-rule="evenodd" clip-rule="evenodd" d="M41.2222 98.6141H48.3821V60.5735H41.2222V98.6141Z" fill="#3882FF"/>
<path fill-rule="evenodd" clip-rule="evenodd" d="M126.227 101.898C126.227 102.071 100.681 102.211 69.1773 102.211C37.6602 102.211 12.1201 102.071 12.1201 101.898C12.1201 101.727 37.6602 101.587 69.1773 101.587C100.681 101.587 126.227 101.727 126.227 101.898Z" fill="#146BFF"/>
<path fill-rule="evenodd" clip-rule="evenodd" d="M8.8042 90.4272H13.1728V88.9849H8.8042V90.4272Z" fill="#146BFF"/>
<path fill-rule="evenodd" clip-rule="evenodd" d="M8.8042 71.1613H13.1728V69.719H8.8042V71.1613Z" fill="#146BFF"/>
<path fill-rule="evenodd" clip-rule="evenodd" d="M8.8042 34.9018H13.1728V33.4595H8.8042V34.9018Z" fill="#146BFF"/>
<path fill-rule="evenodd" clip-rule="evenodd" d="M8.8042 16.6811H13.1728V15.2388H8.8042V16.6811Z" fill="#146BFF"/>
<path fill-rule="evenodd" clip-rule="evenodd" d="M9.0249 53.0316H13.3935V51.5894H9.0249V53.0316Z" fill="#146BFF"/>
</svg>
