<svg width="18" height="18" viewBox="0 0 18 18" fill="none" xmlns="http://www.w3.org/2000/svg">
<path d="M2.18038 0C0.975889 0 0 0.97813 0 2.18487C0 3.39161 0.975889 4.36974 2.18038 4.36974C3.38487 4.36974 4.36076 3.39161 4.36076 2.18487C4.36076 0.97813 3.38487 0 2.18038 0ZM13.6004 5.68865V5.69013C13.3541 5.68926 13.1151 5.69911 12.8025 5.71529C12.1169 5.75079 10.5157 6.49368 9.92939 7.67961C9.92939 7.16473 9.93531 6.69186 9.93531 5.98618C9.23304 5.98618 8.31399 5.99062 6.3946 5.99062C6.3946 8.14545 6.37092 15.7765 6.37092 18H10.0878C10.0878 16.6809 10.1055 13.3677 10.1055 11.287C10.1055 10.5884 10.5279 8.97483 12.2608 8.97483C13.8343 8.97483 14.2754 10.3011 14.2754 11.287C14.2754 13.4539 14.2591 16.5169 14.2591 18H17.9981C17.9981 16.5503 18.0114 12.6124 17.967 10.128C17.9132 7.11136 16.0808 5.82428 14.4367 5.72269C14.0984 5.7018 13.8466 5.68955 13.6004 5.68865ZM0.313809 6.03799V17.9941H4.04103V6.03799H0.313809Z" fill="#02A7E9"/>
</svg>
