<svg width="122" height="94" viewBox="0 0 122 94" fill="none" xmlns="http://www.w3.org/2000/svg">
<path fill-rule="evenodd" clip-rule="evenodd" d="M1.05322 93.3508H121.387V0.82251H1.05322V93.3508Z" fill="#07377E"/>
<path fill-rule="evenodd" clip-rule="evenodd" d="M1.68696 92.7298H120.751V1.44406H1.68696V92.7298ZM0.44043 93.9499H121.998V0.223877H0.44043V93.9499Z" fill="#07B8FF"/>
<path fill-rule="evenodd" clip-rule="evenodd" d="M115.289 70.6905H93.4952C93.4952 53.1089 78.9481 38.8537 61.0061 38.8537C43.0582 38.8537 28.5159 53.1089 28.5159 70.6905H6.72314C6.72314 41.3135 31.0253 17.4998 61.0061 17.4998C90.982 17.4998 115.289 41.3135 115.289 70.6905Z" fill="#0FBBFF"/>
<path fill-rule="evenodd" clip-rule="evenodd" d="M89.1139 54.706L107.995 44.0307C103.23 35.9652 96.362 29.2401 88.1256 24.5736L77.2241 43.0628C82.1532 45.856 86.2616 49.8791 89.1139 54.706Z" fill="#02ABEE"/>
<path fill-rule="evenodd" clip-rule="evenodd" d="M28.5347 70.2823C28.5958 64.6114 30.1776 59.297 32.9028 54.7059L32.9106 54.7107C30.1855 59.3008 28.5958 64.6114 28.5347 70.2823Z" fill="#DCE9FF"/>
<path fill-rule="evenodd" clip-rule="evenodd" d="M28.4961 70.6907H6.72314C6.72314 70.6734 6.72314 70.6561 6.72314 70.6388C6.72314 70.635 6.72314 70.6283 6.72314 70.6244C6.72314 70.611 6.72314 70.5985 6.72314 70.585C6.72314 70.5812 6.72314 70.5754 6.72314 70.5716C6.72314 70.5552 6.72314 70.5399 6.72314 70.5235C6.72314 70.5216 6.72314 70.5207 6.72314 70.5197C6.72314 70.5014 6.72314 70.4851 6.72314 70.4669C6.72314 70.4621 6.72314 70.4601 6.72314 70.4553C6.72314 70.4419 6.72314 70.4284 6.72314 70.415C6.72314 70.4102 6.72314 70.4054 6.72314 70.3996C6.72412 70.3862 6.72412 70.3708 6.72412 70.3573C6.72412 70.3535 6.72412 70.3516 6.72412 70.3487C6.72412 70.3314 6.72412 70.3141 6.72412 70.2978C6.72412 70.292 6.72412 70.2891 6.72412 70.2843C6.72412 70.2709 6.72412 70.2565 6.7251 70.243C6.7251 70.2392 6.7251 70.2353 6.7251 70.2315C6.7251 70.2161 6.7251 70.2007 6.7251 70.1844C6.7251 70.1825 6.7251 70.1806 6.7251 70.1786C6.7251 70.1614 6.72608 70.1421 6.72608 70.1248C6.72608 70.1229 6.72608 70.12 6.72608 70.1181C6.72608 70.1037 6.72608 70.0874 6.72608 70.073C6.72608 70.0691 6.72608 70.0643 6.72608 70.0614C6.72706 70.0451 6.72706 70.0288 6.72706 70.0134C6.72706 70.0115 6.72706 70.0105 6.72706 70.0086C6.72706 69.9903 6.72804 69.9721 6.72804 69.9538C6.72804 69.9519 6.72804 69.9529 6.72804 69.951C6.72804 69.9337 6.72804 69.9183 6.72902 69.901C6.72902 69.8972 6.72902 69.8962 6.72902 69.8933C6.72902 69.876 6.72902 69.8597 6.73 69.8424V69.8395C6.73 69.8021 6.73098 69.7665 6.73098 69.729C6.73196 69.7271 6.73196 69.7262 6.73196 69.7242C6.73196 69.706 6.73196 69.6887 6.73294 69.6704C6.91125 60.364 9.52804 51.6436 13.9818 44.0953L32.8401 54.7717C30.1312 59.363 28.5588 64.6776 28.498 70.3487C28.498 70.3516 28.498 70.3535 28.498 70.3554C28.4971 70.3727 28.4971 70.39 28.4971 70.4073C28.4971 70.4111 28.4971 70.4169 28.4971 70.4217C28.4971 70.4304 28.4971 70.4371 28.4971 70.4457C28.4971 70.4544 28.4971 70.463 28.4971 70.4717C28.4971 70.4784 28.4961 70.4842 28.4961 70.4909C28.4961 70.5034 28.4961 70.5159 28.4961 70.5284C28.4961 70.5332 28.4961 70.5389 28.4961 70.5447C28.4961 70.5572 28.4961 70.5706 28.4961 70.5831C28.4961 70.5841 28.4961 70.587 28.4961 70.5879C28.4961 70.6033 28.4961 70.6177 28.4961 70.6321C28.4961 70.6369 28.4961 70.6408 28.4961 70.6456C28.4961 70.66 28.4961 70.6753 28.4961 70.6907Z" fill="#BAEBFF"/>
<path fill-rule="evenodd" clip-rule="evenodd" d="M115.289 70.6907H93.5162C93.5172 69.8366 93.4829 68.9902 93.4153 68.1535C93.0254 63.3067 91.5285 58.7654 89.1724 54.7727L108.029 44.0953C112.492 51.659 115.111 60.3986 115.28 69.7252C115.28 69.7271 115.28 69.7271 115.28 69.729C115.281 69.7655 115.282 69.803 115.282 69.8395V69.8414C115.282 69.8578 115.283 69.876 115.283 69.8924C115.283 69.8962 115.283 69.8972 115.283 69.901C115.284 69.9375 115.284 69.9731 115.285 70.0096V70.0105C115.285 70.0278 115.285 70.0451 115.285 70.0614C115.285 70.0653 115.285 70.0682 115.285 70.072C115.286 70.0874 115.286 70.1028 115.286 70.1181C115.286 70.122 115.286 70.122 115.286 70.1258C115.286 70.1441 115.286 70.1614 115.287 70.1796V70.1825C115.287 70.1979 115.287 70.2142 115.287 70.2296C115.287 70.2353 115.287 70.2392 115.287 70.2449C115.287 70.2574 115.287 70.2709 115.287 70.2843C115.287 70.2901 115.288 70.292 115.288 70.2968C115.288 70.3324 115.288 70.3669 115.288 70.4015C115.288 70.4073 115.288 70.4083 115.288 70.414C115.288 70.4275 115.288 70.44 115.288 70.4534C115.289 70.4592 115.289 70.463 115.289 70.4688C115.289 70.4851 115.289 70.5024 115.289 70.5197C115.289 70.5216 115.289 70.5197 115.289 70.5216C115.289 70.538 115.289 70.5543 115.289 70.5697C115.289 70.5754 115.289 70.5812 115.289 70.586C115.289 70.5994 115.289 70.611 115.289 70.6244C115.289 70.6283 115.289 70.6359 115.289 70.6388C115.289 70.6561 115.289 70.6734 115.289 70.6907Z" fill="#0099D7"/>
<path fill-rule="evenodd" clip-rule="evenodd" d="M32.9175 54.7739L32.9097 54.7691C35.7572 49.9499 39.8606 45.9309 44.7824 43.1427L44.7873 43.1504C39.8655 45.9386 35.765 49.9547 32.9175 54.7739Z" fill="#DCE9FF"/>
<path fill-rule="evenodd" clip-rule="evenodd" d="M32.8233 54.706L13.9468 44.0341C18.7137 35.9676 25.5822 29.2407 33.8196 24.5736L44.7175 43.0575C39.7868 45.851 35.676 49.8776 32.8233 54.706Z" fill="#7EDAFF"/>
<path fill-rule="evenodd" clip-rule="evenodd" d="M44.793 43.1431L44.7881 43.1354C49.4751 40.4668 54.9028 38.9177 60.6944 38.8579C54.9028 38.9177 49.48 40.4755 44.793 43.1431Z" fill="#DCE9FF"/>
<path fill-rule="evenodd" clip-rule="evenodd" d="M44.7854 43.0748L33.8828 24.6087C41.6529 20.2119 50.6404 17.6427 60.2303 17.5055H60.2323C60.2882 17.5046 60.3451 17.5046 60.401 17.5036C60.404 17.5036 60.4049 17.5036 60.4089 17.5036C60.4265 17.5036 60.4432 17.5026 60.4609 17.5026C60.4628 17.5026 60.4609 17.5026 60.4628 17.5026C60.4824 17.5026 60.5001 17.5026 60.5197 17.5026H60.5217C60.5393 17.5017 60.557 17.5017 60.5737 17.5017C60.5756 17.5017 60.5805 17.5017 60.5825 17.5017C60.5972 17.5017 60.6129 17.5017 60.6276 17.5017C60.6306 17.5017 60.6365 17.5017 60.6394 17.5017C60.6571 17.5017 60.6747 17.5007 60.6924 17.5007C60.6953 17.5007 60.6963 17.5007 60.7002 17.5007C60.715 17.5007 60.7307 17.5007 60.7454 17.5007C60.7503 17.5007 60.7552 17.5007 60.7601 17.5007C60.7738 17.5007 60.7876 17.5007 60.8013 17.5007C60.8062 17.5007 60.8082 17.5007 60.8131 17.5007C60.8317 17.5007 60.8484 17.5007 60.867 17.4998C60.868 17.4998 60.869 17.4998 60.8709 17.4998C60.8876 17.4998 60.9033 17.4998 60.92 17.4998C60.9239 17.4998 60.9298 17.4998 60.9337 17.4998C60.9465 17.4998 60.9602 17.4998 60.974 17.4998C60.9779 17.4998 60.9847 17.4998 60.9887 17.4998C61.0063 17.4998 61.024 17.4998 61.0416 17.4998V38.821C61.026 38.821 61.0103 38.821 60.9955 38.821C60.9906 38.821 60.9867 38.821 60.9818 38.821C60.9671 38.821 60.9524 38.821 60.9367 38.821C60.9357 38.821 60.9327 38.821 60.9318 38.821C60.919 38.8219 60.9053 38.8219 60.8925 38.8219C60.8866 38.8219 60.8808 38.8219 60.8758 38.8219C60.8631 38.8219 60.8513 38.8219 60.8386 38.8219C60.8317 38.8219 60.8239 38.8219 60.817 38.8219C60.8091 38.8219 60.8003 38.8219 60.7915 38.8219C60.7826 38.8219 60.7748 38.8219 60.7669 38.8219C60.762 38.8229 60.7571 38.8229 60.7522 38.8229C60.7336 38.8229 60.7169 38.8229 60.6983 38.8229C60.6963 38.8229 60.6944 38.8229 60.6934 38.8229C54.9012 38.8824 49.4729 40.4222 44.7854 43.0748Z" fill="#42C9FF"/>
<path fill-rule="evenodd" clip-rule="evenodd" d="M77.2203 43.1431C72.4573 40.4348 66.9356 38.8724 61.041 38.8579C66.9356 38.8724 72.4622 40.4271 77.2252 43.1354L77.2203 43.1431Z" fill="#DCE9FF"/>
<path fill-rule="evenodd" clip-rule="evenodd" d="M77.2241 43.0067L77.229 42.9991L88.1293 24.5736L77.2241 43.0067Z" fill="#5D83B5"/>
<path fill-rule="evenodd" clip-rule="evenodd" d="M60.9712 67.9499L88.89 38.0415L91.4641 40.2462L65.159 72.0509L60.9712 67.9499Z" fill="#146BFF"/>
<path fill-rule="evenodd" clip-rule="evenodd" d="M65.972 72.1192C65.972 74.8234 63.7326 77.0165 60.9713 77.0165C58.2091 77.0165 55.9697 74.8234 55.9697 72.1192C55.9697 69.4139 58.2091 67.2218 60.9713 67.2218C63.7326 67.2218 65.972 69.4139 65.972 72.1192Z" fill="#146BFF"/>
</svg>
