<svg width="404" height="346" viewBox="0 0 404 346" fill="none" xmlns="http://www.w3.org/2000/svg">
<path fill-rule="evenodd" clip-rule="evenodd" d="M355.697 33.2382C355.697 44.7044 346.199 53.9996 334.486 53.9996C322.771 53.9996 313.274 44.7044 313.274 33.2382C313.274 21.7719 322.771 12.4767 334.486 12.4767C346.199 12.4767 355.697 21.7719 355.697 33.2382Z" fill="#CAF0FF"/>
<path fill-rule="evenodd" clip-rule="evenodd" d="M336.674 42.5401V45.4156H332.937V42.6689C330.286 42.5127 327.715 41.8145 326.125 40.8546L328.138 36.399C329.889 37.4095 332.219 38.0571 334.26 38.0571C336.039 38.0571 336.674 37.6943 336.674 37.0721C336.674 34.7916 326.417 36.631 326.417 29.8698C326.417 26.9414 328.591 24.4796 332.937 23.8847V21.0608H336.674V23.8319C338.635 24.0133 340.543 24.5069 342.053 25.336L340.173 29.7664C338.342 28.8591 336.621 28.4183 335.003 28.4183C333.175 28.4183 332.592 28.9371 332.592 29.5595C332.592 31.7347 342.849 29.9224 342.849 36.6056C342.849 39.4032 340.78 41.8399 336.674 42.5401Z" fill="#0E4FB0"/>
<path fill-rule="evenodd" clip-rule="evenodd" d="M310.521 61.4857C310.521 68.4317 304.767 74.0625 297.671 74.0625C290.576 74.0625 284.822 68.4317 284.822 61.4857C284.822 54.5398 290.576 48.9092 297.671 48.9092C304.767 48.9092 310.521 54.5398 310.521 61.4857Z" fill="#CAF0FF"/>
<path fill-rule="evenodd" clip-rule="evenodd" d="M298.942 67.1281V68.8722H296.684V67.2062C295.083 67.1115 293.533 66.6877 292.573 66.1056L293.787 63.4029C294.844 64.0159 296.253 64.4088 297.484 64.4088C298.558 64.4088 298.942 64.1887 298.942 63.8112C298.942 62.428 292.748 63.5439 292.748 59.4426C292.748 57.6666 294.061 56.1732 296.684 55.8124V54.0996H298.942V55.7803C300.124 55.8905 301.278 56.1898 302.19 56.6929L301.054 59.3799C299.949 58.8296 298.91 58.5623 297.933 58.5623C296.828 58.5623 296.477 58.8771 296.477 59.2546C296.477 60.5737 302.669 59.4746 302.669 63.5285C302.669 65.2251 301.423 66.7031 298.942 67.1281Z" fill="#0E4FB0"/>
<path fill-rule="evenodd" clip-rule="evenodd" d="M341.828 69.4709C341.828 74.8181 337.399 79.153 331.935 79.153C326.473 79.153 322.044 74.8181 322.044 69.4709C322.044 64.1238 326.473 59.7889 331.935 59.7889C337.399 59.7889 341.828 64.1238 341.828 69.4709Z" fill="#CAF0FF"/>
<path fill-rule="evenodd" clip-rule="evenodd" d="M332.95 73.8174V75.1606H331.217V73.8775C329.989 73.8044 328.799 73.4782 328.061 73.0298L328.995 70.9481C329.806 71.4202 330.884 71.7227 331.832 71.7227C332.655 71.7227 332.95 71.5531 332.95 71.2623C332.95 70.1969 328.197 71.0566 328.197 67.8975C328.197 66.5293 329.204 65.3791 331.217 65.101V63.7817H332.95V65.0764C333.857 65.1612 334.742 65.3918 335.444 65.7791L334.571 67.8491C333.723 67.4254 332.925 67.2192 332.176 67.2192C331.328 67.2192 331.058 67.4618 331.058 67.7526C331.058 68.7686 335.811 67.9219 335.811 71.0446C335.811 72.3517 334.854 73.4902 332.95 73.8174Z" fill="#0E4FB0"/>
<path fill-rule="evenodd" clip-rule="evenodd" d="M290.635 37.4305H292.063V27.2494H290.635V37.4305Z" fill="#07B8FF"/>
<path fill-rule="evenodd" clip-rule="evenodd" d="M286.149 33.0388H296.551V31.6414H286.149V33.0388Z" fill="#07B8FF"/>
<path fill-rule="evenodd" clip-rule="evenodd" d="M302.873 15.2717H305.014V0H302.873V15.2717Z" fill="#07B8FF"/>
<path fill-rule="evenodd" clip-rule="evenodd" d="M296.142 8.68442H311.744V6.58789H296.142V8.68442Z" fill="#07B8FF"/>
<path fill-rule="evenodd" clip-rule="evenodd" d="M352.23 89.7333H353.862V78.1548H352.23V89.7333Z" fill="#07B8FF"/>
<path fill-rule="evenodd" clip-rule="evenodd" d="M347.131 84.7432H358.961V83.1459H347.131V84.7432Z" fill="#07B8FF"/>
<path fill-rule="evenodd" clip-rule="evenodd" d="M157.708 57.094C147.092 57.094 138.486 48.6702 138.486 38.2791C138.486 27.8877 147.092 19.4639 157.708 19.4639C168.325 19.4639 176.931 27.8877 176.931 38.2791C176.931 48.6702 168.325 57.094 157.708 57.094Z" fill="#0B479F"/>
<path fill-rule="evenodd" clip-rule="evenodd" d="M203.649 286.568C191.709 286.568 182.029 277.074 182.029 265.365C182.029 263.838 182.193 262.35 182.506 260.916H224.792C225.103 262.35 225.268 263.838 225.268 265.365C225.268 277.074 215.59 286.568 203.649 286.568Z" fill="#0B479F"/>
<path fill-rule="evenodd" clip-rule="evenodd" d="M165.566 215.759C164.539 215.711 163.498 215.698 162.476 215.725L162.459 215.115C163.497 215.088 164.554 215.1 165.596 215.149L165.566 215.759ZM156.331 216.336L156.222 215.735C157.244 215.557 158.289 215.413 159.329 215.31L159.392 215.916C158.368 216.018 157.338 216.16 156.331 216.336ZM171.694 216.504C170.692 216.306 169.666 216.143 168.645 216.018L168.721 215.413C169.758 215.537 170.8 215.703 171.818 215.906L171.694 216.504ZM150.352 217.847L150.151 217.271C151.137 216.941 152.148 216.643 153.157 216.389L153.313 216.98C152.319 217.232 151.323 217.522 150.352 217.847ZM177.637 218.148C176.673 217.803 175.684 217.488 174.698 217.215L174.867 216.629C175.869 216.905 176.873 217.225 177.852 217.576L177.637 218.148ZM144.681 220.228L144.393 219.686C145.317 219.215 146.27 218.773 147.225 218.37L147.471 218.931C146.53 219.327 145.592 219.764 144.681 220.228ZM183.262 220.66C182.361 220.174 181.432 219.715 180.498 219.3L180.757 218.743C181.704 219.166 182.648 219.632 183.562 220.125L183.262 220.66ZM139.438 223.422L139.07 222.929C139.91 222.326 140.785 221.749 141.669 221.21L141.998 221.727C141.127 222.26 140.266 222.829 139.438 223.422ZM188.433 223.971C187.62 223.361 186.771 222.77 185.912 222.221L186.253 221.71C187.125 222.269 187.987 222.868 188.813 223.488L188.433 223.971ZM134.742 227.351L134.303 226.919C135.042 226.198 135.819 225.497 136.61 224.836L137.015 225.3C136.235 225.952 135.47 226.643 134.742 227.351ZM193.038 228.008C192.326 227.282 191.578 226.574 190.813 225.905L191.229 225.451C192.005 226.13 192.765 226.848 193.487 227.585L193.038 228.008ZM130.699 231.927L130.198 231.563C130.819 230.745 131.48 229.937 132.162 229.165L132.633 229.566C131.961 230.325 131.31 231.121 130.699 231.927ZM196.972 232.672C196.379 231.849 195.748 231.04 195.095 230.266L195.575 229.878C196.238 230.664 196.88 231.485 197.48 232.318L196.972 232.672ZM127.401 237.047L126.851 236.762C127.339 235.861 127.869 234.964 128.424 234.1L128.951 234.427C128.404 235.277 127.882 236.159 127.401 237.047ZM200.147 237.858C199.689 236.962 199.188 236.071 198.659 235.206L199.195 234.894C199.731 235.768 200.237 236.674 200.703 237.585L200.147 237.858ZM124.931 242.6L124.343 242.397C124.686 241.433 125.071 240.468 125.488 239.533L126.059 239.777C125.648 240.7 125.269 241.648 124.931 242.6ZM202.482 243.457C202.168 242.5 201.812 241.543 201.423 240.612L201.999 240.38C202.395 241.328 202.757 242.297 203.076 243.269L202.482 243.457ZM123.351 248.448L122.738 248.336C122.928 247.332 123.159 246.324 123.425 245.337L124.027 245.494C123.765 246.466 123.538 247.459 123.351 248.448ZM203.928 249.34C203.766 248.346 203.559 247.347 203.32 246.37L203.926 246.229C204.17 247.22 204.377 248.233 204.544 249.242L203.928 249.34ZM122.69 254.463L122.067 254.443C122.101 253.422 122.174 252.389 122.285 251.378L122.905 251.444C122.795 252.441 122.723 253.456 122.69 254.463ZM204.451 255.368C204.441 254.36 204.392 253.342 204.304 252.343L204.925 252.292C205.015 253.305 205.065 254.338 205.075 255.361L204.451 255.368ZM204.96 258.846L204.339 258.802C204.414 257.801 204.454 256.782 204.454 255.776H205.077C205.077 256.799 205.037 257.832 204.96 258.846ZM122.332 260.582C122.211 259.568 122.127 258.538 122.083 257.517L122.706 257.493C122.749 258.496 122.831 259.512 122.951 260.509L122.332 260.582ZM204.023 264.918L203.415 264.784C203.644 263.805 203.838 262.804 203.993 261.81L204.608 261.9C204.454 262.911 204.255 263.927 204.023 264.918ZM123.535 266.611C123.258 265.627 123.016 264.618 122.817 263.617L123.428 263.5C123.625 264.486 123.863 265.478 124.135 266.447L123.535 266.611ZM202.156 270.789L201.578 270.562C201.957 269.629 202.303 268.667 202.61 267.705L203.205 267.888C202.894 268.862 202.542 269.839 202.156 270.789ZM125.655 272.388C125.229 271.458 124.835 270.498 124.483 269.541L125.069 269.333C125.416 270.278 125.804 271.221 126.223 272.139L125.655 272.388ZM199.404 276.312L198.866 276.004C199.385 275.135 199.878 274.237 200.327 273.333L200.887 273.602C200.429 274.52 199.93 275.431 199.404 276.312ZM128.642 277.785C128.077 276.925 127.54 276.036 127.044 275.142L127.592 274.849C128.08 275.731 128.61 276.608 129.166 277.455L128.642 277.785ZM195.832 281.364L195.348 280.981C195.996 280.197 196.621 279.381 197.204 278.556L197.715 278.905C197.124 279.743 196.488 280.571 195.832 281.364ZM132.426 282.683C131.737 281.916 131.068 281.115 130.44 280.302L130.937 279.933C131.556 280.734 132.214 281.523 132.893 282.277L132.426 282.683ZM191.529 285.835L191.109 285.383C191.867 284.707 192.608 283.992 193.313 283.262L193.766 283.679C193.051 284.421 192.298 285.147 191.529 285.835ZM136.917 286.968C136.119 286.314 135.335 285.62 134.589 284.907L135.024 284.47C135.759 285.171 136.531 285.855 137.317 286.502L136.917 286.968ZM186.593 289.62L186.247 289.112C187.101 288.553 187.943 287.957 188.75 287.337L189.134 287.818C188.315 288.448 187.46 289.054 186.593 289.62ZM142.015 290.55C141.126 290.021 140.245 289.449 139.397 288.853L139.76 288.358C140.596 288.944 141.463 289.505 142.339 290.028L142.015 290.55ZM181.134 292.636L180.87 292.084C181.799 291.657 182.723 291.193 183.616 290.699L183.922 291.229C183.015 291.73 182.077 292.204 181.134 292.636ZM147.608 293.339C146.646 292.946 145.686 292.511 144.757 292.047L145.04 291.503C145.955 291.959 146.9 292.387 147.848 292.775L147.608 293.339ZM175.272 294.809L175.097 294.223C176.081 293.94 177.067 293.615 178.026 293.261L178.247 293.832C177.273 294.191 176.272 294.521 175.272 294.809ZM153.566 295.263C152.553 295.017 151.538 294.731 150.551 294.411L150.746 293.832C151.719 294.147 152.718 294.428 153.715 294.67L153.566 295.263ZM169.14 296.086L169.057 295.48C170.074 295.346 171.099 295.173 172.101 294.963L172.231 295.561C171.213 295.773 170.173 295.949 169.14 296.086ZM159.749 296.279C158.709 296.189 157.662 296.054 156.638 295.886L156.741 295.285C157.75 295.451 158.781 295.581 159.805 295.671L159.749 296.279ZM163.561 296.45C163.334 296.45 163.107 296.447 162.881 296.445L162.891 295.835C163.917 295.849 164.959 295.827 165.981 295.771L166.017 296.379C165.205 296.425 164.379 296.45 163.561 296.45Z" fill="#07B8FF"/>
<path fill-rule="evenodd" clip-rule="evenodd" d="M125.797 4.66277L125.706 4.05881C126.739 3.90983 127.796 3.82044 128.847 3.79285L128.864 4.40316C127.838 4.43003 126.806 4.51746 125.797 4.66277ZM134.983 4.95633C133.985 4.74605 132.961 4.59268 131.941 4.50061L131.998 3.89273C133.043 3.987 134.092 4.1438 135.115 4.35944L134.983 4.95633ZM119.87 6.24973L119.634 5.68436C120.605 5.29629 121.609 4.96219 122.62 4.69159L122.785 5.28066C121.798 5.54466 120.818 5.8707 119.87 6.24973ZM140.793 6.92428C139.873 6.48443 138.916 6.09538 137.949 5.76788L138.153 5.19078C139.144 5.52634 140.124 5.92516 141.067 6.37551L140.793 6.92428ZM114.505 9.17724L114.139 8.68317C114.987 8.0797 115.88 7.52043 116.795 7.02172L117.098 7.55486C116.206 8.04209 115.333 8.58793 114.505 9.17724ZM145.954 10.1937C145.167 9.55236 144.332 8.95109 143.474 8.4072L143.813 7.89458C144.692 8.45189 145.547 9.06734 146.353 9.7243L145.954 10.1937ZM110.001 13.2699L109.525 12.8748C110.202 12.0928 110.935 11.342 111.704 10.644L112.128 11.0915C111.378 11.7731 110.662 12.506 110.001 13.2699ZM150.175 14.5668C149.566 13.7625 148.901 12.9854 148.198 12.2569L148.651 11.8376C149.371 12.5837 150.052 13.3796 150.676 14.2031L150.175 14.5668ZM106.614 18.2919L106.056 18.0191C106.524 17.1023 107.055 16.2023 107.633 15.3449L108.154 15.6811C107.589 16.5183 107.071 17.3968 106.614 18.2919ZM153.214 19.7924C152.819 18.87 152.362 17.961 151.855 17.0906L152.397 16.7885C152.916 17.6799 153.384 18.6111 153.789 19.5562L153.214 19.7924ZM104.551 23.9615L103.943 23.8275C104.173 22.8252 104.468 21.827 104.82 20.8604L105.407 21.0653C105.064 22.0087 104.776 22.9832 104.551 23.9615ZM154.889 25.58C154.73 24.5894 154.509 23.5991 154.23 22.6366L154.83 22.4701C155.116 23.4562 155.343 24.4707 155.505 25.4857L154.889 25.58ZM103.307 29.958C103.305 29.8026 103.303 29.6468 103.303 29.4908C103.303 28.6179 103.348 27.7375 103.437 26.8746L104.058 26.9362C103.971 27.7787 103.927 28.6382 103.927 29.491C103.927 29.6434 103.928 29.7955 103.931 29.947L103.307 29.958ZM155.635 32.5719L155.016 32.4993C155.137 31.5085 155.198 30.4962 155.198 29.491C155.198 29.1884 155.192 28.8817 155.181 28.5798L155.805 28.5578C155.816 28.8673 155.822 29.1811 155.822 29.491C155.822 30.5204 155.759 31.5569 155.635 32.5719ZM104.169 36.0611C103.902 35.0698 103.694 34.0514 103.55 33.0342L104.168 32.9507C104.308 33.9437 104.511 34.9377 104.772 35.9053L104.169 36.0611ZM154.141 38.56L153.557 38.3446C153.919 37.4068 154.225 36.4377 154.468 35.4642L155.073 35.609C154.825 36.6064 154.511 37.5992 154.141 38.56ZM106.495 41.7852C105.993 40.8845 105.542 39.945 105.155 38.9932L105.735 38.7673C106.112 39.6966 106.553 40.6134 107.042 41.4929L106.495 41.7852ZM151.225 44.0245L150.711 43.6789C151.291 42.852 151.825 41.983 152.299 41.096L152.851 41.3786C152.367 42.2873 151.819 43.1775 151.225 44.0245ZM110.149 46.8015C109.443 46.0432 108.776 45.2353 108.168 44.4006L108.676 44.046C109.27 44.8612 109.92 45.6498 110.61 46.3905L110.149 46.8015ZM147.069 48.6525L146.653 48.1975C147.415 47.5298 148.144 46.8098 148.82 46.0572L149.288 46.4604C148.596 47.2311 147.849 47.9687 147.069 48.6525ZM114.913 50.8295C114.045 50.2571 113.202 49.6265 112.407 48.9551L112.815 48.4928C113.59 49.1485 114.414 49.7642 115.262 50.3232L114.913 50.8295ZM141.912 52.1837L141.618 51.6452C142.519 51.1744 143.401 50.6442 144.241 50.0695L144.598 50.5699C143.739 51.1585 142.835 51.7014 141.912 52.1837ZM120.521 53.6342C119.538 53.281 118.566 52.8649 117.631 52.3974L117.914 51.8538C118.827 52.31 119.776 52.7164 120.736 53.061L120.521 53.6342ZM136.042 54.4098L135.888 53.8181C136.88 53.5717 137.867 53.2632 138.82 52.9015L139.046 53.4708C138.069 53.8413 137.058 54.1573 136.042 54.4098ZM126.651 55.0424C125.608 54.9298 124.563 54.7539 123.544 54.52L123.686 53.9258C124.681 54.1539 125.702 54.3253 126.72 54.4355L126.651 55.0424ZM129.8 55.1975L129.794 54.5869C130.821 54.5781 131.854 54.509 132.865 54.3818L132.944 54.9872C131.909 55.1176 130.851 55.1884 129.8 55.1975Z" fill="#07B8FF"/>
<path fill-rule="evenodd" clip-rule="evenodd" d="M24.9332 170.005C20.6433 170.005 17.153 173.421 17.153 177.62C17.153 181.819 20.6433 185.236 24.9332 185.236C29.2231 185.236 32.7134 181.819 32.7134 177.62C32.7134 173.421 29.2231 170.005 24.9332 170.005ZM24.9332 186.454C19.9569 186.454 15.9082 182.492 15.9082 177.62C15.9082 172.75 19.9569 168.787 24.9332 168.787C29.9095 168.787 33.9582 172.75 33.9582 177.62C33.9582 182.492 29.9095 186.454 24.9332 186.454Z" fill="#07B8FF"/>
<path fill-rule="evenodd" clip-rule="evenodd" d="M68.1206 260.317H327.245V72.765H68.1206V260.317Z" fill="#0045AA"/>
<path fill-rule="evenodd" clip-rule="evenodd" d="M68.7562 259.695H326.611V73.3866H68.7562V259.695ZM67.5093 260.916H327.858V72.166H67.5093V260.916Z" fill="#07B8FF"/>
<path fill-rule="evenodd" clip-rule="evenodd" d="M86.0698 239.555H107.281V199.43H86.0698V239.555Z" fill="#146BFF"/>
<path fill-rule="evenodd" clip-rule="evenodd" d="M119.823 239.555H141.034V179.367H119.823V239.555Z" fill="#146BFF"/>
<path fill-rule="evenodd" clip-rule="evenodd" d="M153.476 239.556H174.687V138.044H153.476V239.556Z" fill="#146BFF"/>
<path fill-rule="evenodd" clip-rule="evenodd" d="M187.128 239.555H208.34V167.389H187.128V239.555Z" fill="#146BFF"/>
<path fill-rule="evenodd" clip-rule="evenodd" d="M220.782 239.555H241.993V135.548H220.782V239.555Z" fill="#146BFF"/>
<path fill-rule="evenodd" clip-rule="evenodd" d="M254.434 239.556H275.645V141.038H254.434V239.556Z" fill="#146BFF"/>
<path fill-rule="evenodd" clip-rule="evenodd" d="M288.085 239.555H309.297V105.005H288.085V239.555Z" fill="#146BFF"/>
<path fill-rule="evenodd" clip-rule="evenodd" d="M92.5495 223.585L91.9839 222.497L127.388 204.866L163.9 156.188L197.326 190.435L231.69 156.799L265.02 160.762L298.468 123.172L299.406 123.973L265.523 162.052L232.144 158.082L197.306 192.182L164.025 158.083L128.218 205.822L92.5495 223.585Z" fill="#07B8FF"/>
<path fill-rule="evenodd" clip-rule="evenodd" d="M145.521 97.1198H249.844V95.922H145.521V97.1198Z" fill="#146BFF"/>
<path fill-rule="evenodd" clip-rule="evenodd" d="M180.807 110.595H214.663V109.397H180.807V110.595Z" fill="#146BFF"/>
<path fill-rule="evenodd" clip-rule="evenodd" d="M64.0047 296.12C66.0382 285.628 64.715 274.463 60.2925 264.799C55.8699 255.135 48.373 247.026 39.2612 242.051C43.8766 247.78 45.0663 255.642 45.5338 263.1C46.0014 270.56 45.9675 278.261 48.7326 285.16C51.4978 292.058 58.0247 298.029 65.1635 297.165L64.0047 296.12Z" fill="#146BFF"/>
<path fill-rule="evenodd" clip-rule="evenodd" d="M64.1803 298.817C62.1465 288.326 63.4699 277.161 67.8925 267.497C72.3151 257.832 79.812 249.723 88.9238 244.746C84.3084 250.478 83.1186 258.338 82.651 265.798C82.1835 273.255 82.2175 280.956 79.4523 287.855C76.6872 294.756 70.1603 300.726 63.0215 299.86L64.1803 298.817Z" fill="#146BFF"/>
<path fill-rule="evenodd" clip-rule="evenodd" d="M56.0042 293.798C51.4136 286.303 50.1602 276.68 52.6669 268.179C55.1734 259.677 61.3948 252.451 69.2316 248.938C67.5824 259.689 75.7241 270.072 74.2694 280.855C73.3277 287.832 67.9862 293.937 61.4072 295.552L56.0042 293.798Z" fill="#7EDAFF"/>
<path fill-rule="evenodd" clip-rule="evenodd" d="M59.2959 308.228C59.2759 297.517 63.0366 286.831 69.8452 278.251C76.6536 269.67 86.4722 263.241 97.389 260.217C91.1907 264.897 88.2632 272.369 86.2022 279.592C84.1418 286.817 82.5744 294.379 78.1392 300.585C73.7036 306.792 65.3825 311.32 57.8218 309.015L59.2959 308.228Z" fill="#07B8FF"/>
<path fill-rule="evenodd" clip-rule="evenodd" d="M62.6891 308.827C62.7076 298.116 59.2571 287.43 53.01 278.85C46.763 270.269 37.7541 263.84 27.7378 260.816C33.4249 265.496 36.1109 272.968 38.0017 280.193C39.8925 287.416 41.3304 294.978 45.4 301.184C49.4695 307.391 57.1045 311.919 64.0418 309.614L62.6891 308.827Z" fill="#07B8FF"/>
<path fill-rule="evenodd" clip-rule="evenodd" d="M81.019 345.259H41.5591L34.7749 305.034H87.8032L81.019 345.259Z" fill="#07377E"/>
<path fill-rule="evenodd" clip-rule="evenodd" d="M41.9993 344.844H80.681L87.3135 305.549H35.3668L41.9993 344.844ZM81.4739 345.758H41.2062L34.2651 304.635H88.4152L81.4739 345.758Z" fill="#155CC7"/>
<path fill-rule="evenodd" clip-rule="evenodd" d="M372.578 127.963V144.727L364.671 150.221H401.995V127.963H372.578Z" fill="#0E4FB0"/>
<path fill-rule="evenodd" clip-rule="evenodd" d="M365.706 149.911H401.678V128.273H372.935V144.882L365.706 149.911ZM402.301 150.521H363.754L372.312 144.567V127.663H402.301V150.521Z" fill="#07B8FF"/>
<path fill-rule="evenodd" clip-rule="evenodd" d="M386.902 145.031L382.108 140.495L382.973 139.613L386.59 143.036L392.742 131.955L393.836 132.541L386.902 145.031Z" fill="#07B8FF"/>
<path fill-rule="evenodd" clip-rule="evenodd" d="M0 345.759H403.015V344.86H0V345.759Z" fill="#155CC7"/>
</svg>
