<svg width="195" height="202" viewBox="0 0 195 202" fill="none" xmlns="http://www.w3.org/2000/svg">
<path fill-rule="evenodd" clip-rule="evenodd" d="M174.129 143.483L189.508 194.616H185.185L163.977 143.125L174.129 143.483Z" fill="#001E4A"/>
<path fill-rule="evenodd" clip-rule="evenodd" d="M136.449 143.483L151.828 194.058H147.505L126.297 143.125L136.449 143.483Z" fill="#001E4A"/>
<path fill-rule="evenodd" clip-rule="evenodd" d="M89.753 143.483L75.8023 194.058H80.1273L99.9102 143.125L89.753 143.483Z" fill="#0B49A6"/>
<path fill-rule="evenodd" clip-rule="evenodd" d="M134.798 143.483L121.645 194.058H125.947L144.899 143.125L134.798 143.483Z" fill="#0B49A6"/>
<path fill-rule="evenodd" clip-rule="evenodd" d="M81.5129 121.216C81.5129 121.216 80.3142 105.792 82.7124 101.39C85.1105 96.9876 108.136 88.0494 108.136 88.0494C108.136 88.0494 123.944 63.5862 134.508 58.4111C145.072 53.2361 186.325 53.9421 192.322 61.9395C198.318 69.9368 191.602 90.8718 188.484 103.574L177.212 134.623L174.094 143.404H88.2285L81.5129 121.216Z" fill="#146BFF"/>
<path fill-rule="evenodd" clip-rule="evenodd" d="M188.533 61.7066C188.538 61.7052 188.561 61.7586 188.599 61.8662C188.637 61.9738 188.692 62.1341 188.755 62.3472C188.882 62.7733 189.052 63.4083 189.222 64.2391C189.555 65.8978 189.906 68.356 189.756 71.4208C189.682 72.9532 189.44 74.6182 189.166 76.4046C188.887 78.1917 188.554 80.1003 188.181 82.1116C187.437 86.1355 186.55 90.5745 185.554 95.2689L185.54 95.339L185.475 95.3709C184.187 96.0059 182.826 96.6798 181.434 97.3391C171.682 102.001 162.536 105.543 155.838 107.865C152.488 109.028 149.753 109.897 147.857 110.48C146.921 110.759 146.186 110.977 145.668 111.131C145.429 111.199 145.24 111.252 145.096 111.292C144.967 111.327 144.9 111.342 144.898 111.338C144.897 111.333 144.961 111.308 145.087 111.263C145.229 111.215 145.414 111.153 145.65 111.074C146.164 110.907 146.892 110.671 147.821 110.37C149.704 109.752 152.427 108.854 155.765 107.666C162.439 105.295 171.561 101.727 181.301 97.0706C182.691 96.4119 184.05 95.7394 185.338 95.1065L185.258 95.2078C186.257 90.5176 187.155 86.0814 187.915 82.0644C188.297 80.0552 188.638 78.1501 188.928 76.3685C189.213 74.5863 189.466 72.9283 189.553 71.4097C189.729 68.3678 189.411 65.9179 189.113 64.2592C188.96 63.4285 188.809 62.792 188.699 62.3618C188.646 62.1598 188.604 61.9988 188.572 61.8745C188.543 61.7649 188.529 61.7087 188.533 61.7066Z" fill="#001E4A"/>
<path fill-rule="evenodd" clip-rule="evenodd" d="M92.5217 133.83C92.6071 133.817 93.0531 135.949 93.5167 138.592C93.9803 141.236 94.287 143.39 94.2015 143.404C94.1161 143.417 93.6708 141.286 93.2072 138.641C92.7429 135.998 92.4362 133.844 92.5217 133.83Z" fill="#001E4A"/>
<path fill-rule="evenodd" clip-rule="evenodd" d="M137.123 142.939C137.041 142.925 137.992 137.046 139.247 129.81C140.502 122.571 141.586 116.715 141.669 116.729C141.751 116.743 140.8 122.621 139.545 129.86C138.29 137.097 137.205 142.953 137.123 142.939Z" fill="#001E4A"/>
<path fill-rule="evenodd" clip-rule="evenodd" d="M33.5366 147.307L21.741 161.945C21.741 161.945 2.60635 155.104 0.157871 157.601L28.2806 181.046L47.6143 158.979L33.5366 147.307Z" fill="#146BFF"/>
<path fill-rule="evenodd" clip-rule="evenodd" d="M31.5283 167.874C31.9424 168.474 31.7992 169.389 31.2103 169.824C30.6221 170.258 29.6816 170.123 29.2569 169.529C28.8322 168.936 28.9698 167.833 29.6036 167.466C30.2375 167.1 31.3331 167.319 31.602 167.996" fill="#A7CAFF"/>
<path fill-rule="evenodd" clip-rule="evenodd" d="M28.3792 181.046L30.2451 178.745L2.48907 157.106C2.48907 157.106 0.768127 156.596 0.15777 157.579L28.3792 181.046Z" fill="#07B8FF"/>
<path fill-rule="evenodd" clip-rule="evenodd" d="M21.5257 161.366C21.4181 161.505 22.0279 162.14 22.3168 163.138C22.6309 164.128 22.4797 165.003 22.6459 165.055C22.789 165.134 23.2639 164.157 22.8933 162.955C22.5335 161.75 21.6 161.217 21.5257 161.366Z" fill="#E3F7FF"/>
<path fill-rule="evenodd" clip-rule="evenodd" d="M17.4149 160.24C17.2675 160.342 17.6722 161.054 17.644 161.995C17.6454 162.937 17.2206 163.637 17.3658 163.743C17.4785 163.87 18.2734 163.174 18.2842 162.003C18.3066 160.833 17.532 160.117 17.4149 160.24Z" fill="#E3F7FF"/>
<path fill-rule="evenodd" clip-rule="evenodd" d="M12.8035 162.158C12.9072 162.288 13.7052 161.786 14.0008 160.778C14.3045 159.771 13.8972 158.959 13.7366 159.022C13.5577 159.066 13.6336 159.793 13.3774 160.617C13.1423 161.447 12.6751 162.034 12.8035 162.158Z" fill="#E3F7FF"/>
<path fill-rule="evenodd" clip-rule="evenodd" d="M24.4585 158.34C24.4094 158.513 25.2043 158.856 25.9394 159.563C26.6887 160.256 27.0737 161.024 27.2459 160.968C27.411 160.936 27.2523 159.934 26.3749 159.113C25.5039 158.286 24.4827 158.176 24.4585 158.34Z" fill="#E3F7FF"/>
<path fill-rule="evenodd" clip-rule="evenodd" d="M54.827 172.587L55.8711 191.234C55.8711 191.234 36.8642 198.535 36.7144 202L73.7119 201.317L73.3038 172.197L54.827 172.587Z" fill="#146BFF"/>
<path fill-rule="evenodd" clip-rule="evenodd" d="M73.7119 201.318L73.5529 198.384L38.1397 200.135C38.1397 200.135 36.5064 200.867 36.7144 202L73.7119 201.318Z" fill="#07B8FF"/>
<path fill-rule="evenodd" clip-rule="evenodd" d="M67.2809 189.454C68.0006 189.632 68.5103 190.411 68.3577 191.122C68.205 191.834 67.4008 192.349 66.6776 192.182C65.955 192.017 65.3133 191.099 65.5461 190.409C65.779 189.719 66.7578 189.165 67.4193 189.497" fill="#A7CAFF"/>
<path fill-rule="evenodd" clip-rule="evenodd" d="M59.2645 122.305C59.2645 123.631 53.213 184.581 53.213 184.581L73.6541 186.902C73.6541 186.902 78.7431 156.163 79.532 150.498C80.3209 144.832 82.9703 134.679 82.9703 134.679L126.581 130.454C126.581 130.454 105.191 101.145 103.112 101.022C101.031 100.899 59.2645 122.305 59.2645 122.305Z" fill="#001E4A"/>
<path fill-rule="evenodd" clip-rule="evenodd" d="M23.7899 156.07C23.7899 156.07 60.4271 107.501 62.5404 104.957C64.6537 102.414 67.0926 99.7109 74.7335 99.7109C82.3743 99.7109 103.041 101.146 103.041 101.146L113.961 96.281L153.6 102.258C153.6 102.258 155.063 120.701 152.462 124.993C149.862 129.286 134.417 130.399 131.166 130.558C127.914 130.717 77.5582 124.032 77.5582 124.032C77.5582 124.032 67.6892 137.427 62.9519 142.577C59.5745 146.248 41.5481 168.87 41.5481 168.87L23.7899 156.07Z" fill="#001E4A"/>
<path fill-rule="evenodd" clip-rule="evenodd" d="M62.7881 105.163C64.6901 102.87 67.0572 100.018 74.7494 100.018C82.2898 100.018 102.82 101.439 103.026 101.453L103.101 101.458L114.005 96.595L153.314 102.529C153.47 104.651 154.57 120.97 152.2 124.886C149.488 129.366 131.896 130.276 131.148 130.314C127.954 130.471 78.1165 123.853 77.613 123.785L77.4385 123.762L77.3357 123.902C77.2371 124.035 67.4253 137.352 62.7541 142.435C59.5884 145.88 43.3928 166.19 41.5192 168.543L24.2322 156.069C26.9759 152.429 60.7784 107.583 62.7881 105.163ZM41.8057 169.115C41.9866 168.889 59.8586 146.442 63.1895 142.818C67.6224 137.995 76.6414 125.82 77.708 124.377C81.4729 124.876 128.01 131.068 131.177 130.886C133.084 130.793 149.882 129.84 152.704 125.178C155.321 120.854 153.941 103.016 153.881 102.259L153.863 102.032L114.008 96.0153L113.922 96.0028L102.994 100.876C101.623 100.782 82.0806 99.4441 74.7494 99.4441C66.7785 99.4441 64.3135 102.415 62.3328 104.801C60.2401 107.322 23.9535 155.473 23.5869 155.959L23.4131 156.19L41.6306 169.335L41.8057 169.115Z" fill="#07B8FF"/>
<path fill-rule="evenodd" clip-rule="evenodd" d="M73.5948 117.473C73.6658 117.429 74.7255 118.911 75.962 120.784C77.1991 122.658 78.1439 124.213 78.0729 124.257C78.0019 124.302 76.9422 122.82 75.7057 120.946C74.4693 119.073 73.5238 117.518 73.5948 117.473Z" fill="#07B8FF"/>
<path fill-rule="evenodd" clip-rule="evenodd" d="M55.3041 191.069C55.3133 191.241 56.2199 191.304 57.1215 191.844C58.0373 192.362 58.5108 193.103 58.6765 193.031C58.8422 192.994 58.5521 191.965 57.4486 191.33C56.3514 190.685 55.2614 190.91 55.3041 191.069Z" fill="#E3F7FF"/>
<path fill-rule="evenodd" clip-rule="evenodd" d="M51.412 192.74C51.3748 192.912 52.1526 193.199 52.7727 193.936C53.4146 194.656 53.5828 195.463 53.76 195.452C53.9282 195.477 54.0319 194.437 53.2436 193.535C52.4637 192.625 51.4127 192.571 51.412 192.74Z" fill="#E3F7FF"/>
<path fill-rule="evenodd" clip-rule="evenodd" d="M49.2117 197.403C49.3772 197.438 49.6116 196.538 49.1287 195.566C48.6529 194.589 47.7936 194.219 47.7197 194.369C47.6203 194.518 48.1792 195.034 48.5634 195.839C48.966 196.634 49.0321 197.388 49.2117 197.403Z" fill="#E3F7FF"/>
<path fill-rule="evenodd" clip-rule="evenodd" d="M55.4026 186.884C55.4821 187.058 56.3135 186.777 57.3454 186.83C58.378 186.861 59.1858 187.21 59.2781 187.043C59.3813 186.902 58.5857 186.207 57.3697 186.161C56.1545 186.107 55.3102 186.736 55.4026 186.884Z" fill="#E3F7FF"/>
<path fill-rule="evenodd" clip-rule="evenodd" d="M129.469 54.2687L130.754 65.8939L115.841 95.1679C115.841 95.1679 107.021 98.0398 103.899 101.184L111.043 101.488C121.287 101.924 131.206 105.412 139.392 111.661C142.921 114.355 145.766 117.268 146.293 119.915C147.847 127.717 150.224 126.514 150.224 126.514L159.265 115.129L165.599 102.809L178.311 54.5604L166.043 47.9694L163.289 44.0469L145.14 46.5209L141.524 50.015L129.469 54.2687Z" fill="#07B8FF"/>
<path fill-rule="evenodd" clip-rule="evenodd" d="M99.3971 85.3595L107.008 82.2327L118.967 65.7692C118.967 65.7692 124.513 54.8853 129.486 54.1188C134.46 53.3529 130.77 65.765 130.77 65.765L123.102 87.1348L110.735 95.6305L102.206 94.9029L96.6845 90.2881L99.3971 85.3595Z" fill="#07B8FF"/>
<path fill-rule="evenodd" clip-rule="evenodd" d="M130.757 58.2673C130.767 58.2716 130.722 58.4033 130.627 58.6495C130.517 58.9234 130.376 59.2798 130.198 59.7237C129.808 60.6862 129.266 62.0238 128.603 63.6631C127.261 66.9917 125.468 71.6128 123.498 76.7222C121.528 81.8329 119.701 86.4457 118.308 89.7562C117.612 91.4122 117.036 92.7464 116.622 93.6617C116.423 94.0965 116.263 94.446 116.14 94.7137C116.027 94.9529 115.962 95.077 115.953 95.073C115.943 95.0687 115.989 94.937 116.084 94.6908C116.193 94.4176 116.335 94.0611 116.512 93.6173C116.902 92.6548 117.444 91.3172 118.108 89.6779C119.45 86.3493 121.243 81.7275 123.213 76.6167C125.183 71.5074 127.009 66.8953 128.403 63.5848C129.098 61.9288 129.674 60.5939 130.088 59.6786C130.288 59.2438 130.448 58.8943 130.571 58.6266C130.683 58.3874 130.748 58.2632 130.757 58.2673Z" fill="#001E4A"/>
<path fill-rule="evenodd" clip-rule="evenodd" d="M145.562 57.8043C145.542 57.814 145.382 57.5323 145.109 57.0153C144.816 56.4449 144.436 55.7044 143.979 54.8127L144.177 54.8113C143.782 55.6718 143.32 56.6933 142.709 57.7772C142.097 58.8563 141.318 60.0055 140.247 60.984L139.964 61.2415L139.994 60.8633L139.998 60.8036C140.216 57.8453 140.569 55.1812 140.887 53.2645C141.046 52.3054 141.192 51.533 141.303 51.0008C141.415 50.4692 141.488 50.1777 141.509 50.1812C141.53 50.1847 141.495 50.4838 141.419 51.0209C141.336 51.6128 141.228 52.3776 141.099 53.2957C140.835 55.2159 140.517 57.8758 140.299 60.8258L140.295 60.8848L140.042 60.764C141.079 59.8168 141.849 58.6995 142.466 57.6412C143.081 56.5781 143.56 55.5691 143.978 54.7197L144.081 54.5115L144.176 54.7183C144.599 55.6274 144.948 56.3817 145.218 56.9632C145.458 57.4962 145.582 57.7953 145.562 57.8043Z" fill="#001E4A"/>
<path fill-rule="evenodd" clip-rule="evenodd" d="M164.831 48.8804C164.839 48.8873 164.781 48.9673 164.662 49.1147C164.519 49.2857 164.345 49.4949 164.135 49.748C163.667 50.2902 162.982 51.0675 162.103 52.0004C160.354 53.8719 157.831 56.3677 154.85 58.915C153.498 60.0732 152.168 61.1424 150.93 62.0914L150.704 62.2638L150.7 61.9843C150.662 59.7867 150.239 57.8937 149.791 56.4887L149.935 56.5422C149.016 57.0602 148.27 57.4808 147.712 57.7957C147.191 58.0828 146.903 58.2302 146.893 58.2142C146.884 58.1989 147.152 58.0202 147.656 57.7053C148.203 57.3709 148.934 56.9246 149.834 56.3747L149.938 56.3114L149.979 56.4282C150.468 57.836 150.927 59.7478 150.984 61.978L150.754 61.8717C151.981 60.9158 153.302 59.8438 154.65 58.6897C157.621 56.1501 160.16 53.6863 161.947 51.8558C162.843 50.943 163.552 50.1887 164.047 49.6708C164.274 49.4331 164.462 49.2363 164.616 49.075C164.749 48.9409 164.823 48.8734 164.831 48.8804Z" fill="#001E4A"/>
<path fill-rule="evenodd" clip-rule="evenodd" d="M163.69 45.4496L164.924 20.8136C165.706 13.0996 161.773 6.22429 153.872 5.67215L153.139 5.66244C145.761 5.5688 139.544 11.0333 138.855 18.2229C138.215 24.9123 137.594 32.3114 137.592 35.9045C137.587 43.343 145.172 44.5965 145.172 44.5965C145.189 44.5971 144.968 49.1134 144.843 51.2929L146.434 56.9661L163.69 45.4496Z" fill="#DCE9FF"/>
<path fill-rule="evenodd" clip-rule="evenodd" d="M145.282 44.7196C145.282 44.7196 150.084 45.0529 155.247 42.002C155.247 42.002 152.784 47.524 145.186 46.763L145.282 44.7196Z" fill="#07377E"/>
<path fill-rule="evenodd" clip-rule="evenodd" d="M164.283 26.1376C164.415 26.0846 169.617 24.6835 169.379 29.7983C169.141 34.9138 163.884 33.6272 163.882 33.4807C163.879 33.3334 164.283 26.1376 164.283 26.1376Z" fill="#DCE9FF"/>
<path fill-rule="evenodd" clip-rule="evenodd" d="M165.596 31.6026C165.62 31.5872 165.686 31.6689 165.839 31.7451C165.988 31.8191 166.249 31.8771 166.53 31.7891C167.1 31.6145 167.612 30.7769 167.681 29.8549C167.716 29.3903 167.635 28.9419 167.482 28.5675C167.337 28.1861 167.098 27.9136 166.817 27.8529C166.54 27.7781 166.332 27.9325 166.26 28.0736C166.183 28.214 166.212 28.3174 166.183 28.3251C166.167 28.337 166.073 28.2343 166.126 28.0247C166.152 27.9241 166.22 27.8061 166.349 27.7132C166.482 27.6189 166.671 27.5756 166.867 27.6049C167.275 27.6503 167.626 28.0289 167.796 28.4403C167.988 28.8546 168.089 29.3582 168.05 29.8807C167.968 30.9103 167.375 31.852 166.598 32.0329C166.22 32.1104 165.914 31.9882 165.759 31.8603C165.6 31.7269 165.578 31.6117 165.596 31.6026Z" fill="#07377E"/>
<path fill-rule="evenodd" clip-rule="evenodd" d="M128.815 10.7632C128.91 10.4667 129.143 10.2286 129.423 10.0817C130.032 9.76215 130.715 9.83664 131.377 9.85404C133.024 9.8979 134.675 9.55261 136.174 8.88222C135.674 8.60585 135.209 8.27518 134.821 7.85958C134.018 7.00192 133.591 5.72171 134.024 4.63641C134.104 4.43244 134.236 4.22151 134.452 4.16582C134.793 4.0781 135.073 4.41643 135.297 4.68445C136.033 5.56577 136.731 5.96048 137.888 5.89435C138.607 5.85397 139.307 5.72519 139.885 5.40426L139.953 5.33604C140.235 5.07359 140.51 4.82298 140.781 4.58142L140.782 4.57863L140.782 4.58002C142.816 2.7589 144.552 1.5114 146.31 0.900186C148.887 0.00424418 153.14 -0.2227 155.752 0.569516C158.363 1.36243 160.642 3.56991 160.893 6.24591C162.428 5.07707 164.651 5.1815 166.424 5.97093L166.47 5.95283C168.448 6.74156 169.498 8.87735 170.002 10.9164C170.03 11.0284 170.053 11.1412 170.079 11.2533C170.712 12.3407 171.596 13.2867 172.669 13.9634C172.859 14.0831 173.075 14.2286 173.089 14.4493C173.103 14.6679 172.909 14.8405 172.722 14.9603C172.225 15.2791 171.654 15.4782 171.067 15.5562C171.229 16.0428 171.425 16.5169 171.673 16.9722C171.883 17.3592 172.132 17.8228 171.917 18.2078C171.75 18.5051 171.353 18.6137 171.013 18.5503C170.674 18.4863 170.38 18.2879 170.097 18.0943C170.298 18.6311 170.499 19.1685 170.7 19.7052C169.967 19.7992 169.217 19.7101 168.521 19.4699C168.012 21.3356 167.538 24.8108 166.99 26.0666C165.611 26.0325 165.283 25.871 164.579 26.068C163.668 26.3235 163.942 27.9017 162.792 27.4081C162.207 27.1568 161.39 24.8999 161.217 24.2956C160.069 20.2837 159.815 16.0282 160.473 11.9112C159.679 11.0041 158.706 10.2488 157.624 9.70019L157.711 9.78373C155.621 8.96993 153.253 8.15614 151.198 9.04999C149.603 9.74405 148.616 11.2979 147.393 12.5196C145.076 14.8357 142.515 16.0156 139.211 16.0156C138.816 18.2552 138.567 21.935 138.363 24.0318L136.722 19.7477L136.72 19.7651C136.584 19.5124 136.472 19.2583 136.365 19.0049L136.329 18.9276L136.329 18.9179C136.159 18.5106 135.999 18.1027 135.78 17.6975L135.759 17.7142C134.557 18.6701 132.918 17.062 133.885 15.8757C134.076 15.6404 134.303 15.4337 134.558 15.2652C134.007 15.7316 133.208 15.9321 132.523 15.6933C131.838 15.4539 131.33 14.741 131.422 14.0323C131.484 13.5485 131.856 13.1287 132.31 12.9561C131.372 12.9874 130.424 12.7465 129.629 12.2551C129.107 11.932 128.604 11.4169 128.815 10.7632Z" fill="#001E4A"/>
<path fill-rule="evenodd" clip-rule="evenodd" d="M158.474 6.96265C158.458 6.98136 158.784 7.1726 159.206 7.67636C159.626 8.17804 160.082 9.03934 160.266 10.1931C160.36 10.7661 160.408 11.4057 160.377 12.0896C160.35 12.7742 160.262 13.5045 160.174 14.2744C160.089 15.0449 159.997 15.8584 160.01 16.7093C160.016 17.1341 160.05 17.5672 160.125 18.0023C160.202 18.4292 160.296 18.8934 160.606 19.2718C160.854 19.5794 161.284 19.7291 161.665 19.6688C162.048 19.6196 162.394 19.436 162.654 19.1761C163.168 18.6391 163.321 17.9365 163.47 17.3177L163.309 17.3302C163.545 17.9018 163.789 18.4666 164.166 18.9253C164.537 19.3868 165.065 19.7041 165.611 19.7748C165.884 19.8102 166.162 19.7797 166.401 19.6737C166.646 19.5697 166.829 19.3826 166.957 19.1831C167.08 18.9793 167.15 18.7528 167.147 18.531C167.144 18.31 167.065 18.0972 166.928 17.9434L166.845 18.0099C167.403 18.6876 168.006 19.0639 168.426 19.2759C168.638 19.3826 168.808 19.4478 168.924 19.49C169.04 19.5288 169.101 19.5462 169.103 19.5413C169.105 19.5365 169.047 19.5101 168.935 19.4623C168.824 19.4124 168.659 19.339 168.454 19.226C168.047 19.0008 167.464 18.6163 166.93 17.9448L166.846 18.0113C167.091 18.2871 167.084 18.7535 166.848 19.1179C166.729 19.2981 166.562 19.4637 166.347 19.5517C166.133 19.6432 165.879 19.6702 165.63 19.6348C165.128 19.5649 164.637 19.2676 164.29 18.829C163.935 18.3911 163.699 17.8409 163.466 17.2685L163.367 17.0253L163.306 17.281C163.157 17.8984 162.996 18.5726 162.528 19.0569C162.296 19.2891 161.978 19.4547 161.643 19.497C161.307 19.5462 160.96 19.4242 160.743 19.1602C160.472 18.8331 160.374 18.3931 160.299 17.9725C160.226 17.5485 160.192 17.1244 160.184 16.7066C160.169 15.8695 160.256 15.0615 160.337 14.2917C160.42 13.5219 160.504 12.7881 160.525 12.0944C160.549 11.4015 160.494 10.7529 160.39 10.1716C160.188 9.00262 159.703 8.12953 159.26 7.6334C158.813 7.1338 158.474 6.96265 158.474 6.96265Z" fill="#07B8FF"/>
<path fill-rule="evenodd" clip-rule="evenodd" d="M134.65 13.2033L134.709 13.2567C134.759 13.2948 134.819 13.342 134.894 13.3995C134.974 13.464 135.076 13.5396 135.207 13.6152C135.335 13.6942 135.481 13.7906 135.66 13.8731C136.352 14.2303 137.471 14.6047 138.892 14.5825C140.3 14.5638 142.006 14.1491 143.558 13.118C145.126 12.1132 146.53 10.5952 147.7 8.83875C148.293 7.96155 148.785 7.0573 149.32 6.22586C149.852 5.39304 150.432 4.62748 151.12 4.0332C151.801 3.43475 152.58 3.00413 153.371 2.82383C153.765 2.72744 154.159 2.71843 154.533 2.7427C154.908 2.77737 155.26 2.86682 155.583 2.9854C156.23 3.22811 156.743 3.60465 157.129 3.98604C157.516 4.37021 157.769 4.76963 157.94 5.1108C158.256 5.80841 158.256 6.24805 158.284 6.24181L158.281 6.16414C158.274 6.10173 158.265 6.02684 158.255 5.93461C158.227 5.73421 158.152 5.44158 158.003 5.08237C157.839 4.73149 157.59 4.3182 157.201 3.91808C156.813 3.52213 156.292 3.12895 155.629 2.87098C155.297 2.74478 154.934 2.64908 154.546 2.60886C154.159 2.57974 153.746 2.58667 153.337 2.68376C152.516 2.86336 151.711 3.30369 151.012 3.91323C150.303 4.5186 149.71 5.29734 149.173 6.13502C148.631 6.9727 148.139 7.87417 147.551 8.74375C146.389 10.4871 145.006 11.9877 143.468 12.9842C141.943 14.0063 140.277 14.4244 138.89 14.4591C137.492 14.4966 136.385 14.1477 135.691 13.8121C134.992 13.4723 134.665 13.1825 134.65 13.2033Z" fill="#07B8FF"/>
<path fill-rule="evenodd" clip-rule="evenodd" d="M134.08 10.0319C134.073 10.0422 134.168 10.1113 134.345 10.2281C134.52 10.3483 134.791 10.499 135.137 10.6621C135.482 10.8272 135.911 10.9861 136.401 11.1244C136.891 11.2543 137.444 11.3586 138.03 11.4042C138.617 11.4436 139.179 11.4208 139.685 11.3641C140.19 11.2985 140.639 11.2038 141.005 11.0905C141.372 10.9792 141.663 10.8701 141.854 10.7761C142.049 10.6862 142.152 10.6317 142.147 10.6206C142.134 10.5909 141.703 10.7837 140.971 10.9723C140.606 11.0691 140.162 11.1492 139.666 11.2052C139.169 11.2522 138.618 11.2702 138.043 11.2315C137.469 11.1859 136.928 11.0891 136.444 10.9703C135.962 10.8431 135.535 10.6987 135.189 10.5501C134.494 10.2578 134.098 10.0042 134.08 10.0319Z" fill="#07B8FF"/>
<path fill-rule="evenodd" clip-rule="evenodd" d="M141.201 25.1094C141.173 25.673 141.639 26.1612 142.242 26.2003C142.842 26.2393 143.354 25.8153 143.382 25.2517C143.409 24.6882 142.944 24.1992 142.342 24.1602C141.74 24.1204 141.23 24.5459 141.201 25.1094Z" fill="#001E4A"/>
<path fill-rule="evenodd" clip-rule="evenodd" d="M140.549 21.3144C140.681 21.4508 141.504 20.8816 142.662 20.8992C143.819 20.9006 144.662 21.4832 144.789 21.3489C144.851 21.2895 144.719 21.0444 144.352 20.7804C143.991 20.5184 143.373 20.2598 142.651 20.2537C141.93 20.249 141.32 20.4961 140.968 20.7527C140.608 21.0113 140.484 21.2537 140.549 21.3144Z" fill="#001E4A"/>
<path fill-rule="evenodd" clip-rule="evenodd" d="M151.261 25.2022C151.233 25.7658 151.699 26.254 152.301 26.293C152.902 26.3321 153.414 25.908 153.442 25.3445C153.469 24.7809 153.003 24.292 152.402 24.2529C151.8 24.2132 151.289 24.6386 151.261 25.2022Z" fill="#001E4A"/>
<path fill-rule="evenodd" clip-rule="evenodd" d="M151.939 21.6863C152.071 21.8226 152.896 21.2535 154.053 21.271C155.21 21.2724 156.052 21.8551 156.18 21.7207C156.241 21.6613 156.111 21.4162 155.742 21.1529C155.382 20.8902 154.764 20.6323 154.042 20.6256C153.321 20.6208 152.711 20.8686 152.358 21.1245C152 21.3831 151.875 21.6255 151.939 21.6863Z" fill="#001E4A"/>
<path fill-rule="evenodd" clip-rule="evenodd" d="M147.649 30.5293C147.656 30.4646 146.937 30.3319 145.773 30.17C145.478 30.136 145.199 30.0742 145.152 29.8741C145.085 29.6621 145.213 29.3488 145.36 29.0097C145.648 28.3059 145.948 27.568 146.264 26.7954C147.52 23.6417 148.434 21.0466 148.304 20.998C148.176 20.9494 147.053 23.4652 145.797 26.6189C145.494 27.3971 145.205 28.1385 144.929 28.8478C144.813 29.1786 144.616 29.5531 144.761 29.9929C144.838 30.2124 145.053 30.3743 145.241 30.4271C145.431 30.4869 145.597 30.4917 145.743 30.5022C146.916 30.58 147.644 30.5946 147.649 30.5293Z" fill="#001E4A"/>
<path fill-rule="evenodd" clip-rule="evenodd" d="M151.745 18.1712C151.899 18.4652 153.025 18.1726 154.392 18.1615C155.759 18.1226 156.895 18.3737 157.038 18.0748C157.1 17.9319 156.873 17.6663 156.395 17.4243C155.921 17.1816 155.19 16.9874 154.37 17.0013C153.551 17.0173 152.828 17.2385 152.363 17.4978C151.895 17.7572 151.677 18.0318 151.745 18.1712Z" fill="#001E4A"/>
<path fill-rule="evenodd" clip-rule="evenodd" d="M140.566 17.8861C140.797 18.1624 141.738 17.9092 142.861 17.9287C143.983 17.9135 144.928 18.1704 145.155 17.894C145.254 17.7598 145.112 17.4849 144.704 17.218C144.301 16.951 143.622 16.723 142.851 16.7216C142.079 16.7208 141.405 16.946 141.007 17.2108C140.602 17.477 140.465 17.7512 140.566 17.8861Z" fill="#001E4A"/>
<path fill-rule="evenodd" clip-rule="evenodd" d="M147.564 33.9205C147.634 33.741 148.827 34.2665 150.135 33.6422C151.445 33.02 151.886 31.7156 152.057 31.7805C152.139 31.7971 152.16 32.1603 151.933 32.692C151.713 33.2155 151.196 33.8936 150.396 34.2761C149.595 34.6559 148.782 34.6117 148.274 34.435C147.755 34.2589 147.52 33.9978 147.564 33.9205Z" fill="#001E4A"/>
<path fill-rule="evenodd" clip-rule="evenodd" d="M137.116 143.032C137.116 142.671 141.183 116.778 142.754 113.477C143.999 110.86 153.975 108.818 164.663 104.589C176.168 100.037 189.508 99.7205 189.508 99.7205L172.621 137.944L137.116 143.032Z" fill="#146BFF"/>
<path fill-rule="evenodd" clip-rule="evenodd" d="M147.079 90.7981L131.68 94.1865C131.68 94.1865 127.886 93.9455 127.334 93.958C126.781 93.9697 119.939 95.6387 118.652 96.196C117.366 96.7539 115.856 97.0909 115.856 97.0909L125.556 98.7061L133.944 102.986L135.356 102.694L148.791 103.253L147.079 90.7981Z" fill="#DCE9FF"/>
<path fill-rule="evenodd" clip-rule="evenodd" d="M115.06 99.1296C115.301 99.513 115.752 99.7394 116.206 99.6623C116.296 99.647 116.39 99.6213 116.485 99.5824C117.116 99.324 116.943 98.0328 116.943 98.0328L120.009 97.2757C120.009 97.2757 126.272 100.802 128.34 101.69C136.469 105.186 136.263 100.432 136.263 100.432L131.703 94.3612L125.541 89.7631C125.541 89.7631 125.918 90.0361 125.441 89.1192C124.964 88.2031 123.197 88.7122 123.197 88.7122C122.877 88.2656 121.688 88.1954 121.688 88.1954L116.717 89.1817C115.693 89.3846 114.818 90.0319 114.337 90.9411L112.5 94.414C112.5 94.414 111.584 96.8798 111.812 97.4167C112.157 98.2266 113.038 97.9661 113.038 97.9661C113.038 97.9661 113.42 99.5053 113.843 99.5255C114.265 99.5449 115.06 99.1296 115.06 99.1296Z" fill="#DCE9FF"/>
<path fill-rule="evenodd" clip-rule="evenodd" d="M125.252 93.6583C125.251 93.7102 124.579 93.7053 123.511 93.8396C122.447 93.9794 120.983 94.2861 119.482 94.9298C118.731 95.2482 118.045 95.6143 117.448 95.9874C116.87 96.3715 116.262 96.6989 116.105 97.1468C116.027 97.3662 116.088 97.5773 116.211 97.7268C116.33 97.8756 116.484 97.9677 116.617 98.0085C116.889 98.0922 117.054 98.0057 117.062 98.0348C117.075 98.041 116.918 98.1829 116.586 98.1268C116.426 98.0978 116.235 98.0106 116.073 97.8396C115.91 97.6783 115.797 97.3759 115.889 97.0817C115.972 96.7868 116.202 96.5446 116.453 96.3404C116.71 96.1424 116.981 95.9403 117.286 95.7458C117.887 95.3506 118.586 94.9678 119.354 94.6418C120.891 93.9829 122.399 93.704 123.487 93.6188C124.58 93.5392 125.255 93.6237 125.252 93.6583Z" fill="#07377E"/>
<path fill-rule="evenodd" clip-rule="evenodd" d="M125.917 96.8034C125.919 96.8946 123.858 96.9791 121.347 97.3232C118.834 97.6591 116.83 98.1242 116.806 98.0363C116.795 97.9971 117.283 97.8302 118.092 97.6274C118.902 97.4232 120.035 97.1914 121.301 97.0197C122.567 96.8493 123.724 96.7709 124.56 96.752C125.398 96.7324 125.916 96.7635 125.917 96.8034Z" fill="#07377E"/>
<path fill-rule="evenodd" clip-rule="evenodd" d="M115.143 99.0698C115.127 99.0684 115.089 98.8886 115.036 98.5486C114.986 98.2106 114.923 97.7187 114.909 97.1027C114.904 96.7954 114.908 96.456 114.961 96.0895C115.01 95.7216 115.15 95.3279 115.359 94.9718C115.749 94.2611 116.313 93.5099 117.06 92.9197C117.806 92.3358 118.559 91.832 119.338 91.5247C120.111 91.2195 120.848 91.0975 121.46 91.0188C122.073 90.9449 122.57 90.9171 122.913 90.9003C123.256 90.8857 123.447 90.8871 123.449 90.9094C123.455 90.9596 122.697 91.0488 121.493 91.2397C120.894 91.3456 120.181 91.4878 119.449 91.7944C118.723 92.0947 117.983 92.5992 117.262 93.1636C116.541 93.7364 116.014 94.4241 115.613 95.1161C115.186 95.7801 115.157 96.502 115.134 97.1034C115.116 98.3096 115.212 99.0656 115.143 99.0698Z" fill="#07377E"/>
<path fill-rule="evenodd" clip-rule="evenodd" d="M121.457 89.5174C121.461 89.5642 120.709 89.6467 119.519 89.8836C118.375 90.1555 116.529 90.3946 115.609 92.0539C114.589 93.5783 113.734 95.0098 113.404 96.1526C113.049 97.2898 113.154 98.0475 113.088 98.0475C113.071 98.0489 113.025 97.8644 113.013 97.524C112.998 97.1843 113.029 96.6852 113.185 96.0932C113.471 94.8924 114.316 93.4106 115.341 91.8771C115.603 91.4919 115.892 91.1229 116.236 90.8223C116.578 90.5162 116.991 90.3198 117.373 90.1751C118.147 89.8885 118.872 89.7627 119.478 89.6634C120.693 89.4803 121.454 89.4775 121.457 89.5174Z" fill="#07377E"/>
<path fill-rule="evenodd" clip-rule="evenodd" d="M124.616 100.184C124.61 100.192 124.501 100.124 124.299 99.9854C124.07 99.8336 123.773 99.6374 123.402 99.3924C122.613 98.8913 121.443 98.1815 119.914 97.4354L119.986 97.4424C119.074 97.6756 118.044 97.9379 116.929 98.2219L117.025 98.0841C117.053 98.3325 117.06 98.5775 117.031 98.835C117.001 99.0883 116.944 99.3632 116.743 99.5991C116.638 99.7146 116.48 99.7919 116.347 99.8197C116.212 99.8656 116.063 99.8921 115.913 99.8817C115.613 99.865 115.322 99.7348 115.104 99.5253L114.954 99.3562L114.921 99.3096L114.905 99.2859L114.897 99.2741L114.896 99.2727C114.855 99.2609 115.253 99.3681 115.084 99.3235L115.08 99.3249L115.074 99.3284L114.979 99.3757C114.853 99.4377 114.724 99.4954 114.59 99.549C114.457 99.6019 114.32 99.6513 114.174 99.6889C114.102 99.707 114.027 99.7244 113.946 99.7327C113.871 99.7418 113.78 99.7522 113.654 99.7021C113.468 99.5942 113.393 99.4543 113.315 99.3235C113.241 99.1906 113.178 99.0549 113.124 98.9171C113.014 98.6408 112.927 98.361 112.85 98.0688L113.042 98.1773C112.646 98.2803 112.163 98.2246 111.852 97.8857C111.712 97.7277 111.591 97.5287 111.586 97.2886C111.577 97.0743 111.61 96.8829 111.644 96.6887C111.797 95.9211 112.042 95.1765 112.311 94.4207L112.313 94.4116L112.318 94.4019C112.63 93.8096 112.962 93.1812 113.297 92.5458C113.505 92.1505 113.712 91.7587 113.917 91.369C114.125 90.9918 114.304 90.5722 114.61 90.2221C114.905 89.8748 115.27 89.5923 115.672 89.3926C116.071 89.1824 116.526 89.1003 116.928 89.0244C118.573 88.7015 120.142 88.3939 121.609 88.1065L121.629 88.1023L121.646 88.1037C121.94 88.128 122.218 88.1719 122.493 88.2491C122.762 88.3306 123.048 88.4238 123.256 88.6841L123.077 88.6451C123.589 88.3869 124.204 88.3326 124.695 88.5992C125.188 88.8623 125.445 89.332 125.6 89.7816L125.556 89.7203C127.323 91.035 128.765 92.1081 129.797 92.8757C130.273 93.239 130.653 93.5299 130.94 93.7491C131.2 93.9516 131.333 94.0623 131.326 94.072C131.319 94.0811 131.172 93.9885 130.899 93.8034C130.602 93.5967 130.21 93.3225 129.717 92.9801C128.671 92.2334 127.208 91.1888 125.414 89.9082L125.385 89.8874L125.371 89.847C125.231 89.451 124.981 89.023 124.575 88.8212C124.179 88.6041 123.641 88.657 123.212 88.8769L123.107 88.9312L123.034 88.8379C122.912 88.6827 122.664 88.579 122.417 88.5129C122.168 88.4447 121.895 88.4036 121.629 88.3835L121.665 88.3814C120.2 88.6771 118.633 88.9931 116.989 89.3251C116.57 89.4065 116.178 89.4775 115.814 89.6695C115.45 89.8512 115.121 90.108 114.855 90.4225C114.584 90.7287 114.416 91.1226 114.201 91.5145C113.996 91.9035 113.79 92.296 113.582 92.6913C113.246 93.3267 112.915 93.9551 112.602 94.5466L112.611 94.5278C112.346 95.2676 112.1 96.0144 111.953 96.7444C111.919 96.926 111.891 97.1118 111.897 97.274C111.892 97.416 111.978 97.5614 112.081 97.6804C112.282 97.9156 112.653 97.9644 112.954 97.8899L113.109 97.8516L113.147 97.9978C113.217 98.2734 113.302 98.5503 113.404 98.8092C113.5 99.0549 113.639 99.3514 113.785 99.4425C113.793 99.4453 113.848 99.4571 113.913 99.4453L114.102 99.4098C114.229 99.3778 114.357 99.3333 114.482 99.2845C114.608 99.2351 114.732 99.1808 114.853 99.1224L114.942 99.0785L114.947 99.0758L114.95 99.0744C114.781 99.0291 115.18 99.1356 115.139 99.1252L115.141 99.1266L115.147 99.1356L115.159 99.1544L115.184 99.1913L115.302 99.3256C115.472 99.4919 115.7 99.5942 115.929 99.6095C116.045 99.6186 116.157 99.5991 116.269 99.5615C116.392 99.5344 116.471 99.4926 116.542 99.4209C116.812 99.0932 116.808 98.5482 116.772 98.1168L116.763 98.004L116.867 97.979C117.986 97.7096 119.019 97.4612 119.935 97.2406L119.974 97.2315L120.007 97.2482C121.539 98.027 122.693 98.7654 123.467 99.2985C123.852 99.5678 124.142 99.7856 124.334 99.9387C124.526 100.093 124.622 100.177 124.616 100.184Z" fill="#07377E"/>
<path fill-rule="evenodd" clip-rule="evenodd" d="M143.283 91.2312L163.654 87.2287L167.026 71.55L174.036 52.3192C178.858 54.2638 183.335 58.4541 183.043 63.8848C182.61 71.9358 180.681 89.2108 180.233 93.6632C179.65 99.4714 177.563 103.507 168.913 104.688C160.225 105.875 145.569 105.636 145.569 105.636C145.569 105.636 144.125 107.185 142.303 106.352C139.951 105.277 140.15 103.093 140.15 103.093L139.966 92.1545C139.966 92.1545 141.911 89.888 143.283 91.2312Z" fill="#07B8FF"/>
<path fill-rule="evenodd" clip-rule="evenodd" d="M172.992 53.6218C173.029 53.6592 172.389 54.2507 171.524 55.3412C171.1 55.893 170.613 56.5622 170.137 57.3452C169.666 58.1302 169.198 59.0222 168.779 59.9905C167.953 61.9335 167.502 63.7979 167.277 65.1592C167.045 66.5218 166.998 67.3797 166.938 67.3763C166.917 67.3749 166.914 67.1604 166.927 66.771C166.93 66.3815 166.979 65.8207 167.063 65.1286C167.235 63.7473 167.659 61.8474 168.497 59.8753C168.921 58.8938 169.404 57.9914 169.895 57.2029C170.392 56.4164 170.904 55.7507 171.355 55.2093C171.817 54.6769 172.22 54.2708 172.511 54.0049C172.808 53.7432 172.978 53.6065 172.992 53.6218Z" fill="#001E4A"/>
<path fill-rule="evenodd" clip-rule="evenodd" d="M170.899 94.2363C170.845 94.2487 170.717 93.6658 170.325 92.8012C169.937 91.9372 169.227 90.8102 168.16 89.8153C167.088 88.8247 165.901 88.1892 164.999 87.8555C164.096 87.517 163.495 87.4228 163.505 87.3695C163.508 87.3487 163.66 87.3584 163.933 87.393C164.209 87.4214 164.6 87.5093 165.072 87.6575C165.545 87.8008 166.088 88.0355 166.66 88.3505C167.226 88.6772 167.816 89.0912 168.37 89.5993C168.917 90.1137 169.37 90.6689 169.733 91.2041C170.084 91.7468 170.352 92.2653 170.524 92.7202C170.698 93.1729 170.809 93.5516 170.853 93.8188C170.902 94.0847 170.92 94.2321 170.899 94.2363Z" fill="#001E4A"/>
<path fill-rule="evenodd" clip-rule="evenodd" d="M132.161 104.086C132.047 104.684 131.47 105.089 130.848 105.008L106.434 101.817L85.5225 99.8059L85.1993 98.0474L105.125 99.2319L131.168 102.75C131.83 102.84 132.283 103.447 132.161 104.086Z" fill="#A7CAFF"/>
<path fill-rule="evenodd" clip-rule="evenodd" d="M91.4935 67.4522L105.614 98.8449C106.181 100.096 105.354 101.573 104.138 101.482L79.282 99.1363C78.7276 99.0954 78.2314 98.718 77.9776 98.1456L63.8442 67.0165C63.5614 66.3797 63.9485 65.6249 64.5652 65.6096L90.0601 66.4713C90.6584 66.456 91.2149 66.8369 91.4935 67.4522Z" fill="#A7CAFF"/>
<path fill-rule="evenodd" clip-rule="evenodd" d="M91.4047 67.4138C91.4047 67.4138 91.3756 67.3042 91.2584 67.1178C91.1413 66.9376 90.924 66.6624 90.5116 66.4919C90.3085 66.4011 90.0486 66.3893 89.786 66.3823C89.519 66.3713 89.2279 66.3581 88.9134 66.3449C88.2794 66.3186 87.5517 66.2881 86.7345 66.2548C83.4387 66.1294 78.6989 65.9505 72.8487 65.7287C71.3833 65.6753 69.8476 65.6199 68.2481 65.5617C67.4479 65.5332 66.6321 65.5034 65.8008 65.4736C65.3847 65.4591 64.9651 65.4438 64.542 65.4286C64.3268 65.4036 64.0272 65.4861 63.8512 65.6539C63.6651 65.8188 63.543 66.0406 63.4947 66.2742C63.4429 66.5071 63.4614 66.7553 63.5501 66.9812L63.8142 67.5746C63.9917 67.9662 64.1706 68.3606 64.3503 68.7585C64.7109 69.5542 65.0773 70.3624 65.4486 71.1824C66.1927 72.8224 66.958 74.5102 67.7425 76.241C69.3144 79.7026 70.9637 83.336 72.6733 87.1019C73.5296 88.9845 74.4 90.901 75.2839 92.8453C75.7263 93.8178 76.1721 94.7965 76.6201 95.7829C76.8445 96.2757 77.0695 96.7699 77.2953 97.2662L77.634 98.0114C77.7383 98.2581 77.891 98.5458 78.1097 98.7558C78.3262 98.972 78.6038 99.1384 78.9126 99.2112C79.2392 99.2729 79.4842 99.2743 79.7703 99.3075C80.3241 99.3602 80.8757 99.4115 81.426 99.4635C82.5257 99.5668 83.6191 99.6694 84.7039 99.7712C86.8736 99.9743 89.0114 100.175 91.1122 100.372C95.3138 100.764 99.3664 101.142 103.227 101.502L103.949 101.569C104.191 101.592 104.491 101.583 104.734 101.476C105.237 101.276 105.591 100.845 105.758 100.378C105.934 99.9099 105.933 99.3893 105.778 98.9242C105.601 98.4695 105.405 98.0848 105.222 97.6655C104.479 96.0255 103.758 94.4326 103.06 92.8932C101.664 89.8149 100.363 86.948 99.174 84.3286C96.7934 79.1078 94.8644 74.8783 93.5226 71.9372C92.8538 70.4899 92.3319 69.3601 91.9691 68.5755C91.7938 68.2046 91.6568 67.9156 91.5566 67.7056C91.4622 67.5101 91.4047 67.4138 91.4047 67.4138C91.4047 67.4138 91.4388 67.5198 91.5226 67.7201C91.6141 67.9343 91.7398 68.2275 91.901 68.6053C92.2489 69.3955 92.7494 70.5343 93.3912 71.9941C94.7068 74.9462 96.5989 79.1917 98.9347 84.4312C100.11 87.0562 101.398 89.9299 102.78 93.0138C103.471 94.556 104.188 96.1509 104.925 97.7937C105.102 98.1999 105.312 98.6289 105.465 99.0247C105.596 99.4226 105.596 99.8697 105.445 100.268C105.302 100.666 105 101.017 104.609 101.17C104.409 101.254 104.213 101.259 103.978 101.239L103.257 101.171C99.3962 100.803 95.3437 100.419 91.1434 100.019C89.0426 99.8212 86.9049 99.6188 84.7352 99.4136C83.6503 99.311 82.5577 99.2084 81.4579 99.1044C80.9077 99.0525 80.356 99.0005 79.8022 98.9485C79.5367 98.918 79.2215 98.9048 79.0007 98.8611C78.7657 98.805 78.5484 98.6768 78.3738 98.5028C78.1934 98.3247 78.082 98.1202 77.9726 97.8658L77.6332 97.1207C77.4075 96.6251 77.1824 96.1301 76.9581 95.6373C76.5094 94.6517 76.0635 93.6729 75.6212 92.7012C74.7351 90.7569 73.8626 88.8417 73.0049 86.9598C71.2882 83.1967 69.6325 79.566 68.0542 76.1072C67.2647 74.3785 66.4944 72.6928 65.7461 71.0549C65.3719 70.2356 65.0035 69.4287 64.6399 68.6344C64.4582 68.2372 64.2778 67.8428 64.0996 67.4526L63.8391 66.8738C63.7709 66.704 63.7553 66.5134 63.7951 66.3352C63.8703 65.9762 64.16 65.6753 64.5405 65.7232C64.9637 65.7363 65.3833 65.7502 65.7993 65.7634C66.6307 65.789 67.4465 65.8154 68.2466 65.8403C69.8462 65.8902 71.3819 65.938 72.848 65.9838C78.6975 66.1571 83.438 66.2971 86.7338 66.3948C87.5509 66.4163 88.2787 66.435 88.9127 66.4517C89.2272 66.4593 89.5183 66.4662 89.786 66.4732C90.055 66.4738 90.2858 66.4787 90.4846 66.5598C90.8807 66.7102 91.1023 66.9681 91.2272 67.1386C91.3522 67.3139 91.3962 67.4179 91.4047 67.4138Z" fill="#001E4A"/>
<path fill-rule="evenodd" clip-rule="evenodd" d="M88.9037 66.5394C88.8158 66.5917 92.2292 74.4158 96.5254 84.0128C100.824 93.6133 104.378 101.351 104.466 101.3C104.554 101.248 101.141 93.4261 96.843 83.8256C92.5462 74.2279 88.991 66.4884 88.9037 66.5394Z" fill="#001E4A"/>
<path fill-rule="evenodd" clip-rule="evenodd" d="M84.1241 82.7898C84.9477 84.2927 85.056 85.9336 84.3665 86.4557C83.6763 86.9771 82.4497 86.181 81.6254 84.6781C80.8018 83.1753 80.6928 81.5344 81.383 81.013C82.0732 80.4916 83.2998 81.2869 84.1241 82.7898Z" fill="#E3F7FF"/>
<path fill-rule="evenodd" clip-rule="evenodd" d="M165.699 74.0394C165.694 74.0387 165.677 74.1142 165.65 74.2625C165.621 74.4261 165.582 74.6458 165.533 74.9264C165.434 75.5287 165.292 76.3922 165.11 77.5045C164.751 79.7749 164.233 83.0592 163.582 87.1897L163.671 87.0975C158.243 88.1488 151.296 89.4947 143.32 91.0395L143.468 91.0832C143.225 90.8662 142.923 90.6757 142.566 90.6258C142.212 90.5835 141.86 90.6604 141.543 90.7907C140.904 91.0603 140.381 91.5038 139.911 92.0104L139.871 92.0541L139.872 92.1192C139.927 95.5712 139.985 99.2298 140.045 103.023L140.046 103.005C140.02 103.664 140.191 104.294 140.514 104.871C140.85 105.437 141.347 105.923 141.939 106.245C142.51 106.583 143.244 106.782 143.943 106.65C144.643 106.519 145.265 106.172 145.771 105.675L145.633 105.734C147.925 105.764 150.348 105.76 152.804 105.726C157.249 105.66 161.589 105.505 165.769 105.137C167.855 104.943 169.918 104.727 171.886 104.214C173.842 103.698 175.719 102.861 177.156 101.544C177.877 100.888 178.44 100.104 178.899 99.2887C179.35 98.464 179.642 97.588 179.887 96.7196C180.331 94.9655 180.432 93.2225 180.616 91.5648C180.957 88.2362 181.276 85.1348 181.566 82.3017C182.131 76.6369 182.542 72.0483 182.776 68.8728C182.895 67.2858 182.971 66.0515 183.013 65.2143C183.03 64.8082 183.043 64.4921 183.053 64.262C183.06 64.0472 183.054 63.937 183.054 63.937C183.054 63.937 183.034 64.0458 183.015 64.26C182.997 64.4894 182.971 64.8047 182.939 65.2101C182.868 66.0619 182.765 67.2892 182.633 68.8617C182.355 72.0323 181.904 76.6161 181.306 82.2761C181.002 85.1078 180.669 88.2071 180.312 91.5343C180.121 93.1983 180.012 94.9281 179.573 96.6413C179.33 97.4896 179.043 98.3413 178.606 99.1362C178.159 99.9214 177.616 100.673 176.922 101.302C175.538 102.564 173.717 103.378 171.796 103.881C169.864 104.381 167.817 104.595 165.736 104.785C161.571 105.147 157.237 105.3 152.799 105.364C150.346 105.399 147.924 105.403 145.639 105.375L145.56 105.374L145.5 105.434C145.066 105.861 144.481 106.191 143.88 106.298C143.268 106.409 142.658 106.25 142.121 105.936C141.575 105.641 141.132 105.204 140.829 104.697C140.537 104.188 140.382 103.587 140.403 103.036L140.404 103.018V103.017C140.336 99.2235 140.271 95.5657 140.209 92.1137L140.169 92.2225C140.598 91.7561 141.111 91.3236 141.672 91.0894C141.952 90.9736 142.245 90.9134 142.521 90.9445C142.797 90.9834 143.032 91.1317 143.237 91.3084L143.305 91.368L143.384 91.3521C151.353 89.7699 158.293 88.3914 163.716 87.3144L163.794 87.2992L163.806 87.2223C164.413 83.0855 164.896 79.7957 165.231 77.5219C165.387 76.4054 165.509 75.5398 165.594 74.9355C165.631 74.6527 165.66 74.4323 165.681 74.2674C165.698 74.117 165.705 74.0401 165.699 74.0394Z" fill="#001E4A"/>
</svg>
