<svg width="737" height="549" viewBox="0 0 737 549" fill="none" xmlns="http://www.w3.org/2000/svg">
<circle cx="447.5" cy="279.5" r="352" stroke="#0846A2" stroke-width="65"/>
<ellipse cx="454.182" cy="279.5" rx="236.284" ry="236.892" stroke="#06429B" stroke-width="55"/>
<circle cx="453.574" cy="279.5" r="146.994" stroke="#073E8E" stroke-width="35"/>
<ellipse cx="454.182" cy="275.855" rx="57.7044" ry="57.097" stroke="#083D8B" stroke-width="35"/>
<circle cx="454.181" cy="275.248" r="12.7557" fill="#084FB8"/>
<path d="M452.531 276.359C453.282 277.169 454.547 277.218 455.358 276.468L468.569 264.242C469.379 263.492 469.428 262.226 468.678 261.416C467.928 260.605 466.662 260.556 465.852 261.306L454.109 272.174L443.241 260.431C442.491 259.62 441.226 259.571 440.415 260.321C439.604 261.072 439.555 262.337 440.305 263.148L452.531 276.359ZM401.5 201.5L401.254 203.485L401.5 201.5ZM322.499 316.5L324.443 316.031L322.499 316.5ZM322.499 372L324.264 372.939L322.499 372ZM291.5 347.5L290.353 345.862C290.24 345.941 290.136 346.031 290.042 346.131L291.5 347.5ZM336 369L337.957 368.588L336 369ZM252.499 442.5L252.156 444.47C252.218 444.481 252.282 444.489 252.345 444.494L252.499 442.5ZM217.499 399L218.544 397.295L217.499 399ZM217.499 459L218.845 460.479L217.499 459ZM3.98876 347.288C3.87182 346.19 2.88663 345.394 1.78827 345.511C0.689906 345.628 -0.105697 346.613 0.0112392 347.712L3.98876 347.288ZM0.781084 354.002C0.93266 355.096 1.9425 355.86 3.03662 355.709C4.13074 355.557 4.89482 354.547 4.74324 353.453L0.781084 354.002ZM6.82617 365.577C6.60315 364.495 5.54536 363.799 4.46354 364.022C3.38172 364.245 2.68553 365.303 2.90855 366.385L6.82617 365.577ZM5.8694 378.601C6.16712 379.664 7.27076 380.285 8.33445 379.988C9.39814 379.69 10.0191 378.586 9.72136 377.523L5.8694 378.601ZM13.4591 389.22C13.0842 388.181 11.938 387.642 10.899 388.017C9.86004 388.392 9.32168 389.538 9.69659 390.577L13.4591 389.22ZM14.4124 402.234C14.866 403.241 16.0501 403.69 17.0573 403.236C18.0644 402.783 18.5132 401.599 18.0596 400.591L14.4124 402.234ZM23.5398 411.572C23.0072 410.605 21.791 410.252 20.8233 410.785C19.8556 411.317 19.5029 412.534 20.0355 413.501L23.5398 411.572ZM26.5679 424.293C27.1786 425.214 28.4198 425.465 29.3402 424.854C30.2606 424.243 30.5116 423.002 29.9009 422.082L26.5679 424.293ZM37.1092 432.009C36.4228 431.143 35.1648 430.998 34.2994 431.685C33.434 432.371 33.2888 433.629 33.9752 434.494L37.1092 432.009ZM42.2203 444.02C42.9786 444.823 44.2444 444.859 45.0476 444.101C45.8507 443.343 45.8871 442.077 45.1289 441.274L42.2203 444.02ZM53.9244 449.813C53.099 449.079 51.8349 449.153 51.1008 449.978C50.3667 450.804 50.4406 452.068 51.2659 452.802L53.9244 449.813ZM61.0538 460.766C61.9404 461.425 63.1932 461.24 63.8519 460.354C64.5107 459.467 64.326 458.214 63.4394 457.555L61.0538 460.766ZM73.588 464.423C72.6467 463.845 71.4151 464.139 70.8371 465.08C70.2591 466.022 70.5536 467.253 71.4949 467.831L73.588 464.423ZM82.5255 473.948C83.5144 474.44 84.715 474.038 85.2072 473.049C85.6994 472.06 85.2967 470.859 84.3079 470.367L82.5255 473.948ZM95.5172 475.334C94.4883 474.933 93.3285 475.441 92.9267 476.47C92.5249 477.499 93.0333 478.659 94.0622 479.06L95.5172 475.334ZM106.002 483.112C107.062 483.419 108.172 482.808 108.479 481.747C108.786 480.686 108.175 479.577 107.114 479.27L106.002 483.112ZM119.034 482.136C117.949 481.927 116.901 482.638 116.693 483.723C116.484 484.807 117.195 485.856 118.28 486.064L119.034 482.136ZM130.772 487.86C131.871 487.965 132.848 487.159 132.953 486.06C133.058 484.96 132.252 483.983 131.153 483.878L130.772 487.86ZM143.383 484.455C142.278 484.457 141.384 485.354 141.386 486.458C141.388 487.563 142.285 488.457 143.39 488.455L143.383 484.455ZM156.008 487.799C157.107 487.686 157.906 486.703 157.793 485.604C157.68 484.506 156.697 483.707 155.598 483.82L156.008 487.799ZM167.675 481.933C166.594 482.161 165.903 483.222 166.131 484.303C166.36 485.384 167.421 486.075 168.501 485.846L167.675 481.933ZM180.721 482.559C181.77 482.213 182.34 481.082 181.994 480.033C181.648 478.984 180.518 478.414 179.469 478.76L180.721 482.559ZM190.819 474.284C189.817 474.748 189.38 475.937 189.845 476.939C190.309 477.941 191.498 478.377 192.5 477.913L190.819 474.284ZM203.661 471.914C204.601 471.334 204.892 470.101 204.311 469.162C203.731 468.222 202.498 467.931 201.559 468.511L203.661 471.914ZM211.513 461.486C210.651 462.177 210.513 463.436 211.204 464.298C211.896 465.159 213.154 465.297 214.016 464.606L211.513 461.486ZM223.203 456.202C223.96 455.397 223.921 454.132 223.116 453.375C222.311 452.618 221.046 452.658 220.289 453.462L223.203 456.202ZM227.23 444.439C226.661 445.385 226.967 446.614 227.914 447.183C228.861 447.752 230.089 447.446 230.658 446.499L227.23 444.439ZM235.395 434.999C235.639 433.922 234.963 432.851 233.886 432.607C232.808 432.363 231.737 433.039 231.494 434.116L235.395 434.999ZM231.797 423.139C231.985 424.227 233.02 424.956 234.109 424.768C235.197 424.579 235.927 423.544 235.738 422.456L231.797 423.139ZM231.366 410.744C230.807 409.791 229.581 409.472 228.629 410.031C227.676 410.59 227.357 411.816 227.916 412.768L231.366 410.744ZM220.844 404.067C221.66 404.811 222.925 404.753 223.669 403.937C224.413 403.121 224.355 401.856 223.539 401.112L220.844 404.067ZM213.43 394.942C212.374 394.619 211.255 395.213 210.932 396.269C210.609 397.325 211.203 398.444 212.259 398.767L213.43 394.942ZM203.875 399.406C204.841 398.869 205.189 397.652 204.653 396.686C204.116 395.721 202.899 395.373 201.933 395.909L203.875 399.406ZM194.746 404.831C194.381 405.874 194.93 407.015 195.973 407.38C197.015 407.745 198.156 407.196 198.521 406.153L194.746 404.831ZM197.926 415.243C197.721 414.158 196.674 413.445 195.589 413.65C194.504 413.855 193.79 414.901 193.995 415.987L197.926 415.243ZM198.623 426.099C199.319 426.957 200.578 427.088 201.436 426.392C202.294 425.696 202.425 424.437 201.729 423.579L198.623 426.099ZM209.059 429.462C208.093 428.927 206.876 429.277 206.341 430.243C205.806 431.21 206.156 432.427 207.122 432.962L209.059 429.462ZM216.881 437.074C217.931 437.416 219.06 436.841 219.402 435.791C219.744 434.741 219.169 433.612 218.119 433.27L216.881 437.074ZM227.813 435.883C226.735 435.639 225.664 436.314 225.419 437.391C225.175 438.468 225.85 439.539 226.927 439.784L227.813 435.883ZM237.026 441.827C238.112 442.027 239.155 441.308 239.354 440.222C239.554 439.136 238.836 438.093 237.749 437.893L237.026 441.827ZM247.799 439.66C246.71 439.473 245.676 440.204 245.489 441.292C245.302 442.381 246.033 443.415 247.121 443.602L247.799 439.66ZM258.831 444.717C259.935 444.709 260.824 443.807 260.816 442.702C260.807 441.598 259.905 440.709 258.801 440.717L258.831 444.717ZM271.064 439.634C269.974 439.817 269.24 440.849 269.423 441.938C269.606 443.027 270.638 443.762 271.727 443.579L271.064 439.634ZM284.279 440.488C285.33 440.146 285.904 439.018 285.562 437.968C285.22 436.917 284.092 436.343 283.041 436.685L284.279 440.488ZM294.484 432.038C293.492 432.525 293.083 433.723 293.569 434.715C294.056 435.706 295.254 436.116 296.246 435.629L294.484 432.038ZM307.412 429.139C308.325 428.518 308.562 427.274 307.941 426.361C307.32 425.447 306.076 425.211 305.162 425.832L307.412 429.139ZM314.827 418.167C314.015 418.917 313.965 420.182 314.715 420.993C315.464 421.805 316.73 421.855 317.541 421.105L314.827 418.167ZM326.315 411.57C326.992 410.696 326.832 409.44 325.958 408.764C325.085 408.088 323.829 408.247 323.153 409.121L326.315 411.57ZM329.69 398.784C329.197 399.772 329.599 400.973 330.588 401.466C331.576 401.959 332.777 401.557 333.27 400.569L329.69 398.784ZM337.718 388.258C337.962 387.181 337.288 386.109 336.21 385.865C335.133 385.62 334.062 386.295 333.817 387.372L337.718 388.258ZM334.842 375.381C334.907 376.483 335.853 377.325 336.956 377.26C338.058 377.195 338.9 376.249 338.835 375.146L334.842 375.381ZM335.809 361.158C335.418 360.125 334.263 359.605 333.23 359.997C332.197 360.388 331.678 361.543 332.069 362.576L335.809 361.158ZM324.566 351.015C325.379 351.763 326.644 351.711 327.392 350.898C328.14 350.085 328.088 348.82 327.275 348.072L324.566 351.015ZM313.127 341.132C312.04 340.941 311.003 341.669 310.812 342.757C310.621 343.845 311.348 344.881 312.436 345.072L313.127 341.132ZM298.764 346.132C299.812 345.783 300.379 344.651 300.03 343.603C299.682 342.555 298.549 341.988 297.501 342.337L298.764 346.132ZM286.03 351.335C285.451 352.276 285.745 353.507 286.686 354.086C287.626 354.665 288.858 354.372 289.437 353.431L286.03 351.335ZM286.245 364.061C286.249 362.956 285.356 362.058 284.252 362.054C283.147 362.05 282.249 362.943 282.245 364.047L286.245 364.061ZM286.144 376.792C286.758 377.71 288.001 377.956 288.919 377.341C289.836 376.727 290.082 375.484 289.468 374.567L286.144 376.792ZM297.93 381.63C296.912 381.201 295.739 381.677 295.31 382.695C294.88 383.713 295.357 384.886 296.374 385.315L297.93 381.63ZM309.8 386.118C310.857 385.796 311.452 384.678 311.13 383.622C310.808 382.565 309.69 381.97 308.634 382.292L309.8 386.118ZM317.571 375.905C316.877 376.764 317.012 378.024 317.871 378.717C318.731 379.411 319.99 379.276 320.684 378.417L317.571 375.905ZM327.506 366.321C327.952 365.31 327.495 364.129 326.484 363.683C325.474 363.237 324.293 363.695 323.847 364.706L327.506 366.321ZM327.615 351.512C327.514 352.612 328.324 353.585 329.424 353.685C330.524 353.786 331.497 352.976 331.598 351.876L327.615 351.512ZM330.05 336.938C329.786 335.865 328.702 335.21 327.629 335.475C326.557 335.74 325.902 336.823 326.167 337.896L330.05 336.938ZM322.36 324.015C322.648 325.082 323.746 325.713 324.812 325.424C325.879 325.136 326.51 324.038 326.222 322.972L322.36 324.015ZM323.409 310.631C323.249 309.538 322.233 308.782 321.14 308.941C320.047 309.101 319.291 310.117 319.451 311.21L323.409 310.631ZM318.623 299.546C318.627 300.65 319.526 301.543 320.63 301.539C321.735 301.535 322.627 300.636 322.623 299.532L318.623 299.546ZM323.219 288.38C323.337 287.281 322.542 286.296 321.444 286.178C320.345 286.06 319.36 286.855 319.242 287.954L323.219 288.38ZM321.031 276.501C320.81 277.583 321.508 278.64 322.59 278.861C323.672 279.082 324.729 278.384 324.95 277.302L321.031 276.501ZM327.685 266.413C328.001 265.354 327.399 264.24 326.341 263.924C325.282 263.608 324.168 264.21 323.852 265.268L327.685 266.413ZM327.647 254.33C327.239 255.356 327.741 256.519 328.767 256.927C329.794 257.335 330.957 256.833 331.365 255.807L327.647 254.33ZM335.979 245.586C336.48 244.601 336.089 243.397 335.104 242.896C334.12 242.395 332.916 242.786 332.415 243.77L335.979 245.586ZM338.195 233.706C337.596 234.634 337.862 235.872 338.79 236.471C339.717 237.071 340.955 236.805 341.555 235.877L338.195 233.706ZM348.141 226.863C348.845 226.012 348.726 224.751 347.875 224.047C347.024 223.343 345.764 223.462 345.059 224.313L348.141 226.863ZM353.089 215.845C352.274 216.59 352.217 217.855 352.963 218.67C353.708 219.486 354.973 219.542 355.788 218.797L353.089 215.845ZM364.521 212.012C365.448 211.411 365.712 210.173 365.11 209.246C364.509 208.319 363.27 208.056 362.344 208.657L364.521 212.012ZM372.77 203.203C371.746 203.617 371.251 204.783 371.666 205.807C372.08 206.831 373.246 207.325 374.27 206.911L372.77 203.203ZM384.804 203.867C385.891 203.672 386.615 202.633 386.421 201.546C386.226 200.459 385.187 199.735 384.1 199.929L384.804 203.867ZM395.868 199.066C394.764 199.035 393.843 199.904 393.812 201.009C393.781 202.113 394.651 203.033 395.755 203.064L395.868 199.066ZM407.249 204.508C408.328 204.745 409.395 204.063 409.632 202.985C409.87 201.906 409.188 200.839 408.109 200.601L407.249 204.508ZM420.344 204.679C419.341 204.215 418.152 204.653 417.689 205.656C417.226 206.658 417.663 207.847 418.666 208.31L420.344 204.679ZM428.879 214.606C429.742 215.296 431 215.155 431.69 214.292C432.379 213.429 432.238 212.17 431.375 211.481L428.879 214.606ZM440.459 220.697C439.779 219.827 438.522 219.672 437.652 220.353C436.781 221.033 436.627 222.29 437.307 223.16L440.459 220.697ZM443.716 233.4C444.208 234.389 445.408 234.792 446.397 234.3C447.386 233.808 447.789 232.607 447.297 231.618L443.716 233.4ZM452.006 243.545C451.684 242.488 450.567 241.892 449.51 242.214C448.454 242.536 447.858 243.654 448.18 244.711L452.006 243.545ZM450.898 256.619C451.071 257.71 452.095 258.455 453.186 258.283C454.277 258.111 455.022 257.087 454.85 255.996L450.898 256.619ZM456.027 268.701C455.995 267.597 455.075 266.728 453.971 266.759C452.867 266.791 451.997 267.711 452.029 268.816L456.027 268.701ZM0.0112392 347.712C0.236933 349.832 0.493801 351.929 0.781084 354.002L4.74324 353.453C4.46178 351.422 4.21003 349.367 3.98876 347.288L0.0112392 347.712ZM2.90855 366.385C3.76941 370.56 4.75875 374.633 5.8694 378.601L9.72136 377.523C8.63599 373.645 7.66849 369.663 6.82617 365.577L2.90855 366.385ZM9.69659 390.577C11.1418 394.583 12.7167 398.468 14.4124 402.234L18.0596 400.591C16.4062 396.92 14.8698 393.129 13.4591 389.22L9.69659 390.577ZM20.0355 413.501C22.0906 417.235 24.2716 420.833 26.5679 424.293L29.9009 422.082C27.6656 418.713 25.5418 415.21 23.5398 411.572L20.0355 413.501ZM33.9752 434.494C36.6136 437.821 39.366 440.996 42.2203 444.02L45.1289 441.274C42.3531 438.333 39.6759 435.245 37.1092 432.009L33.9752 434.494ZM51.2659 452.802C54.4367 455.622 57.7039 458.277 61.0538 460.766L63.4394 457.555C60.1831 455.136 57.007 452.555 53.9244 449.813L51.2659 452.802ZM71.4949 467.831C75.1038 470.047 78.7857 472.087 82.5255 473.948L84.3079 470.367C80.6738 468.558 77.0956 466.577 73.588 464.423L71.4949 467.831ZM94.0622 479.06C98.0023 480.599 101.987 481.95 106.002 483.112L107.114 479.27C103.216 478.141 99.3451 476.829 95.5172 475.334L94.0622 479.06ZM118.28 486.064C122.436 486.862 126.606 487.461 130.772 487.86L131.153 483.878C127.113 483.491 123.068 482.91 119.034 482.136L118.28 486.064ZM143.39 488.455C147.625 488.447 151.837 488.229 156.008 487.799L155.598 483.82C151.563 484.236 147.485 484.447 143.383 484.455L143.39 488.455ZM168.501 485.846C172.643 484.972 176.723 483.876 180.721 482.559L179.469 478.76C175.613 480.03 171.676 481.088 167.675 481.933L168.501 485.846ZM192.5 477.913C196.33 476.14 200.057 474.14 203.661 471.914L201.559 468.511C198.093 470.652 194.507 472.576 190.819 474.284L192.5 477.913ZM214.016 464.606C215.661 463.286 217.272 461.91 218.845 460.479L216.153 457.521C214.641 458.896 213.094 460.217 211.513 461.486L214.016 464.606ZM218.845 460.479C220.419 459.047 221.87 457.621 223.203 456.202L220.289 453.462C219.031 454.801 217.655 456.154 216.153 457.521L218.845 460.479ZM230.658 446.499C233.027 442.557 234.555 438.71 235.395 434.999L231.494 434.116C230.754 437.382 229.396 440.835 227.23 444.439L230.658 446.499ZM235.738 422.456C234.983 418.1 233.374 414.164 231.366 410.744L227.916 412.768C229.721 415.842 231.136 419.328 231.797 423.139L235.738 422.456ZM223.539 401.112C221.798 399.523 220.08 398.236 218.544 397.295L216.453 400.705C217.75 401.5 219.267 402.629 220.844 404.067L223.539 401.112ZM218.544 397.295C216.811 396.233 215.102 395.454 213.43 394.942L212.259 398.767C213.574 399.17 214.977 399.8 216.453 400.705L218.544 397.295ZM201.933 395.909C198.544 397.791 196.077 401.03 194.746 404.831L198.521 406.153C199.585 403.114 201.483 400.734 203.875 399.406L201.933 395.909ZM193.995 415.987C194.332 417.767 194.886 419.558 195.675 421.318L199.325 419.682C198.665 418.209 198.204 416.718 197.926 415.243L193.995 415.987ZM195.675 421.318C196.455 423.059 197.446 424.647 198.623 426.099L201.729 423.579C200.763 422.387 199.958 421.094 199.325 419.682L195.675 421.318ZM207.122 432.962C210.036 434.574 213.323 435.915 216.881 437.074L218.119 433.27C214.725 432.166 211.689 430.917 209.059 429.462L207.122 432.962ZM226.927 439.784C230.155 440.517 233.537 441.185 237.026 441.827L237.749 437.893C234.291 437.257 230.968 436.6 227.813 435.883L226.927 439.784ZM247.121 443.602C248.785 443.888 250.464 444.176 252.156 444.47L252.842 440.53C251.144 440.234 249.461 439.945 247.799 439.66L247.121 443.602ZM252.345 444.494C254.509 444.661 256.673 444.733 258.831 444.717L258.801 440.717C256.753 440.733 254.701 440.664 252.652 440.506L252.345 444.494ZM271.727 443.579C275.993 442.861 280.192 441.819 284.279 440.488L283.041 436.685C279.135 437.956 275.128 438.951 271.064 439.634L271.727 443.579ZM296.246 435.629C300.144 433.716 303.882 431.54 307.412 429.139L305.162 425.832C301.788 428.127 298.213 430.208 294.484 432.038L296.246 435.629ZM317.541 421.105C320.768 418.124 323.713 414.931 326.315 411.57L323.153 409.121C320.693 412.298 317.9 415.328 314.827 418.167L317.541 421.105ZM333.27 400.569C335.251 396.595 336.761 392.472 337.718 388.258L333.817 387.372C332.937 391.25 331.541 395.072 329.69 398.784L333.27 400.569ZM338.835 375.146C338.707 372.962 338.417 370.773 337.957 368.588L334.043 369.412C334.462 371.401 334.725 373.393 334.842 375.381L338.835 375.146ZM337.957 368.588C337.39 365.894 336.668 363.421 335.809 361.158L332.069 362.576C332.849 364.632 333.515 366.905 334.043 369.412L337.957 368.588ZM327.275 348.072C323.034 344.169 318.094 342.003 313.127 341.132L312.436 345.072C316.725 345.824 320.943 347.681 324.566 351.015L327.275 348.072ZM297.501 342.337C294.841 343.221 292.405 344.425 290.353 345.862L292.647 349.139C294.349 347.947 296.431 346.908 298.764 346.132L297.501 342.337ZM290.042 346.131C288.447 347.83 287.116 349.571 286.03 351.335L289.437 353.431C290.372 351.911 291.536 350.383 292.958 348.869L290.042 346.131ZM282.245 364.047C282.23 368.762 283.707 373.153 286.144 376.792L289.468 374.567C287.441 371.539 286.232 367.92 286.245 364.061L282.245 364.047ZM296.374 385.315C300.519 387.065 305.205 387.519 309.8 386.118L308.634 382.292C305.027 383.392 301.306 383.055 297.93 381.63L296.374 385.315ZM320.684 378.417C321.966 376.828 323.165 375.006 324.264 372.939L320.733 371.061C319.742 372.923 318.68 374.53 317.571 375.905L320.684 378.417ZM324.264 372.939C325.519 370.581 326.595 368.387 327.506 366.321L323.847 364.706C322.981 366.667 321.95 368.772 320.733 371.061L324.264 372.939ZM331.598 351.876C332.063 346.793 331.335 342.146 330.05 336.938L326.167 337.896C327.403 342.91 328.021 347.064 327.615 351.512L331.598 351.876ZM326.222 322.972C325.64 320.819 325.042 318.517 324.443 316.031L320.554 316.968C321.164 319.497 321.771 321.835 322.36 324.015L326.222 322.972ZM324.443 316.031C324.027 314.305 323.682 312.501 323.409 310.631L319.451 311.21C319.74 313.192 320.108 315.115 320.554 316.968L324.443 316.031ZM322.623 299.532C322.611 295.933 322.811 292.198 323.219 288.38L319.242 287.954C318.819 291.908 318.61 295.79 318.623 299.546L322.623 299.532ZM324.95 277.302C325.689 273.683 326.602 270.039 327.685 266.413L323.852 265.268C322.736 269.008 321.794 272.766 321.031 276.501L324.95 277.302ZM331.365 255.807C332.746 252.329 334.286 248.91 335.979 245.586L332.415 243.77C330.663 247.209 329.073 250.742 327.647 254.33L331.365 255.807ZM341.555 235.877C343.598 232.715 345.795 229.698 348.141 226.863L345.059 224.313C342.606 227.276 340.317 230.422 338.195 233.706L341.555 235.877ZM355.788 218.797C358.547 216.275 361.46 214 364.521 212.012L362.344 208.657C359.084 210.773 355.998 213.186 353.089 215.845L355.788 218.797ZM374.27 206.911C377.634 205.55 381.146 204.52 384.804 203.867L384.1 199.929C380.161 200.633 376.382 201.741 372.77 203.203L374.27 206.911ZM395.755 203.064C397.556 203.115 399.389 203.253 401.254 203.485L401.746 199.515C399.757 199.268 397.798 199.12 395.868 199.066L395.755 203.064ZM401.254 203.485C403.334 203.743 405.331 204.086 407.249 204.508L408.109 200.601C406.066 200.152 403.946 199.788 401.746 199.515L401.254 203.485ZM418.666 208.31C422.46 210.063 425.852 212.189 428.879 214.606L431.375 211.481C428.101 208.866 424.435 206.569 420.344 204.679L418.666 208.31ZM437.307 223.16C439.803 226.355 441.926 229.801 443.716 233.4L447.297 231.618C445.399 227.804 443.137 224.125 440.459 220.697L437.307 223.16ZM448.18 244.711C449.388 248.676 450.278 252.685 450.898 256.619L454.85 255.996C454.203 251.895 453.274 247.704 452.006 243.545L448.18 244.711ZM452.029 268.816C452.089 270.933 452.076 272.977 452.001 274.923L455.998 275.077C456.077 273.041 456.09 270.908 456.027 268.701L452.029 268.816Z" fill="#07B8FF"/>
</svg>
