<svg width="28" height="29" viewBox="0 0 28 29" fill="none" xmlns="http://www.w3.org/2000/svg">
<path d="M1.39212 3.72643L3.87494 1.24362C4.20966 0.909361 4.6127 0.651429 5.05643 0.487502C5.50015 0.323575 5.97408 0.257527 6.44572 0.293887C6.91736 0.330247 7.37557 0.468155 7.78893 0.698157C8.20228 0.928159 8.56103 1.24482 8.84056 1.62643L11.2577 4.90768C11.5594 5.32144 11.7601 5.80007 11.8436 6.30526C11.9272 6.81045 11.8914 7.32819 11.739 7.81705L11.5968 8.23268C11.3015 9.20612 10.9187 10.4202 10.6781 11.2296C10.6032 11.483 10.6226 11.755 10.7327 11.9952C11.3256 13.1948 12.0922 14.3005 13.0077 15.2764C13.1103 15.3781 13.1916 15.4991 13.2472 15.6324C13.3027 15.7656 13.3313 15.9086 13.3313 16.053C13.3313 16.1974 13.3027 16.3403 13.2472 16.4736C13.1916 16.6069 13.1103 16.7279 13.0077 16.8296C12.8028 17.0333 12.5256 17.1476 12.2367 17.1476C11.9477 17.1476 11.6705 17.0333 11.4656 16.8296C10.3788 15.694 9.47152 14.3995 8.77493 12.9905C8.40938 12.2529 8.34277 11.4026 8.589 10.6171C8.81869 9.82955 9.21244 8.58268 9.51869 7.60924L9.64994 7.18268C9.69116 7.0188 9.69385 6.84759 9.6578 6.68249C9.62174 6.51739 9.54792 6.36289 9.44212 6.23112L7.02494 2.94987C6.93202 2.82301 6.81283 2.71768 6.67552 2.64106C6.5382 2.56444 6.38598 2.51833 6.22923 2.50588C6.07247 2.49342 5.91487 2.51491 5.76718 2.56888C5.61948 2.62285 5.48516 2.70803 5.37337 2.81862L4.64056 3.55143L6.82806 6.94205C6.934 7.10717 6.99358 7.29775 7.00055 7.49381C7.00752 7.68987 6.96163 7.8842 6.86769 8.05642C6.77374 8.22865 6.63521 8.37245 6.46659 8.47273C6.29798 8.57302 6.1055 8.6261 5.90931 8.62643C5.72731 8.62731 5.54797 8.58276 5.38754 8.49681C5.22711 8.41087 5.09066 8.28624 4.99056 8.13424L3.05462 5.13737L2.87962 5.30143C2.6256 5.5778 2.42903 5.9019 2.30135 6.2549C2.17367 6.6079 2.11742 6.98275 2.13587 7.35768C2.13587 9.28268 3.43744 12.8264 9.49681 18.7764C15.8515 25.0108 20.8937 27.5264 22.9827 25.4155L25.5312 22.8999C25.6422 22.7888 25.728 22.6551 25.7827 22.5079C25.8375 22.3607 25.8599 22.2034 25.8484 22.0467C25.8358 21.8892 25.7892 21.7362 25.7117 21.5983C25.6343 21.4605 25.5279 21.3411 25.3999 21.2483L22.1187 18.8311C21.9819 18.7311 21.8238 18.6642 21.6568 18.6357C21.4897 18.6073 21.3184 18.618 21.1562 18.6671L19.089 19.3124L21.4187 20.9639C21.537 21.0468 21.6377 21.1523 21.715 21.2743C21.7923 21.3964 21.8446 21.5325 21.869 21.6748C21.8935 21.8172 21.8894 21.963 21.8572 22.1038C21.8249 22.2446 21.7651 22.3776 21.6812 22.4952C21.5795 22.638 21.4449 22.7544 21.2888 22.8343C21.1327 22.9143 20.9597 22.9555 20.7843 22.9546C20.5613 22.954 20.3438 22.8853 20.1609 22.7577L16.0046 19.8374C15.8855 19.7553 15.7838 19.6504 15.7054 19.5288C15.6271 19.4072 15.5737 19.2712 15.5482 19.1288C15.5228 18.9864 15.5259 18.8404 15.5573 18.6991C15.5887 18.5579 15.6478 18.4243 15.7312 18.3061C15.876 18.1148 16.0797 17.9765 16.3109 17.9124L20.4671 16.578C20.956 16.4256 21.4737 16.3898 21.9789 16.4734C22.4841 16.5569 22.9627 16.7576 23.3765 17.0592L26.6577 19.4764C27.0394 19.756 27.356 20.1147 27.586 20.5281C27.816 20.9414 27.9539 21.3996 27.9903 21.8713C28.0267 22.3429 27.9606 22.8168 27.7967 23.2606C27.6328 23.7043 27.3748 24.1073 27.0406 24.4421L24.5577 26.9358C24.1104 27.3826 23.5778 27.7349 22.9915 27.9716C22.4053 28.2084 21.7774 28.3248 21.1452 28.3139C18.389 28.3139 14.2327 26.3999 8.02025 20.3077C2.7265 15.1124 0.0249367 10.7483 0.00306129 7.3358C-0.0236816 6.67127 0.085743 6.00828 0.324617 5.38758C0.563492 4.76688 0.926769 4.20159 1.39212 3.72643Z" fill="#146BFF"/>
</svg>
