<svg width="624" height="491" viewBox="0 0 624 491" fill="none" xmlns="http://www.w3.org/2000/svg">
<g filter="url(#filter0_d_992_7)">
<path d="M254.268 85.7301C265.987 85.7301 275.487 76.5242 275.487 65.1682C275.487 53.8121 265.987 44.6062 254.268 44.6062C242.549 44.6062 233.049 53.8121 233.049 65.1682C233.049 76.5242 242.549 85.7301 254.268 85.7301Z" fill="#0250C4"/>
</g>
<g filter="url(#filter1_d_992_7)">
<path d="M218 458.875C224.627 458.875 230 453.6 230 447.093C230 440.586 224.627 435.311 218 435.311C211.373 435.311 206 440.586 206 447.093C206 453.6 211.373 458.875 218 458.875Z" fill="#0250C4"/>
</g>
<g filter="url(#filter2_d_992_7)">
<path d="M173 193.783C182.389 193.783 190 186.53 190 177.583C190 168.636 182.389 161.383 173 161.383C163.611 161.383 156 168.636 156 177.583C156 186.53 163.611 193.783 173 193.783Z" fill="#0250C4"/>
</g>
<g filter="url(#filter3_d_992_7)">
<path d="M400.5 125.056C410.165 125.056 418 117.583 418 108.365C418 99.1466 410.165 91.6738 400.5 91.6738C390.835 91.6738 383 99.1466 383 108.365C383 117.583 390.835 125.056 400.5 125.056Z" fill="#0250C4"/>
</g>
<g filter="url(#filter4_d_992_7)">
<path d="M494.971 275.072C513.038 275.072 527.683 260.879 527.683 243.372C527.683 225.865 513.038 211.672 494.971 211.672C476.904 211.672 462.258 225.865 462.258 243.372C462.258 260.879 476.904 275.072 494.971 275.072Z" fill="#0250C4"/>
</g>
<g filter="url(#filter5_d_992_7)">
<path d="M386.5 432.366C398.374 432.366 408 423.135 408 411.748C408 400.361 398.374 391.129 386.5 391.129C374.626 391.129 365 400.361 365 411.748C365 423.135 374.626 432.366 386.5 432.366Z" fill="#0250C4"/>
</g>
<g filter="url(#filter6_d_992_7)">
<path d="M115.461 304.844C133.528 304.844 148.174 290.651 148.174 273.144C148.174 255.637 133.528 241.444 115.461 241.444C97.3944 241.444 82.7485 255.637 82.7485 273.144C82.7485 290.651 97.3944 304.844 115.461 304.844Z" fill="#0250C4"/>
</g>
<g filter="url(#filter7_d_992_7)">
<path d="M130.933 403.37C138.013 403.37 143.753 397.808 143.753 390.947C143.753 384.086 138.013 378.524 130.933 378.524C123.853 378.524 118.113 384.086 118.113 390.947C118.113 397.808 123.853 403.37 130.933 403.37Z" fill="#0043A6"/>
</g>
<g filter="url(#filter8_d_992_7)">
<path d="M500.558 438.925C507.638 438.925 513.377 433.363 513.377 426.502C513.377 419.641 507.638 414.079 500.558 414.079C493.477 414.079 487.738 419.641 487.738 426.502C487.738 433.363 493.477 438.925 500.558 438.925Z" fill="#0043A6"/>
</g>
<g filter="url(#filter9_d_992_7)">
<path d="M501.602 59.1712C508.682 59.1712 514.422 53.6093 514.422 46.7483C514.422 39.8873 508.682 34.3254 501.602 34.3254C494.522 34.3254 488.782 39.8873 488.782 46.7483C488.782 53.6093 494.522 59.1712 501.602 59.1712Z" fill="#0043A6"/>
</g>
<g filter="url(#filter10_d_992_7)">
<path d="M74.3491 79.9473C81.4293 79.9473 87.1689 74.3854 87.1689 67.5244C87.1689 60.6635 81.4293 55.1016 74.3491 55.1016C67.2689 55.1016 61.5293 60.6635 61.5293 67.5244C61.5293 74.3854 67.2689 79.9473 74.3491 79.9473Z" fill="#0043A6"/>
</g>
<g filter="url(#filter11_d_992_7)">
<path d="M45 392.111C51.0751 392.111 56 387.276 56 381.311C56 375.347 51.0751 370.511 45 370.511C38.9249 370.511 34 375.347 34 381.311C34 387.276 38.9249 392.111 45 392.111Z" fill="#0043A6"/>
</g>
<g filter="url(#filter12_d_992_7)">
<path d="M577.033 489.688C584.113 489.688 589.852 484.126 589.852 477.265C589.852 470.404 584.113 464.842 577.033 464.842C569.952 464.842 564.213 470.404 564.213 477.265C564.213 484.126 569.952 489.688 577.033 489.688Z" fill="#0043A6"/>
</g>
<path d="M472.647 401.014C472.647 404.227 469.994 407.011 466.458 407.011C463.142 407.011 460.269 404.441 460.269 401.014C460.269 397.801 462.921 395.017 466.458 395.017C469.994 395.017 472.647 397.801 472.647 401.014Z" fill="url(#paint0_radial_992_7)"/>
<path d="M472.558 86.0046C472.558 89.2174 469.906 92.0018 466.37 92.0018C463.054 92.0018 460.181 89.4316 460.181 86.0046C460.181 82.7918 462.833 80.0073 466.37 80.0073C469.906 80.0073 472.558 82.7918 472.558 86.0046Z" fill="url(#paint1_radial_992_7)"/>
<path d="M74.1283 460.772C77.5463 460.772 80.3172 458.087 80.3172 454.775C80.3172 451.463 77.5463 448.778 74.1283 448.778C70.7103 448.778 67.9395 451.463 67.9395 454.775C67.9395 458.087 70.7103 460.772 74.1283 460.772Z" fill="url(#paint2_radial_992_7)"/>
<path d="M600.685 389.662C600.685 392.875 598.033 395.659 594.496 395.659C591.181 395.659 588.307 393.089 588.307 389.662C588.307 386.449 590.96 383.665 594.496 383.665C598.033 383.665 600.685 386.235 600.685 389.662Z" fill="url(#paint3_radial_992_7)"/>
<path d="M540.282 123.427C540.282 126.64 537.63 129.425 534.094 129.425C530.778 129.425 527.905 126.854 527.905 123.427C527.905 120.215 530.557 117.43 534.094 117.43C537.63 117.43 540.282 120.215 540.282 123.427Z" fill="url(#paint4_radial_992_7)"/>
<path d="M172.929 108.22C176.347 108.22 179.118 105.535 179.118 102.223C179.118 98.9106 176.347 96.2256 172.929 96.2256C169.511 96.2256 166.74 98.9106 166.74 102.223C166.74 105.535 169.511 108.22 172.929 108.22Z" fill="url(#paint5_radial_992_7)"/>
<path d="M163.866 50.6037C163.866 53.8165 161.214 56.6009 157.678 56.6009C154.362 56.6009 151.489 54.0307 151.489 50.6037C151.489 47.3909 154.141 44.6064 157.678 44.6064C161.214 44.6064 163.866 47.3909 163.866 50.6037Z" fill="url(#paint6_radial_992_7)"/>
<defs>
<filter id="filter0_d_992_7" x="199.049" y="10.6062" width="110.438" height="109.124" filterUnits="userSpaceOnUse" color-interpolation-filters="sRGB">
<feFlood flood-opacity="0" result="BackgroundImageFix"/>
<feColorMatrix in="SourceAlpha" type="matrix" values="0 0 0 0 0 0 0 0 0 0 0 0 0 0 0 0 0 0 127 0" result="hardAlpha"/>
<feOffset/>
<feGaussianBlur stdDeviation="17"/>
<feComposite in2="hardAlpha" operator="out"/>
<feColorMatrix type="matrix" values="0 0 0 0 0.154167 0 0 0 0 0.495343 0 0 0 0 1 0 0 0 1 0"/>
<feBlend mode="normal" in2="BackgroundImageFix" result="effect1_dropShadow_992_7"/>
<feBlend mode="normal" in="SourceGraphic" in2="effect1_dropShadow_992_7" result="shape"/>
</filter>
<filter id="filter1_d_992_7" x="172" y="401.311" width="92" height="91.5637" filterUnits="userSpaceOnUse" color-interpolation-filters="sRGB">
<feFlood flood-opacity="0" result="BackgroundImageFix"/>
<feColorMatrix in="SourceAlpha" type="matrix" values="0 0 0 0 0 0 0 0 0 0 0 0 0 0 0 0 0 0 127 0" result="hardAlpha"/>
<feOffset/>
<feGaussianBlur stdDeviation="17"/>
<feComposite in2="hardAlpha" operator="out"/>
<feColorMatrix type="matrix" values="0 0 0 0 0.154167 0 0 0 0 0.495343 0 0 0 0 1 0 0 0 1 0"/>
<feBlend mode="normal" in2="BackgroundImageFix" result="effect1_dropShadow_992_7"/>
<feBlend mode="normal" in="SourceGraphic" in2="effect1_dropShadow_992_7" result="shape"/>
</filter>
<filter id="filter2_d_992_7" x="122" y="127.383" width="102" height="100.4" filterUnits="userSpaceOnUse" color-interpolation-filters="sRGB">
<feFlood flood-opacity="0" result="BackgroundImageFix"/>
<feColorMatrix in="SourceAlpha" type="matrix" values="0 0 0 0 0 0 0 0 0 0 0 0 0 0 0 0 0 0 127 0" result="hardAlpha"/>
<feOffset/>
<feGaussianBlur stdDeviation="17"/>
<feComposite in2="hardAlpha" operator="out"/>
<feColorMatrix type="matrix" values="0 0 0 0 0.154167 0 0 0 0 0.495343 0 0 0 0 1 0 0 0 1 0"/>
<feBlend mode="normal" in2="BackgroundImageFix" result="effect1_dropShadow_992_7"/>
<feBlend mode="normal" in="SourceGraphic" in2="effect1_dropShadow_992_7" result="shape"/>
</filter>
<filter id="filter3_d_992_7" x="349" y="57.6738" width="103" height="101.382" filterUnits="userSpaceOnUse" color-interpolation-filters="sRGB">
<feFlood flood-opacity="0" result="BackgroundImageFix"/>
<feColorMatrix in="SourceAlpha" type="matrix" values="0 0 0 0 0 0 0 0 0 0 0 0 0 0 0 0 0 0 127 0" result="hardAlpha"/>
<feOffset/>
<feGaussianBlur stdDeviation="17"/>
<feComposite in2="hardAlpha" operator="out"/>
<feColorMatrix type="matrix" values="0 0 0 0 0.154167 0 0 0 0 0.495343 0 0 0 0 1 0 0 0 1 0"/>
<feBlend mode="normal" in2="BackgroundImageFix" result="effect1_dropShadow_992_7"/>
<feBlend mode="normal" in="SourceGraphic" in2="effect1_dropShadow_992_7" result="shape"/>
</filter>
<filter id="filter4_d_992_7" x="428.258" y="177.672" width="133.425" height="131.399" filterUnits="userSpaceOnUse" color-interpolation-filters="sRGB">
<feFlood flood-opacity="0" result="BackgroundImageFix"/>
<feColorMatrix in="SourceAlpha" type="matrix" values="0 0 0 0 0 0 0 0 0 0 0 0 0 0 0 0 0 0 127 0" result="hardAlpha"/>
<feOffset/>
<feGaussianBlur stdDeviation="17"/>
<feComposite in2="hardAlpha" operator="out"/>
<feColorMatrix type="matrix" values="0 0 0 0 0.154167 0 0 0 0 0.495343 0 0 0 0 1 0 0 0 1 0"/>
<feBlend mode="normal" in2="BackgroundImageFix" result="effect1_dropShadow_992_7"/>
<feBlend mode="normal" in="SourceGraphic" in2="effect1_dropShadow_992_7" result="shape"/>
</filter>
<filter id="filter5_d_992_7" x="331" y="357.129" width="111" height="109.237" filterUnits="userSpaceOnUse" color-interpolation-filters="sRGB">
<feFlood flood-opacity="0" result="BackgroundImageFix"/>
<feColorMatrix in="SourceAlpha" type="matrix" values="0 0 0 0 0 0 0 0 0 0 0 0 0 0 0 0 0 0 127 0" result="hardAlpha"/>
<feOffset/>
<feGaussianBlur stdDeviation="17"/>
<feComposite in2="hardAlpha" operator="out"/>
<feColorMatrix type="matrix" values="0 0 0 0 0.154167 0 0 0 0 0.495343 0 0 0 0 1 0 0 0 1 0"/>
<feBlend mode="normal" in2="BackgroundImageFix" result="effect1_dropShadow_992_7"/>
<feBlend mode="normal" in="SourceGraphic" in2="effect1_dropShadow_992_7" result="shape"/>
</filter>
<filter id="filter6_d_992_7" x="48.7485" y="207.444" width="133.425" height="131.399" filterUnits="userSpaceOnUse" color-interpolation-filters="sRGB">
<feFlood flood-opacity="0" result="BackgroundImageFix"/>
<feColorMatrix in="SourceAlpha" type="matrix" values="0 0 0 0 0 0 0 0 0 0 0 0 0 0 0 0 0 0 127 0" result="hardAlpha"/>
<feOffset/>
<feGaussianBlur stdDeviation="17"/>
<feComposite in2="hardAlpha" operator="out"/>
<feColorMatrix type="matrix" values="0 0 0 0 0.154167 0 0 0 0 0.495343 0 0 0 0 1 0 0 0 1 0"/>
<feBlend mode="normal" in2="BackgroundImageFix" result="effect1_dropShadow_992_7"/>
<feBlend mode="normal" in="SourceGraphic" in2="effect1_dropShadow_992_7" result="shape"/>
</filter>
<filter id="filter7_d_992_7" x="84.1133" y="344.524" width="93.6396" height="92.8457" filterUnits="userSpaceOnUse" color-interpolation-filters="sRGB">
<feFlood flood-opacity="0" result="BackgroundImageFix"/>
<feColorMatrix in="SourceAlpha" type="matrix" values="0 0 0 0 0 0 0 0 0 0 0 0 0 0 0 0 0 0 127 0" result="hardAlpha"/>
<feOffset/>
<feGaussianBlur stdDeviation="17"/>
<feComposite in2="hardAlpha" operator="out"/>
<feColorMatrix type="matrix" values="0 0 0 0 0.154167 0 0 0 0 0.495343 0 0 0 0 1 0 0 0 1 0"/>
<feBlend mode="normal" in2="BackgroundImageFix" result="effect1_dropShadow_992_7"/>
<feBlend mode="normal" in="SourceGraphic" in2="effect1_dropShadow_992_7" result="shape"/>
</filter>
<filter id="filter8_d_992_7" x="453.738" y="380.079" width="93.6396" height="92.8457" filterUnits="userSpaceOnUse" color-interpolation-filters="sRGB">
<feFlood flood-opacity="0" result="BackgroundImageFix"/>
<feColorMatrix in="SourceAlpha" type="matrix" values="0 0 0 0 0 0 0 0 0 0 0 0 0 0 0 0 0 0 127 0" result="hardAlpha"/>
<feOffset/>
<feGaussianBlur stdDeviation="17"/>
<feComposite in2="hardAlpha" operator="out"/>
<feColorMatrix type="matrix" values="0 0 0 0 0.154167 0 0 0 0 0.495343 0 0 0 0 1 0 0 0 1 0"/>
<feBlend mode="normal" in2="BackgroundImageFix" result="effect1_dropShadow_992_7"/>
<feBlend mode="normal" in="SourceGraphic" in2="effect1_dropShadow_992_7" result="shape"/>
</filter>
<filter id="filter9_d_992_7" x="454.782" y="0.325439" width="93.6396" height="92.8457" filterUnits="userSpaceOnUse" color-interpolation-filters="sRGB">
<feFlood flood-opacity="0" result="BackgroundImageFix"/>
<feColorMatrix in="SourceAlpha" type="matrix" values="0 0 0 0 0 0 0 0 0 0 0 0 0 0 0 0 0 0 127 0" result="hardAlpha"/>
<feOffset/>
<feGaussianBlur stdDeviation="17"/>
<feComposite in2="hardAlpha" operator="out"/>
<feColorMatrix type="matrix" values="0 0 0 0 0.154167 0 0 0 0 0.495343 0 0 0 0 1 0 0 0 1 0"/>
<feBlend mode="normal" in2="BackgroundImageFix" result="effect1_dropShadow_992_7"/>
<feBlend mode="normal" in="SourceGraphic" in2="effect1_dropShadow_992_7" result="shape"/>
</filter>
<filter id="filter10_d_992_7" x="27.5293" y="21.1016" width="93.6396" height="92.8457" filterUnits="userSpaceOnUse" color-interpolation-filters="sRGB">
<feFlood flood-opacity="0" result="BackgroundImageFix"/>
<feColorMatrix in="SourceAlpha" type="matrix" values="0 0 0 0 0 0 0 0 0 0 0 0 0 0 0 0 0 0 127 0" result="hardAlpha"/>
<feOffset/>
<feGaussianBlur stdDeviation="17"/>
<feComposite in2="hardAlpha" operator="out"/>
<feColorMatrix type="matrix" values="0 0 0 0 0.154167 0 0 0 0 0.495343 0 0 0 0 1 0 0 0 1 0"/>
<feBlend mode="normal" in2="BackgroundImageFix" result="effect1_dropShadow_992_7"/>
<feBlend mode="normal" in="SourceGraphic" in2="effect1_dropShadow_992_7" result="shape"/>
</filter>
<filter id="filter11_d_992_7" x="0" y="336.511" width="90" height="89.6001" filterUnits="userSpaceOnUse" color-interpolation-filters="sRGB">
<feFlood flood-opacity="0" result="BackgroundImageFix"/>
<feColorMatrix in="SourceAlpha" type="matrix" values="0 0 0 0 0 0 0 0 0 0 0 0 0 0 0 0 0 0 127 0" result="hardAlpha"/>
<feOffset/>
<feGaussianBlur stdDeviation="17"/>
<feComposite in2="hardAlpha" operator="out"/>
<feColorMatrix type="matrix" values="0 0 0 0 0.154167 0 0 0 0 0.495343 0 0 0 0 1 0 0 0 1 0"/>
<feBlend mode="normal" in2="BackgroundImageFix" result="effect1_dropShadow_992_7"/>
<feBlend mode="normal" in="SourceGraphic" in2="effect1_dropShadow_992_7" result="shape"/>
</filter>
<filter id="filter12_d_992_7" x="530.213" y="430.842" width="93.6396" height="92.8457" filterUnits="userSpaceOnUse" color-interpolation-filters="sRGB">
<feFlood flood-opacity="0" result="BackgroundImageFix"/>
<feColorMatrix in="SourceAlpha" type="matrix" values="0 0 0 0 0 0 0 0 0 0 0 0 0 0 0 0 0 0 127 0" result="hardAlpha"/>
<feOffset/>
<feGaussianBlur stdDeviation="17"/>
<feComposite in2="hardAlpha" operator="out"/>
<feColorMatrix type="matrix" values="0 0 0 0 0.154167 0 0 0 0 0.495343 0 0 0 0 1 0 0 0 1 0"/>
<feBlend mode="normal" in2="BackgroundImageFix" result="effect1_dropShadow_992_7"/>
<feBlend mode="normal" in="SourceGraphic" in2="effect1_dropShadow_992_7" result="shape"/>
</filter>
<radialGradient id="paint0_radial_992_7" cx="0" cy="0" r="1" gradientUnits="userSpaceOnUse" gradientTransform="translate(466.581 401.009) scale(6.11703 5.92762)">
<stop stop-color="#8ADEFF"/>
<stop offset="1" stop-color="#146BFF"/>
</radialGradient>
<radialGradient id="paint1_radial_992_7" cx="0" cy="0" r="1" gradientUnits="userSpaceOnUse" gradientTransform="translate(466.492 85.9996) scale(6.11703 5.92763)">
<stop stop-color="#8ADEFF"/>
<stop offset="1" stop-color="#146BFF"/>
</radialGradient>
<radialGradient id="paint2_radial_992_7" cx="0" cy="0" r="1" gradientUnits="userSpaceOnUse" gradientTransform="translate(74.251 454.77) scale(6.11703 5.92764)">
<stop stop-color="#8ADEFF"/>
<stop offset="1" stop-color="#146BFF"/>
</radialGradient>
<radialGradient id="paint3_radial_992_7" cx="0" cy="0" r="1" gradientUnits="userSpaceOnUse" gradientTransform="translate(594.619 389.657) scale(6.11703 5.92762)">
<stop stop-color="#8ADEFF"/>
<stop offset="1" stop-color="#146BFF"/>
</radialGradient>
<radialGradient id="paint4_radial_992_7" cx="0" cy="0" r="1" gradientUnits="userSpaceOnUse" gradientTransform="translate(534.216 123.422) scale(6.11702 5.92763)">
<stop stop-color="#8ADEFF"/>
<stop offset="1" stop-color="#146BFF"/>
</radialGradient>
<radialGradient id="paint5_radial_992_7" cx="0" cy="0" r="1" gradientUnits="userSpaceOnUse" gradientTransform="translate(173.052 102.218) scale(6.11703 5.92763)">
<stop stop-color="#8ADEFF"/>
<stop offset="1" stop-color="#146BFF"/>
</radialGradient>
<radialGradient id="paint6_radial_992_7" cx="0" cy="0" r="1" gradientUnits="userSpaceOnUse" gradientTransform="translate(157.8 50.5988) scale(6.11703 5.92763)">
<stop stop-color="#8ADEFF"/>
<stop offset="1" stop-color="#146BFF"/>
</radialGradient>
</defs>
</svg>
