<svg width="601" height="480" viewBox="0 0 601 480" fill="none" xmlns="http://www.w3.org/2000/svg">
<path d="M215.071 325.758H146.33L126.438 345.034H5.0918" stroke="#07B8FF" stroke-width="1.0035" stroke-miterlimit="10" stroke-linecap="round" stroke-linejoin="round"/>
<path d="M215.071 308.408H112.292L95.0513 291.702H5.0918" stroke="#07B8FF" stroke-width="1.0035" stroke-miterlimit="10" stroke-linecap="round" stroke-linejoin="round"/>
<path d="M106.545 322.759H5.0918" stroke="#07B8FF" stroke-width="1.0035" stroke-miterlimit="10" stroke-linecap="round" stroke-linejoin="round"/>
<path d="M215.071 288.703H130.195L102.566 262.144H3.76562" stroke="#07B8FF" stroke-width="1.0035" stroke-miterlimit="10" stroke-linecap="round" stroke-linejoin="round"/>
<path d="M5.0918 238.369H114.281L146.33 269.427H214.85" stroke="#07B8FF" stroke-width="1.0035" stroke-miterlimit="10" stroke-linecap="round" stroke-linejoin="round"/>
<path d="M214.85 248.222H158.929" stroke="#07B8FF" stroke-width="1.0035" stroke-miterlimit="10" stroke-linecap="round" stroke-linejoin="round"/>
<path d="M214.85 229.588H135.279L102.124 197.459H2.21826" stroke="#07B8FF" stroke-width="1.0035" stroke-miterlimit="10" stroke-linecap="round" stroke-linejoin="round"/>
<path d="M214.85 208.811H169.317" stroke="#07B8FF" stroke-width="1.0035" stroke-miterlimit="10" stroke-linecap="round" stroke-linejoin="round"/>
<path d="M143.899 205.599L103.671 166.616" stroke="#07B8FF" stroke-width="1.0035" stroke-miterlimit="10" stroke-linecap="round" stroke-linejoin="round"/>
<path d="M214.85 189.535H158.929L111.85 143.913H5.0918" stroke="#07B8FF" stroke-width="1.0035" stroke-miterlimit="10" stroke-linecap="round" stroke-linejoin="round"/>
<path d="M215.071 166.616H158.929" stroke="#07B8FF" stroke-width="1.0035" stroke-miterlimit="10" stroke-linecap="round" stroke-linejoin="round"/>
<path d="M202.472 65.9486V5.76196" stroke="#07B8FF" stroke-width="1.0035" stroke-miterlimit="10" stroke-linecap="round" stroke-linejoin="round"/>
<path d="M222.586 151.838V85.2253" stroke="#07B8FF" stroke-width="1.0035" stroke-miterlimit="10" stroke-linecap="round" stroke-linejoin="round"/>
<path d="M240.269 151.838V52.2406L257.509 35.534V5.76196" stroke="#07B8FF" stroke-width="1.0035" stroke-miterlimit="10" stroke-linecap="round" stroke-linejoin="round"/>
<path d="M225.459 46.4575V5.76196" stroke="#07B8FF" stroke-width="1.0035" stroke-miterlimit="10" stroke-linecap="round" stroke-linejoin="round"/>
<path d="M260.824 151.838V69.3755L288.232 42.8163V6.40454" stroke="#07B8FF" stroke-width="1.0035" stroke-miterlimit="10" stroke-linecap="round" stroke-linejoin="round"/>
<path d="M280.496 85.2253V151.409" stroke="#07B8FF" stroke-width="1.0035" stroke-miterlimit="10" stroke-linecap="round" stroke-linejoin="round"/>
<path d="M325.144 5.76196V46.2434" stroke="#07B8FF" stroke-width="1.0035" stroke-miterlimit="10" stroke-linecap="round" stroke-linejoin="round"/>
<path d="M302.378 151.409V97.434V5.76196" stroke="#07B8FF" stroke-width="1.0035" stroke-miterlimit="10" stroke-linecap="round" stroke-linejoin="round"/>
<path d="M321.607 151.409V74.5161L354.762 42.388V6.40454" stroke="#07B8FF" stroke-width="1.0035" stroke-miterlimit="10" stroke-linecap="round" stroke-linejoin="round"/>
<path d="M343.048 151.409V107.501" stroke="#07B8FF" stroke-width="1.0035" stroke-miterlimit="10" stroke-linecap="round" stroke-linejoin="round"/>
<path d="M346.584 82.6551L386.591 43.8873V5.76196" stroke="#07B8FF" stroke-width="1.0035" stroke-miterlimit="10" stroke-linecap="round" stroke-linejoin="round"/>
<path d="M362.94 151.409V97.434L410.02 51.8122V5.76196" stroke="#07B8FF" stroke-width="1.0035" stroke-miterlimit="10" stroke-linecap="round" stroke-linejoin="round"/>
<path d="M386.591 151.838V97.4341" stroke="#07B8FF" stroke-width="1.0035" stroke-miterlimit="10" stroke-linecap="round" stroke-linejoin="round"/>
<path d="M390.79 335.61V402.223L410.683 421.499" stroke="#07B8FF" stroke-width="1.0035" stroke-miterlimit="10" stroke-linecap="round" stroke-linejoin="round"/>
<path d="M372.887 335.61V435.207L355.646 451.914" stroke="#07B8FF" stroke-width="1.0035" stroke-miterlimit="10" stroke-linecap="round" stroke-linejoin="round"/>
<path d="M387.696 440.991V546.157" stroke="#07B8FF" stroke-width="1.0035" stroke-miterlimit="10" stroke-linecap="round" stroke-linejoin="round"/>
<path d="M352.552 335.61V418.072L325.144 444.632V546.156" stroke="#07B8FF" stroke-width="1.0035" stroke-miterlimit="10" stroke-linecap="round" stroke-linejoin="round"/>
<path d="M300.61 546.156V433.28L332.659 402.222V336.039" stroke="#07B8FF" stroke-width="1.0035" stroke-miterlimit="10" stroke-linecap="round" stroke-linejoin="round"/>
<path d="M310.777 336.039V390.014" stroke="#07B8FF" stroke-width="1.0035" stroke-miterlimit="10" stroke-linecap="round" stroke-linejoin="round"/>
<path d="M291.548 336.039V412.932L258.393 445.06V546.156" stroke="#07B8FF" stroke-width="1.0035" stroke-miterlimit="10" stroke-linecap="round" stroke-linejoin="round"/>
<path d="M270.107 336.039V379.947" stroke="#07B8FF" stroke-width="1.0035" stroke-miterlimit="10" stroke-linecap="round" stroke-linejoin="round"/>
<path d="M266.792 404.793L226.564 443.561V546.156" stroke="#07B8FF" stroke-width="1.0035" stroke-miterlimit="10" stroke-linecap="round" stroke-linejoin="round"/>
<path d="M250.215 336.039V390.014L203.135 435.636V546.156" stroke="#07B8FF" stroke-width="1.0035" stroke-miterlimit="10" stroke-linecap="round" stroke-linejoin="round"/>
<path d="M226.564 335.61V390.014" stroke="#07B8FF" stroke-width="1.0035" stroke-miterlimit="10" stroke-linecap="round" stroke-linejoin="round"/>
<path d="M402.505 328.542H471.245L491.359 347.819H597.675" stroke="#07B8FF" stroke-width="1.0035" stroke-miterlimit="10" stroke-linecap="round" stroke-linejoin="round"/>
<path d="M402.505 311.193H505.284L522.525 294.486H597.675" stroke="#07B8FF" stroke-width="1.0035" stroke-miterlimit="10" stroke-linecap="round" stroke-linejoin="round"/>
<path d="M511.252 325.543H597.675" stroke="#07B8FF" stroke-width="1.0035" stroke-miterlimit="10" stroke-linecap="round" stroke-linejoin="round"/>
<path d="M402.505 291.488H487.602L515.01 264.714H597.012" stroke="#07B8FF" stroke-width="1.0035" stroke-miterlimit="10" stroke-linecap="round" stroke-linejoin="round"/>
<path d="M597.675 241.154H503.516L471.245 272.211H402.947" stroke="#07B8FF" stroke-width="1.0035" stroke-miterlimit="10" stroke-linecap="round" stroke-linejoin="round"/>
<path d="M402.947 251.006H458.647" stroke="#07B8FF" stroke-width="1.0035" stroke-miterlimit="10" stroke-linecap="round" stroke-linejoin="round"/>
<path d="M402.947 232.372H482.518L515.673 200.244H597.012" stroke="#07B8FF" stroke-width="1.0035" stroke-miterlimit="10" stroke-linecap="round" stroke-linejoin="round"/>
<path d="M402.947 211.596H448.479" stroke="#07B8FF" stroke-width="1.0035" stroke-miterlimit="10" stroke-linecap="round" stroke-linejoin="round"/>
<path d="M473.898 208.383L514.126 169.401" stroke="#07B8FF" stroke-width="1.0035" stroke-miterlimit="10" stroke-linecap="round" stroke-linejoin="round"/>
<path d="M402.947 192.319H458.647L505.726 146.697H597.675" stroke="#07B8FF" stroke-width="1.0035" stroke-miterlimit="10" stroke-linecap="round" stroke-linejoin="round"/>
<path d="M402.505 169.401H458.647" stroke="#07B8FF" stroke-width="1.0035" stroke-miterlimit="10" stroke-linecap="round" stroke-linejoin="round"/>
<path d="M373.55 189.106V299.841C370.013 303.268 367.803 305.41 364.267 308.837H249.994C246.457 305.41 244.247 303.268 240.71 299.841V189.106C244.247 185.679 246.457 183.537 249.994 180.11H364.267C367.803 183.537 369.792 185.679 373.55 189.106Z" stroke="white" stroke-width="0.5758" stroke-miterlimit="10" stroke-linecap="round" stroke-linejoin="round"/>
<path d="M422.84 147.982V340.965C416.43 347.176 412.893 350.603 406.483 356.815H207.335C200.925 350.603 197.388 347.176 190.979 340.965V147.982C197.388 141.771 200.925 138.344 207.335 132.132H406.483C413.114 138.344 416.651 141.771 422.84 147.982Z" stroke="white" stroke-width="1.0035" stroke-miterlimit="10" stroke-linecap="round" stroke-linejoin="round"/>
<rect x="218.001" y="155.932" width="182" height="177.061" rx="13" fill="url(#paint0_linear_529_53)" stroke="#07377E" stroke-width="4"/>
<path d="M7.0808 262.144C7.0808 264.072 5.53358 265.571 3.5443 265.571C1.55503 265.571 0.0078125 264.072 0.0078125 262.144C0.0078125 260.216 1.55503 258.717 3.5443 258.717C5.53358 258.717 7.0808 260.216 7.0808 262.144Z" fill="#07B8FF"/>
<path d="M7.0808 238.369C7.0808 240.297 5.53358 241.796 3.5443 241.796C1.55503 241.796 0.0078125 240.297 0.0078125 238.369C0.0078125 236.441 1.55503 234.942 3.5443 234.942C5.53358 234.942 7.0808 236.441 7.0808 238.369Z" fill="#07B8FF"/>
<path d="M600.548 241.154C600.548 243.081 599.001 244.581 597.012 244.581C595.022 244.581 593.475 243.081 593.475 241.154C593.475 239.226 595.022 237.727 597.012 237.727C599.001 237.727 600.548 239.226 600.548 241.154Z" fill="#07B8FF"/>
<path d="M600.548 200.244C600.548 202.172 599.001 203.671 597.012 203.671C595.022 203.671 593.475 202.172 593.475 200.244C593.475 198.316 595.022 196.817 597.012 196.817C599.001 197.031 600.548 198.53 600.548 200.244Z" fill="#07B8FF"/>
<path d="M600.548 146.697C600.548 148.625 599.001 150.124 597.012 150.124C595.022 150.124 593.475 148.625 593.475 146.697C593.475 144.77 595.022 143.27 597.012 143.27C599.001 143.484 600.548 144.984 600.548 146.697Z" fill="#07B8FF"/>
<path d="M413.556 3.62011C413.556 5.54779 412.009 7.0471 410.02 7.0471C408.031 7.0471 406.483 5.54779 406.483 3.62011C406.483 1.69243 408.031 0.193115 410.02 0.193115C412.009 0.193115 413.556 1.69243 413.556 3.62011Z" fill="#07B8FF"/>
<path d="M389.906 3.62011C389.906 5.54779 388.359 7.0471 386.369 7.0471C384.38 7.0471 382.833 5.54779 382.833 3.62011C382.833 1.69243 384.38 0.193115 386.369 0.193115C388.359 0.193115 389.906 1.69243 389.906 3.62011Z" fill="#07B8FF"/>
<path d="M358.299 3.62011C358.299 5.54779 356.751 7.0471 354.762 7.0471C352.773 7.0471 351.226 5.54779 351.226 3.62011C351.226 1.69243 352.773 0.193115 354.762 0.193115C356.751 0.193115 358.299 1.69243 358.299 3.62011Z" fill="#07B8FF"/>
<path d="M328.459 3.62011C328.459 5.54779 326.912 7.0471 324.923 7.0471C322.933 7.0471 321.386 5.54779 321.386 3.62011C321.386 1.69243 322.933 0.193115 324.923 0.193115C326.912 0.193115 328.459 1.69243 328.459 3.62011Z" fill="#07B8FF"/>
<path d="M305.914 3.62011C305.914 5.54779 304.367 7.0471 302.378 7.0471C300.389 7.0471 298.841 5.54779 298.841 3.62011C298.841 1.69243 300.389 0.193115 302.378 0.193115C304.367 0.193115 305.914 1.69243 305.914 3.62011Z" fill="#07B8FF"/>
<path d="M291.548 3.62011C291.548 5.54779 290 7.0471 288.011 7.0471C286.022 7.0471 284.475 5.54779 284.475 3.62011C284.475 1.69243 286.022 0.193115 288.011 0.193115C290 0.193115 291.548 1.69243 291.548 3.62011Z" fill="#07B8FF"/>
<path d="M261.045 3.62011C261.045 5.54779 259.498 7.0471 257.509 7.0471C255.519 7.0471 253.972 5.54779 253.972 3.62011C253.972 1.69243 255.519 0.193115 257.509 0.193115C259.498 0.193115 261.045 1.69243 261.045 3.62011Z" fill="#07B8FF"/>
<path d="M228.996 3.62011C228.996 5.54779 227.449 7.0471 225.459 7.0471C223.47 7.0471 221.923 5.54779 221.923 3.62011C221.923 1.69243 223.47 0.193115 225.459 0.193115C227.449 0.193115 228.996 1.69243 228.996 3.62011Z" fill="#07B8FF"/>
<path d="M206.009 3.62011C206.009 5.54779 204.461 7.0471 202.472 7.0471C200.483 7.0471 198.936 5.54779 198.936 3.62011C198.936 1.69243 200.483 0.193115 202.472 0.193115C204.461 0.193115 206.009 1.69243 206.009 3.62011Z" fill="#07B8FF"/>
<path d="M600.548 264.714C600.548 266.642 599.001 268.141 597.012 268.141C595.022 268.141 593.475 266.642 593.475 264.714C593.475 262.786 595.022 261.287 597.012 261.287C599.001 261.501 600.548 263.001 600.548 264.714Z" fill="#07B8FF"/>
<path d="M600.548 294.486C600.548 296.414 599.001 297.913 597.012 297.913C595.022 297.913 593.475 296.414 593.475 294.486C593.475 292.558 595.022 291.059 597.012 291.059C599.001 291.273 600.548 292.773 600.548 294.486Z" fill="#07B8FF"/>
<path d="M600.548 325.543C600.548 327.471 599.001 328.97 597.012 328.97C595.022 328.97 593.475 327.471 593.475 325.543C593.475 323.616 595.022 322.116 597.012 322.116C599.001 322.331 600.548 323.83 600.548 325.543Z" fill="#07B8FF"/>
<path d="M600.548 347.819C600.548 349.747 599.001 351.246 597.012 351.246C595.022 351.246 593.475 349.747 593.475 347.819C593.475 345.891 595.022 344.392 597.012 344.392C599.001 344.392 600.548 345.891 600.548 347.819Z" fill="#07B8FF"/>
<path d="M7.0808 291.702C7.0808 293.63 5.53358 295.129 3.5443 295.129C1.55503 295.129 0.0078125 293.63 0.0078125 291.702C0.0078125 289.774 1.55503 288.275 3.5443 288.275C5.53358 288.489 7.0808 289.989 7.0808 291.702Z" fill="#07B8FF"/>
<path d="M7.0808 322.759C7.0808 324.687 5.53358 326.186 3.5443 326.186C1.55503 326.186 0.0078125 324.687 0.0078125 322.759C0.0078125 320.831 1.55503 319.332 3.5443 319.332C5.53358 319.546 7.0808 321.046 7.0808 322.759Z" fill="#07B8FF"/>
<path d="M7.0808 345.034C7.0808 346.962 5.53358 348.461 3.5443 348.461C1.55503 348.461 0.0078125 346.962 0.0078125 345.034C0.0078125 343.107 1.55503 341.607 3.5443 341.607C5.53358 341.607 7.0808 343.107 7.0808 345.034Z" fill="#07B8FF"/>
<path d="M7.0808 197.459C7.0808 199.387 5.53358 200.886 3.5443 200.886C1.55503 200.886 0.0078125 199.387 0.0078125 197.459C0.0078125 195.532 1.55503 194.032 3.5443 194.032C5.53358 194.246 7.0808 195.746 7.0808 197.459Z" fill="#07B8FF"/>
<path d="M7.0808 143.913C7.0808 145.84 5.53358 147.34 3.5443 147.34C1.55503 147.34 0.0078125 145.84 0.0078125 143.913C0.0078125 141.985 1.55503 140.486 3.5443 140.486C5.53358 140.7 7.0808 142.199 7.0808 143.913Z" fill="#07B8FF"/>
<path d="M298.098 229.901L282.676 278.258H268.402L290.51 218.539H299.533L298.098 229.901ZM310.895 278.258L295.432 229.901L293.832 218.539H302.979L325.168 278.258H310.895ZM310.238 256.028V266.364H279.107V256.028H310.238ZM342.969 233.879V278.258H330.131V233.879H342.969ZM329.352 222.395C329.352 220.535 330.008 219.018 331.32 217.842C332.633 216.639 334.355 216.037 336.488 216.037C338.621 216.037 340.344 216.639 341.656 217.842C342.996 219.018 343.666 220.535 343.666 222.395C343.666 224.227 342.996 225.744 341.656 226.948C340.344 228.123 338.621 228.711 336.488 228.711C334.355 228.711 332.633 228.123 331.32 226.948C330.008 225.744 329.352 224.227 329.352 222.395Z" fill="white"/>
<defs>
<linearGradient id="paint0_linear_529_53" x1="309.001" y1="153.932" x2="309.001" y2="334.992" gradientUnits="userSpaceOnUse">
<stop stop-color="#146BFF"/>
<stop offset="1" stop-color="#146BFF" stop-opacity="0"/>
</linearGradient>
</defs>
</svg>
