<svg width="26" height="26" viewBox="0 0 26 26" fill="none" xmlns="http://www.w3.org/2000/svg">
<path d="M25.207 23.6759L19.347 17.8159H19.2839C21.0901 15.6863 22.0029 12.9407 21.8312 10.1535C21.6596 7.36635 20.4169 4.75349 18.3631 2.86152C16.3092 0.969556 13.6034 -0.0549645 10.8115 0.00227558C8.01965 0.0595157 5.35805 1.19408 3.38349 3.16864C1.40893 5.1432 0.274359 7.8048 0.217119 10.5967C0.159879 13.3885 1.1844 16.0944 3.07637 18.1482C4.96834 20.2021 7.58119 21.4448 10.3684 21.6164C13.1555 21.788 15.9011 20.8753 18.0308 19.0691C18.0308 19.0691 18.0308 19.1141 18.0308 19.1322L23.8908 24.9921C23.9746 25.0766 24.0743 25.1437 24.1841 25.1895C24.294 25.2352 24.4118 25.2588 24.5308 25.2588C24.6499 25.2588 24.7677 25.2352 24.8776 25.1895C24.9874 25.1437 25.0871 25.0766 25.1709 24.9921C25.2634 24.9103 25.338 24.8104 25.3902 24.6985C25.4424 24.5866 25.4711 24.4652 25.4745 24.3418C25.4779 24.2184 25.4559 24.0957 25.4099 23.9811C25.3639 23.8665 25.2948 23.7627 25.207 23.6759ZM11.0439 19.8083C9.26081 19.8083 7.51779 19.2796 6.03522 18.289C4.55265 17.2983 3.39713 15.8903 2.71478 14.243C2.03243 12.5957 1.8539 10.783 2.20176 9.03416C2.54962 7.28536 3.40824 5.67897 4.66906 4.41816C5.92988 3.15734 7.53627 2.29871 9.28507 1.95085C11.0339 1.60299 12.8466 1.78152 14.4939 2.46387C16.1412 3.14622 17.5492 4.30174 18.5399 5.78431C19.5305 7.26688 20.0592 9.0099 20.0592 10.793C20.0592 11.9769 19.826 13.1492 19.373 14.243C18.9199 15.3368 18.2558 16.3306 17.4187 17.1678C16.5815 18.0049 15.5877 18.669 14.4939 19.1221C13.4001 19.5751 12.2278 19.8083 11.0439 19.8083Z" fill="#146BFF"/>
</svg>
