<svg width="369" height="311" viewBox="0 0 369 311" fill="none" xmlns="http://www.w3.org/2000/svg">
<path fill-rule="evenodd" clip-rule="evenodd" d="M0.619141 310.26H367.895V23.9934H0.619141V310.26Z" fill="#FFFFFE"/>
<path fill-rule="evenodd" clip-rule="evenodd" d="M367.895 310.262C367.894 308.119 367.794 196.798 367.638 23.9936L367.895 24.2509C263.381 24.2677 136.884 24.2856 0.650073 24.306H0.619004L0.929684 23.9936C0.91893 127.179 0.90698 224.777 0.897421 310.262L0.619004 309.982C218.624 310.148 365.44 310.259 367.895 310.262C365.442 310.263 218.624 310.375 0.619004 310.542H0.339392V310.262C0.329833 224.777 0.319078 127.179 0.307129 23.9936V23.6824H0.650073C136.884 23.7027 263.381 23.7207 367.895 23.7362H368.153V23.9936C367.998 196.798 367.898 308.122 367.895 310.262Z" fill="#146BFF"/>
<path fill-rule="evenodd" clip-rule="evenodd" d="M101.609 286.22C101.437 286.22 101.297 255.101 101.297 216.724C101.297 178.334 101.437 147.223 101.609 147.223C101.781 147.223 101.919 178.334 101.919 216.724C101.919 255.101 101.781 286.22 101.609 286.22Z" fill="#146BFF"/>
<path fill-rule="evenodd" clip-rule="evenodd" d="M260.999 286.22C260.826 286.22 260.688 255.101 260.688 216.724C260.688 178.334 260.826 147.223 260.999 147.223C261.17 147.223 261.31 178.334 261.31 216.724C261.31 255.101 261.17 286.22 260.999 286.22Z" fill="#146BFF"/>
<path fill-rule="evenodd" clip-rule="evenodd" d="M156.023 286.22C155.852 286.22 155.712 246.438 155.712 197.377C155.712 148.299 155.852 108.525 156.023 108.525C156.195 108.525 156.334 148.299 156.334 197.377C156.334 246.438 156.195 286.22 156.023 286.22Z" fill="#146BFF"/>
<path fill-rule="evenodd" clip-rule="evenodd" d="M45.7225 286.22C45.5505 286.22 45.4106 246.438 45.4106 197.377C45.4106 148.299 45.5505 108.525 45.7225 108.525C45.8946 108.525 46.0332 148.299 46.0332 197.377C46.0332 246.438 45.8946 286.22 45.7225 286.22Z" fill="#146BFF"/>
<path fill-rule="evenodd" clip-rule="evenodd" d="M323.559 286.22C323.388 286.22 323.249 246.438 323.249 197.377C323.249 148.299 323.388 108.525 323.559 108.525C323.732 108.525 323.871 148.299 323.871 197.377C323.871 246.438 323.732 286.22 323.559 286.22Z" fill="#146BFF"/>
<path fill-rule="evenodd" clip-rule="evenodd" d="M203.739 286.22C203.567 286.22 203.429 240.287 203.429 183.638C203.429 126.97 203.567 81.0461 203.739 81.0461C203.911 81.0461 204.051 126.97 204.051 183.638C204.051 240.287 203.911 286.22 203.739 286.22Z" fill="#146BFF"/>
<path fill-rule="evenodd" clip-rule="evenodd" d="M102.91 147.223C102.91 147.943 102.327 148.526 101.609 148.526C100.889 148.526 100.306 147.943 100.306 147.223C100.306 146.503 100.889 145.919 101.609 145.919C102.327 145.919 102.91 146.503 102.91 147.223Z" fill="#146BFF"/>
<path fill-rule="evenodd" clip-rule="evenodd" d="M157.325 108.525C157.325 109.246 156.742 109.829 156.023 109.829C155.305 109.829 154.722 109.246 154.722 108.525C154.722 107.805 155.305 107.222 156.023 107.222C156.742 107.222 157.325 107.805 157.325 108.525Z" fill="#146BFF"/>
<path fill-rule="evenodd" clip-rule="evenodd" d="M156.023 104.251C153.67 104.251 151.756 106.168 151.756 108.525C151.756 110.882 153.67 112.798 156.023 112.798C158.376 112.798 160.29 110.882 160.29 108.525C160.29 106.168 158.376 104.251 156.023 104.251ZM156.023 113.097C153.505 113.097 151.457 111.046 151.457 108.525C151.457 106.003 153.505 103.952 156.023 103.952C158.54 103.952 160.589 106.003 160.589 108.525C160.589 111.046 158.54 113.097 156.023 113.097Z" fill="#146BFF"/>
<path fill-rule="evenodd" clip-rule="evenodd" d="M205.042 81.0461C205.042 81.7667 204.457 82.3496 203.739 82.3496C203.02 82.3496 202.438 81.7667 202.438 81.0461C202.438 80.3256 203.02 79.7427 203.739 79.7427C204.457 79.7427 205.042 80.3256 205.042 81.0461Z" fill="#146BFF"/>
<path fill-rule="evenodd" clip-rule="evenodd" d="M262.301 148.526C262.301 149.247 261.718 149.831 261 149.831C260.279 149.831 259.697 149.247 259.697 148.526C259.697 147.807 260.279 147.223 261 147.223C261.718 147.223 262.301 147.807 262.301 148.526Z" fill="#146BFF"/>
<path fill-rule="evenodd" clip-rule="evenodd" d="M324.893 108.525C324.893 109.246 324.31 109.829 323.592 109.829C322.872 109.829 322.291 109.246 322.291 108.525C322.291 107.805 322.872 107.222 323.592 107.222C324.31 107.222 324.893 107.805 324.893 108.525Z" fill="#146BFF"/>
<path fill-rule="evenodd" clip-rule="evenodd" d="M47.0236 109.828C47.0236 110.549 46.4405 111.133 45.7224 111.133C45.003 111.133 44.4199 110.549 44.4199 109.828C44.4199 109.108 45.003 108.525 45.7224 108.525C46.4405 108.525 47.0236 109.108 47.0236 109.828Z" fill="#146BFF"/>
<path fill-rule="evenodd" clip-rule="evenodd" d="M335.886 171.414C335.891 171.446 335.542 171.558 334.86 171.746C334.17 171.9 333.18 172.255 331.906 172.76C329.386 173.839 325.93 176.083 322.422 179.972C318.871 183.822 315.316 189.188 310.851 195.217C308.589 198.204 306.099 201.389 302.99 204.355C301.464 205.865 299.729 207.25 297.887 208.583C295.991 209.846 293.964 211.034 291.739 211.951C287.304 213.786 282.221 214.669 277.011 214.432C274.418 214.305 271.75 214.115 269.089 213.438C266.421 212.862 263.756 211.738 261.423 210.059C259.082 208.389 257.078 206.203 255.437 203.804C253.783 201.406 252.301 198.872 250.865 196.292C248.006 191.109 245.036 185.892 241.657 180.654C238.342 175.347 235.268 169.754 231.835 164.251C228.401 158.769 224.626 153.292 219.807 148.709C217.389 146.448 214.711 144.413 211.73 142.914C208.755 141.406 205.502 140.416 202.132 140.099C198.777 139.769 195.285 139.976 191.92 140.678C188.548 141.395 185.277 142.648 182.228 144.362C176.125 147.834 171.187 152.977 167.077 158.514C162.935 164.065 159.555 170.054 156.249 175.957C152.992 181.898 149.538 187.665 145.757 193.022C141.943 198.354 137.817 203.363 133.058 207.525C131.85 208.546 130.664 209.574 129.371 210.462C128.137 211.423 126.785 212.206 125.469 213.016C122.763 214.505 119.958 215.809 117.006 216.504C115.557 216.955 114.058 217.118 112.582 217.33C111.847 217.475 111.099 217.423 110.36 217.459C109.622 217.466 108.883 217.516 108.152 217.487C105.214 217.353 102.371 216.756 99.6764 215.914C94.2898 214.155 89.6176 211.312 85.353 208.418C81.0991 205.483 77.2085 202.445 73.4062 199.703C69.61 196.944 65.8926 194.52 62.0605 192.818C58.2511 191.092 54.419 190.003 50.7686 189.605C47.1229 189.223 43.66 189.43 40.6201 190.262C39.8411 190.392 39.1444 190.748 38.4263 190.97C37.7273 191.245 36.9972 191.409 36.3746 191.781C35.1152 192.469 33.8199 192.965 32.7899 193.771C30.5721 195.143 28.9004 196.762 27.396 198.094C26.7185 198.838 26.0924 199.525 25.52 200.153C24.95 200.785 24.4004 201.332 24.0156 201.905C23.1875 202.998 22.553 203.834 22.1157 204.413C21.6784 204.973 21.4406 205.251 21.4104 205.233C21.3856 205.216 21.5708 204.902 21.9568 204.305C22.363 203.699 22.9509 202.822 23.7169 201.677C24.0813 201.079 24.6131 200.507 25.1663 199.849C25.7267 199.193 26.3373 198.478 27.0005 197.704C28.4846 196.308 30.1479 194.617 32.3896 193.163C33.4303 192.318 34.7471 191.777 36.0329 191.046C36.6674 190.654 37.4142 190.467 38.1323 190.171C38.8684 189.928 39.5865 189.552 40.3883 189.401C43.519 188.489 47.1038 188.22 50.8785 188.566C54.6568 188.927 58.6168 190.004 62.5433 191.731C66.4889 193.431 70.3401 195.892 74.1734 198.628C78.027 201.355 81.9355 204.355 86.162 207.223C90.3943 210.053 94.9792 212.785 100.148 214.437C102.732 215.226 105.436 215.776 108.217 215.889C108.91 215.912 109.607 215.859 110.308 215.849C111.005 215.811 111.714 215.86 112.408 215.717C113.803 215.506 115.219 215.352 116.589 214.913C122.168 213.501 127.329 210.255 131.922 206.23C136.524 202.177 140.558 197.255 144.302 191.99C148.023 186.683 151.406 181.011 154.652 175.063C157.952 169.147 161.359 163.083 165.588 157.402C169.785 151.741 174.886 146.391 181.309 142.734C184.515 140.93 187.977 139.603 191.538 138.849C195.106 138.112 198.728 137.895 202.32 138.248C205.913 138.589 209.403 139.655 212.565 141.266C215.735 142.866 218.548 145.017 221.062 147.377C226.069 152.159 229.892 157.76 233.348 163.307C236.799 168.873 239.856 174.48 243.116 179.742C246.471 184.98 249.487 190.331 252.299 195.49C255.162 200.579 257.955 205.698 262.324 208.797C264.467 210.358 266.91 211.418 269.446 211.982C271.958 212.643 274.544 212.85 277.068 212.99C282.11 213.257 286.97 212.445 291.237 210.727C293.376 209.87 295.337 208.744 297.177 207.546C298.969 206.274 300.667 204.95 302.174 203.492C305.238 200.634 307.736 197.521 310.021 194.584C314.535 188.658 318.206 183.306 321.891 179.475C325.533 175.6 329.153 173.393 331.764 172.412C333.085 171.952 334.106 171.654 334.818 171.561C335.52 171.432 335.88 171.383 335.886 171.414Z" fill="#82B0FF"/>
<path fill-rule="evenodd" clip-rule="evenodd" d="M44.4199 59.6967H108.459V56.1274H44.4199V59.6967Z" fill="#146BFF"/>
<path fill-rule="evenodd" clip-rule="evenodd" d="M44.4199 68.0487H76.0661V64.4807H44.4199V68.0487Z" fill="#146BFF"/>
<path fill-rule="evenodd" clip-rule="evenodd" d="M362.511 0.63916H5.56495C2.592 0.63916 0.180664 3.05335 0.180664 6.0325V23.9935H367.896V6.0325C367.896 3.05335 365.485 0.63916 362.511 0.63916Z" fill="#146BFF"/>
<path fill-rule="evenodd" clip-rule="evenodd" d="M19.2382 12.7675C19.2382 14.1547 18.1162 15.2786 16.7301 15.2786C15.3452 15.2786 14.2231 14.1547 14.2231 12.7675C14.2231 11.3802 15.3452 10.2551 16.7301 10.2551C18.1162 10.2551 19.2382 11.3802 19.2382 12.7675Z" fill="#FFFFFE"/>
<path fill-rule="evenodd" clip-rule="evenodd" d="M30.1886 12.7675C30.1886 14.1547 29.0654 15.2786 27.6805 15.2786C26.2956 15.2786 25.1724 14.1547 25.1724 12.7675C25.1724 11.3802 26.2956 10.2551 27.6805 10.2551C29.0654 10.2551 30.1886 11.3802 30.1886 12.7675Z" fill="#FFFFFE"/>
<path fill-rule="evenodd" clip-rule="evenodd" d="M41.1373 12.7675C41.1373 14.1547 40.0141 15.2786 38.6304 15.2786C37.2443 15.2786 36.1211 14.1547 36.1211 12.7675C36.1211 11.3802 37.2443 10.2551 38.6304 10.2551C40.0141 10.2551 41.1373 11.3802 41.1373 12.7675Z" fill="#FFFFFE"/>
<path fill-rule="evenodd" clip-rule="evenodd" d="M0.795898 285.502H102.046V280.907H0.795898V285.502Z" fill="#FFFFFE"/>
<path fill-rule="evenodd" clip-rule="evenodd" d="M0.795898 297.615H102.046V293.02H0.795898V297.615Z" fill="#FFFFFE"/>
<path fill-rule="evenodd" clip-rule="evenodd" d="M268.374 74.5886H139.875C137.743 74.5886 136.015 72.8578 136.015 70.7213V40.1986C136.015 38.0633 137.743 36.3325 139.875 36.3325H268.374C270.505 36.3325 272.233 38.0633 272.233 40.1986V70.7213C272.233 72.8578 270.505 74.5886 268.374 74.5886Z" fill="#82B0FF"/>
<path fill-rule="evenodd" clip-rule="evenodd" d="M164.728 61.8402C161.86 65.4226 156.636 65.9983 153.059 63.1257C149.483 60.2531 148.909 55.0201 151.777 51.4377C154.644 47.8553 159.869 47.2808 163.444 50.1522C167.021 53.0248 167.595 58.2578 164.728 61.8402Z" fill="#FFFFFE"/>
<path fill-rule="evenodd" clip-rule="evenodd" d="M158.268 48.3533C157.963 48.3533 157.656 48.3713 157.348 48.4048C155.153 48.6466 153.181 49.7298 151.8 51.4569C150.417 53.1829 149.79 55.3445 150.031 57.5445C150.273 59.7444 151.355 61.7181 153.078 63.1018C154.801 64.4866 156.96 65.1174 159.156 64.8732C161.352 64.6327 163.322 63.5482 164.704 61.8223C166.086 60.0951 166.715 57.9335 166.472 55.7335C166.232 53.5348 165.149 51.5599 163.426 50.1762C161.944 48.9853 160.14 48.3533 158.268 48.3533ZM158.236 64.9845C156.35 64.9845 154.534 64.3478 153.041 63.1485C151.305 61.7541 150.215 59.7672 149.972 57.5517C149.729 55.335 150.361 53.1578 151.753 51.4198C153.145 49.6807 155.13 48.5891 157.342 48.3449C157.651 48.3102 157.961 48.2935 158.268 48.2935C160.155 48.2935 161.971 48.9302 163.463 50.1295C165.198 51.524 166.289 53.512 166.532 55.7275C166.776 57.9431 166.142 60.1203 164.75 61.8594C163.358 63.5973 161.375 64.6889 159.163 64.9331C158.852 64.9678 158.544 64.9845 158.236 64.9845Z" fill="#146BFF"/>
<path fill-rule="evenodd" clip-rule="evenodd" d="M162.917 53.8161C163.038 53.9394 161.037 56.0902 158.447 58.6193C158.071 58.9832 157.706 59.3351 157.35 59.6786L157.133 59.8893L156.925 59.6762C154.908 57.6091 153.482 56.0076 153.586 55.9035C153.69 55.7994 155.289 57.2273 157.354 59.2477L156.929 59.2441C157.28 58.897 157.64 58.5415 158.014 58.1729C160.602 55.6438 162.798 53.6928 162.917 53.8161Z" fill="#82B0FF"/>
<path fill-rule="evenodd" clip-rule="evenodd" d="M258.938 52.6574C258.938 52.8297 241.623 52.9686 220.267 52.9686C198.905 52.9686 181.593 52.8297 181.593 52.6574C181.593 52.485 198.905 52.3462 220.267 52.3462C241.623 52.3462 258.938 52.485 258.938 52.6574Z" fill="#FFFFFE"/>
<path fill-rule="evenodd" clip-rule="evenodd" d="M227.215 60.2233C227.215 60.3957 217.204 60.5345 204.858 60.5345C192.507 60.5345 182.499 60.3957 182.499 60.2233C182.499 60.051 192.507 59.9121 204.858 59.9121C217.204 59.9121 227.215 60.051 227.215 60.2233Z" fill="#FFFFFE"/>
</svg>
