<svg width="548" height="491" viewBox="0 0 548 491" fill="none" xmlns="http://www.w3.org/2000/svg">
<path d="M393.807 63.4646C325.179 -16.2813 245.259 -3.55304 207.477 43.9115C146.134 120.974 304.86 176.566 384.605 176.566C487.384 176.566 515.343 222.957 536.812 308.454C547.516 351.079 554.832 448.009 449.399 479.831C343.965 511.653 205.56 458.744 207.477 365.963C209.394 273.181 202.11 164.681 110.095 156.246C41.7441 149.981 11.9463 182.317 2.74431 229.474C-3.53198 261.639 12.7127 329.157 83.2573 339.125" stroke="#155AC1" stroke-width="2" stroke-dasharray="5 8"/>
<path d="M544.171 322.335C542.571 320.856 540.971 319.376 539.371 317.896C539.079 319.024 538.792 320.151 538.499 321.279C540.846 320.599 543.188 319.918 545.535 319.238C545.869 319.143 546.207 319.043 546.541 318.948C547.534 318.658 548.248 317.501 547.919 316.459C547.589 315.422 546.555 314.737 545.493 315.046C543.146 315.727 540.804 316.407 538.458 317.088C538.124 317.183 537.785 317.283 537.451 317.378C536.083 317.777 535.457 319.719 536.579 320.76C538.179 322.24 539.779 323.72 541.379 325.199C542.145 325.908 543.425 326.032 544.171 325.199C544.862 324.424 544.988 323.092 544.171 322.335Z" fill="#02A7E9"/>
<path d="M13.6525 189.822C15.8386 189.733 18.0188 189.639 20.205 189.551C20.5214 189.539 20.8375 189.523 21.1539 189.511C20.401 188.346 19.6421 187.175 18.8891 186.009C17.6321 188.335 16.381 190.666 15.124 192.992C14.9436 193.325 14.7633 193.657 14.5832 193.995C13.9857 195.103 14.4558 196.697 15.6224 197.234C16.8238 197.787 18.2229 197.378 18.8617 196.195C20.1187 193.869 21.3698 191.538 22.6268 189.212C22.8072 188.879 22.9876 188.547 23.1676 188.209C24.0485 186.577 22.6876 184.629 20.9029 184.707C18.7167 184.796 16.5365 184.889 14.3504 184.978C14.034 184.989 13.7179 185.006 13.4014 185.017C12.1417 185.068 10.9999 186.267 11.1305 187.545C11.246 188.858 12.3024 189.877 13.6525 189.822Z" fill="#146BFF"/>
<path d="M250.325 453.064C252.042 451.339 253.759 449.622 255.476 447.897C255.723 447.654 255.969 447.404 256.209 447.16C254.713 446.767 253.216 446.379 251.72 445.986C252.465 448.816 253.216 451.646 253.961 454.469C254.069 454.875 254.176 455.275 254.283 455.681C254.637 457.024 256.221 457.974 257.585 457.536C258.986 457.087 259.845 455.706 259.46 454.269C258.715 451.439 257.964 448.61 257.219 445.786C257.112 445.38 257.004 444.98 256.897 444.574C256.385 442.644 253.816 441.988 252.408 443.4C250.691 445.124 248.974 446.842 247.257 448.566C247.011 448.809 246.764 449.059 246.524 449.303C245.533 450.296 245.451 452.089 246.524 453.064C247.598 454.032 249.271 454.119 250.325 453.064Z" fill="#02A7E9"/>
<path d="M253.826 2.72806C253.797 4.91614 253.762 7.10422 253.733 9.2923C254.779 8.67863 255.829 8.05993 256.875 7.44626C254.612 6.26923 252.353 5.09219 250.089 3.91516C249.765 3.74413 249.441 3.57814 249.117 3.40712C248.145 2.89909 246.804 3.11035 246.259 4.17672C245.758 5.15255 245.97 6.56097 247.011 7.10422C249.269 8.27622 251.528 9.45326 253.792 10.6353C254.116 10.8063 254.44 10.9723 254.764 11.1434C256.168 11.8727 257.882 10.9824 257.907 9.29733C257.936 7.10925 257.97 4.92117 258 2.73309C258.015 1.61139 257.028 0.539985 255.913 0.595316C254.769 0.640586 253.841 1.52588 253.826 2.72806Z" fill="#146BFF"/>
</svg>
