<svg width="23" height="18" viewBox="0 0 23 18" fill="none" xmlns="http://www.w3.org/2000/svg">
<path d="M22.46 2.12344C21.6328 2.48595 20.7462 2.72725 19.8124 2.83724C20.7664 2.27832 21.4959 1.39056 21.8405 0.332209C20.9505 0.850725 19.9639 1.22783 18.9134 1.43097C18.0739 0.551063 16.8753 0 15.551 0C13.0044 0 10.9438 2.02805 10.9438 4.53308C10.9438 4.88661 10.9842 5.23453 11.0605 5.56899C7.23115 5.37595 3.83723 3.57125 1.56452 0.830523C1.16722 1.50055 0.937143 2.27832 0.937143 3.10997C0.937143 4.68123 1.7542 6.06842 2.98875 6.88436C2.23455 6.85854 1.523 6.6554 0.903473 6.31534C0.902351 6.33441 0.90235 6.35237 0.90235 6.37257C0.90235 8.57009 2.49044 10.4029 4.59817 10.8204C4.21321 10.9214 3.80581 10.9786 3.38381 10.9786C3.08752 10.9786 2.8002 10.9517 2.5185 10.8989C3.10323 12.698 4.8058 14.0089 6.8215 14.0482C5.248 15.2625 3.25924 15.9898 1.09876 15.9898C0.72839 15.9898 0.359144 15.9685 0 15.9247C2.03814 17.2109 4.46237 17.9606 7.06504 17.9606C15.5409 17.9606 20.1761 11.0516 20.1761 5.05945C20.1761 4.86529 20.1693 4.66551 20.1604 4.47472C21.0605 3.8305 21.8416 3.03253 22.46 2.12344Z" fill="#02A7E9"/>
</svg>
