<svg width="50" height="50" viewBox="0 0 50 50" fill="none" xmlns="http://www.w3.org/2000/svg">
<g clip-path="url(#clip0_269_3522)">
<path d="M23.9563 25.7552C25.4327 25.7552 26.6338 24.5528 26.6338 23.0749V22.724H26.8021C28.2448 22.724 29.4186 21.5502 29.4186 20.1074V17.4196C29.4186 15.9769 28.2447 14.803 26.8021 14.803H26.6338V14.4521C26.6338 12.9741 25.4327 11.7719 23.9563 11.7719H19.2179V9.99814C19.2179 9.5667 18.8681 9.21689 18.4366 9.21689C18.0052 9.21689 17.6554 9.5667 17.6554 9.99814V11.7719H12.9169C11.4405 11.7719 10.2395 12.9742 10.2395 14.4521V14.803H10.0712C8.62842 14.803 7.45469 15.9769 7.45469 17.4196V20.1074C7.45469 21.5502 8.62852 22.724 10.0712 22.724H10.2395V23.0749C10.2395 24.5528 11.4405 25.7552 12.9169 25.7552H23.9563ZM26.8021 16.3655C27.3833 16.3655 27.8561 16.8384 27.8561 17.4196V20.1074C27.8561 20.6887 27.3832 21.1615 26.8021 21.1615H26.6338V16.3655H26.8021ZM10.0712 21.1615C9.48994 21.1615 9.01719 20.6887 9.01719 20.1074V17.4196C9.01719 16.8384 9.49004 16.3655 10.0712 16.3655H10.2395V21.1615H10.0712ZM11.802 23.0749V14.4521C11.802 13.8357 12.3021 13.3344 12.9169 13.3344H23.9563C24.5711 13.3344 25.0713 13.8358 25.0713 14.4521V23.0749C25.0713 23.6913 24.5711 24.1927 23.9563 24.1927H12.9169C12.3021 24.1927 11.802 23.6912 11.802 23.0749ZM15.0865 17.3835V15.9662C15.0865 15.5348 15.4363 15.185 15.8678 15.185C16.2992 15.185 16.649 15.5348 16.649 15.9662V17.3835C16.649 17.8149 16.2992 18.1647 15.8678 18.1647C15.4363 18.1647 15.0865 17.8149 15.0865 17.3835ZM20.2243 17.3835V15.9662C20.2243 15.5348 20.5741 15.185 21.0056 15.185C21.437 15.185 21.7868 15.5348 21.7868 15.9662V17.3835C21.7868 17.8149 21.437 18.1647 21.0056 18.1647C20.5741 18.1647 20.2243 17.8149 20.2243 17.3835ZM16.5377 20.1787H20.3356C20.7671 20.1787 21.1169 20.5285 21.1169 20.96C21.1169 21.3914 20.7671 21.7412 20.3356 21.7412H16.5377C16.1062 21.7412 15.7564 21.3914 15.7564 20.96C15.7564 20.5285 16.1062 20.1787 16.5377 20.1787ZM44.319 13.4327H36.8732V9.13164C36.8732 5.99922 34.3248 3.45068 31.1924 3.45068H5.68086C2.54844 3.45068 0 5.99922 0 9.13164V25.8375C0 28.9699 2.54844 31.5184 5.68086 31.5184H10.8585C10.7124 33.5867 9.95791 34.4473 8.81445 35.1066C8.50811 35.2834 8.35859 35.6439 8.4501 35.9855C8.5416 36.3272 8.85107 36.5647 9.20479 36.5647C10.5502 36.5647 11.8802 36.3213 13.1274 35.8526C13.1439 38.9711 15.6854 41.5031 18.8076 41.5031H31.4713C32.4238 42.959 33.7117 44.1812 35.2187 45.0546C36.9059 46.0326 38.8342 46.5496 40.7952 46.5496C41.1489 46.5496 41.4585 46.312 41.5499 45.9703C41.6414 45.6287 41.4919 45.2683 41.1855 45.0916C40.0421 44.4321 39.2876 43.5715 39.1415 41.5031H44.3191C47.4517 41.5031 50.0001 38.9547 50.0001 35.8223V19.1137C50 15.9813 47.4516 13.4327 44.319 13.4327ZM11.6657 29.956H5.68086C3.40996 29.956 1.5625 28.1085 1.5625 25.8376V9.13164C1.5625 6.86074 3.40996 5.01318 5.68086 5.01318H31.1924C33.4633 5.01318 35.3107 6.86074 35.3107 9.13164V25.8375C35.3107 28.1084 33.4633 29.9559 31.1924 29.9559H18.0962C17.8214 29.9559 17.5668 30.1003 17.4257 30.3362C16.1052 32.5445 13.9436 34.1109 11.4958 34.7205C12.15 33.7116 12.447 32.4241 12.447 30.7372C12.447 30.3058 12.0972 29.956 11.6657 29.956ZM48.4375 35.8224C48.4375 38.0933 46.59 39.9407 44.319 39.9407H38.3343C37.9028 39.9407 37.553 40.2905 37.553 40.722C37.553 42.4089 37.8501 43.6965 38.5043 44.7055C36.0565 44.0959 33.8949 42.5294 32.5744 40.3211C32.4334 40.0852 32.1787 39.9407 31.9039 39.9407H18.8076C16.5367 39.9407 14.6892 38.0933 14.6892 35.8224V35.1212C14.7197 35.1038 14.7509 35.0874 14.7813 35.0698C16.2883 34.1964 17.5761 32.9743 18.5287 31.5185H31.1924C34.3248 31.5185 36.8732 28.97 36.8732 25.8376V14.9952H44.319C46.5899 14.9952 48.4375 16.8428 48.4375 19.1137V35.8224Z" fill="white" stroke="white" stroke-width="0.3"/>
</g>
<defs>
<clipPath id="clip0_269_3522">
<rect width="50" height="50" fill="white"/>
</clipPath>
</defs>
</svg>
