<svg width="82" height="106" viewBox="0 0 82 106" fill="none" xmlns="http://www.w3.org/2000/svg">
<path fill-rule="evenodd" clip-rule="evenodd" d="M50.6021 0.896788C50.6021 0.896788 74.3708 1.95774 76.9647 22.7576C79.5596 43.5574 59.4513 42.8031 53.6525 42.8651C51.0226 42.893 45.7718 42.8786 40.8166 42.8534C30.3069 42.8021 21.9213 38.8578 19.8637 28.5433C19.6238 27.3412 19.4855 26.1121 19.4779 24.8695C19.4127 13.6892 27.802 -0.944574 50.6021 0.896788Z" fill="#07377E"/>
<path fill-rule="evenodd" clip-rule="evenodd" d="M28.5042 25.1327L58.8846 27.279C62.0695 27.5041 64.8339 25.1149 65.0598 21.9433C65.2858 18.7717 62.8872 16.0172 59.7023 15.7922L29.322 13.6459C26.1389 13.4217 23.3736 15.81 23.1485 18.9825C22.9226 22.1541 25.3202 24.9077 28.5042 25.1327Z" fill="#07B8FF"/>
<path fill-rule="evenodd" clip-rule="evenodd" d="M52.3931 22.0612C52.5318 23.0616 53.4549 23.7597 54.4549 23.6192C55.4548 23.4804 56.1527 22.557 56.0131 21.5566C55.8736 20.5572 54.9513 19.8599 53.9513 19.9987C52.9514 20.1374 52.2544 21.0609 52.3931 22.0612Z" fill="#FFFFFE"/>
<path fill-rule="evenodd" clip-rule="evenodd" d="M31.0386 20.522C31.1773 21.5221 32.1004 22.2192 33.1004 22.0805C34.1003 21.9418 34.7982 21.0185 34.6586 20.0183C34.52 19.0182 33.5968 18.3202 32.5969 18.4598C31.5969 18.5994 30.8999 19.5218 31.0386 20.522Z" fill="#FFFFFE"/>
<path fill-rule="evenodd" clip-rule="evenodd" d="M43.1491 13.2463C43.2045 13.2598 43.4459 12.3952 43.8562 11.0114C44.2583 9.62756 44.9373 7.75148 46.0983 5.88532C47.2293 4.01014 48.7469 2.66055 50.0205 2.00695C51.2903 1.3326 52.2017 1.20368 52.1826 1.13246C52.179 1.11083 51.952 1.12615 51.5481 1.20459C51.1469 1.28933 50.5687 1.45431 49.9015 1.77345C48.5536 2.38558 46.9388 3.76672 45.7797 5.69239C44.5969 7.5919 43.9397 9.53289 43.6012 10.942C43.4251 11.6461 43.3053 12.2203 43.229 12.6188C43.1537 13.0173 43.1246 13.2409 43.1491 13.2463Z" fill="#FFFFFE"/>
<path fill-rule="evenodd" clip-rule="evenodd" d="M46.6031 42.8783C46.644 42.8263 45.8799 42.2811 44.8807 41.1764C43.8897 40.0789 42.6982 38.3546 42.0743 36.19C41.5078 34.0101 41.2828 31.9558 41.3156 30.4781C41.3329 28.9923 41.3593 28.0661 41.3019 28.0634C41.2764 28.0616 41.2381 28.2911 41.1917 28.7063C41.1471 29.1215 41.0897 29.7231 41.0514 30.471C40.9512 31.9738 41.1334 34.0595 41.7145 36.2904C42.3576 38.5258 43.6255 40.2797 44.6857 41.354C45.2177 41.8956 45.6986 42.282 46.0393 42.5331C46.3854 42.7788 46.5885 42.8971 46.6031 42.8783Z" fill="#FFFFFE"/>
<path fill-rule="evenodd" clip-rule="evenodd" d="M59.3018 42.6873C62.0026 42.4653 65.0995 41.9532 67.9538 40.7631C67.9556 40.7658 67.9574 40.7686 67.9593 40.7714C67.9593 40.7714 65.1258 42.3327 59.3018 42.6873Z" fill="#F0F6FF"/>
<path fill-rule="evenodd" clip-rule="evenodd" d="M47.9751 42.88C47.4758 42.88 46.9855 42.88 46.5087 42.8791C46.4683 42.7783 45.7435 42.2273 44.8114 41.1688C43.8343 40.0577 42.6597 38.312 42.0446 36.1207C41.9521 35.7566 41.8695 35.3962 41.7949 35.0404C41.979 35.0359 42.1622 35.0313 42.3454 35.0277C43.3781 35.0041 44.4172 34.9905 45.4553 34.9905C51.8286 34.9905 58.2225 35.5233 63.6834 37.7701C65.4696 38.5054 66.9917 39.4096 67.9598 40.8039C65.1373 41.9768 62.0751 42.4815 59.4043 42.7002C59.1538 42.7157 58.8978 42.7284 58.6356 42.7393C55.8553 42.8509 51.6687 42.88 47.9751 42.88Z" fill="#004DD1"/>
<path fill-rule="evenodd" clip-rule="evenodd" d="M29.2892 40.7631C25.6743 39.1851 25.2655 38.2995 25.249 38.2616C26.4506 39.2673 27.8059 40.096 29.2892 40.7631Z" fill="#F0F6FF"/>
<path fill-rule="evenodd" clip-rule="evenodd" d="M46.4118 42.8803C42.8242 42.8723 40.0258 42.8419 40.0258 42.8419C40.0258 42.8419 40.0124 42.8419 39.9872 42.8419C39.4844 42.8419 34.1749 42.7946 29.58 40.8337C29.4552 40.7802 29.334 40.7275 29.2155 40.6758C27.7593 40.0162 26.4287 39.1969 25.249 38.2026C25.249 38.2017 25.249 38.2017 25.249 38.2017C27.7198 36.5015 29.6042 36.564 32.7492 35.9722C35.5916 35.4376 38.4906 35.2644 41.3752 35.1832C41.4515 35.5617 41.5404 35.9463 41.6409 36.3355C42.2748 38.5605 43.5245 40.3063 44.5696 41.3755C45.0939 41.9146 45.5679 42.2993 45.9036 42.5492C46.1568 42.7304 46.3319 42.8419 46.4118 42.8803Z" fill="#004DD1"/>
<path fill-rule="evenodd" clip-rule="evenodd" d="M46.4123 42.8803C46.3973 42.8803 46.3814 42.8803 46.3663 42.8803C46.2877 42.842 46.1154 42.7305 45.8663 42.5496C45.5359 42.3 45.0694 41.9158 44.5535 41.3774C43.5251 40.3096 42.2954 38.566 41.6716 36.3438C41.5727 35.9552 41.4852 35.571 41.4102 35.193C41.5321 35.1903 41.654 35.1868 41.775 35.1832C41.8483 35.5326 41.9296 35.8865 42.0206 36.244C42.6258 38.3958 43.7813 40.1099 44.7425 41.2009C45.6596 42.2403 46.3725 42.7814 46.4123 42.8803Z" fill="#F0F6FF"/>
<path fill-rule="evenodd" clip-rule="evenodd" d="M21.3252 18.6485C21.3252 18.6485 21.2184 19.0192 21.2083 19.7463C21.2022 20.4645 21.3028 21.5722 21.9258 22.8195C22.5317 24.0597 23.7633 25.3877 25.5892 26.1677C27.4088 26.9673 29.67 27.2279 32.1153 27.4034C37.0247 27.7821 42.8614 28.2317 49.34 28.7313C50.9612 28.854 52.6227 28.9812 54.3194 29.1101C56.0169 29.2193 57.7422 29.4262 59.534 29.4092C61.3042 29.3967 63.2262 29.0009 64.6903 27.7786C66.1301 26.5733 67.0897 24.7922 67.3222 22.8885C67.57 20.9812 67.0305 19.0255 65.9228 17.5212C64.8222 16.0078 63.2028 14.9369 61.4622 14.4578C60.5861 14.2026 59.6884 14.1623 58.8329 14.0772C57.9684 13.9993 57.1121 13.9205 56.2647 13.8426C54.5698 13.6868 52.9109 13.5346 51.2924 13.3868C48.0554 13.0922 44.9781 12.8119 42.0975 12.5496C39.2132 12.34 36.5525 11.9084 34.0866 11.7625C32.8541 11.6873 31.6745 11.6864 30.565 11.7723C29.4555 11.8458 28.4052 12.0177 27.4654 12.3114C25.5713 12.8755 24.1188 13.8552 23.1619 14.8518C22.2121 15.869 21.7597 16.8782 21.555 17.5695C21.4338 17.9125 21.4006 18.1892 21.3647 18.3709C21.3324 18.5545 21.3189 18.6476 21.3252 18.6485C21.3539 18.6548 21.3926 18.2715 21.626 17.5919C21.8513 16.9158 22.3172 15.9353 23.2651 14.9512C24.2202 13.9886 25.6574 13.0448 27.5246 12.5093C28.4537 12.229 29.4797 12.0705 30.5812 12.006C31.6808 11.929 32.8478 11.9389 34.0696 12.0222C36.5148 12.1824 39.1783 12.6293 42.0625 12.8531C44.9422 13.1263 48.0186 13.4173 51.2556 13.7235C52.8741 13.8766 54.5339 14.0325 56.2287 14.1909C57.0761 14.2706 57.9325 14.3512 58.797 14.4327C59.6668 14.5196 60.5349 14.5608 61.3643 14.8052C63.0304 15.2664 64.578 16.2935 65.6256 17.7361C66.6795 19.1697 67.1912 21.0295 66.9569 22.8437C66.737 24.6561 65.8168 26.3566 64.4568 27.4965C63.0798 28.6463 61.2629 29.0331 59.5268 29.0483C57.7781 29.0689 56.0429 28.8657 54.3454 28.76C52.6479 28.6346 50.9872 28.5128 49.3651 28.3937C42.8839 27.9227 37.0454 27.5001 32.1351 27.1437C29.6889 26.9861 27.459 26.7434 25.6718 25.9796C23.8791 25.2346 22.6673 23.9586 22.0532 22.7551C21.4249 21.5426 21.3001 20.4564 21.2821 19.7463C21.2678 19.0264 21.3468 18.6512 21.3252 18.6485Z" fill="#FFFFFE"/>
<path fill-rule="evenodd" clip-rule="evenodd" d="M77.1924 26.3246C77.2164 26.2837 76.7488 25.9403 75.9356 25.4814C75.1242 25.0224 73.9565 24.4651 72.6072 24.0098C71.2569 23.5563 69.993 23.2958 69.0738 23.1711C68.1528 23.0463 67.5775 23.0399 67.5738 23.0864C67.5579 23.2048 69.8344 23.4634 72.4931 24.3658C75.1536 25.2537 77.1363 26.4285 77.1924 26.3246Z" fill="#FFFFFE"/>
<path fill-rule="evenodd" clip-rule="evenodd" d="M49.5332 4.01284C49.336 3.92144 49.0724 4.10039 49.0849 4.31783C49.0955 4.53431 49.3783 4.68248 49.5649 4.56991C49.7496 4.45734 49.7477 4.13791 49.5601 4.02727" fill="#FFFFFE"/>
<path fill-rule="evenodd" clip-rule="evenodd" d="M46.6489 9.97828C46.4526 9.88592 46.1871 10.0658 46.1996 10.2833C46.2121 10.4998 46.495 10.6479 46.6797 10.5354C46.8653 10.4218 46.8624 10.1024 46.6758 9.99271" fill="#FFFFFE"/>
<path fill-rule="evenodd" clip-rule="evenodd" d="M70.8886 21.9085C70.6914 21.8171 70.4269 21.996 70.4394 22.2135C70.4519 22.4299 70.7338 22.5791 70.9194 22.4656C71.1051 22.352 71.1022 22.0335 70.9156 21.9229" fill="#FFFFFE"/>
<path fill-rule="evenodd" clip-rule="evenodd" d="M75.8925 23.6401C75.6953 23.5487 75.4317 23.7267 75.4432 23.9442C75.4557 24.1616 75.7385 24.3098 75.9232 24.1972C76.1098 24.0846 76.107 23.7652 75.9194 23.6536" fill="#FFFFFE"/>
<path fill-rule="evenodd" clip-rule="evenodd" d="M74.3244 21.5211C74.015 21.5211 73.8404 19.3219 72.2598 16.3432C71.4781 14.8427 70.2951 13.1926 68.728 11.5971C67.1564 10.0088 65.1764 8.50295 62.895 7.28821C58.2747 4.87755 53.5078 3.93962 50.0848 3.32688C49.4929 3.22475 48.9387 3.13159 48.4268 3.04559C48.927 2.61291 49.429 2.26443 49.8995 2.01091C50.0155 2.01897 50.1333 2.02704 50.2521 2.036C52.027 2.17754 54.1447 2.44807 56.4629 2.99273C58.7776 3.53201 61.2947 4.37588 63.7596 5.66139C66.2272 6.97378 68.3358 8.64719 69.965 10.4317C71.5905 12.2215 72.7555 14.0974 73.4419 15.7896C74.1373 17.4782 74.4296 18.9375 74.4818 19.9471C74.543 20.9567 74.4477 21.513 74.3316 21.5202C74.3298 21.5211 74.3271 21.5211 74.3244 21.5211ZM48.004 2.97392C45.7901 2.60126 44.4731 2.36924 44.4884 2.15782C44.4974 2.01001 45.361 1.89355 46.8777 1.89355C47.5821 1.89355 48.4259 1.91864 49.3912 1.97687C48.9396 2.23397 48.4691 2.56901 48.004 2.97392Z" fill="#146BFF"/>
<path fill-rule="evenodd" clip-rule="evenodd" d="M48.3789 3.04812C48.2328 3.02102 48.0894 2.99586 47.9497 2.97069C48.4218 2.53326 48.8993 2.17131 49.3577 1.89355C49.5266 1.90517 49.6983 1.91678 49.8736 1.93033C49.396 2.20421 48.8866 2.58068 48.3789 3.04812Z" fill="#FFFFFE"/>
<path fill-rule="evenodd" clip-rule="evenodd" d="M71.7945 32.4889C71.6922 32.4889 71.6095 32.4605 71.5499 32.4027C71.1773 32.0515 71.6708 30.9321 72.3147 29.6793C72.9426 28.4914 73.55 27.4858 74.04 27.4858C74.0631 27.4858 74.0871 27.4876 74.1093 27.493C74.5976 27.5845 74.7194 29.024 73.935 30.524C73.2841 31.7768 72.3067 32.4889 71.7945 32.4889Z" fill="#146BFF"/>
<path fill-rule="evenodd" clip-rule="evenodd" d="M39.1459 20.9437C39.114 20.9332 38.9897 21.559 39.3776 22.4644C39.5729 22.9071 39.904 23.4067 40.4188 23.8177C40.9284 24.2314 41.6252 24.5198 42.3824 24.5864C43.1404 24.6495 43.8781 24.4847 44.4515 24.1622C45.0302 23.8458 45.443 23.4093 45.7129 23.0061C46.2526 22.1804 46.2402 21.5432 46.2064 21.5485C46.1425 21.5292 46.0591 22.1287 45.5034 22.8588C45.2255 23.2164 44.8243 23.5986 44.2935 23.8694C43.7662 24.1455 43.1014 24.284 42.4143 24.2279C41.7272 24.1657 41.0961 23.9168 40.6257 23.5565C40.1499 23.1989 39.8223 22.7545 39.6093 22.3557C39.1903 21.5415 39.2116 20.9376 39.1459 20.9437Z" fill="#FFFFFE"/>
<path fill-rule="evenodd" clip-rule="evenodd" d="M20.9818 50.3113C19.5935 50.8167 21.1795 71.3057 22.2469 81.7436C22.8193 87.3385 23.6658 93.1546 26.8736 97.7727C30.4481 102.916 36.7893 105.206 43.0136 105.868C51.6839 106.791 58.4752 102.681 62.4154 95.7834C66.1534 89.2388 68.8357 81.7184 69.7827 74.2394C70.8745 65.6245 71.6131 60.009 71.3777 52.4742C71.3777 52.4742 46.1541 41.1397 20.9818 50.3113Z" fill="#07377E"/>
<path fill-rule="evenodd" clip-rule="evenodd" d="M55.7102 91.576C55.5187 91.4711 55.2427 91.6318 55.2407 91.8502C55.2388 92.0667 55.512 92.2341 55.7044 92.1331C55.8968 92.032 55.9151 91.7136 55.7352 91.5914" fill="#FFFFFE"/>
<path fill-rule="evenodd" clip-rule="evenodd" d="M46.4729 91.9596C46.2815 91.8557 46.0063 92.0174 46.0044 92.2348C46.0025 92.4523 46.2747 92.6187 46.468 92.5177C46.6604 92.4176 46.6787 92.0982 46.4989 91.976" fill="#FFFFFE"/>
<path fill-rule="evenodd" clip-rule="evenodd" d="M35.8937 83.3012C35.7033 83.1963 35.4272 83.358 35.4253 83.5745C35.4234 83.7929 35.6956 83.9593 35.888 83.8583C36.0804 83.7582 36.0996 83.4398 35.9197 83.3166" fill="#FFFFFE"/>
<path fill-rule="evenodd" clip-rule="evenodd" d="M38.778 59.8253C38.5876 59.7204 38.3125 59.882 38.3106 60.0995C38.3086 60.3169 38.5799 60.4834 38.7723 60.3823C38.9656 60.2823 38.9839 59.9638 38.805 59.8416" fill="#FFFFFE"/>
<path fill-rule="evenodd" clip-rule="evenodd" d="M29.7366 64.2503C29.5461 64.1454 29.271 64.3071 29.2691 64.5245C29.2671 64.742 29.5394 64.9084 29.7318 64.8083C29.9241 64.7073 29.9425 64.3879 29.7626 64.2657" fill="#FFFFFE"/>
<path fill-rule="evenodd" clip-rule="evenodd" d="M65.7136 88.1114C65.5231 88.0065 65.248 88.1682 65.2451 88.3856C65.2432 88.6031 65.5154 88.7695 65.7078 88.6685C65.9002 88.5684 65.9194 88.25 65.7386 88.1278" fill="#FFFFFE"/>
<path fill-rule="evenodd" clip-rule="evenodd" d="M66.6765 80.4149C66.486 80.31 66.2109 80.4716 66.208 80.6891C66.2061 80.9075 66.4783 81.073 66.6707 80.9729C66.8631 80.8719 66.8823 80.5524 66.7015 80.4302" fill="#FFFFFE"/>
<path fill-rule="evenodd" clip-rule="evenodd" d="M66.8655 73.295C66.675 73.1901 66.3999 73.3517 66.398 73.5682C66.3951 73.7866 66.6673 73.9531 66.8597 73.8521C67.0531 73.752 67.0714 73.4335 66.8915 73.3104L66.8655 73.295Z" fill="#FFFFFE"/>
<path fill-rule="evenodd" clip-rule="evenodd" d="M66.8655 65.9828C66.675 65.878 66.3999 66.0386 66.398 66.257C66.396 66.4735 66.6673 66.6409 66.8597 66.5399C67.0531 66.4389 67.0714 66.1204 66.8915 65.9982L66.8655 65.9828Z" fill="#FFFFFE"/>
<path fill-rule="evenodd" clip-rule="evenodd" d="M24.1579 62.904C23.9675 62.7991 23.6924 62.9608 23.6905 63.1782C23.6876 63.3957 23.9598 63.5621 24.1522 63.4611C24.3446 63.361 24.3638 63.0426 24.1839 62.9204" fill="#FFFFFE"/>
<path fill-rule="evenodd" clip-rule="evenodd" d="M35.1243 91.9601C34.9338 91.8553 34.6587 92.0169 34.6558 92.2344C34.6538 92.4518 34.9261 92.6183 35.1185 92.5182C35.3118 92.4172 35.3301 92.0987 35.1502 91.9755" fill="#FFFFFE"/>
<path fill-rule="evenodd" clip-rule="evenodd" d="M34.5461 99.4648C34.3547 99.3599 34.0796 99.5215 34.0776 99.7399C34.0757 99.9564 34.347 100.123 34.5413 100.023C34.7337 99.9218 34.751 99.6033 34.5721 99.4811" fill="#FFFFFE"/>
<path fill-rule="evenodd" clip-rule="evenodd" d="M57.1852 100.8C57.1941 100.809 57.3175 100.695 57.5463 100.468C57.7761 100.243 58.1051 99.8999 58.5029 99.4349C59.2949 98.5121 60.3972 97.0695 61.1687 94.9928C61.5585 93.9612 61.8419 92.7803 62.0984 91.523C62.3756 90.2656 62.641 88.9165 62.9119 87.4946C63.4474 84.6507 63.9436 81.5055 64.3512 78.1895C65.1737 71.5538 65.4257 65.4982 65.4561 61.1218C65.4642 58.9318 65.4294 57.1618 65.3829 55.9386C65.356 55.3576 65.3328 54.8899 65.3158 54.5311C65.2961 54.2091 65.28 54.0409 65.2675 54.0409C65.2541 54.0418 65.2469 54.21 65.2416 54.5329C65.2416 54.8917 65.2407 55.3603 65.2407 55.9413C65.2425 57.1645 65.238 58.9327 65.1969 61.1182C65.0995 65.4865 64.8063 71.5241 63.9856 78.1445C63.5797 81.4516 63.0943 84.5914 62.5794 87.4334C62.3174 88.8536 62.0645 90.2026 61.8007 91.4591C61.5567 92.7236 61.293 93.882 60.9256 94.9029C60.1997 96.9517 59.1465 98.397 58.3929 99.3423C58.0148 99.8189 57.7046 100.177 57.4936 100.418C57.2818 100.66 57.1754 100.791 57.1852 100.8Z" fill="#FFFFFE"/>
<path fill-rule="evenodd" clip-rule="evenodd" d="M39.0738 79.4412C38.979 79.4358 38.6565 85.1186 38.3522 92.1324C38.0472 99.147 37.8767 104.837 37.9715 104.842C38.0654 104.847 38.388 99.165 38.6931 92.1494C38.9973 85.1366 39.1677 79.4457 39.0738 79.4412Z" fill="#FFFFFE"/>
<path fill-rule="evenodd" clip-rule="evenodd" d="M47.3711 46.9221C47.3504 46.9077 47.1842 47.1013 46.9021 47.467C46.6191 47.8317 46.2202 48.3667 45.7332 49.0322C44.7602 50.3633 43.4368 52.2167 41.9949 54.2763C41.8152 54.5339 41.6373 54.7896 41.4612 55.04L41.3956 55.1337L41.3201 55.2516L41.2734 55.412L41.2609 55.5317C41.2393 55.6929 41.2357 55.8433 41.2285 55.9937C41.2087 56.5953 41.2177 57.169 41.2285 57.7166C41.2536 58.8081 41.2994 59.7906 41.3444 60.6146C41.3902 61.4387 41.4378 62.106 41.4782 62.5653C41.5187 63.0255 41.551 63.2786 41.5762 63.2777C41.631 63.2768 41.6319 62.2546 41.6058 60.6056C41.5951 59.7492 41.5825 58.7747 41.569 57.7112C41.5672 57.1672 41.5654 56.5944 41.5905 56.0099C41.5977 55.8649 41.6031 55.7163 41.6229 55.5786L41.6346 55.4723L41.649 55.4129L41.7613 55.2516C41.9374 55.0013 42.1161 54.7464 42.2967 54.4888C43.7396 52.4283 45.0288 50.5515 45.947 49.1826C46.4061 48.4973 46.7727 47.9398 47.0198 47.5498C47.2651 47.1599 47.3917 46.9365 47.3711 46.9221Z" fill="#FFFFFE"/>
<path fill-rule="evenodd" clip-rule="evenodd" d="M39.293 90.1791C39.2912 90.2058 39.6098 90.2471 40.1889 90.3005C40.7662 90.3565 41.6049 90.4136 42.6422 90.4678C44.7151 90.5763 47.5846 90.6434 50.7531 90.5726C53.9224 90.4991 56.7875 90.2996 58.8541 90.0973C59.887 89.9952 60.722 89.8996 61.2976 89.8177C61.8731 89.7378 62.1899 89.6808 62.1873 89.655C62.1846 89.6293 61.8633 89.6366 61.2842 89.6715C60.6317 89.7138 59.8109 89.7672 58.8335 89.8306C56.7651 89.9649 53.9063 90.1212 50.7459 90.1947C47.5847 90.2655 44.7232 90.2407 42.6512 90.2012C41.672 90.1819 40.8494 90.1662 40.1961 90.1543C39.6152 90.1451 39.2939 90.1533 39.293 90.1791Z" fill="#FFFFFE"/>
<path fill-rule="evenodd" clip-rule="evenodd" d="M20.8238 64.0529C20.8121 64.0758 20.9942 64.1881 21.3333 64.3725C21.6714 64.556 22.1737 64.7979 22.8096 65.0599C24.077 65.5958 25.8879 66.1901 27.9338 66.6402C29.9798 67.0912 31.8642 67.3258 33.2284 67.4308C34.5954 67.5348 35.443 67.5239 35.4448 67.4764C35.4484 67.4198 34.607 67.3386 33.2554 67.1669C31.9037 66.9953 30.0416 66.7214 28.0119 66.2741C25.9839 65.8268 24.1819 65.2799 22.9029 64.8125C21.6212 64.3506 20.8489 63.9991 20.8238 64.0529Z" fill="#FFFFFE"/>
<path fill-rule="evenodd" clip-rule="evenodd" d="M32.5824 71.7703C32.9153 76.3277 36.8783 79.752 41.4354 79.4191C45.9917 79.0861 49.416 75.1212 49.0832 70.5638C48.7494 66.0064 44.7855 62.5821 40.2302 62.9151C35.673 63.248 32.2496 67.212 32.5824 71.7703Z" fill="#07B8FF"/>
<path fill-rule="evenodd" clip-rule="evenodd" d="M34.6937 71.7046C34.9366 75.0434 37.8413 77.5518 41.1796 77.3079C44.5179 77.0641 47.026 74.159 46.7813 70.8211C46.5375 67.4823 43.6337 64.974 40.2954 65.2178C36.9571 65.4616 34.449 68.3667 34.6937 71.7046Z" fill="#FFFFFE"/>
<path fill-rule="evenodd" clip-rule="evenodd" d="M37.7508 72.7309C37.7739 72.7176 37.7917 72.3621 37.8059 71.7413C37.821 71.1213 37.8326 70.2359 37.8343 69.1563L37.7686 69.2739C38.6656 68.751 39.7101 68.1399 40.8498 67.4736L40.6783 67.4763C41.6446 68.0206 42.6927 68.6103 43.7871 69.2267C43.8706 69.3674 43.6742 69.036 43.6937 69.0699V69.0984L43.6946 69.1278L43.7079 70.0016C43.7133 70.308 43.7186 70.6109 43.7231 70.9093C43.7346 71.5061 43.7462 72.0851 43.7568 72.6436L43.8404 72.4931C42.7141 73.1825 41.6873 73.8105 40.7956 74.3557L40.9316 74.3548C39.9813 73.8417 39.1999 73.4337 38.6469 73.1522C38.094 72.8708 37.7739 72.7185 37.7508 72.7309C37.7277 72.7452 38.0041 72.926 38.5295 73.2467C39.054 73.5673 39.8284 74.0296 40.7992 74.5917L40.8667 74.63L40.936 74.5899C41.8375 74.0626 42.8767 73.456 44.0173 72.7897L44.1018 72.7398L44.1009 72.6383C44.0947 72.0798 44.0893 71.5008 44.0831 70.904C44.0796 70.6065 44.076 70.3027 44.0715 69.9954L44.0653 69.5322L44.0618 69.2988L44.0609 69.1812L44.06 69.1225L44.0591 69.093V69.0646C44.0796 69.0984 43.8813 68.767 43.9649 68.9069C42.8678 68.2976 41.8153 67.7133 40.8454 67.1753L40.7574 67.1254L40.6738 67.177C39.5466 67.8665 38.5153 68.498 37.629 69.0414L37.5605 69.0832L37.5632 69.1599C37.5961 70.2831 37.6343 71.1855 37.6672 71.8001C37.7001 72.4165 37.7277 72.7452 37.7508 72.7309Z" fill="#146BFF"/>
<path fill-rule="evenodd" clip-rule="evenodd" d="M71.2296 52.5013C71.2108 52.4931 63.3269 48.9057 51.9907 47.3722V47.3058C63.3233 48.8557 71.2108 52.4922 71.2296 52.5013Z" fill="#DCE9FF"/>
<path fill-rule="evenodd" clip-rule="evenodd" d="M51.9924 47.3385C50.2706 47.0941 48.4705 46.8988 46.6055 46.7728V46.6968C48.4696 46.8228 50.2706 47.02 51.9924 47.2683V47.3385Z" fill="#253D41"/>
<path fill-rule="evenodd" clip-rule="evenodd" d="M24.8643 49.0381V49.0146C30.7827 47.3531 36.633 46.729 42.0801 46.729C43.624 46.729 45.1338 46.7796 46.6042 46.8702V46.9391C45.123 46.8484 43.5989 46.7987 42.0433 46.7987C36.607 46.7987 30.7719 47.4098 24.8643 49.0381Z" fill="#DCE9FF"/>
<path fill-rule="evenodd" clip-rule="evenodd" d="M21.0166 50.3847C22.3001 49.8781 23.5835 49.4313 24.8644 49.0377V49.0629C23.5835 49.449 22.3001 49.8874 21.0166 50.3847Z" fill="#DCE9FF"/>
<path fill-rule="evenodd" clip-rule="evenodd" d="M44.7963 55.3882C43.7025 55.3882 42.6519 55.3692 41.6444 55.3338L41.6615 55.3084C41.8376 55.0565 42.0165 54.7999 42.1971 54.5407C43.6405 52.4668 44.9302 50.5777 45.8487 49.1999C46.308 48.5101 46.6746 47.9491 46.9218 47.5566C47.1671 47.1641 47.2939 46.9393 47.2732 46.9248C47.2723 46.9248 47.2714 46.9239 47.2705 46.9239C47.2409 46.9239 47.0764 47.1188 46.8041 47.4732C46.521 47.8403 46.1219 48.3787 45.6348 49.0486C44.6615 50.3883 43.3376 52.2537 41.8951 54.3268C41.7154 54.586 41.5374 54.8434 41.3613 55.0954L41.2957 55.1897L41.2202 55.3084L41.2175 55.3175C26.1078 54.7057 20.8232 50.3394 20.8232 50.3394C22.1354 49.8571 23.4476 49.432 24.757 49.0576C30.6824 47.3644 36.5351 46.729 41.9877 46.729C43.5479 46.729 45.0767 46.7807 46.5623 46.8749C48.4227 46.9937 50.2184 47.1777 51.9359 47.4079C63.304 48.9362 71.2103 52.5112 71.2291 52.5193C60.4263 54.6286 51.7283 55.3882 44.7963 55.3882Z" fill="#004DD1"/>
<path fill-rule="evenodd" clip-rule="evenodd" d="M41.8304 55.1957C41.6889 55.1904 41.55 55.1851 41.4102 55.1797L41.4128 55.1708L41.4871 55.0539L41.5517 54.9612C41.7251 54.7133 41.9004 54.46 42.0773 54.2049C43.4975 52.1653 44.8008 50.3299 45.7591 49.0118C46.2386 48.3528 46.6315 47.823 46.9102 47.4618C47.1783 47.1131 47.3402 46.9214 47.3694 46.9214C47.3703 46.9214 47.3712 46.9223 47.3721 46.9223C47.3924 46.9365 47.2677 47.1577 47.0261 47.5439C46.7828 47.93 46.4218 48.4821 45.9696 49.1608C45.0653 50.5163 43.7956 52.3749 42.3746 54.4154C42.1967 54.6705 42.0207 54.9229 41.8473 55.1708L41.8304 55.1957Z" fill="#DCE9FF"/>
<path fill-rule="evenodd" clip-rule="evenodd" d="M20.8229 50.3356C20.8229 50.3356 5.68137 38.1697 3.01851 39.0803C0.356539 39.9927 -0.668276 41.3967 0.560945 44.6838C1.78927 47.9699 20.8229 66.1638 20.8229 66.1638V50.3356Z" fill="#07377E"/>
<path fill-rule="evenodd" clip-rule="evenodd" d="M21.5612 73.6682C21.5272 73.6708 21.4697 73.3484 21.3942 72.7627C21.3178 72.1751 21.2319 71.3252 21.1451 70.2737C20.9706 68.1699 20.8055 65.2582 20.7168 62.0402C20.6262 58.8213 20.6168 55.907 20.6479 53.7977C20.663 52.7427 20.6876 51.8901 20.7159 51.3008C20.7461 50.7114 20.7781 50.3845 20.8112 50.3845C20.8451 50.3845 20.8772 50.7114 20.9074 51.2999C20.9319 51.994 20.9612 52.8251 20.9952 53.796C21.0527 56.0216 21.1263 58.8733 21.2083 62.0277C21.3168 65.1794 21.4159 68.0293 21.4923 70.2549C21.5282 71.2249 21.5593 72.056 21.5848 72.7492C21.6017 73.3386 21.5951 73.6655 21.5612 73.6682Z" fill="#004DD1"/>
<path fill-rule="evenodd" clip-rule="evenodd" d="M68.4553 80.5957C67.2406 77.4441 66.0644 74.0632 65.0552 70.6103C65.2492 67.9057 65.3542 65.4062 65.4036 63.2116C65.7987 64.0993 66.1928 64.9862 66.5869 65.8739C66.5124 65.9261 66.4595 66.0079 66.4586 66.1006C66.4568 66.2616 66.6166 66.3929 66.7719 66.3929C66.7872 66.3929 66.8015 66.392 66.8168 66.3893C66.8635 66.4945 66.9102 66.5997 66.9569 66.705C67.8888 68.8006 69.3684 71.8632 69.6916 74.1342C69.4052 76.1346 68.9671 78.3193 68.4562 80.5939C68.4553 80.5948 68.4553 80.5948 68.4553 80.5957ZM66.6525 73.278C66.499 73.278 66.3401 73.4048 66.3392 73.564C66.3365 73.7259 66.4972 73.8581 66.6534 73.8581C66.6938 73.8581 66.7333 73.8491 66.7701 73.8293C66.9506 73.7358 66.9676 73.4381 66.7998 73.323L66.7755 73.3086C66.7369 73.2879 66.6956 73.278 66.6525 73.278ZM64.7751 69.6353C63.5415 65.2578 62.5934 60.7886 62.1885 56.5424L62.4399 56.5487C63.3377 58.567 64.2355 60.5853 65.1334 62.6036C65.0687 64.6813 64.9583 67.0557 64.7751 69.6353Z" fill="#004DD1"/>
<path fill-rule="evenodd" clip-rule="evenodd" d="M66.7347 73.8828C66.5673 73.8828 66.3951 73.7414 66.398 73.5682C66.3989 73.3979 66.5692 73.2622 66.7337 73.2622C66.7799 73.2622 66.8241 73.2728 66.8655 73.2949L66.8915 73.3103C67.0713 73.4335 67.0531 73.7519 66.8597 73.852C66.8203 73.8732 66.778 73.8828 66.7347 73.8828Z" fill="#DCE9FF"/>
<path fill-rule="evenodd" clip-rule="evenodd" d="M66.8519 66.5373C66.6855 66.5373 66.5142 66.3969 66.5161 66.2246C66.5171 66.1255 66.5739 66.038 66.6537 65.9822C66.7364 66.1659 66.8182 66.3497 66.9 66.5335C66.8836 66.5364 66.8682 66.5373 66.8519 66.5373Z" fill="#DCE9FF"/>
<path fill-rule="evenodd" clip-rule="evenodd" d="M65.1336 70.7823C65.0326 70.4545 64.9326 70.1268 64.8335 69.7981C65.0297 67.1943 65.1481 64.7975 65.2173 62.7003C65.3135 62.9055 65.4107 63.1098 65.5069 63.3141C65.454 65.5293 65.3414 68.0523 65.1336 70.7823Z" fill="#DCE9FF"/>
<path fill-rule="evenodd" clip-rule="evenodd" d="M71.2367 52.5012C71.2367 52.5012 85.1838 80.8273 79.8095 83.8701C72.1693 88.1952 61.6104 54.3194 61.6104 54.3194L66.5531 53.3434L71.2367 52.5012Z" fill="#07377E"/>
<path fill-rule="evenodd" clip-rule="evenodd" d="M72.5748 79.4406C72.5467 79.4576 72.3174 79.1539 71.9222 78.5885C71.5262 78.0222 70.9878 77.1808 70.3697 76.1155C69.1199 73.9893 67.5873 70.9446 66.1317 67.4833C64.6806 64.0184 63.5604 60.808 62.8353 58.4605C62.4674 57.2876 62.1991 56.3307 62.0278 55.6658C61.8583 54.9992 61.7794 54.6273 61.8103 54.6182C61.842 54.6094 61.9798 54.9642 62.2036 55.6129C62.4601 56.3539 62.7773 57.2723 63.1526 58.3574C63.9565 60.6727 65.122 63.8536 66.5676 67.3041C68.0159 70.7502 69.4932 73.8002 70.6615 75.9551C71.2388 77.0366 71.7319 77.8986 72.0781 78.4917C72.4234 79.0849 72.602 79.4218 72.5748 79.4406Z" fill="#004DD1"/>
</svg>
