<svg width="429" height="349" viewBox="0 0 429 349" fill="none" xmlns="http://www.w3.org/2000/svg">
<path fill-rule="evenodd" clip-rule="evenodd" d="M347.148 78.5523C347.148 79.5079 346.374 80.2822 345.419 80.2822C344.463 80.2822 343.69 79.5079 343.69 78.5523C343.69 77.5974 344.463 76.8231 345.419 76.8231C346.374 76.8231 347.148 77.5974 347.148 78.5523Z" fill="#004DD1"/>
<path fill-rule="evenodd" clip-rule="evenodd" d="M95.7556 248.903C77.6878 248.903 63.0415 234.55 63.0415 216.846C63.0415 199.142 77.6878 184.789 95.7556 184.789C109.413 184.789 121.116 192.991 126.016 204.642H109.242C104.957 204.642 101.47 208.058 101.47 212.258V248.416C99.6144 248.736 97.7054 248.903 95.7556 248.903Z" fill="#DCE9FF"/>
<path fill-rule="evenodd" clip-rule="evenodd" d="M362.141 127.453C361.198 127.415 360.238 127.396 359.295 127.396C359.165 127.396 359.037 127.396 358.907 127.397L358.905 126.761C359.035 126.76 359.167 126.761 359.295 126.76C360.249 126.76 361.216 126.779 362.167 126.817L362.141 127.453ZM352.451 127.725L352.386 127.092C353.463 126.988 354.557 126.907 355.642 126.852L355.675 127.488C354.602 127.542 353.517 127.622 352.451 127.725ZM368.581 128.005C367.518 127.864 366.436 127.747 365.368 127.655L365.425 127.022C366.504 127.114 367.596 127.233 368.667 127.375L368.581 128.005ZM346.056 128.643L345.931 128.019C346.994 127.816 348.076 127.635 349.147 127.481L349.243 128.11C348.18 128.263 347.109 128.442 346.056 128.643ZM374.938 129.147C373.896 128.909 372.83 128.692 371.774 128.502L371.891 127.877C372.957 128.068 374.033 128.287 375.086 128.527L374.938 129.147ZM339.777 130.148L339.592 129.538C340.63 129.238 341.688 128.957 342.743 128.705L342.897 129.323C341.854 129.573 340.804 129.85 339.777 130.148ZM381.16 130.872C380.141 130.538 379.101 130.224 378.071 129.937L378.248 129.326C379.288 129.614 380.338 129.932 381.365 130.269L381.16 130.872ZM333.67 132.228L333.428 131.638C334.434 131.241 335.464 130.864 336.485 130.516L336.699 131.117C335.687 131.461 334.668 131.835 333.67 132.228ZM387.197 133.172C386.214 132.744 385.208 132.334 384.207 131.952L384.441 131.359C385.452 131.745 386.469 132.159 387.459 132.591L387.197 133.172ZM327.807 134.858L327.508 134.293C328.467 133.807 329.453 133.338 330.435 132.897L330.706 133.475C329.733 133.912 328.756 134.377 327.807 134.858ZM392.982 136.02C392.046 135.503 391.084 135.002 390.124 134.529L390.416 133.961C391.385 134.438 392.355 134.944 393.301 135.466L392.982 136.02ZM322.217 138.019L321.863 137.484C322.776 136.911 323.712 136.352 324.648 135.823L324.973 136.374C324.045 136.898 323.119 137.452 322.217 138.019ZM398.462 139.386C397.581 138.786 396.671 138.198 395.764 137.64L396.109 137.101C397.025 137.665 397.942 138.257 398.834 138.864L398.462 139.386ZM316.95 141.681L316.549 141.181C317.402 140.527 318.281 139.885 319.162 139.271L319.539 139.789C318.665 140.397 317.795 141.034 316.95 141.681ZM403.595 143.24C402.778 142.564 401.931 141.896 401.075 141.254L401.47 140.75C402.334 141.397 403.189 142.071 404.016 142.754L403.595 143.24ZM312.057 145.811L311.609 145.35C312.395 144.62 313.211 143.9 314.03 143.208L314.454 143.69C313.642 144.375 312.836 145.089 312.057 145.811ZM408.334 147.545C407.583 146.794 406.803 146.052 406.018 145.338L406.46 144.872C407.253 145.592 408.038 146.341 408.8 147.1L408.334 147.545ZM307.574 150.373L307.085 149.954C307.8 149.156 308.541 148.363 309.293 147.6L309.761 148.04C309.017 148.797 308.281 149.582 307.574 150.373ZM412.64 152.262C411.964 151.448 411.259 150.638 410.544 149.854L411.03 149.431C411.751 150.221 412.463 151.039 413.144 151.861L412.64 152.262ZM303.547 155.327L303.022 154.955C303.654 154.096 304.319 153.239 304.993 152.408L305.502 152.803C304.834 153.627 304.176 154.476 303.547 155.327ZM416.475 157.35C415.879 156.478 415.255 155.608 414.618 154.763L415.141 154.385C415.786 155.238 416.415 156.117 417.015 156.997L416.475 157.35ZM300.011 160.631L299.452 160.309C300.001 159.395 300.58 158.48 301.173 157.591L301.717 157.938C301.129 158.819 300.554 159.725 300.011 160.631ZM419.802 162.765C419.295 161.844 418.757 160.921 418.204 160.02L418.763 159.692C419.321 160.602 419.865 161.534 420.374 162.463L419.802 162.765ZM297 166.24L296.413 165.971C296.87 165.012 297.359 164.047 297.864 163.105L298.438 163.4C297.939 164.334 297.455 165.29 297 166.24ZM422.595 168.458C422.179 167.495 421.732 166.527 421.266 165.58L421.854 165.305C422.322 166.261 422.772 167.238 423.193 168.21L422.595 168.458ZM294.543 172.106L293.932 171.893C294.296 170.891 294.689 169.885 295.1 168.903L295.7 169.144C295.295 170.117 294.905 171.114 294.543 172.106ZM424.826 174.387C424.501 173.385 424.15 172.377 423.78 171.393L424.389 171.173C424.763 172.167 425.119 173.184 425.444 174.196L424.826 174.387ZM292.669 178.169L292.04 178.013C292.302 176.985 292.596 175.949 292.911 174.935L293.532 175.12C293.223 176.124 292.931 177.15 292.669 178.169ZM426.474 180.504C426.25 179.479 425.998 178.444 425.723 177.426L426.352 177.264C426.627 178.291 426.882 179.336 427.108 180.371L426.474 180.504ZM291.39 184.37L290.748 184.274C290.911 183.225 291.104 182.166 291.317 181.128L291.957 181.255C291.743 182.282 291.554 183.331 291.39 184.37ZM427.524 186.747C427.399 185.705 427.249 184.651 427.074 183.613L427.717 183.509C427.891 184.557 428.044 185.621 428.169 186.673L427.524 186.747ZM290.714 190.659L290.066 190.624C290.129 189.563 290.217 188.492 290.332 187.441L290.976 187.507C290.865 188.548 290.776 189.609 290.714 190.659ZM427.971 193.056C427.948 192.005 427.899 190.942 427.823 189.896L428.471 189.85C428.546 190.906 428.598 191.98 428.621 193.041L427.971 193.056ZM289.991 197.01C289.962 196.221 289.947 195.417 289.947 194.621C289.947 194.351 289.949 194.084 289.952 193.814L290.602 193.822C290.599 194.089 290.597 194.354 290.597 194.621C290.597 195.409 290.612 196.206 290.638 196.987L289.991 197.01ZM428.564 197.811L427.917 197.783C427.966 196.738 427.99 195.674 427.99 194.621H428.64C428.64 195.684 428.616 196.758 428.564 197.811ZM290.519 203.375C290.381 202.327 290.267 201.259 290.178 200.198L290.826 200.147C290.914 201.195 291.026 202.256 291.164 203.294L290.519 203.375ZM427.958 204.172L427.316 204.083C427.464 203.045 427.592 201.989 427.691 200.938L428.338 200.999C428.237 202.057 428.109 203.123 427.958 204.172ZM291.658 209.662C291.418 208.632 291.203 207.578 291.013 206.53L291.652 206.421C291.84 207.459 292.055 208.502 292.292 209.522L291.658 209.662ZM426.744 210.446L426.112 210.298C426.362 209.278 426.588 208.237 426.788 207.204L427.428 207.321C427.225 208.365 426.996 209.415 426.744 210.446ZM293.397 215.816C293.059 214.809 292.742 213.779 292.453 212.761L293.08 212.59C293.366 213.6 293.68 214.618 294.016 215.618L293.397 215.816ZM424.93 216.58L424.313 216.374C424.659 215.381 424.987 214.366 425.286 213.356L425.912 213.534C425.611 214.552 425.278 215.577 424.93 216.58ZM295.724 221.777C295.29 220.806 294.876 219.813 294.489 218.826L295.097 218.6C295.479 219.577 295.89 220.561 296.319 221.521L295.724 221.777ZM422.522 222.531L421.929 222.269C422.374 221.307 422.798 220.325 423.193 219.35L423.799 219.584C423.398 220.569 422.969 221.559 422.522 222.531ZM298.612 227.489C298.087 226.563 297.578 225.614 297.099 224.665L297.682 224.385C298.155 225.324 298.659 226.265 299.179 227.181L298.612 227.489ZM419.55 228.23L418.989 227.912C419.519 227.001 420.036 226.064 420.525 225.126L421.105 225.413C420.611 226.362 420.088 227.309 419.55 228.23ZM302.039 232.916C301.428 232.043 300.83 231.145 300.261 230.242L300.812 229.909C301.376 230.802 301.969 231.692 302.575 232.557L302.039 232.916ZM416.048 233.623L415.518 233.257C416.137 232.397 416.742 231.512 417.317 230.626L417.866 230.967C417.283 231.86 416.672 232.756 416.048 233.623ZM305.97 238.007C305.279 237.193 304.595 236.351 303.942 235.509L304.462 235.124C305.107 235.959 305.783 236.793 306.472 237.6L305.97 238.007ZM412.044 238.671L411.55 238.259C412.25 237.457 412.936 236.633 413.594 235.804L414.106 236.193C413.443 237.03 412.749 237.862 412.044 238.671ZM310.374 242.719C309.607 241.968 308.846 241.192 308.118 240.414L308.596 239.984C309.319 240.757 310.073 241.526 310.835 242.268L310.374 242.719ZM407.578 243.329L407.125 242.871C407.895 242.141 408.657 241.383 409.392 240.617L409.866 241.052C409.125 241.826 408.355 242.592 407.578 243.329ZM315.213 247.008C314.376 246.331 313.544 245.629 312.743 244.917L313.18 244.446C313.973 245.151 314.797 245.848 315.626 246.517L315.213 247.008ZM402.687 247.555L402.282 247.059C403.116 246.403 403.948 245.716 404.752 245.021L405.183 245.497C404.369 246.199 403.53 246.891 402.687 247.555ZM320.441 250.837C319.547 250.244 318.65 249.619 317.782 248.983L318.172 248.474C319.032 249.105 319.919 249.723 320.805 250.311L320.441 250.837ZM397.417 251.316L397.058 250.784C397.958 250.204 398.85 249.598 399.713 248.983L400.098 249.496C399.224 250.117 398.325 250.73 397.417 251.316ZM326.015 254.17C325.067 253.661 324.115 253.122 323.189 252.567L323.527 252.025C324.445 252.575 325.389 253.109 326.33 253.613L326.015 254.17ZM391.812 254.572L391.508 254.01C392.454 253.516 393.4 252.997 394.321 252.46L394.653 253.007C393.723 253.549 392.768 254.073 391.812 254.572ZM331.891 256.976C330.893 256.557 329.895 256.106 328.92 255.641L329.206 255.071C330.17 255.531 331.161 255.977 332.149 256.391L331.891 256.976ZM385.925 257.294L385.676 256.707C386.661 256.307 387.652 255.875 388.624 255.427L388.902 256.002C387.922 256.455 386.919 256.89 385.925 257.294ZM338.017 259.225C336.985 258.9 335.945 258.546 334.925 258.172L335.154 257.577C336.163 257.946 337.195 258.297 338.214 258.62L338.017 259.225ZM379.795 259.465L379.602 258.857C380.629 258.546 381.662 258.208 382.668 257.852L382.891 258.449C381.872 258.811 380.832 259.152 379.795 259.465ZM344.316 260.892C343.258 260.665 342.19 260.409 341.144 260.131L341.316 259.518C342.351 259.793 343.406 260.045 344.454 260.271L344.316 260.892ZM373.477 261.06L373.344 260.437C374.397 260.223 375.456 259.981 376.493 259.719L376.654 260.335C375.609 260.599 374.54 260.844 373.477 261.06ZM350.749 261.968C349.675 261.841 348.588 261.683 347.519 261.505L347.629 260.879C348.689 261.055 349.763 261.21 350.827 261.337L350.749 261.968ZM367.032 262.062L366.959 261.431C368.028 261.314 369.104 261.172 370.165 261.006L370.266 261.635C369.198 261.8 368.108 261.945 367.032 262.062ZM357.254 262.452C356.172 262.421 355.075 262.365 353.996 262.284L354.045 261.65C355.114 261.729 356.201 261.785 357.274 261.815L357.254 262.452ZM360.519 262.469L360.509 261.833C361.585 261.815 362.672 261.772 363.738 261.706L363.779 262.34C362.703 262.408 361.606 262.452 360.519 262.469Z" fill="#84DCFF"/>
<path fill-rule="evenodd" clip-rule="evenodd" d="M217.463 48.0873C210.591 48.0873 204.112 44.0028 201.504 37.3496C198.124 28.7274 202.528 19.0568 211.34 15.75C213.352 14.9948 215.421 14.6367 217.456 14.6367C224.327 14.6367 230.807 18.7214 233.414 25.3741C236.794 33.9967 232.39 43.6669 223.578 46.9738C221.566 47.7292 219.497 48.0873 217.463 48.0873Z" fill="#DCE9FF"/>
<path fill-rule="evenodd" clip-rule="evenodd" d="M203.038 1.10846C202.001 0.868562 200.938 0.709483 199.877 0.635807L199.923 0C201.019 0.0762255 202.117 0.240403 203.188 0.488455L203.038 1.10846ZM193.529 1.20431L193.367 0.587114C194.433 0.317394 195.528 0.131036 196.62 0.0331415L196.68 0.667674C195.622 0.76251 194.562 0.943003 193.529 1.20431ZM208.929 3.4949C208.023 2.94832 207.065 2.46904 206.081 2.07032L206.33 1.48143C207.345 1.89289 208.335 2.38772 209.27 2.95214L208.929 3.4949ZM187.688 3.70598L187.336 3.17011C188.257 2.58886 189.236 2.07491 190.246 1.64305L190.506 2.22711C189.528 2.64546 188.58 3.14309 187.688 3.70598ZM213.748 7.57768C213.067 6.77871 212.313 6.02793 211.507 5.34547L211.933 4.86364C212.765 5.56803 213.544 6.34379 214.247 7.16876L213.748 7.57768ZM182.959 7.88844L182.451 7.49049C183.138 6.64895 183.899 5.85687 184.714 5.13642L185.15 5.60933C184.361 6.30708 183.624 7.07393 182.959 7.88844ZM216.994 12.9494C216.604 11.9756 216.132 11.0287 215.593 10.1349L216.153 9.81039C216.71 10.7335 217.197 11.7112 217.6 12.7164L216.994 12.9494ZM179.823 13.3242L179.213 13.1031C179.594 12.0938 180.061 11.1067 180.602 10.1696L181.168 10.4829C180.645 11.3907 180.192 12.3465 179.823 13.3242ZM217.958 16.1029C217.741 15.0868 217.436 14.076 217.054 13.0983L217.661 12.8699C218.056 13.8794 218.371 14.9231 218.595 15.9722L217.958 16.1029ZM178.596 19.451L177.946 19.4304C177.981 18.3555 178.107 17.2741 178.319 16.2164L178.958 16.3393C178.752 17.3633 178.631 18.4101 178.596 19.451ZM218.888 22.4144L218.242 22.3397C218.332 21.5889 218.378 20.8254 218.378 20.0707C218.378 19.7847 218.372 19.4949 218.359 19.2098L219.009 19.1813C219.022 19.476 219.029 19.775 219.029 20.0707C219.029 20.8503 218.982 21.6389 218.888 22.4144ZM178.797 25.8254C178.48 24.7914 178.248 23.7273 178.106 22.6624L178.752 22.5798C178.889 23.611 179.114 24.6415 179.42 25.6426L178.797 25.8254ZM217.081 28.6141L216.492 28.3439C216.944 27.3991 217.321 26.4122 217.613 25.4106L218.239 25.5855C217.938 26.6198 217.548 27.6387 217.081 28.6141ZM181.661 31.63C181.031 30.75 180.47 29.8113 179.991 28.84L180.577 28.5629C181.041 29.5036 181.584 30.4122 182.194 31.2644L181.661 31.63ZM213.373 33.9402L212.901 33.5015C213.633 32.7466 214.308 31.9267 214.908 31.0645L215.446 31.4235C214.826 32.3137 214.129 33.1606 213.373 33.9402ZM186.256 36.2453C185.371 35.6049 184.534 34.8901 183.768 34.1205L184.233 33.6753C184.976 34.4205 185.786 35.1127 186.643 35.7329L186.256 36.2453ZM208.131 37.8387L207.826 37.2758C208.768 36.7863 209.674 36.2191 210.52 35.5904L210.913 36.098C210.04 36.7476 209.104 37.3331 208.131 37.8387ZM192.105 39.2008C191.061 38.8661 190.036 38.4462 189.059 37.9529L189.358 37.3864C190.304 37.8642 191.296 38.271 192.308 38.5951L192.105 39.2008ZM201.899 39.9174L201.791 39.289C202.836 39.1154 203.879 38.8561 204.89 38.5183L205.1 39.1215C204.056 39.4703 202.979 39.7379 201.899 39.9174ZM198.485 40.1994C197.429 40.1994 196.363 40.1178 195.316 39.9569L195.417 39.3275C196.43 39.4833 197.463 39.562 198.486 39.562L198.605 39.5618L198.609 40.1991L198.485 40.1994Z" fill="#84DCFF"/>
<path fill-rule="evenodd" clip-rule="evenodd" d="M61.3326 122.471C60.2678 122.378 59.1843 122.323 58.112 122.304L58.1232 121.668C59.2109 121.687 60.31 121.744 61.3898 121.837L61.3326 122.471ZM51.6742 122.64L51.5936 122.009C52.6691 121.878 53.7653 121.782 54.8519 121.726L54.8865 122.361C53.8152 122.417 52.7346 122.511 51.6742 122.64ZM67.696 123.475C66.6544 123.234 65.5901 123.028 64.5329 122.861L64.6361 122.233C65.7087 122.402 66.7886 122.612 67.8455 122.855L67.696 123.475ZM45.3524 123.871L45.18 123.257C46.2263 122.976 47.2974 122.728 48.3639 122.52L48.4908 123.144C47.4396 123.348 46.3836 123.593 45.3524 123.871ZM73.8501 125.364C72.8535 124.979 71.8293 124.624 70.8061 124.31L71.0006 123.703C72.0389 124.022 73.0779 124.382 74.0891 124.773L73.8501 125.364ZM39.2807 125.976L39.0199 125.394C40.0137 124.968 41.0359 124.572 42.0588 124.217L42.2759 124.817C41.2678 125.166 40.26 125.556 39.2807 125.976ZM79.6644 128.102C78.7346 127.58 77.7733 127.085 76.8081 126.631L77.09 126.057C78.0692 126.518 79.0443 127.021 79.9876 127.55L79.6644 128.102ZM33.5811 128.913L33.2377 128.373C34.1597 127.812 35.1142 127.276 36.0745 126.781L36.3774 127.344C35.4309 127.832 34.4899 128.36 33.5811 128.913ZM85.0164 131.624C84.1721 130.978 83.2935 130.354 82.405 129.769L82.7677 129.242C83.6689 129.835 84.5603 130.468 85.4168 131.123L85.0164 131.624ZM28.3654 132.617L27.9471 132.13C28.7778 131.446 29.6447 130.783 30.5241 130.158L30.9061 130.673C30.0392 131.289 29.1845 131.943 28.3654 132.617ZM89.8002 135.855C89.0588 135.099 88.2798 134.359 87.4855 133.657L87.9215 133.185C88.7273 133.897 89.5173 134.648 90.2692 135.415L89.8002 135.855ZM23.7389 137.011L23.2543 136.587C23.9779 135.795 24.74 135.017 25.5195 134.277L25.9725 134.733C25.2039 135.463 24.4524 136.229 23.7389 137.011ZM93.9201 140.707C93.2961 139.855 92.6328 139.015 91.9487 138.209L92.4487 137.803C93.1427 138.62 93.8156 139.473 94.4482 140.336L93.9201 140.707ZM19.7968 142.005L19.2552 141.654C19.8561 140.768 20.4978 139.892 21.1624 139.05L21.677 139.439C21.0215 140.269 20.3889 141.133 19.7968 142.005ZM97.29 146.08C96.7967 145.151 96.2632 144.227 95.7034 143.335L96.2574 143.002C96.8251 143.907 97.3667 144.844 97.867 145.787L97.29 146.08ZM16.6222 147.501L16.0349 147.229C16.5 146.268 17.0073 145.311 17.5427 144.384L18.1088 144.697C17.5809 145.611 17.0807 146.554 16.6222 147.501ZM99.8376 151.867C99.4864 150.879 99.0935 149.89 98.6704 148.929L99.2674 148.677C99.6967 149.652 100.095 150.655 100.452 151.658L99.8376 151.867ZM14.2862 153.388L13.6648 153.201C13.9844 152.183 14.346 151.164 14.7395 150.173L15.3453 150.403C14.9576 151.38 14.6011 152.385 14.2862 153.388ZM101.51 157.958C101.308 156.93 101.064 155.895 100.786 154.883L101.414 154.718C101.696 155.745 101.943 156.794 102.148 157.838L101.51 157.958ZM12.8426 159.535L12.2001 159.438C12.3668 158.387 12.5745 157.329 12.8177 156.294L13.4511 156.436C13.2116 157.456 13.007 158.499 12.8426 159.535ZM102.273 164.221C102.222 163.172 102.132 162.114 102.006 161.076L102.651 161.001C102.779 162.054 102.871 163.127 102.922 164.191L102.273 164.221ZM12.3117 165.821L11.6616 165.814C11.6744 164.75 11.7258 163.674 11.815 162.617L12.4627 162.669C12.3749 163.711 12.3241 164.772 12.3117 165.821ZM102.859 169.539L102.21 169.494C102.286 168.45 102.324 167.389 102.324 166.34H102.974C102.974 167.404 102.935 168.481 102.859 169.539ZM12.0483 172.201C11.9073 171.149 11.8033 170.077 11.7391 169.015L12.3881 168.977C12.4513 170.025 12.5537 171.082 12.6926 172.119L12.0483 172.201ZM101.932 175.873L101.297 175.737C101.524 174.715 101.717 173.67 101.868 172.631L102.512 172.722C102.358 173.775 102.163 174.835 101.932 175.873ZM13.3616 178.47C13.0673 177.446 12.8075 176.399 12.5894 175.359L13.2264 175.231C13.4412 176.257 13.697 177.289 13.9872 178.298L13.3616 178.47ZM100.086 182.012L99.4775 181.789C99.8532 180.807 100.197 179.8 100.499 178.795L101.123 178.975C100.816 179.994 100.467 181.016 100.086 182.012ZM15.5817 184.485C15.1401 183.514 14.7296 182.516 14.3614 181.519L14.9727 181.303C15.3357 182.286 15.7403 183.27 16.1755 184.227L15.5817 184.485ZM97.3534 187.832L96.784 187.526C97.3006 186.606 97.7892 185.657 98.2362 184.705L98.8269 184.971C98.3735 185.937 97.8779 186.9 97.3534 187.832ZM18.66 190.126C18.0812 189.227 17.5284 188.296 17.0172 187.359L17.5906 187.059C18.0945 187.983 18.6395 188.901 19.2102 189.787L18.66 190.126ZM93.7987 193.208L93.2795 192.825C93.9248 191.987 94.5471 191.117 95.1287 190.237L95.6742 190.583C95.0842 191.475 94.4532 192.358 93.7987 193.208ZM22.5314 195.281C21.8268 194.471 21.144 193.626 20.5015 192.771L21.0254 192.394C21.6585 193.237 22.332 194.07 23.0265 194.869L22.5314 195.281ZM89.4991 198.032L89.0409 197.581C89.8007 196.842 90.543 196.067 91.2469 195.277L91.7365 195.695C91.0228 196.496 90.2698 197.282 89.4991 198.032ZM27.114 199.847C26.3001 199.144 25.5013 198.403 24.7392 197.643L25.2031 197.198C25.9543 197.946 26.7419 198.677 27.544 199.37L27.114 199.847ZM84.5444 202.207L84.1565 201.697C85.0156 201.071 85.8624 200.408 86.6734 199.724L87.0978 200.206C86.2751 200.899 85.416 201.573 84.5444 202.207ZM32.3146 203.73C31.4064 203.147 30.5075 202.525 29.6432 201.879L30.0374 201.374C30.8897 202.01 31.7758 202.624 32.6711 203.198L32.3146 203.73ZM79.0349 205.649L78.7255 205.09C79.6652 204.592 80.5994 204.053 81.5027 203.489L81.8524 204.025C80.9364 204.597 79.9884 205.144 79.0349 205.649ZM38.0311 206.848C37.0467 206.399 36.0656 205.908 35.1152 205.39L35.4319 204.834C36.3685 205.345 37.3355 205.829 38.3059 206.272L38.0311 206.848ZM73.0823 208.283L72.8576 207.685C73.8605 207.325 74.8637 206.923 75.8387 206.491L76.1068 207.071C75.1172 207.509 74.0998 207.916 73.0823 208.283ZM44.1488 209.131C43.1069 208.826 42.0634 208.477 41.0473 208.098L41.279 207.504C42.2806 207.878 43.3089 208.221 44.336 208.523L44.1488 209.131ZM66.7979 210.052L66.6638 209.431C67.7108 209.215 68.7634 208.958 69.7928 208.668L69.9727 209.279C68.9283 209.574 67.8601 209.833 66.7979 210.052ZM50.5307 210.528C49.4537 210.37 48.3715 210.174 47.314 209.943L47.456 209.322C48.4981 209.551 49.565 209.744 50.6264 209.9L50.5307 210.528ZM60.3201 210.922L60.278 210.289C61.3459 210.22 62.4255 210.113 63.4866 209.971L63.5747 210.602C62.4985 210.747 61.4036 210.854 60.3201 210.922ZM57.0496 211.017C55.9586 211.011 54.8589 210.966 53.7812 210.887L53.8311 210.251C54.8935 210.332 55.9775 210.375 57.0532 210.38L57.0496 211.017Z" fill="#84DCFF"/>
<path fill-rule="evenodd" clip-rule="evenodd" d="M349.571 71.8305C343.803 71.8305 339.112 76.4214 339.112 82.0647C339.112 87.7077 343.803 92.2986 349.571 92.2986C355.339 92.2986 360.03 87.7077 360.03 82.0647C360.03 76.4214 355.339 71.8305 349.571 71.8305ZM349.571 92.7746C343.536 92.7746 338.625 87.9702 338.625 82.0647C338.625 76.1592 343.536 71.3545 349.571 71.3545C355.606 71.3545 360.515 76.1592 360.515 82.0647C360.515 87.9702 355.606 92.7746 349.571 92.7746Z" fill="#07B8FF"/>
<path fill-rule="evenodd" clip-rule="evenodd" d="M91.4104 142.179L132.386 135.919C135.821 158.391 120.15 179.708 97.6711 183.142C75.192 186.575 53.8682 170.91 50.4339 148.438C46.999 125.966 62.6699 104.649 85.149 101.216C88.7281 100.669 92.3626 100.594 95.9609 100.991L91.4104 142.179Z" fill="#F5F9FF"/>
<path fill-rule="evenodd" clip-rule="evenodd" d="M104.775 101.181L99.8052 132.92L130.95 127.069C130.95 127.069 126.37 109.282 104.775 101.181Z" fill="#BED6FF"/>
<path fill-rule="evenodd" clip-rule="evenodd" d="M408.186 270.887C408.078 264.124 402.486 258.71 395.723 258.818C388.96 258.926 383.545 264.517 383.654 271.28C383.763 278.045 389.354 283.459 396.117 283.35C402.88 283.241 408.294 277.65 408.186 270.887ZM370.267 271.496C370.039 257.351 381.363 245.658 395.508 245.43C409.653 245.204 421.347 256.527 421.574 270.672C421.801 284.817 410.477 296.511 396.332 296.738C382.187 296.965 370.494 285.641 370.267 271.496Z" fill="#F5F9FF"/>
<path fill-rule="evenodd" clip-rule="evenodd" d="M370.266 271.494C370.043 257.348 381.188 245.654 395.109 245.427L395.321 258.815C388.664 258.923 383.335 264.516 383.442 271.279C383.549 278.044 389.052 283.458 395.709 283.349L395.92 296.738C381.998 296.964 370.491 285.64 370.266 271.494Z" fill="#DCE9FF"/>
<path fill-rule="evenodd" clip-rule="evenodd" d="M393.171 243.598C409.338 243.332 422.234 256.117 422.494 272.666L407.194 272.917C407.07 265.004 401.161 260.023 393.432 260.15L393.171 243.598Z" fill="#BED6FF"/>
<path fill-rule="evenodd" clip-rule="evenodd" d="M347.355 79.0501C347.355 79.076 347.004 79.1005 346.331 79.1234C345.581 79.1418 344.604 79.1647 343.384 79.1922C340.726 79.2212 337.021 79.2625 332.449 79.3114C323.078 79.345 310.161 79.3924 295.548 79.4444L295.969 79.047C295.994 81.6298 296.02 84.344 296.047 87.1041C296.184 102.738 296.209 116.895 296.126 127.141C296.078 132.263 296.007 136.41 295.902 139.274C295.845 140.707 295.787 141.818 295.721 142.573C295.637 143.328 295.576 143.719 295.548 143.715C295.548 143.715 295.61 137.386 295.526 127.139C295.441 116.82 295.325 102.706 295.198 87.1087C295.173 84.3501 295.151 81.6374 295.128 79.0546L295.125 78.6558L295.548 78.6573C310.161 78.7092 323.078 78.7551 332.449 78.7887C337.021 78.8392 340.726 78.8789 343.384 78.9079C344.604 78.937 345.581 78.9599 346.331 78.9767C347.004 79.0012 347.355 79.0256 347.355 79.0501Z" fill="#004DD1"/>
<rect x="0.0673828" y="218.854" width="54.9795" height="77.8876" fill="white"/>
<path fill-rule="evenodd" clip-rule="evenodd" d="M55.4752 295.667C55.4752 295.667 55.4806 295.551 55.4813 295.313C55.4813 295.067 55.4819 294.714 55.4819 294.25C55.4779 293.301 55.4725 291.908 55.4651 290.098C55.4436 286.449 55.412 281.126 55.373 274.393C55.2763 260.878 55.1392 241.709 54.9772 219.043L54.9759 218.883L54.8159 218.885C38.3109 219.023 19.7479 219.177 0.184223 219.339H0.178173L0.00275803 219.341L0.00476456 219.516C0.262844 248.206 0.502132 274.743 0.694347 296.138L0.695686 296.281L0.837502 296.279C17.4433 296.105 31.1149 295.962 40.645 295.862C45.3879 295.806 49.0992 295.762 51.6329 295.731C52.8863 295.714 53.8467 295.7 54.504 295.691C55.1506 295.68 55.4752 295.667 55.4752 295.667C55.4752 295.667 55.1291 295.66 54.4732 295.66C53.8098 295.662 52.8406 295.665 51.5758 295.669C49.034 295.682 45.3126 295.702 40.5549 295.728C31.0456 295.791 17.4043 295.883 0.835461 295.995L0.978611 296.136C0.803871 274.741 0.588139 248.203 0.354252 219.513L0.180843 219.69H0.186897C19.7506 219.516 38.3136 219.35 54.8193 219.204L54.6586 219.046C54.8851 241.667 55.0767 260.802 55.2111 274.29C55.2877 281.039 55.3475 286.374 55.3892 290.031C55.4127 291.854 55.4308 293.258 55.4443 294.214C55.4524 294.685 55.4584 295.044 55.4624 295.295C55.4678 295.538 55.4752 295.667 55.4752 295.667Z" fill="#004DD1"/>
<path fill-rule="evenodd" clip-rule="evenodd" d="M47.8433 237.664C47.8419 237.489 38.7752 237.425 27.5959 237.52C16.4113 237.615 7.34931 237.834 7.35066 238.009C7.35268 238.183 16.4173 238.248 27.6013 238.153C38.7806 238.057 47.8453 237.839 47.8433 237.664Z" fill="#004DD1"/>
<path fill-rule="evenodd" clip-rule="evenodd" d="M47.8433 243.141C47.8419 242.966 38.7752 242.902 27.5946 242.996C16.4113 243.092 7.34931 243.31 7.35066 243.485C7.35201 243.66 16.4167 243.725 27.6007 243.63C38.7806 243.534 47.8446 243.316 47.8433 243.141Z" fill="#004DD1"/>
<path fill-rule="evenodd" clip-rule="evenodd" d="M47.9883 248.473C47.9863 248.299 38.9196 248.235 27.7403 248.329C16.5563 248.425 7.49366 248.643 7.49568 248.818C7.49703 248.993 16.5617 249.057 27.745 248.963C38.9256 248.867 47.9896 248.648 47.9883 248.473Z" fill="#004DD1"/>
<path fill-rule="evenodd" clip-rule="evenodd" d="M47.9883 253.95C47.9869 253.776 38.9209 253.711 27.741 253.807C16.557 253.901 7.49433 254.12 7.49568 254.295C7.4977 254.47 16.5623 254.534 27.7463 254.439C38.9256 254.344 47.9903 254.125 47.9883 253.95Z" fill="#004DD1"/>
<path fill-rule="evenodd" clip-rule="evenodd" d="M47.9883 259.283C47.9869 259.109 38.9203 259.044 27.7403 259.139C16.5563 259.234 7.49433 259.453 7.49568 259.628C7.49703 259.803 16.5617 259.867 27.7457 259.772C38.9256 259.677 47.9896 259.458 47.9883 259.283Z" fill="#004DD1"/>
<path fill-rule="evenodd" clip-rule="evenodd" d="M40.062 285.904H33.5774V265.581H40.062V285.904Z" fill="#146BFF"/>
<path fill-rule="evenodd" clip-rule="evenodd" d="M30.2632 285.904H23.7786V270.194H30.2632V285.904Z" fill="#146BFF"/>
<path fill-rule="evenodd" clip-rule="evenodd" d="M21.3291 286.048H14.8445V276.679H21.3291V286.048Z" fill="#146BFF"/>
<path fill-rule="evenodd" clip-rule="evenodd" d="M103.61 205.942C103.61 205.936 103.531 205.93 103.375 205.924C103.195 205.919 102.968 205.914 102.685 205.907C102.046 205.899 101.158 205.888 100.031 205.874C97.6918 205.861 94.3648 205.842 90.2687 205.818C81.9963 205.806 70.6232 205.787 58.0607 205.767C47.0897 205.782 37.0279 205.796 29.2801 205.807H29.1097V205.942C29.1414 210.026 29.167 213.363 29.1845 215.707C29.204 216.845 29.2195 217.741 29.2303 218.38C29.2404 218.669 29.2485 218.899 29.2545 219.078C29.2626 219.235 29.2714 219.316 29.2801 219.316C29.2882 219.316 29.2963 219.235 29.3051 219.078C29.3111 218.899 29.3192 218.669 29.3293 218.38C29.3401 217.741 29.3555 216.845 29.3744 215.707C29.3926 213.363 29.4182 210.026 29.4492 205.942L29.2801 206.077C37.0279 206.087 47.0897 206.101 58.0607 206.116C70.6232 206.096 81.9963 206.078 90.2687 206.065C94.3648 206.042 97.6918 206.023 100.031 206.01C101.158 205.996 102.046 205.985 102.685 205.977C102.968 205.97 103.195 205.964 103.375 205.96C103.531 205.954 103.61 205.948 103.61 205.942Z" fill="#004DD1"/>
<path fill-rule="evenodd" clip-rule="evenodd" d="M27.5259 219.316C27.5259 220.271 28.3002 221.045 29.2552 221.045C30.2107 221.045 30.9844 220.271 30.9844 219.316C30.9844 218.361 30.2107 217.586 29.2552 217.586C28.3002 217.586 27.5259 218.361 27.5259 219.316Z" fill="#004DD1"/>
<path fill-rule="evenodd" clip-rule="evenodd" d="M326.909 142.144H93.2111C89.1826 142.144 85.9165 145.409 85.9165 149.437V314.478C85.9165 318.506 89.1826 321.772 93.2111 321.772H182.904C182.904 321.772 188.609 339.412 170.923 348.539H254.79C254.79 348.539 234.821 341.694 239.956 321.772H326.91C330.938 321.772 334.204 318.506 334.204 314.478V149.438C334.204 145.409 330.938 142.144 326.909 142.144Z" fill="#146BFF"/>
<path fill-rule="evenodd" clip-rule="evenodd" d="M213.299 304.396C216.496 308.966 211.492 313.972 206.92 310.774C206.77 310.669 206.633 310.531 206.528 310.38C203.339 305.811 208.337 300.811 212.906 304.002C213.056 304.107 213.193 304.244 213.299 304.396Z" fill="#004DD1"/>
<path fill-rule="evenodd" clip-rule="evenodd" d="M330.168 291.608H89.9502V151.697C89.9502 148.093 92.8714 145.171 96.4757 145.171H323.642C327.247 145.171 330.168 148.093 330.168 151.697V291.608Z" fill="#FFFFFE"/>
<path fill-rule="evenodd" clip-rule="evenodd" d="M330.168 157.278H89.9502V151.301C89.9502 147.916 92.7079 145.171 96.1096 145.171H325.111C327.903 145.171 330.168 147.425 330.168 150.204V157.278Z" fill="#E3F7FF"/>
<path fill-rule="evenodd" clip-rule="evenodd" d="M99.3173 151.441C99.3173 152.356 98.5758 153.098 97.6604 153.098C96.7451 153.098 96.0029 152.356 96.0029 151.441C96.0029 150.525 96.7451 149.783 97.6604 149.783C98.5758 149.783 99.3173 150.525 99.3173 151.441Z" fill="#07B8FF"/>
<path fill-rule="evenodd" clip-rule="evenodd" d="M104.361 151.441C104.361 152.356 103.619 153.098 102.703 153.098C101.789 153.098 101.046 152.356 101.046 151.441C101.046 150.525 101.789 149.783 102.703 149.783C103.619 149.783 104.361 150.525 104.361 151.441Z" fill="#07B8FF"/>
<path fill-rule="evenodd" clip-rule="evenodd" d="M109.116 151.441C109.116 152.356 108.374 153.098 107.459 153.098C106.544 153.098 105.802 152.356 105.802 151.441C105.802 150.525 106.544 149.783 107.459 149.783C108.374 149.783 109.116 150.525 109.116 151.441Z" fill="#07B8FF"/>
<path fill-rule="evenodd" clip-rule="evenodd" d="M285.209 321.803C285.209 321.885 251.948 321.953 210.927 321.953C169.894 321.953 136.64 321.885 136.64 321.803C136.64 321.72 169.894 321.653 210.927 321.653C251.948 321.653 285.209 321.72 285.209 321.803Z" fill="#004DD1"/>
<path fill-rule="evenodd" clip-rule="evenodd" d="M165.866 245L98 245.196L98.1336 292L154.395 291.837L162.025 291.815L166 291.804L165.866 245Z" fill="#F5F9FF"/>
<path fill-rule="evenodd" clip-rule="evenodd" d="M105.495 281.518C105.408 281.518 105.315 273.71 105.284 264.08C105.255 254.445 105.301 246.639 105.387 246.639C105.474 246.638 105.568 254.445 105.598 264.078C105.628 273.709 105.582 281.518 105.495 281.518Z" fill="#004DD1"/>
<path fill-rule="evenodd" clip-rule="evenodd" d="M163.731 276.456C163.731 276.543 150.666 276.653 134.552 276.703C118.433 276.753 105.37 276.722 105.37 276.636C105.37 276.549 118.433 276.438 134.552 276.389C150.665 276.34 163.731 276.37 163.731 276.456Z" fill="#DCE9FF"/>
<path fill-rule="evenodd" clip-rule="evenodd" d="M163.586 271.411C163.586 271.498 150.521 271.609 134.407 271.659C118.288 271.708 105.225 271.678 105.225 271.591C105.225 271.505 118.288 271.395 134.407 271.344C150.52 271.295 163.586 271.325 163.586 271.411Z" fill="#DCE9FF"/>
<path fill-rule="evenodd" clip-rule="evenodd" d="M163.586 266.223C163.586 266.31 150.521 266.42 134.408 266.469C118.288 266.519 105.225 266.489 105.225 266.403C105.225 266.316 118.288 266.205 134.407 266.156C150.52 266.106 163.586 266.136 163.586 266.223Z" fill="#DCE9FF"/>
<path fill-rule="evenodd" clip-rule="evenodd" d="M163.586 261.178C163.586 261.264 150.521 261.375 134.408 261.425C118.288 261.475 105.225 261.444 105.225 261.358C105.225 261.271 118.288 261.161 134.407 261.111C150.52 261.062 163.586 261.091 163.586 261.178Z" fill="#DCE9FF"/>
<path fill-rule="evenodd" clip-rule="evenodd" d="M163.586 255.989C163.586 256.076 150.521 256.187 134.408 256.237C118.288 256.286 105.226 256.256 105.225 256.169C105.225 256.082 118.287 255.972 134.406 255.922C150.52 255.873 163.586 255.903 163.586 255.989Z" fill="#DCE9FF"/>
<path fill-rule="evenodd" clip-rule="evenodd" d="M163.586 250.945C163.586 251.032 150.521 251.142 134.408 251.192C118.288 251.242 105.226 251.212 105.225 251.125C105.225 251.038 118.287 250.928 134.406 250.878C150.52 250.829 163.586 250.858 163.586 250.945Z" fill="#DCE9FF"/>
<path fill-rule="evenodd" clip-rule="evenodd" d="M163.586 245.756C163.586 245.843 150.521 245.953 134.408 246.004C118.289 246.053 105.226 246.023 105.225 245.936C105.225 245.85 118.288 245.739 134.407 245.689C150.52 245.64 163.586 245.67 163.586 245.756Z" fill="#DCE9FF"/>
<path fill-rule="evenodd" clip-rule="evenodd" d="M113.416 273.447L109.259 273.459L109.281 281.374L113.438 281.362L113.416 273.447Z" fill="#02A7E9"/>
<path fill-rule="evenodd" clip-rule="evenodd" d="M143.822 273.447L139.666 273.459L139.689 281.374L143.845 281.363L143.822 273.447Z" fill="#02A7E9"/>
<path fill-rule="evenodd" clip-rule="evenodd" d="M121.614 267.538L117.474 267.55L117.513 281.374L121.653 281.361L121.614 267.538Z" fill="#02A7E9"/>
<path fill-rule="evenodd" clip-rule="evenodd" d="M136.878 263.935L132.749 263.947L132.798 281.374L136.928 281.363L136.878 263.935Z" fill="#02A7E9"/>
<path fill-rule="evenodd" clip-rule="evenodd" d="M129.352 253.413L125.111 253.425L125.193 281.374L129.434 281.361L129.352 253.413Z" fill="#02A7E9"/>
<path fill-rule="evenodd" clip-rule="evenodd" d="M151.85 258.458L147.736 258.47L147.801 281.374L151.915 281.362L151.85 258.458Z" fill="#02A7E9"/>
<path fill-rule="evenodd" clip-rule="evenodd" d="M156.958 281.367C156.959 281.454 145.474 281.56 131.31 281.603C117.142 281.647 105.659 281.612 105.658 281.526C105.658 281.439 117.14 281.333 131.309 281.289C145.473 281.245 156.958 281.281 156.958 281.367Z" fill="#004DD1"/>
<path fill-rule="evenodd" clip-rule="evenodd" d="M97.4028 240.278H246.369V171.364H97.4028V240.278Z" fill="#F2FBFF"/>
<path fill-rule="evenodd" clip-rule="evenodd" d="M107.981 218.972V221.176H107.757V219.173H107.246V218.972H107.981Z" fill="#02A7E9"/>
<path fill-rule="evenodd" clip-rule="evenodd" d="M109.951 220.074C109.951 219.494 109.686 219.176 109.301 219.176C108.917 219.176 108.651 219.494 108.651 220.074C108.651 220.653 108.917 220.972 109.301 220.972C109.686 220.972 109.951 220.653 109.951 220.074ZM108.421 220.074C108.421 219.383 108.791 218.972 109.301 218.972C109.812 218.972 110.184 219.383 110.184 220.074C110.184 220.765 109.812 221.176 109.301 221.176C108.791 221.176 108.421 220.765 108.421 220.074Z" fill="#02A7E9"/>
<path fill-rule="evenodd" clip-rule="evenodd" d="M108.862 207.457V207.657H107.312V207.498L108.23 206.609C108.48 206.365 108.527 206.218 108.527 206.069C108.527 205.815 108.347 205.66 108.01 205.66C107.75 205.66 107.552 205.737 107.407 205.903L107.246 205.766C107.416 205.566 107.691 205.453 108.028 205.453C108.476 205.453 108.761 205.678 108.761 206.044C108.761 206.253 108.695 206.44 108.398 206.727L107.646 207.457H108.862Z" fill="#02A7E9"/>
<path fill-rule="evenodd" clip-rule="evenodd" d="M110.538 206.556C110.538 205.977 110.274 205.658 109.889 205.658C109.504 205.658 109.239 205.977 109.239 206.556C109.239 207.134 109.504 207.453 109.889 207.453C110.274 207.453 110.538 207.134 110.538 206.556ZM109.009 206.556C109.009 205.865 109.378 205.453 109.889 205.453C110.4 205.453 110.772 205.865 110.772 206.556C110.772 207.246 110.4 207.657 109.889 207.657C109.378 207.657 109.009 207.246 109.009 206.556Z" fill="#02A7E9"/>
<path fill-rule="evenodd" clip-rule="evenodd" d="M108.715 193.492C108.715 193.857 108.442 194.139 107.903 194.139C107.581 194.139 107.271 194.03 107.099 193.857L107.211 193.68C107.354 193.826 107.613 193.932 107.903 193.932C108.274 193.932 108.478 193.764 108.478 193.492C108.478 193.231 108.289 193.058 107.875 193.058H107.715V192.893L108.334 192.135H107.191V191.935H108.628V192.094L107.995 192.871C108.476 192.896 108.715 193.143 108.715 193.492Z" fill="#02A7E9"/>
<path fill-rule="evenodd" clip-rule="evenodd" d="M110.538 193.037C110.538 192.458 110.274 192.139 109.889 192.139C109.504 192.139 109.239 192.458 109.239 193.037C109.239 193.615 109.504 193.934 109.889 193.934C110.274 193.934 110.538 193.615 110.538 193.037ZM109.009 193.037C109.009 192.347 109.378 191.935 109.889 191.935C110.4 191.935 110.772 192.347 110.772 193.037C110.772 193.727 110.4 194.139 109.889 194.139C109.378 194.139 109.009 193.727 109.009 193.037Z" fill="#02A7E9"/>
<path fill-rule="evenodd" clip-rule="evenodd" d="M119.059 227.274C119.059 226.695 118.794 226.376 118.41 226.376C118.025 226.376 117.76 226.695 117.76 227.274C117.76 227.852 118.025 228.171 118.41 228.171C118.794 228.171 119.059 227.852 119.059 227.274ZM117.53 227.274C117.53 226.584 117.899 226.171 118.41 226.171C118.921 226.171 119.293 226.584 119.293 227.274C119.293 227.964 118.921 228.375 118.41 228.375C117.899 228.375 117.53 227.964 117.53 227.274Z" fill="#02A7E9"/>
<path fill-rule="evenodd" clip-rule="evenodd" d="M133.543 226.171V228.375H133.319V226.373H132.809V226.171H133.543Z" fill="#02A7E9"/>
<path fill-rule="evenodd" clip-rule="evenodd" d="M150.585 228.175V228.375H149.035V228.216L149.954 227.327C150.203 227.083 150.251 226.936 150.251 226.787C150.251 226.534 150.07 226.378 149.733 226.378C149.474 226.378 149.275 226.455 149.13 226.621L148.969 226.484C149.139 226.284 149.414 226.171 149.751 226.171C150.2 226.171 150.484 226.396 150.484 226.762C150.484 226.97 150.418 227.158 150.121 227.445L149.37 228.175H150.585Z" fill="#02A7E9"/>
<path fill-rule="evenodd" clip-rule="evenodd" d="M166.597 227.729C166.597 228.095 166.325 228.375 165.786 228.375C165.463 228.375 165.154 228.267 164.981 228.095L165.093 227.917C165.237 228.064 165.496 228.169 165.786 228.169C166.156 228.169 166.361 228.001 166.361 227.729C166.361 227.467 166.172 227.295 165.757 227.295H165.597V227.129L166.217 226.371H165.074V226.171H166.51V226.33L165.878 227.108C166.357 227.133 166.597 227.38 166.597 227.729Z" fill="#02A7E9"/>
<path fill-rule="evenodd" clip-rule="evenodd" d="M183.051 227.796H182.611V228.375H182.385V227.796H181.142V227.632L182.31 226.171H182.561L181.434 227.594H182.391V227.084H182.611V227.594H183.051V227.796Z" fill="#02A7E9"/>
<path fill-rule="evenodd" clip-rule="evenodd" d="M198.772 227.713C198.772 228.085 198.506 228.375 197.959 228.375C197.636 228.375 197.328 228.267 197.156 228.095L197.268 227.917C197.412 228.064 197.668 228.169 197.956 228.169C198.336 228.169 198.538 227.988 198.538 227.723C198.538 227.442 198.358 227.267 197.79 227.267H197.313L197.429 226.171H198.653V226.371H197.63L197.553 227.067H197.841C198.515 227.067 198.772 227.327 198.772 227.713Z" fill="#02A7E9"/>
<path fill-rule="evenodd" clip-rule="evenodd" d="M214.859 227.716C214.859 227.432 214.652 227.249 214.318 227.249C213.991 227.249 213.766 227.453 213.766 227.723C213.766 227.96 213.963 228.187 214.335 228.187C214.645 228.187 214.859 228.004 214.859 227.716ZM215.078 227.71C215.078 228.116 214.762 228.375 214.344 228.375C213.773 228.375 213.462 227.976 213.462 227.293C213.462 226.556 213.861 226.171 214.445 226.171C214.639 226.171 214.82 226.206 214.955 226.29L214.866 226.469C214.756 226.394 214.608 226.366 214.449 226.366C213.985 226.366 213.686 226.667 213.686 227.255C213.686 227.304 213.689 227.366 213.695 227.432C213.803 227.193 214.055 227.06 214.352 227.06C214.779 227.06 215.078 227.314 215.078 227.71Z" fill="#02A7E9"/>
<path fill-rule="evenodd" clip-rule="evenodd" d="M231.091 226.171V226.331L230.17 228.375H229.925L230.83 226.373H229.699V226.785H229.475V226.171H231.091Z" fill="#02A7E9"/>
<path fill-rule="evenodd" clip-rule="evenodd" d="M231.091 220.22C231.091 220.345 205.931 220.447 174.9 220.447C143.86 220.447 118.705 220.345 118.705 220.22C118.705 220.096 143.86 219.995 174.9 219.995C205.931 219.995 231.091 220.096 231.091 220.22Z" fill="#02A7E9"/>
<path fill-rule="evenodd" clip-rule="evenodd" d="M231.091 206.555C231.091 206.68 205.931 206.781 174.9 206.781C143.86 206.781 118.705 206.68 118.705 206.555C118.705 206.43 143.86 206.329 174.9 206.329C205.931 206.329 231.091 206.43 231.091 206.555Z" fill="#02A7E9"/>
<path fill-rule="evenodd" clip-rule="evenodd" d="M231.091 193.037C231.091 193.162 205.931 193.263 174.9 193.263C143.86 193.263 118.705 193.162 118.705 193.037C118.705 192.912 143.86 192.81 174.9 192.81C205.931 192.81 231.091 192.912 231.091 193.037Z" fill="#02A7E9"/>
<path fill-rule="evenodd" clip-rule="evenodd" d="M118.705 219.999C118.705 220.406 118.376 220.735 117.97 220.735C117.565 220.735 117.236 220.406 117.236 219.999C117.236 219.593 117.565 219.265 117.97 219.265C118.376 219.265 118.705 219.593 118.705 219.999Z" fill="#07B8FF"/>
<path fill-rule="evenodd" clip-rule="evenodd" d="M134.865 219.999C134.865 220.406 134.536 220.735 134.13 220.735C133.725 220.735 133.396 220.406 133.396 219.999C133.396 219.593 133.725 219.265 134.13 219.265C134.536 219.265 134.865 219.593 134.865 219.999Z" fill="#07B8FF"/>
<path fill-rule="evenodd" clip-rule="evenodd" d="M151.026 219.999C151.026 220.406 150.697 220.735 150.292 220.735C149.886 220.735 149.557 220.406 149.557 219.999C149.557 219.593 149.886 219.265 150.292 219.265C150.697 219.265 151.026 219.593 151.026 219.999Z" fill="#07B8FF"/>
<path fill-rule="evenodd" clip-rule="evenodd" d="M167.185 219.999C167.185 220.406 166.857 220.735 166.451 220.735C166.045 220.735 165.716 220.406 165.716 219.999C165.716 219.593 166.045 219.265 166.451 219.265C166.857 219.265 167.185 219.593 167.185 219.999Z" fill="#07B8FF"/>
<path fill-rule="evenodd" clip-rule="evenodd" d="M183.346 219.999C183.346 220.406 183.017 220.735 182.611 220.735C182.206 220.735 181.877 220.406 181.877 219.999C181.877 219.593 182.206 219.265 182.611 219.265C183.017 219.265 183.346 219.593 183.346 219.999Z" fill="#07B8FF"/>
<path fill-rule="evenodd" clip-rule="evenodd" d="M215.666 219.999C215.666 220.406 215.338 220.735 214.932 220.735C214.526 220.735 214.197 220.406 214.197 219.999C214.197 219.593 214.526 219.265 214.932 219.265C215.338 219.265 215.666 219.593 215.666 219.999Z" fill="#07B8FF"/>
<path fill-rule="evenodd" clip-rule="evenodd" d="M199.506 219.999C199.506 220.406 199.177 220.735 198.772 220.735C198.365 220.735 198.037 220.406 198.037 219.999C198.037 219.593 198.365 219.265 198.772 219.265C199.177 219.265 199.506 219.593 199.506 219.999Z" fill="#07B8FF"/>
<path fill-rule="evenodd" clip-rule="evenodd" d="M231.827 219.999C231.827 220.406 231.497 220.735 231.091 220.735C230.686 220.735 230.357 220.406 230.357 219.999C230.357 219.593 230.686 219.265 231.091 219.265C231.497 219.265 231.827 219.593 231.827 219.999Z" fill="#07B8FF"/>
<path fill-rule="evenodd" clip-rule="evenodd" d="M126.051 220.147C126.051 220.39 125.854 220.588 125.61 220.588C125.367 220.588 125.169 220.39 125.169 220.147C125.169 219.904 125.367 219.707 125.61 219.707C125.854 219.707 126.051 219.904 126.051 220.147Z" fill="#F2FBFF"/>
<path fill-rule="evenodd" clip-rule="evenodd" d="M142.211 220.147C142.211 220.39 142.013 220.588 141.77 220.588C141.527 220.588 141.329 220.39 141.329 220.147C141.329 219.904 141.527 219.707 141.77 219.707C142.013 219.707 142.211 219.904 142.211 220.147Z" fill="#F2FBFF"/>
<path fill-rule="evenodd" clip-rule="evenodd" d="M158.517 220.147C158.517 220.39 158.32 220.588 158.076 220.588C157.833 220.588 157.636 220.39 157.636 220.147C157.636 219.904 157.833 219.707 158.076 219.707C158.32 219.707 158.517 219.904 158.517 220.147Z" fill="#F2FBFF"/>
<path fill-rule="evenodd" clip-rule="evenodd" d="M174.677 220.147C174.677 220.39 174.48 220.588 174.236 220.588C173.993 220.588 173.795 220.39 173.795 220.147C173.795 219.904 173.993 219.707 174.236 219.707C174.48 219.707 174.677 219.904 174.677 220.147Z" fill="#F2FBFF"/>
<path fill-rule="evenodd" clip-rule="evenodd" d="M190.985 220.147C190.985 220.39 190.788 220.588 190.545 220.588C190.302 220.588 190.104 220.39 190.104 220.147C190.104 219.904 190.302 219.707 190.545 219.707C190.788 219.707 190.985 219.904 190.985 220.147Z" fill="#F2FBFF"/>
<path fill-rule="evenodd" clip-rule="evenodd" d="M207.145 220.147C207.145 220.39 206.947 220.588 206.704 220.588C206.461 220.588 206.264 220.39 206.264 220.147C206.264 219.904 206.461 219.707 206.704 219.707C206.947 219.707 207.145 219.904 207.145 220.147Z" fill="#F2FBFF"/>
<path fill-rule="evenodd" clip-rule="evenodd" d="M223.452 220.147C223.452 220.39 223.254 220.588 223.012 220.588C222.768 220.588 222.57 220.39 222.57 220.147C222.57 219.904 222.768 219.707 223.012 219.707C223.254 219.707 223.452 219.904 223.452 220.147Z" fill="#F2FBFF"/>
<path fill-rule="evenodd" clip-rule="evenodd" d="M135.893 214.27C135.893 215.243 135.104 216.033 134.13 216.033C133.156 216.033 132.367 215.243 132.367 214.27C132.367 213.296 133.156 212.506 134.13 212.506C135.104 212.506 135.893 213.296 135.893 214.27Z" fill="#07B8FF"/>
<path fill-rule="evenodd" clip-rule="evenodd" d="M149.997 205.894C149.997 206.867 149.208 207.657 148.234 207.657C147.26 207.657 146.471 206.867 146.471 205.894C146.471 204.92 147.26 204.131 148.234 204.131C149.208 204.131 149.997 204.92 149.997 205.894Z" fill="#07B8FF"/>
<path fill-rule="evenodd" clip-rule="evenodd" d="M167.48 206.629C167.48 207.603 166.69 208.392 165.717 208.392C164.744 208.392 163.954 207.603 163.954 206.629C163.954 205.655 164.744 204.865 165.717 204.865C166.69 204.865 167.48 205.655 167.48 206.629Z" fill="#07B8FF"/>
<path fill-rule="evenodd" clip-rule="evenodd" d="M184.667 191.494C184.667 192.468 183.878 193.257 182.905 193.257C181.931 193.257 181.142 192.468 181.142 191.494C181.142 190.52 181.931 189.731 182.905 189.731C183.878 189.731 184.667 190.52 184.667 191.494Z" fill="#07B8FF"/>
<path fill-rule="evenodd" clip-rule="evenodd" d="M200.534 201.045C200.534 202.019 199.745 202.808 198.771 202.808C197.798 202.808 197.008 202.019 197.008 201.045C197.008 200.072 197.798 199.282 198.771 199.282C199.745 199.282 200.534 200.072 200.534 201.045Z" fill="#07B8FF"/>
<path fill-rule="evenodd" clip-rule="evenodd" d="M216.694 203.69C216.694 204.664 215.905 205.453 214.931 205.453C213.958 205.453 213.168 204.664 213.168 203.69C213.168 202.716 213.958 201.927 214.931 201.927C215.905 201.927 216.694 202.716 216.694 203.69Z" fill="#07B8FF"/>
<path fill-rule="evenodd" clip-rule="evenodd" d="M231.826 214.213C231.826 214.213 231.685 214.229 231.412 214.212C231.138 214.193 230.729 214.158 230.204 214.05C229.17 213.838 227.576 213.392 226.004 212.057C225.222 211.397 224.507 210.481 223.94 209.376C223.37 208.29 222.683 207.138 221.778 206.033C220.868 204.96 219.691 203.862 218.128 203.488C217.357 203.302 216.519 203.335 215.713 203.575C214.905 203.826 214.151 204.268 213.472 204.842C212.096 205.991 211.082 207.623 209.747 209.104C209.078 209.84 208.301 210.557 207.322 210.989C206.347 211.41 205.215 211.54 204.133 211.25C203.028 210.955 202.187 210.03 201.707 209.024C201.205 208.009 200.928 206.906 200.66 205.803C200.388 204.703 200.166 203.564 199.696 202.534C199.462 202.026 199.135 201.549 198.663 201.296C198.181 201.035 197.605 200.976 197.031 200.98C195.867 201.04 194.695 201.376 193.48 201.606C192.871 201.715 192.249 201.822 191.607 201.819C190.972 201.822 190.302 201.745 189.703 201.449C189.078 201.198 188.601 200.698 188.191 200.185C187.825 199.643 187.51 199.068 187.265 198.468C186.753 197.274 186.412 196.022 185.949 194.819C185.708 194.225 185.453 193.63 185.095 193.11C184.735 192.596 184.266 192.164 183.693 191.944C183.545 191.902 183.401 191.847 183.252 191.812L182.785 191.768C182.478 191.751 182.193 191.81 181.922 191.945C181.381 192.219 180.971 192.746 180.629 193.293C179.959 194.422 179.516 195.706 179.128 197.002C178.742 198.303 178.419 199.635 178.107 200.979C177.591 203.204 177.13 205.422 176.557 207.594C176.268 208.679 175.958 209.755 175.563 210.8C175.158 211.836 174.697 212.88 173.885 213.711C173.472 214.11 172.908 214.421 172.291 214.417C171.701 214.417 171.141 214.208 170.659 213.923C169.688 213.339 168.974 212.48 168.365 211.604C167.14 209.836 166.355 207.868 165.594 205.986C164.82 204.123 163.947 202.278 162.501 201.015C161.085 199.759 159.05 199.292 157.309 199.749C156.43 199.97 155.599 200.362 154.838 200.835C154.067 201.295 153.355 201.832 152.681 202.393C151.336 203.519 150.134 204.75 149.081 206.011L149.073 206.02L149.07 206.023C147.346 207.743 145.542 209.199 143.736 210.451C141.927 211.695 140.1 212.716 138.272 213.408C136.449 214.082 134.615 214.48 132.924 214.298C131.244 214.134 129.767 213.676 128.468 213.221C125.872 212.28 123.968 211.266 122.682 210.578C122.042 210.227 121.561 209.947 121.24 209.751C120.918 209.556 120.763 209.441 120.763 209.441C120.763 209.441 120.936 209.527 121.265 209.707C121.611 209.892 122.099 210.153 122.73 210.49C124.026 211.148 125.942 212.133 128.531 213.042C129.826 213.481 131.297 213.921 132.942 214.067C134.584 214.234 136.385 213.832 138.176 213.156C139.973 212.464 141.776 211.443 143.562 210.201C145.344 208.954 147.138 207.491 148.828 205.791L148.819 205.802C149.888 204.512 151.09 203.271 152.454 202.121C153.135 201.549 153.859 201 154.65 200.525C155.429 200.037 156.287 199.626 157.219 199.389C159.088 198.896 161.23 199.389 162.754 200.722C164.288 202.061 165.178 203.96 165.963 205.833C166.731 207.724 167.506 209.651 168.701 211.371C169.292 212.222 169.986 213.041 170.868 213.567C171.305 213.825 171.795 214.005 172.296 214.003C172.781 214.002 173.229 213.762 173.596 213.412C174.319 212.675 174.781 211.663 175.171 210.651C175.557 209.629 175.865 208.564 176.15 207.487C176.719 205.331 177.179 203.114 177.696 200.885C178.009 199.537 178.335 198.198 178.725 196.882C179.118 195.57 179.564 194.266 180.27 193.075C180.637 192.495 181.074 191.91 181.734 191.571C182.06 191.404 182.448 191.329 182.803 191.351L183.33 191.402C183.503 191.443 183.671 191.504 183.841 191.555C184.512 191.811 185.047 192.315 185.436 192.875C185.825 193.44 186.086 194.059 186.335 194.67C186.806 195.9 187.145 197.149 187.642 198.308C188.132 199.452 188.763 200.611 189.872 201.083C190.952 201.604 192.23 201.421 193.406 201.217C194.601 200.995 195.781 200.655 197.018 200.592C197.634 200.589 198.279 200.65 198.849 200.96C199.428 201.275 199.793 201.833 200.041 202.373C200.538 203.475 200.75 204.619 201.02 205.717C201.284 206.815 201.557 207.898 202.03 208.864C202.49 209.825 203.241 210.644 204.232 210.915C205.211 211.182 206.284 211.068 207.185 210.679C208.099 210.282 208.849 209.603 209.505 208.885C210.823 207.441 211.85 205.798 213.279 204.614C213.985 204.024 214.784 203.56 215.631 203.304C216.481 203.055 217.375 203.025 218.19 203.228C219.845 203.638 221.041 204.786 221.96 205.883C222.872 207.015 223.555 208.184 224.119 209.284C224.669 210.38 225.353 211.274 226.112 211.933C227.635 213.261 229.201 213.73 230.221 213.967C230.74 214.088 231.144 214.136 231.414 214.169C231.687 214.2 231.826 214.204 231.826 214.213Z" fill="#07B8FF"/>
<path fill-rule="evenodd" clip-rule="evenodd" d="M136.188 183.78C136.188 183.905 129.906 184.006 122.159 184.006C114.409 184.006 108.128 183.905 108.128 183.78C108.128 183.655 114.409 183.553 122.159 183.553C129.906 183.553 136.188 183.655 136.188 183.78Z" fill="#02A7E9"/>
<path fill-rule="evenodd" clip-rule="evenodd" d="M252.247 239.249H323.939V171.951H252.247V239.249Z" fill="#F2FBFF"/>
<path fill-rule="evenodd" clip-rule="evenodd" d="M288.205 214.81C280.703 214.81 274.623 208.729 274.623 201.226C274.623 193.723 280.703 187.641 288.205 187.641C295.706 187.641 301.787 193.723 301.787 201.226C301.787 208.729 295.706 214.81 288.205 214.81ZM287.871 179.445C275.66 179.445 265.761 189.346 265.761 201.559C265.761 213.772 275.66 223.674 287.871 223.674C300.082 223.674 309.981 213.772 309.981 201.559C309.981 189.346 300.082 179.445 287.871 179.445Z" fill="#3EC8FF"/>
<path fill-rule="evenodd" clip-rule="evenodd" d="M288.24 179.592C288.24 181.946 288.24 185.118 288.238 187.78C295.727 187.782 301.798 193.863 301.798 201.365C301.798 202.801 301.574 204.184 301.161 205.484L309.163 207.657C309.692 205.76 309.981 203.764 309.981 201.698C309.981 189.598 300.278 179.775 288.24 179.592Z" fill="#76D8FF"/>
<path fill-rule="evenodd" clip-rule="evenodd" d="M274.614 201.254C274.614 195.722 277.918 190.966 282.656 188.847L279.259 181.209C271.327 184.563 265.761 192.424 265.761 201.587C265.761 201.898 265.772 202.207 265.785 202.515H274.674C274.636 202.1 274.614 201.679 274.614 201.254Z" fill="#76D8FF"/>
<path fill-rule="evenodd" clip-rule="evenodd" d="M288.189 214.939C287.204 214.939 286.246 214.831 285.321 214.631C284.981 216.606 284.337 220.433 283.832 223.446C285.137 223.688 286.481 223.821 287.855 223.821C297.979 223.821 306.504 216.968 309.1 207.632L301.104 205.453C299.364 210.954 294.241 214.939 288.189 214.939Z" fill="#07B8FF"/>
<path fill-rule="evenodd" clip-rule="evenodd" d="M287.855 223.821C286.481 223.821 285.137 223.688 283.832 223.446C284.337 220.433 284.981 216.606 285.321 214.631C286.246 214.831 287.204 214.939 288.189 214.939C294.241 214.939 299.364 210.954 301.104 205.453L309.1 207.632C306.504 216.968 297.979 223.821 287.855 223.821Z" fill="#E3F7FF"/>
<path fill-rule="evenodd" clip-rule="evenodd" d="M285.302 202.347H284.476V203.396H283.332V202.347H280.601V201.569L282.991 198.4H284.223L282.006 201.405H283.368V200.47H284.476V201.405H285.302V202.347Z" fill="#0EB0F0"/>
<path fill-rule="evenodd" clip-rule="evenodd" d="M288.697 200.972C288.697 199.842 288.3 199.374 287.724 199.374C287.157 199.374 286.759 199.842 286.759 200.972C286.759 202.101 287.157 202.57 287.724 202.57C288.3 202.57 288.697 202.101 288.697 200.972ZM285.594 200.972C285.594 199.331 286.503 198.4 287.724 198.4C288.953 198.4 289.855 199.331 289.855 200.972C289.855 202.613 288.953 203.543 287.724 203.543C286.503 203.543 285.594 202.613 285.594 200.972Z" fill="#0EB0F0"/>
<path fill-rule="evenodd" clip-rule="evenodd" d="M295.597 202.157C295.597 201.625 295.39 201.36 295.076 201.36C294.769 201.36 294.554 201.618 294.554 202.157C294.554 202.695 294.769 202.955 295.076 202.955C295.39 202.955 295.597 202.688 295.597 202.157ZM293.841 202.157C293.841 201.309 294.354 200.771 295.076 200.771C295.804 200.771 296.318 201.309 296.318 202.157C296.318 203.005 295.804 203.543 295.076 203.543C294.354 203.543 293.841 203.005 293.841 202.157ZM294.662 198.458H295.511L292.099 203.485H291.249L294.662 198.458ZM292.206 199.786C292.206 199.247 291.998 198.989 291.684 198.989C291.377 198.989 291.163 199.255 291.163 199.786C291.163 200.318 291.377 200.584 291.684 200.584C291.998 200.584 292.206 200.325 292.206 199.786ZM290.442 199.786C290.442 198.939 290.956 198.4 291.684 198.4C292.413 198.4 292.919 198.932 292.919 199.786C292.919 200.641 292.413 201.173 291.684 201.173C290.956 201.173 290.442 200.634 290.442 199.786Z" fill="#0EB0F0"/>
<path fill-rule="evenodd" clip-rule="evenodd" d="M306.163 229.33C306.163 229.455 297.972 229.555 287.873 229.555C277.769 229.555 269.582 229.455 269.582 229.33C269.582 229.207 277.769 229.106 287.873 229.106C297.972 229.106 306.163 229.207 306.163 229.33Z" fill="#0EB0F0"/>
<path fill-rule="evenodd" clip-rule="evenodd" d="M297.935 232.711C297.935 232.834 293.395 232.935 287.798 232.935C282.199 232.935 277.661 232.834 277.661 232.711C277.661 232.586 282.199 232.486 287.798 232.486C293.395 232.486 297.935 232.586 297.935 232.711Z" fill="#0EB0F0"/>
<path fill-rule="evenodd" clip-rule="evenodd" d="M172 291H316V244H172V291Z" fill="#F2FBFF"/>
<path fill-rule="evenodd" clip-rule="evenodd" d="M301.925 250.027C301.925 250.115 277.955 250.186 248.394 250.186C218.823 250.186 194.857 250.115 194.857 250.027C194.857 249.938 218.823 249.866 248.394 249.866C277.955 249.866 301.925 249.938 301.925 250.027Z" fill="#07B8FF"/>
<path fill-rule="evenodd" clip-rule="evenodd" d="M301.925 255.503C301.925 255.592 277.955 255.663 248.394 255.663C218.823 255.663 194.857 255.592 194.857 255.503C194.857 255.414 218.823 255.344 248.394 255.344C277.955 255.344 301.925 255.414 301.925 255.503Z" fill="#07B8FF"/>
<path fill-rule="evenodd" clip-rule="evenodd" d="M301.925 260.98C301.925 261.069 277.955 261.14 248.394 261.14C218.823 261.14 194.857 261.069 194.857 260.98C194.857 260.892 218.823 260.82 248.394 260.82C277.955 260.82 301.925 260.892 301.925 260.98Z" fill="#07B8FF"/>
<path fill-rule="evenodd" clip-rule="evenodd" d="M301.925 266.457C301.925 266.545 277.955 266.617 248.394 266.617C218.823 266.617 194.857 266.545 194.857 266.457C194.857 266.369 218.823 266.297 248.394 266.297C277.955 266.297 301.925 266.369 301.925 266.457Z" fill="#07B8FF"/>
<path fill-rule="evenodd" clip-rule="evenodd" d="M301.925 271.935C301.925 272.023 277.955 272.094 248.394 272.094C218.823 272.094 194.857 272.023 194.857 271.935C194.857 271.846 218.823 271.774 248.394 271.774C277.955 271.774 301.925 271.846 301.925 271.935Z" fill="#07B8FF"/>
<path fill-rule="evenodd" clip-rule="evenodd" d="M292.702 265.604C292.702 265.604 292.628 265.688 292.469 265.846C292.289 265.982 292.015 266.195 291.57 266.341C290.709 266.636 289.137 266.652 287.663 265.718C286.951 265.237 286.334 264.537 285.825 263.706C285.312 262.874 284.906 261.913 284.425 260.908C283.935 259.913 283.333 258.846 282.33 257.987C281.827 257.565 281.213 257.217 280.512 257.024C279.811 256.841 279.038 256.796 278.274 256.917C276.735 257.141 275.257 257.878 274.004 258.882C272.729 259.881 271.609 261.111 270.237 262.227C268.886 263.339 267.121 264.297 265.067 264.433C264.051 264.489 262.982 264.267 262.108 263.748C261.233 263.229 260.573 262.481 260.047 261.685C258.982 260.091 258.444 258.236 257.061 256.781C256.391 256.061 255.52 255.431 254.469 255.223C253.423 255.002 252.289 255.265 251.426 255.859C250.55 256.443 249.888 257.273 249.425 258.169C248.962 259.069 248.726 260.065 248.479 261.06C248.233 262.058 247.995 263.08 247.54 264.06C247.32 264.553 247.02 265.018 246.676 265.463C246.302 265.887 245.898 266.298 245.412 266.632C244.465 267.326 243.33 267.796 242.147 268.046C240.965 268.307 239.722 268.322 238.546 268.092C237.354 267.883 236.297 267.334 235.365 266.729C234.426 266.122 233.574 265.447 232.683 264.842C231.79 264.251 230.849 263.692 229.791 263.475C228.743 263.229 227.622 263.379 226.695 263.825C225.762 264.273 225.002 264.951 224.385 265.69C223.767 266.434 223.298 267.259 222.823 268.069C222.35 268.879 221.875 269.688 221.277 270.424C220.686 271.162 219.932 271.802 219.057 272.252C218.189 272.703 217.161 272.962 216.159 272.841C215.155 272.729 214.277 272.236 213.643 271.622C213.002 271.004 212.558 270.274 212.256 269.528C211.955 268.779 211.783 268.019 211.622 267.282C211.312 265.809 211.01 264.376 210.133 263.237C209.316 262.097 208.08 261.196 206.694 261.016C206.008 260.929 205.319 261.016 204.712 261.229C204.103 261.443 203.576 261.774 203.121 262.14C201.314 263.642 200.445 265.457 199.105 266.507C197.837 267.598 196.466 268.101 195.514 268.075C195.042 268.07 194.689 267.988 194.467 267.914C194.245 267.831 194.136 267.784 194.136 267.784C194.145 267.745 194.582 268.019 195.513 268.014C196.443 268.021 197.773 267.513 199.011 266.424C200.317 265.381 201.156 263.57 202.99 262.017C203.454 261.64 203.996 261.292 204.634 261.064C205.27 260.836 205.998 260.739 206.726 260.827C208.201 261.014 209.491 261.953 210.339 263.124C210.776 263.71 211.111 264.372 211.338 265.074C211.567 265.774 211.72 266.502 211.883 267.238C212.047 267.974 212.222 268.721 212.515 269.448C212.81 270.169 213.244 270.871 213.855 271.455C214.459 272.036 215.276 272.487 216.198 272.588C217.118 272.697 218.077 272.457 218.902 272.027C219.734 271.595 220.453 270.984 221.024 270.268C221.603 269.553 222.069 268.755 222.54 267.944C223.014 267.134 223.484 266.298 224.122 265.527C224.759 264.763 225.544 264.053 226.536 263.574C227.524 263.095 228.748 262.931 229.871 263.194C231.008 263.429 231.981 264.012 232.889 264.612C233.795 265.224 234.647 265.897 235.569 266.492C236.487 267.086 237.488 267.603 238.621 267.802C239.741 268.02 240.932 268.007 242.065 267.757C243.199 267.516 244.288 267.064 245.191 266.401C245.656 266.083 246.039 265.691 246.395 265.29C246.721 264.869 247.008 264.424 247.221 263.948C247.66 263.003 247.897 261.997 248.143 260.998C248.393 260.001 248.629 258.991 249.115 258.048C249.598 257.117 250.285 256.251 251.22 255.625C252.141 254.99 253.4 254.695 254.544 254.941C255.699 255.171 256.622 255.854 257.316 256.601C258.75 258.122 259.288 260.001 260.322 261.549C260.833 262.325 261.465 263.038 262.283 263.525C263.101 264.011 264.087 264.22 265.05 264.171C266.996 264.047 268.715 263.133 270.043 262.045C271.397 260.952 272.525 259.722 273.826 258.711C275.109 257.691 276.633 256.934 278.234 256.708C279.03 256.587 279.844 256.635 280.582 256.833C281.321 257.04 281.964 257.409 282.482 257.851C283.517 258.749 284.117 259.837 284.601 260.843C285.078 261.858 285.472 262.814 285.97 263.639C286.462 264.462 287.061 265.154 287.745 265.626C289.163 266.547 290.699 266.555 291.545 266.285C292.42 265.994 292.68 265.574 292.702 265.604Z" fill="#02A7E9"/>
<path fill-rule="evenodd" clip-rule="evenodd" d="M299.474 264.212C299.474 264.212 299.351 264.224 299.104 264.234C298.981 264.23 298.83 264.202 298.648 264.181C298.477 264.126 298.264 264.092 298.052 263.994C297.161 263.662 296.053 262.856 294.865 261.667C294.568 261.369 294.264 261.047 293.954 260.702C293.636 260.361 293.353 259.971 292.965 259.645C292.19 258.992 291.077 258.503 289.815 258.401C289.185 258.348 288.525 258.416 287.893 258.612C287.263 258.815 286.69 259.176 286.18 259.613C285.15 260.492 284.375 261.663 283.362 262.772C282.854 263.324 282.277 263.868 281.558 264.291C280.844 264.717 279.987 264.996 279.09 265.092C277.282 265.275 275.42 264.844 273.659 264.21C271.882 263.571 270.185 262.69 268.275 262.126C267.328 261.837 266.328 261.64 265.305 261.61C264.283 261.595 263.247 261.77 262.305 262.178C260.392 262.971 258.899 264.418 257.099 265.599C256.206 266.203 255.183 266.698 254.085 267.031C252.986 267.364 251.813 267.525 250.632 267.55C248.266 267.587 245.854 267.014 243.776 265.903C241.694 264.797 239.927 263.228 238.575 261.413C237.179 259.603 236.416 257.548 235.409 255.673C234.899 254.738 234.322 253.83 233.568 253.061C232.81 252.297 231.89 251.654 230.856 251.246C229.826 250.832 228.657 250.696 227.587 250.947C226.512 251.186 225.584 251.776 224.871 252.493C224.151 253.213 223.621 254.059 223.246 254.936C222.871 255.818 222.628 256.731 222.407 257.638C222.183 258.544 221.983 259.449 221.696 260.328C221.416 261.207 221.023 262.053 220.532 262.834C219.551 264.399 218.178 265.712 216.604 266.677C215.04 267.655 213.253 268.259 211.48 268.473C209.697 268.673 207.95 268.453 206.413 267.965C203.311 266.999 201.122 264.908 200.304 262.771C199.881 261.705 199.669 260.679 199.364 259.765C199.062 258.854 198.698 258.027 198.145 257.416C197.023 256.189 195.537 255.767 194.611 255.846C193.656 255.924 193.287 256.308 193.271 256.267C193.273 256.294 193.626 255.888 194.606 255.786C195.555 255.686 197.083 256.098 198.25 257.345C198.831 257.972 199.206 258.808 199.522 259.725C199.838 260.645 200.061 261.67 200.485 262.715C201.304 264.802 203.454 266.832 206.496 267.767C208.002 268.237 209.711 268.446 211.443 268.245C213.172 268.03 214.912 267.436 216.438 266.475C217.973 265.529 219.312 264.24 220.266 262.709C221.257 261.184 221.672 259.4 222.096 257.581C222.316 256.671 222.559 255.745 222.943 254.839C223.329 253.935 223.872 253.06 224.622 252.307C225.365 251.557 226.347 250.925 227.502 250.667C228.654 250.396 229.912 250.544 230.993 250.979C232.085 251.409 233.039 252.078 233.827 252.87C234.613 253.671 235.2 254.598 235.719 255.547C236.74 257.451 237.494 259.477 238.864 261.251C240.191 263.033 241.924 264.57 243.954 265.65C245.98 266.733 248.325 267.29 250.626 267.257C251.774 267.233 252.912 267.079 253.976 266.758C255.04 266.436 256.022 265.963 256.901 265.372C258.671 264.218 260.177 262.756 262.168 261.929C263.149 261.507 264.248 261.322 265.312 261.34C266.379 261.373 267.41 261.582 268.374 261.878C270.316 262.457 272.025 263.35 273.768 263.982C275.504 264.613 277.323 265.034 279.057 264.863C279.918 264.774 280.731 264.511 281.415 264.108C282.105 263.707 282.669 263.181 283.172 262.64C284.177 261.553 284.962 260.378 286.027 259.478C286.555 259.03 287.155 258.654 287.822 258.444C288.49 258.241 289.179 258.176 289.833 258.235C291.143 258.348 292.284 258.862 293.08 259.544C293.483 259.89 293.762 260.284 294.072 260.623C294.377 260.969 294.675 261.292 294.968 261.591C296.133 262.785 297.215 263.596 298.081 263.939C298.941 264.319 299.485 264.173 299.474 264.212Z" fill="#02A7E9"/>
<path fill-rule="evenodd" clip-rule="evenodd" d="M187.653 250.314C187.653 250.403 187.007 250.475 186.212 250.475C185.416 250.475 184.771 250.403 184.771 250.314C184.771 250.226 185.416 250.154 186.212 250.154C187.007 250.154 187.653 250.226 187.653 250.314Z" fill="#07B8FF"/>
<path fill-rule="evenodd" clip-rule="evenodd" d="M187.653 255.503C187.653 255.592 187.007 255.663 186.212 255.663C185.416 255.663 184.771 255.592 184.771 255.503C184.771 255.414 185.416 255.344 186.212 255.344C187.007 255.344 187.653 255.414 187.653 255.503Z" fill="#07B8FF"/>
<path fill-rule="evenodd" clip-rule="evenodd" d="M187.653 260.692C187.653 260.78 187.007 260.852 186.212 260.852C185.416 260.852 184.771 260.78 184.771 260.692C184.771 260.603 185.416 260.532 186.212 260.532C187.007 260.532 187.653 260.603 187.653 260.692Z" fill="#07B8FF"/>
<path fill-rule="evenodd" clip-rule="evenodd" d="M187.653 265.881C187.653 265.969 187.007 266.041 186.212 266.041C185.416 266.041 184.771 265.969 184.771 265.881C184.771 265.792 185.416 265.721 186.212 265.721C187.007 265.721 187.653 265.792 187.653 265.881Z" fill="#07B8FF"/>
<path fill-rule="evenodd" clip-rule="evenodd" d="M187.653 271.07C187.653 271.158 187.007 271.229 186.212 271.229C185.416 271.229 184.771 271.158 184.771 271.07C184.771 270.982 185.416 270.91 186.212 270.91C187.007 270.91 187.653 270.982 187.653 271.07Z" fill="#07B8FF"/>
<path fill-rule="evenodd" clip-rule="evenodd" d="M200.62 277.843C200.62 277.932 199.362 278.003 197.81 278.003C196.259 278.003 195 277.932 195 277.843C195 277.756 196.259 277.683 197.81 277.683C199.362 277.683 200.62 277.756 200.62 277.843Z" fill="#07B8FF"/>
<path fill-rule="evenodd" clip-rule="evenodd" d="M225.551 277.843C225.551 277.932 224.292 278.003 222.741 278.003C221.189 278.003 219.931 277.932 219.931 277.843C219.931 277.756 221.189 277.683 222.741 277.683C224.292 277.683 225.551 277.756 225.551 277.843Z" fill="#07B8FF"/>
<path fill-rule="evenodd" clip-rule="evenodd" d="M250.48 277.843C250.48 277.932 249.222 278.003 247.67 278.003C246.117 278.003 244.86 277.932 244.86 277.843C244.86 277.756 246.117 277.683 247.67 277.683C249.222 277.683 250.48 277.756 250.48 277.843Z" fill="#07B8FF"/>
<path fill-rule="evenodd" clip-rule="evenodd" d="M275.41 277.843C275.41 277.932 274.152 278.003 272.6 278.003C271.048 278.003 269.79 277.932 269.79 277.843C269.79 277.756 271.048 277.683 272.6 277.683C274.152 277.683 275.41 277.756 275.41 277.843Z" fill="#07B8FF"/>
<path fill-rule="evenodd" clip-rule="evenodd" d="M300.339 277.843C300.339 277.932 299.08 278.003 297.529 278.003C295.977 278.003 294.719 277.932 294.719 277.843C294.719 277.756 295.977 277.683 297.529 277.683C299.08 277.683 300.339 277.756 300.339 277.843Z" fill="#07B8FF"/>
</svg>
