<svg width="92" height="105" viewBox="0 0 92 105" fill="none" xmlns="http://www.w3.org/2000/svg">
<path fill-rule="evenodd" clip-rule="evenodd" d="M0.631348 104.835H91.8478V0.773193H0.631348V104.835Z" fill="#FFFFFE"/>
<path fill-rule="evenodd" clip-rule="evenodd" d="M91.6958 104.835C91.6958 104.835 91.6904 104.665 91.6877 104.34C91.6857 104.01 91.6824 103.529 91.679 102.895C91.675 101.618 91.6689 99.7337 91.6615 97.2794C91.6521 92.368 91.6386 85.1799 91.6218 76.0524C91.6036 57.8114 91.5773 31.8211 91.5464 0.798253L91.6958 0.947652C64.844 0.953709 33.6448 0.960439 0.52038 0.967842H0.510952L0.680595 0.798253C0.671844 39.1545 0.662392 74.9231 0.654315 104.835L0.510952 104.692C27.9438 104.722 50.7223 104.747 66.6487 104.766C74.6183 104.782 80.8727 104.794 85.1405 104.803C87.2725 104.81 88.9069 104.815 90.0143 104.819C91.1183 104.825 91.6958 104.835 91.6958 104.835C91.6958 104.835 91.1398 104.846 90.0452 104.851C88.9439 104.855 87.3182 104.86 85.1991 104.867C80.9387 104.876 74.6951 104.889 66.7396 104.904C50.7916 104.922 27.9815 104.948 0.510952 104.979H0.367554V104.835C0.360148 74.9231 0.351406 39.1545 0.341309 0.798253V0.628662H0.52038C33.6448 0.635392 64.844 0.642121 91.6958 0.648178H91.8459V0.798253C91.8143 31.8608 91.7887 57.8847 91.7706 76.1486C91.7531 85.262 91.7403 92.438 91.7308 97.3419C91.7228 99.7835 91.7174 101.658 91.7134 102.928C91.7093 103.555 91.7066 104.031 91.7046 104.357C91.7012 104.677 91.6958 104.835 91.6958 104.835Z" fill="#004DD1"/>
<path fill-rule="evenodd" clip-rule="evenodd" d="M83.9212 53.8548C83.8906 53.9167 82.9107 53.3486 80.9873 52.74C79.0793 52.149 76.1355 51.5775 72.5741 52.1167C70.8082 52.3994 68.8949 52.9332 67.026 53.8985C65.1442 54.841 63.3514 56.2391 61.5701 57.8203C59.7813 59.3982 58.0053 61.1902 55.9566 62.8461C53.9078 64.4758 51.5574 66.018 48.7921 66.7222C47.4202 67.0756 45.983 67.1671 44.6091 66.9739C43.2325 66.7868 41.932 66.3364 40.7332 65.7784C38.3295 64.6462 36.2754 63.1591 34.2395 61.9185C32.219 60.6537 30.1878 59.65 28.133 59.1821C26.091 58.686 24.1076 58.5851 22.3242 58.7372C18.7338 59.0502 16.0177 60.3211 14.305 61.3463C12.585 62.3978 11.7727 63.1881 11.7262 63.1329C11.7128 63.1167 11.9128 62.9209 12.3095 62.56C12.6994 62.1932 13.3224 61.6984 14.1757 61.1404C15.8722 60.0384 18.6113 58.6766 22.2824 58.2983C24.1062 58.1145 26.1442 58.1899 28.2542 58.68C30.3757 59.1384 32.4958 60.1663 34.5398 61.4285C36.602 62.6684 38.6575 64.1366 40.9898 65.223C43.2971 66.3344 46.0133 66.8292 48.6399 66.1183C51.2664 65.4512 53.5597 63.9642 55.5747 62.3702C57.5911 60.7513 59.3752 58.9708 61.1902 57.3895C62.9985 55.8049 64.8425 54.3893 66.7922 53.4374C68.7272 52.464 70.6991 51.941 72.5108 51.6805C76.1651 51.1857 79.1527 51.84 81.0634 52.5098C82.0278 52.8437 82.7464 53.185 83.2178 53.4367C83.6893 53.6925 83.9304 53.8359 83.9212 53.8548Z" fill="#146BFF"/>
<path fill-rule="evenodd" clip-rule="evenodd" d="M25.7051 88.8366H33.4866V67.9377H25.7051V88.8366Z" fill="#146BFF"/>
<path fill-rule="evenodd" clip-rule="evenodd" d="M58.5601 88.8366H66.3416V67.9377H58.5601V88.8366Z" fill="#146BFF"/>
<path fill-rule="evenodd" clip-rule="evenodd" d="M69.5112 88.8364H77.2927V55.5424H69.5112V88.8364Z" fill="#146BFF"/>
<path fill-rule="evenodd" clip-rule="evenodd" d="M15.6162 89.2689H23.3977V82.2065H15.6162V89.2689Z" fill="#146BFF"/>
<path fill-rule="evenodd" clip-rule="evenodd" d="M36.6562 88.8363H44.4377V77.3059H36.6562V88.8363Z" fill="#146BFF"/>
<path fill-rule="evenodd" clip-rule="evenodd" d="M47.6074 88.8366H55.3889V74.7118H47.6074V88.8366Z" fill="#146BFF"/>
<path fill-rule="evenodd" clip-rule="evenodd" d="M33.7744 91.3591C33.7744 91.5428 31.9037 91.6927 29.5958 91.6927C27.2872 91.6927 25.4165 91.5428 25.4165 91.3591C25.4165 91.1746 27.2872 91.0254 29.5958 91.0254C31.9037 91.0254 33.7744 91.1746 33.7744 91.3591Z" fill="#004DD1"/>
<path fill-rule="evenodd" clip-rule="evenodd" d="M24.1191 91.3591C24.1191 91.5428 22.2478 91.6927 19.9398 91.6927C17.6319 91.6927 15.7612 91.5428 15.7612 91.3591C15.7612 91.1746 17.6319 91.0254 19.9398 91.0254C22.2478 91.0254 24.1191 91.1746 24.1191 91.3591Z" fill="#004DD1"/>
<path fill-rule="evenodd" clip-rule="evenodd" d="M78.8769 91.3591C78.8769 91.5428 76.7477 91.6927 74.1216 91.6927C71.4947 91.6927 69.3662 91.5428 69.3662 91.3591C69.3662 91.1746 71.4947 91.0254 74.1216 91.0254C76.7477 91.0254 78.8769 91.1746 78.8769 91.3591Z" fill="#004DD1"/>
<path fill-rule="evenodd" clip-rule="evenodd" d="M67.3496 91.3591C67.3496 91.5428 65.2205 91.6927 62.5939 91.6927C59.9679 91.6927 57.8389 91.5428 57.8389 91.3591C57.8389 91.1746 59.9679 91.0254 62.5939 91.0254C65.2205 91.0254 67.3496 91.1746 67.3496 91.3591Z" fill="#004DD1"/>
<path fill-rule="evenodd" clip-rule="evenodd" d="M55.3887 91.3591C55.3887 91.5435 53.5167 91.6927 51.2101 91.6927C48.9014 91.6927 47.0308 91.5435 47.0308 91.3591C47.0308 91.1746 48.9014 91.0254 51.2101 91.0254C53.5167 91.0254 55.3887 91.1746 55.3887 91.3591Z" fill="#004DD1"/>
<path fill-rule="evenodd" clip-rule="evenodd" d="M44.0044 91.3591C44.0044 91.5435 42.133 91.6927 39.8251 91.6927C37.5171 91.6927 35.6465 91.5435 35.6465 91.3591C35.6465 91.1746 37.5171 91.0254 39.8251 91.0254C42.133 91.0254 44.0044 91.1746 44.0044 91.3591Z" fill="#004DD1"/>
<path fill-rule="evenodd" clip-rule="evenodd" d="M15.4731 42.2827H78.7338V15.9069H15.4731V42.2827Z" fill="#DCE9FF"/>
<path fill-rule="evenodd" clip-rule="evenodd" d="M28.5869 24.1944C28.5869 25.8263 27.2651 27.1491 25.6328 27.1491C24.0012 27.1491 22.6787 25.8263 22.6787 24.1944C22.6787 22.5625 24.0012 21.2397 25.6328 21.2397C27.2651 21.2397 28.5869 22.5625 28.5869 24.1944Z" fill="#004DD1"/>
<path fill-rule="evenodd" clip-rule="evenodd" d="M31.6128 23.4017H52.2193V22.2487H31.6128V23.4017Z" fill="#004DD1"/>
<path fill-rule="evenodd" clip-rule="evenodd" d="M31.6128 25.9958H71.6731V24.8428H31.6128V25.9958Z" fill="#FFFFFE"/>
<path fill-rule="evenodd" clip-rule="evenodd" d="M28.5869 33.2747C28.5869 34.9058 27.2651 36.229 25.6328 36.229C24.0012 36.229 22.6787 34.9058 22.6787 33.2747C22.6787 31.6423 24.0012 30.3197 25.6328 30.3197C27.2651 30.3197 28.5869 31.6423 28.5869 33.2747Z" fill="#146BFF"/>
<path fill-rule="evenodd" clip-rule="evenodd" d="M31.6128 32.4817H42.1322V31.3286H31.6128V32.4817Z" fill="#146BFF"/>
<path fill-rule="evenodd" clip-rule="evenodd" d="M31.6128 35.0759H71.6731V33.9229H31.6128V35.0759Z" fill="#FFFFFE"/>
</svg>
