<svg width="50" height="50" viewBox="0 0 50 50" fill="none" xmlns="http://www.w3.org/2000/svg">
<g clip-path="url(#clip0_269_3504)">
<path d="M28.5122 49.0234H38.5007C40.1821 49.0234 41.5452 47.6603 41.5452 45.9789V36.6432C41.5452 34.9618 40.1821 33.5987 38.5007 33.5987H9.50457C7.82312 33.5987 6.46004 34.9618 6.46004 36.6432V45.9789C6.46004 47.6603 7.82312 49.0234 9.50457 49.0234H19.9197M28.9839 45.1967L30.3834 37.4427C30.4183 37.2612 30.6717 37.2442 30.7306 37.4195L33.0072 45.1363C33.0624 45.3006 33.2953 45.2995 33.3488 45.1345L35.5477 37.4208C35.6048 37.245 35.8582 37.2592 35.8951 37.4404L37.3774 45.1967M16.9153 37.9763C16.2799 37.547 15.5139 37.2963 14.6893 37.2963C12.4905 37.2963 10.7081 39.0788 10.7081 41.2776C10.7081 43.4764 12.4905 45.2588 14.6893 45.2588C15.5823 45.2588 16.3169 44.9648 16.8744 44.4683C16.9897 44.3656 17.0975 44.2542 17.1975 44.1349M22.0388 41.4586L25.3835 45.2588M21.0785 37.2964V45.2589M46.1851 25.9549L42.9541 27.86M42.9541 27.86L41.0969 24.4127M42.9541 27.86C44.0675 24.7293 44.4218 21.2795 43.8291 17.7703C41.9758 6.79929 31.5795 -0.592116 20.6083 1.2612C9.63709 3.11452 2.24578 13.5108 4.0991 24.4819C4.29656 25.651 4.59197 26.7791 4.9738 27.86M25.3835 39.3658C25.3835 40.5086 24.3813 41.4351 23.197 41.4351C22.6096 41.4351 21.0959 41.4442 21.0959 41.4442C21.0959 41.4442 21.0864 39.9418 21.0864 39.3657C21.0864 38.8925 21.0811 37.2964 21.0811 37.2964C21.0811 37.2964 22.503 37.2964 23.197 37.2964C24.3814 37.2964 25.3835 38.2229 25.3835 39.3658ZM35.2697 21.8173C34.4838 21.039 34.4838 19.7998 35.2697 19.0197L36.5024 17.7978C37.1518 17.1534 37.2793 16.1715 36.8117 15.395L34.9332 12.2651C34.4665 11.4877 33.5187 11.1023 32.6133 11.3216L30.895 11.7364C29.8007 12.0007 28.6845 11.3816 28.3761 10.3371L27.8923 8.69948C27.6354 7.83591 26.8151 7.24021 25.8827 7.24021H22.123C21.1906 7.24021 20.3684 7.83591 20.1125 8.69948L19.6296 10.3371C19.3203 11.3815 18.2051 12.0007 17.1098 11.7364L15.3915 11.3216C14.4871 11.1024 13.5384 11.4877 13.0725 12.2651L11.194 15.395C10.7256 16.1715 10.853 17.1535 11.5024 17.7978L12.736 19.0197C13.5211 19.7998 13.5211 21.039 12.736 21.8173L11.5024 23.041C10.853 23.6854 10.7256 24.6673 11.194 25.4438L13.0725 28.5737C13.5383 29.3511 14.4871 29.7364 15.3915 29.5172L17.1098 29.1015C18.2051 28.838 19.3203 29.4572 19.6296 30.5017L20.1125 32.1393C20.3684 33.0029 21.1905 33.5986 22.123 33.5986H25.8827C26.8151 33.5986 27.6354 33.0029 27.8923 32.1393L28.3761 30.5017C28.6845 29.4573 29.8006 28.838 30.895 29.1015L32.6133 29.5172C33.5187 29.7364 34.4665 29.3511 34.9332 28.5737L36.8117 25.4438C37.2793 24.6672 37.1517 23.6853 36.5024 23.041L35.2697 21.8173ZM24.0025 25.5692C21.1595 25.5692 18.8527 23.1538 18.8527 20.4188C18.8527 17.6839 21.1595 15.2696 24.0026 15.2696C26.847 15.2696 29.1524 17.6839 29.1524 20.4188C29.1523 23.1538 26.8468 25.5692 24.0025 25.5692Z" stroke="white" stroke-width="2" stroke-miterlimit="10" stroke-linecap="round" stroke-linejoin="round"/>
</g>
<defs>
<clipPath id="clip0_269_3504">
<rect width="50" height="50" fill="white"/>
</clipPath>
</defs>
</svg>
