<svg width="28" height="22" viewBox="0 0 28 22" fill="none" xmlns="http://www.w3.org/2000/svg">
<path d="M27 22H1C0.448 22 0 21.553 0 21V5C0 4.448 0.448 4 1 4C1.552 4 2 4.448 2 5V20H26V2H1C0.448 2 0 1.552 0 1C0 0.448 0.448 0 1 0H27C27.553 0 28 0.448 28 1V21C28 21.553 27.553 22 27 22Z" fill="#146BFF"/>
<path d="M14.0002 14C13.7443 14 13.4882 13.902 13.2933 13.707L5.29325 5.70701C4.90225 5.31601 4.90225 4.68401 5.29325 4.29301C5.68425 3.90201 6.31625 3.90201 6.70725 4.29301L14.0002 11.586L21.2932 4.29301C21.6842 3.90201 22.3162 3.90201 22.7073 4.29301C23.0983 4.68401 23.0983 5.31601 22.7073 5.70701L14.7073 13.707C14.5123 13.902 14.2562 14 14.0002 14Z" fill="#146BFF"/>
<path d="M22.0013 18.0001C21.7453 18.0001 21.4893 17.9021 21.2943 17.7071L18.2923 14.7051C17.9013 14.3141 17.9013 13.6821 18.2923 13.2911C18.6833 12.9001 19.3153 12.9001 19.7063 13.2911L22.7083 16.2931C23.0993 16.6841 23.0993 17.3161 22.7083 17.7071C22.5133 17.9021 22.2573 18.0001 22.0013 18.0001Z" fill="#146BFF"/>
<path d="M6.00123 18C5.74523 18 5.48923 17.902 5.29423 17.707C4.90323 17.316 4.90323 16.684 5.29423 16.293L8.29323 13.294C8.68423 12.903 9.31623 12.903 9.70723 13.294C10.0982 13.685 10.0982 14.317 9.70723 14.708L6.70823 17.707C6.51323 17.902 6.25723 18 6.00123 18Z" fill="#146BFF"/>
</svg>
