<svg width="1280" height="1162" viewBox="0 0 1280 1162" fill="none" xmlns="http://www.w3.org/2000/svg">
<path d="M0 41H1440V1162H0V41Z" fill="url(#paint0_linear_257_438)"/>
<g opacity="0.05">
<mask id="mask0_257_438" style="mask-type:alpha" maskUnits="userSpaceOnUse" x="197" y="0" width="1440" height="1162">
<rect x="197" width="1440" height="1162" fill="#F1F1F1"/>
</mask>
<g mask="url(#mask0_257_438)">
<path d="M1390.04 470.785C1350.33 502.531 1310.61 534.143 1270.89 565.889C1265.08 570.482 1259.28 575.21 1253.47 579.804C1285.48 588.314 1317.5 596.69 1349.52 605.201C1331.41 550.083 1313.31 494.966 1295.21 439.849C1292.64 431.878 1289.94 424.043 1287.37 416.073C1278.05 387.568 1247.25 366.089 1216.72 375.951C1188.22 385.137 1166.47 416.073 1176.6 446.603C1194.7 501.721 1212.8 556.838 1230.91 611.955C1233.47 619.926 1236.18 627.761 1238.74 635.731C1245.09 655.049 1258.87 670.315 1278.86 675.854C1300.34 681.798 1318.31 674.232 1334.79 661.129C1374.51 629.382 1414.23 597.771 1453.94 566.024C1459.75 561.431 1465.56 556.703 1471.37 552.11C1482.18 543.464 1488.26 524.551 1488.26 511.447C1488.26 497.398 1482.04 480.511 1471.37 470.785C1460.43 460.788 1445.97 453.223 1430.71 453.898C1414.5 454.709 1402.61 460.788 1390.04 470.785Z" fill="#02A7E9"/>
<path d="M645.691 536.573C688.38 577.101 731.203 617.628 773.892 658.156C782.403 626.139 790.779 594.122 799.29 562.106C732.149 581.289 665.009 600.472 597.868 619.655C588.277 622.356 578.685 625.193 569.094 627.895C540.184 636.136 519.38 668.828 528.972 698.548C538.428 727.998 568.689 747.586 599.624 738.67C666.765 719.487 733.905 700.304 801.046 681.121C810.637 678.419 820.229 675.582 829.82 672.881C870.483 661.263 887.099 607.091 855.217 576.831C812.529 536.303 769.705 495.776 727.016 455.248C705.131 434.579 667.17 432.013 645.691 455.248C625.157 477.674 622.455 514.418 645.691 536.573Z" fill="#02A7E9"/>
<path d="M1001.93 359.334C1001.12 418.099 1000.17 476.863 999.359 535.628C1028.13 519.147 1057.04 502.531 1085.82 486.05C1023.54 454.438 961.399 422.827 899.122 391.215C890.206 386.622 881.289 382.164 872.373 377.571C845.625 363.927 808.745 369.601 793.75 398.24C779.971 424.448 785.78 462.274 814.419 476.863C876.561 508.34 938.703 539.951 1000.98 571.698C1009.9 576.291 1018.81 580.749 1027.73 585.342C1066.36 604.93 1113.51 581.019 1114.19 535.763C1115 476.999 1115.94 418.234 1116.75 359.469C1117.16 329.344 1090.01 300.569 1059.34 302.055C1027.86 303.271 1002.33 327.047 1001.93 359.334Z" fill="#146BFF"/>
<path d="M523.298 900.78C575.578 901.456 627.723 901.996 680.004 902.671C687.569 902.807 695.134 902.807 702.699 902.942C686.218 874.167 669.602 845.258 653.121 816.483C620.158 870.385 587.331 924.421 554.369 978.323C549.641 986.023 544.912 993.723 540.184 1001.56C524.514 1027.23 533.7 1065.86 560.853 1080.18C588.817 1094.91 622.725 1086.94 639.476 1059.51C672.439 1005.61 705.266 951.575 738.228 897.673C742.956 889.973 747.685 882.273 752.413 874.437C775.514 836.612 745.523 788.384 702.834 787.979C650.554 787.303 598.409 786.763 546.128 786.088C538.563 785.953 530.998 785.952 523.433 785.817C493.308 785.412 464.533 812.566 466.019 843.231C467.1 874.708 491.011 900.375 523.298 900.78Z" fill="#146BFF"/>
<path d="M716.478 1218.11C753.223 1180.82 789.968 1143.67 826.713 1106.39C831.981 1101.12 837.25 1095.72 842.383 1090.45C810.367 1081.94 778.35 1073.56 746.333 1065.05C762.274 1126.25 778.35 1187.44 794.291 1248.51C796.587 1257.29 798.884 1265.93 801.181 1274.71C808.746 1303.76 842.654 1324.29 871.833 1314.84C901.824 1305.11 920.196 1275.25 911.956 1244.18C896.015 1182.99 879.939 1121.79 863.998 1060.73C861.702 1051.95 859.405 1043.3 857.108 1034.52C846.166 992.777 791.184 978.593 761.058 1009.12C724.314 1046.41 687.569 1083.56 650.824 1120.84C645.555 1126.11 640.287 1131.52 635.153 1136.78C613.944 1158.26 612.188 1197.04 635.153 1218.11C658.119 1239.05 693.918 1240.94 716.478 1218.11Z" fill="#02A7E9"/>
<path d="M1098.11 1326.45C1098.38 1274.31 1098.52 1222.03 1098.79 1169.88C1098.79 1162.32 1098.79 1154.75 1098.92 1147.05C1070.15 1163.53 1041.24 1180.15 1012.46 1196.63C1073.12 1227.57 1133.78 1258.37 1194.3 1289.3C1202.94 1293.63 1211.45 1298.08 1220.1 1302.41C1246.85 1316.05 1283.73 1310.24 1298.72 1281.74C1312.64 1255.53 1306.69 1217.7 1278.05 1203.11C1217.4 1172.18 1156.74 1141.38 1096.22 1110.44C1087.58 1106.12 1079.06 1101.66 1070.42 1097.34C1051.78 1087.88 1030.97 1086.53 1012.46 1097.34C994.902 1107.61 984.095 1126.65 983.96 1146.92C983.69 1199.06 983.555 1251.34 983.285 1303.49C983.285 1311.05 983.285 1318.62 983.149 1326.32C983.014 1356.44 1009.63 1385.22 1040.56 1383.73C1071.9 1382.52 1097.98 1358.74 1098.11 1326.45Z" fill="#146BFF"/>
<path d="M1466.64 1152.32C1420.03 1110.31 1373.43 1068.29 1326.82 1026.28C1318.31 1058.3 1309.94 1090.31 1301.42 1122.33C1369.78 1103.01 1438 1083.69 1506.36 1064.38C1516.08 1061.67 1525.95 1058.84 1535.67 1056.14C1564.58 1047.9 1585.39 1015.07 1575.79 985.483C1566.2 956.033 1536.08 936.58 1505.14 945.361C1436.79 964.679 1368.56 983.997 1300.21 1003.31C1290.48 1006.02 1280.62 1008.85 1270.89 1011.56C1231.04 1022.9 1212.8 1078.02 1245.5 1107.61C1292.1 1149.62 1338.71 1191.63 1385.32 1233.65C1407.61 1253.77 1444.89 1257.29 1466.64 1233.65C1486.77 1211.63 1490.42 1173.8 1466.64 1152.32Z" fill="#02A7E9"/>
</g>
</g>
<defs>
<linearGradient id="paint0_linear_257_438" x1="720" y1="41" x2="720" y2="1207" gradientUnits="userSpaceOnUse">
<stop stop-color="white"/>
<stop offset="1" stop-color="#E5F8FF"/>
</linearGradient>
</defs>
</svg>
