<svg width="55" height="55" viewBox="0 0 55 55" fill="none" xmlns="http://www.w3.org/2000/svg">
<g clip-path="url(#clip0_269_3531)">
<path d="M42.1525 22.9919C42.1525 12.3815 33.5509 3.7803 22.9405 3.7803C12.3301 3.7803 3.72888 12.3815 3.72888 22.9919C3.72888 33.6023 12.3301 42.204 22.9405 42.204C33.5457 42.1918 42.14 33.5976 42.1525 22.9919ZM5.55852 22.9919C5.55852 13.3924 13.341 5.60994 22.9405 5.60994C32.5405 5.60994 40.3225 13.3924 40.3225 22.9919C40.3225 32.5919 32.5405 40.3743 22.9405 40.3743C13.3453 40.3631 5.56934 32.5875 5.55852 22.9919Z" fill="white"/>
<path d="M49.362 44.2391L49.3603 44.2365L49.3577 44.2344L47.4199 42.2966C47.078 41.9521 46.6124 41.7587 46.1273 41.76H46.1256C45.9672 41.7621 45.8097 41.7851 45.6573 41.8279L43.3582 39.5287C43.5282 38.9004 43.3504 38.2288 42.8912 37.767L41.4848 36.3546C48.4676 26.6707 46.8413 13.2474 37.7481 5.51127C28.6549 -2.22487 15.1446 -1.67918 6.70485 6.76493C-1.73493 15.209 -2.27369 28.7197 5.46721 37.809C13.2077 46.8983 26.6318 48.5177 36.3122 41.5302L37.7152 42.9426C38.1726 43.4096 38.8486 43.5887 39.4769 43.4091L41.7761 45.7087C41.5969 46.3371 41.7765 47.0135 42.2439 47.47L44.1834 49.4091L44.1851 49.4117L44.1877 49.4134L48.7138 53.9395C49.6334 54.8876 50.9922 55.2663 52.2696 54.9309C53.5471 54.5955 54.5446 53.5981 54.8799 52.3206C55.2153 51.0436 54.8362 49.6843 53.8885 48.7652L49.362 44.2391ZM1.89925 22.9919C1.89232 13.7213 7.95418 5.5381 16.825 2.84342C25.6958 0.14916 35.2849 3.57778 40.4354 11.2862C45.5864 18.9947 45.0852 29.1658 39.2017 36.3303C39.1796 36.3576 39.1571 36.384 39.135 36.4108C38.3003 37.4161 37.3746 38.3422 36.3698 39.1774C36.3369 39.2046 36.304 39.2323 36.2711 39.2596C29.9838 44.42 21.2844 45.4919 13.9325 42.0127C6.58066 38.533 1.89449 31.1257 1.89925 22.9919ZM38.1324 40.0688C38.3068 39.9134 38.4773 39.7546 38.6469 39.5941C38.9559 39.3015 39.2566 39.0008 39.5492 38.6914C39.708 38.5235 39.8655 38.3547 40.0191 38.182C40.1299 38.0578 40.2498 37.9423 40.358 37.8155L41.596 39.0592L41.5978 39.0618L39.0104 41.6492V41.6496L37.7715 40.4029C37.8961 40.2964 38.0099 40.1779 38.1324 40.0688ZM42.2443 41.0022L44.1847 42.9426L42.8912 44.2361L40.9508 42.2957L42.2443 41.0022ZM46.1256 43.5892L47.4195 44.8835L44.8321 47.4709L43.5382 46.1765L46.1256 43.5892ZM52.5946 52.646C51.8706 53.3371 50.7312 53.3371 50.0073 52.646L46.126 48.7643L48.7129 46.1774L52.5946 50.0587C52.9378 50.4014 53.1304 50.867 53.1304 51.3521C53.1304 51.8372 52.9378 52.3029 52.5946 52.646Z" fill="white"/>
<path d="M27.3324 35.5073C27.7954 34.8023 28.3442 34.1584 28.9664 33.5898C30.4135 32.4348 31.1639 30.616 30.9527 28.7764C31.993 28.0347 32.7014 26.9156 32.9269 25.6585C33.2878 22.5501 32.4366 22.1515 32.1159 22.0014C31.9229 21.9109 31.7126 21.8625 31.4993 21.8594C31.5006 21.7097 31.4967 21.544 31.4958 21.3877C33.5803 20.4089 34.8336 19.0509 34.8336 17.503C34.8336 15.6275 33.0264 14.0116 29.8808 13.0068C29.645 11.7804 29.2767 10.583 28.7834 9.43538C28.5618 8.94336 28.1347 8.57379 27.6159 8.42536C27.097 8.27693 26.5388 8.36478 26.0909 8.66553C25.9459 8.7629 25.7879 8.87931 25.6153 9.00524C24.8723 9.67383 23.9354 10.0871 22.9405 10.184C21.9461 10.0871 21.0083 9.67383 20.2657 9.00481C20.0935 8.87888 19.9351 8.7629 19.7901 8.66553C19.3422 8.36478 18.7844 8.27693 18.266 8.42493C17.7472 8.57336 17.3205 8.94292 17.0993 9.43452C16.6051 10.5822 16.2369 11.78 16.0006 13.0068C12.8546 14.0116 11.0474 15.6275 11.0474 17.503C11.0474 19.0509 12.3011 20.4089 14.3856 21.3873C14.3847 21.5431 14.3804 21.7084 14.3817 21.8581C14.1684 21.8616 13.9585 21.9105 13.7655 22.0014C13.4444 22.1515 12.5932 22.5501 12.9576 25.6892C13.1899 26.9346 13.8962 28.0416 14.9287 28.776C14.7171 30.6155 15.4675 32.4344 16.9146 33.5898C17.5373 34.1584 18.086 34.8023 18.5486 35.5073C19.2821 36.5502 20.0407 37.6294 21.856 37.6294H24.0249C25.8407 37.6294 26.5989 36.5502 27.3324 35.5073ZM16.2529 23.0361C16.2356 22.731 16.22 22.4203 16.2148 22.0849C17.7757 22.5414 19.3834 22.8214 21.007 22.9192C21.0948 22.9257 21.1827 22.9313 21.271 22.937C21.4826 22.9495 21.6938 22.9621 21.9093 22.9698C21.9487 22.9711 21.9867 22.9755 22.0261 22.9768V24.3278C21.1602 24.6978 20.2216 24.8666 19.2812 24.8215C18.0297 24.7939 16.883 24.1175 16.2529 23.0361ZM23.8553 22.9768C23.8951 22.9755 23.9328 22.9711 23.9722 22.9698C24.1877 22.9621 24.3988 22.9495 24.6105 22.937C24.6992 22.9313 24.7866 22.9257 24.8744 22.9192C26.4981 22.8214 28.1057 22.5414 29.6666 22.0849C29.6614 22.4203 29.6463 22.731 29.6285 23.0361C28.998 24.1175 27.8513 24.7934 26.6002 24.8215C25.6599 24.8657 24.7221 24.6982 23.8553 24.3313V22.9768ZM18.7719 10.1862C18.8969 10.2701 19.0337 10.3701 19.1821 10.4787C20.2324 11.3892 21.5531 11.9288 22.9405 12.0141C24.3279 11.9288 25.649 11.3896 26.6993 10.4792C26.8473 10.3701 26.984 10.2701 27.1173 10.1905C27.6397 11.4295 28.0079 12.7281 28.2139 14.0571C28.2464 14.2557 28.2719 14.4526 28.2966 14.6495C28.3143 14.7884 28.3346 14.9252 28.3489 15.0671C28.3757 15.3337 28.3922 15.5968 28.4052 15.8582C28.4086 15.93 28.4169 15.9997 28.4195 16.0719C27.0117 16.8318 25.4664 17.3039 23.8739 17.4606C23.571 17.4879 23.2594 17.503 22.9405 17.503C22.0564 17.4995 21.1758 17.3883 20.3181 17.172C19.3236 16.9244 18.3642 16.5544 17.4615 16.0698C17.4637 15.9984 17.4719 15.9296 17.4754 15.8586C17.4888 15.5959 17.5052 15.3324 17.5321 15.0649C17.5464 14.9239 17.5667 14.788 17.5844 14.6499C17.6091 14.453 17.6351 14.2557 17.6667 14.0571C17.8726 12.7255 18.2439 11.4251 18.7719 10.1862ZM12.8775 17.503C12.8775 16.6496 13.9468 15.7387 15.6934 15.0442C15.6877 15.1047 15.6899 15.1627 15.6851 15.2229C15.6479 15.6734 15.622 16.1277 15.622 16.5882C15.622 16.8941 15.7747 17.1797 16.0292 17.3494C18.1115 18.6225 20.4998 19.308 22.9405 19.3326C25.3812 19.308 27.7695 18.6225 29.8518 17.3494C30.1063 17.1797 30.2595 16.8941 30.2595 16.5882C30.2595 16.1277 30.2331 15.6734 30.1963 15.2225C30.1915 15.1623 30.1933 15.1047 30.1881 15.0442C31.9346 15.7387 33.0039 16.6496 33.0039 17.503C33.0039 18.3564 31.9489 19.2608 30.1889 19.9567C30.0673 20.0051 29.9384 20.0488 29.812 20.0947C27.9858 20.7122 26.0796 21.0614 24.153 21.1307C24.0989 21.1333 24.0462 21.138 23.9916 21.1406C23.6472 21.1549 23.2966 21.1618 22.9405 21.1623C22.5844 21.1627 22.2343 21.1554 21.8898 21.1406C21.8348 21.138 21.782 21.1333 21.728 21.1307C19.8014 21.0614 17.8951 20.7122 16.069 20.0947C15.943 20.0488 15.8137 20.0051 15.6925 19.9567C13.9321 19.2608 12.8775 18.3572 12.8775 17.503ZM20.045 34.4544C19.5006 33.6305 18.8545 32.8784 18.1223 32.2154C16.6527 30.9237 16.7038 29.8855 16.7752 28.4488L16.7826 28.3008C16.7977 27.9762 16.6398 27.6677 16.368 27.4903C16.3139 27.4548 16.2559 27.4254 16.1953 27.4029C15.4614 26.9861 14.9425 26.2734 14.7712 25.4473C14.7167 24.9743 14.6972 24.4979 14.7128 24.0223C15.676 25.6325 17.4053 26.6278 19.2812 26.6516C20.5427 26.7092 21.7989 26.4578 22.9405 25.9186C24.0825 26.4578 25.3388 26.7092 26.6002 26.6516C28.4761 26.6274 30.2054 25.6321 31.1682 24.0218C31.1838 24.4853 31.1661 24.9488 31.115 25.4096C30.9527 26.2509 30.4304 26.9792 29.6857 27.4029C29.6251 27.4254 29.5675 27.4548 29.5134 27.4903C29.2412 27.6677 29.0837 27.9762 29.0989 28.3008L29.1062 28.4488C29.1776 29.8851 29.2282 30.9237 27.7587 32.2154C27.0265 32.8784 26.3804 33.6305 25.836 34.4544C25.1181 35.4765 24.8506 35.7998 24.0249 35.7998H21.856C21.0304 35.7998 20.7634 35.4765 20.045 34.4544Z" fill="white"/>
<path d="M26.3328 30.5826C25.9771 30.2261 25.4002 30.223 25.041 30.5762C24.7208 30.9076 24.3075 31.1344 23.8553 31.2257C23.3503 31.2257 22.9405 31.6351 22.9405 32.1405C22.9405 32.646 23.3503 33.0553 23.8553 33.0553C24.7944 32.964 25.6707 32.5451 26.3319 31.8727C26.6885 31.5165 26.6885 30.9388 26.3328 30.5826Z" fill="white"/>
</g>
<defs>
<clipPath id="clip0_269_3531">
<rect width="55" height="55" fill="white"/>
</clipPath>
</defs>
</svg>
