<svg width="204" height="21" viewBox="0 0 204 21" fill="none" xmlns="http://www.w3.org/2000/svg">
<path d="M50.5316 19.7106C47.2188 19.7106 45.868 15.2952 44.5586 11.0268C43.6672 8.10926 42.4405 4.11196 40.9794 4.11196C39.5183 4.11196 38.2961 8.10926 37.4002 11.0268C36.0907 15.2952 34.7399 19.7106 31.4272 19.7106C28.1145 19.7106 26.7637 15.2952 25.4542 11.0268C24.5629 8.10926 23.3361 4.11196 21.8751 4.11196C20.414 4.11196 19.1872 8.10926 18.2959 11.0268C16.991 15.2952 15.6356 19.7106 12.3229 19.7106C9.01019 19.7106 7.65938 15.2952 6.34992 11.0222C5.45856 8.10926 4.2364 4.11196 2.77073 4.11196C2.08154 4.11196 1.521 3.55142 1.521 2.86223C1.521 2.17305 2.08154 1.60791 2.77073 1.60791C6.08343 1.60791 7.43424 6.02331 8.7437 10.2917C9.63505 13.2093 10.8618 17.2066 12.3229 17.2066C13.784 17.2066 15.0107 13.2093 15.9021 10.2917C17.2069 6.02331 18.5624 1.60791 21.8751 1.60791C25.1878 1.60791 26.5386 6.02331 27.848 10.2963C28.7394 13.2139 29.9661 17.2112 31.4272 17.2112C32.8883 17.2112 34.1151 13.2139 35.0064 10.2963C36.3159 6.02791 37.6667 1.6125 40.9794 1.6125C44.2921 1.6125 45.6429 6.02791 46.9524 10.2963C47.8437 13.2139 49.0705 17.2112 50.5316 17.2112C51.2207 17.2112 51.7813 17.7717 51.7813 18.4609C51.7813 19.1501 51.2253 19.7106 50.5316 19.7106Z" fill="url(#paint0_linear_167_1045)"/>
<path d="M59.7021 1.28638H64.1727L69.1762 15.4791H69.2267L74.097 1.28638H78.517V19.4167H75.4938V5.42151H75.4432L70.4167 19.4121H67.8024L62.7759 5.42151H62.7254V19.4121H59.7021V1.28638Z" fill="black"/>
<path d="M81.9951 1.28638H95.0484V4.02935H85.17V8.77557H94.3132V11.3669H85.17V16.6737H95.223V19.4167H81.9951V1.28638Z" fill="black"/>
<path d="M97.612 1.28638H102.083L107.086 15.4791H107.137L112.007 1.28638H116.427V19.4167H113.404V5.42151H113.353L108.327 19.4121H105.712L100.681 5.42151H100.631V19.4121H97.6074L97.612 1.28638Z" fill="black"/>
<path d="M119.905 1.28638H128.718C131.966 1.28638 134.103 2.76124 134.103 5.77989C134.103 7.60854 133.165 8.92719 131.511 9.63935V9.68989C133.744 10.1723 134.916 11.8999 134.916 14.3626C134.916 17.2067 132.936 19.4167 128.24 19.4167H119.91V1.28638H119.905ZM123.08 8.87665H128.258C129.784 8.87665 130.923 7.98989 130.923 6.36341C130.923 4.53476 129.986 3.87313 128.258 3.87313H123.08V8.87665ZM123.08 16.8253H128.69C130.62 16.8253 131.736 15.7823 131.736 13.9583C131.736 12.1572 130.62 11.1648 128.69 11.1648H123.08V16.8253Z" fill="black"/>
<path d="M137.452 1.28638H146.108C150.096 1.28638 152.099 3.11503 152.099 6.18881C152.099 9.66692 149.71 10.5583 149.104 10.7604V10.811C150.197 10.9396 151.796 11.8034 151.796 14.6429C151.796 16.7748 152.099 18.6815 152.789 19.4167H149.384C148.902 18.631 148.902 17.6385 148.902 16.7518C148.902 13.4253 148.217 11.9504 145.295 11.9504H140.622V19.4167H137.447L137.452 1.28638ZM140.622 9.53827H145.828C147.859 9.53827 148.925 8.57341 148.925 6.64368C148.925 4.30962 147.427 3.87773 145.777 3.87773H140.622V9.53827Z" fill="black"/>
<path d="M159.846 1.28638H163.223L170.207 19.4167H166.802L165.102 14.6199H157.866L156.166 19.4167H152.89L159.846 1.28638ZM158.729 12.2031H164.266L161.546 4.40611H161.468L158.729 12.2031Z" fill="black"/>
<path d="M171.475 1.28638H174.829L183.109 14.6429H183.159V1.28638H186.182V19.4167H182.828L174.576 6.08773H174.498V19.4167H171.475V1.28638Z" fill="black"/>
<path d="M189.605 1.28638H202.658V4.02935H192.78V8.77557H201.923V11.3669H192.78V16.6737H202.837V19.4167H189.61V1.28638H189.605Z" fill="black"/>
<defs>
<linearGradient id="paint0_linear_167_1045" x1="1.5215" y1="10.6607" x2="51.7845" y2="10.6607" gradientUnits="userSpaceOnUse">
<stop stop-color="#0F60FF"/>
<stop offset="0.2747" stop-color="#3955FE"/>
<stop offset="0.5971" stop-color="#634AFC"/>
<stop offset="0.85" stop-color="#7D44FB"/>
<stop offset="1" stop-color="#8741FB"/>
</linearGradient>
</defs>
</svg>
