<svg width="184" height="28" viewBox="0 0 184 28" fill="none" xmlns="http://www.w3.org/2000/svg">
<path d="M20.2655 0.397217H16.7841C16.6801 0.397217 16.5957 0.481572 16.5957 0.58563V4.06704C16.5957 4.17109 16.6801 4.25545 16.7841 4.25545H20.2655C20.3696 4.25545 20.4539 4.17109 20.4539 4.06704V0.58563C20.4539 0.481572 20.3696 0.397217 20.2655 0.397217Z" fill="#EA4224"/>
<path d="M20.2655 5.87305H16.7841C16.6801 5.87305 16.5957 5.9574 16.5957 6.06146V9.54287C16.5957 9.64692 16.6801 9.73128 16.7841 9.73128H20.2655C20.3696 9.73128 20.4539 9.64692 20.4539 9.54287V6.06146C20.4539 5.9574 20.3696 5.87305 20.2655 5.87305Z" fill="#EA4224"/>
<path d="M20.2655 11.3472H16.7841C16.6801 11.3472 16.5957 11.4315 16.5957 11.5356V15.017C16.5957 15.121 16.6801 15.2054 16.7841 15.2054H20.2655C20.3696 15.2054 20.4539 15.121 20.4539 15.017V11.5356C20.4539 11.4315 20.3696 11.3472 20.2655 11.3472Z" fill="#EA4224"/>
<path d="M14.7894 0.397217H11.308C11.204 0.397217 11.1196 0.481572 11.1196 0.58563V4.06704C11.1196 4.17109 11.204 4.25545 11.308 4.25545H14.7894C14.8935 4.25545 14.9779 4.17109 14.9779 4.06704V0.58563C14.9779 0.481572 14.8935 0.397217 14.7894 0.397217Z" fill="#EA4224"/>
<path d="M14.7894 5.87305H11.308C11.204 5.87305 11.1196 5.9574 11.1196 6.06146V9.54287C11.1196 9.64692 11.204 9.73128 11.308 9.73128H14.7894C14.8935 9.73128 14.9779 9.64692 14.9779 9.54287V6.06146C14.9779 5.9574 14.8935 5.87305 14.7894 5.87305Z" fill="#EA4224"/>
<path d="M14.7894 11.3472H11.308C11.204 11.3472 11.1196 11.4315 11.1196 11.5356V15.017C11.1196 15.121 11.204 15.2054 11.308 15.2054H14.7894C14.8935 15.2054 14.9779 15.121 14.9779 15.017V11.5356C14.9779 11.4315 14.8935 11.3472 14.7894 11.3472Z" fill="#EA4224"/>
<path d="M9.31533 0.397217H5.83392C5.72986 0.397217 5.64551 0.481572 5.64551 0.58563V4.06704C5.64551 4.17109 5.72986 4.25545 5.83392 4.25545H9.31533C9.41938 4.25545 9.50374 4.17109 9.50374 4.06704V0.58563C9.50374 0.481572 9.41938 0.397217 9.31533 0.397217Z" fill="#EA4224"/>
<path d="M9.31533 11.3472H5.83392C5.72986 11.3472 5.64551 11.4315 5.64551 11.5356V15.017C5.64551 15.121 5.72986 15.2054 5.83392 15.2054H9.31533C9.41938 15.2054 9.50374 15.121 9.50374 15.017V11.5356C9.50374 11.4315 9.41938 11.3472 9.31533 11.3472Z" fill="#EA4224"/>
<path d="M3.83974 0.397217H0.358335C0.254277 0.397217 0.169922 0.481572 0.169922 0.58563V4.06704C0.169922 4.17109 0.254277 4.25545 0.358335 4.25545H3.83974C3.9438 4.25545 4.02815 4.17109 4.02815 4.06704V0.58563C4.02815 0.481572 3.9438 0.397217 3.83974 0.397217Z" fill="#EA4224"/>
<path d="M3.83974 5.87305H0.358335C0.254277 5.87305 0.169922 5.9574 0.169922 6.06146V9.54287C0.169922 9.64692 0.254277 9.73128 0.358335 9.73128H3.83974C3.9438 9.73128 4.02815 9.64692 4.02815 9.54287V6.06146C4.02815 5.9574 3.9438 5.87305 3.83974 5.87305Z" fill="#EA4224"/>
<path d="M3.83974 11.3472H0.358335C0.254277 11.3472 0.169922 11.4315 0.169922 11.5356V15.017C0.169922 15.121 0.254277 15.2054 0.358335 15.2054H3.83974C3.9438 15.2054 4.02815 15.121 4.02815 15.017V11.5356C4.02815 11.4315 3.9438 11.3472 3.83974 11.3472Z" fill="#EA4224"/>
<path d="M20.2655 16.823H16.7841C16.6801 16.823 16.5957 16.9074 16.5957 17.0114V20.4928C16.5957 20.5969 16.6801 20.6812 16.7841 20.6812H20.2655C20.3696 20.6812 20.4539 20.5969 20.4539 20.4928V17.0114C20.4539 16.9074 20.3696 16.823 20.2655 16.823Z" fill="#EA4224"/>
<path d="M3.83974 16.823H0.358335C0.254277 16.823 0.169922 16.9074 0.169922 17.0114V20.4928C0.169922 20.5969 0.254277 20.6812 0.358335 20.6812H3.83974C3.9438 20.6812 4.02815 20.5969 4.02815 20.4928V17.0114C4.02815 16.9074 3.9438 16.823 3.83974 16.823Z" fill="#EA4224"/>
<path d="M9.31533 16.823H5.83392C5.72986 16.823 5.64551 16.9074 5.64551 17.0114V20.4928C5.64551 20.5969 5.72986 20.6812 5.83392 20.6812H9.31533C9.41938 20.6812 9.50374 20.5969 9.50374 20.4928V17.0114C9.50374 16.9074 9.41938 16.823 9.31533 16.823Z" fill="#EA4224"/>
<path d="M14.7894 16.823H11.308C11.204 16.823 11.1196 16.9074 11.1196 17.0114V20.4928C11.1196 20.5969 11.204 20.6812 11.308 20.6812H14.7894C14.8935 20.6812 14.9779 20.5969 14.9779 20.4928V17.0114C14.9779 16.9074 14.8935 16.823 14.7894 16.823Z" fill="#EA4224"/>
<path d="M27.7343 0.397217H31.4686C31.5186 0.397217 31.5665 0.417067 31.6019 0.452402C31.6372 0.487736 31.657 0.53566 31.657 0.58563V17.2475H40.5566C40.5815 17.2475 40.6061 17.2524 40.6291 17.262C40.6521 17.2716 40.6729 17.2856 40.6904 17.3033C40.7079 17.321 40.7218 17.3419 40.7312 17.365C40.7405 17.388 40.7452 17.4127 40.745 17.4376V20.493C40.7452 20.5178 40.7405 20.5425 40.7312 20.5656C40.7218 20.5886 40.7079 20.6096 40.6904 20.6273C40.6729 20.645 40.6521 20.659 40.6291 20.6686C40.6061 20.6781 40.5815 20.6831 40.5566 20.6831H27.7343C27.6842 20.6826 27.6363 20.6624 27.601 20.6268C27.5657 20.5912 27.5459 20.5431 27.5459 20.493V0.58563C27.5459 0.53566 27.5658 0.487736 27.6011 0.452402C27.6364 0.417067 27.6843 0.397217 27.7343 0.397217Z" fill="#113B5E"/>
<path d="M41.6309 13.2619C41.6309 8.95045 44.5521 5.47583 48.8075 5.47583C53.4313 5.47583 55.9231 9.08964 55.9842 14.1751C55.9847 14.2004 55.9801 14.2254 55.9707 14.2489C55.9614 14.2724 55.9475 14.2937 55.9298 14.3117C55.9121 14.3297 55.8909 14.3441 55.8677 14.3538C55.8444 14.3636 55.8194 14.3686 55.7941 14.3686H45.4399C45.7233 16.6092 46.9675 18.1284 49.1555 18.1284C50.6051 18.1284 51.4742 17.4953 51.9172 16.4581C51.9307 16.424 51.954 16.3946 51.9843 16.3737C52.0145 16.3529 52.0502 16.3415 52.087 16.341H55.5242C55.5529 16.3407 55.5812 16.347 55.6071 16.3593C55.633 16.3716 55.6557 16.3897 55.6735 16.4121C55.6914 16.4345 55.7038 16.4607 55.71 16.4887C55.7162 16.5167 55.716 16.5457 55.7092 16.5736C55.0846 19.0518 52.8134 21.1057 49.1827 21.1057C44.3535 21.1057 41.6309 17.6022 41.6309 13.2619ZM45.4908 11.702H51.958C51.8459 9.85857 50.6255 8.4531 48.867 8.4531C46.8216 8.4531 45.8303 9.80085 45.4908 11.702Z" fill="#113B5E"/>
<path d="M61.696 7.85905C62.689 6.29743 64.108 5.48267 66.094 5.48267C69.1002 5.48267 71.115 7.75211 71.115 10.928V20.498C71.115 20.5482 71.0952 20.5963 71.0599 20.6319C71.0246 20.6675 70.9767 20.6877 70.9266 20.6881H67.4469C67.3964 20.6881 67.3481 20.6681 67.3124 20.6325C67.2768 20.5968 67.2568 20.5485 67.2568 20.498V11.5017C67.2568 9.94178 66.3486 8.83507 64.7327 8.83507C63.0302 8.82658 61.786 10.1845 61.786 12.1705V20.4878C61.786 20.5383 61.7659 20.5866 61.7303 20.6223C61.6946 20.6579 61.6463 20.678 61.5959 20.678H58.1162C58.0913 20.678 58.0666 20.673 58.0437 20.6635C58.0207 20.6539 57.9998 20.6398 57.9823 20.6222C57.9648 20.6045 57.951 20.5835 57.9416 20.5605C57.9322 20.5374 57.9275 20.5127 57.9277 20.4878V6.05979C57.9275 6.03498 57.9322 6.01038 57.9416 5.98742C57.951 5.96446 57.9649 5.9436 57.9824 5.92605C58 5.90851 58.0208 5.89464 58.0438 5.88526C58.0667 5.87587 58.0914 5.87115 58.1162 5.87137H61.511C61.5358 5.87115 61.5604 5.87587 61.5834 5.88526C61.6063 5.89464 61.6272 5.90851 61.6447 5.92605C61.6623 5.9436 61.6761 5.96446 61.6855 5.98742C61.6949 6.01038 61.6996 6.03498 61.6994 6.05979L61.696 7.85905Z" fill="#113B5E"/>
<path d="M73.0532 13.2908C73.0532 8.75195 75.635 5.48272 79.2658 5.48272C81.3027 5.48272 82.6708 6.418 83.4652 7.63844V0.585667C83.4652 0.535697 83.485 0.487773 83.5204 0.452439C83.5557 0.417105 83.6036 0.397254 83.6536 0.397254H87.1333C87.2385 0.397254 87.3234 0.482125 87.3234 0.331055V20.2367C87.3234 20.5965 87.2385 20.6814 87.1333 20.6814H83.7962C83.7712 20.6814 83.7465 20.6765 83.7234 20.6669C83.7004 20.6574 83.6794 20.6434 83.6617 20.6257C83.6441 20.6081 83.6301 20.5871 83.6205 20.564C83.611 20.541 83.6061 20.5163 83.6061 20.4913V18.7803C82.7574 20.1705 81.2517 21.1058 79.2098 21.1058C75.5501 21.1058 73.0532 17.9927 73.0532 13.2908ZM83.5501 13.3757C83.5501 10.5953 82.6419 8.59578 80.1739 8.59578C78.047 8.59578 76.9675 10.5953 76.9675 13.2908C76.9675 16.1001 78.0742 17.8739 80.0602 17.8739C82.3585 17.8722 83.5501 16.0424 83.5501 13.3757Z" fill="#113B5E"/>
<path d="M90.0222 5.87317H93.5019C93.5272 5.87226 93.5524 5.87646 93.5761 5.88551C93.5997 5.89457 93.6213 5.90831 93.6395 5.9259C93.6578 5.94348 93.6722 5.96456 93.6821 5.98788C93.692 6.01119 93.6971 6.03626 93.6971 6.06158V20.4897C93.6971 20.5146 93.6922 20.5393 93.6826 20.5624C93.6731 20.5855 93.6591 20.6064 93.6414 20.6241C93.6238 20.6417 93.6028 20.6557 93.5797 20.6653C93.5567 20.6749 93.5319 20.6798 93.507 20.6798H90.0273C89.9772 20.6793 89.9292 20.6591 89.8939 20.6235C89.8587 20.5879 89.8389 20.5398 89.8389 20.4897V6.06158C89.8388 6.01248 89.858 5.96531 89.8922 5.93012C89.9265 5.89493 89.9731 5.8745 90.0222 5.87317Z" fill="#113B5E"/>
<path d="M99.9609 7.85905C100.954 6.29743 102.373 5.48267 104.359 5.48267C107.365 5.48267 109.38 7.75212 109.38 10.928V20.498C109.38 20.5485 109.36 20.5968 109.324 20.6325C109.288 20.6681 109.24 20.6882 109.19 20.6882H105.71C105.66 20.6877 105.612 20.6675 105.577 20.6319C105.541 20.5963 105.522 20.5482 105.522 20.498V11.5017C105.522 9.94179 104.613 8.83507 102.996 8.83507C101.298 8.83507 100.046 10.193 100.046 12.1824V20.4997C100.046 20.5499 100.026 20.598 99.9906 20.6336C99.9554 20.6692 99.9074 20.6894 99.8573 20.6898H96.3776C96.3272 20.6898 96.2788 20.6698 96.2432 20.6342C96.2075 20.5985 96.1875 20.5502 96.1875 20.4997V6.07167C96.1875 6.04678 96.1924 6.02214 96.202 5.99917C96.2116 5.9762 96.2256 5.95536 96.2433 5.93784C96.261 5.92032 96.2819 5.90648 96.305 5.89711C96.328 5.88774 96.3527 5.88303 96.3776 5.88326H99.7724C99.8224 5.88326 99.8703 5.90311 99.9057 5.93844C99.941 5.97378 99.9609 6.0217 99.9609 6.07167V7.85905Z" fill="#113B5E"/>
<path d="M127.375 10.6106C127.375 4.59662 131.12 0 137.105 0C142.006 0 144.939 2.86864 145.448 6.61994C145.451 6.64683 145.449 6.67413 145.441 6.70001C145.433 6.72589 145.419 6.74976 145.401 6.77001C145.383 6.79027 145.361 6.80644 145.336 6.81744C145.312 6.82845 145.285 6.83403 145.258 6.83382H141.542C141.499 6.83319 141.457 6.81789 141.424 6.79044C141.391 6.76298 141.368 6.725 141.359 6.68275C140.943 4.72562 139.429 3.45765 137.105 3.45765C133.361 3.45765 131.573 6.57751 131.573 10.6072C131.573 14.7489 133.729 17.7279 137.134 17.7279C139.483 17.7279 141.16 16.353 141.479 14.3144C141.486 14.2697 141.509 14.2289 141.543 14.1993C141.577 14.1698 141.621 14.1534 141.666 14.1531H145.324C145.35 14.153 145.376 14.1584 145.4 14.1689C145.425 14.1794 145.446 14.1948 145.464 14.2141C145.482 14.2334 145.496 14.2562 145.504 14.281C145.513 14.3059 145.516 14.3323 145.514 14.3585C145.359 16.1069 144.568 17.7376 143.29 18.9415C141.9 20.2468 139.941 21.0972 137.134 21.0972C131.431 21.1057 127.375 16.7094 127.375 10.6106Z" fill="#113B5E"/>
<path d="M147.845 0.397217H151.324C151.374 0.397215 151.423 0.417011 151.458 0.452298C151.494 0.487584 151.514 0.535505 151.514 0.585631V20.4913C151.514 20.5417 151.494 20.5901 151.459 20.6257C151.423 20.6614 151.375 20.6814 151.324 20.6814H147.845C147.795 20.6809 147.747 20.6607 147.711 20.6251C147.676 20.5895 147.656 20.5414 147.656 20.4913V0.585631C147.656 0.53566 147.676 0.487736 147.711 0.452402C147.747 0.417067 147.795 0.397217 147.845 0.397217Z" fill="#113B5E"/>
<path d="M163.522 20.6813C163.472 20.6809 163.424 20.6607 163.389 20.6251C163.354 20.5895 163.334 20.5414 163.334 20.4912V18.9788C162.341 20.313 161.127 21.0785 159.079 21.0785C155.854 21.0785 154.029 19.0077 154.029 15.8301V6.06147C154.029 6.0115 154.049 5.96357 154.084 5.92824C154.119 5.89291 154.167 5.87305 154.217 5.87305H157.67C157.695 5.87283 157.719 5.87754 157.742 5.88691C157.765 5.89628 157.786 5.91012 157.804 5.92764C157.822 5.94515 157.836 5.966 157.845 5.98897C157.855 6.01194 157.86 6.03658 157.86 6.06147V15.1766C157.86 16.874 158.625 17.8161 160.272 17.8161C162.086 17.8161 163.193 16.4582 163.193 14.5248V6.06147C163.193 6.03658 163.198 6.01194 163.208 5.98897C163.217 5.966 163.231 5.94515 163.249 5.92764C163.267 5.91012 163.288 5.89628 163.311 5.88691C163.334 5.87754 163.358 5.87283 163.383 5.87305H166.856C166.906 5.87305 166.954 5.89291 166.989 5.92824C167.025 5.96357 167.045 6.0115 167.045 6.06147V20.4895C167.045 20.5397 167.025 20.5878 166.99 20.6234C166.954 20.659 166.906 20.6792 166.856 20.6796L163.522 20.6813Z" fill="#113B5E"/>
<path d="M173.277 18.8652V20.4914C173.277 20.5418 173.257 20.5902 173.222 20.6258C173.186 20.6615 173.138 20.6815 173.087 20.6815H169.75C169.645 20.6815 169.56 20.5966 169.56 20.2368V0.3396C169.56 0.49067 169.645 0.405799 169.75 0.405799H173.23C173.28 0.405799 173.328 0.42565 173.363 0.460984C173.398 0.496319 173.418 0.544242 173.418 0.594213V7.63851C174.213 6.41806 175.547 5.48278 177.56 5.48278C181.22 5.48278 183.83 8.75881 183.83 13.2909C183.83 17.9996 181.333 21.0991 177.674 21.0991C175.632 21.1058 174.128 20.2266 173.277 18.8652ZM179.916 13.2909C179.916 10.5954 178.838 8.59585 176.681 8.59585C174.242 8.59585 173.333 10.6803 173.333 13.3758C173.333 16.0424 174.668 17.8723 176.823 17.8723C178.809 17.8723 179.916 16.1002 179.916 13.2909Z" fill="#113B5E"/>
<path d="M93.5038 0.397217H90.0224C89.9183 0.397217 89.834 0.481572 89.834 0.58563V4.06704C89.834 4.17109 89.9183 4.25545 90.0224 4.25545H93.5038C93.6079 4.25545 93.6922 4.17109 93.6922 4.06704V0.58563C93.6922 0.481572 93.6079 0.397217 93.5038 0.397217Z" fill="#EA4224"/>
<path d="M125.247 5.87303H121.91C121.86 5.87302 121.812 5.89282 121.776 5.92811C121.741 5.96339 121.721 6.01131 121.72 6.06144V7.71643C120.871 6.35849 119.366 5.47583 117.324 5.47583C113.664 5.47583 111.318 8.80787 111.318 13.284C111.318 17.6667 113.778 20.6745 117.438 20.6745C119.451 20.6745 120.787 19.7528 121.635 18.4272V20.8205C121.635 22.8065 120.586 23.8555 118.402 23.8555C116.694 23.8555 115.867 23.0577 115.525 22.209C115.511 22.1746 115.488 22.1449 115.458 22.1234C115.428 22.102 115.392 22.0899 115.355 22.0885H111.873C111.846 22.0884 111.818 22.0943 111.793 22.1058C111.768 22.1173 111.746 22.1341 111.728 22.1551C111.71 22.1762 111.697 22.2008 111.69 22.2274C111.682 22.254 111.681 22.2819 111.685 22.3092C112.176 25.0131 114.591 26.7785 118.458 26.7785C120.613 26.7785 122.486 26.2692 123.706 25.1337C124.784 24.1407 125.437 22.7573 125.437 20.7068V6.06144C125.437 6.01131 125.417 5.96339 125.381 5.92811C125.346 5.89282 125.297 5.87302 125.247 5.87303ZM118.31 17.446C116.258 17.446 115.233 15.6366 115.233 13.0735C115.233 10.4017 116.285 8.59569 118.174 8.59569C120.225 8.59569 121.493 10.4629 121.493 12.992C121.493 15.5551 120.63 17.446 118.31 17.446Z" fill="#113B5E"/>
</svg>
