<svg width="206" height="25" viewBox="0 0 206 25" fill="none" xmlns="http://www.w3.org/2000/svg">
<g clip-path="url(#clip0_167_943)">
<path d="M34.9838 2.30391C34.6405 1.82505 34.2519 1.47268 33.8273 1.24681C33.4026 1.02093 32.9148 0.912507 32.3636 0.912507C31.5053 0.912507 30.7734 1.22873 30.1681 1.87023C29.5627 2.50268 29.2555 3.26163 29.2555 4.13804C29.2555 5.06865 29.5537 5.8547 30.1591 6.4962C30.7644 7.13769 31.4962 7.45392 32.3636 7.45392C32.8967 7.45392 33.3755 7.34549 33.8092 7.11962C34.2429 6.89374 34.6133 6.56848 34.9296 6.12576H35.8331C35.4807 6.78532 35.0109 7.29128 34.4146 7.65269C33.8183 8.01409 33.1587 8.19479 32.4178 8.19479C31.2884 8.19479 30.3398 7.80628 29.5808 7.0383C28.8219 6.26128 28.4424 5.29453 28.4424 4.13804C28.4424 3.59593 28.5418 3.08996 28.7496 2.60207C28.9574 2.11417 29.2555 1.68049 29.6531 1.29198C30.0235 0.921542 30.4301 0.650489 30.8909 0.460752C31.3517 0.271015 31.8396 0.180664 32.3726 0.180664C33.1406 0.180664 33.8273 0.370401 34.4417 0.74084C35.0561 1.11128 35.5349 1.64435 35.8963 2.32198H34.9838V2.30391Z" fill="#820053" stroke="#820053" stroke-width="0.36" stroke-miterlimit="10"/>
<path d="M36.854 0.316162H37.5858V2.89116C37.8027 2.62914 38.0557 2.42134 38.3629 2.28581C38.661 2.15028 39.0044 2.08704 39.3748 2.08704C40.197 2.08704 40.7933 2.32195 41.1637 2.79177C41.5342 3.2616 41.7239 4.02055 41.7239 5.07765V8.03212H40.9921V5.05958C40.9921 4.21932 40.8656 3.63204 40.6126 3.29774C40.3596 2.96344 39.935 2.80081 39.3387 2.80081C38.9953 2.80081 38.7062 2.87309 38.4442 3.00862C38.1912 3.14414 37.9834 3.34291 37.8388 3.5959C37.7485 3.75853 37.6852 3.93019 37.6491 4.138C37.6039 4.33677 37.5858 4.68914 37.5858 5.19511V8.02309H36.854V0.316162Z" fill="#820053" stroke="#820053" stroke-width="0.36" stroke-miterlimit="10"/>
<path d="M43.6576 1.51783H42.9077V0.316162H43.6576V1.51783ZM42.9077 8.02309V2.19546H43.6576V8.02309H42.9077Z" fill="#820053" stroke="#820053" stroke-width="0.36" stroke-miterlimit="10"/>
<path d="M49.5032 3.98453C49.2774 3.55989 48.9973 3.25269 48.663 3.04489C48.3377 2.84611 47.9402 2.73769 47.4884 2.73769C46.8921 2.73769 46.3771 2.96357 45.9615 3.42436C45.5459 3.87611 45.3381 4.44532 45.3381 5.11392C45.3381 5.78252 45.5459 6.34269 45.9705 6.79445C46.3861 7.2462 46.9102 7.47208 47.5245 7.47208C47.9763 7.47208 48.3738 7.36366 48.7172 7.13778C49.0605 6.9119 49.3225 6.60471 49.5032 6.19813H50.3345C50.1086 6.83059 49.7562 7.31848 49.2683 7.67085C48.7804 8.01418 48.2112 8.19488 47.5517 8.19488C46.7114 8.19488 45.9976 7.89673 45.4103 7.30041C44.8321 6.70409 44.543 5.98129 44.543 5.13199C44.543 4.27366 44.8411 3.54182 45.4284 2.93647C46.0157 2.34015 46.7295 2.04199 47.5788 2.04199C48.2112 2.04199 48.7714 2.21366 49.2503 2.55699C49.7291 2.90032 50.0905 3.37918 50.3345 3.99357H49.5032V3.98453Z" fill="#820053" stroke="#820053" stroke-width="0.36" stroke-miterlimit="10"/>
<path d="M56.3155 7.11067C56.0806 7.44496 55.7644 7.70698 55.3759 7.89672C54.9783 8.08646 54.5537 8.18584 54.0929 8.18584C53.2436 8.18584 52.5298 7.89672 51.9606 7.30944C51.3914 6.72216 51.1113 5.99935 51.1113 5.14102C51.1113 4.26462 51.4005 3.54181 51.9787 2.95453C52.5569 2.36725 53.2797 2.07812 54.1562 2.07812C54.6079 2.07812 55.0145 2.16848 55.3849 2.34918C55.7554 2.52988 56.0716 2.7919 56.3155 3.13523V2.19558H57.0474V8.02321H56.3155V7.11067ZM56.3155 5.07777C56.3155 4.45435 56.0987 3.92128 55.656 3.46049C55.2133 2.9997 54.7073 2.76479 54.1381 2.76479C53.5147 2.76479 52.9816 2.9997 52.5479 3.46049C52.1052 3.92128 51.8883 4.49049 51.8883 5.17716C51.8883 5.82768 52.1052 6.37882 52.5479 6.82154C52.9816 7.2733 53.5056 7.49014 54.12 7.49014C54.7073 7.49014 55.2313 7.25523 55.665 6.7854C56.0987 6.30654 56.3155 5.73733 56.3155 5.07777Z" fill="#820053" stroke="#820053" stroke-width="0.36" stroke-miterlimit="10"/>
<path d="M59.2342 8.49304C59.3426 8.83637 59.5504 9.09839 59.8395 9.29716C60.1377 9.4869 60.49 9.58629 60.9147 9.58629C61.5743 9.58629 62.0983 9.36041 62.4958 8.92673C62.8934 8.48401 63.0921 7.89673 63.0921 7.15585V6.99322C62.8121 7.38173 62.4868 7.67085 62.1344 7.86059C61.773 8.05936 61.3755 8.14971 60.9418 8.14971C60.0654 8.14971 59.3426 7.86059 58.7643 7.2733C58.1861 6.69506 57.897 5.96322 57.897 5.09585C57.897 4.23751 58.1861 3.52374 58.7553 2.93646C59.3245 2.35822 60.0293 2.06006 60.8695 2.06006C61.3574 2.06006 61.7821 2.15041 62.1435 2.32208C62.5049 2.50278 62.8211 2.77383 63.0921 3.14427V2.19559H63.833V7.05646C63.833 8.06839 63.58 8.86348 63.0741 9.44173C62.5681 10.0109 61.8634 10.3001 60.9689 10.3001C60.3093 10.3001 59.7492 10.1374 59.2703 9.81216C58.8005 9.4869 58.4933 9.04418 58.3578 8.49304H59.2342ZM58.7011 5.05971C58.7011 5.73734 58.9179 6.30655 59.3516 6.76734C59.7853 7.22813 60.3003 7.45401 60.9147 7.45401C61.4929 7.45401 61.9989 7.22813 62.4326 6.76734C62.8753 6.30655 63.0921 5.76444 63.0921 5.15006C63.0921 4.4905 62.8753 3.92129 62.4416 3.45146C62.0079 2.98164 61.502 2.74673 60.9057 2.74673C60.3003 2.74673 59.7763 2.9726 59.3426 3.41532C58.9179 3.85804 58.7011 4.40918 58.7011 5.05971Z" fill="#820053" stroke="#820053" stroke-width="0.36" stroke-miterlimit="10"/>
<path d="M64.6733 5.12296C64.6733 4.26463 64.9625 3.53279 65.5497 2.92744C66.137 2.32209 66.8327 2.01489 67.6278 2.01489C68.4681 2.01489 69.1909 2.31305 69.7872 2.90937C70.3835 3.50568 70.6817 4.21945 70.6817 5.05068C70.6817 5.91805 70.3925 6.65892 69.8053 7.27331C69.218 7.8877 68.5133 8.19489 67.682 8.19489C66.8418 8.19489 66.119 7.89673 65.5407 7.29138C64.9625 6.68603 64.6733 5.96322 64.6733 5.12296ZM65.4684 5.10489C65.4684 5.77349 65.6853 6.3427 66.1099 6.79445C66.5346 7.2462 67.0676 7.47208 67.7001 7.47208C68.3235 7.47208 68.8475 7.2462 69.2722 6.79445C69.6968 6.3427 69.9047 5.77349 69.9047 5.09585C69.9047 4.40919 69.6878 3.83998 69.2632 3.39726C68.8385 2.95454 68.2964 2.72866 67.6368 2.72866C67.0496 2.72866 66.5346 2.95454 66.1099 3.41533C65.6762 3.87612 65.4684 4.43629 65.4684 5.10489Z" fill="#820053" stroke="#820053" stroke-width="0.36" stroke-miterlimit="10"/>
<path d="M75.0635 8.02309V0.316162H76.1838L78.8492 7.02019L81.5055 0.316162H82.6168V8.02309H81.894V1.21967L79.1835 8.03212H78.5058L75.7953 1.21967V8.03212H75.0635V8.02309Z" fill="#820053" stroke="#820053" stroke-width="0.36" stroke-miterlimit="10"/>
<path d="M83.8276 2.19556H84.5595V5.29459C84.5595 6.08968 84.686 6.64986 84.948 6.98415C85.201 7.31845 85.6256 7.48108 86.2219 7.48108C86.5562 7.48108 86.8544 7.4088 87.1074 7.27328C87.3604 7.13775 87.5682 6.93898 87.7218 6.686C87.8121 6.5324 87.8754 6.3517 87.9115 6.14389C87.9476 5.93608 87.9657 5.57468 87.9657 5.06871V2.19556H88.7156V8.02319H87.9657V7.39073C87.7398 7.67082 87.4868 7.86959 87.2068 7.98705C86.9267 8.11354 86.5924 8.17678 86.1948 8.17678C85.3546 8.17678 84.7492 7.95091 84.3788 7.49915C84.0083 7.0474 83.8276 6.28845 83.8276 5.24038V2.19556Z" fill="#820053" stroke="#820053" stroke-width="0.36" stroke-miterlimit="10"/>
<path d="M89.8721 2.19558H90.5949V2.86418C90.8208 2.60216 91.0918 2.40339 91.39 2.2769C91.6881 2.1504 92.0405 2.08716 92.429 2.08716C92.8537 2.08716 93.2422 2.16847 93.5765 2.32207C93.9108 2.4847 94.1728 2.71058 94.3715 3.00874C94.5071 3.21654 94.6065 3.46049 94.6607 3.74058C94.7149 4.02067 94.751 4.43628 94.751 4.98742V8.03225H94.0192V4.76154C94.0192 4.07488 93.8837 3.57795 93.6216 3.26172C93.3596 2.95453 92.935 2.7919 92.3567 2.7919C92.0134 2.7919 91.7152 2.86418 91.4622 2.9997C91.2093 3.13523 91.0015 3.334 90.8569 3.58698C90.7665 3.74961 90.7033 3.92128 90.6672 4.12909C90.631 4.32786 90.6129 4.68926 90.6129 5.18619V8.01418H89.8901V2.19558H89.8721Z" fill="#820053" stroke="#820053" stroke-width="0.36" stroke-miterlimit="10"/>
<path d="M96.6752 1.51783H95.9253V0.316162H96.6752V1.51783ZM95.9253 8.02309V2.19546H96.6752V8.02309H95.9253Z" fill="#820053" stroke="#820053" stroke-width="0.36" stroke-miterlimit="10"/>
<path d="M102.521 3.98453C102.295 3.55989 102.015 3.25269 101.681 3.04489C101.356 2.84611 100.958 2.73769 100.506 2.73769C99.9099 2.73769 99.3949 2.96357 98.9793 3.42436C98.5637 3.87611 98.3559 4.44532 98.3559 5.11392C98.3559 5.78252 98.5637 6.34269 98.9883 6.79445C99.4039 7.2462 99.928 7.47208 100.542 7.47208C100.994 7.47208 101.392 7.36366 101.735 7.13778C102.078 6.9119 102.34 6.60471 102.521 6.19813H103.352C103.126 6.83059 102.774 7.31848 102.286 7.67085C101.798 8.01418 101.229 8.19488 100.579 8.19488C99.7382 8.19488 99.0245 7.89673 98.4372 7.30041C97.8589 6.70409 97.5698 5.98129 97.5698 5.13199C97.5698 4.27366 97.868 3.54182 98.4553 2.93647C99.0425 2.34015 99.7563 2.04199 100.606 2.04199C101.238 2.04199 101.798 2.21366 102.277 2.55699C102.756 2.90032 103.117 3.37918 103.361 3.99357H102.521V3.98453Z" fill="#820053" stroke="#820053" stroke-width="0.36" stroke-miterlimit="10"/>
<path d="M105.186 1.51783H104.437V0.316162H105.186V1.51783ZM104.437 8.02309V2.19546H105.186V8.02309H104.437Z" fill="#820053" stroke="#820053" stroke-width="0.36" stroke-miterlimit="10"/>
<path d="M106.361 2.19558H107.093V3.14427C107.301 2.81901 107.608 2.55699 108.005 2.35822C108.403 2.15944 108.819 2.06006 109.261 2.06006C110.138 2.06006 110.87 2.34918 111.448 2.93646C112.026 3.52374 112.315 4.25558 112.315 5.13198C112.315 5.99032 112.026 6.71312 111.457 7.29137C110.888 7.87865 110.174 8.16777 109.316 8.16777C108.846 8.16777 108.412 8.07742 108.033 7.89672C107.653 7.71602 107.337 7.44496 107.084 7.10163V7.50821V8.37558V9.91154H106.352V2.19558H106.361ZM107.093 5.07777C107.093 5.74637 107.31 6.31558 107.752 6.7854C108.186 7.25523 108.71 7.49014 109.297 7.49014C109.912 7.49014 110.436 7.26426 110.87 6.82154C111.303 6.37883 111.529 5.82769 111.529 5.17716C111.529 4.49049 111.312 3.92128 110.87 3.4605C110.427 2.99971 109.894 2.76479 109.27 2.76479C108.692 2.76479 108.186 2.99971 107.752 3.4605C107.31 3.92128 107.093 4.45435 107.093 5.07777Z" fill="#820053" stroke="#820053" stroke-width="0.36" stroke-miterlimit="10"/>
<path d="M118.107 7.11067C117.872 7.44496 117.555 7.70698 117.167 7.89672C116.769 8.08646 116.345 8.18584 115.884 8.18584C115.035 8.18584 114.321 7.89672 113.752 7.30944C113.182 6.72216 112.902 5.99935 112.902 5.14102C112.902 4.26462 113.191 3.54181 113.77 2.95453C114.348 2.36725 115.08 2.07812 115.947 2.07812C116.399 2.07812 116.806 2.16848 117.176 2.34918C117.546 2.52988 117.863 2.7919 118.107 3.13523V2.19558H118.838V8.02321H118.107V7.11067ZM118.107 5.07777C118.107 4.45435 117.89 3.92128 117.447 3.46049C117.004 2.9997 116.498 2.76479 115.929 2.76479C115.306 2.76479 114.773 2.9997 114.339 3.46049C113.896 3.92128 113.679 4.49049 113.679 5.17716C113.679 5.82768 113.896 6.37882 114.33 6.82154C114.764 7.2733 115.288 7.49014 115.902 7.49014C116.498 7.49014 117.013 7.25523 117.447 6.7854C117.881 6.30654 118.107 5.73733 118.107 5.07777Z" fill="#820053" stroke="#820053" stroke-width="0.36" stroke-miterlimit="10"/>
<path d="M120.022 8.02309V0.316162H120.772V8.02309H120.022Z" fill="#820053" stroke="#820053" stroke-width="0.36" stroke-miterlimit="10"/>
<path d="M126.202 3.7766H129.446V4.53554H126.202V7.27317H129.446V8.02309H125.434V0.316162H129.446V1.08414H126.202V3.7766Z" fill="#820053" stroke="#820053" stroke-width="0.36" stroke-miterlimit="10"/>
<path d="M135.328 3.11716C135.563 2.78286 135.861 2.52084 136.213 2.34918C136.565 2.17751 136.954 2.08716 137.388 2.08716C138.183 2.08716 138.752 2.32207 139.113 2.80093C139.475 3.27979 139.655 4.03874 139.655 5.09584V8.03225H138.933V4.93321C138.933 4.16523 138.806 3.61409 138.553 3.28883C138.3 2.96356 137.885 2.80093 137.306 2.80093C136.972 2.80093 136.683 2.87321 136.43 3.00874C136.177 3.14427 135.978 3.34304 135.834 3.59602C135.743 3.75865 135.68 3.93032 135.644 4.13813C135.608 4.3369 135.59 4.6983 135.59 5.19523V8.02321H134.885V4.76155C134.885 4.09295 134.749 3.59602 134.478 3.27979C134.207 2.96356 133.792 2.80093 133.231 2.80093C132.888 2.80093 132.599 2.87321 132.337 3.00874C132.084 3.14427 131.876 3.34304 131.732 3.59602C131.641 3.75865 131.578 3.93032 131.542 4.13813C131.506 4.3369 131.488 4.6983 131.488 5.19523V8.02321H130.756V2.19558H131.488V2.86418C131.714 2.60216 131.976 2.41242 132.274 2.2769C132.572 2.14137 132.915 2.07812 133.295 2.07812C133.737 2.07812 134.135 2.16848 134.496 2.35821C134.858 2.54795 135.129 2.80093 135.328 3.11716Z" fill="#820053" stroke="#820053" stroke-width="0.36" stroke-miterlimit="10"/>
<path d="M140.812 2.19558H141.544V3.14427C141.751 2.81901 142.059 2.55699 142.456 2.35822C142.854 2.15944 143.269 2.06006 143.712 2.06006C144.588 2.06006 145.32 2.34918 145.899 2.93646C146.477 3.52374 146.766 4.25558 146.766 5.13198C146.766 5.99032 146.477 6.71312 145.908 7.29137C145.338 7.87865 144.625 8.16777 143.766 8.16777C143.296 8.16777 142.863 8.07742 142.483 7.89672C142.104 7.71602 141.788 7.44496 141.535 7.10163V7.50821V8.37558V9.91154H140.803V2.19558H140.812ZM141.544 5.07777C141.544 5.74637 141.76 6.31558 142.203 6.7854C142.637 7.25523 143.152 7.49014 143.748 7.49014C144.363 7.49014 144.887 7.26426 145.32 6.82154C145.754 6.36979 145.98 5.82769 145.98 5.17716C145.98 4.49049 145.763 3.92128 145.32 3.4605C144.878 2.99971 144.344 2.76479 143.721 2.76479C143.143 2.76479 142.637 2.99971 142.203 3.4605C141.76 3.92128 141.544 4.45435 141.544 5.07777Z" fill="#820053" stroke="#820053" stroke-width="0.36" stroke-miterlimit="10"/>
<path d="M147.661 8.02309V0.316162H148.411V8.02309H147.661Z" fill="#820053" stroke="#820053" stroke-width="0.36" stroke-miterlimit="10"/>
<path d="M149.278 5.12296C149.278 4.26463 149.567 3.53279 150.154 2.92744C150.742 2.32209 151.437 2.01489 152.232 2.01489C153.073 2.01489 153.795 2.31305 154.392 2.90937C154.988 3.50568 155.286 4.21945 155.286 5.05068C155.286 5.91805 154.997 6.65892 154.41 7.27331C153.822 7.8877 153.118 8.19489 152.287 8.19489C151.437 8.19489 150.723 7.89673 150.145 7.29138C149.576 6.68603 149.278 5.96322 149.278 5.12296ZM150.073 5.10489C150.073 5.77349 150.29 6.3427 150.714 6.79445C151.139 7.2462 151.672 7.47208 152.305 7.47208C152.928 7.47208 153.452 7.2462 153.877 6.79445C154.301 6.3427 154.509 5.77349 154.509 5.09585C154.509 4.40919 154.292 3.83998 153.868 3.39726C153.443 2.95454 152.892 2.72866 152.241 2.72866C151.645 2.72866 151.139 2.95454 150.714 3.41533C150.281 3.87612 150.073 4.43629 150.073 5.10489Z" fill="#820053" stroke="#820053" stroke-width="0.36" stroke-miterlimit="10"/>
<path d="M155.385 2.19556H156.235L158.033 6.92994L159.921 2.19556H160.788L157.644 9.92055H156.849L157.626 8.02318L155.385 2.19556Z" fill="#820053" stroke="#820053" stroke-width="0.36" stroke-miterlimit="10"/>
<path d="M166.851 5.3398H161.602C161.647 5.97225 161.873 6.48725 162.288 6.88479C162.704 7.2733 163.219 7.47207 163.833 7.47207C164.267 7.47207 164.665 7.35462 165.017 7.12874C165.36 6.90286 165.631 6.5776 165.821 6.17102H166.67C166.399 6.82155 166.029 7.31848 165.541 7.67085C165.053 8.02321 164.493 8.19488 163.851 8.19488C163.002 8.19488 162.288 7.89672 161.701 7.29137C161.123 6.68602 160.825 5.95418 160.825 5.11392C160.825 4.22848 161.114 3.49664 161.683 2.91839C162.252 2.34015 162.993 2.05103 163.879 2.05103C164.755 2.05103 165.469 2.34918 166.02 2.95453C166.571 3.55988 166.851 4.3369 166.851 5.30365V5.3398ZM166.02 4.6983C165.875 4.05681 165.622 3.56892 165.243 3.24366C164.863 2.91839 164.375 2.75576 163.77 2.75576C163.21 2.75576 162.731 2.92743 162.343 3.2798C161.954 3.63216 161.71 4.10199 161.629 4.6983H166.02Z" fill="#820053" stroke="#820053" stroke-width="0.36" stroke-miterlimit="10"/>
<path d="M173.411 5.3398H168.161C168.206 5.97225 168.432 6.48725 168.848 6.88479C169.264 7.2733 169.779 7.47207 170.393 7.47207C170.827 7.47207 171.224 7.35462 171.568 7.12874C171.92 6.90286 172.191 6.5776 172.381 6.17102H173.23C172.959 6.82155 172.588 7.31848 172.101 7.67085C171.613 8.02321 171.053 8.19488 170.411 8.19488C169.562 8.19488 168.848 7.89672 168.261 7.29137C167.673 6.68602 167.384 5.96322 167.384 5.11392C167.384 4.22848 167.673 3.49664 168.243 2.91839C168.812 2.34015 169.553 2.05103 170.438 2.05103C171.315 2.05103 172.028 2.34918 172.579 2.95453C173.131 3.55988 173.411 4.3369 173.411 5.30365V5.3398ZM172.579 4.6983C172.435 4.05681 172.182 3.56892 171.802 3.24366C171.423 2.91839 170.935 2.75576 170.33 2.75576C169.77 2.75576 169.291 2.92743 168.902 3.2798C168.514 3.63216 168.27 4.10199 168.188 4.6983H172.579Z" fill="#820053" stroke="#820053" stroke-width="0.36" stroke-miterlimit="10"/>
<path d="M173.889 6.18909H174.648V6.20716C174.648 6.56857 174.757 6.87576 174.964 7.11067C175.172 7.34558 175.434 7.47208 175.741 7.47208C176.039 7.47208 176.283 7.38172 176.473 7.20102C176.672 7.02032 176.762 6.78541 176.762 6.50532C176.762 6.22523 176.681 5.99936 176.527 5.83672C176.374 5.66506 176.094 5.51146 175.687 5.35787C175.046 5.13199 174.621 4.89708 174.431 4.65313C174.232 4.40918 174.133 4.09295 174.133 3.68638C174.133 3.23462 174.296 2.84611 174.63 2.52988C174.964 2.21366 175.362 2.05103 175.832 2.05103C176.329 2.05103 176.726 2.19559 177.015 2.47567C177.304 2.75576 177.467 3.15331 177.485 3.65927H176.681C176.663 3.37918 176.573 3.17138 176.419 3.01778C176.265 2.86418 176.049 2.7919 175.777 2.7919C175.534 2.7919 175.335 2.87322 175.172 3.03585C175.01 3.19848 174.928 3.40629 174.928 3.65023C174.928 3.8219 174.964 3.96646 175.028 4.08392C175.091 4.20138 175.208 4.3098 175.362 4.40918C175.506 4.49953 175.705 4.58085 175.976 4.66216C176.247 4.74348 176.428 4.80673 176.518 4.84287C176.88 4.99646 177.151 5.20427 177.322 5.46629C177.494 5.7283 177.585 6.05357 177.585 6.45111C177.585 6.94804 177.413 7.36365 177.06 7.69795C176.708 8.02322 176.265 8.18585 175.732 8.18585C175.181 8.18585 174.747 8.00514 174.413 7.64374C174.079 7.28234 173.907 6.80348 173.889 6.18909Z" fill="#820053" stroke="#820053" stroke-width="0.36" stroke-miterlimit="10"/>
<path d="M80.3671 16.6967C80.0237 16.2179 79.6352 15.8655 79.2106 15.6396C78.7859 15.4138 78.2981 15.2963 77.7469 15.2963C76.8886 15.2963 76.1567 15.6125 75.5514 16.254C74.946 16.8865 74.6388 17.6454 74.6388 18.5218C74.6388 19.4524 74.937 20.2385 75.5424 20.88C76.1477 21.5215 76.8795 21.8377 77.7469 21.8377C78.28 21.8377 78.7588 21.7293 79.1925 21.5034C79.6262 21.2775 79.9966 20.9523 80.3129 20.5095H81.2164C80.864 21.1691 80.3942 21.6751 79.7979 22.0365C79.2016 22.3979 78.542 22.5786 77.8011 22.5786C76.6717 22.5786 75.7231 22.1901 74.9641 21.4221C74.2052 20.6451 73.8257 19.6783 73.8257 18.5218C73.8257 17.9797 73.9251 17.4738 74.1329 16.9859C74.3407 16.498 74.6388 16.0643 75.0364 15.6758C75.4068 15.3053 75.8134 15.0343 76.2742 14.8445C76.735 14.6548 77.2229 14.5645 77.7559 14.5645C78.5239 14.5645 79.2106 14.7542 79.825 15.1246C80.4394 15.4951 80.9182 16.0281 81.2796 16.7058H80.3671V16.6967Z" fill="#820053" stroke="#820053" stroke-width="0.36" stroke-miterlimit="10"/>
<path d="M82.9872 22.416H82.2192V16.5884H82.924V17.257C83.1047 17.004 83.3035 16.8143 83.5203 16.6968C83.7371 16.5794 83.9901 16.5161 84.2792 16.5071L84.2883 17.3112C83.8184 17.3564 83.4842 17.4919 83.2854 17.7359C83.0866 17.9708 82.9872 18.3593 82.9872 18.9014V22.416Z" fill="#820053" stroke="#820053" stroke-width="0.36" stroke-miterlimit="10"/>
<path d="M90.6221 19.7326H85.3727C85.4179 20.3651 85.6438 20.8801 86.0594 21.2776C86.475 21.6661 86.99 21.8649 87.6044 21.8649C88.0381 21.8649 88.4356 21.7474 88.788 21.5216C89.1404 21.2957 89.4024 20.9704 89.6011 20.5638H90.4504C90.1794 21.2144 89.809 21.7113 89.3211 22.0637C88.8241 22.407 88.264 22.5877 87.6225 22.5877C86.7732 22.5877 86.0594 22.2895 85.4721 21.6842C84.8848 21.0788 84.5957 20.356 84.5957 19.5067C84.5957 18.6213 84.8848 17.8895 85.454 17.3112C86.0233 16.733 86.7641 16.4438 87.6496 16.4438C88.526 16.4438 89.2397 16.742 89.7909 17.3474C90.342 17.9527 90.6221 18.7297 90.6221 19.6965V19.7326ZM89.7909 19.0821C89.6463 18.4406 89.3933 17.9527 89.0139 17.6274C88.6344 17.3022 88.1465 17.1395 87.5411 17.1395C86.981 17.1395 86.5021 17.3112 86.1136 17.6636C85.7251 18.016 85.4811 18.4858 85.3998 19.0821H89.7909Z" fill="#820053" stroke="#820053" stroke-width="0.36" stroke-miterlimit="10"/>
<path d="M96.3409 17.5008V16.2088V14.709H97.0908V22.4159H96.3409V21.5395C96.0789 21.8648 95.7536 22.1177 95.3651 22.2984C94.9766 22.4791 94.561 22.5695 94.1273 22.5695C93.2871 22.5695 92.5823 22.2713 92.0041 21.675C91.4258 21.0787 91.1367 20.3559 91.1367 19.4885C91.1367 18.6302 91.4168 17.9164 91.986 17.3292C92.5552 16.7419 93.269 16.4528 94.1183 16.4528C94.5791 16.4528 94.9947 16.5431 95.3742 16.7238C95.7627 16.9045 96.0789 17.1665 96.3409 17.5008ZM96.368 19.5608C96.368 18.8922 96.1512 18.332 95.7085 17.8532C95.2658 17.3834 94.7508 17.1485 94.1635 17.1485C93.5491 17.1485 93.0251 17.3743 92.5823 17.817C92.1486 18.2688 91.9228 18.8109 91.9228 19.4614C91.9228 20.1481 92.1396 20.7173 92.5823 21.1781C93.0251 21.6389 93.5491 21.8738 94.1815 21.8738C94.7598 21.8738 95.2658 21.6389 95.7085 21.1781C96.1422 20.7173 96.368 20.1752 96.368 19.5608Z" fill="#820053" stroke="#820053" stroke-width="0.36" stroke-miterlimit="10"/>
<path d="M99.0063 15.9107H98.2563V14.709H99.0063V15.9107ZM98.2654 22.4159V16.5883H99.0153V22.4159H98.2654Z" fill="#820053" stroke="#820053" stroke-width="0.36" stroke-miterlimit="10"/>
<path d="M100.687 22.4159V17.3292H99.5845V16.5792H100.687V14.7H101.437V16.5792H102.539V17.3292H101.437V22.4159H100.687Z" fill="#820053" stroke="#820053" stroke-width="0.36" stroke-miterlimit="10"/>
<path d="M106.442 14.709H107.201V19.5879C107.201 19.9674 107.219 20.2475 107.247 20.4372C107.274 20.627 107.328 20.7896 107.4 20.9342C107.536 21.2233 107.734 21.4582 108.005 21.6208C108.267 21.7834 108.575 21.8738 108.909 21.8738C109.487 21.8738 109.921 21.675 110.192 21.2775C110.472 20.8799 110.608 20.2656 110.608 19.4343V14.718H111.357V19.6241C111.357 20.627 111.159 21.3678 110.761 21.8648C110.364 22.3527 109.758 22.6056 108.954 22.6056C108.087 22.6056 107.454 22.3617 107.048 21.8828C106.641 21.404 106.442 20.6541 106.442 19.6331V14.709Z" fill="#820053" stroke="#820053" stroke-width="0.36" stroke-miterlimit="10"/>
<path d="M112.541 16.5884H113.264V17.257C113.49 16.9859 113.761 16.7962 114.059 16.6697C114.357 16.5432 114.709 16.48 115.098 16.48C115.523 16.48 115.911 16.5613 116.245 16.7149C116.58 16.8775 116.842 17.1034 117.04 17.4016C117.176 17.6094 117.266 17.8533 117.33 18.1334C117.384 18.4135 117.42 18.8291 117.42 19.3802V22.4251H116.688V19.1544C116.688 18.4677 116.553 17.9708 116.291 17.6545C116.029 17.3474 115.604 17.1847 115.026 17.1847C114.682 17.1847 114.384 17.257 114.131 17.3925C113.878 17.5281 113.67 17.7268 113.526 17.9798C113.435 18.1424 113.372 18.3231 113.336 18.5219C113.3 18.7207 113.282 19.0821 113.282 19.579V22.407H112.559V16.5884H112.541Z" fill="#820053" stroke="#820053" stroke-width="0.36" stroke-miterlimit="10"/>
<path d="M119.326 15.9107H118.576V14.709H119.326V15.9107ZM118.576 22.4159V16.5883H119.326V22.4159H118.576Z" fill="#820053" stroke="#820053" stroke-width="0.36" stroke-miterlimit="10"/>
<path d="M120.185 19.5068C120.185 18.6484 120.474 17.9166 121.061 17.3112C121.648 16.7059 122.344 16.3987 123.139 16.3987C123.979 16.3987 124.702 16.6968 125.298 17.2932C125.895 17.8895 126.193 18.6032 126.193 19.4345C126.193 20.3018 125.904 21.0427 125.316 21.6571C124.729 22.2715 124.024 22.5787 123.193 22.5787C122.344 22.5787 121.63 22.2805 121.052 21.6752C120.474 21.0698 120.185 20.356 120.185 19.5068ZM120.971 19.4977C120.971 20.1663 121.187 20.7355 121.612 21.1873C122.037 21.639 122.57 21.8649 123.202 21.8649C123.826 21.8649 124.35 21.639 124.774 21.1873C125.199 20.7355 125.407 20.1663 125.407 19.4887C125.407 18.802 125.19 18.2328 124.765 17.7901C124.341 17.3474 123.79 17.1215 123.139 17.1215C122.543 17.1215 122.037 17.3474 121.612 17.8082C121.187 18.2599 120.971 18.8201 120.971 19.4977Z" fill="#820053" stroke="#820053" stroke-width="0.36" stroke-miterlimit="10"/>
<path d="M127.033 16.5884H127.756V17.257C127.982 16.9859 128.253 16.7962 128.551 16.6697C128.849 16.5432 129.202 16.48 129.59 16.48C130.015 16.48 130.403 16.5613 130.738 16.7149C131.072 16.8775 131.334 17.1034 131.533 17.4016C131.668 17.6094 131.759 17.8533 131.822 18.1334C131.876 18.4135 131.912 18.8291 131.912 19.3802V22.4251H131.18V19.1544C131.18 18.4677 131.045 17.9708 130.783 17.6545C130.521 17.3474 130.096 17.1847 129.518 17.1847C129.175 17.1847 128.876 17.257 128.623 17.3925C128.37 17.5281 128.163 17.7268 128.018 17.9798C127.928 18.1424 127.864 18.3231 127.828 18.5219C127.792 18.7207 127.774 19.0821 127.774 19.579V22.407H127.051V16.5884H127.033Z" fill="#820053" stroke="#820053" stroke-width="0.36" stroke-miterlimit="10"/>
<path fill-rule="evenodd" clip-rule="evenodd" d="M0 12.9563H10.8421V23.7984H0V12.9563Z" fill="#E86D1F"/>
<path d="M24.6204 12.9563H13.7783V23.7984H24.6204V12.9563Z" fill="#DBC500"/>
<path d="M37.9476 12.9563H27.1055V23.7984H37.9476V12.9563Z" fill="#EEB111"/>
<path d="M51.7259 12.9563H40.8838V23.7984H51.7259V12.9563Z" fill="#B66612"/>
<path d="M65.0526 12.9563H54.2104V23.7984H65.0526V12.9563Z" fill="#820053"/>
<path d="M206 13.5073H195.158V24.3494H206V13.5073Z" fill="#E86D1F"/>
<path d="M192.222 13.5073H181.379V24.3494H192.222V13.5073Z" fill="#DBC500"/>
<path d="M178.895 13.5073H168.053V24.3494H178.895V13.5073Z" fill="#EEB111"/>
<path d="M165.117 13.5073H154.274V24.3494H165.117V13.5073Z" fill="#B66612"/>
<path d="M151.789 13.5073H140.947V24.3494H151.789V13.5073Z" fill="#820053"/>
</g>
<defs>
<clipPath id="clip0_167_943">
<rect width="206" height="24.3496" fill="white"/>
</clipPath>
</defs>
</svg>
