<svg width="239" height="189" viewBox="0 0 239 189" fill="none" xmlns="http://www.w3.org/2000/svg">
<g filter="url(#filter0_d_407_1699)">
<rect x="30.9434" y="18.4546" width="177.878" height="128.332" rx="16" fill="white"/>
</g>
<path d="M51.964 41.974C52.3187 42.03 52.6407 42.1747 52.93 42.408C53.2287 42.6413 53.462 42.9307 53.63 43.276C53.8073 43.6213 53.896 43.99 53.896 44.382C53.896 44.8767 53.77 45.3247 53.518 45.726C53.266 46.118 52.8973 46.4307 52.412 46.664C51.936 46.888 51.3713 47 50.718 47H47.078V37.242H50.578C51.2407 37.242 51.8053 37.354 52.272 37.578C52.7387 37.7927 53.0887 38.0867 53.322 38.46C53.5553 38.8333 53.672 39.2533 53.672 39.72C53.672 40.2987 53.5133 40.7793 53.196 41.162C52.888 41.5353 52.4773 41.806 51.964 41.974ZM48.352 41.456H50.494C51.0913 41.456 51.5533 41.316 51.88 41.036C52.2067 40.756 52.37 40.3687 52.37 39.874C52.37 39.3793 52.2067 38.992 51.88 38.712C51.5533 38.432 51.082 38.292 50.466 38.292H48.352V41.456ZM50.606 45.95C51.2407 45.95 51.7353 45.8007 52.09 45.502C52.4447 45.2033 52.622 44.788 52.622 44.256C52.622 43.7147 52.4353 43.29 52.062 42.982C51.6887 42.6647 51.1893 42.506 50.564 42.506H48.352V45.95H50.606ZM62.4679 39.328V47H61.1939V45.866C60.9513 46.258 60.6106 46.566 60.1719 46.79C59.7426 47.0047 59.2666 47.112 58.7439 47.112C58.1466 47.112 57.6099 46.9907 57.1339 46.748C56.6579 46.496 56.2799 46.1227 55.9999 45.628C55.7293 45.1333 55.5939 44.5313 55.5939 43.822V39.328H56.8539V43.654C56.8539 44.41 57.0453 44.9933 57.4279 45.404C57.8106 45.8053 58.3333 46.006 58.9959 46.006C59.6773 46.006 60.2139 45.796 60.6059 45.376C60.9979 44.956 61.1939 44.3447 61.1939 43.542V39.328H62.4679ZM67.335 47.126C66.747 47.126 66.2197 47.028 65.753 46.832C65.2863 46.6267 64.9177 46.3467 64.647 45.992C64.3763 45.628 64.227 45.2127 64.199 44.746H65.515C65.5523 45.1287 65.7297 45.4413 66.047 45.684C66.3737 45.9267 66.7983 46.048 67.321 46.048C67.8063 46.048 68.189 45.9407 68.469 45.726C68.749 45.5113 68.889 45.2407 68.889 44.914C68.889 44.578 68.7397 44.3307 68.441 44.172C68.1423 44.004 67.6803 43.8407 67.055 43.682C66.4857 43.5327 66.019 43.3833 65.655 43.234C65.3003 43.0753 64.9923 42.8467 64.731 42.548C64.479 42.24 64.353 41.8387 64.353 41.344C64.353 40.952 64.4697 40.5927 64.703 40.266C64.9363 39.9393 65.2677 39.6827 65.697 39.496C66.1263 39.3 66.6163 39.202 67.167 39.202C68.0163 39.202 68.7023 39.4167 69.225 39.846C69.7477 40.2753 70.0277 40.8633 70.065 41.61H68.791C68.763 41.2087 68.5997 40.8867 68.301 40.644C68.0117 40.4013 67.6197 40.28 67.125 40.28C66.6677 40.28 66.3037 40.378 66.033 40.574C65.7623 40.77 65.627 41.0267 65.627 41.344C65.627 41.596 65.7063 41.806 65.865 41.974C66.033 42.1327 66.2383 42.2633 66.481 42.366C66.733 42.4593 67.0783 42.5667 67.517 42.688C68.0677 42.8373 68.5157 42.9867 68.861 43.136C69.2063 43.276 69.5003 43.4907 69.743 43.78C69.995 44.0693 70.1257 44.4473 70.135 44.914C70.135 45.334 70.0183 45.712 69.785 46.048C69.5517 46.384 69.2203 46.65 68.791 46.846C68.371 47.0327 67.8857 47.126 67.335 47.126ZM72.5915 38.082C72.3488 38.082 72.1435 37.998 71.9755 37.83C71.8075 37.662 71.7235 37.4567 71.7235 37.214C71.7235 36.9713 71.8075 36.766 71.9755 36.598C72.1435 36.43 72.3488 36.346 72.5915 36.346C72.8248 36.346 73.0208 36.43 73.1795 36.598C73.3475 36.766 73.4315 36.9713 73.4315 37.214C73.4315 37.4567 73.3475 37.662 73.1795 37.83C73.0208 37.998 72.8248 38.082 72.5915 38.082ZM73.2075 39.328V47H71.9335V39.328H73.2075ZM79.1168 39.188C80.0501 39.188 80.8061 39.4727 81.3848 40.042C81.9634 40.602 82.2528 41.414 82.2528 42.478V47H80.9928V42.66C80.9928 41.8947 80.8014 41.3113 80.4188 40.91C80.0361 40.4993 79.5134 40.294 78.8508 40.294C78.1788 40.294 77.6421 40.504 77.2408 40.924C76.8488 41.344 76.6528 41.9553 76.6528 42.758V47H75.3788V39.328H76.6528V40.42C76.9048 40.028 77.2454 39.7247 77.6748 39.51C78.1134 39.2953 78.5941 39.188 79.1168 39.188ZM91.3339 42.87C91.3339 43.1127 91.3199 43.3693 91.2919 43.64H85.1599C85.2065 44.396 85.4632 44.9887 85.9299 45.418C86.4059 45.838 86.9799 46.048 87.6519 46.048C88.2025 46.048 88.6599 45.922 89.0239 45.67C89.3972 45.4087 89.6585 45.0633 89.8079 44.634H91.1799C90.9745 45.3713 90.5639 45.9733 89.9479 46.44C89.3319 46.8973 88.5665 47.126 87.6519 47.126C86.9239 47.126 86.2705 46.9627 85.6919 46.636C85.1225 46.3093 84.6745 45.8473 84.3479 45.25C84.0212 44.6433 83.8579 43.9433 83.8579 43.15C83.8579 42.3567 84.0165 41.6613 84.3339 41.064C84.6512 40.4667 85.0945 40.0093 85.6639 39.692C86.2425 39.3653 86.9052 39.202 87.6519 39.202C88.3799 39.202 89.0239 39.3607 89.5839 39.678C90.1439 39.9953 90.5732 40.434 90.8719 40.994C91.1799 41.5447 91.3339 42.17 91.3339 42.87ZM90.0179 42.604C90.0179 42.1187 89.9105 41.7033 89.6959 41.358C89.4812 41.0033 89.1872 40.7373 88.8139 40.56C88.4499 40.3733 88.0439 40.28 87.5959 40.28C86.9519 40.28 86.4012 40.4853 85.9439 40.896C85.4959 41.3067 85.2392 41.876 85.1739 42.604H90.0179ZM95.7315 47.126C95.1435 47.126 94.6162 47.028 94.1495 46.832C93.6828 46.6267 93.3142 46.3467 93.0435 45.992C92.7728 45.628 92.6235 45.2127 92.5955 44.746H93.9115C93.9488 45.1287 94.1262 45.4413 94.4435 45.684C94.7702 45.9267 95.1948 46.048 95.7175 46.048C96.2028 46.048 96.5855 45.9407 96.8655 45.726C97.1455 45.5113 97.2855 45.2407 97.2855 44.914C97.2855 44.578 97.1362 44.3307 96.8375 44.172C96.5388 44.004 96.0768 43.8407 95.4515 43.682C94.8822 43.5327 94.4155 43.3833 94.0515 43.234C93.6968 43.0753 93.3888 42.8467 93.1275 42.548C92.8755 42.24 92.7495 41.8387 92.7495 41.344C92.7495 40.952 92.8662 40.5927 93.0995 40.266C93.3328 39.9393 93.6642 39.6827 94.0935 39.496C94.5228 39.3 95.0128 39.202 95.5635 39.202C96.4128 39.202 97.0988 39.4167 97.6215 39.846C98.1442 40.2753 98.4242 40.8633 98.4615 41.61H97.1875C97.1595 41.2087 96.9962 40.8867 96.6975 40.644C96.4082 40.4013 96.0162 40.28 95.5215 40.28C95.0642 40.28 94.7002 40.378 94.4295 40.574C94.1588 40.77 94.0235 41.0267 94.0235 41.344C94.0235 41.596 94.1028 41.806 94.2615 41.974C94.4295 42.1327 94.6348 42.2633 94.8775 42.366C95.1295 42.4593 95.4748 42.5667 95.9135 42.688C96.4642 42.8373 96.9122 42.9867 97.2575 43.136C97.6028 43.276 97.8968 43.4907 98.1395 43.78C98.3915 44.0693 98.5222 44.4473 98.5315 44.914C98.5315 45.334 98.4148 45.712 98.1815 46.048C97.9482 46.384 97.6168 46.65 97.1875 46.846C96.7675 47.0327 96.2822 47.126 95.7315 47.126ZM103.046 47.126C102.458 47.126 101.931 47.028 101.464 46.832C100.997 46.6267 100.629 46.3467 100.358 45.992C100.087 45.628 99.938 45.2127 99.91 44.746H101.226C101.263 45.1287 101.441 45.4413 101.758 45.684C102.085 45.9267 102.509 46.048 103.032 46.048C103.517 46.048 103.9 45.9407 104.18 45.726C104.46 45.5113 104.6 45.2407 104.6 44.914C104.6 44.578 104.451 44.3307 104.152 44.172C103.853 44.004 103.391 43.8407 102.766 43.682C102.197 43.5327 101.73 43.3833 101.366 43.234C101.011 43.0753 100.703 42.8467 100.442 42.548C100.19 42.24 100.064 41.8387 100.064 41.344C100.064 40.952 100.181 40.5927 100.414 40.266C100.647 39.9393 100.979 39.6827 101.408 39.496C101.837 39.3 102.327 39.202 102.878 39.202C103.727 39.202 104.413 39.4167 104.936 39.846C105.459 40.2753 105.739 40.8633 105.776 41.61H104.502C104.474 41.2087 104.311 40.8867 104.012 40.644C103.723 40.4013 103.331 40.28 102.836 40.28C102.379 40.28 102.015 40.378 101.744 40.574C101.473 40.77 101.338 41.0267 101.338 41.344C101.338 41.596 101.417 41.806 101.576 41.974C101.744 42.1327 101.949 42.2633 102.192 42.366C102.444 42.4593 102.789 42.5667 103.228 42.688C103.779 42.8373 104.227 42.9867 104.572 43.136C104.917 43.276 105.211 43.4907 105.454 43.78C105.706 44.0693 105.837 44.4473 105.846 44.914C105.846 45.334 105.729 45.712 105.496 46.048C105.263 46.384 104.931 46.65 104.502 46.846C104.082 47.0327 103.597 47.126 103.046 47.126ZM116.893 37.242V38.278H112.651V41.568H116.095V42.604H112.651V47H111.377V37.242H116.893ZM119.706 36.64V47H118.432V36.64H119.706ZM125.223 47.126C124.504 47.126 123.851 46.9627 123.263 46.636C122.684 46.3093 122.227 45.8473 121.891 45.25C121.564 44.6433 121.401 43.9433 121.401 43.15C121.401 42.366 121.569 41.6753 121.905 41.078C122.25 40.4713 122.717 40.0093 123.305 39.692C123.893 39.3653 124.551 39.202 125.279 39.202C126.007 39.202 126.665 39.3653 127.253 39.692C127.841 40.0093 128.303 40.4667 128.639 41.064C128.984 41.6613 129.157 42.3567 129.157 43.15C129.157 43.9433 128.979 44.6433 128.625 45.25C128.279 45.8473 127.808 46.3093 127.211 46.636C126.613 46.9627 125.951 47.126 125.223 47.126ZM125.223 46.006C125.68 46.006 126.109 45.8987 126.511 45.684C126.912 45.4693 127.234 45.1473 127.477 44.718C127.729 44.2887 127.855 43.766 127.855 43.15C127.855 42.534 127.733 42.0113 127.491 41.582C127.248 41.1527 126.931 40.8353 126.539 40.63C126.147 40.4153 125.722 40.308 125.265 40.308C124.798 40.308 124.369 40.4153 123.977 40.63C123.594 40.8353 123.286 41.1527 123.053 41.582C122.819 42.0113 122.703 42.534 122.703 43.15C122.703 43.7753 122.815 44.3027 123.039 44.732C123.272 45.1613 123.58 45.4833 123.963 45.698C124.345 45.9033 124.765 46.006 125.223 46.006ZM141.052 39.328L138.658 47H137.342L135.494 40.91L133.646 47H132.33L129.922 39.328H131.224L132.988 45.768L134.892 39.328H136.194L138.056 45.782L139.792 39.328H141.052Z" fill="black"/>
<path d="M87.7998 98.3059C87.7998 92.7831 92.277 88.3059 97.7998 88.3059H100.542C106.065 88.3059 110.542 92.7831 110.542 98.3059V132.166H87.7998V98.3059Z" fill="#D9E7FF"/>
<path d="M124.351 69.8779C124.351 64.3551 128.828 59.8779 134.351 59.8779H137.093C142.616 59.8779 147.093 64.3551 147.093 69.8779V132.166H124.351V69.8779Z" fill="#146BFF"/>
<path d="M160.088 85.3103C160.088 79.7875 164.565 75.3103 170.088 75.3103H172.83C178.353 75.3103 182.83 79.7875 182.83 85.3103V132.166H160.088V85.3103Z" fill="#9FC3FF"/>
<defs>
<filter id="filter0_d_407_1699" x="0.943359" y="0.45459" width="237.877" height="188.332" filterUnits="userSpaceOnUse" color-interpolation-filters="sRGB">
<feFlood flood-opacity="0" result="BackgroundImageFix"/>
<feColorMatrix in="SourceAlpha" type="matrix" values="0 0 0 0 0 0 0 0 0 0 0 0 0 0 0 0 0 0 127 0" result="hardAlpha"/>
<feOffset dy="12"/>
<feGaussianBlur stdDeviation="15"/>
<feComposite in2="hardAlpha" operator="out"/>
<feColorMatrix type="matrix" values="0 0 0 0 0.00784314 0 0 0 0 0.654902 0 0 0 0 0.913725 0 0 0 0.14 0"/>
<feBlend mode="normal" in2="BackgroundImageFix" result="effect1_dropShadow_407_1699"/>
<feBlend mode="normal" in="SourceGraphic" in2="effect1_dropShadow_407_1699" result="shape"/>
</filter>
</defs>
</svg>
