<svg width="306" height="191" viewBox="0 0 306 191" fill="none" xmlns="http://www.w3.org/2000/svg">
<g filter="url(#filter0_d_407_1689)">
<rect x="40" y="40.5371" width="225.799" height="110.463" rx="16" fill="white"/>
</g>
<rect x="189.5" y="58.5" width="59" height="24" rx="12" fill="#A2FFB0" stroke="#23AA62"/>
<path d="M207.418 67.96V67.047H209.486V75H208.474V67.96H207.418ZM216.276 67.916H212.415V70.424C212.584 70.1893 212.833 69.9987 213.163 69.852C213.493 69.698 213.849 69.621 214.23 69.621C214.839 69.621 215.334 69.7493 215.715 70.006C216.097 70.2553 216.368 70.5817 216.529 70.985C216.698 71.381 216.782 71.8027 216.782 72.25C216.782 72.778 216.683 73.251 216.485 73.669C216.287 74.087 215.983 74.417 215.572 74.659C215.169 74.901 214.667 75.022 214.065 75.022C213.295 75.022 212.672 74.824 212.195 74.428C211.719 74.032 211.429 73.504 211.326 72.844H212.305C212.401 73.262 212.602 73.5883 212.91 73.823C213.218 74.0577 213.607 74.175 214.076 74.175C214.656 74.175 215.092 74.0027 215.385 73.658C215.679 73.306 215.825 72.844 215.825 72.272C215.825 71.7 215.679 71.26 215.385 70.952C215.092 70.6367 214.659 70.479 214.087 70.479C213.699 70.479 213.358 70.5743 213.064 70.765C212.778 70.9483 212.569 71.2013 212.437 71.524H211.491V67.036H216.276V67.916ZM218.597 75.066C218.406 75.066 218.245 75 218.113 74.868C217.981 74.736 217.915 74.5747 217.915 74.384C217.915 74.1933 217.981 74.032 218.113 73.9C218.245 73.768 218.406 73.702 218.597 73.702C218.78 73.702 218.934 73.768 219.059 73.9C219.191 74.032 219.257 74.1933 219.257 74.384C219.257 74.5747 219.191 74.736 219.059 74.868C218.934 75 218.78 75.066 218.597 75.066ZM220.4 69.049C220.452 68.3743 220.712 67.8463 221.181 67.465C221.651 67.0837 222.259 66.893 223.007 66.893C223.506 66.893 223.935 66.9847 224.294 67.168C224.661 67.344 224.936 67.586 225.119 67.894C225.31 68.202 225.405 68.5503 225.405 68.939C225.405 69.3937 225.273 69.786 225.009 70.116C224.753 70.446 224.415 70.6587 223.997 70.754V70.809C224.474 70.9263 224.852 71.1573 225.13 71.502C225.409 71.8467 225.548 72.2977 225.548 72.855C225.548 73.273 225.453 73.6507 225.262 73.988C225.072 74.318 224.786 74.5783 224.404 74.769C224.023 74.9597 223.565 75.055 223.029 75.055C222.252 75.055 221.614 74.8533 221.115 74.45C220.617 74.0393 220.338 73.46 220.279 72.712H221.247C221.299 73.152 221.478 73.5113 221.786 73.79C222.094 74.0687 222.505 74.208 223.018 74.208C223.532 74.208 223.92 74.076 224.184 73.812C224.456 73.5407 224.591 73.1923 224.591 72.767C224.591 72.217 224.408 71.821 224.041 71.579C223.675 71.337 223.121 71.216 222.38 71.216H222.127V70.38H222.391C223.066 70.3727 223.576 70.2627 223.92 70.05C224.265 69.83 224.437 69.4927 224.437 69.038C224.437 68.6493 224.309 68.3377 224.052 68.103C223.803 67.8683 223.444 67.751 222.974 67.751C222.52 67.751 222.153 67.8683 221.874 68.103C221.596 68.3377 221.431 68.653 221.379 69.049H220.4ZM226.658 73.229V72.47L230.519 67.124H231.718V72.36H232.818V73.229H231.718V75H230.728V73.229H226.658ZM230.772 68.169L227.813 72.36H230.772V68.169ZM233.598 68.84C233.598 68.3413 233.748 67.9453 234.049 67.652C234.349 67.3513 234.734 67.201 235.204 67.201C235.673 67.201 236.058 67.3513 236.359 67.652C236.659 67.9453 236.81 68.3413 236.81 68.84C236.81 69.346 236.659 69.7493 236.359 70.05C236.058 70.3433 235.673 70.49 235.204 70.49C234.734 70.49 234.349 70.3433 234.049 70.05C233.748 69.7493 233.598 69.346 233.598 68.84ZM240.022 67.322L235.567 75H234.577L239.032 67.322H240.022ZM235.204 67.817C234.954 67.817 234.756 67.905 234.61 68.081C234.47 68.2497 234.401 68.5027 234.401 68.84C234.401 69.1773 234.47 69.434 234.61 69.61C234.756 69.786 234.954 69.874 235.204 69.874C235.453 69.874 235.651 69.786 235.798 69.61C235.944 69.4267 236.018 69.17 236.018 68.84C236.018 68.5027 235.944 68.2497 235.798 68.081C235.651 67.905 235.453 67.817 235.204 67.817ZM237.811 73.482C237.811 72.976 237.961 72.5763 238.262 72.283C238.562 71.9823 238.947 71.832 239.417 71.832C239.886 71.832 240.267 71.9823 240.561 72.283C240.861 72.5763 241.012 72.976 241.012 73.482C241.012 73.9807 240.861 74.3803 240.561 74.681C240.267 74.9817 239.886 75.132 239.417 75.132C238.947 75.132 238.562 74.9853 238.262 74.692C237.961 74.3913 237.811 73.988 237.811 73.482ZM239.406 72.459C239.156 72.459 238.958 72.547 238.812 72.723C238.665 72.8917 238.592 73.1447 238.592 73.482C238.592 73.812 238.665 74.065 238.812 74.241C238.958 74.4097 239.156 74.494 239.406 74.494C239.655 74.494 239.853 74.4097 240 74.241C240.146 74.065 240.22 73.812 240.22 73.482C240.22 73.1447 240.146 72.8917 240 72.723C239.853 72.547 239.655 72.459 239.406 72.459Z" fill="#007C3A"/>
<path d="M204.368 66.9871C204.327 66.714 204.072 66.5257 203.799 66.5665L199.349 67.2322C199.075 67.2731 198.887 67.5276 198.928 67.8007C198.969 68.0738 199.223 68.2621 199.497 68.2212L203.453 67.6295L204.044 71.5855C204.085 71.8586 204.34 72.0469 204.613 72.006C204.886 71.9652 205.074 71.7107 205.033 71.4376L204.368 66.9871ZM203.471 66.7637L197.598 74.7026L198.402 75.2974L204.275 67.3584L203.471 66.7637Z" fill="#007C3A"/>
<path d="M71.2127 72.0485H66.9567L66.1727 74.2185H64.8287L68.3567 64.5165H69.8267L73.3407 74.2185H71.9967L71.2127 72.0485ZM70.8487 71.0125L69.0847 66.0845L67.3207 71.0125H70.8487ZM76.1523 67.9605C76.4043 67.5218 76.7776 67.1578 77.2723 66.8685C77.7763 66.5698 78.3596 66.4205 79.0223 66.4205C79.7036 66.4205 80.3196 66.5838 80.8703 66.9105C81.4303 67.2372 81.869 67.6992 82.1863 68.2965C82.5036 68.8845 82.6623 69.5705 82.6623 70.3545C82.6623 71.1292 82.5036 71.8198 82.1863 72.4265C81.869 73.0332 81.4303 73.5045 80.8703 73.8405C80.3196 74.1765 79.7036 74.3445 79.0223 74.3445C78.369 74.3445 77.7903 74.1998 77.2863 73.9105C76.7916 73.6118 76.4136 73.2432 76.1523 72.8045V77.8585H74.8783V66.5465H76.1523V67.9605ZM81.3603 70.3545C81.3603 69.7758 81.2436 69.2718 81.0103 68.8425C80.777 68.4132 80.4596 68.0865 80.0583 67.8625C79.6663 67.6385 79.2323 67.5265 78.7563 67.5265C78.2896 67.5265 77.8556 67.6432 77.4543 67.8765C77.0623 68.1005 76.745 68.4318 76.5023 68.8705C76.269 69.2998 76.1523 69.7992 76.1523 70.3685C76.1523 70.9472 76.269 71.4558 76.5023 71.8945C76.745 72.3238 77.0623 72.6552 77.4543 72.8885C77.8556 73.1125 78.2896 73.2245 78.7563 73.2245C79.2323 73.2245 79.6663 73.1125 80.0583 72.8885C80.4596 72.6552 80.777 72.3238 81.0103 71.8945C81.2436 71.4558 81.3603 70.9425 81.3603 70.3545ZM85.6132 67.9605C85.8652 67.5218 86.2386 67.1578 86.7332 66.8685C87.2372 66.5698 87.8206 66.4205 88.4832 66.4205C89.1646 66.4205 89.7806 66.5838 90.3312 66.9105C90.8912 67.2372 91.3299 67.6992 91.6472 68.2965C91.9646 68.8845 92.1232 69.5705 92.1232 70.3545C92.1232 71.1292 91.9646 71.8198 91.6472 72.4265C91.3299 73.0332 90.8912 73.5045 90.3312 73.8405C89.7806 74.1765 89.1646 74.3445 88.4832 74.3445C87.8299 74.3445 87.2512 74.1998 86.7472 73.9105C86.2526 73.6118 85.8746 73.2432 85.6132 72.8045V77.8585H84.3392V66.5465H85.6132V67.9605ZM90.8212 70.3545C90.8212 69.7758 90.7046 69.2718 90.4712 68.8425C90.2379 68.4132 89.9206 68.0865 89.5192 67.8625C89.1272 67.6385 88.6932 67.5265 88.2172 67.5265C87.7506 67.5265 87.3166 67.6432 86.9152 67.8765C86.5232 68.1005 86.2059 68.4318 85.9632 68.8705C85.7299 69.2998 85.6132 69.7992 85.6132 70.3685C85.6132 70.9472 85.7299 71.4558 85.9632 71.8945C86.2059 72.3238 86.5232 72.6552 86.9152 72.8885C87.3166 73.1125 87.7506 73.2245 88.2172 73.2245C88.6932 73.2245 89.1272 73.1125 89.5192 72.8885C89.9206 72.6552 90.2379 72.3238 90.4712 71.8945C90.7046 71.4558 90.8212 70.9425 90.8212 70.3545ZM95.0742 63.8585V74.2185H93.8002V63.8585H95.0742ZM97.9035 65.3005C97.6608 65.3005 97.4555 65.2165 97.2875 65.0485C97.1195 64.8805 97.0355 64.6752 97.0355 64.4325C97.0355 64.1898 97.1195 63.9845 97.2875 63.8165C97.4555 63.6485 97.6608 63.5645 97.9035 63.5645C98.1368 63.5645 98.3328 63.6485 98.4915 63.8165C98.6595 63.9845 98.7435 64.1898 98.7435 64.4325C98.7435 64.6752 98.6595 64.8805 98.4915 65.0485C98.3328 65.2165 98.1368 65.3005 97.9035 65.3005ZM98.5195 66.5465V74.2185H97.2455V66.5465H98.5195ZM100.215 70.3685C100.215 69.5752 100.373 68.8845 100.691 68.2965C101.008 67.6992 101.447 67.2372 102.007 66.9105C102.576 66.5838 103.225 66.4205 103.953 66.4205C104.895 66.4205 105.67 66.6492 106.277 67.1065C106.893 67.5638 107.299 68.1985 107.495 69.0105H106.123C105.992 68.5438 105.735 68.1752 105.353 67.9045C104.979 67.6338 104.513 67.4985 103.953 67.4985C103.225 67.4985 102.637 67.7505 102.189 68.2545C101.741 68.7492 101.517 69.4538 101.517 70.3685C101.517 71.2925 101.741 72.0065 102.189 72.5105C102.637 73.0145 103.225 73.2665 103.953 73.2665C104.513 73.2665 104.979 73.1358 105.353 72.8745C105.726 72.6132 105.983 72.2398 106.123 71.7545H107.495C107.289 72.5385 106.879 73.1685 106.263 73.6445C105.647 74.1112 104.877 74.3445 103.953 74.3445C103.225 74.3445 102.576 74.1812 102.007 73.8545C101.447 73.5278 101.008 73.0658 100.691 72.4685C100.373 71.8712 100.215 71.1712 100.215 70.3685ZM108.719 70.3545C108.719 69.5705 108.877 68.8845 109.195 68.2965C109.512 67.6992 109.946 67.2372 110.497 66.9105C111.057 66.5838 111.677 66.4205 112.359 66.4205C113.031 66.4205 113.614 66.5652 114.109 66.8545C114.603 67.1438 114.972 67.5078 115.215 67.9465V66.5465H116.503V74.2185H115.215V72.7905C114.963 73.2385 114.585 73.6118 114.081 73.9105C113.586 74.1998 113.007 74.3445 112.345 74.3445C111.663 74.3445 111.047 74.1765 110.497 73.8405C109.946 73.5045 109.512 73.0332 109.195 72.4265C108.877 71.8198 108.719 71.1292 108.719 70.3545ZM115.215 70.3685C115.215 69.7898 115.098 69.2858 114.865 68.8565C114.631 68.4272 114.314 68.1005 113.913 67.8765C113.521 67.6432 113.087 67.5265 112.611 67.5265C112.135 67.5265 111.701 67.6385 111.309 67.8625C110.917 68.0865 110.604 68.4132 110.371 68.8425C110.137 69.2718 110.021 69.7758 110.021 70.3545C110.021 70.9425 110.137 71.4558 110.371 71.8945C110.604 72.3238 110.917 72.6552 111.309 72.8885C111.701 73.1125 112.135 73.2245 112.611 73.2245C113.087 73.2245 113.521 73.1125 113.913 72.8885C114.314 72.6552 114.631 72.3238 114.865 71.8945C115.098 71.4558 115.215 70.9472 115.215 70.3685ZM120.21 67.5965V72.1185C120.21 72.4918 120.289 72.7578 120.448 72.9165C120.606 73.0658 120.882 73.1405 121.274 73.1405H122.212V74.2185H121.064C120.354 74.2185 119.822 74.0552 119.468 73.7285C119.113 73.4018 118.936 72.8652 118.936 72.1185V67.5965H117.942V66.5465H118.936V64.6145H120.21V66.5465H122.212V67.5965H120.21ZM124.413 65.3005C124.171 65.3005 123.965 65.2165 123.797 65.0485C123.629 64.8805 123.545 64.6752 123.545 64.4325C123.545 64.1898 123.629 63.9845 123.797 63.8165C123.965 63.6485 124.171 63.5645 124.413 63.5645C124.647 63.5645 124.843 63.6485 125.001 63.8165C125.169 63.9845 125.253 64.1898 125.253 64.4325C125.253 64.6752 125.169 64.8805 125.001 65.0485C124.843 65.2165 124.647 65.3005 124.413 65.3005ZM125.029 66.5465V74.2185H123.755V66.5465H125.029ZM130.547 74.3445C129.828 74.3445 129.175 74.1812 128.587 73.8545C128.008 73.5278 127.551 73.0658 127.215 72.4685C126.888 71.8618 126.725 71.1618 126.725 70.3685C126.725 69.5845 126.893 68.8938 127.229 68.2965C127.574 67.6898 128.041 67.2278 128.629 66.9105C129.217 66.5838 129.875 66.4205 130.603 66.4205C131.331 66.4205 131.989 66.5838 132.577 66.9105C133.165 67.2278 133.627 67.6852 133.963 68.2825C134.308 68.8798 134.481 69.5752 134.481 70.3685C134.481 71.1618 134.303 71.8618 133.949 72.4685C133.603 73.0658 133.132 73.5278 132.535 73.8545C131.937 74.1812 131.275 74.3445 130.547 74.3445ZM130.547 73.2245C131.004 73.2245 131.433 73.1172 131.835 72.9025C132.236 72.6878 132.558 72.3658 132.801 71.9365C133.053 71.5072 133.179 70.9845 133.179 70.3685C133.179 69.7525 133.057 69.2298 132.815 68.8005C132.572 68.3712 132.255 68.0538 131.863 67.8485C131.471 67.6338 131.046 67.5265 130.589 67.5265C130.122 67.5265 129.693 67.6338 129.301 67.8485C128.918 68.0538 128.61 68.3712 128.377 68.8005C128.143 69.2298 128.027 69.7525 128.027 70.3685C128.027 70.9938 128.139 71.5212 128.363 71.9505C128.596 72.3798 128.904 72.7018 129.287 72.9165C129.669 73.1218 130.089 73.2245 130.547 73.2245ZM139.894 66.4065C140.827 66.4065 141.583 66.6912 142.162 67.2605C142.74 67.8205 143.03 68.6325 143.03 69.6965V74.2185H141.77V69.8785C141.77 69.1132 141.578 68.5298 141.196 68.1285C140.813 67.7178 140.29 67.5125 139.628 67.5125C138.956 67.5125 138.419 67.7225 138.018 68.1425C137.626 68.5625 137.43 69.1738 137.43 69.9765V74.2185H136.156V66.5465H137.43V67.6385C137.682 67.2465 138.022 66.9432 138.452 66.7285C138.89 66.5138 139.371 66.4065 139.894 66.4065ZM147.827 74.3445C147.239 74.3445 146.711 74.2465 146.245 74.0505C145.778 73.8452 145.409 73.5652 145.139 73.2105C144.868 72.8465 144.719 72.4312 144.691 71.9645H146.007C146.044 72.3472 146.221 72.6598 146.539 72.9025C146.865 73.1452 147.29 73.2665 147.813 73.2665C148.298 73.2665 148.681 73.1592 148.961 72.9445C149.241 72.7298 149.381 72.4592 149.381 72.1325C149.381 71.7965 149.231 71.5492 148.933 71.3905C148.634 71.2225 148.172 71.0592 147.547 70.9005C146.977 70.7512 146.511 70.6018 146.147 70.4525C145.792 70.2938 145.484 70.0652 145.223 69.7665C144.971 69.4585 144.845 69.0572 144.845 68.5625C144.845 68.1705 144.961 67.8112 145.195 67.4845C145.428 67.1578 145.759 66.9012 146.189 66.7145C146.618 66.5185 147.108 66.4205 147.659 66.4205C148.508 66.4205 149.194 66.6352 149.717 67.0645C150.239 67.4938 150.519 68.0818 150.557 68.8285H149.283C149.255 68.4272 149.091 68.1052 148.793 67.8625C148.503 67.6198 148.111 67.4985 147.617 67.4985C147.159 67.4985 146.795 67.5965 146.525 67.7925C146.254 67.9885 146.119 68.2452 146.119 68.5625C146.119 68.8145 146.198 69.0245 146.357 69.1925C146.525 69.3512 146.73 69.4818 146.973 69.5845C147.225 69.6778 147.57 69.7852 148.009 69.9065C148.559 70.0558 149.007 70.2052 149.353 70.3545C149.698 70.4945 149.992 70.7092 150.235 70.9985C150.487 71.2878 150.617 71.6658 150.627 72.1325C150.627 72.5525 150.51 72.9305 150.277 73.2665C150.043 73.6025 149.712 73.8685 149.283 74.0645C148.863 74.2512 148.377 74.3445 147.827 74.3445Z" fill="black"/>
<rect x="64.3667" y="95.7686" width="81.2226" height="6.49781" rx="3.24891" fill="#146BFF"/>
<rect x="64.3667" y="117.698" width="146.201" height="6.49781" rx="3.24891" fill="#9FC3FF"/>
<defs>
<filter id="filter0_d_407_1689" x="0" y="0.537109" width="305.799" height="190.463" filterUnits="userSpaceOnUse" color-interpolation-filters="sRGB">
<feFlood flood-opacity="0" result="BackgroundImageFix"/>
<feColorMatrix in="SourceAlpha" type="matrix" values="0 0 0 0 0 0 0 0 0 0 0 0 0 0 0 0 0 0 127 0" result="hardAlpha"/>
<feOffset/>
<feGaussianBlur stdDeviation="20"/>
<feComposite in2="hardAlpha" operator="out"/>
<feColorMatrix type="matrix" values="0 0 0 0 0.00784314 0 0 0 0 0.654902 0 0 0 0 0.913725 0 0 0 0.15 0"/>
<feBlend mode="normal" in2="BackgroundImageFix" result="effect1_dropShadow_407_1689"/>
<feBlend mode="normal" in="SourceGraphic" in2="effect1_dropShadow_407_1689" result="shape"/>
</filter>
</defs>
</svg>
