<svg width="25" height="33" viewBox="0 0 25 33" fill="none" xmlns="http://www.w3.org/2000/svg">
<path d="M23.13 12.065C23.13 9.13038 21.9642 6.31596 19.8891 4.24086C17.814 2.16577 14.9996 1 12.065 1C9.13038 1 6.31595 2.16577 4.24086 4.24086C2.16577 6.31596 1 9.13038 1 12.065C1 22.1241 12.065 31.1773 12.065 31.1773C12.065 31.1773 23.13 22.1241 23.13 12.065Z" stroke="#146BFF" stroke-width="2" stroke-linecap="round" stroke-linejoin="round"/>
<path d="M12.0637 17.0944C14.8415 17.0944 17.0933 14.8426 17.0933 12.0648C17.0933 9.28708 14.8415 7.03528 12.0637 7.03528C9.28598 7.03528 7.03418 9.28708 7.03418 12.0648C7.03418 14.8426 9.28598 17.0944 12.0637 17.0944Z" stroke="#146BFF" stroke-width="2" stroke-linecap="round" stroke-linejoin="round"/>
</svg>
