<svg width="11" height="8" viewBox="0 0 11 8" fill="none" xmlns="http://www.w3.org/2000/svg">
<path d="M9.25636 0.256365L3.74999 5.76274L1.74362 3.75636C1.57859 3.59698 1.35756 3.50878 1.12814 3.51077C0.898717 3.51277 0.679256 3.60479 0.517024 3.76702C0.354792 3.92926 0.262769 4.14872 0.260775 4.37814C0.258782 4.60756 0.346977 4.82859 0.506365 4.99361L3.13137 7.61862C3.29545 7.78265 3.51797 7.8748 3.74999 7.8748C3.98201 7.8748 4.20453 7.78265 4.36862 7.61862L10.4936 1.49361C10.653 1.32859 10.7412 1.10756 10.7392 0.878139C10.7372 0.648717 10.6452 0.429256 10.483 0.267024C10.3207 0.104791 10.1013 0.0127689 9.87184 0.0107753C9.64242 0.00878165 9.42139 0.0969767 9.25636 0.256365Z" fill="#146BFF"/>
</svg>
