<svg width="53" height="53" viewBox="0 0 53 53" fill="none" xmlns="http://www.w3.org/2000/svg">
<path d="M13.5297 44.5813V50.3266C13.5297 50.886 13.9861 51.3394 14.5489 51.3394H34.3989C34.9617 51.3394 35.4181 50.886 35.4181 50.3266V45.5668C35.4181 45.0075 35.8742 44.5539 36.4372 44.5539H42.1323C44.3838 44.5539 46.2089 42.7401 46.2089 40.5025V39.8423M46.2089 36.571V35.1213C46.2089 34.5619 46.6653 34.1085 47.2281 34.1085H49.9794C50.7463 34.1085 51.2384 33.2986 50.8814 32.6241L46.3846 24.1264C46.2693 23.9083 46.2089 23.6656 46.2089 23.4192V20.6463C46.2089 9.98138 37.6511 1.16864 26.9215 1.00243C15.9534 0.832466 7.00843 9.61777 7.00843 20.4793C7.00843 26.0082 9.32771 30.997 13.0502 34.5425C13.354 34.8319 13.5298 35.2291 13.5298 35.6472V41.2086M16.2139 9.71501L10.7619 4.29658C10.4751 4.01166 10.0863 3.85152 9.68089 3.85152H4.64701M11.8819 20.0387H4.4432M16.1697 30.1561L8.57903 37.7C8.29234 37.9849 8.13121 38.3713 8.13121 38.7743V40.9286M18.9846 18.514C19.6945 15.0667 22.7635 12.4735 26.4422 12.4735C30.6461 12.4735 34.0542 15.8605 34.0542 20.0387C34.0542 24.2169 30.6461 27.6039 26.4422 27.6039C22.8189 27.6039 19.7868 25.088 19.0183 21.7181M4.21755 3.85156C4.21755 4.73457 3.49732 5.45047 2.60873 5.45047C1.72023 5.45047 1 4.73457 1 3.85156C1 2.96854 1.72023 2.25265 2.60873 2.25265C3.49732 2.25265 4.21755 2.96854 4.21755 3.85156ZM4.21755 20.0387C4.21755 20.9217 3.49732 21.6376 2.60873 21.6376C1.72023 21.6376 1 20.9217 1 20.0387C1 19.1557 1.72023 18.4398 2.60873 18.4398C3.49732 18.4398 4.21755 19.1557 4.21755 20.0387ZM9.74006 42.9543C9.74006 43.8373 9.01983 44.5532 8.13123 44.5532C7.24274 44.5532 6.52241 43.8373 6.52241 42.9543C6.52241 42.0713 7.24274 41.3554 8.13123 41.3554C9.01983 41.3554 9.74006 42.0713 9.74006 42.9543ZM40.3039 17.4496H36.9902C36.7642 17.4496 36.5661 17.3014 36.5021 17.086C36.2911 16.3756 36.006 15.6968 35.6558 15.0583C35.5474 14.8609 35.5819 14.6166 35.742 14.4577L38.0859 12.1281C38.285 11.9304 38.285 11.6096 38.0859 11.4119L35.1224 8.4666C34.9234 8.26889 34.6008 8.26889 34.4017 8.4666L32.0577 10.7962C31.8978 10.9552 31.6519 10.9894 31.4534 10.8819C30.8109 10.5338 30.128 10.2504 29.4131 10.0407C29.1963 9.97719 29.0472 9.78018 29.0472 9.55563V6.2624C29.0472 5.98274 28.819 5.75596 28.5376 5.75596H24.3466C24.0652 5.75596 23.837 5.98274 23.837 6.2624V9.55563C23.837 9.78018 23.6878 9.97719 23.4711 10.0407C22.7563 10.2504 22.0734 10.5338 21.4309 10.8819C21.2323 10.9894 20.9865 10.9552 20.8264 10.7962L18.4825 8.4666C18.2835 8.26889 17.9608 8.26889 17.7619 8.4666L14.7983 11.4119C14.5993 11.6096 14.5993 11.9304 14.7983 12.1281L17.1423 14.4577C17.3022 14.6166 17.3368 14.8609 17.2285 15.0583C16.8783 15.6968 16.593 16.3756 16.3821 17.086C16.3182 17.3014 16.12 17.4496 15.8941 17.4496H12.5804C12.2989 17.4496 12.0708 17.6764 12.0708 17.956V22.1213C12.0708 22.401 12.2989 22.6277 12.5804 22.6277H15.8941C16.12 22.6277 16.3182 22.776 16.3821 22.9914C16.593 23.7018 16.8783 24.3806 17.2285 25.0191C17.3368 25.2165 17.3022 25.4607 17.1423 25.6197L14.7983 27.9493C14.5993 28.147 14.5993 28.4677 14.7983 28.6655L17.7619 31.6107C17.9608 31.8085 18.2835 31.8085 18.4825 31.6107L20.8264 29.2812C20.9865 29.1222 21.2323 29.0878 21.4309 29.1955C22.0734 29.5436 22.7563 29.827 23.4711 30.0367C23.6878 30.1002 23.837 30.2971 23.837 30.5218V33.815C23.837 34.0946 24.0652 34.3214 24.3466 34.3214H28.5376C28.819 34.3214 29.0472 34.0946 29.0472 33.815V30.5218C29.0472 30.2971 29.1963 30.1002 29.4131 30.0367C30.128 29.827 30.8109 29.5436 31.4534 29.1955C31.6519 29.0878 31.8978 29.1222 32.0577 29.2812L34.4017 31.6107C34.6008 31.8085 34.9234 31.8085 35.1224 31.6107L38.0859 28.6655C38.285 28.4677 38.285 28.147 38.0859 27.9493L35.742 25.6197C35.5819 25.4607 35.5474 25.2165 35.6558 25.0191C36.006 24.3806 36.2911 23.7018 36.5021 22.9914C36.5661 22.776 36.7642 22.6277 36.9902 22.6277H40.3039C40.5853 22.6277 40.8135 22.401 40.8135 22.1213V17.956C40.8135 17.6764 40.5853 17.4496 40.3039 17.4496Z" stroke="white" stroke-width="2" stroke-miterlimit="10" stroke-linecap="round" stroke-linejoin="round"/>
</svg>
