<svg width="24" height="24" viewBox="0 0 24 24" fill="none" xmlns="http://www.w3.org/2000/svg">
<path d="M23.5066 0.196165C23.1507 -0.0454613 22.6907 -0.0659873 22.3144 0.14635L0.567983 12.5171C0.196077 12.7327 -0.0236037 13.1357 0.00202105 13.5622C0.0276505 13.9898 0.294166 14.3664 0.689035 14.5318L7.87316 17.5488V22.8678C7.87316 23.2793 8.09796 23.657 8.45895 23.8548C8.62751 23.9471 8.81028 23.9939 8.95555 23.9939C9.16719 23.9939 9.3791 23.9339 9.5643 23.8153L14.7755 20.4665L19.3943 22.4066C19.5342 22.4652 19.6821 22.4945 19.83 22.4945C20.0211 22.4945 20.2115 22.4461 20.3821 22.3495C20.6845 22.1796 20.8919 21.878 20.9421 21.535L23.9413 1.29009C24.0455 0.864153 23.858 0.439244 23.5066 0.196165ZM17.3066 5.58609L8.53847 15.3758L3.66611 13.3419L17.3066 5.58609ZM10.0803 20.8072V18.4941L12.2571 19.4084L10.0803 20.8072ZM18.9702 19.7716L10.6942 16.2948L21.2196 4.60243L18.9702 19.7716Z" fill="white"/>
</svg>
